<?xml version="1.0" encoding="utf-8"?>
<svg id="master-artboard" viewBox="0 0 350 350" version="1.1" xmlns="http://www.w3.org/2000/svg" x="0px" y="0px" width="350px" height="350px" enable-background="new 0 0 1400 980"><rect id="ee-background" x="0" y="0" width="350" height="350" style="fill: white; fill-opacity: 0; pointer-events: none;"/>
<path fill="#E1E0D1" d="M279.9,291.5c-1.5-5.4-3.4-10.7-5.9-15.8c9.6-18.6,39.3-75.3,39.6-75.8c0.4-0.7,0.2-1.5-0.3-2.1&#10;&#9;&#9;&#9;c-0.5-0.6-1.4-0.7-2.1-0.4l-81.5,34.9c-1.5-0.6-3-1.2-4.5-1.7l2.4-15.5c0.1-0.8-0.3-1.5-1-1.9c-0.7-0.4-1.6-0.2-2.1,0.3&#10;&#9;&#9;&#9;l-11.1,10.9v-15.3c0-0.8-0.5-1.5-1.3-1.7c-0.8-0.2-1.6,0-2,0.7l-10.4,14.6l-9.9-28.4c-0.3-0.7-1.2-1.2-1.9-1.2s-1.5,0.5-1.7,1.2&#10;&#9;&#9;&#9;l-9.9,28.4L165.9,208c-0.5-0.7-1.3-0.9-2-0.7c-0.8,0.2-1.3,0.9-1.3,1.7v15.3l-11.1-10.9c-0.6-0.6-1.4-0.7-2.1-0.3&#10;&#9;&#9;&#9;c-0.7,0.4-1.1,1.1-1,1.9l2.4,15.5c-1.5,0.5-3,1.1-4.5,1.7l-81.5-34.9c-0.7-0.3-1.5-0.1-2.1,0.4c-0.5,0.6-0.6,1.4-0.3,2.1&#10;&#9;&#9;&#9;c0.3,0.6,30,57.2,39.6,75.8c-2.4,5.1-4.3,10.4-5.9,15.8c-7.1,3.7-55.1,30.5-59.7,80.8c-0.2,0.9-0.9,5.3,1.4,7.3&#10;&#9;&#9;&#9;c0.5,0.4,1.1,0.8,2,0.9c0,1.5,0.2,3.4,1.5,4.6c0.8,0.8,2.1,1.5,4.4,1.2c0.9,0.9,2.5,2.1,4.6,2.1c0.1,0,0.2,0,0.4,0&#10;&#9;&#9;&#9;c2.5-0.2,4.8-2.1,6.8-5.6c6.4-6.7,24-23.1,34.7-25.1c0.7,6,1.4,9.9,1.6,10.6c1.8,9.9,4.2,19,7.2,27.2&#10;&#9;&#9;&#9;c-4.6,7.3-17.4,35.5-13.2,62.1c-3.9,1.1-12.8,4.5-12.5,11.5c-0.1,0.7-0.1,2.2,1.1,3.6c1.5,1.8,4.3,2.7,8.3,2.7c0,0,0.1,0,0.1,0&#10;&#9;&#9;&#9;c0.3,0.8,0.9,1.8,2,2.6c2.6,1.8,6.9,1.6,12.8-0.7c0.9,1.4,2.6,3.4,5.5,4.1c0.8,0.2,1.6,0.3,2.4,0.3c4.4,0,9.5-2.7,15.4-7.9&#10;&#9;&#9;&#9;l28.7-24.8c13.1,4.6,25.8,5.4,36.3,5.4c10.3,0,23-0.8,36.1-5.4l28.7,24.7c5.9,5.3,11.1,8,15.4,8c0.8,0,1.6-0.1,2.4-0.3&#10;&#9;&#9;&#9;c2.9-0.7,4.6-2.7,5.5-4.1c6,2.3,10.2,2.5,12.8,0.7c1.1-0.8,1.7-1.7,2-2.6c4,0,6.9-0.9,8.4-2.7c1.2-1.4,1.2-2.9,1.1-3.6&#10;&#9;&#9;&#9;c0.4-6.9-8.6-10.3-12.5-11.5c4.2-26.5-8.5-54.8-13.2-62.1c3.1-8.2,5.5-17.3,7.2-27.2c0.1-0.7,0.9-4.6,1.6-10.6&#10;&#9;&#9;&#9;c12.3,2.2,32.6,23,34.7,25.1c1.9,3.6,4.2,5.5,6.8,5.6c0.1,0,0.2,0,0.4,0c2.1,0,3.7-1.2,4.6-2.1c2.3,0.3,3.6-0.4,4.4-1.2&#10;&#9;&#9;&#9;c1.3-1.2,1.5-3.1,1.5-4.6c0.9-0.1,1.6-0.5,2-0.9c2.4-2,1.6-6.4,1.5-7.1C335,322,287,295.2,279.9,291.5z" transform="matrix(1, 0, 0, 1, -6.93878173828125, -157.85714721679688)"/><g transform="matrix(1, 0, 0, 1, -6.93878173828125, -157.85714721679688)">
			<g>
				<path fill="#8B7CB9" d="M248.3,247.6c0,0-14.6-16.2-32.4-21.4l2.7-17.1l-14.2,14v-19.7l-12.4,17.5l-11.1-31.7h-0.2l-11.1,31.7&#10;&#9;&#9;&#9;&#9;&#9;l-12.4-17.5v19.7l-14.2-14l2.7,17.1c-17.8,5.2-32.4,21.4-32.4,21.4c-39.9,36.7-24.9,114.6-24.9,114.6&#10;&#9;&#9;&#9;&#9;&#9;c14.5,81.9,70.2,84.5,92.3,84.5h0.2c22.1,0,77.8-2.6,92.3-84.5C273.2,362.1,288.2,284.3,248.3,247.6z"/>
				<path fill="#3C2415" d="M180.8,448.5c-14.2,0-32.4-1.4-50.2-11.8c-23-13.5-37.8-38.5-44.2-74.2c-0.6-3.2-14.8-79.2,25.4-116.2&#10;&#9;&#9;&#9;&#9;&#9;c0.5-0.5,14.3-15.6,31.6-21.4l-2.4-15.5c-0.1-0.8,0.3-1.5,1-1.9c0.7-0.4,1.6-0.2,2.1,0.3l11.1,10.9v-15.3c0-0.8,0.5-1.5,1.3-1.7&#10;&#9;&#9;&#9;&#9;&#9;c0.8-0.2,1.6,0,2,0.7l10.4,14.6l9.9-28.4c0.3-0.7,0.9-1.2,1.7-1.2c0.8,0,1.7,0.5,1.9,1.2l9.9,28.4l10.4-14.6&#10;&#9;&#9;&#9;&#9;&#9;c0.5-0.7,1.3-0.9,2-0.7c0.8,0.2,1.3,0.9,1.3,1.7v15.3l11.1-10.9c0.6-0.6,1.4-0.7,2.1-0.3c0.7,0.4,1.1,1.1,1,1.9l-2.4,15.5&#10;&#9;&#9;&#9;&#9;&#9;c16.9,5.6,30.5,20.2,31.6,21.4c40.2,37,26,113,25.4,116.2c-6.3,35.7-21.2,60.7-44.2,74.2C213.1,447.1,194.8,448.5,180.8,448.5z&#10;&#9;&#9;&#9;&#9;&#9; M145.6,214.3l1.8,11.6c0.1,0.9-0.4,1.8-1.3,2c-17.1,5-31.4,20.7-31.6,20.9C75.7,284.5,90,361,90.1,361.8&#10;&#9;&#9;&#9;&#9;&#9;c14.7,83,71.8,83,90.5,83.1c76-0.1,87.1-62.5,90.7-83c0.2-0.8,14.4-77.3-24.3-112.9c0,0-0.1-0.1-0.1-0.1&#10;&#9;&#9;&#9;&#9;&#9;c-0.1-0.2-14.5-15.9-31.6-20.9c-0.9-0.3-1.4-1.1-1.3-2l1.8-11.6l-10.3,10.1c-0.5,0.5-1.3,0.7-2,0.4c-0.7-0.3-1.1-1-1.1-1.7&#10;&#9;&#9;&#9;&#9;&#9;v-13.9l-9.1,12.8c-0.4,0.6-1.1,0.8-1.7,0.8c-0.7-0.1-1.2-0.6-1.5-1.2l-9.5-27.1l-9.5,27.1c-0.2,0.6-0.8,1.1-1.5,1.2&#10;&#9;&#9;&#9;&#9;&#9;c-0.7,0.1-1.4-0.2-1.7-0.8l-9.1-12.8v13.9c0,0.7-0.4,1.4-1.1,1.7c-0.7,0.3-1.5,0.1-2-0.4L145.6,214.3z"/>
			</g>
			<g>
				<path fill="#FFFFFF" d="M180.8,358.2h-0.2c0,0-53.9-0.6-73.6-28.9c0,0,4.8,58.1,73.6,60.3h0.2c68.8-2.2,73.6-60.3,73.6-60.3&#10;&#9;&#9;&#9;&#9;&#9;C234.8,357.5,180.8,358.2,180.8,358.2z"/>
				<path fill="#3C2415" d="M180.6,391.5c-69.7-2.2-75.3-61.4-75.4-62c-0.1-0.8,0.4-1.6,1.2-1.9c0.8-0.3,1.6,0,2.1,0.7&#10;&#9;&#9;&#9;&#9;&#9;c18.9,27.1,71.6,28.1,72.1,28.1l0.2,1.8l0-1.8c0.5,0,53.2-1,72.1-28.1c0.5-0.7,1.3-1,2.1-0.7c0.8,0.3,1.3,1,1.2,1.9&#10;&#9;&#9;&#9;&#9;&#9;c0,0.6-5.7,59.8-75.3,62C180.9,391.5,180.6,391.5,180.6,391.5z M110,335.8c3.5,15,17.4,50.3,70.7,52c53.3-1.7,67.3-37,70.8-52&#10;&#9;&#9;&#9;&#9;&#9;c-8.9,9.2-22.8,16.2-40.8,20.3c-15.9,3.7-29.3,3.9-29.8,3.9c0,0,0,0,0,0h-0.2c-0.6,0-13.9-0.2-29.8-3.9&#10;&#9;&#9;&#9;&#9;&#9;C132.8,352,118.9,345,110,335.8z"/>
			</g>
			<g>
				<path fill="#8B7CB9" d="M113.2,247.6c0,0,11.2-12.4,25.9-19l-82.2-35.2c0,0,30.9,58.9,40.1,76.7&#10;&#9;&#9;&#9;&#9;&#9;C100.9,261.7,106.1,254,113.2,247.6z"/>
				<path fill="#3C2415" d="M96.9,271.9c-0.7,0-1.3-0.4-1.6-1c-9.1-17.6-39.8-76.1-40.1-76.7c-0.4-0.7-0.2-1.5,0.3-2.1&#10;&#9;&#9;&#9;&#9;&#9;c0.5-0.6,1.4-0.7,2.1-0.4l82.2,35.2c0.7,0.3,1.1,0.9,1.1,1.7c0,0.7-0.4,1.4-1.1,1.7c-14.2,6.4-25.2,18.4-25.3,18.5&#10;&#9;&#9;&#9;&#9;&#9;c0,0-0.1,0.1-0.1,0.1c-6.4,5.8-11.7,13.2-15.9,22C98.2,271.5,97.6,271.9,96.9,271.9C96.9,271.9,96.9,271.9,96.9,271.9z&#10;&#9;&#9;&#9;&#9;&#9; M60.8,197.1c7,13.3,27.2,52,36,69c4.1-7.7,9.2-14.4,15-19.8c0.9-1,10.2-10.9,22.8-17.6L60.8,197.1z M113.2,247.6L113.2,247.6&#10;&#9;&#9;&#9;&#9;&#9;L113.2,247.6z"/>
			</g>
			<g>
				<path fill="#8B7CB9" d="M90.6,287c0,0-54.7,26.1-59.5,79.9c0,0-1.6,7.7,3.8,5.7c0,0-2,7.7,4.4,5.9c0,0,4.7,6.6,9.5-2.6&#10;&#9;&#9;&#9;&#9;&#9;c0,0,24.4-25.6,37.8-26C86.6,349.9,81.6,318.3,90.6,287z"/>
				<path fill="#3C2415" d="M43.2,382.6c-2.1,0-3.7-1.2-4.6-2.1c-2.3,0.3-3.6-0.4-4.4-1.2c-1.3-1.2-1.5-3.1-1.5-4.6&#10;&#9;&#9;&#9;&#9;&#9;c-0.9-0.1-1.6-0.5-2-0.9c-2.4-2-1.6-6.4-1.4-7.3c4.9-54,60-80.9,60.5-81.2c0.6-0.3,1.4-0.2,2,0.3c0.5,0.5,0.8,1.2,0.6,1.9&#10;&#9;&#9;&#9;&#9;&#9;c-8.7,30.5-4,61.7-3.9,62c0.1,0.5-0.1,1-0.4,1.5c-0.3,0.4-0.8,0.6-1.4,0.7C76.3,352,57.1,369.9,50.3,377&#10;&#9;&#9;&#9;&#9;&#9;c-1.9,3.6-4.2,5.5-6.8,5.6C43.4,382.6,43.3,382.6,43.2,382.6z M39.3,376.7c0.6,0,1.1,0.3,1.5,0.8c0,0,1.2,1.6,2.6,1.5&#10;&#9;&#9;&#9;&#9;&#9;c1.2-0.1,2.6-1.5,3.9-3.9c0.1-0.1,0.2-0.3,0.3-0.4c1-1,22.9-23.9,37.1-26.4c-0.9-7-3.2-32,3.2-57.6c-12.2,7-50.9,32.4-54.9,76.5&#10;&#9;&#9;&#9;&#9;&#9;c-0.3,1.7-0.2,3.6,0.2,4c0,0,0.4,0.1,1.1-0.2c0.6-0.2,1.4-0.1,1.9,0.4c0.5,0.5,0.7,1.2,0.5,1.8c-0.3,1.1-0.4,3.1,0.2,3.7&#10;&#9;&#9;&#9;&#9;&#9;c0.3,0.3,1,0.3,2,0C38.9,376.7,39.1,376.7,39.3,376.7z"/>
			</g>
			<g>
				<path fill="#8B7CB9" d="M95.7,389.6c0,0-18.9,31.9-13,63.4c0,0-13.3,2.9-12.7,10.2c0,0-1.2,5,9.2,4.4c0,0-0.3,7.6,14.2,1.5&#10;&#9;&#9;&#9;&#9;&#9;c0,0,4.4,12.5,21.3-2.6l29.6-25.5C144.2,441,110.6,431.2,95.7,389.6z"/>
				<path fill="#3C2415" d="M100.4,475.8c-0.8,0-1.6-0.1-2.4-0.3c-2.9-0.7-4.6-2.7-5.5-4.1c-6,2.3-10.2,2.5-12.8,0.7&#10;&#9;&#9;&#9;&#9;&#9;c-1.1-0.8-1.7-1.7-2-2.6c0,0-0.1,0-0.1,0c-4,0-6.8-0.9-8.3-2.7c-1.2-1.4-1.2-2.9-1.1-3.6c-0.4-6.9,8.6-10.3,12.5-11.5&#10;&#9;&#9;&#9;&#9;&#9;c-4.9-30.5,12.8-63.4,14.6-63.9c0.9-0.3,1.9,0.2,2.2,1.1c14.4,40.2,47,50.1,47.3,50.2c0.6,0.2,1.1,0.7,1.3,1.4&#10;&#9;&#9;&#9;&#9;&#9;c0.1,0.7-0.1,1.3-0.6,1.8l-29.6,25.5C110,473.1,104.8,475.8,100.4,475.8z M93.3,467.3c0.3,0,0.5,0.1,0.7,0.2&#10;&#9;&#9;&#9;&#9;&#9;c0.5,0.2,0.8,0.6,1,1.1c0,0.1,1.1,2.8,3.9,3.5c2.4,0.6,6.9-0.1,14.5-6.9l27.2-23.4c-8.5-3.4-32.2-15.5-45.2-47.6&#10;&#9;&#9;&#9;&#9;&#9;c-4.5,9-15.5,34.2-10.9,58.7c0.2,1-0.4,1.9-1.4,2.1c-0.1,0-11.7,2.7-11.3,8.3c0,0.2,0,0.4,0,0.6c0,0,0,0.4,0.3,0.8&#10;&#9;&#9;&#9;&#9;&#9;c0.4,0.5,2,1.6,6.9,1.3c0.5,0,1,0.2,1.4,0.5c0.4,0.4,0.6,0.9,0.5,1.4c0,0.1,0,0.9,0.8,1.4c0.8,0.5,3.4,1.4,10.8-1.7&#10;&#9;&#9;&#9;&#9;&#9;C92.9,467.3,93.1,467.3,93.3,467.3z"/>
			</g>
			<g>
				<path fill="#F15A29" d="M170.3,330.9c0,0-15.4,20-34.9,3c0,0-15.5-12.2-6.2-39.7l19.5,17.4l10.1,9L170.3,330.9z"/>
				<path fill="#3C2415" d="M151.4,342.6c-5.9,0-11.7-2.5-17.3-7.3c-0.6-0.5-16.4-13.3-6.7-41.7c0.2-0.6,0.7-1,1.3-1.2&#10;&#9;&#9;&#9;&#9;&#9;c0.6-0.2,1.2,0,1.7,0.4l41.1,36.7c0.7,0.6,0.8,1.7,0.2,2.5c-0.3,0.4-7.3,9.4-18.2,10.5C152.8,342.6,152.1,342.6,151.4,342.6z&#10;&#9;&#9;&#9;&#9;&#9; M130,297.4c-7,23.9,5.9,34.6,6.5,35c5.5,4.8,11.1,7,16.7,6.4c7-0.7,12.3-5.5,14.5-7.8L130,297.4z"/>
			</g>
			<path fill="#3C2415" d="M158.7,320.6c-0.6,6.1-2.7,10.7-5.2,10.7c-2.9,0-5.3-6.3-5.3-14.1c0-2,0.1-3.9,0.4-5.6L158.7,320.6z"/>
			<path d="M 160.300003 356.399994 H 164.000003 V 387.399994 H 160.300003 V 356.399994 Z" fill="#3C2415"/>
			<path d="M 137.399994 351 H 141.099994 V 378.799999 H 137.399994 V 351 Z" fill="#3C2415"/>
			<path d="M 122.699997 344.5 H 126.399997 V 366.9 H 122.699997 V 344.5 Z" fill="#3C2415"/>
			<g>
				<path fill="#8B7CB9" d="M248.3,247.6c0,0-11.2-12.4-25.9-19l82.2-35.2c0,0-30.9,58.9-40.1,76.7&#10;&#9;&#9;&#9;&#9;&#9;C260.6,261.7,255.3,254,248.3,247.6z"/>
				<path fill="#3C2415" d="M264.6,271.9C264.6,271.9,264.6,271.9,264.6,271.9c-0.7,0-1.3-0.4-1.6-1c-4.2-8.7-9.5-16.1-15.9-22&#10;&#9;&#9;&#9;&#9;&#9;c0,0-0.1-0.1-0.1-0.1c-0.1-0.1-11.1-12.2-25.3-18.5c-0.7-0.3-1.1-1-1.1-1.7c0-0.7,0.4-1.4,1.1-1.7l82.2-35.2&#10;&#9;&#9;&#9;&#9;&#9;c0.7-0.3,1.5-0.1,2.1,0.4c0.5,0.6,0.6,1.4,0.3,2.1c-0.3,0.6-31,59.1-40.1,76.7C265.9,271.5,265.3,271.9,264.6,271.9z&#10;&#9;&#9;&#9;&#9;&#9; M249.6,246.3c5.9,5.4,10.9,12.1,15,19.8c8.8-17,29.1-55.7,36-69l-73.9,31.6C239.4,235.4,248.7,245.3,249.6,246.3z"/>
			</g>
			<g>
				<path fill="#8B7CB9" d="M270.9,287c0,0,54.7,26.1,59.5,79.9c0,0,1.6,7.7-3.8,5.7c0,0,2,7.7-4.4,5.9c0,0-4.7,6.6-9.5-2.6&#10;&#9;&#9;&#9;&#9;&#9;c0,0-24.4-25.6-37.8-26C274.8,349.9,279.8,318.3,270.9,287z"/>
				<path fill="#3C2415" d="M318.3,382.6c-0.1,0-0.2,0-0.4,0c-2.5-0.2-4.8-2.1-6.8-5.6c-2.1-2.2-24.4-24.9-36.4-25.3&#10;&#9;&#9;&#9;&#9;&#9;c-0.5,0-1-0.3-1.4-0.7c-0.3-0.4-0.5-0.9-0.4-1.5c0-0.3,4.8-31.5-3.9-62c-0.2-0.7,0-1.4,0.6-1.9c0.5-0.5,1.3-0.6,2-0.3&#10;&#9;&#9;&#9;&#9;&#9;c0.6,0.3,55.7,27.2,60.6,81.4c0.1,0.7,0.9,5.1-1.5,7.1c-0.5,0.4-1.1,0.8-2,0.9c0,1.5-0.2,3.4-1.5,4.6c-0.8,0.8-2.1,1.5-4.4,1.2&#10;&#9;&#9;&#9;&#9;&#9;C322,381.4,320.4,382.6,318.3,382.6z M276.9,348.2c14.2,2.5,36.1,25.4,37.1,26.4c0.1,0.1,0.2,0.3,0.3,0.4&#10;&#9;&#9;&#9;&#9;&#9;c1.3,2.4,2.7,3.8,3.9,3.9c1.4,0.1,2.6-1.5,2.6-1.5c0.4-0.6,1.2-0.9,2-0.7c1,0.3,1.7,0.3,2,0c0.6-0.6,0.5-2.5,0.2-3.7&#10;&#9;&#9;&#9;&#9;&#9;c-0.2-0.7,0-1.4,0.5-1.8c0.5-0.5,1.2-0.6,1.9-0.4c0.8,0.3,1.1,0.2,1.1,0.2c0.4-0.4,0.5-2.2,0.2-3.8c-4-44.3-42.7-69.7-54.9-76.7&#10;&#9;&#9;&#9;&#9;&#9;C280.1,316.2,277.8,341.3,276.9,348.2z"/>
			</g>
			<g>
				<path fill="#8B7CB9" d="M265.8,389.6c0,0,18.9,31.9,13,63.4c0,0,13.3,2.9,12.7,10.2c0,0,1.2,5-9.2,4.4c0,0,0.3,7.6-14.2,1.5&#10;&#9;&#9;&#9;&#9;&#9;c0,0-4.4,12.5-21.3-2.6L217.3,441C217.3,441,250.9,431.2,265.8,389.6z"/>
				<path fill="#3C2415" d="M261,475.8c-4.4,0-9.5-2.7-15.4-8l-29.5-25.4c-0.5-0.4-0.7-1.1-0.6-1.8c0.1-0.7,0.6-1.2,1.3-1.4&#10;&#9;&#9;&#9;&#9;&#9;c0.3-0.1,32.9-10.2,47.3-50.2c0.3-0.9,1.3-1.4,2.2-1.1c1.8,0.5,19.5,33.3,14.6,63.9c3.9,1.1,12.8,4.5,12.5,11.5&#10;&#9;&#9;&#9;&#9;&#9;c0.1,0.7,0.1,2.2-1.1,3.6c-1.5,1.8-4.4,2.7-8.4,2.7c-0.3,0.8-0.9,1.8-2,2.6c-2.6,1.8-6.9,1.6-12.8-0.7c-0.9,1.4-2.6,3.4-5.5,4.1&#10;&#9;&#9;&#9;&#9;&#9;C262.7,475.7,261.9,475.8,261,475.8z M220.8,441.7l27.2,23.4c7.5,6.8,12,7.5,14.5,6.9c2.8-0.7,3.9-3.4,3.9-3.5&#10;&#9;&#9;&#9;&#9;&#9;c0.2-0.5,0.5-0.9,1-1c0.5-0.2,1-0.2,1.4,0c7.4,3.1,10,2.2,10.8,1.7c0.8-0.5,0.8-1.4,0.8-1.5c0-0.5,0.2-1,0.6-1.3&#10;&#9;&#9;&#9;&#9;&#9;c0.4-0.3,0.9-0.5,1.4-0.5c5,0.3,6.5-0.8,6.9-1.3c0.4-0.4,0.3-0.8,0.3-0.9c0-0.1,0-0.4,0-0.5c0.4-4.6-8.2-7.6-11.3-8.3&#10;&#9;&#9;&#9;&#9;&#9;c-1-0.2-1.6-1.2-1.4-2.1c4.6-24.5-6.4-49.7-10.9-58.7C253.1,426.2,229.3,438.3,220.8,441.7z"/>
			</g>
			<g>
				<path fill="#F15A29" d="M191.2,330.9c0,0,16.8,19.1,34.9,3c0,0,15.5-12.2,6.2-39.7l-19.5,17.4l-10.1,9L191.2,330.9z"/>
				<path fill="#3C2415" d="M210.7,342.2c-0.4,0-0.9,0-1.3,0c-11.2-0.7-19.2-9.7-19.6-10c-0.7-0.8-0.6-1.9,0.2-2.6l41.1-36.7&#10;&#9;&#9;&#9;&#9;&#9;c0.5-0.4,1.1-0.6,1.7-0.4c0.6,0.2,1.1,0.6,1.3,1.2c9.6,28.4-6.1,41.2-6.8,41.7C222.2,339.9,216.6,342.2,210.7,342.2z M193.9,331&#10;&#9;&#9;&#9;&#9;&#9;c2.5,2.3,8.5,7.1,15.8,7.5c5.3,0.3,10.4-1.7,15.2-6c0.6-0.5,13.5-11.1,6.5-35.1L193.9,331z"/>
			</g>
			<path fill="#3C2415" d="M202.7,320.6c0.6,6.1,2.7,10.7,5.2,10.7c2.9,0,5.3-6.3,5.3-14.1c0-2-0.1-3.9-0.4-5.6L202.7,320.6z"/>
			<path d="M 197.5 356.399994 H 201.2 V 387.399994 H 197.5 V 356.399994 Z" fill="#3C2415"/>
			<path d="M 220.399994 351 H 224.099994 V 378.799999 H 220.399994 V 351 Z" fill="#3C2415"/>
			<path d="M 235.100006 344.5 H 238.800006 V 366.9 H 235.100006 V 344.5 Z" fill="#3C2415"/>
		</g>
</svg>