<?xml version="1.0" encoding="utf-8"?>
<svg id="master-artboard" viewBox="0 0 350 350" version="1.1" xmlns="http://www.w3.org/2000/svg" x="0px" y="0px" width="350px" height="350px" enable-background="new 0 0 1400 980"><rect id="ee-background" x="0" y="0" width="350" height="350" style="fill: white; fill-opacity: 0; pointer-events: none;"/>
<path fill="#E1E0D1" d="M1378.3,659.6c0.3-4.8-7.8-7.4-9.4-7.8l-19.3-5.8c10.4-1.9,17.3-6.9,20.8-10.2c2.3-2.1,3.7-4.7,4.3-7.5&#10;&#9;&#9;&#9;c0.6-3.4-0.5-5.3-1.5-6.4c-2.9-3-8.2-2.2-8.7-2.1c-49.6,5.2-91.5-8.5-91.9-8.6c0,0,0,0-0.1,0c-17.5-17.5-40.4-30.6-70.2-31.6&#10;&#9;&#9;&#9;c-29.7,1-52.7,14.1-70.1,31.6c0,0,0,0,0,0c-0.4,0.1-42.3,13.8-91.8,8.7c-0.6-0.1-5.9-0.9-8.8,2.1c-1,1.1-2.2,3-1.5,6.4&#10;&#9;&#9;&#9;c0.5,2.8,2,5.4,4.3,7.5c3.5,3.3,10.4,8.3,20.9,10.2l-19.4,5.8c-1.6,0.5-9.7,3.1-9.4,7.8c0.2,3.1,3.2,7,23.6,11.2&#10;&#9;&#9;&#9;c-3.4,1.8-7.3,4.6-8.2,8c-0.4,1.4-0.4,3.7,1.6,6c0.6,0.8,3.6,4.7,10.5,5.9c1.4,0.3,2.9,0.4,4.4,0.4c9.1,0,20.2-4.5,33.1-13.4&#10;&#9;&#9;&#9;c-6.2,16.3-8.8,28.1-8.9,28.5c-7.5,42.6,2.9,71.9,12.9,88.9c2.8,4.7,5.6,8.7,8.4,12.2c-26.2,28.8-26.3,36.7-23.4,40.3&#10;&#9;&#9;&#9;c1,1.2,2.6,2.4,6.3,2.4c4.4,0,11.7-1.7,24.2-7.1c10.1-4.3,19.7-9.5,22.7-11c14,7.4,29.5,11,42.2,12.6c7.4,4.1,16.3,6.4,26.8,6.8&#10;&#9;&#9;&#9;c10.4-0.4,19.2-2.6,26.6-6.7c12.8-1.7,28.3-5.2,42.3-12.6c2.9,1.6,12.6,6.7,22.7,11c12.5,5.4,19.8,7.1,24.2,7.1&#10;&#9;&#9;&#9;c3.7,0,5.3-1.2,6.3-2.4c2.9-3.6,2.7-11.5-23.4-40.3c2.7-3.4,5.6-7.5,8.4-12.2c10-17.1,20.3-46.4,12.9-88.9c0,0,0,0,0-0.1&#10;&#9;&#9;&#9;c-0.1-0.4-2.6-12.2-8.8-28.5c12.9,8.9,24,13.4,33.1,13.4c1.5,0,3-0.1,4.4-0.4c6.9-1.2,9.9-5.1,10.5-5.9c2-2.3,2-4.6,1.6-6&#10;&#9;&#9;&#9;c-0.9-3.4-4.8-6.2-8.3-8C1375.2,666.7,1378.2,662.7,1378.3,659.6z" transform="matrix(1, 0, 0, 1, -1021.7349395751953, -525.6123504638672)"/><g transform="matrix(1, 0, 0, 1, -1021.7349395751953, -525.6123504638672)">
				<path fill="#F8AFB6" d="M1313.1,700.8c0,0-25.4-122.1-118.1-125.1c-92.7,3-118.1,125.1-118.1,125.1&#10;&#9;&#9;&#9;&#9;&#9;c-14.3,81.4,36,114.4,36,114.4c30.7,26.1,82.1,23.1,82.1,23.1s51.4,3,82.1-23.1C1277,815.2,1327.3,782.2,1313.1,700.8z"/>
				<path fill="#3C2415" d="M1200.4,840.3c-3.1,0-5.1-0.1-5.5-0.1c-1.9,0.1-52.2,2.7-83.2-23.6c-0.3-0.2-12.9-8.6-23.8-27.1&#10;&#9;&#9;&#9;&#9;&#9;c-10-17.1-20.3-46.4-12.9-88.9c0.3-1.3,26.8-123.6,119.8-126.7c93.1,3,119.7,125.4,119.9,126.6c0,0,0,0,0,0.1&#10;&#9;&#9;&#9;&#9;&#9;c7.5,42.6-2.9,71.9-12.9,88.9c-10.9,18.6-23.4,26.9-23.9,27.3C1252.9,838.2,1214.6,840.3,1200.4,840.3z M1194.9,577.5&#10;&#9;&#9;&#9;&#9;&#9;c-90.1,2.9-116,122.5-116.2,123.7c-7.3,41.3,2.7,69.7,12.3,86.2c10.4,17.9,22.8,26.2,22.9,26.2c30,25.5,80.5,22.9,81,22.8&#10;&#9;&#9;&#9;&#9;&#9;c0.7,0,51.2,2.6,81-22.7c0.7-0.5,49.3-33.5,35.4-112.6C1310.8,698.9,1284.6,580.4,1194.9,577.5z"/>
			</g><path fill="#F8AFB6" d="M1263.9,824.2c0,0,97.1,53.7,27.3-22.5C1291.2,801.7,1282.7,813.4,1263.9,824.2z" transform="matrix(1, 0, 0, 1, -1021.7349395751953, -525.6123504638672)"/><path fill="#3C2415" d="M1310.8,844.4c-4.4,0-11.7-1.7-24.2-7.1c-12.1-5.2-23.5-11.5-23.6-11.5c-0.6-0.3-0.9-0.9-0.9-1.6&#10;&#9;&#9;&#9;&#9;&#9;c0-0.7,0.4-1.3,0.9-1.6c18.2-10.4,26.7-21.8,26.8-22c0.3-0.4,0.8-0.7,1.4-0.8c0.5,0,1.1,0.2,1.5,0.6&#10;&#9;&#9;&#9;&#9;&#9;c27.3,29.8,27.4,37.8,24.5,41.5C1316.1,843.2,1314.5,844.4,1310.8,844.4z M1267.6,824.1c20.4,11,43.3,19.8,46.6,15.6&#10;&#9;&#9;&#9;&#9;&#9;c1-1.3,2.2-7.5-22.9-35.2C1288.4,808,1280.8,816.1,1267.6,824.1z" transform="matrix(1, 0, 0, 1, -1021.7349395751953, -525.6123504638672)"/><path fill="#F8AFB6" d="M1264.6,607.2c0,0,42.1,14,92.7,8.7c0,0,9.7-1.6,8.3,6.3c-0.5,2.5-1.8,4.7-3.7,6.5&#10;&#9;&#9;&#9;&#9;&#9;c-4.1,3.9-13.9,10.9-29.4,10.5c0,0-17.3-2.4-54.2-16C1278.2,623.2,1271.1,613.3,1264.6,607.2z" transform="matrix(1, 0, 0, 1, -1021.7349395751953, -525.6123504638672)"/><path fill="#3C2415" d="M1333.6,641.1c-0.4,0-0.9,0-1.3,0c-0.9-0.1-18.1-2.6-54.8-16.1c-0.3-0.1-0.6-0.4-0.9-0.6&#10;&#9;&#9;&#9;&#9;&#9;c-0.1-0.1-7.1-9.9-13.4-15.8c-0.6-0.6-0.8-1.5-0.3-2.3c0.4-0.7,1.3-1.1,2.1-0.8c0.4,0.1,42.4,13.8,91.9,8.6&#10;&#9;&#9;&#9;&#9;&#9;c0.5-0.1,5.8-0.9,8.7,2.1c1,1.1,2.2,3,1.5,6.4c-0.5,2.8-2,5.4-4.3,7.5C1358.6,634.2,1348.9,641.1,1333.6,641.1z M1279.4,621.7&#10;&#9;&#9;&#9;&#9;&#9;c35.9,13.2,53.1,15.7,53.3,15.7c14.5,0.4,23.8-6.1,27.9-10c1.7-1.6,2.8-3.5,3.2-5.5c0.4-2.2-0.3-2.9-0.5-3.1&#10;&#9;&#9;&#9;&#9;&#9;c-1.3-1.4-4.6-1.2-5.6-1c-38.8,4.1-73.1-3.2-87-6.9C1274.7,615.5,1278.3,620.2,1279.4,621.7z" transform="matrix(1, 0, 0, 1, -1021.7349395751953, -525.6123504638672)"/><path fill="#F8AFB6" d="M1332.4,639.2l28.7,8.6c0,0,27.9,8.1-19.8,16.6c0,0-23.3-7.4-52.6-25.2c0,0-7-11.4-10.5-16&#10;&#9;&#9;&#9;&#9;&#9;C1278.2,623.2,1316.6,637.5,1332.4,639.2z" transform="matrix(1, 0, 0, 1, -1021.7349395751953, -525.6123504638672)"/><path fill="#3C2415" d="M1341.3,666.3c-0.2,0-0.4,0-0.6-0.1c-0.2-0.1-23.9-7.7-53-25.4c-0.2-0.2-0.5-0.4-0.6-0.6&#10;&#9;&#9;&#9;&#9;&#9;c-0.1-0.1-6.9-11.4-10.4-15.9c-0.5-0.6-0.5-1.5,0-2.2c0.5-0.7,1.3-0.9,2.1-0.6c0.4,0.1,38.3,14.2,53.7,15.9c0.1,0,0.2,0,0.3,0.1&#10;&#9;&#9;&#9;&#9;&#9;l28.7,8.6c1.6,0.5,9.7,3.1,9.4,7.8c-0.2,3.3-3.7,7.7-29.4,12.3C1341.5,666.3,1341.4,666.3,1341.3,666.3z M1290,637.9&#10;&#9;&#9;&#9;&#9;&#9;c26.5,16.1,48.2,23.6,51.4,24.7c25-4.5,25.9-8.4,25.9-8.8c0.1-1.1-3.2-3.1-6.8-4.1L1332,641c-12.5-1.4-37.8-10.1-49-14.1&#10;&#9;&#9;&#9;&#9;&#9;C1285.9,631.3,1289.1,636.5,1290,637.9z" transform="matrix(1, 0, 0, 1, -1021.7349395751953, -525.6123504638672)"/><path fill="#F8AFB6" d="M1288.7,639.3c0,0,35.7,20.3,52.6,25.2c0,0,17.8,6.2,11.3,13.6c0,0-11.7,18.1-50.4-11&#10;&#9;&#9;&#9;&#9;&#9;C1302.2,667,1293.2,645,1288.7,639.3z" transform="matrix(1, 0, 0, 1, -1021.7349395751953, -525.6123504638672)"/><path fill="#3C2415" d="M1339.1,685.5c-10.3,0-23-5.7-38-17c-0.3-0.2-0.5-0.5-0.6-0.8c-0.1-0.2-9-21.9-13.3-27.3&#10;&#9;&#9;&#9;&#9;&#9;c-0.5-0.7-0.5-1.7,0.1-2.3c0.6-0.7,1.5-0.8,2.3-0.4c0.4,0.2,35.7,20.2,52.2,25.1c1.3,0.5,12.3,4.4,13.8,10.5&#10;&#9;&#9;&#9;&#9;&#9;c0.4,1.4,0.4,3.7-1.6,6c-0.6,0.8-3.6,4.7-10.5,5.9C1342.1,685.3,1340.6,685.5,1339.1,685.5z M1303.7,665.9&#10;&#9;&#9;&#9;&#9;&#9;c20.1,15.1,32.4,16.8,39.2,15.6c5.8-1,8.1-4.4,8.2-4.4c0.1-0.1,0.1-0.1,0.2-0.2c1.1-1.3,1-2.2,0.9-2.7&#10;&#9;&#9;&#9;&#9;&#9;c-0.8-3.2-7.4-6.5-11.4-7.9c-12.8-3.7-35.9-16-46.9-22C1297.9,652,1302.7,663.4,1303.7,665.9z" transform="matrix(1, 0, 0, 1, -1021.7349395751953, -525.6123504638672)"/><path fill="#3C2415" d="M1196.1,641.1c-0.7,0-1.1,0-1.2,0c-1-0.1-1.8-0.9-1.7-1.9c0.1-1,0.9-1.8,1.9-1.7c0.1,0,12.4,0.6,17.8-5.4&#10;&#9;&#9;&#9;&#9;c0.7-0.8,1.8-0.8,2.6-0.1c0.8,0.7,0.8,1.8,0.1,2.6C1210.1,640.6,1199.7,641.1,1196.1,641.1z" transform="matrix(1, 0, 0, 1, -1021.7349395751953, -525.6123504638672)"/><path fill="#3C2415" d="M1196.8,649.2c-1.2,0-2-0.1-2.1-0.1c-1-0.1-1.7-1.1-1.6-2.1c0.1-1,1.1-1.7,2.1-1.6l0,0&#10;&#9;&#9;&#9;&#9;c0,0,4.3,0.5,8.7-1.3c0.9-0.4,2,0,2.4,1c0.4,0.9,0,2-1,2.4C1202,649,1198.8,649.2,1196.8,649.2z" transform="matrix(1, 0, 0, 1, -1021.7349395751953, -525.6123504638672)"/><path d="M 1224.8 615.799988 A 5.3 10.7 0 0 1 1219.5 626.499988 A 5.3 10.7 0 0 1 1214.2 615.799988 A 5.3 10.7 0 0 1 1219.5 605.099988 A 5.3 10.7 0 0 1 1224.8 615.799988 Z" fill="#3C2415" transform="matrix(1, 0, 0, 1, -1021.7349395751953, -525.6123504638672)"/><path d="M 1221.300025 610.799988 A 2.4 2.4 0 0 1 1218.900024 613.199988 A 2.4 2.4 0 0 1 1216.500024 610.799988 A 2.4 2.4 0 0 1 1218.900024 608.399988 A 2.4 2.4 0 0 1 1221.300025 610.799988 Z" fill="#FFFFFF" transform="matrix(1, 0, 0, 1, -1021.7349395751953, -525.6123504638672)"/><path fill="#F8AFB6" d="M1126.1,824.2c0,0-97.1,53.7-27.3-22.5C1098.7,801.7,1107.2,813.4,1126.1,824.2z" transform="matrix(1, 0, 0, 1, -1021.7349395751953, -525.6123504638672)"/><path fill="#3C2415" d="M1079.2,844.4c-3.7,0-5.3-1.2-6.3-2.4c-2.9-3.7-2.7-11.7,24.5-41.5c0.4-0.4,0.9-0.6,1.5-0.6&#10;&#9;&#9;&#9;&#9;&#9;c0.5,0,1.1,0.3,1.4,0.8c0.1,0.1,8.5,11.6,26.8,22c0.6,0.3,0.9,0.9,0.9,1.6c0,0.7-0.4,1.3-0.9,1.6c-0.1,0.1-11.5,6.4-23.6,11.5&#10;&#9;&#9;&#9;&#9;&#9;C1090.9,842.7,1083.6,844.4,1079.2,844.4z M1098.6,804.5c-25.1,27.7-23.9,33.9-22.9,35.2c3.3,4.2,26.2-4.6,46.6-15.6&#10;&#9;&#9;&#9;&#9;&#9;C1109.2,816.1,1101.6,808,1098.6,804.5z" transform="matrix(1, 0, 0, 1, -1021.7349395751953, -525.6123504638672)"/><path fill="#F8AFB6" d="M1125.4,607.2c0,0-42.1,14-92.7,8.7c0,0-9.7-1.6-8.3,6.3c0.5,2.5,1.8,4.7,3.7,6.5&#10;&#9;&#9;&#9;&#9;&#9;c4.1,3.9,13.9,10.9,29.4,10.5c0,0,17.3-2.4,54.2-16C1111.7,623.2,1118.9,613.3,1125.4,607.2z" transform="matrix(1, 0, 0, 1, -1021.7349395751953, -525.6123504638672)"/><path fill="#3C2415" d="M1056.5,641.1c-15.5,0-25.1-6.8-29.6-11c-2.3-2.1-3.7-4.7-4.3-7.5c-0.6-3.4,0.5-5.3,1.5-6.4&#10;&#9;&#9;&#9;&#9;&#9;c2.9-3,8.2-2.2,8.8-2.1c49.5,5.2,91.4-8.5,91.8-8.7c0.8-0.3,1.7,0.1,2.1,0.8c0.4,0.7,0.3,1.7-0.3,2.3&#10;&#9;&#9;&#9;&#9;&#9;c-6.3,5.9-13.3,15.7-13.4,15.8c-0.2,0.3-0.5,0.5-0.9,0.6c-36.7,13.6-53.8,16-54.6,16.1C1057.4,641.1,1056.9,641.1,1056.5,641.1z&#10;&#9;&#9;&#9;&#9;&#9; M1030.8,617.6c-1.4,0-3.1,0.2-4,1.1c-0.2,0.2-0.9,1-0.5,3.1c0.4,2,1.5,3.9,3.2,5.5c4.2,3.9,13.4,10.4,28.1,10&#10;&#9;&#9;&#9;&#9;&#9;c0,0,17.2-2.5,53.1-15.7c1.1-1.5,4.7-6.3,8.8-10.9c-13.9,3.7-48.1,11-86.9,6.9C1032.1,617.7,1031.5,617.6,1030.8,617.6z" transform="matrix(1, 0, 0, 1, -1021.7349395751953, -525.6123504638672)"/><path fill="#F8AFB6" d="M1057.6,639.2l-28.7,8.6c0,0-27.9,8.1,19.8,16.6c0,0,23.3-7.4,52.6-25.2c0,0,7-11.4,10.5-16&#10;&#9;&#9;&#9;&#9;&#9;C1111.7,623.2,1073.4,637.5,1057.6,639.2z" transform="matrix(1, 0, 0, 1, -1021.7349395751953, -525.6123504638672)"/><path fill="#3C2415" d="M1048.6,666.3c-0.1,0-0.2,0-0.3,0c-25.7-4.6-29.2-9-29.4-12.3c-0.3-4.8,7.8-7.4,9.4-7.8l28.7-8.6&#10;&#9;&#9;&#9;&#9;&#9;c0.1,0,0.2-0.1,0.3-0.1c15.4-1.7,53.4-15.8,53.7-15.9c0.8-0.3,1.6,0,2.1,0.6c0.5,0.7,0.5,1.5,0,2.2&#10;&#9;&#9;&#9;&#9;&#9;c-3.4,4.5-10.3,15.8-10.4,15.9c-0.2,0.3-0.4,0.5-0.6,0.6c-29.1,17.8-52.8,25.3-53,25.4C1049,666.3,1048.8,666.3,1048.6,666.3z&#10;&#9;&#9;&#9;&#9;&#9; M1057.9,641l-28.5,8.6c-3.6,1-6.9,3.1-6.8,4.1c0,0.4,1,4.3,25.9,8.8c3.3-1.1,25-8.6,51.4-24.7c0.9-1.4,4.1-6.6,7-11&#10;&#9;&#9;&#9;&#9;&#9;C1095.8,630.9,1070.4,639.6,1057.9,641z" transform="matrix(1, 0, 0, 1, -1021.7349395751953, -525.6123504638672)"/><path fill="#F8AFB6" d="M1101.3,639.3c0,0-35.7,20.3-52.6,25.2c0,0-17.8,6.2-11.3,13.6c0,0,11.7,18.1,50.4-11&#10;&#9;&#9;&#9;&#9;&#9;C1087.7,667,1096.8,645,1101.3,639.3z" transform="matrix(1, 0, 0, 1, -1021.7349395751953, -525.6123504638672)"/><path fill="#3C2415" d="M1050.8,685.5c-1.5,0-3-0.1-4.4-0.4c-6.9-1.2-9.9-5.1-10.5-5.9c-2-2.3-2-4.6-1.6-6&#10;&#9;&#9;&#9;&#9;&#9;c1.6-6.1,12.5-10,13.8-10.4c16.6-4.8,52-24.9,52.3-25.1c0.8-0.4,1.7-0.3,2.3,0.4c0.6,0.7,0.6,1.6,0.1,2.3&#10;&#9;&#9;&#9;&#9;&#9;c-4.3,5.4-13.2,27.1-13.3,27.3c-0.1,0.3-0.3,0.6-0.6,0.8C1073.9,679.8,1061.1,685.5,1050.8,685.5z M1096.1,644.2&#10;&#9;&#9;&#9;&#9;&#9;c-11,6-34.1,18.3-47,22c-3.9,1.4-10.5,4.7-11.3,7.9c-0.1,0.6-0.2,1.5,0.9,2.7c0.1,0.1,0.1,0.1,0.2,0.2c0.1,0.1,2.4,3.4,8.3,4.4&#10;&#9;&#9;&#9;&#9;&#9;c6.8,1.1,19-0.7,39-15.6C1087.3,663.4,1092,652,1096.1,644.2z" transform="matrix(1, 0, 0, 1, -1021.7349395751953, -525.6123504638672)"/><path fill="#3C2415" d="M1193.9,641.1c-3.6,0-14-0.5-19.5-6.7c-0.7-0.8-0.6-1.9,0.1-2.6c0.7-0.7,1.9-0.6,2.6,0.1&#10;&#9;&#9;&#9;&#9;c5.3,6,17.7,5.4,17.8,5.4c1-0.1,1.9,0.7,1.9,1.7c0,1-0.7,1.9-1.7,1.9C1195,641.1,1194.5,641.1,1193.9,641.1z" transform="matrix(1, 0, 0, 1, -1021.7349395751953, -525.6123504638672)"/><path fill="#3C2415" d="M1193.1,649.2c-2,0-5.2-0.3-8.5-1.7c-0.9-0.4-1.4-1.5-1-2.4c0.4-0.9,1.5-1.4,2.4-1&#10;&#9;&#9;&#9;&#9;c4.4,1.9,8.6,1.3,8.6,1.3c1-0.1,1.9,0.6,2.1,1.6c0.1,1-0.6,1.9-1.6,2.1C1195.1,649.1,1194.4,649.2,1193.1,649.2z" transform="matrix(1, 0, 0, 1, -1021.7349395751953, -525.6123504638672)"/><path d="M 1175.8 615.799988 A 5.3 10.7 0 0 1 1170.5 626.499988 A 5.3 10.7 0 0 1 1165.2 615.799988 A 5.3 10.7 0 0 1 1170.5 605.099988 A 5.3 10.7 0 0 1 1175.8 615.799988 Z" fill="#3C2415" transform="matrix(1, 0, 0, 1, -1021.7349395751953, -525.6123504638672)"/><path d="M 1173.499976 610.799988 A 2.4 2.4 0 0 1 1171.099976 613.199988 A 2.4 2.4 0 0 1 1168.699975 610.799988 A 2.4 2.4 0 0 1 1171.099976 608.399988 A 2.4 2.4 0 0 1 1173.499976 610.799988 Z" fill="#FFFFFF" transform="matrix(1, 0, 0, 1, -1021.7349395751953, -525.6123504638672)"/><path fill="#CB9783" d="M1243.5,769.7c-7.1,37.1-34,37.8-48.5,37.8s-41.5-0.7-48.5-37.8c0,0-14.3,71.8,48.5,74.1&#10;&#9;&#9;&#9;&#9;&#9;C1257.8,841.5,1243.5,769.7,1243.5,769.7z" transform="matrix(1, 0, 0, 1, -1021.7349395751953, -525.6123504638672)"/><path fill="#3C2415" d="M1195,845.6c-17.6-0.6-30.9-6.6-39.7-17.7c-17.6-22.3-11-57.1-10.7-58.6c0.2-0.9,0.9-1.5,1.8-1.5&#10;&#9;&#9;&#9;&#9;&#9;c0,0,0,0,0,0c0.9,0,1.6,0.6,1.8,1.5c6.9,36.3,33.8,36.3,46.7,36.3s39.8,0,46.7-36.3c0.2-0.9,0.9-1.5,1.8-1.5&#10;&#9;&#9;&#9;&#9;&#9;c0.9,0.1,1.6,0.6,1.8,1.5c0.3,1.5,7,36.3-10.7,58.6C1225.8,839,1212.5,845,1195,845.6z M1147.1,779.5&#10;&#9;&#9;&#9;&#9;&#9;c-0.8,11.8-0.1,32,11.1,46.1c8.1,10.2,20.5,15.7,36.8,16.3c16.2-0.6,28.6-6.1,36.7-16.3c11.2-14.1,11.9-34.3,11.1-46.1&#10;&#9;&#9;&#9;&#9;&#9;c-10.2,29.7-36.2,29.7-47.9,29.7C1183.3,809.3,1157.3,809.3,1147.1,779.5z" transform="matrix(1, 0, 0, 1, -1021.7349395751953, -525.6123504638672)"/><path fill="#FFEBA8" d="M1195,719.9c0,0-36.9,1.1-48.5,49.8c0,0,1.1,37.8,48.5,37.8c47.4,0,48.5-37.8,48.5-37.8&#10;&#9;&#9;&#9;&#9;&#9;C1231.9,721,1195,719.9,1195,719.9z" transform="matrix(1, 0, 0, 1, -1021.7349395751953, -525.6123504638672)"/><path fill="#3C2415" d="M1195,809.3c-48.7,0-50.4-39.2-50.4-39.6c0-0.2,0-0.3,0.1-0.5c11.8-49.5,49.9-51.2,50.3-51.2&#10;&#9;&#9;&#9;&#9;&#9;c0,0,0.1,0,0.1,0c0.4,0,38.4,1.7,50.3,51.2c0,0.2,0.1,0.3,0.1,0.5C1245.3,770.1,1243.6,809.3,1195,809.3z M1148.3,769.9&#10;&#9;&#9;&#9;&#9;&#9;c0.2,3.4,3.1,35.8,46.7,35.8c43.7,0,46.5-32.4,46.7-35.8c-11.1-46-44.6-48-46.7-48.1C1192.9,721.8,1159.4,723.9,1148.3,769.9z" transform="matrix(1, 0, 0, 1, -1021.7349395751953, -525.6123504638672)"/><path fill="#3C2415" d="M1238.3,749c-2.9,0-4.5-1-5.5-2.1c-2.7-2.9-4.3-9.6,11.9-34.3c8.6-13.1,18.4-25.2,18.5-25.3&#10;&#9;&#9;&#9;&#9;c0.6-0.8,1.8-0.9,2.6-0.3c0.8,0.6,0.9,1.8,0.3,2.6c-15.7,19.4-35.6,49.3-30.5,54.8c1.8,2,10.9,3.6,54.6-25.4&#10;&#9;&#9;&#9;&#9;c0.8-0.6,2-0.3,2.5,0.5c0.6,0.8,0.3,2-0.5,2.5C1259.7,743.5,1245.2,749,1238.3,749z" transform="matrix(1, 0, 0, 1, -1021.7349395751953, -525.6123504638672)"/><path fill="#3C2415" d="M1151.7,749c-7,0-21.5-5.5-53.8-26.9c-0.8-0.6-1.1-1.7-0.5-2.5c0.6-0.8,1.7-1.1,2.5-0.5&#10;&#9;&#9;&#9;&#9;c43.8,29,52.7,27.4,54.6,25.4c3-3.3-4.4-22.5-30.5-54.8c-0.6-0.8-0.5-1.9,0.3-2.6c0.8-0.6,1.9-0.5,2.6,0.3&#10;&#9;&#9;&#9;&#9;c0.1,0.1,9.9,12.2,18.5,25.3c16.2,24.6,14.6,31.4,11.9,34.3C1156.2,748.1,1154.6,749,1151.7,749z" transform="matrix(1, 0, 0, 1, -1021.7349395751953, -525.6123504638672)"/>
</svg>