<svg id="Untitled_1_" data-name="Untitled (1)" xmlns="http://www.w3.org/2000/svg" width="350" height="350" viewBox="0 0 350 350">
  <rect id="ee-background" width="350" height="350" fill="none"/>
  <path id="Path_26" data-name="Path 26" d="M279.9,291.5a91.209,91.209,0,0,0-5.9-15.8c9.6-18.6,39.3-75.3,39.6-75.8a1.832,1.832,0,0,0-2.4-2.5l-81.5,34.9c-1.5-.6-3-1.2-4.5-1.7l2.4-15.5a1.886,1.886,0,0,0-1-1.9,1.8,1.8,0,0,0-2.1.3l-11.1,10.9V209.1a1.814,1.814,0,0,0-3.3-1l-10.4,14.6-9.9-28.4a2.241,2.241,0,0,0-1.9-1.2,1.839,1.839,0,0,0-1.7,1.2l-9.9,28.4L165.9,208a1.8,1.8,0,0,0-2-.7,1.714,1.714,0,0,0-1.3,1.7v15.3l-11.1-10.9a1.682,1.682,0,0,0-2.1-.3,1.886,1.886,0,0,0-1,1.9l2.4,15.5c-1.5.5-3,1.1-4.5,1.7L64.8,197.3a2.044,2.044,0,0,0-2.1.4,2.012,2.012,0,0,0-.3,2.1c.3.6,30,57.2,39.6,75.8a111.135,111.135,0,0,0-5.9,15.8C89,295.1,41,321.9,36.4,372.2c-.2.9-.9,5.3,1.4,7.3a3.721,3.721,0,0,0,2,.9c0,1.5.2,3.4,1.5,4.6a4.882,4.882,0,0,0,4.4,1.2,6.651,6.651,0,0,0,4.6,2.1h.4c2.5-.2,4.8-2.1,6.8-5.6,6.4-6.7,24-23.1,34.7-25.1.7,6,1.4,9.9,1.6,10.6a165.535,165.535,0,0,0,7.2,27.2c-4.6,7.3-17.4,35.5-13.2,62.1C83.9,458.6,75,462,75.3,469a4.56,4.56,0,0,0,1.1,3.6c1.5,1.8,4.3,2.7,8.3,2.7h.1a5.708,5.708,0,0,0,2,2.6c2.6,1.8,6.9,1.6,12.8-.7a9.121,9.121,0,0,0,5.5,4.1,9.862,9.862,0,0,0,2.4.3c4.4,0,9.5-2.7,15.4-7.9l28.7-24.8c13.1,4.6,25.8,5.4,36.3,5.4,10.3,0,23-.8,36.1-5.4l28.7,24.7c5.9,5.3,11.1,8,15.4,8a9.863,9.863,0,0,0,2.4-.3,9.121,9.121,0,0,0,5.5-4.1c6,2.3,10.2,2.5,12.8.7a5.248,5.248,0,0,0,2-2.6c4,0,6.9-.9,8.4-2.7a4.56,4.56,0,0,0,1.1-3.6c.4-6.9-8.6-10.3-12.5-11.5,4.2-26.5-8.5-54.8-13.2-62.1a147.721,147.721,0,0,0,7.2-27.2c.1-.7.9-4.6,1.6-10.6,12.3,2.2,32.6,23,34.7,25.1,1.9,3.6,4.2,5.5,6.8,5.6h.4a6.65,6.65,0,0,0,4.6-2.1,4.882,4.882,0,0,0,4.4-1.2c1.3-1.2,1.5-3.1,1.5-4.6a3.4,3.4,0,0,0,2-.9c2.4-2,1.6-6.4,1.5-7.1C335,322,287,295.2,279.9,291.5Z" transform="translate(-6.939 -157.857)"/>
  <g id="Group_12" data-name="Group 12" transform="translate(-6.939 -157.857)">
    <g id="Group_2" data-name="Group 2">
      <path id="Path_27" data-name="Path 27" d="M248.3,247.6s-14.6-16.2-32.4-21.4l2.7-17.1-14.2,14V203.4L192,220.9l-11.1-31.7h-.2l-11.1,31.7-12.4-17.5v19.7l-14.2-14,2.7,17.1c-17.8,5.2-32.4,21.4-32.4,21.4C73.4,284.3,88.4,362.2,88.4,362.2c14.5,81.9,70.2,84.5,92.3,84.5h.2c22.1,0,77.8-2.6,92.3-84.5C273.2,362.1,288.2,284.3,248.3,247.6Z"/>
      <path id="Path_28" data-name="Path 28" d="M180.8,448.5c-14.2,0-32.4-1.4-50.2-11.8-23-13.5-37.8-38.5-44.2-74.2-.6-3.2-14.8-79.2,25.4-116.2.5-.5,14.3-15.6,31.6-21.4L141,209.4a1.886,1.886,0,0,1,1-1.9,1.8,1.8,0,0,1,2.1.3l11.1,10.9V203.4a1.814,1.814,0,0,1,3.3-1L168.9,217l9.9-28.4a1.839,1.839,0,0,1,1.7-1.2,2.013,2.013,0,0,1,1.9,1.2l9.9,28.4,10.4-14.6a1.8,1.8,0,0,1,2-.7,1.714,1.714,0,0,1,1.3,1.7v15.3l11.1-10.9a1.682,1.682,0,0,1,2.1-.3,1.886,1.886,0,0,1,1,1.9l-2.4,15.5c16.9,5.6,30.5,20.2,31.6,21.4,40.2,37,26,113,25.4,116.2-6.3,35.7-21.2,60.7-44.2,74.2C213.1,447.1,194.8,448.5,180.8,448.5ZM145.6,214.3l1.8,11.6a1.783,1.783,0,0,1-1.3,2c-17.1,5-31.4,20.7-31.6,20.9C75.7,284.5,90,361,90.1,361.8c14.7,83,71.8,83,90.5,83.1,76-.1,87.1-62.5,90.7-83,.2-.8,14.4-77.3-24.3-112.9l-.1-.1c-.1-.2-14.5-15.9-31.6-20.9a1.846,1.846,0,0,1-1.3-2l1.8-11.6-10.3,10.1a1.808,1.808,0,0,1-3.1-1.3V209.3l-9.1,12.8a1.99,1.99,0,0,1-1.7.8,2.041,2.041,0,0,1-1.5-1.2l-9.5-27.1-9.5,27.1a1.881,1.881,0,0,1-1.5,1.2,1.614,1.614,0,0,1-1.7-.8l-9.1-12.8v13.9a1.808,1.808,0,0,1-3.1,1.3Z"/>
    </g>
    <g id="Group_3" data-name="Group 3">
      <path id="Path_29" data-name="Path 29" d="M180.8,358.2h-.2s-53.9-.6-73.6-28.9c0,0,4.8,58.1,73.6,60.3h.2c68.8-2.2,73.6-60.3,73.6-60.3C234.8,357.5,180.8,358.2,180.8,358.2Z"/>
      <path id="Path_30" data-name="Path 30" d="M180.6,391.5c-69.7-2.2-75.3-61.4-75.4-62a1.83,1.83,0,0,1,1.2-1.9,1.761,1.761,0,0,1,2.1.7c18.9,27.1,71.6,28.1,72.1,28.1l.2,1.8v-1.8c.5,0,53.2-1,72.1-28.1a1.808,1.808,0,0,1,3.3,1.2c0,.6-5.7,59.8-75.3,62ZM110,335.8c3.5,15,17.4,50.3,70.7,52,53.3-1.7,67.3-37,70.8-52-8.9,9.2-22.8,16.2-40.8,20.3a152.835,152.835,0,0,1-29.8,3.9h-.2a152.011,152.011,0,0,1-29.8-3.9C132.8,352,118.9,345,110,335.8Z"/>
    </g>
    <g id="Group_4" data-name="Group 4">
      <path id="Path_31" data-name="Path 31" d="M113.2,247.6s11.2-12.4,25.9-19L56.9,193.4S87.8,252.3,97,270.1A68.75,68.75,0,0,1,113.2,247.6Z"/>
      <path id="Path_32" data-name="Path 32" d="M96.9,271.9a1.781,1.781,0,0,1-1.6-1c-9.1-17.6-39.8-76.1-40.1-76.7a1.832,1.832,0,0,1,2.4-2.5l82.2,35.2a1.751,1.751,0,0,1,1.1,1.7,1.848,1.848,0,0,1-1.1,1.7c-14.2,6.4-25.2,18.4-25.3,18.5l-.1.1a69.969,69.969,0,0,0-15.9,22,1.781,1.781,0,0,1-1.6,1ZM60.8,197.1c7,13.3,27.2,52,36,69a75.429,75.429,0,0,1,15-19.8,93.925,93.925,0,0,1,22.8-17.6Zm52.4,50.5Z"/>
    </g>
    <g id="Group_5" data-name="Group 5">
      <path id="Path_33" data-name="Path 33" d="M90.6,287s-54.7,26.1-59.5,79.9c0,0-1.6,7.7,3.8,5.7,0,0-2,7.7,4.4,5.9,0,0,4.7,6.6,9.5-2.6,0,0,24.4-25.6,37.8-26C86.6,349.9,81.6,318.3,90.6,287Z"/>
      <path id="Path_34" data-name="Path 34" d="M43.2,382.6a6.65,6.65,0,0,1-4.6-2.1,4.882,4.882,0,0,1-4.4-1.2c-1.3-1.2-1.5-3.1-1.5-4.6a3.4,3.4,0,0,1-2-.9c-2.4-2-1.6-6.4-1.4-7.3,4.9-54,60-80.9,60.5-81.2a1.869,1.869,0,0,1,2,.3,1.955,1.955,0,0,1,.6,1.9c-8.7,30.5-4,61.7-3.9,62a2.146,2.146,0,0,1-.4,1.5,2.1,2.1,0,0,1-1.4.7c-10.4.3-29.6,18.2-36.4,25.3-1.9,3.6-4.2,5.5-6.8,5.6Zm-3.9-5.9a1.9,1.9,0,0,1,1.5.8s1.2,1.6,2.6,1.5c1.2-.1,2.6-1.5,3.9-3.9.1-.1.2-.3.3-.4,1-1,22.9-23.9,37.1-26.4-.9-7-3.2-32,3.2-57.6-12.2,7-50.9,32.4-54.9,76.5-.3,1.7-.2,3.6.2,4a1.9,1.9,0,0,0,1.1-.2,1.913,1.913,0,0,1,1.9.4,1.789,1.789,0,0,1,.5,1.8c-.3,1.1-.4,3.1.2,3.7.3.3,1,.3,2,0C38.9,376.7,39.1,376.7,39.3,376.7Z"/>
    </g>
    <g id="Group_6" data-name="Group 6">
      <path id="Path_35" data-name="Path 35" d="M95.7,389.6s-18.9,31.9-13,63.4c0,0-13.3,2.9-12.7,10.2,0,0-1.2,5,9.2,4.4,0,0-.3,7.6,14.2,1.5,0,0,4.4,12.5,21.3-2.6L144.3,441C144.2,441,110.6,431.2,95.7,389.6Z"/>
      <path id="Path_36" data-name="Path 36" d="M100.4,475.8a9.863,9.863,0,0,1-2.4-.3,9.121,9.121,0,0,1-5.5-4.1c-6,2.3-10.2,2.5-12.8.7a5.248,5.248,0,0,1-2-2.6h-.1c-4,0-6.8-.9-8.3-2.7a4.56,4.56,0,0,1-1.1-3.6c-.4-6.9,8.6-10.3,12.5-11.5-4.9-30.5,12.8-63.4,14.6-63.9a1.755,1.755,0,0,1,2.2,1.1c14.4,40.2,47,50.1,47.3,50.2a2.037,2.037,0,0,1,1.3,1.4,2.016,2.016,0,0,1-.6,1.8l-29.6,25.5C110,473.1,104.8,475.8,100.4,475.8Zm-7.1-8.5a1.445,1.445,0,0,1,.7.2,1.818,1.818,0,0,1,1,1.1,5.957,5.957,0,0,0,3.9,3.5c2.4.6,6.9-.1,14.5-6.9l27.2-23.4c-8.5-3.4-32.2-15.5-45.2-47.6-4.5,9-15.5,34.2-10.9,58.7a1.743,1.743,0,0,1-1.4,2.1c-.1,0-11.7,2.7-11.3,8.3v.6a1.463,1.463,0,0,0,.3.8c.4.5,2,1.6,6.9,1.3a2.389,2.389,0,0,1,1.4.5,1.553,1.553,0,0,1,.5,1.4,1.654,1.654,0,0,0,.8,1.4c.8.5,3.4,1.4,10.8-1.7A1.124,1.124,0,0,1,93.3,467.3Z"/>
    </g>
    <g id="Group_7" data-name="Group 7">
      <path id="Path_37" data-name="Path 37" d="M170.3,330.9s-15.4,20-34.9,3c0,0-15.5-12.2-6.2-39.7l19.5,17.4,10.1,9Z"/>
      <path id="Path_38" data-name="Path 38" d="M151.4,342.6c-5.9,0-11.7-2.5-17.3-7.3-.6-.5-16.4-13.3-6.7-41.7a1.952,1.952,0,0,1,1.3-1.2,1.788,1.788,0,0,1,1.7.4l41.1,36.7a1.843,1.843,0,0,1,.2,2.5c-.3.4-7.3,9.4-18.2,10.5A14.768,14.768,0,0,1,151.4,342.6ZM130,297.4c-7,23.9,5.9,34.6,6.5,35,5.5,4.8,11.1,7,16.7,6.4,7-.7,12.3-5.5,14.5-7.8Z"/>
    </g>
    <path id="Path_39" data-name="Path 39" d="M158.7,320.6c-.6,6.1-2.7,10.7-5.2,10.7-2.9,0-5.3-6.3-5.3-14.1a32.787,32.787,0,0,1,.4-5.6Z"/>
    <path id="Path_40" data-name="Path 40" d="M160.3,356.4H164v31h-3.7Z"/>
    <path id="Path_41" data-name="Path 41" d="M137.4,351h3.7v27.8h-3.7Z"/>
    <path id="Path_42" data-name="Path 42" d="M122.7,344.5h3.7v22.4h-3.7Z"/>
    <g id="Group_8" data-name="Group 8">
      <path id="Path_43" data-name="Path 43" d="M248.3,247.6s-11.2-12.4-25.9-19l82.2-35.2s-30.9,58.9-40.1,76.7A70.234,70.234,0,0,0,248.3,247.6Z"/>
      <path id="Path_44" data-name="Path 44" d="M264.6,271.9h0a1.781,1.781,0,0,1-1.6-1,72.337,72.337,0,0,0-15.9-22l-.1-.1c-.1-.1-11.1-12.2-25.3-18.5a1.864,1.864,0,0,1,0-3.4l82.2-35.2a2.044,2.044,0,0,1,2.1.4,2.012,2.012,0,0,1,.3,2.1c-.3.6-31,59.1-40.1,76.7A1.781,1.781,0,0,1,264.6,271.9Zm-15-25.6a73.335,73.335,0,0,1,15,19.8c8.8-17,29.1-55.7,36-69l-73.9,31.6A93.166,93.166,0,0,1,249.6,246.3Z"/>
    </g>
    <g id="Group_9" data-name="Group 9">
      <path id="Path_45" data-name="Path 45" d="M270.9,287s54.7,26.1,59.5,79.9c0,0,1.6,7.7-3.8,5.7,0,0,2,7.7-4.4,5.9,0,0-4.7,6.6-9.5-2.6,0,0-24.4-25.6-37.8-26C274.8,349.9,279.8,318.3,270.9,287Z"/>
      <path id="Path_46" data-name="Path 46" d="M318.3,382.6h-.4c-2.5-.2-4.8-2.1-6.8-5.6-2.1-2.2-24.4-24.9-36.4-25.3a2.1,2.1,0,0,1-1.4-.7,1.913,1.913,0,0,1-.4-1.5c0-.3,4.8-31.5-3.9-62a1.762,1.762,0,0,1,.6-1.9,1.814,1.814,0,0,1,2-.3c.6.3,55.7,27.2,60.6,81.4.1.7.9,5.1-1.5,7.1a3.721,3.721,0,0,1-2,.9c0,1.5-.2,3.4-1.5,4.6a4.882,4.882,0,0,1-4.4,1.2A6.2,6.2,0,0,1,318.3,382.6Zm-41.4-34.4c14.2,2.5,36.1,25.4,37.1,26.4.1.1.2.3.3.4,1.3,2.4,2.7,3.8,3.9,3.9,1.4.1,2.6-1.5,2.6-1.5a1.851,1.851,0,0,1,2-.7c1,.3,1.7.3,2,0,.6-.6.5-2.5.2-3.7a1.681,1.681,0,0,1,.5-1.8,1.866,1.866,0,0,1,1.9-.4,1.923,1.923,0,0,0,1.1.2c.4-.4.5-2.2.2-3.8-4-44.3-42.7-69.7-54.9-76.7C280.1,316.2,277.8,341.3,276.9,348.2Z"/>
    </g>
    <g id="Group_10" data-name="Group 10">
      <path id="Path_47" data-name="Path 47" d="M265.8,389.6s18.9,31.9,13,63.4c0,0,13.3,2.9,12.7,10.2,0,0,1.2,5-9.2,4.4,0,0,.3,7.6-14.2,1.5,0,0-4.4,12.5-21.3-2.6L217.3,441S250.9,431.2,265.8,389.6Z"/>
      <path id="Path_48" data-name="Path 48" d="M261,475.8c-4.4,0-9.5-2.7-15.4-8l-29.5-25.4a1.929,1.929,0,0,1-.6-1.8,1.706,1.706,0,0,1,1.3-1.4c.3-.1,32.9-10.2,47.3-50.2a1.755,1.755,0,0,1,2.2-1.1c1.8.5,19.5,33.3,14.6,63.9,3.9,1.1,12.8,4.5,12.5,11.5a4.56,4.56,0,0,1-1.1,3.6c-1.5,1.8-4.4,2.7-8.4,2.7a5.708,5.708,0,0,1-2,2.6c-2.6,1.8-6.9,1.6-12.8-.7a9.121,9.121,0,0,1-5.5,4.1A22.752,22.752,0,0,1,261,475.8Zm-40.2-34.1L248,465.1c7.5,6.8,12,7.5,14.5,6.9a5.957,5.957,0,0,0,3.9-3.5,1.438,1.438,0,0,1,1-1,1.7,1.7,0,0,1,1.4,0c7.4,3.1,10,2.2,10.8,1.7a1.786,1.786,0,0,0,.8-1.5,1.612,1.612,0,0,1,.6-1.3,2.389,2.389,0,0,1,1.4-.5c5,.3,6.5-.8,6.9-1.3a1.008,1.008,0,0,0,.3-.9v-.5c.4-4.6-8.2-7.6-11.3-8.3a1.791,1.791,0,0,1-1.4-2.1c4.6-24.5-6.4-49.7-10.9-58.7C253.1,426.2,229.3,438.3,220.8,441.7Z"/>
    </g>
    <g id="Group_11" data-name="Group 11">
      <path id="Path_49" data-name="Path 49" d="M191.2,330.9s16.8,19.1,34.9,3c0,0,15.5-12.2,6.2-39.7l-19.5,17.4-10.1,9Z"/>
      <path id="Path_50" data-name="Path 50" d="M210.7,342.2h-1.3c-11.2-.7-19.2-9.7-19.6-10a1.79,1.79,0,0,1,.2-2.6l41.1-36.7a1.788,1.788,0,0,1,1.7-.4,1.952,1.952,0,0,1,1.3,1.2c9.6,28.4-6.1,41.2-6.8,41.7C222.2,339.9,216.6,342.2,210.7,342.2ZM193.9,331c2.5,2.3,8.5,7.1,15.8,7.5,5.3.3,10.4-1.7,15.2-6,.6-.5,13.5-11.1,6.5-35.1Z"/>
    </g>
    <path id="Path_51" data-name="Path 51" d="M202.7,320.6c.6,6.1,2.7,10.7,5.2,10.7,2.9,0,5.3-6.3,5.3-14.1a32.787,32.787,0,0,0-.4-5.6Z"/>
    <path id="Path_52" data-name="Path 52" d="M197.5,356.4h3.7v31h-3.7Z"/>
    <path id="Path_53" data-name="Path 53" d="M220.4,351h3.7v27.8h-3.7Z"/>
    <path id="Path_54" data-name="Path 54" d="M235.1,344.5h3.7v22.4h-3.7Z"/>
  </g>
</svg>
