<svg id="_8" data-name="8" xmlns="http://www.w3.org/2000/svg" width="350" height="350" viewBox="0 0 350 350">
  <rect id="ee-background" width="350" height="350" fill="none"/>
  <path id="Path_222" data-name="Path 222" d="M610.1,696.3a224.3,224.3,0,0,0,9.8-69.2c13.7-10.1,10.6-26.2,7.4-35a48.505,48.505,0,0,0-4.8-9.3c-3.2-5.1-4.1-12.7-4.1-12.8a2.094,2.094,0,0,0-1.1-1.5,1.877,1.877,0,0,0-1.9.2c-10.5,7.4-11.7,19.9-11,28.4a1.855,1.855,0,0,0-1.6-1.2,1.881,1.881,0,0,0-1.9,1.1c-7.7,16.8.4,26.3,4.1,29.5A279.434,279.434,0,0,1,585.1,648c2.7-8.4,3.3-17.7-1.8-26.3.6-5.5,3.5-43.4-18.6-67.3-11.7-12.7-28.4-19.1-49.7-19.1-21.2,0-37.9,6.4-49.7,19.1-22.1,24-19.1,61.8-18.6,67.3-9.8,16.3,1.2,35.5,8.2,45.1-9.7,5.6-53.6,33.6-66.5,90.5-.3,1-1.9,5.9,1,8.1,2,1.6,4.9.8,7.4-.3a4.511,4.511,0,0,0,2.6,3,4.844,4.844,0,0,0,1.8.3c3.3,0,7.8-3,13.9-9.2,1.4,2.1,3.8,4.8,7.1,4.9,3.4.1,6.5-2.5,9.2-7.8a25.7,25.7,0,0,0,2.4-7.1,13.167,13.167,0,0,1,5-7.9l10.4-6.6c-.4,4-.7,7.8-.9,11.5-4,3.3-25.3,22.6-19.7,52.7a32.874,32.874,0,0,0,7.4,15.4c-4.5,3.8-16.9,15-15.5,24.3.6,3.9,3.4,7,8.4,9a51.44,51.44,0,0,0,18,3.5c7.3,0,15.7-1.9,22.7-8.5.5-.4,11.4-10.8,11.6-22.1a16.468,16.468,0,0,0-1-5.8,65.93,65.93,0,0,0,8.2,2.9c.1,0,.1.1.2.1.3.1.6.1.9.2a84.8,84.8,0,0,0,23.8,2.3h2.2c1.7.1,3.3.1,4.9.1a80,80,0,0,0,19.6-2.2,8.328,8.328,0,0,0,1.5-.4c.1,0,.1,0,.2-.1a65.912,65.912,0,0,0,8.2-2.9,16.087,16.087,0,0,0-1,5.8c.2,11.2,11.1,21.6,11.6,22,7,6.6,15.4,8.5,22.7,8.5a47.6,47.6,0,0,0,17.9-3.5c5-2,7.8-5.1,8.4-9,1.3-9.3-11.1-20.5-15.5-24.3a32.875,32.875,0,0,0,7.4-15.4c5.3-28.3-13.3-47.1-18.8-52,2.1-2.4,4.2-4.9,6.1-7.4l2.5,1.6a13.373,13.373,0,0,1,5.1,8,29.482,29.482,0,0,0,2.4,7.1c2.8,5.2,5.9,7.9,9.2,7.8s5.7-2.8,7.1-4.9c6.1,6.2,10.6,9.2,13.9,9.2a5.662,5.662,0,0,0,1.8-.3,4.511,4.511,0,0,0,2.6-3c2.5,1.2,5.4,1.9,7.4.3,2.9-2.2,1.3-7.2,1-8A141.921,141.921,0,0,0,610.1,696.3Z" transform="translate(-333.061 -515.204)"/>
  <g id="Group_20" data-name="Group 20" transform="translate(-333.061 -515.204)">
    <path id="Path_223" data-name="Path 223" d="M573.9,616.5s10.4-85-66.3-85-66.3,85-66.3,85C427.8,638,454,666.1,454,666.1c26.5,31.9,53.6,29,53.6,29s27.1,2.9,53.6-29C561.2,666.1,587.4,638,573.9,616.5Z"/>
    <path id="Path_224" data-name="Path 224" d="M509.6,697a9.275,9.275,0,0,1-2-.1c-2.8.2-29.2,1.5-55.1-29.7-1-1.1-26.5-28.9-13.1-51.2-.6-5.5-3.5-43.4,18.6-67.3,11.7-12.7,28.4-19.1,49.7-19.1s37.9,6.4,49.7,19.1c22.1,24,19.1,61.8,18.6,67.3,13.4,22.3-12.1,50.1-13.2,51.2C539.9,694.7,516.8,697,509.6,697Zm-2-3.7h.2c.3,0,26.5,2.3,51.9-28.3.3-.4,25.2-27.5,12.5-47.5a2.375,2.375,0,0,1-.3-1.2c0-.4,4.7-41-17.6-65.1-11-11.9-26.7-17.9-46.8-17.9s-35.8,6-46.8,17.9c-22.3,24.1-17.6,64.7-17.6,65.1a1.8,1.8,0,0,1-.3,1.2c-12.7,20.1,12.2,47.2,12.4,47.4,25.5,30.7,51.7,28.4,52,28.4Z"/>
  </g>
  <path id="Path_225" data-name="Path 225" d="M572.3,650a282.41,282.41,0,0,0,27.9-29.4h10.4s4.1,75.3-38.3,121.2c0,0-1.2-32.6-14.9-71.3C557.4,670.4,568.9,657.9,572.3,650Z" transform="translate(-333.061 -515.204)"/>
  <path id="Path_226" data-name="Path 226" d="M572.3,743.6a1.268,1.268,0,0,1-.6-.1,2.1,2.1,0,0,1-1.3-1.7c0-.3-1.4-32.8-14.8-70.8a1.739,1.739,0,0,1,.4-1.8c.1-.1,11.3-12.4,14.6-19.9a3.038,3.038,0,0,1,.5-.7,291.553,291.553,0,0,0,27.7-29.2,2.127,2.127,0,0,1,1.5-.7h10.4a1.943,1.943,0,0,1,1.9,1.7c0,.8,3.6,76.6-38.8,122.5A2.574,2.574,0,0,1,572.3,743.6Zm-12.7-72.8a277.051,277.051,0,0,1,14.3,66.3C608.8,696,609,633.5,608.8,622.3h-7.7A307.514,307.514,0,0,1,573.9,651C570.7,658.1,562.1,667.9,559.6,670.8Z" transform="translate(-333.061 -515.204)"/>
  <path id="Path_227" data-name="Path 227" d="M600.2,620.5s-14.2-8.6-5-28.5c0,0,1.2,5,5,7.6,0,0-6.7-24.1,8.9-35.1,0,0,.9,8,4.4,13.5a51.362,51.362,0,0,1,4.7,9c3.2,8.8,6,24.2-7.5,33.5Z" transform="translate(-333.061 -515.204)"/>
  <path id="Path_228" data-name="Path 228" d="M610.6,622.4H600.2a1.689,1.689,0,0,1-1-.3c-.2-.1-15.4-9.7-5.8-30.8a1.881,1.881,0,0,1,1.9-1.1,1.855,1.855,0,0,1,1.6,1.2c-.6-8.4.5-21,11-28.4a1.854,1.854,0,0,1,1.9-.2,1.922,1.922,0,0,1,1.1,1.5c0,.1.9,7.7,4.1,12.8a45.87,45.87,0,0,1,4.8,9.3c3.2,9,6.4,25.5-8.2,35.6A1.159,1.159,0,0,1,610.6,622.4Zm-9.8-3.7H610c12.1-8.7,9.2-23.2,6.4-31.1a39.636,39.636,0,0,0-4.5-8.6,35.2,35.2,0,0,1-4.1-10.9C596.5,579,602,599,602,599.2a1.867,1.867,0,0,1-.8,2,2.167,2.167,0,0,1-2.2,0,13.585,13.585,0,0,1-3.8-4.2C591,610.5,598.9,617.3,600.8,618.7Z" transform="translate(-333.061 -515.204)"/>
  <path id="Path_229" data-name="Path 229" d="M507,687.4c-5,0-36.3-1.6-58.4-41.6a1.851,1.851,0,0,1,.8-2.5,1.967,1.967,0,0,1,2.6.8c22.4,40.6,55.1,39.7,55.5,39.7a1.805,1.805,0,1,1,.2,3.6Z" transform="translate(-333.061 -515.204)"/>
  <path id="Path_230" data-name="Path 230" d="M501.3,678.1c-.5,1.1-3,1.2-5.5.1-2.6-1-4.2-2.8-3.8-3.9s3-1.2,5.5-.1C500.1,675.3,501.8,677,501.3,678.1Z" transform="translate(-333.061 -515.204)"/>
  <path id="Path_231" data-name="Path 231" d="M461.7,637.3a16.064,16.064,0,0,1-4.7-2.8s-12-6.2-6.6-23.6c0,0,3-12.7,9-18.1a5.332,5.332,0,0,1,6.1-.8,4.953,4.953,0,0,1,2.2,2.1c2,3.5,4.1,10.5,4.8,24.2C472.5,618.3,474.5,642.4,461.7,637.3Z" transform="translate(-333.061 -515.204)"/>
  <path id="Path_232" data-name="Path 232" d="M465,639.8a10.056,10.056,0,0,1-3.9-.8,24.864,24.864,0,0,1-5.1-2.9c-1.6-.9-12.8-8.2-7.4-25.6.1-.4,3.2-13.2,9.5-18.9a7.468,7.468,0,0,1,8.3-1.1,6.977,6.977,0,0,1,3,2.9c2.8,5,4.5,13.4,5.1,25,.1,1.6,1.1,15.8-5.2,20.3A9.271,9.271,0,0,1,465,639.8Zm-2-46.5a3.168,3.168,0,0,0-2.3.9c-5.5,5-8.4,17.1-8.5,17.2-5,15.9,5.6,21.5,5.7,21.6.1,0,.2.1.3.2a20.259,20.259,0,0,0,4.3,2.5h0c2.9,1.1,4.1.2,4.6-.1,3.9-2.7,3.9-13.5,3.6-17.1-.7-13.8-2.9-20.4-4.6-23.5a2.949,2.949,0,0,0-1.4-1.3A3.533,3.533,0,0,0,463,593.3Z" transform="translate(-333.061 -515.204)"/>
  <path id="Path_233" data-name="Path 233" d="M461.7,637.3h0s-11-7.5-7.1-23.6c0,0,4-20.4,10.9-21.8a4.953,4.953,0,0,1,2.2,2.1c2,3.5,4.1,10.5,4.8,24.2C472.5,618.3,474.5,642.4,461.7,637.3Z" transform="translate(-333.061 -515.204)"/>
  <path id="Path_234" data-name="Path 234" d="M468,607.7a3.6,3.6,0,1,1-3.6-3.5A3.551,3.551,0,0,1,468,607.7Z" transform="translate(-333.061 -515.204)"/>
  <path id="Path_235" data-name="Path 235" d="M450.4,661.7s-53,26.6-67.5,90.6c0,0-3.9,11.3,8.1,4.4,0,0-.9,13.1,17.2-6.1,0,0,6.4,14.3,14.3-.6a22.924,22.924,0,0,0,2.2-6.7,14.969,14.969,0,0,1,5.8-9l13.8-8.7s5.6-37.9,13.5-55.2C457.8,670.4,452.4,664.5,450.4,661.7Z" transform="translate(-333.061 -515.204)"/>
  <path id="Path_236" data-name="Path 236" d="M393.9,762.8a5.662,5.662,0,0,1-1.8-.3,4.511,4.511,0,0,1-2.6-3c-2.5,1.2-5.4,1.9-7.4.3-2.9-2.2-1.3-7.2-1-8.1,14.4-63.8,67.9-91.3,68.4-91.6a1.881,1.881,0,0,1,2.4.6,101.46,101.46,0,0,0,7.3,8.5,1.682,1.682,0,0,1,.3,1.9c-7.6,16.8-13.3,54.4-13.3,54.7a2.223,2.223,0,0,1-.8,1.3l-13.8,8.7a13.667,13.667,0,0,0-5,7.9,29.483,29.483,0,0,1-2.4,7.1c-2.8,5.2-5.8,7.9-9.2,7.8-3.3-.1-5.7-2.8-7.1-4.9C401.7,759.8,397.2,762.8,393.9,762.8Zm-2.9-8a1.929,1.929,0,0,1,1,.3,1.766,1.766,0,0,1,.9,1.7c0,.8.2,2.1.7,2.3.1,0,3,1,13.2-9.8a1.832,1.832,0,0,1,1.7-.6,1.77,1.77,0,0,1,1.4,1.1c.6,1.3,2.8,5,5.1,5.1,1.8,0,3.7-2,5.7-5.8a22.48,22.48,0,0,0,2.1-6.2,16.888,16.888,0,0,1,6.5-10.1l13.3-8.3c.9-5.7,6-37.3,13-53.8-1.3-1.5-3.9-4.4-5.7-6.6-8.4,4.8-52.3,32-65.1,88.6-.6,1.8-.7,4-.3,4.3,0,0,1.2.6,5.6-1.9A1.613,1.613,0,0,1,391,754.8Z" transform="translate(-333.061 -515.204)"/>
  <path id="Path_237" data-name="Path 237" d="M442.9,741.7s-25.7,19.2-19.6,51.5c0,0,2.1,13.9,13.9,19.9,0,0,15.8,9.6,30.2-8.8C467.3,804.3,440.7,790.3,442.9,741.7Z" transform="translate(-333.061 -515.204)"/>
  <path id="Path_238" data-name="Path 238" d="M447.2,817.3a24.359,24.359,0,0,1-11.1-2.7c-12.3-6.3-14.6-20.5-14.7-21.1-6.1-32.9,20.1-53,20.4-53.2a2.063,2.063,0,0,1,2-.2,1.62,1.62,0,0,1,1,1.7c-2.2,46.9,23.1,60.7,23.4,60.9a1.785,1.785,0,0,1,.9,1.2,1.971,1.971,0,0,1-.3,1.5C461.3,814.9,453.4,817.3,447.2,817.3ZM440.9,746c-6.5,6.4-20.2,23-15.7,46.8,0,.2,2.1,13.1,12.9,18.6.7.4,13.8,8,26.5-6.7C458.5,800.6,440.4,784.9,440.9,746Z" transform="translate(-333.061 -515.204)"/>
  <path id="Path_239" data-name="Path 239" d="M431.5,809s-29.9,23-9.2,31.4c0,0,23.2,9.9,38.6-4.6,0,0,19.7-18.4,6.4-31.6C467.3,804.3,452.2,826.3,431.5,809Z" transform="translate(-333.061 -515.204)"/>
  <path id="Path_240" data-name="Path 240" d="M439.5,845.6a49.009,49.009,0,0,1-18-3.5q-7.5-3-8.4-9c-1.6-11,16.3-25,17.1-25.6a2.107,2.107,0,0,1,2.4,0c5.7,4.7,11.4,6.8,17,6,9.6-1.3,15.9-10.3,16-10.4a1.6,1.6,0,0,1,1.4-.8,1.964,1.964,0,0,1,1.5.5,16.359,16.359,0,0,1,5.2,12.1c-.2,11.2-11.1,21.6-11.6,22.1C455.3,843.7,446.9,845.6,439.5,845.6Zm-8-34.2c-5.3,4.4-15.5,14.4-14.5,21.3.4,2.6,2.4,4.6,6.1,6.1.3.1,22.3,9.2,36.5-4.3a40.063,40.063,0,0,0,7.8-10.4c3.5-6.7,3.4-12.3,0-16.9-2.6,3.1-8.7,9-17.1,10.1C444,818.1,437.7,816.2,431.5,811.4Z" transform="translate(-333.061 -515.204)"/>
  <path id="Path_241" data-name="Path 241" d="M508.2,687.4h-.6a1.815,1.815,0,0,1-1.8-1.9,1.844,1.844,0,0,1,2-1.8c.3,0,33.2.8,55.5-39.7a2.035,2.035,0,0,1,2.6-.8,1.851,1.851,0,0,1,.8,2.5C544.5,685.7,513.2,687.4,508.2,687.4Z" transform="translate(-333.061 -515.204)"/>
  <path id="Path_242" data-name="Path 242" d="M513.9,678.1c.5,1.1,3,1.2,5.5.1,2.6-1,4.2-2.8,3.8-3.9-.5-1.1-3-1.2-5.5-.1C515.1,675.3,513.4,677,513.9,678.1Z" transform="translate(-333.061 -515.204)"/>
  <path id="Path_243" data-name="Path 243" d="M553.5,637.3a16.063,16.063,0,0,0,4.7-2.8s12-6.2,6.6-23.6c0,0-3-12.7-9-18.1a5.332,5.332,0,0,0-6.1-.8,4.953,4.953,0,0,0-2.2,2.1c-2,3.5-4.1,10.5-4.8,24.2C542.7,618.3,540.7,642.4,553.5,637.3Z" transform="translate(-333.061 -515.204)"/>
  <path id="Path_244" data-name="Path 244" d="M550.2,639.8a7.32,7.32,0,0,1-4.3-1.3c-6.3-4.4-5.3-18.7-5.1-20.3.6-11.5,2.3-19.9,5.1-24.9a7.618,7.618,0,0,1,3-2.9,7.468,7.468,0,0,1,8.3,1.1c6.3,5.7,9.4,18.5,9.6,19.1,5.4,17.3-5.9,24.6-7.4,25.5a20.927,20.927,0,0,1-5.1,2.9A11.357,11.357,0,0,1,550.2,639.8Zm2-46.5a3.166,3.166,0,0,0-1.6.4,3.532,3.532,0,0,0-1.4,1.3c-1.7,3.1-3.9,9.7-4.6,23.5-.4,5.4.1,14.7,3.6,17.2.4.3,1.7,1.2,4.6.1h0a20.257,20.257,0,0,0,4.3-2.5c.1-.1.2-.1.3-.2.4-.2,10.6-5.8,5.7-21.5-.1-.2-3-12.4-8.5-17.3A3.412,3.412,0,0,0,552.2,593.3Z" transform="translate(-333.061 -515.204)"/>
  <path id="Path_245" data-name="Path 245" d="M553.5,637.3h0s11-7.5,7.1-23.6c0,0-4-20.4-10.9-21.8a4.953,4.953,0,0,0-2.2,2.1c-2,3.5-4.1,10.5-4.8,24.2C542.7,618.3,540.7,642.4,553.5,637.3Z" transform="translate(-333.061 -515.204)"/>
  <path id="Path_246" data-name="Path 246" d="M554.4,607.7a3.6,3.6,0,1,1-3.6-3.5A3.551,3.551,0,0,1,554.4,607.7Z" transform="translate(-333.061 -515.204)"/>
  <path id="Path_247" data-name="Path 247" d="M557.4,670.4c-24.7,27-49.8,24.7-49.8,24.7s-25.1,2.3-49.8-24.7c0,0-56.2,147.7,49.8,142.5C613.6,818.1,557.4,670.4,557.4,670.4Z" transform="translate(-333.061 -515.204)"/>
  <path id="Path_248" data-name="Path 248" d="M512.9,814.9c-1.8,0-3.6,0-5.4-.1-24.3,1.2-42.3-5.5-53.4-20.1-12.7-16.6-16.2-42.7-10.5-77.6A277.24,277.24,0,0,1,456,669.8a1.891,1.891,0,0,1,1.4-1.2,2.016,2.016,0,0,1,1.8.6c23.8,26,48,24.1,48.2,24.1h.4c.2,0,24.5,1.8,48.2-24.1a1.929,1.929,0,0,1,1.8-.6,1.739,1.739,0,0,1,1.4,1.2,277.249,277.249,0,0,1,12.4,47.3c5.8,34.9,2.2,61-10.5,77.6C550.8,808.1,534.6,814.9,512.9,814.9Zm-5.4-3.8c23.3,1.1,40.2-5.1,50.5-18.6,25.9-33.8,3.8-103.6-1.4-118.6-23.5,24.1-46.6,23.2-49.1,23-2.5.2-25.5,1.1-49.1-23-5.2,15-27.2,84.8-1.4,118.6C467.5,806,484.4,812.2,507.5,811.1Z" transform="translate(-333.061 -515.204)"/>
  <path id="Path_249" data-name="Path 249" d="M558.8,748.1s-5-32.6-31.6-56.6c0,0-9.8,4.3-19.6,3.6-9.8.8-19.6-3.6-19.6-3.6-26.6,23.9-31.6,56.6-31.6,56.6-8.8,41,25.3,62.4,25.3,62.4,11.8,3,25.9,2.4,25.9,2.4s14.1.7,25.9-2.4C533.5,810.5,567.6,789.1,558.8,748.1Z" transform="translate(-333.061 -515.204)"/>
  <path id="Path_250" data-name="Path 250" d="M511.1,814.8c-2.1,0-3.4-.1-3.6-.1-.4,0-14.4.6-26.3-2.4-.2-.1-.4-.1-.5-.2-.4-.2-35.1-22.6-26.1-64.3.2-1.3,5.3-33.5,32.2-57.5a2.012,2.012,0,0,1,2.1-.3c.1,0,9.5,4.1,18.7,3.4h.3c9.3.7,18.6-3.4,18.7-3.4a2.012,2.012,0,0,1,2.1.3c26.5,23.8,31.9,55.6,32.2,57.6,9,41.7-25.7,64.1-26.1,64.3a1.691,1.691,0,0,1-.5.2A104.822,104.822,0,0,1,511.1,814.8Zm-3.6-3.7c.3,0,13.9.6,25.2-2.2,3.2-2.1,32.4-22.5,24.2-60.4v-.1c0-.3-5.1-31.6-30.1-54.7-3,1.1-11,3.9-19.2,3.2-8.2.6-16.2-2.1-19.2-3.2-25.1,23.1-30.1,54.4-30.1,54.7-8.1,37.6,21.2,58.5,24.2,60.5C493.8,811.7,507.4,811.1,507.5,811.1Zm26-.6Z" transform="translate(-333.061 -515.204)"/>
  <path id="Path_251" data-name="Path 251" d="M564.8,661.7s53,26.6,67.5,90.6c0,0,3.9,11.3-8.1,4.4,0,0,.9,13.1-17.2-6.1,0,0-6.4,14.3-14.3-.6a22.925,22.925,0,0,1-2.2-6.7,14.969,14.969,0,0,0-5.8-9l-13.8-8.7s-5.6-37.9-13.5-55.2C557.4,670.4,562.8,664.5,564.8,661.7Z" transform="translate(-333.061 -515.204)"/>
  <path id="Path_252" data-name="Path 252" d="M621.3,762.8c-3.3,0-7.8-3-13.9-9.2-1.4,2.1-3.8,4.8-7.1,4.9-3.4.1-6.5-2.5-9.2-7.8a25.7,25.7,0,0,1-2.4-7.1,13.373,13.373,0,0,0-5.1-8L569.9,727a1.56,1.56,0,0,1-.8-1.3c-.1-.4-5.7-37.9-13.3-54.7a1.655,1.655,0,0,1,.3-1.9c.1-.1,5.4-5.9,7.3-8.5a2,2,0,0,1,2.4-.6c.5.3,54,27.8,68.4,91.8.3.8,1.8,5.7-1,8-2,1.6-4.9.8-7.4-.3a4.511,4.511,0,0,1-2.6,3A6.8,6.8,0,0,1,621.3,762.8ZM607,748.7a1.975,1.975,0,0,1,1.4.6c10.2,10.8,13.1,9.8,13.2,9.8.5-.2.7-1.5.7-2.4a1.965,1.965,0,0,1,.9-1.7,1.817,1.817,0,0,1,2,0c4.4,2.6,5.6,1.9,5.6,1.9.5-.4.3-2.5-.2-4.1-12.8-56.8-56.7-84-65.1-88.7-1.8,2.2-4.4,5.2-5.7,6.6,7.1,16.4,12.1,48.1,13,53.8l13.1,8.2a16.891,16.891,0,0,1,6.6,10.2,22.481,22.481,0,0,0,2.1,6.2c2,3.7,4,5.8,5.7,5.8h.1c2.3-.1,4.5-3.8,5.1-5.1a1.933,1.933,0,0,1,1.4-1.1Z" transform="translate(-333.061 -515.204)"/>
  <path id="Path_253" data-name="Path 253" d="M572.3,741.7s25.7,19.2,19.6,51.5c0,0-2.1,13.9-13.9,19.9,0,0-15.8,9.6-30.2-8.8C547.9,804.3,574.5,790.3,572.3,741.7Z" transform="translate(-333.061 -515.204)"/>
  <path id="Path_254" data-name="Path 254" d="M568,817.3c-6.2,0-14.1-2.4-21.6-12a1.625,1.625,0,0,1-.3-1.5,1.863,1.863,0,0,1,.9-1.2c.3-.1,25.6-14.2,23.4-60.9a1.936,1.936,0,0,1,1-1.7,1.8,1.8,0,0,1,2,.2c.3.2,26.5,20.3,20.3,53.2-.1.5-2.4,14.8-14.8,21.2A21.737,21.737,0,0,1,568,817.3Zm-17.3-12.6c12.8,14.8,25.8,7.1,26.4,6.8,10.9-5.5,13-18.5,13-18.6,4.5-23.9-9.3-40.5-15.7-46.9C574.8,784.9,556.7,800.6,550.7,804.7Z" transform="translate(-333.061 -515.204)"/>
  <path id="Path_255" data-name="Path 255" d="M583.7,809s29.9,23,9.2,31.4c0,0-23.2,9.9-38.6-4.6,0,0-19.7-18.4-6.4-31.6C547.9,804.3,563,826.3,583.7,809Z" transform="translate(-333.061 -515.204)"/>
  <path id="Path_256" data-name="Path 256" d="M575.7,845.6c-7.3,0-15.7-1.9-22.7-8.5-.5-.4-11.4-10.8-11.6-22a16,16,0,0,1,5.2-12.1,1.741,1.741,0,0,1,1.5-.5,2.189,2.189,0,0,1,1.4.8c.1.1,6.4,9.1,16,10.4,5.6.8,11.3-1.3,17-6a1.825,1.825,0,0,1,2.4,0c.8.6,18.7,14.5,17.1,25.6-.6,3.9-3.4,7-8.4,9A56.568,56.568,0,0,1,575.7,845.6Zm-27.9-38.4c-3.5,4.6-3.5,10.2,0,16.9a45.751,45.751,0,0,0,7.8,10.4c14.2,13.5,36.3,4.4,36.5,4.3,3.8-1.5,5.8-3.5,6.1-6.1,1-6.9-9.2-16.9-14.5-21.3-6.2,4.8-12.5,6.7-18.8,5.9C556.5,816.2,550.5,810.3,547.8,807.2Z" transform="translate(-333.061 -515.204)"/>
</svg>
