<svg id="_7" data-name="7" xmlns="http://www.w3.org/2000/svg" width="350" height="350" viewBox="0 0 350 350">
  <rect id="ee-background" width="350" height="350" fill="none"/>
  <path id="Path_185" data-name="Path 185" d="M326.7,707.9a14.556,14.556,0,0,1-2.9-3.2h.1a4.06,4.06,0,0,0,3.3-2.6c.8-2.8-2.4-6-3.4-6.9-33.9-33.4-58.4-34.8-68.5-33.5,5.4-7.9,9.4-17.8,10.8-30.3.2-1.7,5-41.3-18.4-68.3-13.5-15.5-33.5-23.6-59.5-24h-.1c-26,.4-46,8.5-59.5,24-23.4,27.1-18.6,66.7-18.4,68.3,1.4,12.5,5.3,22.5,10.8,30.4-10.1-1.3-34.6.1-68.5,33.5-1,.9-4.2,4.1-3.4,6.9.3,1,1,2.2,3.3,2.6h.1a13.908,13.908,0,0,1-2.8,3.1c-1.7,1.3-4.2,4.3-3,7.4,1.1,3,5.4,6.5,26.1,6.5,6,0,13.5-.3,22.7-1,.1,1.9.3,3.8.4,5.5,2.8,26.8,12.4,34.7,17,36.9-4,6.5-15.1,28.1-8.3,57.1,0,.1.1.2.1.3a2.538,2.538,0,0,1-1.4,3.3c-4.1,2.5-13.4,8.7-12,13.5,1,3.5,6.4,3.7,11,3.5a7.158,7.158,0,0,1,1.7.1,2.4,2.4,0,0,1-.2.8c-.8,1.3-1.3,3.3-.1,4.8,1.9,2.4,6.7,2,15.9-1.3a.758.758,0,0,0,.4-.2s2.2-1.3,3.9-.8a3.839,3.839,0,0,1,2.2,2.3,4.679,4.679,0,0,0,2.2,4.1,5.521,5.521,0,0,0,2.6.6c3.5,0,9.9-2.6,23.4-13.7,1.2-.8,5.9-4.4,2-12.8-.4-1.9-3.3-18.7,4.4-32.7a64.573,64.573,0,0,0,13.9,4.3c3.9,11.1,11.2,11.8,13.2,11.8h.3c1.3.1,9.4-.1,13.5-11.8a57.326,57.326,0,0,0,13.8-4.3c7.7,14,4.8,30.8,4.4,32.7-3.9,8.5.8,12.1,2,12.8,13.5,11.1,19.9,13.7,23.4,13.7a6.231,6.231,0,0,0,2.6-.6,4.365,4.365,0,0,0,2.2-4.1,4.361,4.361,0,0,1,2.1-2.3,5.48,5.48,0,0,1,3.9.7c.1.1.2.1.4.2,9.2,3.3,14,3.7,15.9,1.3a4.219,4.219,0,0,0,0-4.7,1.758,1.758,0,0,1-.3-.8,3.424,3.424,0,0,1,1.9-.2c4.5.2,9.8-.1,10.9-3.5,1.4-4.7-7.9-11-12-13.5a2.408,2.408,0,0,1-1.3-3.2c0-.1.1-.2.1-.3,6.8-29-4.3-50.6-8.3-57.1,4.9-2.4,15.5-11.3,17.4-42.4,9.2.7,16.6,1,22.7,1,20.7,0,25-3.5,26.2-6.5C330.7,712.1,328.2,709.1,326.7,707.9Z" transform="translate(-7.907 -520.279)"/>
  <g id="Group_19" data-name="Group 19" transform="translate(-7.907 -520.279)">
    <path id="Path_186" data-name="Path 186" d="M261.4,708.6c-9.8-6.1-22.5-19.9-17.8-49.7,0,0-17.4,25.9-62.9,25.7-45.5.2-62.9-25.7-62.9-25.7,4.6,29.8-8,43.6-17.8,49.7A33.494,33.494,0,0,1,89.7,713c2,40.8,18.5,43.5,18.5,43.5,22.3,4.7,44.4,27.5,44.4,27.5,13.3,6.5,28.1,6.1,28.1,6.1s14.8.5,28.1-6.1c0,0,22.1-22.8,44.4-27.5,0,0,16.5-2.7,18.5-43.5A33.494,33.494,0,0,1,261.4,708.6Z"/>
    <path id="Path_187" data-name="Path 187" d="M181.5,791.9h-.8c-.5,0-15.3.4-28.8-6.3a1,1,0,0,1-.5-.4c-.2-.2-22-22.5-43.4-27-.7-.1-17.9-3.4-20-45.2a1.927,1.927,0,0,1,1.5-1.9,35.159,35.159,0,0,0,9.7-4.2c10.2-6.3,21.3-19.7,17-47.9a1.808,1.808,0,0,1,3.3-1.3c0,.1,4.4,6.3,14,12.5,8.9,5.7,24.2,12.4,46.9,12.4h.8c22.7,0,38-6.7,46.9-12.4,9.7-6.2,14-12.5,14-12.5a1.9,1.9,0,0,1,2.2-.7,1.708,1.708,0,0,1,1.1,2c-4.3,28.2,6.8,41.6,17,47.9a33.869,33.869,0,0,0,9.7,4.2,1.927,1.927,0,0,1,1.5,1.9c-2.1,41.8-19.3,45.1-20,45.2-21.4,4.5-43.1,26.7-43.3,27a1,1,0,0,1-.5.4C197.7,791.5,184.8,791.9,181.5,791.9Zm-.8-3.7c.2,0,14.4.4,27.1-5.7,2.5-2.6,23.5-23.2,45.1-27.8.2,0,14.8-3.3,17-40.3a38.262,38.262,0,0,1-9.3-4.3h0c-8.5-5.3-21.7-18-19.4-45.5-7.5,7.7-25.9,21.7-59.9,21.7h-.9c-33.9,0-52.4-14.1-59.9-21.7,2.3,27.5-10.9,40.2-19.4,45.5a42.644,42.644,0,0,1-9.3,4.3c2.2,37,16.8,40.3,16.9,40.3,21.6,4.6,42.6,25.2,45.1,27.8C166.3,788.6,180.5,788.2,180.7,788.2Z"/>
  </g>
  <path id="Path_188" data-name="Path 188" d="M180.7,535.1c-87.6,1.3-76.1,90.3-76.1,90.3,6.7,61.3,76.1,59.1,76.1,59.1s69.4,2.2,76.1-59.1C256.9,625.4,268.3,536.5,180.7,535.1Z" transform="translate(-7.907 -520.279)"/>
  <path id="Path_189" data-name="Path 189" d="M181.3,686.4h-.7c-.6,0-71.1,1.5-77.9-60.8-.2-1.6-5-41.2,18.4-68.3,13.5-15.5,33.5-23.6,59.5-24h.1c26,.4,46,8.5,59.5,24,23.4,27.1,18.6,66.7,18.4,68.3C252.2,684.7,188.5,686.4,181.3,686.4Zm-.6-3.7a100.175,100.175,0,0,0,35-6.5c23.4-9.2,36.6-26.4,39.3-51,.1-.4,4.8-39.7-17.6-65.5-12.7-14.7-31.8-22.3-56.7-22.7-24.9.4-44,8-56.7,22.7-22.4,25.8-17.6,65.1-17.6,65.5C112.9,684.2,180,682.8,180.7,682.7Z" transform="translate(-7.907 -520.279)"/>
  <path id="Path_190" data-name="Path 190" d="M108.3,756.5S91.8,753.8,89.8,713a36.866,36.866,0,0,0,10.3-4.4C98.2,739.4,108.3,756.5,108.3,756.5Z" transform="translate(-7.907 -520.279)"/>
  <path id="Path_191" data-name="Path 191" d="M108.3,758.3H108c-.7-.1-18-3.4-20-45.2a1.927,1.927,0,0,1,1.5-1.9,36.569,36.569,0,0,0,9.7-4.2,1.654,1.654,0,0,1,1.9,0,1.965,1.965,0,0,1,.9,1.7c-1.8,29.8,7.9,46.7,8,46.9a1.822,1.822,0,0,1-.1,2A2.36,2.36,0,0,1,108.3,758.3ZM91.7,714.4c1.4,23.9,8,33.7,12.5,37.7-2.8-7-6.8-20.7-6.2-40.3A32.387,32.387,0,0,1,91.7,714.4Z" transform="translate(-7.907 -520.279)"/>
  <path id="Path_192" data-name="Path 192" d="M117.9,658.9s-27.8-11.2-71.6,31.9c0,0-5.9,5.4-1,6.4,0,0,5.1.2-1.9,6.4,0,0-19.1,14.7,46.4,9.4C89.8,713,124.7,706.9,117.9,658.9Z" transform="translate(-7.907 -520.279)"/>
  <path id="Path_193" data-name="Path 193" d="M65.4,716c-20.7,0-25-3.5-26.1-6.5-1.2-3.1,1.3-6.1,3-7.4a13.908,13.908,0,0,0,2.8-3.1H45a4.06,4.06,0,0,1-3.3-2.6c-.8-2.8,2.4-6,3.4-6.9,44.1-43.4,72.3-32.8,73.5-32.3a1.77,1.77,0,0,1,1.1,1.4c6.9,49.2-29.2,56.2-29.6,56.2C80,715.6,71.9,716,65.4,716ZM45.6,695.4a3.636,3.636,0,0,1,3.2,2.2c.7,2-.6,4.2-4.1,7.4-.8.7-2.3,2.2-1.9,3.2.4,1.1,4.7,6.4,47,3,1.2-.2,32.3-6.4,26.6-50.9-5.2-1.3-30.9-5.3-68.6,31.8a10.917,10.917,0,0,0-2.4,3.2C45.3,695.3,45.4,695.3,45.6,695.4Z" transform="translate(-7.907 -520.279)"/>
  <path id="Path_194" data-name="Path 194" d="M108.3,756.5S91.1,780.4,99,814.1a4.447,4.447,0,0,1-2.1,5.6s-23.8,14.5-2.1,13.6c0,0,5.4-.5,3.2,3.7,0,0-4.7,7.4,13.6.8,0,0,6.2-4,8.9,2.7,0,0-1.5,11.9,25.3-10.1,0,0,5.2-2.5,1.3-10.8,0,0-4.3-19.8,5.4-35.7C152.6,784,131.5,761.8,108.3,756.5Z" transform="translate(-7.907 -520.279)"/>
  <path id="Path_195" data-name="Path 195" d="M123.6,845.6a6.231,6.231,0,0,1-2.6-.6,4.365,4.365,0,0,1-2.2-4.1,4.142,4.142,0,0,0-2.2-2.3,4.808,4.808,0,0,0-3.9.8c-.1.1-.2.1-.4.2-9.2,3.3-14,3.7-15.9,1.3a4.2,4.2,0,0,1,.1-4.8,1.044,1.044,0,0,0,.2-.8,4.25,4.25,0,0,0-1.7-.1c-4.6.2-9.9-.1-11-3.5-1.4-4.7,7.9-11,12-13.5a2.538,2.538,0,0,0,1.4-3.3c0-.1-.1-.2-.1-.3-8-34.1,8.8-58.1,9.6-59.1a1.76,1.76,0,0,1,1.9-.7c23.5,5.4,44.4,27.1,45.3,28a1.68,1.68,0,0,1,.2,2.2c-8.7,14.2-5.6,32.1-5.2,34.1,3.9,8.5-.8,12.1-2,12.8C133.4,843,127,845.6,123.6,845.6Zm-1.2-4.8s-.1.8.4,1c.4.2,4.4,1.6,21.9-12.8a.52.52,0,0,1,.4-.2c.3-.2,3.4-2.1.5-8.4a.6.6,0,0,1-.1-.4c-.2-.8-4.1-19.7,4.9-35.8-4.3-4.2-22-20.8-41.2-25.7a74.436,74.436,0,0,0-8.3,55,6.147,6.147,0,0,1-2.9,7.7c-6.1,3.7-10.6,8-10.3,9.3h0s.9,1.2,7.2.9c.5-.1,3.7-.2,5,1.8.6.8,1,2.3-.2,4.5a2.3,2.3,0,0,0-.3.9,2.391,2.391,0,0,0,.9.1c1.3,0,4.3-.3,10.6-2.6a8.7,8.7,0,0,1,6.8-1,7.411,7.411,0,0,1,4.6,4.7,1.8,1.8,0,0,1,.1,1Z" transform="translate(-7.907 -520.279)"/>
  <path id="Path_196" data-name="Path 196" d="M179.5,704.8c-40.5,0-62.9-16.7-63.8-17.5a1.851,1.851,0,1,1,2.3-2.9c.2.2,22.9,17,62.8,16.7h0a1.8,1.8,0,1,1,0,3.6C180.3,704.7,179.9,704.8,179.5,704.8Z" transform="translate(-7.907 -520.279)"/>
  <path id="Path_197" data-name="Path 197" d="M179.1,753.3c-20.2,0-44-5.7-44.3-5.8a1.445,1.445,0,0,1-1-.7c-12.2-16.2-23-47.9-23.5-49.2a1.8,1.8,0,0,1,3.4-1.2c.1.3,10.9,31.7,22.6,47.7,4,.9,26,5.8,44.4,5.5h0a1.793,1.793,0,0,1,1.8,1.8,1.95,1.95,0,0,1-1.8,1.9Z" transform="translate(-7.907 -520.279)"/>
  <path id="Path_198" data-name="Path 198" d="M124.8,764.4a1.7,1.7,0,0,1-.7-.1,1.843,1.843,0,0,1-1-2.4c.2-.5,5-12.4,11-17.6a1.844,1.844,0,0,1,2.4,2.8c-5.3,4.5-9.9,16-9.9,16.1A2.219,2.219,0,0,1,124.8,764.4Z" transform="translate(-7.907 -520.279)"/>
  <path id="Path_199" data-name="Path 199" d="M180.7,678.5a1.743,1.743,0,0,1-1.7-1.2c-1.5-4.1-8.5-5.4-13.6-6.4-1.2-.2-2.3-.4-3.2-.6-3-.7-5.9-1.3-8.9-1.9a153.211,153.211,0,0,1-19.7-4.9c-7.3-2.5-11.3-6.8-11.7-12.8a1.883,1.883,0,0,1,1.7-2,1.8,1.8,0,0,1,1.9,1.7c.3,4.4,3.3,7.6,9.2,9.5a164.854,164.854,0,0,0,19.3,4.8c3,.6,6,1.2,9,1.9.9.2,1.9.4,3.1.6,6,1.1,14.2,2.6,16.4,8.7a1.823,1.823,0,0,1-1.1,2.3A1.329,1.329,0,0,1,180.7,678.5Z" transform="translate(-7.907 -520.279)"/>
  <path id="Path_200" data-name="Path 200" d="M171.1,662c0,2.154-1.164,3.9-2.6,3.9s-2.6-1.746-2.6-3.9,1.164-3.9,2.6-3.9,2.6,1.746,2.6,3.9Z" transform="matrix(0.8, -0.6, 0.6, 0.8, -371.469, -286.667)"/>
  <path id="Path_201" data-name="Path 201" d="M139,644.5a15.252,15.252,0,0,1-8.1-1s-12.2-1.9-12.1-18.7c0,0,.2-20.2,9.4-27.5h0a11.7,11.7,0,0,1,4.9-2.3s13.2-.4,14.8,29.3C147.9,624.2,149.6,642.4,139,644.5Z" transform="translate(-7.907 -520.279)"/>
  <path id="Path_202" data-name="Path 202" d="M136.9,646.5a18.8,18.8,0,0,1-6.6-1.3c-1.8-.4-13.6-3.6-13.5-20.5,0-.9.4-21.2,10.1-28.9a13.036,13.036,0,0,1,5.7-2.7h.4c1.2,0,14.9.7,16.6,31,.1.7,1.8,19.8-10.3,22.1A8.748,8.748,0,0,1,136.9,646.5Zm-3.7-49.7a8.881,8.881,0,0,0-3.9,1.9c-8.4,6.7-8.7,25.9-8.7,26.1-.1,15.1,10.5,16.9,10.6,16.9a.756.756,0,0,1,.4.1,13.461,13.461,0,0,0,7.1.9h0c8.9-1.7,7.4-18.1,7.4-18.3C144.6,598.8,134.5,596.9,133.2,596.8Z" transform="translate(-7.907 -520.279)"/>
  <path id="Path_203" data-name="Path 203" d="M139,644.5c-13-2.2-15.3-16-15.3-16-3-14.3,4.1-30.3,4.4-31.2h0A11.7,11.7,0,0,1,133,595s13.2-.4,14.8,29.3C147.9,624.2,149.6,642.4,139,644.5Z" transform="translate(-7.907 -520.279)"/>
  <path id="Path_204" data-name="Path 204" d="M140.5,607.5A5.5,5.5,0,1,1,135,602,5.5,5.5,0,0,1,140.5,607.5Z" transform="translate(-7.907 -520.279)"/>
  <path id="Path_205" data-name="Path 205" d="M152.2,603.8a1.891,1.891,0,0,1-1.8-1.4c-3.7-13.6-21.2-17.2-21.3-17.2a1.791,1.791,0,0,1-1.4-2.1,1.718,1.718,0,0,1,2.1-1.4c.8.2,19.9,4,24.2,19.9a1.712,1.712,0,0,1-1.3,2.2Z" transform="translate(-7.907 -520.279)"/>
  <path id="Path_206" data-name="Path 206" d="M253.2,756.5s16.5-2.7,18.5-43.5a36.866,36.866,0,0,1-10.3-4.4C263.3,739.4,253.2,756.5,253.2,756.5Z" transform="translate(-7.907 -520.279)"/>
  <path id="Path_207" data-name="Path 207" d="M253.2,758.3a1.763,1.763,0,0,1-1.5-.8,2.043,2.043,0,0,1-.1-2c.1-.2,9.8-17.1,8-46.9a1.965,1.965,0,0,1,.9-1.7,2.118,2.118,0,0,1,1.9,0,33.869,33.869,0,0,0,9.7,4.2,1.927,1.927,0,0,1,1.5,1.9c-2.1,41.8-19.3,45.1-20,45.2A.756.756,0,0,1,253.2,758.3Zm10.2-46.5c.7,19.6-3.4,33.3-6.2,40.3,4.5-4,11.1-13.8,12.5-37.7A38.4,38.4,0,0,1,263.4,711.8Z" transform="translate(-7.907 -520.279)"/>
  <path id="Path_208" data-name="Path 208" d="M243.6,658.9s27.8-11.2,71.6,31.9c0,0,5.9,5.4,1,6.4,0,0-5.1.2,1.9,6.4,0,0,19.1,14.7-46.4,9.4C271.7,713,236.8,706.9,243.6,658.9Z" transform="translate(-7.907 -520.279)"/>
  <path id="Path_209" data-name="Path 209" d="M296.1,716c-6.4,0-14.5-.3-24.5-1.1-.5-.1-36.7-7.1-29.8-56.3a1.77,1.77,0,0,1,1.1-1.4c1.2-.5,29.4-11.1,73.5,32.3.9.9,4.1,4.1,3.4,6.9-.3,1-1,2.2-3.3,2.6h-.1a14.556,14.556,0,0,0,2.9,3.2c1.6,1.2,4.1,4.2,2.9,7.3C321.1,712.5,316.8,716,296.1,716Zm-50.9-55.7c-2.4,18.5,1.5,33.1,11.1,42.4a33.73,33.73,0,0,0,15.6,8.6c42.1,3.3,46.4-1.9,46.8-3,.4-1-1.2-2.7-1.8-3.1-3.7-3.3-4.9-5.6-4.2-7.5a3.529,3.529,0,0,1,3.2-2.2.438.438,0,0,0,.3-.1,9.028,9.028,0,0,0-2.3-3.1c-22.2-21.8-40-29.2-51-31.6C253.7,658.5,247.5,659.7,245.2,660.3Z" transform="translate(-7.907 -520.279)"/>
  <path id="Path_210" data-name="Path 210" d="M253.2,756.5s17.2,23.9,9.3,57.6a4.447,4.447,0,0,0,2.1,5.6s23.8,14.5,2.1,13.6c0,0-5.4-.5-3.2,3.7,0,0,4.7,7.4-13.6.8,0,0-6.2-4-8.9,2.7,0,0,1.5,11.9-25.3-10.1,0,0-5.2-2.5-1.3-10.8,0,0,4.3-19.8-5.4-35.7C208.8,784,229.9,761.8,253.2,756.5Z" transform="translate(-7.907 -520.279)"/>
  <path id="Path_211" data-name="Path 211" d="M237.9,845.6c-3.5,0-9.9-2.6-23.4-13.7-1.2-.8-5.9-4.4-2-12.8.4-2,3.5-19.9-5.2-34.1a1.966,1.966,0,0,1,.2-2.2c.9-.9,21.8-22.7,45.3-28a1.76,1.76,0,0,1,1.9.7c.7,1,17.6,25,9.6,59.1,0,.1-.1.2-.1.3a2.393,2.393,0,0,0,1.3,3.2c4.1,2.5,13.5,8.8,12,13.5-1,3.5-6.4,3.7-10.9,3.5a4.989,4.989,0,0,0-1.9.2s.1.3.3.8a4.219,4.219,0,0,1,0,4.7c-1.9,2.4-6.7,2-15.9-1.3a.758.758,0,0,1-.4-.2,5.221,5.221,0,0,0-3.9-.7,3.478,3.478,0,0,0-2.1,2.3,4.679,4.679,0,0,1-2.2,4.1A5,5,0,0,1,237.9,845.6Zm-26.8-61.3c9.1,16.1,5.1,34.9,4.9,35.8,0,.1-.1.3-.1.4-3.1,6.5.5,8.3.5,8.4.1.1.3.1.4.2,17.6,14.5,21.5,13,21.9,12.8s.4-1,.4-1a2.769,2.769,0,0,1,.1-.9c1-2.5,2.5-4.1,4.6-4.7,3-1,6,.6,6.8,1,9.9,3.5,11.6,2.4,11.7,2.3-.1.1-.2-.3-.4-.6-1.2-2.3-.8-3.8-.2-4.7,1.4-2.1,4.5-1.9,5.1-1.8,6.3.3,7.1-1,7.1-1,.2-1.2-4.2-5.6-10.4-9.3a6.147,6.147,0,0,1-2.9-7.7,74.572,74.572,0,0,0-8.3-55C233.1,763.5,215.4,780.1,211.1,784.3Zm3.2,35.3Z" transform="translate(-7.907 -520.279)"/>
  <path id="Path_212" data-name="Path 212" d="M181.9,704.8h-1.2a1.8,1.8,0,1,1,0-3.6h0c40,.3,62.5-16.5,62.8-16.7a1.851,1.851,0,1,1,2.3,2.9C244.8,688,222.4,704.8,181.9,704.8Z" transform="translate(-7.907 -520.279)"/>
  <path id="Path_213" data-name="Path 213" d="M182.4,753.3h-1.7a1.817,1.817,0,0,1-1.8-1.9,1.76,1.76,0,0,1,1.9-1.8c18.3.3,40.4-4.6,44.4-5.5,11.7-15.9,22.5-47.4,22.6-47.7a1.8,1.8,0,0,1,3.4,1.2c-.5,1.3-11.3,33-23.5,49.2a2.286,2.286,0,0,1-1,.7C226.4,747.5,202.6,753.3,182.4,753.3Z" transform="translate(-7.907 -520.279)"/>
  <path id="Path_214" data-name="Path 214" d="M236.7,764.4a1.8,1.8,0,0,1-1.7-1.2c0-.1-4.6-11.6-9.9-16.1a1.844,1.844,0,0,1,2.4-2.8c6,5.1,10.8,17.1,11,17.6a1.879,1.879,0,0,1-1,2.4C237.1,764.3,236.9,764.4,236.7,764.4Z" transform="translate(-7.907 -520.279)"/>
  <path id="Path_215" data-name="Path 215" d="M180.7,678.5a1.269,1.269,0,0,1-.6-.1,1.782,1.782,0,0,1-1.1-2.3c2.2-6.1,10.4-7.6,16.4-8.7,1.1-.2,2.2-.4,3.1-.6,3-.7,6-1.3,9-1.9a164.855,164.855,0,0,0,19.3-4.8c5.9-2,8.9-5.1,9.2-9.5a1.853,1.853,0,0,1,1.9-1.7,1.824,1.824,0,0,1,1.7,2c-.4,6-4.3,10.3-11.7,12.8a157.44,157.44,0,0,1-19.7,4.9c-3,.6-6,1.2-8.9,1.9-.9.2-2,.4-3.2.6-5.1.9-12.1,2.2-13.6,6.4A2.2,2.2,0,0,1,180.7,678.5Z" transform="translate(-7.907 -520.279)"/>
  <path id="Path_216" data-name="Path 216" d="M196.8,662c0,1.436-1.746,2.6-3.9,2.6s-3.9-1.164-3.9-2.6,1.746-2.6,3.9-2.6,3.9,1.164,3.9,2.6Z" transform="matrix(0.6, -0.8, 0.8, 0.6, -460.307, -101.24)"/>
  <path id="Path_217" data-name="Path 217" d="M222.5,644.5a15.252,15.252,0,0,0,8.1-1s12.2-1.9,12.1-18.7c0,0-.2-20.2-9.4-27.5h0a11.7,11.7,0,0,0-4.9-2.3s-13.2-.4-14.8,29.3C213.6,624.2,211.8,642.4,222.5,644.5Z" transform="translate(-7.907 -520.279)"/>
  <path id="Path_218" data-name="Path 218" d="M224.5,646.5a17.908,17.908,0,0,1-2.4-.2c-12.1-2.3-10.4-21.4-10.3-22.2,1.7-31,16.1-31,16.7-30.9h.3a13.036,13.036,0,0,1,5.7,2.7c9.7,7.8,10.1,28,10.1,28.9.1,16.9-11.7,20.1-13.5,20.5A21.023,21.023,0,0,1,224.5,646.5Zm3.8-49.7c-1.2.1-11.4,1.9-12.8,27.6,0,.2-1.5,16.6,7.4,18.3h0a13.263,13.263,0,0,0,7.1-.9c.1,0,.2-.1.4-.1.4-.1,10.7-1.9,10.6-16.9,0-.2-.3-19.4-8.7-26A8.9,8.9,0,0,0,228.3,596.8Z" transform="translate(-7.907 -520.279)"/>
  <path id="Path_219" data-name="Path 219" d="M222.5,644.5c13-2.2,15.3-16,15.3-16,3-14.3-4.1-30.3-4.4-31.2h0a11.7,11.7,0,0,0-4.9-2.3s-13.2-.4-14.8,29.3C213.6,624.2,211.8,642.4,222.5,644.5Z" transform="translate(-7.907 -520.279)"/>
  <path id="Path_220" data-name="Path 220" d="M232,607.5a5.5,5.5,0,1,1-5.5-5.5,5.5,5.5,0,0,1,5.5,5.5Z" transform="translate(-7.907 -520.279)"/>
  <path id="Path_221" data-name="Path 221" d="M209.3,603.8a.9.9,0,0,1-.5-.1,1.793,1.793,0,0,1-1.3-2.2c4.3-15.8,23.4-19.7,24.2-19.9a1.817,1.817,0,0,1,2.1,1.4,1.765,1.765,0,0,1-1.4,2.1c-.2,0-17.7,3.6-21.3,17.2A1.877,1.877,0,0,1,209.3,603.8Z" transform="translate(-7.907 -520.279)"/>
</svg>
