<svg id="_4" data-name="4" xmlns="http://www.w3.org/2000/svg" width="350" height="350" viewBox="0 0 350 350">
  <rect id="ee-background" width="350" height="350" fill="none"/>
  <path id="Path_80" data-name="Path 80" d="M942,665.6a47.011,47.011,0,0,0-16.2-14.1,77.85,77.85,0,0,0,.1-9.7c0-1-.6-23.8-7.8-39.3,6.1-6.4,26.5-28.4,22.2-37.3-1.4-3-5-4.1-10.5-3.5-.9,0-21.2,1.2-39.3,13.6-4.3-2.5-20.7-11-41.2-10.1a79.772,79.772,0,0,0-41.4,10.1c-18.1-12.4-38.4-13.5-39.1-13.5-5.6-.7-9.2.5-10.7,3.5-4.3,8.9,16,30.9,22.2,37.3-7.2,15.5-7.8,38.3-7.8,39.3a77.631,77.631,0,0,0,.1,9.7,48.11,48.11,0,0,0-16.2,14.1c-3.4,2.9-47,41.1-37.4,87.5.1.3,2.3,6.8,9.1,8.9a14.026,14.026,0,0,0,4.1.6,22.568,22.568,0,0,0,9.5-2.4,51.816,51.816,0,0,0-5.4,11.3c-3.7,11-5.2,28,8.8,47.5-1.6,4.5-7.3,23.7,9.1,31.9h0c.2.1.3.1.5.2h.1a48.75,48.75,0,0,0,5.1.3c7.4,0,21.2-1.6,30.9-12.2,1-.7,9.2-7.1,12.7-13.6,13.1,3.9,28.5,6,45.9,6.2,17.4-.2,32.7-2.3,45.8-6.2,3.6,6.4,11.8,12.8,12.7,13.6,9.7,10.6,23.5,12.2,30.9,12.2a29.541,29.541,0,0,0,5.1-.3h.1c.2,0,.3-.1.5-.2h0c16.4-8.3,10.7-27.4,9.1-31.9,18.5-25.5,10.4-47.4,3.3-58.8a22.113,22.113,0,0,0,9.6,2.5,14.027,14.027,0,0,0,4.1-.6c6.7-2,9-8.6,9.1-9.1C989,706.7,945.3,668.4,942,665.6Z" transform="translate(-671.327 -529.082)"/>
  <g id="Group_16" data-name="Group 16" transform="translate(-671.327 -529.082)">
    <path id="Path_81" data-name="Path 81" d="M908.5,596.4s41-41.7,13.9-38.6c0,0-21.2,1-39.3,13.9,0,0-18.1-11.5-41.4-10.4-23.3-1-41.4,10.4-41.4,10.4-18.1-12.9-39.3-13.9-39.3-13.9-27.1-3.1,13.9,38.6,13.9,38.6-7.6,15.3-8.2,39.7-8.2,39.7-2.9,51.3,48.5,61.1,48.5,61.1,8,16,26.4,12.9,26.4,12.9s18.4,3.1,26.4-12.9c0,0,51.4-9.7,48.5-61.1C916.7,636.1,916.1,611.7,908.5,596.4Z"/>
    <path id="Path_82" data-name="Path 82" d="M838.2,712.1c-6.1,0-17.8-1.6-24.1-13.3-6.9-1.6-51.9-14.2-49.1-62.8,0-.9.6-23.8,7.8-39.3-6.1-6.4-26.5-28.4-22.2-37.3,1.4-2.9,5-4.1,10.7-3.5.8,0,21.1,1.2,39.1,13.5a79.771,79.771,0,0,1,41.4-10.1c20.5-.9,36.9,7.6,41.2,10.1,18.1-12.4,38.4-13.5,39.3-13.6,5.5-.6,9.1.5,10.5,3.5,4.3,8.9-16,30.9-22.2,37.3,7.2,15.5,7.8,38.4,7.8,39.3,2.8,48.5-42.2,61.1-49.1,62.7-8.1,15-25.2,13.4-27.6,13.1A9.038,9.038,0,0,1,838.2,712.1Zm3.5-3.9h.3c.7.1,17.2,2.7,24.5-11.9a1.887,1.887,0,0,1,1.3-1c2-.4,49.8-10.1,47-59.2,0-.3-.6-24.3-8-39a1.827,1.827,0,0,1,.3-2.1c10.8-11,24.9-28.8,22.4-34-.9-1.8-4.7-1.7-7-1.4-.3,0-21,1.2-38.4,13.6a1.822,1.822,0,0,1-2,.1c-.2-.1-17.8-11.1-40.3-10.1-22.6-1-40.3,10-40.5,10.1a1.655,1.655,0,0,1-2-.1c-17.4-12.4-38.1-13.6-38.3-13.6-2.3-.3-6.2-.4-7.1,1.4-2.5,5.2,11.6,23,22.4,34a1.827,1.827,0,0,1,.3,2.1c-7.4,14.8-8,38.7-8,39-2.8,49.2,46.5,59.1,47,59.2a1.887,1.887,0,0,1,1.3,1c7.3,14.6,24.3,11.9,24.5,11.9Z"/>
  </g>
  <path id="Path_83" data-name="Path 83" d="M861.1,689.9c-5.6-7.1-19.4-6.6-19.4-6.6s-13.9-.5-19.4,6.6a6.751,6.751,0,0,0-.1,8c2.6,3.5,8.1,8,19.5,7.3,11.3.8,16.9-3.8,19.5-7.3A6.461,6.461,0,0,0,861.1,689.9Z" transform="translate(-671.327 -529.082)"/>
  <path id="Path_84" data-name="Path 84" d="M844.2,707.1a21.756,21.756,0,0,1-2.5-.1c-11.8.7-17.9-3.9-20.9-8a8.4,8.4,0,0,1,.1-10.2c6.1-7.8,20.3-7.4,20.9-7.3.5,0,14.7-.4,20.8,7.3h0a8.551,8.551,0,0,1,.1,10.2C859.9,702.8,854.4,707.1,844.2,707.1Zm-2.5-3.7h.1c10.3.7,15.4-3.2,17.9-6.5a4.8,4.8,0,0,0,0-5.8h0c-4.9-6.3-17.8-6-17.9-5.9-.3,0-13.1-.4-18,5.9a4.8,4.8,0,0,0,0,5.8c2.5,3.4,7.6,7.2,17.9,6.5Z" transform="translate(-671.327 -529.082)"/>
  <path id="Path_85" data-name="Path 85" d="M786.9,583.9s-5,4.5-7.2,8.3c0,0-15-12.1-20.4-24.1a1.851,1.851,0,0,1,2.3-2.5C766.8,567.6,776.7,572.6,786.9,583.9Z" transform="translate(-671.327 -529.082)"/>
  <path id="Path_86" data-name="Path 86" d="M815.3,699h-.1a1.792,1.792,0,0,1-1.7-1.9c0-.3.2-6.6-7-11-.8-.5-21.8-12.4-24.5-26.5a1.825,1.825,0,0,1,3.6-.6c2.4,12.4,22.5,23.9,22.7,24,9.2,5.6,8.8,14,8.8,14.3A1.71,1.71,0,0,1,815.3,699Z" transform="translate(-671.327 -529.082)"/>
  <path id="Path_87" data-name="Path 87" d="M836,694.7c0,3.148-1.254,5.7-2.8,5.7s-2.8-2.552-2.8-5.7,1.254-5.7,2.8-5.7S836,691.552,836,694.7Z" transform="translate(-671.327 -529.082)"/>
  <path id="Path_88" data-name="Path 88" d="M781,640c.4,4.4,2.9,10.5,12.4,15.7a1.893,1.893,0,0,0,2.8-2c-.7-4.7-2.3-12.8-5.5-17.4C787.7,631.9,780.6,634.6,781,640Z" transform="translate(-671.327 -529.082)"/>
  <path id="Path_89" data-name="Path 89" d="M822.3,665a1.921,1.921,0,0,1-1.6-.9,1.816,1.816,0,0,1,.7-2.5,38.393,38.393,0,0,1,20.5-4.1,1.883,1.883,0,0,1,1.7,2,1.96,1.96,0,0,1-2,1.7,34.188,34.188,0,0,0-18.4,3.6A2.919,2.919,0,0,1,822.3,665Z" transform="translate(-671.327 -529.082)"/>
  <path id="Path_90" data-name="Path 90" d="M825.2,671.5a1.921,1.921,0,0,1-1.6-.9,1.787,1.787,0,0,1,.6-2.5c.3-.2,6.2-3.8,17.5-3.5a1.88,1.88,0,0,1,1.8,1.9,1.792,1.792,0,0,1-1.8,1.8h0c-10.1-.3-15.4,3-15.5,3A3.552,3.552,0,0,1,825.2,671.5Z" transform="translate(-671.327 -529.082)"/>
  <path id="Path_91" data-name="Path 91" d="M828.4,677.1a1.8,1.8,0,0,1-1.7-1.2,1.879,1.879,0,0,1,1-2.4,39.363,39.363,0,0,1,14-2.3,1.817,1.817,0,0,1,1.8,1.9,1.792,1.792,0,0,1-1.8,1.8h-.4a38.925,38.925,0,0,0-12.2,2A.952.952,0,0,1,828.4,677.1Z" transform="translate(-671.327 -529.082)"/>
  <path id="Path_92" data-name="Path 92" d="M750.2,661.2s-46.8,38.4-37.1,85.7c0,0,6,18.1,28.7.5C741.8,747.4,764,690.5,750.2,661.2Z" transform="translate(-671.327 -529.082)"/>
  <path id="Path_93" data-name="Path 93" d="M724.5,756.9a14.027,14.027,0,0,1-4.1-.6c-6.7-2-9-8.6-9.1-8.9-9.9-48,37.2-87.3,37.7-87.7a1.8,1.8,0,0,1,1.6-.4,1.887,1.887,0,0,1,1.3,1c14,29.7-7.4,85.3-8.3,87.6a1.555,1.555,0,0,1-.6.8C736,754.2,729.9,756.9,724.5,756.9Zm-9.6-10.4s1.8,4.9,6.6,6.3,11.3-.9,18.8-6.6c2-5.3,19.8-54.6,9.2-82-8.5,7.7-42.9,42-34.6,82.3Zm0,0Z" transform="translate(-671.327 -529.082)"/>
  <path id="Path_94" data-name="Path 94" d="M741.8,747.4S712,776.1,739.5,813c0,0,11.6,12.6,29,6.6a14.326,14.326,0,0,1,5.8-.8c4.1.5,9.7,2.9,7.7,13.2,0,0,10.1-7.6,13-14.4C795,817.7,738.6,802.1,741.8,747.4Z" transform="translate(-671.327 -529.082)"/>
  <path id="Path_95" data-name="Path 95" d="M781.9,833.9a1.929,1.929,0,0,1-1-.3,1.819,1.819,0,0,1-.8-1.9c.8-3.8.5-6.6-.9-8.5-1.1-1.5-2.8-2.3-5.2-2.6a11.605,11.605,0,0,0-5,.7c-18.3,6.3-30.4-6.6-30.9-7.1-14.8-19.8-13.3-37.3-9.5-48.4a53.129,53.129,0,0,1,11.9-19.7,1.676,1.676,0,0,1,2-.3,1.889,1.889,0,0,1,1.1,1.8c-3.1,52.6,51.2,68.3,51.8,68.4a1.8,1.8,0,0,1,1.2,2.5c-3.1,7.2-13.2,14.8-13.6,15.1A2.016,2.016,0,0,1,781.9,833.9Zm-8.8-17a6.6,6.6,0,0,1,1.4.1c3.4.4,6.1,1.8,7.7,4.1a11.81,11.81,0,0,1,2,6.7c2.6-2.3,6.1-5.7,8.1-9.1-10.1-3.5-52.1-20.8-52.4-66.4-6.7,8.7-19.7,31.5,1.1,59.5.3.3,11,11.5,26.9,6A17.238,17.238,0,0,1,773.1,816.9Z" transform="translate(-671.327 -529.082)"/>
  <path id="Path_96" data-name="Path 96" d="M774.3,818.8a12.792,12.792,0,0,0-5.8.8,27.875,27.875,0,0,1-12.8,1.3h0s-9.5,9.4-8.3,22.6c0,0,21.5,2.9,34.5-11.5C784,821.8,778.4,819.3,774.3,818.8Z" transform="translate(-671.327 -529.082)"/>
  <path id="Path_97" data-name="Path 97" d="M752.2,845.6a29.541,29.541,0,0,1-5.1-.3,1.914,1.914,0,0,1-1.6-1.7c-1.2-13.4,7.8-22.9,8.8-24a1.909,1.909,0,0,1,1.6-.6,25.5,25.5,0,0,0,11.9-1.3,15.707,15.707,0,0,1,6.6-.9h0c3.4.4,6.1,1.8,7.7,4.1,2,2.7,2.5,6.5,1.5,11.3a3.552,3.552,0,0,1-.4.9C773.6,844,759.6,845.6,752.2,845.6Zm-3.1-3.7c4.9.3,20.8.4,31.1-10.6.6-3.5.3-6.2-1-8-1.1-1.5-2.8-2.3-5.2-2.6h0a11.605,11.605,0,0,0-5,.7,29.066,29.066,0,0,1-12.7,1.5C754.6,825,748.9,832.3,749.1,841.9Z" transform="translate(-671.327 -529.082)"/>
  <path id="Path_98" data-name="Path 98" d="M739.5,813s-9.4,21.9,7.9,30.6c0,0-2.4-11.5,8.3-22.6A28.5,28.5,0,0,1,739.5,813Z" transform="translate(-671.327 -529.082)"/>
  <path id="Path_99" data-name="Path 99" d="M747.4,845.4a1.883,1.883,0,0,1-.8-.2c-18.7-9.4-8.8-32.7-8.7-32.9a1.77,1.77,0,0,1,1.4-1.1,1.845,1.845,0,0,1,1.6.5c6.2,6.6,15,7.4,15,7.4a1.721,1.721,0,0,1,1.5,1.2,1.866,1.866,0,0,1-.4,1.9c-9.9,10.2-7.9,20.5-7.9,20.9a1.776,1.776,0,0,1-.7,1.8A1.231,1.231,0,0,1,747.4,845.4Zm-7.1-29.2c-1.6,5.2-4.1,17.2,5,23.9a29.6,29.6,0,0,1,6.9-18A29.64,29.64,0,0,1,740.3,816.2Z" transform="translate(-671.327 -529.082)"/>
  <path id="Path_100" data-name="Path 100" d="M896.5,583.9s5,4.5,7.2,8.3c0,0,15-12.1,20.4-24.1a1.851,1.851,0,0,0-2.3-2.5C916.6,567.6,906.7,572.6,896.5,583.9Z" transform="translate(-671.327 -529.082)"/>
  <path id="Path_101" data-name="Path 101" d="M868.1,699a1.71,1.71,0,0,1-1.8-1.7c0-.4-.4-8.7,8.8-14.3.3-.2,20.4-11.6,22.8-24a1.949,1.949,0,0,1,2.1-1.5,1.887,1.887,0,0,1,1.5,2.1c-2.7,14.1-23.7,26-24.5,26.5-7.3,4.4-6.9,10.9-6.9,10.9a1.736,1.736,0,0,1-1.7,1.9C868.2,699,868.2,699,868.1,699Z" transform="translate(-671.327 -529.082)"/>
  <path id="Path_102" data-name="Path 102" d="M853,694.7c0,3.148-1.254,5.7-2.8,5.7s-2.8-2.552-2.8-5.7,1.254-5.7,2.8-5.7,2.8,2.552,2.8,5.7Z" transform="translate(-671.327 -529.082)"/>
  <path id="Path_103" data-name="Path 103" d="M902.4,640c-.4,4.4-2.9,10.5-12.4,15.7a1.893,1.893,0,0,1-2.8-2c.7-4.7,2.3-12.8,5.5-17.4C895.8,631.9,902.8,634.6,902.4,640Z" transform="translate(-671.327 -529.082)"/>
  <path id="Path_104" data-name="Path 104" d="M861.2,665a2.919,2.919,0,0,1-.9-.2,35.3,35.3,0,0,0-18.4-3.6,1.856,1.856,0,0,1-.3-3.7,37.344,37.344,0,0,1,20.5,4.1,1.816,1.816,0,0,1,.7,2.5A2.2,2.2,0,0,1,861.2,665Z" transform="translate(-671.327 -529.082)"/>
  <path id="Path_105" data-name="Path 105" d="M858.2,671.5a1.929,1.929,0,0,1-1-.3h0c-.1,0-5.4-3.3-15.5-3a1.817,1.817,0,0,1-1.9-1.8,1.88,1.88,0,0,1,1.8-1.9c11.3-.3,17.3,3.4,17.5,3.5a1.808,1.808,0,0,1,.6,2.5A1.583,1.583,0,0,1,858.2,671.5Z" transform="translate(-671.327 -529.082)"/>
  <path id="Path_106" data-name="Path 106" d="M855,677.1a1.953,1.953,0,0,1-.7-.1,37.516,37.516,0,0,0-12.6-2,1.851,1.851,0,1,1-.1-3.7,39.994,39.994,0,0,1,14,2.3,1.843,1.843,0,0,1,1,2.4A1.622,1.622,0,0,1,855,677.1Z" transform="translate(-671.327 -529.082)"/>
  <path id="Path_107" data-name="Path 107" d="M933.3,661.2a44.911,44.911,0,0,0-16.8-14.3s-.5,37.4-45.4,49.6l-2.5.6S861.8,712,841.8,710c-20,2-26.8-12.9-26.8-12.9l-2.5-.6c-44.9-12.2-45.4-49.6-45.4-49.6-10.5,4.9-16.8,14.3-16.8,14.3,13.4,29.7-8.3,86.2-8.3,86.2,27.8-3.7,39.2,14.4,39.2,14.4,24.4,25,39.9,7.9,39.9,7.9,9.1-8.8,15.4-9.1,20.8-9.1s11.7.2,20.8,9.1c0,0,15.5,17.1,39.9-7.9,0,0,11.4-18.1,39.2-14.4C941.6,747.4,919.8,690.8,933.3,661.2Z" transform="translate(-671.327 -529.082)"/>
  <path id="Path_108" data-name="Path 108" d="M876.8,777.2h-.4a22.358,22.358,0,0,1-15.2-6.3c-8.7-8.5-14.7-8.5-19.4-8.5-4.8,0-10.7,0-19.5,8.5a21.346,21.346,0,0,1-15.1,6.2h-.4c-8.7,0-17.8-4.8-26.9-14.2-.1-.1-.2-.2-.2-.3-.4-.7-11.2-17-37.4-13.5a1.9,1.9,0,0,1-1.7-.7,1.939,1.939,0,0,1-.3-1.8c.2-.6,21.4-56.2,8.4-84.8a1.92,1.92,0,0,1,.1-1.8c.3-.4,6.7-9.9,17.5-15a1.711,1.711,0,0,1,1.7.1,1.859,1.859,0,0,1,.9,1.5c0,1.5,1.1,36.2,44,47.9l2.5.6a1.722,1.722,0,0,1,1.2,1c.3.6,6.5,13.7,25,11.9h.4c18.4,1.8,24.7-11.3,25-11.9a1.722,1.722,0,0,1,1.2-1l2.5-.6c18.1-4.9,31-14.5,38.4-28.5a47.734,47.734,0,0,0,5.7-19.4,1.65,1.65,0,0,1,.9-1.5,1.726,1.726,0,0,1,1.7-.1,46.081,46.081,0,0,1,17.5,15,1.669,1.669,0,0,1,.1,1.8c-13,28.6,8.2,84.2,8.4,84.8a1.939,1.939,0,0,1-.3,1.8,1.809,1.809,0,0,1-1.7.7c-26.2-3.5-37,12.8-37.4,13.5-.1.1-.1.2-.2.3C894.6,772.4,885.5,777.2,876.8,777.2Zm-35.1-18.5c6.4,0,12.9.7,22.1,9.6a18.686,18.686,0,0,0,12.7,5.2c7.7.2,16-4.2,24.5-12.9,1.3-2,12.5-17.5,37.9-15.4-4.2-11.8-18.9-57.1-7.7-83.8a45.177,45.177,0,0,0-13.1-11.7c-1.2,9.2-8.1,38.1-46.5,48.5l-1.8.4c-1.9,3.2-9.9,14.9-28.1,13.2-18.2,1.7-26.2-10-28.1-13.2l-1.7-.4c-38.4-10.4-45.3-39.3-46.5-48.5a43.8,43.8,0,0,0-13.1,11.7c11.2,26.7-3.5,72-7.7,83.8,25.4-2.2,36.6,13.4,37.9,15.4,8.4,8.6,16.5,12.9,24.2,12.9h.3a19.381,19.381,0,0,0,12.7-5.1C828.8,759.5,835.3,758.7,841.7,758.7Z" transform="translate(-671.327 -529.082)"/>
  <path id="Path_109" data-name="Path 109" d="M941.6,747.4c-27.8-3.7-39.2,14.4-39.2,14.4-24.4,25-39.9,7.9-39.9,7.9-9.1-8.8-15.4-9.1-20.8-9.1s-11.7.2-20.8,9.1c0,0-15.5,17.1-39.9-7.9,0,0-11.4-18.1-39.2-14.4,0,0-9.3,75.5,99.9,76.9C950.9,822.9,941.6,747.4,941.6,747.4Z" transform="translate(-671.327 -529.082)"/>
  <path id="Path_110" data-name="Path 110" d="M841.7,826.1c-39.6-.5-68.4-10.7-85.5-30.3-19.3-22-16.4-47.6-16.2-48.7a1.807,1.807,0,0,1,1.6-1.6c27.5-3.7,39.5,13,40.9,15,8.5,8.7,16.8,13.1,24.5,12.9a18.656,18.656,0,0,0,12.6-5.1c9.2-8.9,15.7-9.7,22.2-9.7s12.9.7,22.1,9.6a18.686,18.686,0,0,0,12.7,5.2c7.7.2,16-4.2,24.5-12.9,1.4-2,13.4-18.7,40.9-15a1.91,1.91,0,0,1,1.6,1.6,67.092,67.092,0,0,1-16.2,48.7C910.1,815.5,881.3,825.6,841.7,826.1ZM743.6,749c-.3,5.6-.2,26.6,15.5,44.5,16.4,18.7,44.2,28.5,82.7,29,38.4-.5,66.3-10.2,82.6-29,15.7-17.9,15.8-38.9,15.5-44.5-25.3-2.7-35.8,13.5-35.9,13.7-.1.1-.1.2-.2.3-9.3,9.5-18.5,14.4-27.3,14.2a22.358,22.358,0,0,1-15.2-6.3c-8.7-8.5-14.7-8.5-19.4-8.5-4.8,0-10.7,0-19.5,8.5a21.346,21.346,0,0,1-15.1,6.2h-.4c-8.7,0-17.8-4.8-26.9-14.2-.1-.1-.2-.2-.2-.3C779.1,762,768.7,746.3,743.6,749Z" transform="translate(-671.327 -529.082)"/>
  <path id="Path_111" data-name="Path 111" d="M933.3,661.2s46.8,38.4,37.1,85.7c0,0-6,18.1-28.7.5C941.6,747.4,919.5,690.5,933.3,661.2Z" transform="translate(-671.327 -529.082)"/>
  <path id="Path_112" data-name="Path 112" d="M958.9,756.9c-5.3,0-11.5-2.7-18.4-8.1a1.555,1.555,0,0,1-.6-.8c-.9-2.4-22.3-58-8.3-87.6a1.7,1.7,0,0,1,1.3-1,1.875,1.875,0,0,1,1.6.4c.5.4,47.6,39.6,37.7,87.5a14.657,14.657,0,0,1-9.1,9.1A20.079,20.079,0,0,1,958.9,756.9Zm-15.8-10.7c7.5,5.7,14,8,18.8,6.6,4.9-1.5,6.7-6.5,6.7-6.5,8.2-40.1-26.2-74.3-34.7-82.1C923.3,691.7,941.1,740.9,943.1,746.2Z" transform="translate(-671.327 -529.082)"/>
  <path id="Path_113" data-name="Path 113" d="M941.6,747.4s29.8,28.7,2.3,65.6c0,0-11.6,12.6-29,6.6a14.326,14.326,0,0,0-5.8-.8c-4.1.5-9.7,2.9-7.7,13.2,0,0-10.1-7.6-13-14.4C888.5,817.7,944.8,802.1,941.6,747.4Z" transform="translate(-671.327 -529.082)"/>
  <path id="Path_114" data-name="Path 114" d="M901.5,833.9a1.5,1.5,0,0,1-1.1-.4c-.4-.3-10.5-8-13.6-15.1a1.95,1.95,0,0,1,0-1.5,2,2,0,0,1,1.2-1c2.2-.6,54.9-15.9,51.8-68.4a1.889,1.889,0,0,1,1.1-1.8,1.814,1.814,0,0,1,2,.3c.3.3,30.6,30.3,2.5,68-.6.7-12.8,13.6-31,7.3a11.606,11.606,0,0,0-5-.7,7.442,7.442,0,0,0-5.2,2.6c-1.3,1.8-1.6,4.7-.9,8.5a1.819,1.819,0,0,1-.8,1.9A1.929,1.929,0,0,1,901.5,833.9Zm-10.4-15.2a44.638,44.638,0,0,0,8.1,9.1,11.1,11.1,0,0,1,2-6.7,10.683,10.683,0,0,1,7.7-4.1,14.419,14.419,0,0,1,6.6.9c16,5.5,26.6-5.7,27.1-6.2,10.9-14.6,13.9-29.7,8.7-44.8a52.91,52.91,0,0,0-7.8-14.5C943.2,797.9,901.2,815.3,891.1,818.7Z" transform="translate(-671.327 -529.082)"/>
  <path id="Path_115" data-name="Path 115" d="M909.2,818.8a12.792,12.792,0,0,1,5.8.8,27.875,27.875,0,0,0,12.8,1.3h0s9.5,9.4,8.3,22.6c0,0-21.5,2.9-34.5-11.5C899.4,821.8,905.1,819.3,909.2,818.8Z" transform="translate(-671.327 -529.082)"/>
  <path id="Path_116" data-name="Path 116" d="M931.2,845.6c-7.4,0-21.4-1.6-31.1-12.3a1.268,1.268,0,0,1-.4-.9c-1-4.8-.5-8.6,1.5-11.3a10.683,10.683,0,0,1,7.7-4.1h0a14.419,14.419,0,0,1,6.6.9,25.779,25.779,0,0,0,11.9,1.3,1.9,1.9,0,0,1,1.7.7c1.2,1.3,9.9,10.7,8.7,23.9a1.909,1.909,0,0,1-1.6,1.7C936,845.4,934.1,845.6,931.2,845.6Zm-28-14.4c10.3,11,26.2,10.9,31.1,10.6.2-9.6-5.5-16.9-7.3-19a30.165,30.165,0,0,1-12.6-1.5,11.606,11.606,0,0,0-5-.7h0a7.442,7.442,0,0,0-5.2,2.6C902.9,825,902.6,827.7,903.2,831.2Zm6-12.4Z" transform="translate(-671.327 -529.082)"/>
  <path id="Path_117" data-name="Path 117" d="M943.9,813s9.4,21.9-7.9,30.6c0,0,2.4-11.5-8.3-22.6A28.5,28.5,0,0,0,943.9,813Z" transform="translate(-671.327 -529.082)"/>
  <path id="Path_118" data-name="Path 118" d="M936,845.4a1.5,1.5,0,0,1-1.1-.4,1.776,1.776,0,0,1-.7-1.8c.1-.4,2-10.7-7.9-20.9a1.866,1.866,0,0,1-.4-1.9,1.722,1.722,0,0,1,1.5-1.2c.1,0,8.9-.9,15-7.4a1.845,1.845,0,0,1,1.6-.5,1.934,1.934,0,0,1,1.4,1.1c.1.2,9.9,23.6-8.7,32.9A5.62,5.62,0,0,1,936,845.4Zm-4.8-23.2a29.4,29.4,0,0,1,6.9,18c9.1-6.8,6.7-18.7,5-23.9A31.835,31.835,0,0,1,931.2,822.2Z" transform="translate(-671.327 -529.082)"/>
</svg>
