<svg id="_5" data-name="5" xmlns="http://www.w3.org/2000/svg" width="350" height="351.498" viewBox="0 0 350 351.498">
  <rect id="ee-background" width="350" height="350" fill="none"/>
  <path id="Path_119" data-name="Path 119" d="M1071.9,367.5a6.348,6.348,0,0,0-2.2,3.2c-.7,2.2,0,4.6,1.9,7.2a16.559,16.559,0,0,0,7.5,5.3c8.9,3.2,30.8,12.5,44,30.6a83.6,83.6,0,0,0,12.8,23.1,65.746,65.746,0,0,0,6.1,6.8c-3.8,2.4-11.2,8.3-11.9,18.1a17.725,17.725,0,0,0,6.9,15.1l.2.2a18.786,18.786,0,0,0,6,3,45.541,45.541,0,0,0,10.9,1.5h1.2c.9,0,1.9,0,2.9-.1.8,0,19.9-1.4,26.4-16.8a128.024,128.024,0,0,0,17,1.9h.5l.1-1.8.2,1.8h.4a128.024,128.024,0,0,0,17-1.9c6.5,15.4,25.6,16.8,26.5,16.8,1,0,1.9.1,2.9.1h1.2a44.832,44.832,0,0,0,10.9-1.5,18.786,18.786,0,0,0,6-3c.1-.1.2-.1.2-.2a17.725,17.725,0,0,0,6.9-15.1c-.7-9.8-8.1-15.7-11.9-18.1a65.75,65.75,0,0,0,6.1-6.8,82.2,82.2,0,0,0,12.8-23.1c13.2-18.1,35.2-27.4,44-30.6a15.846,15.846,0,0,0,7.5-5.3c1.9-2.5,2.6-5,1.9-7.2a6.816,6.816,0,0,0-2.2-3.2c4-3.3,6.3-6.9,6.8-10.7a13.73,13.73,0,0,0-2.5-9.6c-14.6-28.2-58.5-52.4-63.8-55.2-9.3-19.9-21.3-32.4-32.8-40.2l25.3-59.1s8.4-19.6,4.3-35.7c-4.5-17.6-27-23.1-38.3-8.8-3.6,4.5-6.8,11.2-8.7,21a85.1,85.1,0,0,0-1.4,11.3l-3.1,61.1a62.914,62.914,0,0,0-16.3-2.7,60.664,60.664,0,0,0-16.3,2.5l-3.1-61a71.213,71.213,0,0,0-1.4-11.3c-1.9-9.7-5.1-16.4-8.7-21-11.3-14.3-33.8-8.8-38.3,8.8-4.1,16.2,4.3,35.7,4.3,35.7l25.2,59a1,1,0,0,0-.5.4q-20.4,14.1-32.3,40.1c-6,3.3-49.2,27.2-63.6,55.1a13.228,13.228,0,0,0-2.5,9.6C1065.6,360.6,1067.9,364.2,1071.9,367.5Z" transform="translate(-1020 -130.102)"/>
  <g id="Group_17" data-name="Group 17" transform="translate(-1020 -130.102)">
    <path id="Path_120" data-name="Path 120" d="M1277.9,336.1C1263.8,235.8,1199.1,235,1195,235c-4.2-.1-68.8.7-82.9,101.1,0,0-22.6,118.7,82.7,122.9h.4C1300.5,454.8,1277.9,336.1,1277.9,336.1Z"/>
    <path id="Path_121" data-name="Path 121" d="M1194.8,460.9h-.4c-29-1.2-51.2-11.2-65.9-29.7-15.2-19.2-19.4-44.1-20.2-61.6a157.075,157.075,0,0,1,1.9-33.7c6-42.3,21.4-72.4,46-89.4,19-13.1,36.8-13.3,38.8-13.2,2.8,0,70.3.2,84.7,102.6a163.3,163.3,0,0,1,1.9,33.7c-.8,17.5-5,42.5-20.2,61.6-14.7,18.5-36.8,28.5-65.9,29.7h-.4l-.2-1.8-.1,1.8Zm.4-1.9Zm-.4-222.2c-4.6,0-67.2,1.8-81,99.5-.1.7-10.5,57.2,17.6,92.5,14,17.7,35.4,27.2,63.4,28.3h.2c28.1-1.1,49.4-10.7,63.4-28.3,28-35.3,17.7-91.8,17.6-92.4v-.1c-5.8-41.4-20.8-70.6-44.4-86.9-18-12.4-34.8-12.6-36.7-12.6Z"/>
  </g>
  <path id="Path_122" data-name="Path 122" d="M1125.4,287.7s-48.6,25.6-63.5,54.8c0,0-8.2,9.7,6,19.5,0,0-7.2,2.5-2.1,9.1a14.874,14.874,0,0,0,6.6,4.7c8.2,2.9,31.3,12.5,45,31.3C1117.3,407.1,1096.2,360.9,1125.4,287.7Z" transform="translate(-1020 -130.102)"/>
  <path id="Path_123" data-name="Path 123" d="M1117.3,408.9a1.9,1.9,0,0,1-1.5-.8c-13.2-18.1-35.2-27.5-44.1-30.7a15.846,15.846,0,0,1-7.5-5.3c-1.9-2.5-2.6-5-1.9-7.2a6.816,6.816,0,0,1,2.2-3.2c-4-3.3-6.3-6.9-6.8-10.7a13.73,13.73,0,0,1,2.5-9.6c15.2-29.3,62.2-54.4,64.2-55.4a1.682,1.682,0,0,1,2.1.3,1.71,1.71,0,0,1,.5,2c-14.9,37.4-16.3,67.4-14.9,86.1,1.6,20.2,6.7,31.7,6.8,31.8a1.73,1.73,0,0,1-.7,2.3A1.221,1.221,0,0,1,1117.3,408.9Zm4.5-117.1c-12.2,7-46.4,28.3-58.4,51.5-.1.1-.1.2-.2.3a10.139,10.139,0,0,0-1.9,7c.5,3.5,3,6.8,7.5,9.8a1.841,1.841,0,0,1,.8,1.8,1.881,1.881,0,0,1-1.2,1.5,4.533,4.533,0,0,0-2.6,2.4c-.4,1.3.5,2.8,1.3,3.9a12.149,12.149,0,0,0,5.8,4c7.9,2.8,25.9,10.4,39.6,24.5a130.126,130.126,0,0,1-3.9-23.6C1107.1,356.7,1108.4,327.7,1121.8,291.8Z" transform="translate(-1020 -130.102)"/>
  <path id="Path_124" data-name="Path 124" d="M1157.5,247.7l-26-60.7s-8.4-19.6-4.3-35.7c4.5-17.6,27-23.1,38.3-8.8,3.6,4.5,6.8,11.2,8.7,21a85.1,85.1,0,0,1,1.4,11.3l3.2,62.8S1165.4,241.6,1157.5,247.7Z" transform="translate(-1020 -130.102)"/>
  <path id="Path_125" data-name="Path 125" d="M1162.7,244.3l-19.4-50s-10.7-24.7,4.2-32.6c0,0,17.4-7.6,21.4,25.6l5.5,51.7A58.577,58.577,0,0,0,1162.7,244.3Z" transform="translate(-1020 -130.102)"/>
  <path id="Path_126" data-name="Path 126" d="M1162.7,246.2a1.268,1.268,0,0,1-.6-.1,1.981,1.981,0,0,1-1.1-1.1l-19.4-50c-.4-1-11.1-26.3,5.1-34.9a13.762,13.762,0,0,1,11.9.9c6.4,3.7,10.5,12.5,12.1,26.1l5.5,51.8a1.956,1.956,0,0,1-1.3,2,47.69,47.69,0,0,0-11.2,5A1.689,1.689,0,0,1,1162.7,246.2Zm-11-83.3a9.433,9.433,0,0,0-3.4.6c-13.1,6.9-3.4,30-3.3,30.2l18.7,48a50.142,50.142,0,0,1,8.8-3.8l-5.4-50.2c-1.5-12.2-5-20.3-10.3-23.3A9.175,9.175,0,0,0,1151.7,162.9Z" transform="translate(-1020 -130.102)"/>
  <path id="Path_127" data-name="Path 127" d="M1179.9,261.5a6.3,6.3,0,1,1-6.3-6.3A6.3,6.3,0,0,1,1179.9,261.5Z" transform="translate(-1020 -130.102)"/>
  <path id="Path_128" data-name="Path 128" d="M1072.3,364.4a16.907,16.907,0,0,1-5.1-.7,1.834,1.834,0,0,1,1.1-3.5c.1,0,5.9,1.7,9.9-1.2,2.5-1.9,3.9-5.3,3.9-10.2a1.793,1.793,0,0,1,1.8-1.8h0a1.817,1.817,0,0,1,1.8,1.9c-.1,6.1-1.9,10.6-5.5,13.1A12.63,12.63,0,0,1,1072.3,364.4Z" transform="translate(-1020 -130.102)"/>
  <path id="Path_129" data-name="Path 129" d="M1072.8,377.6h-.7a1.811,1.811,0,0,1,.4-3.6,7.307,7.307,0,0,0,5-1.7c1.6-1.5,2.3-4,2.2-7.5a1.8,1.8,0,1,1,3.6-.2c.2,4.6-.9,8-3.3,10.3A10.766,10.766,0,0,1,1072.8,377.6Z" transform="translate(-1020 -130.102)"/>
  <path id="Path_130" data-name="Path 130" d="M1137.7,438.3s-12.3,5.8-13.1,17.9a16.039,16.039,0,0,0,11.8,16.3,45.718,45.718,0,0,0,14.5,1.4s19.8-1.2,25.4-17C1176.3,456.9,1153.1,452.6,1137.7,438.3Z" transform="translate(-1020 -130.102)"/>
  <path id="Path_131" data-name="Path 131" d="M1148.1,475.8a45.793,45.793,0,0,1-12.2-1.5,18.005,18.005,0,0,1-13.2-18.2c.9-13,13.6-19.2,14.2-19.4a1.814,1.814,0,0,1,2,.3c14.9,13.8,37.4,18.1,37.7,18.2a1.964,1.964,0,0,1,1.3.9,1.6,1.6,0,0,1,.1,1.5c-5.9,16.8-26.1,18.2-27,18.3A28.109,28.109,0,0,0,1148.1,475.8Zm-10.7-35.3c-2.8,1.7-10.4,6.9-11,15.8-.5,6.5,4,12.6,10.5,14.5a43.291,43.291,0,0,0,13.9,1.3c.2,0,17-1.2,22.9-13.9C1167.7,456.8,1150.4,452,1137.4,440.5Z" transform="translate(-1020 -130.102)"/>
  <path id="Path_132" data-name="Path 132" d="M1130.9,471.6a1.808,1.808,0,0,1-1.8-1.4c-.1-.5-3.3-13.1,8.7-22.9a1.851,1.851,0,1,1,2.3,2.9c-10.2,8.3-7.5,19-7.5,19.1a1.712,1.712,0,0,1-1.3,2.2A.6.6,0,0,1,1130.9,471.6Z" transform="translate(-1020 -130.102)"/>
  <path id="Path_133" data-name="Path 133" d="M1147,475.8a1.921,1.921,0,0,1-1.8-1.4c-.1-.5-2.8-12.5,5.1-20.4a1.838,1.838,0,0,1,2.6,2.6c-6.5,6.5-4.2,16.9-4.1,17a1.842,1.842,0,0,1-1.4,2.2Z" transform="translate(-1020 -130.102)"/>
  <path id="Path_134" data-name="Path 134" d="M1182.4,286.9h-.3a1.81,1.81,0,0,1-1.5-2.1c.1-.4,1.6-9,14.5-10.2a1.811,1.811,0,0,1,.4,3.6c-9.9,1-11.2,6.9-11.2,7.2A2.109,2.109,0,0,1,1182.4,286.9Z" transform="translate(-1020 -130.102)"/>
  <path id="Path_135" data-name="Path 135" d="M1264.6,287.7s48.6,25.6,63.5,54.8c0,0,8.2,9.7-6,19.5,0,0,7.2,2.5,2.1,9.1a14.874,14.874,0,0,1-6.6,4.7c-8.2,2.9-31.3,12.5-45,31.3C1272.7,407.1,1293.8,360.9,1264.6,287.7Z" transform="translate(-1020 -130.102)"/>
  <path id="Path_136" data-name="Path 136" d="M1272.7,408.9a1.613,1.613,0,0,1-.9-.3,1.791,1.791,0,0,1-.7-2.3c.2-.5,20.4-46.4-8.1-117.9a1.71,1.71,0,0,1,.5-2,2.012,2.012,0,0,1,2.1-.3c2,1.1,49.1,26.1,64.2,55.4a13.228,13.228,0,0,1,2.5,9.6c-.5,3.9-2.8,7.5-6.8,10.7a6.348,6.348,0,0,1,2.2,3.2c.7,2.2,0,4.6-1.9,7.2a16.559,16.559,0,0,1-7.5,5.3c-8.9,3.2-30.9,12.5-44.1,30.7A2.329,2.329,0,0,1,1272.7,408.9Zm-4.6-117.1c13.5,35.9,14.7,64.9,13.3,83.2a131.722,131.722,0,0,1-3.9,23.6c13.7-14.1,31.7-21.7,39.6-24.5a13.7,13.7,0,0,0,5.8-4c.8-1.1,1.7-2.6,1.3-3.9s-2-2.1-2.6-2.4a1.881,1.881,0,0,1-1.2-1.5,1.614,1.614,0,0,1,.8-1.7c4.5-3.1,7-6.4,7.5-9.8a9.332,9.332,0,0,0-1.9-7c-.1-.1-.2-.2-.2-.3C1314.6,320.1,1280.3,298.9,1268.1,291.8Z" transform="translate(-1020 -130.102)"/>
  <path id="Path_137" data-name="Path 137" d="M1232.5,247.7l26-60.7s8.4-19.6,4.3-35.7c-4.5-17.6-27-23.1-38.3-8.8-3.6,4.5-6.8,11.2-8.7,21a85.1,85.1,0,0,0-1.4,11.3l-3.2,62.8S1224.6,241.6,1232.5,247.7Z" transform="translate(-1020 -130.102)"/>
  <path id="Path_138" data-name="Path 138" d="M1227.2,244.3l19.4-50s10.7-24.7-4.2-32.6c0,0-17.4-7.6-21.4,25.6l-5.5,51.7C1215.5,239.1,1222,240.9,1227.2,244.3Z" transform="translate(-1020 -130.102)"/>
  <path id="Path_139" data-name="Path 139" d="M1227.2,246.2a1.689,1.689,0,0,1-1-.3,47.69,47.69,0,0,0-11.2-5,1.783,1.783,0,0,1-1.3-2l5.5-51.7c1.6-13.7,5.7-22.4,12.1-26.1a13.856,13.856,0,0,1,11.8-.9c16.3,8.6,5.6,33.9,5.2,35l-19.4,49.9a1.981,1.981,0,0,1-1.1,1.1C1227.6,246.1,1227.4,246.2,1227.2,246.2Zm-9.7-8.4a50.14,50.14,0,0,1,8.8,3.8l18.6-47.9c.1-.3,9.9-23.3-3.4-30.3a10.1,10.1,0,0,0-8.4.8c-5.3,3.1-8.8,11.1-10.2,23.3Z" transform="translate(-1020 -130.102)"/>
  <path id="Path_140" data-name="Path 140" d="M1222.7,261.5a6.3,6.3,0,1,1-6.3-6.3,6.3,6.3,0,0,1,6.3,6.3Z" transform="translate(-1020 -130.102)"/>
  <path id="Path_141" data-name="Path 141" d="M1317.6,364.4a13.562,13.562,0,0,1-8.1-2.4c-3.5-2.6-5.4-7-5.5-13.1a1.851,1.851,0,0,1,3.7-.1c.1,4.9,1.4,8.4,4,10.2,4,2.9,9.8,1.2,9.9,1.2a1.876,1.876,0,0,1,2.3,1.2,1.8,1.8,0,0,1-1.2,2.3A16.913,16.913,0,0,1,1317.6,364.4Z" transform="translate(-1020 -130.102)"/>
  <path id="Path_142" data-name="Path 142" d="M1317.1,377.6a10.765,10.765,0,0,1-7.2-2.7c-2.4-2.3-3.5-5.8-3.3-10.3a1.8,1.8,0,1,1,3.6.2c-.2,3.4.6,6,2.2,7.5a6.774,6.774,0,0,0,5,1.7,1.883,1.883,0,0,1,2,1.7,1.805,1.805,0,0,1-1.6,2C1317.8,377.6,1317.5,377.6,1317.1,377.6Z" transform="translate(-1020 -130.102)"/>
  <path id="Path_143" data-name="Path 143" d="M1252.3,438.3s12.3,5.8,13.1,17.9a16.039,16.039,0,0,1-11.8,16.3,45.718,45.718,0,0,1-14.5,1.4s-19.8-1.2-25.4-17C1213.7,456.9,1236.8,452.6,1252.3,438.3Z" transform="translate(-1020 -130.102)"/>
  <path id="Path_144" data-name="Path 144" d="M1241.8,475.8c-.9,0-1.9,0-2.9-.1-.9-.1-21.2-1.5-27-18.3a1.931,1.931,0,0,1,.1-1.5,1.761,1.761,0,0,1,1.3-.9c.2,0,22.8-4.3,37.7-18.2a1.843,1.843,0,0,1,2-.3c.5.3,13.3,6.4,14.2,19.4a17.9,17.9,0,0,1-13.2,18.2A38.7,38.7,0,0,1,1241.8,475.8Zm-25.6-17.6c5.9,12.7,22.8,13.9,23,13.9a46.316,46.316,0,0,0,13.9-1.3,14.257,14.257,0,0,0,10.5-14.5c-.6-8.9-8.2-14.1-11-15.8C1239.6,452,1222.3,456.8,1216.2,458.2Z" transform="translate(-1020 -130.102)"/>
  <path id="Path_145" data-name="Path 145" d="M1259.1,471.6a.9.9,0,0,1-.5-.1,1.793,1.793,0,0,1-1.3-2.2c.1-.5,2.6-10.9-7.5-19.1a1.851,1.851,0,1,1,2.3-2.9c12,9.8,8.8,22.3,8.7,22.9A1.7,1.7,0,0,1,1259.1,471.6Z" transform="translate(-1020 -130.102)"/>
  <path id="Path_146" data-name="Path 146" d="M1243,475.8h-.4a1.842,1.842,0,0,1-1.4-2.2c0-.1,2.3-10.6-4.1-17a1.838,1.838,0,0,1,2.6-2.6c7.9,7.9,5.2,19.9,5.1,20.4A1.921,1.921,0,0,1,1243,475.8Z" transform="translate(-1020 -130.102)"/>
  <path id="Path_147" data-name="Path 147" d="M1207.6,287a1.819,1.819,0,0,1-1.8-1.5c-.1-.3-1.3-6.2-11.2-7.2a1.805,1.805,0,0,1-1.6-2,1.739,1.739,0,0,1,2-1.6c12.9,1.2,14.4,9.9,14.5,10.2a1.81,1.81,0,0,1-1.5,2.1C1207.8,286.9,1207.7,287,1207.6,287Z" transform="translate(-1020 -130.102)"/>
  <path id="Path_148" data-name="Path 148" d="M1259.1,381.9c0,38.273-28.788,69.3-64.3,69.3s-64.3-31.027-64.3-69.3,28.788-69.3,64.3-69.3,64.3,31.027,64.3,69.3Z" transform="translate(-1020 -130.102)"/>
  <path id="Path_149" data-name="Path 149" d="M1194.8,453c-36.5,0-66.1-31.9-66.1-71.1s29.7-71.1,66.1-71.1,66.1,31.9,66.1,71.1S1231.2,453,1194.8,453Zm0-138.6c-34.4,0-62.5,30.3-62.5,67.5s28,67.5,62.5,67.5,62.5-30.3,62.5-67.5S1229.2,314.4,1194.8,314.4Z" transform="translate(-1020 -130.102)"/>
  <path id="Path_150" data-name="Path 150" d="M1228.9,390.7c0,25.239-15.267,45.7-34.1,45.7s-34.1-20.461-34.1-45.7,15.267-45.7,34.1-45.7S1228.9,365.461,1228.9,390.7Z" transform="translate(-1020 -130.102)"/>
  <path id="Path_151" data-name="Path 151" d="M1194.8,438.2c-19.8,0-36-21.3-36-47.5s16.1-47.5,36-47.5c19.8,0,36,21.3,36,47.5C1230.7,416.9,1214.6,438.2,1194.8,438.2Zm0-91.3c-17.8,0-32.3,19.7-32.3,43.8s14.5,43.8,32.3,43.8,32.3-19.7,32.3-43.8S1212.6,346.9,1194.8,346.9Z" transform="translate(-1020 -130.102)"/>
</svg>
