<svg xmlns="http://www.w3.org/2000/svg" width="359.416" height="350" viewBox="0 0 359.416 350">
  <g id="_6" data-name="6" transform="translate(2.843)">
    <rect id="ee-background" width="350" height="350" fill="none"/>
    <path id="Path_152" data-name="Path 152" d="M1378.3,659.6c.3-4.8-7.8-7.4-9.4-7.8l-19.3-5.8a41.152,41.152,0,0,0,20.8-10.2,14,14,0,0,0,4.3-7.5c.6-3.4-.5-5.3-1.5-6.4-2.9-3-8.2-2.2-8.7-2.1-49.6,5.2-91.5-8.5-91.9-8.6h-.1c-17.5-17.5-40.4-30.6-70.2-31.6-29.7,1-52.7,14.1-70.1,31.6h0c-.4.1-42.3,13.8-91.8,8.7-.6-.1-5.9-.9-8.8,2.1-1,1.1-2.2,3-1.5,6.4a13.4,13.4,0,0,0,4.3,7.5,41.123,41.123,0,0,0,20.9,10.2l-19.4,5.8c-1.6.5-9.7,3.1-9.4,7.8.2,3.1,3.2,7,23.6,11.2-3.4,1.8-7.3,4.6-8.2,8a6.375,6.375,0,0,0,1.6,6c.6.8,3.6,4.7,10.5,5.9a21.194,21.194,0,0,0,4.4.4c9.1,0,20.2-4.5,33.1-13.4a224.64,224.64,0,0,0-8.9,28.5c-7.5,42.6,2.9,71.9,12.9,88.9a107.325,107.325,0,0,0,8.4,12.2c-26.2,28.8-26.3,36.7-23.4,40.3,1,1.2,2.6,2.4,6.3,2.4,4.4,0,11.7-1.7,24.2-7.1,10.1-4.3,19.7-9.5,22.7-11,14,7.4,29.5,11,42.2,12.6,7.4,4.1,16.3,6.4,26.8,6.8,10.4-.4,19.2-2.6,26.6-6.7,12.8-1.7,28.3-5.2,42.3-12.6,2.9,1.6,12.6,6.7,22.7,11,12.5,5.4,19.8,7.1,24.2,7.1,3.7,0,5.3-1.2,6.3-2.4,2.9-3.6,2.7-11.5-23.4-40.3a111.451,111.451,0,0,0,8.4-12.2c10-17.1,20.3-46.4,12.9-88.9v-.1a213.411,213.411,0,0,0-8.8-28.5c12.9,8.9,24,13.4,33.1,13.4a21.189,21.189,0,0,0,4.4-.4c6.9-1.2,9.9-5.1,10.5-5.9a6.375,6.375,0,0,0,1.6-6c-.9-3.4-4.8-6.2-8.3-8C1375.2,666.7,1378.2,662.7,1378.3,659.6Z" transform="translate(-1021.735 -525.612)"/>
    <g id="Group_18" data-name="Group 18" transform="translate(-1021.735 -525.612)">
      <path id="Path_153" data-name="Path 153" d="M1313.1,700.8S1287.7,578.7,1195,575.7c-92.7,3-118.1,125.1-118.1,125.1-14.3,81.4,36,114.4,36,114.4,30.7,26.1,82.1,23.1,82.1,23.1s51.4,3,82.1-23.1C1277,815.2,1327.3,782.2,1313.1,700.8Z"/>
      <path id="Path_154" data-name="Path 154" d="M1200.4,840.3c-3.1,0-5.1-.1-5.5-.1-1.9.1-52.2,2.7-83.2-23.6-.3-.2-12.9-8.6-23.8-27.1-10-17.1-20.3-46.4-12.9-88.9.3-1.3,26.8-123.6,119.8-126.7,93.1,3,119.7,125.4,119.9,126.6v.1c7.5,42.6-2.9,71.9-12.9,88.9-10.9,18.6-23.4,26.9-23.9,27.3C1252.9,838.2,1214.6,840.3,1200.4,840.3Zm-5.5-262.8c-90.1,2.9-116,122.5-116.2,123.7-7.3,41.3,2.7,69.7,12.3,86.2,10.4,17.9,22.8,26.2,22.9,26.2,30,25.5,80.5,22.9,81,22.8.7,0,51.2,2.6,81-22.7.7-.5,49.3-33.5,35.4-112.6C1310.8,698.9,1284.6,580.4,1194.9,577.5Z"/>
    </g>
    <path id="Path_155" data-name="Path 155" d="M1263.9,824.2s97.1,53.7,27.3-22.5C1291.2,801.7,1282.7,813.4,1263.9,824.2Z" transform="translate(-1021.735 -525.612)"/>
    <path id="Path_156" data-name="Path 156" d="M1310.8,844.4c-4.4,0-11.7-1.7-24.2-7.1-12.1-5.2-23.5-11.5-23.6-11.5a1.7,1.7,0,0,1-.9-1.6,1.893,1.893,0,0,1,.9-1.6c18.2-10.4,26.7-21.8,26.8-22a1.856,1.856,0,0,1,2.9-.2c27.3,29.8,27.4,37.8,24.5,41.5C1316.1,843.2,1314.5,844.4,1310.8,844.4Zm-43.2-20.3c20.4,11,43.3,19.8,46.6,15.6,1-1.3,2.2-7.5-22.9-35.2C1288.4,808,1280.8,816.1,1267.6,824.1Z" transform="translate(-1021.735 -525.612)"/>
    <path id="Path_157" data-name="Path 157" d="M1264.6,607.2s42.1,14,92.7,8.7c0,0,9.7-1.6,8.3,6.3a12.223,12.223,0,0,1-3.7,6.5c-4.1,3.9-13.9,10.9-29.4,10.5,0,0-17.3-2.4-54.2-16C1278.2,623.2,1271.1,613.3,1264.6,607.2Z" transform="translate(-1021.735 -525.612)"/>
    <path id="Path_158" data-name="Path 158" d="M1333.6,641.1h-1.3c-.9-.1-18.1-2.6-54.8-16.1a4.7,4.7,0,0,1-.9-.6c-.1-.1-7.1-9.9-13.4-15.8a1.815,1.815,0,0,1-.3-2.3,1.765,1.765,0,0,1,2.1-.8c.4.1,42.4,13.8,91.9,8.6.5-.1,5.8-.9,8.7,2.1,1,1.1,2.2,3,1.5,6.4a13.4,13.4,0,0,1-4.3,7.5C1358.6,634.2,1348.9,641.1,1333.6,641.1Zm-54.2-19.4c35.9,13.2,53.1,15.7,53.3,15.7,14.5.4,23.8-6.1,27.9-10a10.423,10.423,0,0,0,3.2-5.5c.4-2.2-.3-2.9-.5-3.1-1.3-1.4-4.6-1.2-5.6-1-38.8,4.1-73.1-3.2-87-6.9C1274.7,615.5,1278.3,620.2,1279.4,621.7Z" transform="translate(-1021.735 -525.612)"/>
    <path id="Path_159" data-name="Path 159" d="M1332.4,639.2l28.7,8.6s27.9,8.1-19.8,16.6c0,0-23.3-7.4-52.6-25.2,0,0-7-11.4-10.5-16C1278.2,623.2,1316.6,637.5,1332.4,639.2Z" transform="translate(-1021.735 -525.612)"/>
    <path id="Path_160" data-name="Path 160" d="M1341.3,666.3a1.269,1.269,0,0,1-.6-.1c-.2-.1-23.9-7.7-53-25.4-.2-.2-.5-.4-.6-.6-.1-.1-6.9-11.4-10.4-15.9a1.8,1.8,0,0,1,0-2.2,1.719,1.719,0,0,1,2.1-.6c.4.1,38.3,14.2,53.7,15.9a.368.368,0,0,1,.3.1l28.7,8.6c1.6.5,9.7,3.1,9.4,7.8-.2,3.3-3.7,7.7-29.4,12.3C1341.5,666.3,1341.4,666.3,1341.3,666.3ZM1290,637.9c26.5,16.1,48.2,23.6,51.4,24.7,25-4.5,25.9-8.4,25.9-8.8.1-1.1-3.2-3.1-6.8-4.1L1332,641c-12.5-1.4-37.8-10.1-49-14.1C1285.9,631.3,1289.1,636.5,1290,637.9Z" transform="translate(-1021.735 -525.612)"/>
    <path id="Path_161" data-name="Path 161" d="M1288.7,639.3s35.7,20.3,52.6,25.2c0,0,17.8,6.2,11.3,13.6,0,0-11.7,18.1-50.4-11C1302.2,667,1293.2,645,1288.7,639.3Z" transform="translate(-1021.735 -525.612)"/>
    <path id="Path_162" data-name="Path 162" d="M1339.1,685.5c-10.3,0-23-5.7-38-17a1.555,1.555,0,0,1-.6-.8c-.1-.2-9-21.9-13.3-27.3a1.808,1.808,0,0,1,.1-2.3,1.835,1.835,0,0,1,2.3-.4c.4.2,35.7,20.2,52.2,25.1,1.3.5,12.3,4.4,13.8,10.5a6.375,6.375,0,0,1-1.6,6c-.6.8-3.6,4.7-10.5,5.9C1342.1,685.3,1340.6,685.5,1339.1,685.5Zm-35.4-19.6c20.1,15.1,32.4,16.8,39.2,15.6a13.293,13.293,0,0,0,8.2-4.4l.2-.2a2.972,2.972,0,0,0,.9-2.7c-.8-3.2-7.4-6.5-11.4-7.9-12.8-3.7-35.9-16-46.9-22C1297.9,652,1302.7,663.4,1303.7,665.9Z" transform="translate(-1021.735 -525.612)"/>
    <path id="Path_163" data-name="Path 163" d="M1196.1,641.1h-1.2a1.8,1.8,0,0,1,.2-3.6c.1,0,12.4.6,17.8-5.4a1.84,1.84,0,0,1,2.7,2.5C1210.1,640.6,1199.7,641.1,1196.1,641.1Z" transform="translate(-1021.735 -525.612)"/>
    <path id="Path_164" data-name="Path 164" d="M1196.8,649.2c-1.2,0-2-.1-2.1-.1a1.867,1.867,0,1,1,.5-3.7h0a19.577,19.577,0,0,0,8.7-1.3,1.838,1.838,0,1,1,1.4,3.4A20.458,20.458,0,0,1,1196.8,649.2Z" transform="translate(-1021.735 -525.612)"/>
    <path id="Path_165" data-name="Path 165" d="M1224.8,615.8c0,5.909-2.373,10.7-5.3,10.7s-5.3-4.791-5.3-10.7,2.373-10.7,5.3-10.7,5.3,4.791,5.3,10.7Z" transform="translate(-1021.735 -525.612)"/>
    <path id="Path_166" data-name="Path 166" d="M1221.3,610.8a2.4,2.4,0,1,1-2.4-2.4A2.4,2.4,0,0,1,1221.3,610.8Z" transform="translate(-1021.735 -525.612)"/>
    <path id="Path_167" data-name="Path 167" d="M1126.1,824.2s-97.1,53.7-27.3-22.5C1098.7,801.7,1107.2,813.4,1126.1,824.2Z" transform="translate(-1021.735 -525.612)"/>
    <path id="Path_168" data-name="Path 168" d="M1079.2,844.4c-3.7,0-5.3-1.2-6.3-2.4-2.9-3.7-2.7-11.7,24.5-41.5a2.035,2.035,0,0,1,1.5-.6,1.723,1.723,0,0,1,1.4.8c.1.1,8.5,11.6,26.8,22a1.7,1.7,0,0,1,.9,1.6,1.893,1.893,0,0,1-.9,1.6,260.3,260.3,0,0,1-23.6,11.5C1090.9,842.7,1083.6,844.4,1079.2,844.4Zm19.4-39.9c-25.1,27.7-23.9,33.9-22.9,35.2,3.3,4.2,26.2-4.6,46.6-15.6A99.666,99.666,0,0,1,1098.6,804.5Z" transform="translate(-1021.735 -525.612)"/>
    <path id="Path_169" data-name="Path 169" d="M1125.4,607.2s-42.1,14-92.7,8.7c0,0-9.7-1.6-8.3,6.3a12.223,12.223,0,0,0,3.7,6.5c4.1,3.9,13.9,10.9,29.4,10.5,0,0,17.3-2.4,54.2-16C1111.7,623.2,1118.9,613.3,1125.4,607.2Z" transform="translate(-1021.735 -525.612)"/>
    <path id="Path_170" data-name="Path 170" d="M1056.5,641.1c-15.5,0-25.1-6.8-29.6-11a14,14,0,0,1-4.3-7.5c-.6-3.4.5-5.3,1.5-6.4,2.9-3,8.2-2.2,8.8-2.1,49.5,5.2,91.4-8.5,91.8-8.7a1.765,1.765,0,0,1,2.1.8,1.973,1.973,0,0,1-.3,2.3c-6.3,5.9-13.3,15.7-13.4,15.8a1.456,1.456,0,0,1-.9.6c-36.7,13.6-53.8,16-54.6,16.1A3.418,3.418,0,0,1,1056.5,641.1Zm-25.7-23.5c-1.4,0-3.1.2-4,1.1-.2.2-.9,1-.5,3.1a10.424,10.424,0,0,0,3.2,5.5c4.2,3.9,13.4,10.4,28.1,10,0,0,17.2-2.5,53.1-15.7,1.1-1.5,4.7-6.3,8.8-10.9-13.9,3.7-48.1,11-86.9,6.9A10.732,10.732,0,0,1,1030.8,617.6Z" transform="translate(-1021.735 -525.612)"/>
    <path id="Path_171" data-name="Path 171" d="M1057.6,639.2l-28.7,8.6s-27.9,8.1,19.8,16.6c0,0,23.3-7.4,52.6-25.2,0,0,7-11.4,10.5-16C1111.7,623.2,1073.4,637.5,1057.6,639.2Z" transform="translate(-1021.735 -525.612)"/>
    <path id="Path_172" data-name="Path 172" d="M1048.6,666.3h-.3c-25.7-4.6-29.2-9-29.4-12.3-.3-4.8,7.8-7.4,9.4-7.8l28.7-8.6c.1,0,.2-.1.3-.1,15.4-1.7,53.4-15.8,53.7-15.9a1.855,1.855,0,0,1,2.1.6,1.8,1.8,0,0,1,0,2.2c-3.4,4.5-10.3,15.8-10.4,15.9a1.7,1.7,0,0,1-.6.6c-29.1,17.8-52.8,25.3-53,25.4Zm9.3-25.3-28.5,8.6c-3.6,1-6.9,3.1-6.8,4.1,0,.4,1,4.3,25.9,8.8,3.3-1.1,25-8.6,51.4-24.7.9-1.4,4.1-6.6,7-11C1095.8,630.9,1070.4,639.6,1057.9,641Z" transform="translate(-1021.735 -525.612)"/>
    <path id="Path_173" data-name="Path 173" d="M1101.3,639.3s-35.7,20.3-52.6,25.2c0,0-17.8,6.2-11.3,13.6,0,0,11.7,18.1,50.4-11C1087.7,667,1096.8,645,1101.3,639.3Z" transform="translate(-1021.735 -525.612)"/>
    <path id="Path_174" data-name="Path 174" d="M1050.8,685.5a21.189,21.189,0,0,1-4.4-.4c-6.9-1.2-9.9-5.1-10.5-5.9a6.375,6.375,0,0,1-1.6-6c1.6-6.1,12.5-10,13.8-10.4,16.6-4.8,52-24.9,52.3-25.1a1.835,1.835,0,0,1,2.3.4,1.813,1.813,0,0,1,.1,2.3c-4.3,5.4-13.2,27.1-13.3,27.3a1.555,1.555,0,0,1-.6.8C1073.9,679.8,1061.1,685.5,1050.8,685.5Zm45.3-41.3c-11,6-34.1,18.3-47,22-3.9,1.4-10.5,4.7-11.3,7.9a2.868,2.868,0,0,0,.9,2.7l.2.2c.1.1,2.4,3.4,8.3,4.4,6.8,1.1,19-.7,39-15.6C1087.3,663.4,1092,652,1096.1,644.2Z" transform="translate(-1021.735 -525.612)"/>
    <path id="Path_175" data-name="Path 175" d="M1193.9,641.1c-3.6,0-14-.5-19.5-6.7a1.84,1.84,0,0,1,2.7-2.5c5.3,6,17.7,5.4,17.8,5.4a1.736,1.736,0,0,1,1.9,1.7,1.8,1.8,0,0,1-1.7,1.9C1195,641.1,1194.5,641.1,1193.9,641.1Z" transform="translate(-1021.735 -525.612)"/>
    <path id="Path_176" data-name="Path 176" d="M1193.1,649.2a22.22,22.22,0,0,1-8.5-1.7,1.838,1.838,0,0,1,1.4-3.4,17.668,17.668,0,0,0,8.6,1.3,1.867,1.867,0,1,1,.5,3.7A15.71,15.71,0,0,1,1193.1,649.2Z" transform="translate(-1021.735 -525.612)"/>
    <path id="Path_177" data-name="Path 177" d="M1175.8,615.8c0,5.909-2.373,10.7-5.3,10.7s-5.3-4.791-5.3-10.7,2.373-10.7,5.3-10.7,5.3,4.791,5.3,10.7Z" transform="translate(-1021.735 -525.612)"/>
    <path id="Path_178" data-name="Path 178" d="M1173.5,610.8a2.4,2.4,0,1,1-2.4-2.4A2.4,2.4,0,0,1,1173.5,610.8Z" transform="translate(-1021.735 -525.612)"/>
    <path id="Path_179" data-name="Path 179" d="M1243.5,769.7c-7.1,37.1-34,37.8-48.5,37.8s-41.5-.7-48.5-37.8c0,0-14.3,71.8,48.5,74.1C1257.8,841.5,1243.5,769.7,1243.5,769.7Z" transform="translate(-1021.735 -525.612)"/>
    <path id="Path_180" data-name="Path 180" d="M1195,845.6c-17.6-.6-30.9-6.6-39.7-17.7-17.6-22.3-11-57.1-10.7-58.6a1.819,1.819,0,0,1,1.8-1.5h0a1.819,1.819,0,0,1,1.8,1.5c6.9,36.3,33.8,36.3,46.7,36.3s39.8,0,46.7-36.3a1.819,1.819,0,0,1,1.8-1.5,1.921,1.921,0,0,1,1.8,1.5c.3,1.5,7,36.3-10.7,58.6C1225.8,839,1212.5,845,1195,845.6Zm-47.9-66.1c-.8,11.8-.1,32,11.1,46.1,8.1,10.2,20.5,15.7,36.8,16.3,16.2-.6,28.6-6.1,36.7-16.3,11.2-14.1,11.9-34.3,11.1-46.1-10.2,29.7-36.2,29.7-47.9,29.7C1183.3,809.3,1157.3,809.3,1147.1,779.5Z" transform="translate(-1021.735 -525.612)"/>
    <path id="Path_181" data-name="Path 181" d="M1195,719.9s-36.9,1.1-48.5,49.8c0,0,1.1,37.8,48.5,37.8s48.5-37.8,48.5-37.8C1231.9,721,1195,719.9,1195,719.9Z" transform="translate(-1021.735 -525.612)"/>
    <path id="Path_182" data-name="Path 182" d="M1195,809.3c-48.7,0-50.4-39.2-50.4-39.6a.9.9,0,0,1,.1-.5c11.8-49.5,49.9-51.2,50.3-51.2h.1c.4,0,38.4,1.7,50.3,51.2,0,.2.1.3.1.5C1245.3,770.1,1243.6,809.3,1195,809.3Zm-46.7-39.4c.2,3.4,3.1,35.8,46.7,35.8,43.7,0,46.5-32.4,46.7-35.8-11.1-46-44.6-48-46.7-48.1C1192.9,721.8,1159.4,723.9,1148.3,769.9Z" transform="translate(-1021.735 -525.612)"/>
    <path id="Path_183" data-name="Path 183" d="M1238.3,749a6.9,6.9,0,0,1-5.5-2.1c-2.7-2.9-4.3-9.6,11.9-34.3,8.6-13.1,18.4-25.2,18.5-25.3a1.851,1.851,0,0,1,2.9,2.3c-15.7,19.4-35.6,49.3-30.5,54.8,1.8,2,10.9,3.6,54.6-25.4a1.8,1.8,0,1,1,2,3C1259.7,743.5,1245.2,749,1238.3,749Z" transform="translate(-1021.735 -525.612)"/>
    <path id="Path_184" data-name="Path 184" d="M1151.7,749c-7,0-21.5-5.5-53.8-26.9a1.8,1.8,0,1,1,2-3c43.8,29,52.7,27.4,54.6,25.4,3-3.3-4.4-22.5-30.5-54.8a1.851,1.851,0,0,1,2.9-2.3c.1.1,9.9,12.2,18.5,25.3,16.2,24.6,14.6,31.4,11.9,34.3A7.305,7.305,0,0,1,1151.7,749Z" transform="translate(-1021.735 -525.612)"/>
  </g>
</svg>
