<?xml version="1.0" encoding="utf-8"?>
<svg id="master-artboard" viewBox="0 0 350 350" version="1.1" xmlns="http://www.w3.org/2000/svg" x="0px" y="0px" width="350px" height="350px" enable-background="new 0 0 1400 980"><rect id="ee-background" x="0" y="0" width="350" height="350" style="fill: white; fill-opacity: 0; pointer-events: none;"/>
<path fill="#E1E0D1" d="M942,665.6c-1-1.5-6.8-9.3-16.2-14.1c0.2-3.1,0.3-6.3,0.1-9.7c0-1-0.6-23.8-7.8-39.3&#10;&#9;&#9;&#9;c6.1-6.4,26.5-28.4,22.2-37.3c-1.4-3-5-4.1-10.5-3.5c-0.9,0-21.2,1.2-39.3,13.6c-4.3-2.5-20.7-11-41.2-10.1&#10;&#9;&#9;&#9;c-20.7-0.9-37.1,7.6-41.4,10.1c-18.1-12.4-38.4-13.5-39.1-13.5c-5.6-0.7-9.2,0.5-10.7,3.5c-4.3,8.9,16,30.9,22.2,37.3&#10;&#9;&#9;&#9;c-7.2,15.5-7.8,38.3-7.8,39.3c-0.2,3.4-0.1,6.7,0.1,9.7c-9.4,4.8-15.2,12.7-16.2,14.1c-3.4,2.9-47,41.1-37.4,87.5&#10;&#9;&#9;&#9;c0.1,0.3,2.3,6.8,9.1,8.9c1.3,0.4,2.7,0.6,4.1,0.6c2.9,0,6.1-0.8,9.5-2.4c-1.9,3-3.9,6.8-5.4,11.3c-3.7,11-5.2,28,8.8,47.5&#10;&#9;&#9;&#9;c-1.6,4.5-7.3,23.7,9.1,31.9c0,0,0,0,0,0c0,0,0,0,0,0c0.2,0.1,0.3,0.1,0.5,0.2c0,0,0,0,0.1,0c0.3,0,2.2,0.3,5.1,0.3&#10;&#9;&#9;&#9;c7.4,0,21.2-1.6,30.9-12.2c1-0.7,9.2-7.1,12.7-13.6c13.1,3.9,28.5,6,45.9,6.2c17.4-0.2,32.7-2.3,45.8-6.2&#10;&#9;&#9;&#9;c3.6,6.4,11.8,12.8,12.7,13.6c9.7,10.6,23.5,12.2,30.9,12.2c2.9,0,4.8-0.2,5.1-0.3c0,0,0,0,0.1,0c0.2,0,0.3-0.1,0.5-0.2&#10;&#9;&#9;&#9;c0,0,0,0,0,0c0,0,0,0,0,0c16.4-8.3,10.7-27.4,9.1-31.9c18.5-25.5,10.4-47.4,3.3-58.8c3.5,1.7,6.7,2.5,9.6,2.5&#10;&#9;&#9;&#9;c1.4,0,2.8-0.2,4.1-0.6c6.7-2,9-8.6,9.1-9.1C989,706.7,945.3,668.4,942,665.6z" transform="matrix(1, 0, 0, 1, -671.3266296386719, -529.0817260742188)"/><g transform="matrix(1, 0, 0, 1, -671.3266296386719, -529.0817260742188)">
				<path fill="#F9CD15" d="M908.5,596.4c0,0,41-41.7,13.9-38.6c0,0-21.2,1-39.3,13.9c0,0-18.1-11.5-41.4-10.4&#10;&#9;&#9;&#9;&#9;&#9;c-23.3-1-41.4,10.4-41.4,10.4c-18.1-12.9-39.3-13.9-39.3-13.9c-27.1-3.1,13.9,38.6,13.9,38.6c-7.6,15.3-8.2,39.7-8.2,39.7&#10;&#9;&#9;&#9;&#9;&#9;c-2.9,51.3,48.5,61.1,48.5,61.1c8,16,26.4,12.9,26.4,12.9s18.4,3.1,26.4-12.9c0,0,51.4-9.7,48.5-61.1&#10;&#9;&#9;&#9;&#9;&#9;C916.7,636.1,916.1,611.7,908.5,596.4z"/>
				<path fill="#3C2415" d="M838.2,712.1c-6.1,0-17.8-1.6-24.1-13.3c-6.9-1.6-51.9-14.2-49.1-62.8c0-0.9,0.6-23.8,7.8-39.3&#10;&#9;&#9;&#9;&#9;&#9;c-6.1-6.4-26.5-28.4-22.2-37.3c1.4-2.9,5-4.1,10.7-3.5c0.8,0,21.1,1.2,39.1,13.5c4.3-2.5,20.7-11,41.4-10.1&#10;&#9;&#9;&#9;&#9;&#9;c20.5-0.9,36.9,7.6,41.2,10.1c18.1-12.4,38.4-13.5,39.3-13.6c5.5-0.6,9.1,0.5,10.5,3.5c4.3,8.9-16,30.9-22.2,37.3&#10;&#9;&#9;&#9;&#9;&#9;c7.2,15.5,7.8,38.4,7.8,39.3c2.8,48.5-42.2,61.1-49.1,62.7c-8.1,15-25.2,13.4-27.6,13.1C841.2,712,839.9,712.1,838.2,712.1z&#10;&#9;&#9;&#9;&#9;&#9; M841.7,708.2c0.1,0,0.2,0,0.3,0c0.7,0.1,17.2,2.7,24.5-11.9c0.3-0.5,0.7-0.9,1.3-1c2-0.4,49.8-10.1,47-59.2&#10;&#9;&#9;&#9;&#9;&#9;c0-0.3-0.6-24.3-8-39c-0.4-0.7-0.2-1.5,0.3-2.1c10.8-11,24.9-28.8,22.4-34c-0.9-1.8-4.7-1.7-7-1.4c-0.3,0-21,1.2-38.4,13.6&#10;&#9;&#9;&#9;&#9;&#9;c-0.6,0.4-1.4,0.5-2,0.1c-0.2-0.1-17.8-11.1-40.3-10.1c-22.6-1-40.3,10-40.5,10.1c-0.6,0.4-1.4,0.4-2-0.1&#10;&#9;&#9;&#9;&#9;&#9;c-17.4-12.4-38.1-13.6-38.3-13.6c-2.3-0.3-6.2-0.4-7.1,1.4c-2.5,5.2,11.6,23,22.4,34c0.5,0.6,0.7,1.4,0.3,2.1&#10;&#9;&#9;&#9;&#9;&#9;c-7.4,14.8-8,38.7-8,39c-2.8,49.2,46.5,59.1,47,59.2c0.6,0.1,1,0.5,1.3,1c7.3,14.6,24.3,11.9,24.5,11.9&#10;&#9;&#9;&#9;&#9;&#9;C841.5,708.2,841.6,708.2,841.7,708.2z"/>
			</g><path fill="#E5AE1B" d="M861.1,689.9c-5.6-7.1-19.4-6.6-19.4-6.6s-13.9-0.5-19.4,6.6c-1.8,2.3-1.8,5.6-0.1,8&#10;&#9;&#9;&#9;&#9;&#9;c2.6,3.5,8.1,8,19.5,7.3c11.3,0.8,16.9-3.8,19.5-7.3C863,695.5,863,692.3,861.1,689.9z" transform="matrix(1, 0, 0, 1, -671.3266296386719, -529.0817260742188)"/><path fill="#3C2415" d="M844.2,707.1c-0.8,0-1.6,0-2.5-0.1c-11.8,0.7-17.9-3.9-20.9-8c-2.3-3.1-2.2-7.2,0.1-10.2&#10;&#9;&#9;&#9;&#9;&#9;c6.1-7.8,20.3-7.4,20.9-7.3c0.5,0,14.7-0.4,20.8,7.3l0,0c2.3,3,2.3,7.2,0.1,10.2C859.9,702.8,854.4,707.1,844.2,707.1z&#10;&#9;&#9;&#9;&#9;&#9; M841.7,703.4c0,0,0.1,0,0.1,0c10.3,0.7,15.4-3.2,17.9-6.5c1.3-1.7,1.3-4.1,0-5.8l0,0c-4.9-6.3-17.8-6-17.9-5.9&#10;&#9;&#9;&#9;&#9;&#9;c-0.3,0-13.1-0.4-18,5.9c-1.3,1.7-1.3,4,0,5.8c2.5,3.4,7.6,7.2,17.9,6.5C841.6,703.4,841.7,703.4,841.7,703.4z" transform="matrix(1, 0, 0, 1, -671.3266296386719, -529.0817260742188)"/><path fill="#3C2415" d="M786.9,583.9c0,0-5,4.5-7.2,8.3c0,0-15-12.1-20.4-24.1c-0.7-1.5,0.8-3,2.3-2.5&#10;&#9;&#9;&#9;&#9;&#9;C766.8,567.6,776.7,572.6,786.9,583.9z" transform="matrix(1, 0, 0, 1, -671.3266296386719, -529.0817260742188)"/><path fill="#3C2415" d="M815.3,699c0,0-0.1,0-0.1,0c-1-0.1-1.8-0.9-1.7-1.9c0-0.3,0.2-6.6-7-11c-0.8-0.5-21.8-12.4-24.5-26.5&#10;&#9;&#9;&#9;&#9;c-0.2-1,0.5-2,1.5-2.1c1-0.2,2,0.5,2.1,1.5c2.4,12.4,22.5,23.9,22.7,24c9.2,5.6,8.8,14,8.8,14.3C817.1,698.3,816.3,699,815.3,699&#10;&#9;&#9;&#9;&#9;z" transform="matrix(1, 0, 0, 1, -671.3266296386719, -529.0817260742188)"/><path d="M 836.000012 694.700012 A 2.8 5.7 0 0 1 833.200012 700.400012 A 2.8 5.7 0 0 1 830.400012 694.700012 A 2.8 5.7 0 0 1 833.200012 689.000012 A 2.8 5.7 0 0 1 836.000012 694.700012 Z" fill="#3C2415" transform="matrix(1, 0, 0, 1, -671.3266296386719, -529.0817260742188)"/><path fill="#3C2415" d="M781,640c0.4,4.4,2.9,10.5,12.4,15.7c1.4,0.8,3.1-0.4,2.8-2c-0.7-4.7-2.3-12.8-5.5-17.4&#10;&#9;&#9;&#9;&#9;C787.7,631.9,780.6,634.6,781,640z" transform="matrix(1, 0, 0, 1, -671.3266296386719, -529.0817260742188)"/><path fill="#3C2415" d="M822.3,665c-0.6,0-1.2-0.3-1.6-0.9c-0.5-0.9-0.2-2,0.7-2.5c0.3-0.2,8.6-4.9,20.5-4.1c1,0.1,1.8,1,1.7,2&#10;&#9;&#9;&#9;&#9;c-0.1,1-1,1.7-2,1.7c-10.7-0.8-18.3,3.5-18.4,3.6C822.9,664.9,822.6,665,822.3,665z" transform="matrix(1, 0, 0, 1, -671.3266296386719, -529.0817260742188)"/><path fill="#3C2415" d="M825.2,671.5c-0.6,0-1.2-0.3-1.6-0.9c-0.5-0.9-0.3-2,0.6-2.5c0.3-0.2,6.2-3.8,17.5-3.5&#10;&#9;&#9;&#9;&#9;c1,0,1.8,0.9,1.8,1.9c0,1-0.8,1.8-1.8,1.8c0,0,0,0,0,0c-10.1-0.3-15.4,3-15.5,3C825.9,671.4,825.5,671.5,825.2,671.5z" transform="matrix(1, 0, 0, 1, -671.3266296386719, -529.0817260742188)"/><path fill="#3C2415" d="M828.4,677.1c-0.7,0-1.4-0.4-1.7-1.2c-0.4-0.9,0.1-2,1-2.4c0.2-0.1,6.1-2.4,14-2.3c1,0,1.8,0.8,1.8,1.9&#10;&#9;&#9;&#9;&#9;c0,1-0.8,1.8-1.8,1.8c-0.2,0-0.3,0-0.4,0c-6.9,0-12.1,2-12.2,2C828.9,677.1,828.6,677.1,828.4,677.1z" transform="matrix(1, 0, 0, 1, -671.3266296386719, -529.0817260742188)"/><path fill="#F9CD15" d="M750.2,661.2c0,0-46.8,38.4-37.1,85.7c0,0,6,18.1,28.7,0.5C741.8,747.4,764,690.5,750.2,661.2z" transform="matrix(1, 0, 0, 1, -671.3266296386719, -529.0817260742188)"/><path fill="#3C2415" d="M724.5,756.9c-1.4,0-2.8-0.2-4.1-0.6c-6.7-2-9-8.6-9.1-8.9c-9.9-48,37.2-87.3,37.7-87.7&#10;&#9;&#9;&#9;&#9;&#9;c0.4-0.4,1-0.5,1.6-0.4c0.6,0.1,1,0.5,1.3,1c14,29.7-7.4,85.3-8.3,87.6c-0.1,0.3-0.3,0.6-0.6,0.8&#10;&#9;&#9;&#9;&#9;&#9;C736,754.2,729.9,756.9,724.5,756.9z M714.9,746.5c0,0,1.8,4.9,6.6,6.3c4.8,1.4,11.3-0.9,18.8-6.6c2-5.3,19.8-54.6,9.2-82&#10;&#9;&#9;&#9;&#9;&#9;C741,671.9,706.6,706.2,714.9,746.5C714.9,746.5,714.9,746.5,714.9,746.5z M714.9,746.5L714.9,746.5L714.9,746.5z" transform="matrix(1, 0, 0, 1, -671.3266296386719, -529.0817260742188)"/><path fill="#585044" d="M741.8,747.4c0,0-29.8,28.7-2.3,65.6c0,0,11.6,12.6,29,6.6c1.9-0.6,3.8-1,5.8-0.8&#10;&#9;&#9;&#9;&#9;&#9;c4.1,0.5,9.7,2.9,7.7,13.2c0,0,10.1-7.6,13-14.4C795,817.7,738.6,802.1,741.8,747.4z" transform="matrix(1, 0, 0, 1, -671.3266296386719, -529.0817260742188)"/><path fill="#3C2415" d="M781.9,833.9c-0.3,0-0.7-0.1-1-0.3c-0.6-0.4-1-1.2-0.8-1.9c0.8-3.8,0.5-6.6-0.9-8.5&#10;&#9;&#9;&#9;&#9;&#9;c-1.1-1.5-2.8-2.3-5.2-2.6c-1.5-0.2-3.1,0.1-5,0.7c-18.3,6.3-30.4-6.6-30.9-7.1c-14.8-19.8-13.3-37.3-9.5-48.4&#10;&#9;&#9;&#9;&#9;&#9;c4.1-12.1,11.6-19.4,11.9-19.7c0.5-0.5,1.4-0.7,2-0.3c0.7,0.3,1.1,1,1.1,1.8c-3.1,52.6,51.2,68.3,51.8,68.4&#10;&#9;&#9;&#9;&#9;&#9;c0.5,0.1,0.9,0.5,1.2,1c0.2,0.5,0.2,1,0,1.5c-3.1,7.2-13.2,14.8-13.6,15.1C782.7,833.8,782.3,833.9,781.9,833.9z M773.1,816.9&#10;&#9;&#9;&#9;&#9;&#9;c0.5,0,0.9,0,1.4,0.1c3.4,0.4,6.1,1.8,7.7,4.1c1.3,1.8,1.9,4,2,6.7c2.6-2.3,6.1-5.7,8.1-9.1c-10.1-3.5-52.1-20.8-52.4-66.4&#10;&#9;&#9;&#9;&#9;&#9;c-6.7,8.7-19.7,31.5,1.1,59.5c0.3,0.3,11,11.5,26.9,6C769.8,817.2,771.5,816.9,773.1,816.9z" transform="matrix(1, 0, 0, 1, -671.3266296386719, -529.0817260742188)"/><path fill="#F9CD15" d="M774.3,818.8c-2-0.2-3.9,0.1-5.8,0.8c-4.7,1.6-9,1.8-12.8,1.3l0,0c0,0-9.5,9.4-8.3,22.6&#10;&#9;&#9;&#9;&#9;&#9;c0,0,21.5,2.9,34.5-11.5C784,821.8,778.4,819.3,774.3,818.8z" transform="matrix(1, 0, 0, 1, -671.3266296386719, -529.0817260742188)"/><path fill="#3C2415" d="M752.2,845.6c-2.9,0-4.8-0.2-5.1-0.3c-0.8-0.1-1.5-0.8-1.6-1.7c-1.2-13.4,7.8-22.9,8.8-24&#10;&#9;&#9;&#9;&#9;&#9;c0.4-0.4,1-0.7,1.6-0.6c4,0.5,8,0.1,11.9-1.3c2.4-0.8,4.5-1.1,6.6-0.9l0,0c3.4,0.4,6.1,1.8,7.7,4.1c2,2.7,2.5,6.5,1.5,11.3&#10;&#9;&#9;&#9;&#9;&#9;c-0.1,0.3-0.2,0.6-0.4,0.9C773.6,844,759.6,845.6,752.2,845.6z M749.1,841.9c4.9,0.3,20.8,0.4,31.1-10.6c0.6-3.5,0.3-6.2-1-8&#10;&#9;&#9;&#9;&#9;&#9;c-1.1-1.5-2.8-2.3-5.2-2.6l0,0c-1.5-0.2-3.1,0.1-5,0.7c-4.2,1.4-8.4,2-12.7,1.5C754.6,825,748.9,832.3,749.1,841.9z" transform="matrix(1, 0, 0, 1, -671.3266296386719, -529.0817260742188)"/><path fill="#F9CD15" d="M739.5,813c0,0-9.4,21.9,7.9,30.6c0,0-2.4-11.5,8.3-22.6C755.7,821,746.3,820.1,739.5,813z" transform="matrix(1, 0, 0, 1, -671.3266296386719, -529.0817260742188)"/><path fill="#3C2415" d="M747.4,845.4c-0.3,0-0.6-0.1-0.8-0.2c-18.7-9.4-8.8-32.7-8.7-32.9c0.2-0.6,0.8-1,1.4-1.1&#10;&#9;&#9;&#9;&#9;&#9;c0.6-0.1,1.2,0.1,1.6,0.5c6.2,6.6,15,7.4,15,7.4c0.7,0.1,1.3,0.5,1.5,1.2c0.2,0.7,0.1,1.4-0.4,1.9c-9.9,10.2-7.9,20.5-7.9,20.9&#10;&#9;&#9;&#9;&#9;&#9;c0.1,0.7-0.1,1.4-0.7,1.8C748.2,845.2,747.8,845.4,747.4,845.4z M740.3,816.2c-1.6,5.2-4.1,17.2,5,23.9c0.1-4.1,1.2-10.9,6.9-18&#10;&#9;&#9;&#9;&#9;&#9;C749.2,821.4,744.5,819.7,740.3,816.2z" transform="matrix(1, 0, 0, 1, -671.3266296386719, -529.0817260742188)"/><path fill="#3C2415" d="M896.5,583.9c0,0,5,4.5,7.2,8.3c0,0,15-12.1,20.4-24.1c0.7-1.5-0.8-3-2.3-2.5&#10;&#9;&#9;&#9;&#9;&#9;C916.6,567.6,906.7,572.6,896.5,583.9z" transform="matrix(1, 0, 0, 1, -671.3266296386719, -529.0817260742188)"/><path fill="#3C2415" d="M868.1,699c-1,0-1.8-0.7-1.8-1.7c0-0.4-0.4-8.7,8.8-14.3c0.3-0.2,20.4-11.6,22.8-24&#10;&#9;&#9;&#9;&#9;c0.2-1,1.2-1.6,2.1-1.5c1,0.2,1.6,1.1,1.5,2.1c-2.7,14.1-23.7,26-24.5,26.5c-7.3,4.4-6.9,10.9-6.9,10.9c0.1,1-0.7,1.9-1.7,1.9&#10;&#9;&#9;&#9;&#9;C868.2,699,868.2,699,868.1,699z" transform="matrix(1, 0, 0, 1, -671.3266296386719, -529.0817260742188)"/><path d="M 853.000012 694.700012 A 2.8 5.7 0 0 1 850.200012 700.400012 A 2.8 5.7 0 0 1 847.400012 694.700012 A 2.8 5.7 0 0 1 850.200012 689.000012 A 2.8 5.7 0 0 1 853.000012 694.700012 Z" fill="#3C2415" transform="matrix(1, 0, 0, 1, -671.3266296386719, -529.0817260742188)"/><path fill="#3C2415" d="M902.4,640c-0.4,4.4-2.9,10.5-12.4,15.7c-1.4,0.8-3.1-0.4-2.8-2c0.7-4.7,2.3-12.8,5.5-17.4&#10;&#9;&#9;&#9;&#9;C895.8,631.9,902.8,634.6,902.4,640z" transform="matrix(1, 0, 0, 1, -671.3266296386719, -529.0817260742188)"/><path fill="#3C2415" d="M861.2,665c-0.3,0-0.6-0.1-0.9-0.2c-0.1,0-7.7-4.4-18.4-3.6c-1,0.1-1.9-0.7-2-1.7c-0.1-1,0.7-1.9,1.7-2&#10;&#9;&#9;&#9;&#9;c11.9-0.9,20.2,3.9,20.5,4.1c0.9,0.5,1.2,1.6,0.7,2.5C862.4,664.6,861.8,665,861.2,665z" transform="matrix(1, 0, 0, 1, -671.3266296386719, -529.0817260742188)"/><path fill="#3C2415" d="M858.2,671.5c-0.3,0-0.7-0.1-1-0.3l0,0c-0.1,0-5.4-3.3-15.5-3c-1.1,0-1.9-0.8-1.9-1.8&#10;&#9;&#9;&#9;&#9;c0-1,0.8-1.9,1.8-1.9c11.3-0.3,17.3,3.4,17.5,3.5c0.9,0.5,1.1,1.7,0.6,2.5C859.4,671.2,858.8,671.5,858.2,671.5z" transform="matrix(1, 0, 0, 1, -671.3266296386719, -529.0817260742188)"/><path fill="#3C2415" d="M855,677.1c-0.2,0-0.4,0-0.7-0.1c-0.1,0-5.4-2.1-12.6-2c-1,0.1-1.8-0.8-1.9-1.8s0.8-1.8,1.8-1.9&#10;&#9;&#9;&#9;&#9;c7.9-0.1,13.7,2.2,14,2.3c0.9,0.4,1.4,1.4,1,2.4C856.4,676.7,855.7,677.1,855,677.1z" transform="matrix(1, 0, 0, 1, -671.3266296386719, -529.0817260742188)"/><path fill="#F9CD15" d="M933.3,661.2c0,0-6.2-9.4-16.8-14.3c0,0-0.5,37.4-45.4,49.6l-2.5,0.6c0,0-6.8,14.9-26.8,12.9&#10;&#9;&#9;&#9;&#9;&#9;c-20,2-26.8-12.9-26.8-12.9l-2.5-0.6c-44.9-12.2-45.4-49.6-45.4-49.6c-10.5,4.9-16.8,14.3-16.8,14.3&#10;&#9;&#9;&#9;&#9;&#9;c13.4,29.7-8.3,86.2-8.3,86.2c27.8-3.7,39.2,14.4,39.2,14.4c24.4,25,39.9,7.9,39.9,7.9c9.1-8.8,15.4-9.1,20.8-9.1&#10;&#9;&#9;&#9;&#9;&#9;s11.7,0.2,20.8,9.1c0,0,15.5,17.1,39.9-7.9c0,0,11.4-18.1,39.2-14.4C941.6,747.4,919.8,690.8,933.3,661.2z" transform="matrix(1, 0, 0, 1, -671.3266296386719, -529.0817260742188)"/><path fill="#3C2415" d="M876.8,777.2c-0.1,0-0.3,0-0.4,0c-9.5-0.2-15-6.1-15.2-6.3c-8.7-8.5-14.7-8.5-19.4-8.5&#10;&#9;&#9;&#9;&#9;&#9;c-4.8,0-10.7,0-19.5,8.5c-0.1,0.2-5.6,6.1-15.1,6.2c-0.1,0-0.3,0-0.4,0c-8.7,0-17.8-4.8-26.9-14.2c-0.1-0.1-0.2-0.2-0.2-0.3&#10;&#9;&#9;&#9;&#9;&#9;c-0.4-0.7-11.2-17-37.4-13.5c-0.6,0.1-1.3-0.2-1.7-0.7c-0.4-0.5-0.5-1.2-0.3-1.8c0.2-0.6,21.4-56.2,8.4-84.8&#10;&#9;&#9;&#9;&#9;&#9;c-0.3-0.6-0.2-1.2,0.1-1.8c0.3-0.4,6.7-9.9,17.5-15c0.6-0.3,1.2-0.2,1.7,0.1c0.5,0.3,0.9,0.9,0.9,1.5c0,1.5,1.1,36.2,44,47.9&#10;&#9;&#9;&#9;&#9;&#9;l2.5,0.6c0.5,0.1,1,0.5,1.2,1c0.3,0.6,6.5,13.7,25,11.9c0.1,0,0.2,0,0.4,0c18.4,1.8,24.7-11.3,25-11.9c0.2-0.5,0.7-0.9,1.2-1&#10;&#9;&#9;&#9;&#9;&#9;l2.5-0.6c18.1-4.9,31-14.5,38.4-28.5c5.5-10.4,5.7-19.3,5.7-19.4c0-0.6,0.3-1.2,0.9-1.5c0.5-0.3,1.2-0.4,1.7-0.1&#10;&#9;&#9;&#9;&#9;&#9;c10.9,5.1,17.3,14.6,17.5,15c0.4,0.5,0.4,1.2,0.1,1.8c-13,28.6,8.2,84.2,8.4,84.8c0.2,0.6,0.1,1.3-0.3,1.8&#10;&#9;&#9;&#9;&#9;&#9;c-0.4,0.5-1,0.8-1.7,0.7c-26.2-3.5-37,12.8-37.4,13.5c-0.1,0.1-0.1,0.2-0.2,0.3C894.6,772.4,885.5,777.2,876.8,777.2z&#10;&#9;&#9;&#9;&#9;&#9; M841.7,758.7c6.4,0,12.9,0.7,22.1,9.6c0.1,0.1,4.8,5.1,12.7,5.2c7.7,0.2,16-4.2,24.5-12.9c1.3-2,12.5-17.5,37.9-15.4&#10;&#9;&#9;&#9;&#9;&#9;c-4.2-11.8-18.9-57.1-7.7-83.8c-1.6-2.1-6.2-7.8-13.1-11.7c-1.2,9.2-8.1,38.1-46.5,48.5l-1.8,0.4c-1.9,3.2-9.9,14.9-28.1,13.2&#10;&#9;&#9;&#9;&#9;&#9;c-18.2,1.7-26.2-10-28.1-13.2l-1.7-0.4c-38.4-10.4-45.3-39.3-46.5-48.5c-6.9,3.9-11.6,9.6-13.1,11.7c11.2,26.7-3.5,72-7.7,83.8&#10;&#9;&#9;&#9;&#9;&#9;c25.4-2.2,36.6,13.4,37.9,15.4c8.4,8.6,16.5,12.9,24.2,12.9c0.1,0,0.2,0,0.3,0c7.9-0.1,12.6-5.1,12.7-5.1&#10;&#9;&#9;&#9;&#9;&#9;C828.8,759.5,835.3,758.7,841.7,758.7z" transform="matrix(1, 0, 0, 1, -671.3266296386719, -529.0817260742188)"/><path fill="#585044" d="M941.6,747.4c-27.8-3.7-39.2,14.4-39.2,14.4c-24.4,25-39.9,7.9-39.9,7.9c-9.1-8.8-15.4-9.1-20.8-9.1&#10;&#9;&#9;&#9;&#9;&#9;s-11.7,0.2-20.8,9.1c0,0-15.5,17.1-39.9-7.9c0,0-11.4-18.1-39.2-14.4c0,0-9.3,75.5,99.9,76.9&#10;&#9;&#9;&#9;&#9;&#9;C950.9,822.9,941.6,747.4,941.6,747.4z" transform="matrix(1, 0, 0, 1, -671.3266296386719, -529.0817260742188)"/><path fill="#3C2415" d="M841.7,826.1c-39.6-0.5-68.4-10.7-85.5-30.3c-19.3-22-16.4-47.6-16.2-48.7c0.1-0.8,0.7-1.5,1.6-1.6&#10;&#9;&#9;&#9;&#9;&#9;c27.5-3.7,39.5,13,40.9,15c8.5,8.7,16.8,13.1,24.5,12.9c8-0.1,12.5-5.1,12.6-5.1c9.2-8.9,15.7-9.7,22.2-9.7s12.9,0.7,22.1,9.6&#10;&#9;&#9;&#9;&#9;&#9;c0.1,0.1,4.8,5.1,12.7,5.2c7.7,0.2,16-4.2,24.5-12.9c1.4-2,13.4-18.7,40.9-15c0.8,0.1,1.5,0.8,1.6,1.6c0.1,1.1,3,26.7-16.2,48.7&#10;&#9;&#9;&#9;&#9;&#9;C910.1,815.5,881.3,825.6,841.7,826.1z M743.6,749c-0.3,5.6-0.2,26.6,15.5,44.5c16.4,18.7,44.2,28.5,82.7,29&#10;&#9;&#9;&#9;&#9;&#9;c38.4-0.5,66.3-10.2,82.6-29c15.7-17.9,15.8-38.9,15.5-44.5c-25.3-2.7-35.8,13.5-35.9,13.7c-0.1,0.1-0.1,0.2-0.2,0.3&#10;&#9;&#9;&#9;&#9;&#9;c-9.3,9.5-18.5,14.4-27.3,14.2c-9.5-0.2-15-6.1-15.2-6.3c-8.7-8.5-14.7-8.5-19.4-8.5c-4.8,0-10.7,0-19.5,8.5&#10;&#9;&#9;&#9;&#9;&#9;c-0.1,0.2-5.6,6.1-15.1,6.2c-0.1,0-0.3,0-0.4,0c-8.7,0-17.8-4.8-26.9-14.2c-0.1-0.1-0.2-0.2-0.2-0.3&#10;&#9;&#9;&#9;&#9;&#9;C779.1,762,768.7,746.3,743.6,749z" transform="matrix(1, 0, 0, 1, -671.3266296386719, -529.0817260742188)"/><path fill="#F9CD15" d="M933.3,661.2c0,0,46.8,38.4,37.1,85.7c0,0-6,18.1-28.7,0.5C941.6,747.4,919.5,690.5,933.3,661.2z" transform="matrix(1, 0, 0, 1, -671.3266296386719, -529.0817260742188)"/><path fill="#3C2415" d="M958.9,756.9c-5.3,0-11.5-2.7-18.4-8.1c-0.3-0.2-0.5-0.5-0.6-0.8c-0.9-2.4-22.3-58-8.3-87.6&#10;&#9;&#9;&#9;&#9;&#9;c0.2-0.5,0.7-0.9,1.3-1c0.6-0.1,1.1,0,1.6,0.4c0.5,0.4,47.6,39.6,37.7,87.5c-0.1,0.5-2.4,7-9.1,9.1&#10;&#9;&#9;&#9;&#9;&#9;C961.7,756.7,960.3,756.9,958.9,756.9z M943.1,746.2c7.5,5.7,14,8,18.8,6.6c4.9-1.5,6.7-6.5,6.7-6.5&#10;&#9;&#9;&#9;&#9;&#9;c8.2-40.1-26.2-74.3-34.7-82.1C923.3,691.7,941.1,740.9,943.1,746.2z" transform="matrix(1, 0, 0, 1, -671.3266296386719, -529.0817260742188)"/><path fill="#585044" d="M941.6,747.4c0,0,29.8,28.7,2.3,65.6c0,0-11.6,12.6-29,6.6c-1.9-0.6-3.8-1-5.8-0.8&#10;&#9;&#9;&#9;&#9;&#9;c-4.1,0.5-9.7,2.9-7.7,13.2c0,0-10.1-7.6-13-14.4C888.5,817.7,944.8,802.1,941.6,747.4z" transform="matrix(1, 0, 0, 1, -671.3266296386719, -529.0817260742188)"/><path fill="#3C2415" d="M901.5,833.9c-0.4,0-0.8-0.1-1.1-0.4c-0.4-0.3-10.5-8-13.6-15.1c-0.2-0.5-0.2-1,0-1.5&#10;&#9;&#9;&#9;&#9;&#9;c0.2-0.5,0.7-0.8,1.2-1c2.2-0.6,54.9-15.9,51.8-68.4c0-0.8,0.4-1.5,1.1-1.8c0.7-0.3,1.5-0.2,2,0.3c0.3,0.3,30.6,30.3,2.5,68&#10;&#9;&#9;&#9;&#9;&#9;c-0.6,0.7-12.8,13.6-31,7.3c-1.9-0.6-3.5-0.9-5-0.7c-2.4,0.3-4.1,1.2-5.2,2.6c-1.3,1.8-1.6,4.7-0.9,8.5c0.2,0.7-0.2,1.5-0.8,1.9&#10;&#9;&#9;&#9;&#9;&#9;C902.2,833.8,901.8,833.9,901.5,833.9z M891.1,818.7c2,3.3,5.5,6.8,8.1,9.1c0-2.7,0.7-4.9,2-6.7c1.7-2.3,4.3-3.7,7.7-4.1&#10;&#9;&#9;&#9;&#9;&#9;c2-0.2,4.2,0,6.6,0.9c16,5.5,26.6-5.7,27.1-6.2c10.9-14.6,13.9-29.7,8.7-44.8c-2.2-6.4-5.4-11.3-7.8-14.5&#10;&#9;&#9;&#9;&#9;&#9;C943.2,797.9,901.2,815.3,891.1,818.7z" transform="matrix(1, 0, 0, 1, -671.3266296386719, -529.0817260742188)"/><path fill="#F9CD15" d="M909.2,818.8c2-0.2,3.9,0.1,5.8,0.8c4.7,1.6,9,1.8,12.8,1.3l0,0c0,0,9.5,9.4,8.3,22.6&#10;&#9;&#9;&#9;&#9;&#9;c0,0-21.5,2.9-34.5-11.5C899.4,821.8,905.1,819.3,909.2,818.8z" transform="matrix(1, 0, 0, 1, -671.3266296386719, -529.0817260742188)"/><path fill="#3C2415" d="M931.2,845.6c-7.4,0-21.4-1.6-31.1-12.3c-0.2-0.2-0.4-0.5-0.4-0.9c-1-4.8-0.5-8.6,1.5-11.3&#10;&#9;&#9;&#9;&#9;&#9;c1.7-2.3,4.3-3.7,7.7-4.1l0,0c2-0.2,4.2,0,6.6,0.9c4,1.4,8,1.8,11.9,1.3c0.6-0.1,1.3,0.2,1.7,0.7c1.2,1.3,9.9,10.7,8.7,23.9&#10;&#9;&#9;&#9;&#9;&#9;c-0.1,0.9-0.7,1.5-1.6,1.7C936,845.4,934.1,845.6,931.2,845.6z M903.2,831.2c10.3,11,26.2,10.9,31.1,10.6&#10;&#9;&#9;&#9;&#9;&#9;c0.2-9.6-5.5-16.9-7.3-19c-4.2,0.4-8.5-0.1-12.6-1.5c-1.9-0.6-3.5-0.9-5-0.7l0,0c-2.4,0.3-4.1,1.2-5.2,2.6&#10;&#9;&#9;&#9;&#9;&#9;C902.9,825,902.6,827.7,903.2,831.2z M909.2,818.8L909.2,818.8L909.2,818.8z" transform="matrix(1, 0, 0, 1, -671.3266296386719, -529.0817260742188)"/><path fill="#F9CD15" d="M943.9,813c0,0,9.4,21.9-7.9,30.6c0,0,2.4-11.5-8.3-22.6C927.7,821,937.1,820.1,943.9,813z" transform="matrix(1, 0, 0, 1, -671.3266296386719, -529.0817260742188)"/><path fill="#3C2415" d="M936,845.4c-0.4,0-0.8-0.1-1.1-0.4c-0.6-0.4-0.8-1.1-0.7-1.8c0.1-0.4,2-10.7-7.9-20.9&#10;&#9;&#9;&#9;&#9;&#9;c-0.5-0.5-0.6-1.2-0.4-1.9c0.2-0.7,0.8-1.1,1.5-1.2c0.1,0,8.9-0.9,15-7.4c0.4-0.4,1-0.6,1.6-0.5c0.6,0.1,1.1,0.5,1.4,1.1&#10;&#9;&#9;&#9;&#9;&#9;c0.1,0.2,9.9,23.6-8.7,32.9C936.6,845.3,936.3,845.4,936,845.4z M931.2,822.2c5.7,7,6.8,13.9,6.9,18c9.1-6.8,6.7-18.7,5-23.9&#10;&#9;&#9;&#9;&#9;&#9;C938.9,819.7,934.3,821.4,931.2,822.2z" transform="matrix(1, 0, 0, 1, -671.3266296386719, -529.0817260742188)"/>
</svg>