<?xml version="1.0" encoding="utf-8"?>
<svg id="master-artboard" viewBox="0 0 350 350" version="1.1" xmlns="http://www.w3.org/2000/svg" x="0px" y="0px" width="350px" height="350px" enable-background="new 0 0 1400 980"><rect id="ee-background" x="0" y="0" width="350" height="350" style="fill: white; fill-opacity: 0; pointer-events: none;"/>
<path fill="#E1E0D1" d="M326.7,707.9c-1.9-1.7-2.6-2.7-2.9-3.2c0,0,0.1,0,0.1,0c2.2-0.5,3-1.7,3.3-2.6c0.8-2.8-2.4-6-3.4-6.9&#10;&#9;&#9;&#9;c-33.9-33.4-58.4-34.8-68.5-33.5c5.4-7.9,9.4-17.8,10.8-30.3c0.2-1.7,5-41.3-18.4-68.3c-13.5-15.5-33.5-23.6-59.5-24&#10;&#9;&#9;&#9;c0,0,0,0-0.1,0c-26,0.4-46,8.5-59.5,24c-23.4,27.1-18.6,66.7-18.4,68.3c1.4,12.5,5.3,22.5,10.8,30.4c-10.1-1.3-34.6,0.1-68.5,33.5&#10;&#9;&#9;&#9;c-1,0.9-4.2,4.1-3.4,6.9c0.3,1,1,2.2,3.3,2.6c0,0,0.1,0,0.1,0c-0.3,0.5-1,1.5-2.8,3.1c-1.7,1.3-4.2,4.3-3,7.4&#10;&#9;&#9;&#9;c1.1,3,5.4,6.5,26.1,6.5c6,0,13.5-0.3,22.7-1c0.1,1.9,0.3,3.8,0.4,5.5c2.8,26.8,12.4,34.7,17,36.9c-4,6.5-15.1,28.1-8.3,57.1&#10;&#9;&#9;&#9;c0,0.1,0.1,0.2,0.1,0.3c0.1,0.2,0.8,2.1-1.4,3.3c-4.1,2.5-13.4,8.7-12,13.5c1,3.5,6.4,3.7,11,3.5c0.6-0.1,1.6,0.1,1.7,0.1&#10;&#9;&#9;&#9;c0,0,0,0.3-0.2,0.8c-0.8,1.3-1.3,3.3-0.1,4.8c1.9,2.4,6.7,2,15.9-1.3c0.1,0,0.3-0.1,0.4-0.2c0,0,2.2-1.3,3.9-0.8&#10;&#9;&#9;&#9;c0.9,0.3,1.6,1,2.2,2.3c0,1.3,0.5,3.1,2.2,4.1c0.6,0.3,1.4,0.6,2.6,0.6c3.5,0,9.9-2.6,23.4-13.7c1.2-0.8,5.9-4.4,2-12.8&#10;&#9;&#9;&#9;c-0.4-1.9-3.3-18.7,4.4-32.7c4.8,2.1,9.6,3.5,13.9,4.3c3.9,11.1,11.2,11.8,13.2,11.8c0.1,0,0.2,0,0.3,0c1.3,0.1,9.4-0.1,13.5-11.8&#10;&#9;&#9;&#9;c4.3-0.8,9.1-2.1,13.8-4.3c7.7,14,4.8,30.8,4.4,32.7c-3.9,8.5,0.8,12.1,2,12.8c13.5,11.1,19.9,13.7,23.4,13.7&#10;&#9;&#9;&#9;c1.1,0,1.9-0.3,2.6-0.6c1.8-1,2.3-2.9,2.2-4.1c0.6-1.2,1.3-2,2.1-2.3c1.5-0.5,3.4,0.4,3.9,0.7c0.1,0.1,0.2,0.1,0.4,0.2&#10;&#9;&#9;&#9;c9.2,3.3,14,3.7,15.9,1.3c1.2-1.5,0.7-3.6,0-4.7c-0.3-0.5-0.3-0.8-0.3-0.8c0.3-0.2,1.1-0.3,1.9-0.2c4.5,0.2,9.8-0.1,10.9-3.5&#10;&#9;&#9;&#9;c1.4-4.7-7.9-11-12-13.5c-2-1.1-1.5-2.8-1.3-3.2c0-0.1,0.1-0.2,0.1-0.3c6.8-29-4.3-50.6-8.3-57.1c4.9-2.4,15.5-11.3,17.4-42.4&#10;&#9;&#9;&#9;c9.2,0.7,16.6,1,22.7,1c20.7,0,25-3.5,26.2-6.5C330.7,712.1,328.2,709.1,326.7,707.9z" transform="matrix(1, 0, 0, 1, -7.906951904296875, -520.2790374755859)"/><g transform="matrix(1, 0, 0, 1, -7.906951904296875, -520.2790374755859)">
				<path fill="#FABE5D" d="M261.4,708.6c-9.8-6.1-22.5-19.9-17.8-49.7c0,0-17.4,25.9-62.9,25.7c-45.5,0.2-62.9-25.7-62.9-25.7&#10;&#9;&#9;&#9;&#9;&#9;c4.6,29.8-8,43.6-17.8,49.7c-5.6,3.5-10.3,4.4-10.3,4.4c2,40.8,18.5,43.5,18.5,43.5c22.3,4.7,44.4,27.5,44.4,27.5&#10;&#9;&#9;&#9;&#9;&#9;c13.3,6.5,28.1,6.1,28.1,6.1s14.8,0.5,28.1-6.1c0,0,22.1-22.8,44.4-27.5c0,0,16.5-2.7,18.5-43.5&#10;&#9;&#9;&#9;&#9;&#9;C271.7,713,267,712.1,261.4,708.6z"/>
				<path fill="#3C2415" d="M181.5,791.9c-0.4,0-0.7,0-0.8,0c-0.5,0-15.3,0.4-28.8-6.3c-0.2-0.1-0.4-0.2-0.5-0.4&#10;&#9;&#9;&#9;&#9;&#9;c-0.2-0.2-22-22.5-43.4-27c-0.7-0.1-17.9-3.4-20-45.2c0-0.9,0.6-1.7,1.5-1.9c0,0,4.5-1,9.7-4.2c10.2-6.3,21.3-19.7,17-47.9&#10;&#9;&#9;&#9;&#9;&#9;c-0.1-0.8,0.3-1.7,1.1-2c0.8-0.3,1.7,0,2.2,0.7c0,0.1,4.4,6.3,14,12.5c8.9,5.7,24.2,12.4,46.9,12.4c0.3,0,0.6,0,0.8,0&#10;&#9;&#9;&#9;&#9;&#9;c22.7,0,38-6.7,46.9-12.4c9.7-6.2,14-12.5,14-12.5c0.5-0.7,1.4-1,2.2-0.7c0.8,0.3,1.3,1.1,1.1,2c-4.3,28.2,6.8,41.6,17,47.9&#10;&#9;&#9;&#9;&#9;&#9;c5.2,3.2,9.6,4.2,9.7,4.2c0.9,0.2,1.5,1,1.5,1.9c-2.1,41.8-19.3,45.1-20,45.2c-21.4,4.5-43.1,26.7-43.3,27&#10;&#9;&#9;&#9;&#9;&#9;c-0.1,0.2-0.3,0.3-0.5,0.4C197.7,791.5,184.8,791.9,181.5,791.9z M180.7,788.2c0.2,0,14.4,0.4,27.1-5.7&#10;&#9;&#9;&#9;&#9;&#9;c2.5-2.6,23.5-23.2,45.1-27.8c0.2,0,14.8-3.3,17-40.3c-1.9-0.6-5.4-1.8-9.3-4.3c0,0,0,0,0,0c-8.5-5.3-21.7-18-19.4-45.5&#10;&#9;&#9;&#9;&#9;&#9;c-7.5,7.7-25.9,21.7-59.9,21.7c-0.3,0-0.6,0-0.9,0c-33.9,0-52.4-14.1-59.9-21.7c2.3,27.5-10.9,40.2-19.4,45.5&#10;&#9;&#9;&#9;&#9;&#9;c-3.9,2.4-7.4,3.7-9.3,4.3c2.2,37,16.8,40.3,16.9,40.3c21.6,4.6,42.6,25.2,45.1,27.8C166.3,788.6,180.5,788.2,180.7,788.2z"/>
			</g><path fill="#79CFDF" d="M180.7,535.1c-87.6,1.3-76.1,90.3-76.1,90.3c6.7,61.3,76.1,59.1,76.1,59.1s69.4,2.2,76.1-59.1&#10;&#9;&#9;&#9;&#9;&#9;C256.9,625.4,268.3,536.5,180.7,535.1z" transform="matrix(1, 0, 0, 1, -7.906951904296875, -520.2790374755859)"/><path fill="#3C2415" d="M181.3,686.4c-0.4,0-0.6,0-0.7,0c-0.6,0-71.1,1.5-77.9-60.8c-0.2-1.6-5-41.2,18.4-68.3&#10;&#9;&#9;&#9;&#9;&#9;c13.5-15.5,33.5-23.6,59.5-24c0,0,0,0,0.1,0c26,0.4,46,8.5,59.5,24c23.4,27.1,18.6,66.7,18.4,68.3&#10;&#9;&#9;&#9;&#9;&#9;C252.2,684.7,188.5,686.4,181.3,686.4z M180.7,682.7c0.3,0,17.4,0.4,35-6.5c23.4-9.2,36.6-26.4,39.3-51&#10;&#9;&#9;&#9;&#9;&#9;c0.1-0.4,4.8-39.7-17.6-65.5c-12.7-14.7-31.8-22.3-56.7-22.7c-24.9,0.4-44,8-56.7,22.7c-22.4,25.8-17.6,65.1-17.6,65.5&#10;&#9;&#9;&#9;&#9;&#9;C112.9,684.2,180,682.8,180.7,682.7z" transform="matrix(1, 0, 0, 1, -7.906951904296875, -520.2790374755859)"/><path fill="#CB9783" d="M108.3,756.5c0,0-16.5-2.7-18.5-43.5c0,0,4.7-1,10.3-4.4C98.2,739.4,108.3,756.5,108.3,756.5z" transform="matrix(1, 0, 0, 1, -7.906951904296875, -520.2790374755859)"/><path fill="#3C2415" d="M108.3,758.3c-0.1,0-0.2,0-0.3,0c-0.7-0.1-18-3.4-20-45.2c0-0.9,0.6-1.7,1.5-1.9c0,0,4.4-1,9.7-4.2&#10;&#9;&#9;&#9;&#9;&#9;c0.6-0.4,1.3-0.4,1.9,0c0.6,0.4,0.9,1,0.9,1.7c-1.8,29.8,7.9,46.7,8,46.9c0.4,0.6,0.3,1.4-0.1,2&#10;&#9;&#9;&#9;&#9;&#9;C109.5,758,108.9,758.3,108.3,758.3z M91.7,714.4c1.4,23.9,8,33.7,12.5,37.7c-2.8-7-6.8-20.7-6.2-40.3&#10;&#9;&#9;&#9;&#9;&#9;C95.4,713.2,93.1,714,91.7,714.4z" transform="matrix(1, 0, 0, 1, -7.906951904296875, -520.2790374755859)"/><path fill="#79CFDF" d="M117.9,658.9c0,0-27.8-11.2-71.6,31.9c0,0-5.9,5.4-1,6.4c0,0,5.1,0.2-1.9,6.4c0,0-19.1,14.7,46.4,9.4&#10;&#9;&#9;&#9;&#9;&#9;C89.8,713,124.7,706.9,117.9,658.9z" transform="matrix(1, 0, 0, 1, -7.906951904296875, -520.2790374755859)"/><path fill="#3C2415" d="M65.4,716c-20.7,0-25-3.5-26.1-6.5c-1.2-3.1,1.3-6.1,3-7.4c1.8-1.6,2.5-2.6,2.8-3.1c0,0-0.1,0-0.1,0&#10;&#9;&#9;&#9;&#9;&#9;c-2.2-0.5-3-1.7-3.3-2.6c-0.8-2.8,2.4-6,3.4-6.9c44.1-43.4,72.3-32.8,73.5-32.3c0.6,0.2,1,0.8,1.1,1.4&#10;&#9;&#9;&#9;&#9;&#9;c6.9,49.2-29.2,56.2-29.6,56.2C80,715.6,71.9,716,65.4,716z M45.6,695.4c1.2,0.1,2.6,0.7,3.2,2.2c0.7,2-0.6,4.2-4.1,7.4&#10;&#9;&#9;&#9;&#9;&#9;c-0.8,0.7-2.3,2.2-1.9,3.2c0.4,1.1,4.7,6.4,47,3c1.2-0.2,32.3-6.4,26.6-50.9c-5.2-1.3-30.9-5.3-68.6,31.8&#10;&#9;&#9;&#9;&#9;&#9;c-1.1,1.1-2.2,2.5-2.4,3.2C45.3,695.3,45.4,695.3,45.6,695.4z" transform="matrix(1, 0, 0, 1, -7.906951904296875, -520.2790374755859)"/><path fill="#79CFDF" d="M108.3,756.5c0,0-17.2,23.9-9.3,57.6c0,0,1.5,3.5-2.1,5.6c0,0-23.8,14.5-2.1,13.6c0,0,5.4-0.5,3.2,3.7&#10;&#9;&#9;&#9;&#9;&#9;c0,0-4.7,7.4,13.6,0.8c0,0,6.2-4,8.9,2.7c0,0-1.5,11.9,25.3-10.1c0,0,5.2-2.5,1.3-10.8c0,0-4.3-19.8,5.4-35.7&#10;&#9;&#9;&#9;&#9;&#9;C152.6,784,131.5,761.8,108.3,756.5z" transform="matrix(1, 0, 0, 1, -7.906951904296875, -520.2790374755859)"/><path fill="#3C2415" d="M123.6,845.6c-1.1,0-1.9-0.3-2.6-0.6c-1.8-1-2.3-2.9-2.2-4.1c-0.6-1.2-1.3-2-2.2-2.3&#10;&#9;&#9;&#9;&#9;&#9;c-1.8-0.6-3.9,0.7-3.9,0.8c-0.1,0.1-0.2,0.1-0.4,0.2c-9.2,3.3-14,3.7-15.9,1.3c-1.2-1.5-0.7-3.6,0.1-4.8&#10;&#9;&#9;&#9;&#9;&#9;c0.3-0.5,0.2-0.8,0.2-0.8c-0.2-0.1-1.1-0.2-1.7-0.1c-4.6,0.2-9.9-0.1-11-3.5c-1.4-4.7,7.9-11,12-13.5c2.2-1.2,1.5-3.1,1.4-3.3&#10;&#9;&#9;&#9;&#9;&#9;c0-0.1-0.1-0.2-0.1-0.3c-8-34.1,8.8-58.1,9.6-59.1c0.4-0.6,1.2-0.9,1.9-0.7c23.5,5.4,44.4,27.1,45.3,28c0.6,0.6,0.7,1.5,0.2,2.2&#10;&#9;&#9;&#9;&#9;&#9;c-8.7,14.2-5.6,32.1-5.2,34.1c3.9,8.5-0.8,12.1-2,12.8C133.4,843,127,845.6,123.6,845.6z M122.4,840.8c0,0-0.1,0.8,0.4,1&#10;&#9;&#9;&#9;&#9;&#9;c0.4,0.2,4.4,1.6,21.9-12.8c0.1-0.1,0.2-0.2,0.4-0.2c0.3-0.2,3.4-2.1,0.5-8.4c-0.1-0.1-0.1-0.3-0.1-0.4&#10;&#9;&#9;&#9;&#9;&#9;c-0.2-0.8-4.1-19.7,4.9-35.8c-4.3-4.2-22-20.8-41.2-25.7c-3,4.8-15,26.4-8.3,55c0.7,1.8,0.9,5.6-2.9,7.7&#10;&#9;&#9;&#9;&#9;&#9;c-6.1,3.7-10.6,8-10.3,9.3l0,0c0,0,0.9,1.2,7.2,0.9c0.5-0.1,3.7-0.2,5,1.8c0.6,0.8,1,2.3-0.2,4.5c-0.2,0.4-0.3,0.7-0.3,0.9&#10;&#9;&#9;&#9;&#9;&#9;c0,0,0.2,0.1,0.9,0.1c1.3,0,4.3-0.3,10.6-2.6c0.8-0.5,3.8-2,6.8-1c2.1,0.7,3.6,2.2,4.6,4.7C122.4,840.2,122.5,840.5,122.4,840.8&#10;&#9;&#9;&#9;&#9;&#9;L122.4,840.8z" transform="matrix(1, 0, 0, 1, -7.906951904296875, -520.2790374755859)"/><path fill="#3C2415" d="M179.5,704.8c-40.5,0-62.9-16.7-63.8-17.5c-0.8-0.6-1-1.8-0.3-2.6c0.6-0.8,1.8-1,2.6-0.3&#10;&#9;&#9;&#9;&#9;c0.2,0.2,22.9,17,62.8,16.7c0,0,0,0,0,0c1,0,1.8,0.8,1.8,1.8c0,1-0.8,1.8-1.8,1.8C180.3,704.7,179.9,704.8,179.5,704.8z" transform="matrix(1, 0, 0, 1, -7.906951904296875, -520.2790374755859)"/><path fill="#3C2415" d="M179.1,753.3c-20.2,0-44-5.7-44.3-5.8c-0.4-0.1-0.8-0.3-1-0.7c-12.2-16.2-23-47.9-23.5-49.2&#10;&#9;&#9;&#9;&#9;c-0.3-1,0.2-2,1.1-2.3c1-0.3,2,0.2,2.3,1.1c0.1,0.3,10.9,31.7,22.6,47.7c4,0.9,26,5.8,44.4,5.5c0,0,0,0,0,0c1,0,1.8,0.8,1.8,1.8&#10;&#9;&#9;&#9;&#9;c0,1-0.8,1.8-1.8,1.9C180.2,753.3,179.7,753.3,179.1,753.3z" transform="matrix(1, 0, 0, 1, -7.906951904296875, -520.2790374755859)"/><path fill="#3C2415" d="M124.8,764.4c-0.2,0-0.5,0-0.7-0.1c-0.9-0.4-1.4-1.4-1-2.4c0.2-0.5,5-12.4,11-17.6&#10;&#9;&#9;&#9;&#9;c0.8-0.7,1.9-0.6,2.6,0.2c0.7,0.8,0.6,1.9-0.2,2.6c-5.3,4.5-9.9,16-9.9,16.1C126.2,763.9,125.5,764.4,124.8,764.4z" transform="matrix(1, 0, 0, 1, -7.906951904296875, -520.2790374755859)"/><path fill="#3C2415" d="M180.7,678.5c-0.8,0-1.5-0.5-1.7-1.2c-1.5-4.1-8.5-5.4-13.6-6.4c-1.2-0.2-2.3-0.4-3.2-0.6&#10;&#9;&#9;&#9;&#9;c-3-0.7-5.9-1.3-8.9-1.9c-6.5-1.3-13.3-2.7-19.7-4.9c-7.3-2.5-11.3-6.8-11.7-12.8c-0.1-1,0.7-1.9,1.7-2c1,0,1.9,0.7,1.9,1.7&#10;&#9;&#9;&#9;&#9;c0.3,4.4,3.3,7.6,9.2,9.5c6.3,2.1,12.9,3.5,19.3,4.8c3,0.6,6,1.2,9,1.9c0.9,0.2,1.9,0.4,3.1,0.6c6,1.1,14.2,2.6,16.4,8.7&#10;&#9;&#9;&#9;&#9;c0.3,1-0.2,2-1.1,2.3C181.1,678.4,180.9,678.5,180.7,678.5z" transform="matrix(1, 0, 0, 1, -7.906951904296875, -520.2790374755859)"/><path d="M 171.1 662 A 2.6 3.9 0 0 1 168.5 665.9 A 2.6 3.9 0 0 1 165.9 662 A 2.6 3.9 0 0 1 168.5 658.1 A 2.6 3.9 0 0 1 171.1 662 Z" transform="matrix(0.7998999357223511, -0.6001001596450806, 0.6001001596450806, 0.7998999357223511, -371.46875, -286.66673278808594)" fill="#3C2415"/><path fill="#FFFFFF" d="M139,644.5c-2.2,0.4-4.9,0.2-8.1-1c0,0-12.2-1.9-12.1-18.7c0,0,0.2-20.2,9.4-27.5c0,0,0,0,0,0&#10;&#9;&#9;&#9;&#9;&#9;c1.4-1.1,3-1.9,4.9-2.3c0,0,13.2-0.4,14.8,29.3C147.9,624.2,149.6,642.4,139,644.5z" transform="matrix(1, 0, 0, 1, -7.906951904296875, -520.2790374755859)"/><path fill="#3C2415" d="M136.9,646.5c-2,0-4.2-0.4-6.6-1.3c-1.8-0.4-13.6-3.6-13.5-20.5c0-0.9,0.4-21.2,10.1-28.9&#10;&#9;&#9;&#9;&#9;&#9;c1.7-1.4,3.7-2.3,5.7-2.7c0.1,0,0.1,0,0.4,0c1.2,0,14.9,0.7,16.6,31c0.1,0.7,1.8,19.8-10.3,22.1&#10;&#9;&#9;&#9;&#9;&#9;C138.6,646.4,137.8,646.5,136.9,646.5z M133.2,596.8c-1.4,0.3-2.7,0.9-3.9,1.9c-8.4,6.7-8.7,25.9-8.7,26.1&#10;&#9;&#9;&#9;&#9;&#9;c-0.1,15.1,10.5,16.9,10.6,16.9c0.1,0,0.2,0,0.4,0.1c2.8,1,5.2,1.3,7.1,0.9c0,0,0,0,0,0c8.9-1.7,7.4-18.1,7.4-18.3&#10;&#9;&#9;&#9;&#9;&#9;C144.6,598.8,134.5,596.9,133.2,596.8z" transform="matrix(1, 0, 0, 1, -7.906951904296875, -520.2790374755859)"/><path fill="#3C2415" d="M139,644.5c-13-2.2-15.3-16-15.3-16c-3-14.3,4.1-30.3,4.4-31.2c0,0,0,0,0,0c1.4-1.1,3-1.9,4.9-2.3&#10;&#9;&#9;&#9;&#9;c0,0,13.2-0.4,14.8,29.3C147.9,624.2,149.6,642.4,139,644.5z" transform="matrix(1, 0, 0, 1, -7.906951904296875, -520.2790374755859)"/><path d="M 140.5 607.5 A 5.5 5.5 0 0 1 135 613 A 5.5 5.5 0 0 1 129.5 607.5 A 5.5 5.5 0 0 1 135 602 A 5.5 5.5 0 0 1 140.5 607.5 Z" fill="#FFFFFF" transform="matrix(1, 0, 0, 1, -7.906951904296875, -520.2790374755859)"/><path fill="#3C2415" d="M152.2,603.8c-0.8,0-1.5-0.5-1.8-1.4c-3.7-13.6-21.2-17.2-21.3-17.2c-1-0.2-1.6-1.2-1.4-2.1&#10;&#9;&#9;&#9;&#9;c0.2-1,1.2-1.7,2.1-1.4c0.8,0.2,19.9,4,24.2,19.9c0.3,1-0.3,2-1.3,2.2C152.5,603.8,152.4,603.8,152.2,603.8z" transform="matrix(1, 0, 0, 1, -7.906951904296875, -520.2790374755859)"/><path fill="#CB9783" d="M253.2,756.5c0,0,16.5-2.7,18.5-43.5c0,0-4.7-1-10.3-4.4C263.3,739.4,253.2,756.5,253.2,756.5z" transform="matrix(1, 0, 0, 1, -7.906951904296875, -520.2790374755859)"/><path fill="#3C2415" d="M253.2,758.3c-0.6,0-1.2-0.3-1.5-0.8c-0.4-0.6-0.4-1.4-0.1-2c0.1-0.2,9.8-17.1,8-46.9&#10;&#9;&#9;&#9;&#9;&#9;c0-0.7,0.3-1.3,0.9-1.7c0.6-0.3,1.3-0.3,1.9,0c5.2,3.2,9.6,4.2,9.7,4.2c0.9,0.2,1.5,1,1.5,1.9c-2.1,41.8-19.3,45.1-20,45.2&#10;&#9;&#9;&#9;&#9;&#9;C253.4,758.3,253.3,758.3,253.2,758.3z M263.4,711.8c0.7,19.6-3.4,33.3-6.2,40.3c4.5-4,11.1-13.8,12.5-37.7&#10;&#9;&#9;&#9;&#9;&#9;C268.4,714,266.1,713.2,263.4,711.8z" transform="matrix(1, 0, 0, 1, -7.906951904296875, -520.2790374755859)"/><path fill="#79CFDF" d="M243.6,658.9c0,0,27.8-11.2,71.6,31.9c0,0,5.9,5.4,1,6.4c0,0-5.1,0.2,1.9,6.4c0,0,19.1,14.7-46.4,9.4&#10;&#9;&#9;&#9;&#9;&#9;C271.7,713,236.8,706.9,243.6,658.9z" transform="matrix(1, 0, 0, 1, -7.906951904296875, -520.2790374755859)"/><path fill="#3C2415" d="M296.1,716c-6.4,0-14.5-0.3-24.5-1.1c-0.5-0.1-36.7-7.1-29.8-56.3c0.1-0.6,0.5-1.2,1.1-1.4&#10;&#9;&#9;&#9;&#9;&#9;c1.2-0.5,29.4-11.1,73.5,32.3c0.9,0.9,4.1,4.1,3.4,6.9c-0.3,1-1,2.2-3.3,2.6c0,0-0.1,0-0.1,0c0.3,0.5,1,1.5,2.9,3.2&#10;&#9;&#9;&#9;&#9;&#9;c1.6,1.2,4.1,4.2,2.9,7.3C321.1,712.5,316.8,716,296.1,716z M245.2,660.3c-2.4,18.5,1.5,33.1,11.1,42.4&#10;&#9;&#9;&#9;&#9;&#9;c7.4,7.1,15.6,8.6,15.6,8.6c42.1,3.3,46.4-1.9,46.8-3c0.4-1-1.2-2.7-1.8-3.1c-3.7-3.3-4.9-5.6-4.2-7.5c0.5-1.5,2-2.1,3.2-2.2&#10;&#9;&#9;&#9;&#9;&#9;c0.2,0,0.3-0.1,0.3-0.1c-0.2-0.7-1.2-2.1-2.3-3.1c-22.2-21.8-40-29.2-51-31.6C253.7,658.5,247.5,659.7,245.2,660.3z" transform="matrix(1, 0, 0, 1, -7.906951904296875, -520.2790374755859)"/><path fill="#79CFDF" d="M253.2,756.5c0,0,17.2,23.9,9.3,57.6c0,0-1.5,3.5,2.1,5.6c0,0,23.8,14.5,2.1,13.6c0,0-5.4-0.5-3.2,3.7&#10;&#9;&#9;&#9;&#9;&#9;c0,0,4.7,7.4-13.6,0.8c0,0-6.2-4-8.9,2.7c0,0,1.5,11.9-25.3-10.1c0,0-5.2-2.5-1.3-10.8c0,0,4.3-19.8-5.4-35.7&#10;&#9;&#9;&#9;&#9;&#9;C208.8,784,229.9,761.8,253.2,756.5z" transform="matrix(1, 0, 0, 1, -7.906951904296875, -520.2790374755859)"/><path fill="#3C2415" d="M237.9,845.6c-3.5,0-9.9-2.6-23.4-13.7c-1.2-0.8-5.9-4.4-2-12.8c0.4-2,3.5-19.9-5.2-34.1&#10;&#9;&#9;&#9;&#9;&#9;c-0.4-0.7-0.3-1.6,0.2-2.2c0.9-0.9,21.8-22.7,45.3-28c0.7-0.2,1.5,0.1,1.9,0.7c0.7,1,17.6,25,9.6,59.1c0,0.1-0.1,0.2-0.1,0.3&#10;&#9;&#9;&#9;&#9;&#9;c-0.2,0.5-0.7,2.1,1.3,3.2c4.1,2.5,13.5,8.8,12,13.5c-1,3.5-6.4,3.7-10.9,3.5c-0.7-0.1-1.6,0.1-1.9,0.2c0,0,0.1,0.3,0.3,0.8&#10;&#9;&#9;&#9;&#9;&#9;c0.7,1.1,1.2,3.2,0,4.7c-1.9,2.4-6.7,2-15.9-1.3c-0.1,0-0.3-0.1-0.4-0.2c-0.6-0.4-2.5-1.2-3.9-0.7c-0.9,0.3-1.6,1-2.1,2.3&#10;&#9;&#9;&#9;&#9;&#9;c0,1.3-0.5,3.1-2.2,4.1C239.8,845.4,239,845.6,237.9,845.6z M211.1,784.3c9.1,16.1,5.1,34.9,4.9,35.8c0,0.1-0.1,0.3-0.1,0.4&#10;&#9;&#9;&#9;&#9;&#9;c-3.1,6.5,0.5,8.3,0.5,8.4c0.1,0.1,0.3,0.1,0.4,0.2c17.6,14.5,21.5,13,21.9,12.8c0.4-0.2,0.4-1,0.4-1c0-0.3,0-0.6,0.1-0.9&#10;&#9;&#9;&#9;&#9;&#9;c1-2.5,2.5-4.1,4.6-4.7c3-1,6,0.6,6.8,1c9.9,3.5,11.6,2.4,11.7,2.3c-0.1,0.1-0.2-0.3-0.4-0.6c-1.2-2.3-0.8-3.8-0.2-4.7&#10;&#9;&#9;&#9;&#9;&#9;c1.4-2.1,4.5-1.9,5.1-1.8c6.3,0.3,7.1-1,7.1-1c0.2-1.2-4.2-5.6-10.4-9.3c-3.8-2.1-3.6-5.9-2.9-7.7c6.7-28.6-5.3-50.1-8.3-55&#10;&#9;&#9;&#9;&#9;&#9;C233.1,763.5,215.4,780.1,211.1,784.3z M214.3,819.6L214.3,819.6L214.3,819.6z" transform="matrix(1, 0, 0, 1, -7.906951904296875, -520.2790374755859)"/><path fill="#3C2415" d="M181.9,704.8c-0.4,0-0.8,0-1.2,0c-1,0-1.8-0.8-1.8-1.8c0-1,0.8-1.8,1.8-1.8c0,0,0,0,0,0&#10;&#9;&#9;&#9;&#9;c40,0.3,62.5-16.5,62.8-16.7c0.8-0.6,2-0.5,2.6,0.3c0.6,0.8,0.5,2-0.3,2.6C244.8,688,222.4,704.8,181.9,704.8z" transform="matrix(1, 0, 0, 1, -7.906951904296875, -520.2790374755859)"/><path fill="#3C2415" d="M182.4,753.3c-0.6,0-1.1,0-1.7,0c-1,0-1.8-0.8-1.8-1.9c0-1,0.8-1.9,1.9-1.8c18.3,0.3,40.4-4.6,44.4-5.5&#10;&#9;&#9;&#9;&#9;c11.7-15.9,22.5-47.4,22.6-47.7c0.3-1,1.4-1.5,2.3-1.1c1,0.3,1.5,1.4,1.1,2.3c-0.5,1.3-11.3,33-23.5,49.2c-0.3,0.3-0.6,0.6-1,0.7&#10;&#9;&#9;&#9;&#9;C226.4,747.5,202.6,753.3,182.4,753.3z" transform="matrix(1, 0, 0, 1, -7.906951904296875, -520.2790374755859)"/><path fill="#3C2415" d="M236.7,764.4c-0.7,0-1.4-0.4-1.7-1.2c0-0.1-4.6-11.6-9.9-16.1c-0.8-0.7-0.9-1.8-0.2-2.6&#10;&#9;&#9;&#9;&#9;c0.7-0.8,1.8-0.9,2.6-0.2c6,5.1,10.8,17.1,11,17.6c0.4,0.9-0.1,2-1,2.4C237.1,764.3,236.9,764.4,236.7,764.4z" transform="matrix(1, 0, 0, 1, -7.906951904296875, -520.2790374755859)"/><path fill="#3C2415" d="M180.7,678.5c-0.2,0-0.4,0-0.6-0.1c-1-0.3-1.4-1.4-1.1-2.3c2.2-6.1,10.4-7.6,16.4-8.7&#10;&#9;&#9;&#9;&#9;c1.1-0.2,2.2-0.4,3.1-0.6c3-0.7,6-1.3,9-1.9c6.4-1.3,13-2.7,19.3-4.8c5.9-2,8.9-5.1,9.2-9.5c0.1-1,1-1.8,1.9-1.7&#10;&#9;&#9;&#9;&#9;c1,0.1,1.8,0.9,1.7,2c-0.4,6-4.3,10.3-11.7,12.8c-6.5,2.2-13.2,3.6-19.7,4.9c-3,0.6-6,1.2-8.9,1.9c-0.9,0.2-2,0.4-3.2,0.6&#10;&#9;&#9;&#9;&#9;c-5.1,0.9-12.1,2.2-13.6,6.4C182.2,678,181.5,678.5,180.7,678.5z" transform="matrix(1, 0, 0, 1, -7.906951904296875, -520.2790374755859)"/><path d="M 196.799994 662 A 3.9 2.6 0 0 1 192.899994 664.6 A 3.9 2.6 0 0 1 188.999994 662 A 3.9 2.6 0 0 1 192.899994 659.4 A 3.9 2.6 0 0 1 196.799994 662 Z" transform="matrix(0.6001001596450806, -0.7998999357223511, 0.7998999357223511, 0.6001001596450806, -460.3073425292969, -101.24012756347656)" fill="#3C2415"/><path fill="#FFFFFF" d="M222.5,644.5c2.2,0.4,4.9,0.2,8.1-1c0,0,12.2-1.9,12.1-18.7c0,0-0.2-20.2-9.4-27.5c0,0,0,0,0,0&#10;&#9;&#9;&#9;&#9;&#9;c-1.4-1.1-3-1.9-4.9-2.3c0,0-13.2-0.4-14.8,29.3C213.6,624.2,211.8,642.4,222.5,644.5z" transform="matrix(1, 0, 0, 1, -7.906951904296875, -520.2790374755859)"/><path fill="#3C2415" d="M224.5,646.5c-0.8,0-1.7-0.1-2.4-0.2c-12.1-2.3-10.4-21.4-10.3-22.2c1.7-31,16.1-31,16.7-30.9&#10;&#9;&#9;&#9;&#9;&#9;c0.1,0,0.2,0,0.3,0c2,0.4,4,1.3,5.7,2.7c9.7,7.8,10.1,28,10.1,28.9c0.1,16.9-11.7,20.1-13.5,20.5&#10;&#9;&#9;&#9;&#9;&#9;C228.7,646.1,226.5,646.5,224.5,646.5z M228.3,596.8c-1.2,0.1-11.4,1.9-12.8,27.6c0,0.2-1.5,16.6,7.4,18.3c0,0,0,0,0,0&#10;&#9;&#9;&#9;&#9;&#9;c2,0.4,4.4,0.1,7.1-0.9c0.1,0,0.2-0.1,0.4-0.1c0.4-0.1,10.7-1.9,10.6-16.9c0-0.2-0.3-19.4-8.7-26&#10;&#9;&#9;&#9;&#9;&#9;C231,597.7,229.7,597.1,228.3,596.8z" transform="matrix(1, 0, 0, 1, -7.906951904296875, -520.2790374755859)"/><path fill="#3C2415" d="M222.5,644.5c13-2.2,15.3-16,15.3-16c3-14.3-4.1-30.3-4.4-31.2c0,0,0,0,0,0c-1.4-1.1-3-1.9-4.9-2.3&#10;&#9;&#9;&#9;&#9;c0,0-13.2-0.4-14.8,29.3C213.6,624.2,211.8,642.4,222.5,644.5z" transform="matrix(1, 0, 0, 1, -7.906951904296875, -520.2790374755859)"/><path d="M 232 607.5 A 5.5 5.5 0 0 1 226.5 613 A 5.5 5.5 0 0 1 221 607.5 A 5.5 5.5 0 0 1 226.5 602 A 5.5 5.5 0 0 1 232 607.5 Z" fill="#FFFFFF" transform="matrix(1, 0, 0, 1, -7.906951904296875, -520.2790374755859)"/><path fill="#3C2415" d="M209.3,603.8c-0.2,0-0.3,0-0.5-0.1c-1-0.3-1.6-1.3-1.3-2.2c4.3-15.8,23.4-19.7,24.2-19.9&#10;&#9;&#9;&#9;&#9;c1-0.2,1.9,0.5,2.1,1.4c0.2,1-0.5,2-1.4,2.1c-0.2,0-17.7,3.6-21.3,17.2C210.8,603.3,210.1,603.8,209.3,603.8z" transform="matrix(1, 0, 0, 1, -7.906951904296875, -520.2790374755859)"/>
</svg>