<?xml version="1.0" encoding="utf-8"?>
<svg id="master-artboard" viewBox="0 0 350 350" version="1.1" xmlns="http://www.w3.org/2000/svg" x="0px" y="0px" width="350px" height="350px" enable-background="new 0 0 1400 980"><rect id="ee-background" x="0" y="0" width="350" height="350" style="fill: white; fill-opacity: 0; pointer-events: none;"/>
<path fill="#E1E0D1" d="M610.1,696.3c10.3-32.6,10-63.3,9.8-69.2c13.7-10.1,10.6-26.2,7.4-35c-1.1-3.2-2.8-6-4.8-9.3&#10;&#9;&#9;&#9;c-3.2-5.1-4.1-12.7-4.1-12.8c-0.1-0.6-0.5-1.2-1.1-1.5c-0.6-0.3-1.3-0.2-1.9,0.2c-10.5,7.4-11.7,19.9-11,28.4&#10;&#9;&#9;&#9;c-0.2-0.7-0.9-1.1-1.6-1.2c-0.8-0.1-1.6,0.4-1.9,1.1c-7.7,16.8,0.4,26.3,4.1,29.5c-7.7,9.2-14.9,16.7-19.9,21.5&#10;&#9;&#9;&#9;c2.7-8.4,3.3-17.7-1.8-26.3c0.6-5.5,3.5-43.4-18.6-67.3c-11.7-12.7-28.4-19.1-49.7-19.1c-21.2,0-37.9,6.4-49.7,19.1&#10;&#9;&#9;&#9;c-22.1,24-19.1,61.8-18.6,67.3c-9.8,16.3,1.2,35.5,8.2,45.1c-9.7,5.6-53.6,33.6-66.5,90.5c-0.3,1-1.9,5.9,1,8.1&#10;&#9;&#9;&#9;c2,1.6,4.9,0.8,7.4-0.3c0.4,1.2,1.1,2.4,2.6,3c0.5,0.2,1.1,0.3,1.8,0.3c3.3,0,7.8-3,13.9-9.2c1.4,2.1,3.8,4.8,7.1,4.9&#10;&#9;&#9;&#9;c3.4,0.1,6.5-2.5,9.2-7.8c1.1-2,1.8-4.3,2.4-7.1c0.4-2.2,1.7-5.3,5-7.9l10.4-6.6c-0.4,4-0.7,7.8-0.9,11.5&#10;&#9;&#9;&#9;c-4,3.3-25.3,22.6-19.7,52.7c0.1,0.5,1.4,8.7,7.4,15.4c-4.5,3.8-16.9,15-15.5,24.3c0.6,3.9,3.4,7,8.4,9c0.6,0.2,8.4,3.5,18,3.5&#10;&#9;&#9;&#9;c7.3,0,15.7-1.9,22.7-8.5c0.5-0.4,11.4-10.8,11.6-22.1c0-2-0.3-3.9-1-5.8c2.6,1.1,5.3,2.1,8.2,2.9c0.1,0,0.1,0.1,0.2,0.1&#10;&#9;&#9;&#9;c0.3,0.1,0.6,0.1,0.9,0.2c7.1,1.8,15,2.6,23.8,2.3c1,0,1.6,0,1.7,0c0,0,0,0,0,0c0.1,0,0.2,0,0.5,0c1.7,0.1,3.3,0.1,4.9,0.1&#10;&#9;&#9;&#9;c7.1,0,13.7-0.7,19.6-2.2c0.5-0.1,1-0.2,1.5-0.4c0.1,0,0.1,0,0.2-0.1c2.9-0.8,5.6-1.8,8.2-2.9c-0.7,1.8-1,3.8-1,5.8&#10;&#9;&#9;&#9;c0.2,11.2,11.1,21.6,11.6,22c7,6.6,15.4,8.5,22.7,8.5c9.6,0,17.4-3.2,17.9-3.5c5-2,7.8-5.1,8.4-9c1.3-9.3-11.1-20.5-15.5-24.3&#10;&#9;&#9;&#9;c6-6.7,7.3-14.9,7.4-15.4c5.3-28.3-13.3-47.1-18.8-52c2.1-2.4,4.2-4.9,6.1-7.4l2.5,1.6c3.4,2.7,4.7,5.8,5.1,8&#10;&#9;&#9;&#9;c0.6,2.8,1.4,5.1,2.4,7.1c2.8,5.2,5.9,7.9,9.2,7.8c3.3-0.1,5.7-2.8,7.1-4.9c6.1,6.2,10.6,9.2,13.9,9.2c0.6,0,1.2-0.1,1.8-0.3&#10;&#9;&#9;&#9;c1.5-0.6,2.2-1.8,2.6-3c2.5,1.2,5.4,1.9,7.4,0.3c2.9-2.2,1.3-7.2,1-8C635.5,731.1,622.9,710.9,610.1,696.3z" transform="matrix(1, 0, 0, 1, -333.06127929687506, -515.2041625976562)"/><g transform="matrix(1, 0, 0, 1, -333.0612792968751, -515.2041625976562)">
				<path fill="#FAAE65" d="M573.9,616.5c0,0,10.4-85-66.3-85s-66.3,85-66.3,85C427.8,638,454,666.1,454,666.1&#10;&#9;&#9;&#9;&#9;&#9;c26.5,31.9,53.6,29,53.6,29s27.1,2.9,53.6-29C561.2,666.1,587.4,638,573.9,616.5z"/>
				<path fill="#3C2415" d="M509.6,697c-1,0-1.7,0-2-0.1c-2.8,0.2-29.2,1.5-55.1-29.7c-1-1.1-26.5-28.9-13.1-51.2&#10;&#9;&#9;&#9;&#9;&#9;c-0.6-5.5-3.5-43.4,18.6-67.3c11.7-12.7,28.4-19.1,49.7-19.1s37.9,6.4,49.7,19.1c22.1,24,19.1,61.8,18.6,67.3&#10;&#9;&#9;&#9;&#9;&#9;c13.4,22.3-12.1,50.1-13.2,51.2C539.9,694.7,516.8,697,509.6,697z M507.6,693.3c0.1,0,0.1,0,0.2,0c0.3,0,26.5,2.3,51.9-28.3&#10;&#9;&#9;&#9;&#9;&#9;c0.3-0.4,25.2-27.5,12.5-47.5c-0.2-0.3-0.3-0.8-0.3-1.2c0-0.4,4.7-41-17.6-65.1c-11-11.9-26.7-17.9-46.8-17.9&#10;&#9;&#9;&#9;&#9;&#9;c-20.1,0-35.8,6-46.8,17.9c-22.3,24.1-17.6,64.7-17.6,65.1c0,0.4,0,0.8-0.3,1.2c-12.7,20.1,12.2,47.2,12.4,47.4&#10;&#9;&#9;&#9;&#9;&#9;c25.5,30.7,51.7,28.4,52,28.4C507.5,693.3,507.5,693.3,507.6,693.3z"/>
			</g><path fill="#FAAE65" d="M572.3,650c0,0,13.3-11.7,27.9-29.4h10.4c0,0,4.1,75.3-38.3,121.2c0,0-1.2-32.6-14.9-71.3&#10;&#9;&#9;&#9;&#9;&#9;C557.4,670.4,568.9,657.9,572.3,650z" transform="matrix(1, 0, 0, 1, -333.0612792968751, -515.2041625976562)"/><path fill="#3C2415" d="M572.3,743.6c-0.2,0-0.4,0-0.6-0.1c-0.7-0.3-1.2-0.9-1.3-1.7c0-0.3-1.4-32.8-14.8-70.8&#10;&#9;&#9;&#9;&#9;&#9;c-0.2-0.6-0.1-1.3,0.4-1.8c0.1-0.1,11.3-12.4,14.6-19.9c0.1-0.2,0.3-0.5,0.5-0.7c0.1-0.1,13.3-11.8,27.7-29.2&#10;&#9;&#9;&#9;&#9;&#9;c0.4-0.4,0.9-0.7,1.5-0.7h10.4c1,0,1.8,0.8,1.9,1.7c0,0.8,3.6,76.6-38.8,122.5C573.3,743.3,572.8,743.6,572.3,743.6z&#10;&#9;&#9;&#9;&#9;&#9; M559.6,670.8c10.4,29.8,13.5,56.1,14.3,66.3c34.9-41.1,35.1-103.6,34.9-114.8h-7.7c-13.1,15.8-25.2,26.8-27.2,28.7&#10;&#9;&#9;&#9;&#9;&#9;C570.7,658.1,562.1,667.9,559.6,670.8z" transform="matrix(1, 0, 0, 1, -333.0612792968751, -515.2041625976562)"/><path fill="#BE1E2D" d="M600.2,620.5c0,0-14.2-8.6-5-28.5c0,0,1.2,5,5,7.6c0,0-6.7-24.1,8.9-35.1c0,0,0.9,8,4.4,13.5&#10;&#9;&#9;&#9;&#9;&#9;c1.8,2.9,3.5,5.8,4.7,9c3.2,8.8,6,24.2-7.5,33.5H600.2z" transform="matrix(1, 0, 0, 1, -333.0612792968751, -515.2041625976562)"/><path fill="#3C2415" d="M610.6,622.4h-10.4c-0.4,0-0.7-0.1-1-0.3c-0.2-0.1-15.4-9.7-5.8-30.8c0.3-0.7,1.1-1.2,1.9-1.1&#10;&#9;&#9;&#9;&#9;&#9;c0.7,0.1,1.4,0.5,1.6,1.2c-0.6-8.4,0.5-21,11-28.4c0.5-0.4,1.3-0.5,1.9-0.2c0.6,0.3,1,0.8,1.1,1.5c0,0.1,0.9,7.7,4.1,12.8&#10;&#9;&#9;&#9;&#9;&#9;c2.1,3.3,3.7,6.2,4.8,9.3c3.2,9,6.4,25.5-8.2,35.6C611.4,622.3,611,622.4,610.6,622.4z M600.8,618.7h9.2&#10;&#9;&#9;&#9;&#9;&#9;c12.1-8.7,9.2-23.2,6.4-31.1c-1-2.9-2.5-5.5-4.5-8.6c-2.2-3.5-3.5-8-4.1-10.9c-11.3,10.9-5.8,30.9-5.8,31.1&#10;&#9;&#9;&#9;&#9;&#9;c0.2,0.7-0.1,1.5-0.8,2c-0.7,0.4-1.5,0.4-2.2,0c-1.7-1.2-2.9-2.7-3.8-4.2C591,610.5,598.9,617.3,600.8,618.7z" transform="matrix(1, 0, 0, 1, -333.0612792968751, -515.2041625976562)"/><path fill="#3C2415" d="M507,687.4c-5,0-36.3-1.6-58.4-41.6c-0.5-0.9-0.1-2,0.8-2.5c0.9-0.5,2.1-0.1,2.6,0.8&#10;&#9;&#9;&#9;&#9;c22.4,40.6,55.1,39.7,55.5,39.7c1-0.1,1.9,0.7,2,1.7c0,1-0.8,1.9-1.8,1.9C507.6,687.4,507.4,687.4,507,687.4z" transform="matrix(1, 0, 0, 1, -333.0612792968751, -515.2041625976562)"/><path fill="#3C2415" d="M501.3,678.1c-0.5,1.1-3,1.2-5.5,0.1c-2.6-1-4.2-2.8-3.8-3.9s3-1.2,5.5-0.1&#10;&#9;&#9;&#9;&#9;C500.1,675.3,501.8,677,501.3,678.1z" transform="matrix(1, 0, 0, 1, -333.0612792968751, -515.2041625976562)"/><path fill="#FFFFFF" d="M461.7,637.3c-1.4-0.5-3-1.4-4.7-2.8c0,0-12-6.2-6.6-23.6c0,0,3-12.7,9-18.1c1.7-1.6,4.2-1.8,6.1-0.8&#10;&#9;&#9;&#9;&#9;&#9;c0.9,0.4,1.7,1.2,2.2,2.1c2,3.5,4.1,10.5,4.8,24.2C472.5,618.3,474.5,642.4,461.7,637.3z" transform="matrix(1, 0, 0, 1, -333.0612792968751, -515.2041625976562)"/><path fill="#3C2415" d="M465,639.8c-1.1,0-2.5-0.2-3.9-0.8c-1.6-0.6-3.2-1.6-5.1-2.9c-1.6-0.9-12.8-8.2-7.4-25.6&#10;&#9;&#9;&#9;&#9;&#9;c0.1-0.4,3.2-13.2,9.5-18.9c2.3-2,5.6-2.5,8.3-1.1c1.2,0.6,2.3,1.6,3,2.9c2.8,5,4.5,13.4,5.1,25c0.1,1.6,1.1,15.8-5.2,20.3&#10;&#9;&#9;&#9;&#9;&#9;C468.3,639.2,466.9,639.8,465,639.8z M463,593.3c-0.9,0-1.7,0.3-2.3,0.9c-5.5,5-8.4,17.1-8.5,17.2c-5,15.9,5.6,21.5,5.7,21.6&#10;&#9;&#9;&#9;&#9;&#9;c0.1,0,0.2,0.1,0.3,0.2c1.6,1.2,3.1,2,4.3,2.5c0,0,0,0,0,0c2.9,1.1,4.1,0.2,4.6-0.1c3.9-2.7,3.9-13.5,3.6-17.1&#10;&#9;&#9;&#9;&#9;&#9;c-0.7-13.8-2.9-20.4-4.6-23.5c-0.3-0.6-0.8-1-1.4-1.3C464.1,593.4,463.6,593.3,463,593.3z" transform="matrix(1, 0, 0, 1, -333.0612792968751, -515.2041625976562)"/><path fill="#3C2415" d="M461.7,637.3L461.7,637.3c0,0-11-7.5-7.1-23.6c0,0,4-20.4,10.9-21.8c0.9,0.4,1.7,1.2,2.2,2.1&#10;&#9;&#9;&#9;&#9;c2,3.5,4.1,10.5,4.8,24.2C472.5,618.3,474.5,642.4,461.7,637.3z" transform="matrix(1, 0, 0, 1, -333.0612792968751, -515.2041625976562)"/><path d="M 467.999994 607.700012 A 3.6 3.5 0 0 1 464.399994 611.200012 A 3.6 3.5 0 0 1 460.799994 607.700012 A 3.6 3.5 0 0 1 464.399994 604.200012 A 3.6 3.5 0 0 1 467.999994 607.700012 Z" fill="#FFFFFF" transform="matrix(1, 0, 0, 1, -333.0612792968751, -515.2041625976562)"/><path fill="#FAAE65" d="M450.4,661.7c0,0-53,26.6-67.5,90.6c0,0-3.9,11.3,8.1,4.4c0,0-0.9,13.1,17.2-6.1c0,0,6.4,14.3,14.3-0.6&#10;&#9;&#9;&#9;&#9;&#9;c1.1-2.1,1.8-4.4,2.2-6.7c0.5-2.3,1.8-6,5.8-9l13.8-8.7c0,0,5.6-37.9,13.5-55.2C457.8,670.4,452.4,664.5,450.4,661.7z" transform="matrix(1, 0, 0, 1, -333.0612792968751, -515.2041625976562)"/><path fill="#3C2415" d="M393.9,762.8c-0.6,0-1.2-0.1-1.8-0.3c-1.5-0.6-2.2-1.8-2.6-3c-2.5,1.2-5.4,1.9-7.4,0.3&#10;&#9;&#9;&#9;&#9;&#9;c-2.9-2.2-1.3-7.2-1-8.1c14.4-63.8,67.9-91.3,68.4-91.6c0.8-0.4,1.9-0.2,2.4,0.6c1.9,2.7,7.2,8.5,7.3,8.5&#10;&#9;&#9;&#9;&#9;&#9;c0.5,0.5,0.6,1.3,0.3,1.9c-7.6,16.8-13.3,54.4-13.3,54.7c-0.1,0.5-0.4,1-0.8,1.3l-13.8,8.7c-3.3,2.6-4.5,5.7-5,7.9&#10;&#9;&#9;&#9;&#9;&#9;c-0.6,2.8-1.4,5.1-2.4,7.1c-2.8,5.2-5.8,7.9-9.2,7.8c-3.3-0.1-5.7-2.8-7.1-4.9C401.7,759.8,397.2,762.8,393.9,762.8z M391,754.8&#10;&#9;&#9;&#9;&#9;&#9;c0.3,0,0.7,0.1,1,0.3c0.6,0.4,1,1,0.9,1.7c0,0.8,0.2,2.1,0.7,2.3c0.1,0,3,1,13.2-9.8c0.4-0.5,1.1-0.7,1.7-0.6&#10;&#9;&#9;&#9;&#9;&#9;c0.6,0.1,1.2,0.5,1.4,1.1c0.6,1.3,2.8,5,5.1,5.1c1.8,0,3.7-2,5.7-5.8c0.9-1.7,1.6-3.7,2.1-6.2c0.6-2.8,2.1-6.7,6.5-10.1&#10;&#9;&#9;&#9;&#9;&#9;l13.3-8.3c0.9-5.7,6-37.3,13-53.8c-1.3-1.5-3.9-4.4-5.7-6.6c-8.4,4.8-52.3,32-65.1,88.6c-0.6,1.8-0.7,4-0.3,4.3&#10;&#9;&#9;&#9;&#9;&#9;c0,0,1.2,0.6,5.6-1.9C390.4,754.9,390.7,754.8,391,754.8z" transform="matrix(1, 0, 0, 1, -333.0612792968751, -515.2041625976562)"/><path fill="#FAAE65" d="M442.9,741.7c0,0-25.7,19.2-19.6,51.5c0,0,2.1,13.9,13.9,19.9c0,0,15.8,9.6,30.2-8.8&#10;&#9;&#9;&#9;&#9;&#9;C467.3,804.3,440.7,790.3,442.9,741.7z" transform="matrix(1, 0, 0, 1, -333.0612792968751, -515.2041625976562)"/><path fill="#3C2415" d="M447.2,817.3c-6.5,0-11-2.7-11.1-2.7c-12.3-6.3-14.6-20.5-14.7-21.1c-6.1-32.9,20.1-53,20.4-53.2&#10;&#9;&#9;&#9;&#9;&#9;c0.6-0.4,1.4-0.5,2-0.2c0.7,0.3,1.1,1,1,1.7c-2.2,46.9,23.1,60.7,23.4,60.9c0.5,0.3,0.8,0.7,0.9,1.2c0.1,0.5,0,1.1-0.3,1.5&#10;&#9;&#9;&#9;&#9;&#9;C461.3,814.9,453.4,817.3,447.2,817.3z M440.9,746c-6.5,6.4-20.2,23-15.7,46.8c0,0.2,2.1,13.1,12.9,18.6&#10;&#9;&#9;&#9;&#9;&#9;c0.7,0.4,13.8,8,26.5-6.7C458.5,800.6,440.4,784.9,440.9,746z" transform="matrix(1, 0, 0, 1, -333.0612792968751, -515.2041625976562)"/><path fill="#FAAE65" d="M431.5,809c0,0-29.9,23-9.2,31.4c0,0,23.2,9.9,38.6-4.6c0,0,19.7-18.4,6.4-31.6&#10;&#9;&#9;&#9;&#9;&#9;C467.3,804.3,452.2,826.3,431.5,809z" transform="matrix(1, 0, 0, 1, -333.0612792968751, -515.2041625976562)"/><path fill="#3C2415" d="M439.5,845.6c-9.6,0-17.4-3.2-18-3.5c-5-2-7.8-5-8.4-9c-1.6-11,16.3-25,17.1-25.6c0.7-0.5,1.7-0.5,2.4,0&#10;&#9;&#9;&#9;&#9;&#9;c5.7,4.7,11.4,6.8,17,6c9.6-1.3,15.9-10.3,16-10.4c0.3-0.5,0.8-0.8,1.4-0.8c0.6,0,1.1,0.1,1.5,0.5c3.5,3.4,5.2,7.5,5.2,12.1&#10;&#9;&#9;&#9;&#9;&#9;c-0.2,11.2-11.1,21.6-11.6,22.1C455.3,843.7,446.9,845.6,439.5,845.6z M431.5,811.4c-5.3,4.4-15.5,14.4-14.5,21.3&#10;&#9;&#9;&#9;&#9;&#9;c0.4,2.6,2.4,4.6,6.1,6.1c0.3,0.1,22.3,9.2,36.5-4.3c0.1,0,4.8-4.5,7.8-10.4c3.5-6.7,3.4-12.3,0-16.9c-2.6,3.1-8.7,9-17.1,10.1&#10;&#9;&#9;&#9;&#9;&#9;C444,818.1,437.7,816.2,431.5,811.4z" transform="matrix(1, 0, 0, 1, -333.0612792968751, -515.2041625976562)"/><path fill="#3C2415" d="M508.2,687.4c-0.3,0-0.5,0-0.6,0c-1,0-1.9-0.9-1.8-1.9c0-1,0.9-1.9,2-1.8c0.3,0,33.2,0.8,55.5-39.7&#10;&#9;&#9;&#9;&#9;c0.5-0.9,1.6-1.2,2.6-0.8c0.9,0.5,1.3,1.6,0.8,2.5C544.5,685.7,513.2,687.4,508.2,687.4z" transform="matrix(1, 0, 0, 1, -333.0612792968751, -515.2041625976562)"/><path fill="#3C2415" d="M513.9,678.1c0.5,1.1,3,1.2,5.5,0.1c2.6-1,4.2-2.8,3.8-3.9c-0.5-1.1-3-1.2-5.5-0.1&#10;&#9;&#9;&#9;&#9;C515.1,675.3,513.4,677,513.9,678.1z" transform="matrix(1, 0, 0, 1, -333.0612792968751, -515.2041625976562)"/><path fill="#FFFFFF" d="M553.5,637.3c1.4-0.5,3-1.4,4.7-2.8c0,0,12-6.2,6.6-23.6c0,0-3-12.7-9-18.1c-1.7-1.6-4.2-1.8-6.1-0.8&#10;&#9;&#9;&#9;&#9;&#9;c-0.9,0.4-1.7,1.2-2.2,2.1c-2,3.5-4.1,10.5-4.8,24.2C542.7,618.3,540.7,642.4,553.5,637.3z" transform="matrix(1, 0, 0, 1, -333.0612792968751, -515.2041625976562)"/><path fill="#3C2415" d="M550.2,639.8c-1.9,0-3.3-0.6-4.3-1.3c-6.3-4.4-5.3-18.7-5.1-20.3c0.6-11.5,2.3-19.9,5.1-24.9&#10;&#9;&#9;&#9;&#9;&#9;c0.7-1.2,1.7-2.2,3-2.9c2.7-1.4,6-0.9,8.3,1.1c6.3,5.7,9.4,18.5,9.6,19.1c5.4,17.3-5.9,24.6-7.4,25.5c-1.9,1.4-3.5,2.3-5.1,2.9&#10;&#9;&#9;&#9;&#9;&#9;C552.7,639.6,551.4,639.8,550.2,639.8z M552.2,593.3c-0.5,0-1.1,0.1-1.6,0.4c-0.6,0.3-1.1,0.8-1.4,1.3&#10;&#9;&#9;&#9;&#9;&#9;c-1.7,3.1-3.9,9.7-4.6,23.5c-0.4,5.4,0.1,14.7,3.6,17.2c0.4,0.3,1.7,1.2,4.6,0.1c0,0,0,0,0,0c1.2-0.5,2.7-1.3,4.3-2.5&#10;&#9;&#9;&#9;&#9;&#9;c0.1-0.1,0.2-0.1,0.3-0.2c0.4-0.2,10.6-5.8,5.7-21.5c-0.1-0.2-3-12.4-8.5-17.3C553.9,593.6,553,593.3,552.2,593.3z" transform="matrix(1, 0, 0, 1, -333.0612792968751, -515.2041625976562)"/><path fill="#3C2415" d="M553.5,637.3L553.5,637.3c0,0,11-7.5,7.1-23.6c0,0-4-20.4-10.9-21.8c-0.9,0.4-1.7,1.2-2.2,2.1&#10;&#9;&#9;&#9;&#9;c-2,3.5-4.1,10.5-4.8,24.2C542.7,618.3,540.7,642.4,553.5,637.3z" transform="matrix(1, 0, 0, 1, -333.0612792968751, -515.2041625976562)"/><path d="M 554.399988 607.700012 A 3.6 3.5 0 0 1 550.799988 611.200012 A 3.6 3.5 0 0 1 547.199988 607.700012 A 3.6 3.5 0 0 1 550.799988 604.200012 A 3.6 3.5 0 0 1 554.399988 607.700012 Z" fill="#FFFFFF" transform="matrix(1, 0, 0, 1, -333.0612792968751, -515.2041625976562)"/><path fill="#FAAE65" d="M557.4,670.4c-24.7,27-49.8,24.7-49.8,24.7s-25.1,2.3-49.8-24.7c0,0-56.2,147.7,49.8,142.5&#10;&#9;&#9;&#9;&#9;&#9;C613.6,818.1,557.4,670.4,557.4,670.4z" transform="matrix(1, 0, 0, 1, -333.0612792968751, -515.2041625976562)"/><path fill="#3C2415" d="M512.9,814.9c-1.8,0-3.6,0-5.4-0.1c-24.3,1.2-42.3-5.5-53.4-20.1c-12.7-16.6-16.2-42.7-10.5-77.6&#10;&#9;&#9;&#9;&#9;&#9;c4.3-25.8,12.3-47.1,12.4-47.3c0.2-0.6,0.8-1.1,1.4-1.2c0.7-0.1,1.3,0.1,1.8,0.6c23.8,26,48,24.1,48.2,24.1c0.1,0,0.2,0,0.4,0&#10;&#9;&#9;&#9;&#9;&#9;c0.2,0,24.5,1.8,48.2-24.1c0.4-0.5,1.1-0.7,1.8-0.6c0.7,0.1,1.2,0.6,1.4,1.2c0.1,0.2,8.1,21.5,12.4,47.3&#10;&#9;&#9;&#9;&#9;&#9;c5.8,34.9,2.2,61-10.5,77.6C550.8,808.1,534.6,814.9,512.9,814.9z M507.5,811.1c23.3,1.1,40.2-5.1,50.5-18.6&#10;&#9;&#9;&#9;&#9;&#9;c25.9-33.8,3.8-103.6-1.4-118.6c-23.5,24.1-46.6,23.2-49.1,23c-2.5,0.2-25.5,1.1-49.1-23c-5.2,15-27.2,84.8-1.4,118.6&#10;&#9;&#9;&#9;&#9;&#9;C467.5,806,484.4,812.2,507.5,811.1z" transform="matrix(1, 0, 0, 1, -333.0612792968751, -515.2041625976562)"/><path fill="#FFEBA8" d="M558.8,748.1c0,0-5-32.6-31.6-56.6c0,0-9.8,4.3-19.6,3.6c-9.8,0.8-19.6-3.6-19.6-3.6&#10;&#9;&#9;&#9;&#9;&#9;c-26.6,23.9-31.6,56.6-31.6,56.6c-8.8,41,25.3,62.4,25.3,62.4c11.8,3,25.9,2.4,25.9,2.4s14.1,0.7,25.9-2.4&#10;&#9;&#9;&#9;&#9;&#9;C533.5,810.5,567.6,789.1,558.8,748.1z" transform="matrix(1, 0, 0, 1, -333.0612792968751, -515.2041625976562)"/><path fill="#3C2415" d="M511.1,814.8c-2.1,0-3.4-0.1-3.6-0.1c-0.4,0-14.4,0.6-26.3-2.4c-0.2-0.1-0.4-0.1-0.5-0.2&#10;&#9;&#9;&#9;&#9;&#9;c-0.4-0.2-35.1-22.6-26.1-64.3c0.2-1.3,5.3-33.5,32.2-57.5c0.6-0.5,1.4-0.6,2.1-0.3c0.1,0,9.5,4.1,18.7,3.4c0.1,0,0.2,0,0.3,0&#10;&#9;&#9;&#9;&#9;&#9;c9.3,0.7,18.6-3.4,18.7-3.4c0.7-0.3,1.5-0.2,2.1,0.3c26.5,23.8,31.9,55.6,32.2,57.6c9,41.7-25.7,64.1-26.1,64.3&#10;&#9;&#9;&#9;&#9;&#9;c-0.2,0.1-0.4,0.2-0.5,0.2C525.6,814.5,516.1,814.8,511.1,814.8z M507.5,811.1c0.3,0,13.9,0.6,25.2-2.2&#10;&#9;&#9;&#9;&#9;&#9;c3.2-2.1,32.4-22.5,24.2-60.4c0,0,0-0.1,0-0.1c0-0.3-5.1-31.6-30.1-54.7c-3,1.1-11,3.9-19.2,3.2c-8.2,0.6-16.2-2.1-19.2-3.2&#10;&#9;&#9;&#9;&#9;&#9;c-25.1,23.1-30.1,54.4-30.1,54.7c-8.1,37.6,21.2,58.5,24.2,60.5C493.8,811.7,507.4,811.1,507.5,811.1z M533.5,810.5L533.5,810.5&#10;&#9;&#9;&#9;&#9;&#9;L533.5,810.5z" transform="matrix(1, 0, 0, 1, -333.0612792968751, -515.2041625976562)"/><path fill="#FAAE65" d="M564.8,661.7c0,0,53,26.6,67.5,90.6c0,0,3.9,11.3-8.1,4.4c0,0,0.9,13.1-17.2-6.1c0,0-6.4,14.3-14.3-0.6&#10;&#9;&#9;&#9;&#9;&#9;c-1.1-2.1-1.8-4.4-2.2-6.7c-0.5-2.3-1.8-6-5.8-9l-13.8-8.7c0,0-5.6-37.9-13.5-55.2C557.4,670.4,562.8,664.5,564.8,661.7z" transform="matrix(1, 0, 0, 1, -333.0612792968751, -515.2041625976562)"/><path fill="#3C2415" d="M621.3,762.8c-3.3,0-7.8-3-13.9-9.2c-1.4,2.1-3.8,4.8-7.1,4.9c-3.4,0.1-6.5-2.5-9.2-7.8&#10;&#9;&#9;&#9;&#9;&#9;c-1.1-2-1.8-4.3-2.4-7.1c-0.4-2.2-1.7-5.3-5.1-8l-13.7-8.6c-0.5-0.3-0.8-0.8-0.8-1.3c-0.1-0.4-5.7-37.9-13.3-54.7&#10;&#9;&#9;&#9;&#9;&#9;c-0.3-0.7-0.2-1.4,0.3-1.9c0.1-0.1,5.4-5.9,7.3-8.5c0.5-0.7,1.6-1,2.4-0.6c0.5,0.3,54,27.8,68.4,91.8c0.3,0.8,1.8,5.7-1,8&#10;&#9;&#9;&#9;&#9;&#9;c-2,1.6-4.9,0.8-7.4-0.3c-0.4,1.2-1.1,2.4-2.6,3C622.5,762.7,621.9,762.8,621.3,762.8z M607,748.7c0.5,0,1,0.2,1.4,0.6&#10;&#9;&#9;&#9;&#9;&#9;c10.2,10.8,13.1,9.8,13.2,9.8c0.5-0.2,0.7-1.5,0.7-2.4c0-0.7,0.3-1.3,0.9-1.7c0.6-0.4,1.4-0.4,2,0c4.4,2.6,5.6,1.9,5.6,1.9&#10;&#9;&#9;&#9;&#9;&#9;c0.5-0.4,0.3-2.5-0.2-4.1c-12.8-56.8-56.7-84-65.1-88.7c-1.8,2.2-4.4,5.2-5.7,6.6c7.1,16.4,12.1,48.1,13,53.8l13.1,8.2&#10;&#9;&#9;&#9;&#9;&#9;c4.5,3.5,6.1,7.5,6.6,10.2c0.5,2.5,1.2,4.5,2.1,6.2c2,3.7,4,5.8,5.7,5.8c0,0,0,0,0.1,0c2.3-0.1,4.5-3.8,5.1-5.1&#10;&#9;&#9;&#9;&#9;&#9;c0.3-0.6,0.8-1,1.4-1.1C606.8,748.7,606.9,748.7,607,748.7z" transform="matrix(1, 0, 0, 1, -333.0612792968751, -515.2041625976562)"/><path fill="#FAAE65" d="M572.3,741.7c0,0,25.7,19.2,19.6,51.5c0,0-2.1,13.9-13.9,19.9c0,0-15.8,9.6-30.2-8.8&#10;&#9;&#9;&#9;&#9;&#9;C547.9,804.3,574.5,790.3,572.3,741.7z" transform="matrix(1, 0, 0, 1, -333.0612792968751, -515.2041625976562)"/><path fill="#3C2415" d="M568,817.3c-6.2,0-14.1-2.4-21.6-12c-0.3-0.4-0.5-1-0.3-1.5c0.1-0.5,0.5-1,0.9-1.2&#10;&#9;&#9;&#9;&#9;&#9;c0.3-0.1,25.6-14.2,23.4-60.9c0-0.7,0.4-1.4,1-1.7c0.7-0.3,1.5-0.3,2,0.2c0.3,0.2,26.5,20.3,20.3,53.2&#10;&#9;&#9;&#9;&#9;&#9;c-0.1,0.5-2.4,14.8-14.8,21.2C578.9,814.7,574.4,817.3,568,817.3z M550.7,804.7c12.8,14.8,25.8,7.1,26.4,6.8&#10;&#9;&#9;&#9;&#9;&#9;c10.9-5.5,13-18.5,13-18.6c4.5-23.9-9.3-40.5-15.7-46.9C574.8,784.9,556.7,800.6,550.7,804.7z" transform="matrix(1, 0, 0, 1, -333.0612792968751, -515.2041625976562)"/><path fill="#FAAE65" d="M583.7,809c0,0,29.9,23,9.2,31.4c0,0-23.2,9.9-38.6-4.6c0,0-19.7-18.4-6.4-31.6&#10;&#9;&#9;&#9;&#9;&#9;C547.9,804.3,563,826.3,583.7,809z" transform="matrix(1, 0, 0, 1, -333.0612792968751, -515.2041625976562)"/><path fill="#3C2415" d="M575.7,845.6c-7.3,0-15.7-1.9-22.7-8.5c-0.5-0.4-11.4-10.8-11.6-22c-0.1-4.6,1.7-8.7,5.2-12.1&#10;&#9;&#9;&#9;&#9;&#9;c0.4-0.4,1-0.6,1.5-0.5c0.6,0.1,1.1,0.4,1.4,0.8c0.1,0.1,6.4,9.1,16,10.4c5.6,0.8,11.3-1.3,17-6c0.7-0.6,1.7-0.6,2.4,0&#10;&#9;&#9;&#9;&#9;&#9;c0.8,0.6,18.7,14.5,17.1,25.6c-0.6,3.9-3.4,7-8.4,9C593,842.4,585.2,845.6,575.7,845.6z M547.8,807.2c-3.5,4.6-3.5,10.2,0,16.9&#10;&#9;&#9;&#9;&#9;&#9;c3.1,5.9,7.8,10.4,7.8,10.4c14.2,13.5,36.3,4.4,36.5,4.3c3.8-1.5,5.8-3.5,6.1-6.1c1-6.9-9.2-16.9-14.5-21.3&#10;&#9;&#9;&#9;&#9;&#9;c-6.2,4.8-12.5,6.7-18.8,5.9C556.5,816.2,550.5,810.3,547.8,807.2z" transform="matrix(1, 0, 0, 1, -333.0612792968751, -515.2041625976562)"/>
</svg>