<?xml version="1.0" encoding="utf-8"?>
<svg id="master-artboard" viewBox="0 0 350 350" version="1.1" xmlns="http://www.w3.org/2000/svg" x="0px" y="0px" width="350px" height="350px" enable-background="new 0 0 1400 980"><rect id="ee-background" x="0" y="0" width="350" height="350" style="fill: white; fill-opacity: 0; pointer-events: none;"/>
<path fill="#E1E0D1" d="M639.2,210c-30.3,1.8-41,37.4-41,37.6c-2.6,6.3-5.4,17.9-6.9,24.8c-13.8-28.6-40.9-57.1-94-60.4&#10;&#9;&#9;&#9;c-77.2,4.9-99.2,63.1-105.5,97.4c-4,22-2.8,44.1,3.7,63.9c9.9,30.6,28.1,47.8,46.4,57.4c-9.4,2.5-29.1,10-32.7,30&#10;&#9;&#9;&#9;c-0.1,0.4-1.7,8.9,3.7,15.1c3.4,3.8,8.7,5.8,15.8,5.8c1.1,0,2.1,0,3.3-0.1c0.4,0,38.2-3.2,47.8-39.5c9.7,1.1,16.6,0.5,17.9,0.4&#10;&#9;&#9;&#9;c0.7,0.1,2.8,0.2,6.1,0.2c3,0,7.1-0.1,11.7-0.7c9.5,36.3,47.4,39.4,47.7,39.5c1.1,0.1,2.2,0.1,3.3,0.1c7.1,0,12.4-1.9,15.8-5.8&#10;&#9;&#9;&#9;c5.4-6.1,3.7-14.7,3.7-15c-3.6-20-23.3-27.5-32.7-30c18.3-9.6,36.5-26.8,46.4-57.4c5.4-16.5,7.1-34.6,5.2-52.9&#10;&#9;&#9;&#9;c40.8-17.7,65.3-37.1,72.8-57.7c3.8-10.6,3.1-21.2-2.2-31.6C668.3,217.4,654.2,209.1,639.2,210z" transform="matrix(1, 0, 0, 1, -341.7347412109375, -156.1224822998047)"/><g transform="matrix(1, 0, 0, 1, -341.7347412109375, -156.1224822998047)">
				<path fill="#496EAC" d="M594.1,304c-6.6-36-29-91.2-103.9-95.9c-74.9,4.7-97.3,59.9-103.9,95.9c-3.9,21-3,42.7,3.6,63&#10;&#9;&#9;&#9;&#9;&#9;c24.7,76.2,100.2,67.8,100.2,67.8s75.6,8.4,100.2-67.8C597,346.8,597.9,325,594.1,304z"/>
				<path fill="#3C2415" d="M496.3,436.9c-3.3,0-5.5-0.2-6.1-0.2c-4.4,0.4-77.8,5.8-102-69c-6.4-19.9-7.7-42-3.7-63.9&#10;&#9;&#9;&#9;&#9;&#9;c6.3-34.3,28.4-92.5,105.5-97.4c77.4,4.9,99.5,63.1,105.8,97.4l0,0c4,22,2.8,44.1-3.7,63.9C571.5,431.3,515.3,436.9,496.3,436.9&#10;&#9;&#9;&#9;&#9;&#9;z M490.1,210c-74.4,4.7-95.8,61.2-101.9,94.4c-3.9,21.4-2.7,42.9,3.6,62.2c23.9,73.8,97.6,66.6,98.3,66.5c0.1,0,0.3,0,0.4,0&#10;&#9;&#9;&#9;&#9;&#9;c0.7,0.1,74.4,7.3,98.3-66.5c6.3-19.3,7.5-40.8,3.6-62.2l0,0C586.1,271.1,564.8,214.7,490.1,210z"/>
			</g><path fill="#496EAC" d="M439.9,425.8c0,0-31.7,4.3-36.2,29.6c0,0-4.2,20.4,20.8,18.5c0,0,37.8-2.7,46.5-39.5&#10;&#9;&#9;&#9;&#9;&#9;C471,434.3,450,431.2,439.9,425.8z" transform="matrix(1, 0, 0, 1, -341.7347412109375, -156.1224822998047)"/><path fill="#3C2415" d="M421.3,475.8c-7.1,0-12.4-1.9-15.8-5.8c-5.4-6.1-3.7-14.7-3.7-15.1c4.7-26.3,37.4-31,37.7-31&#10;&#9;&#9;&#9;&#9;&#9;c0.4-0.1,0.8,0,1.1,0.2c9.7,5.2,30.3,8.4,30.5,8.4c0.5,0.1,1,0.4,1.2,0.8c0.3,0.4,0.4,0.9,0.3,1.4&#10;&#9;&#9;&#9;&#9;&#9;c-8.9,37.7-47.8,40.9-48.1,40.9C423.5,475.8,422.4,475.8,421.3,475.8z M439.5,427.7c-4.2,0.7-30.2,6.1-34.1,28&#10;&#9;&#9;&#9;&#9;&#9;c0,0.1-1.4,7.2,2.8,12c3.1,3.5,8.5,5,16,4.4c1.5-0.1,35.3-3,44.4-36.2C463.3,434.9,448.2,432.1,439.5,427.7z" transform="matrix(1, 0, 0, 1, -341.7347412109375, -156.1224822998047)"/><path fill="#FFFFFF" d="M443.7,246.8c0,0-32.6,10.6-32.5,45.3c0,0,0.4,12.8,11,17c0,0,17,9.4,30.8-22.5c1.2-2.9,2.2-5.9,2.9-9&#10;&#9;&#9;&#9;&#9;&#9;C458.1,266.8,461.8,241.4,443.7,246.8z" transform="matrix(1, 0, 0, 1, -341.7347412109375, -156.1224822998047)"/><path fill="#3C2415" d="M428.2,312.2c-4.1,0-6.7-1.4-6.9-1.5c-11.4-4.4-11.9-18-11.9-18.6c-0.1-35.7,33.4-47,33.8-47.1&#10;&#9;&#9;&#9;&#9;&#9;c0,0,0,0,0,0c5.1-1.5,9.1-0.9,11.9,1.7c6.3,5.9,4.8,20.2,2.5,31.3c-0.7,3.2-1.7,6.3-3,9.3c-5.6,13.1-12.6,21.2-20.6,23.9&#10;&#9;&#9;&#9;&#9;&#9;C431.9,312,429.9,312.2,428.2,312.2z M444.3,248.5c-1.6,0.5-31.3,10.8-31.2,43.6c0,0.1,0.5,11.6,9.8,15.3&#10;&#9;&#9;&#9;&#9;&#9;c0.4,0.2,4.4,2.3,10.1,0.3c6.9-2.4,13.2-10,18.3-21.9c1.2-2.8,2.1-5.7,2.8-8.6c3-13.9,2.5-24.3-1.4-27.8&#10;&#9;&#9;&#9;&#9;&#9;C450.8,247.7,448,247.4,444.3,248.5z" transform="matrix(1, 0, 0, 1, -341.7347412109375, -156.1224822998047)"/><path fill="#3C2415" d="M424.1,269.5c-3.2,7.3-6,17.4-1.4,23.8c0,0,11.1,12.3,23.2-4.3c1.4-1.9,2.6-4.1,3.5-6.3&#10;&#9;&#9;&#9;&#9;c2-4.8,5-13.8,3.8-21.8c-0.8-5.5-6.5-8.9-11.8-7.4c-0.1,0-0.2,0.1-0.3,0.1C433.4,256,427.4,262,424.1,269.5z" transform="matrix(1, 0, 0, 1, -341.7347412109375, -156.1224822998047)"/><path d="M 450.200012 267 A 9 6.7 0 0 1 441.200012 273.7 A 9 6.7 0 0 1 432.200012 267 A 9 6.7 0 0 1 441.200012 260.3 A 9 6.7 0 0 1 450.200012 267 Z" transform="matrix(0.5, -0.8659999966621399, 0.8659999966621399, 0.5, -352.4098415374756, 359.48170471191406)" fill="#FFFFFF"/><path d="M 563.100014 370 A 72.900002 59.599998 0 0 1 490.200012 429.599998 A 72.900002 59.599998 0 0 1 417.300011 370 A 72.900002 59.599998 0 0 1 490.200012 310.400002 A 72.900002 59.599998 0 0 1 563.100014 370 Z" fill="#FFFFFF" transform="matrix(1, 0, 0, 1, -341.7347412109375, -156.1224822998047)"/><path fill="#3C2415" d="M490.2,431.4c-41.2,0-74.7-27.5-74.7-61.4c0-33.9,33.5-61.4,74.7-61.4c41.2,0,74.7,27.5,74.7,61.4&#10;&#9;&#9;&#9;&#9;&#9;C564.9,403.8,531.4,431.4,490.2,431.4z M490.2,312.2c-39.2,0-71.1,25.9-71.1,57.7c0,31.8,31.9,57.7,71.1,57.7&#10;&#9;&#9;&#9;&#9;&#9;c39.2,0,71.1-25.9,71.1-57.7C561.3,338.1,529.4,312.2,490.2,312.2z" transform="matrix(1, 0, 0, 1, -341.7347412109375, -156.1224822998047)"/><path fill="#496EAC" d="M540.5,425.8c0,0,31.7,4.3,36.2,29.6c0,0,4.2,20.4-20.8,18.5c0,0-37.8-2.7-46.5-39.5&#10;&#9;&#9;&#9;&#9;&#9;C509.4,434.3,530.4,431.2,540.5,425.8z" transform="matrix(1, 0, 0, 1, -341.7347412109375, -156.1224822998047)"/><path fill="#3C2415" d="M559.1,475.8c-1.1,0-2.1,0-3.3-0.1c-0.4,0-39.3-3.3-48.1-40.9c-0.1-0.5,0-1,0.3-1.4&#10;&#9;&#9;&#9;&#9;&#9;c0.3-0.4,0.7-0.7,1.2-0.8c0.2,0,20.8-3.2,30.5-8.4c0.3-0.2,0.7-0.3,1.1-0.2c0.3,0,33,4.8,37.7,31.1c0.1,0.3,1.7,8.9-3.7,15&#10;&#9;&#9;&#9;&#9;&#9;C571.5,473.9,566.2,475.8,559.1,475.8z M511.7,435.8c9,33.2,42.9,36.1,44.4,36.2c7.6,0.6,12.9-0.9,16-4.4&#10;&#9;&#9;&#9;&#9;&#9;c4.2-4.8,2.8-11.8,2.8-11.9c-3.9-22-29.9-27.3-34.1-28.1C532.2,432.1,517.1,434.9,511.7,435.8z" transform="matrix(1, 0, 0, 1, -341.7347412109375, -156.1224822998047)"/><path fill="#FFFFFF" d="M536.7,246.8c0,0,32.6,10.6,32.5,45.3c0,0-0.4,12.8-11,17c0,0-17,9.4-30.8-22.5c-1.2-2.9-2.2-5.9-2.9-9&#10;&#9;&#9;&#9;&#9;&#9;C522.3,266.8,518.6,241.4,536.7,246.8z" transform="matrix(1, 0, 0, 1, -341.7347412109375, -156.1224822998047)"/><path fill="#3C2415" d="M552.2,312.3c-1.7,0-3.7-0.3-5.9-1c-8-2.7-14.9-10.8-20.6-23.9c-1.3-3-2.3-6.1-3-9.3&#10;&#9;&#9;&#9;&#9;&#9;c-2.4-11-3.9-25.4,2.5-31.3c2.9-2.6,6.9-3.2,11.9-1.7c0,0,0,0,0,0c0.3,0.1,33.8,11.4,33.8,47.1c0,0.6-0.5,14.2-12.1,18.7&#10;&#9;&#9;&#9;&#9;&#9;C558.9,310.9,556.3,312.3,552.2,312.3z M532.1,247.9c-1.8,0-3.2,0.5-4.4,1.6c-3.8,3.6-4.4,14-1.4,27.8c0.6,3,1.6,5.9,2.8,8.6&#10;&#9;&#9;&#9;&#9;&#9;c5.1,11.9,11.5,19.5,18.3,21.9c5.6,2,9.7-0.1,9.9-0.2c9.6-3.8,10-15.3,10-15.4c0.1-32.7-30.3-43.2-31.2-43.5&#10;&#9;&#9;&#9;&#9;&#9;C534.6,248.1,533.3,247.9,532.1,247.9z" transform="matrix(1, 0, 0, 1, -341.7347412109375, -156.1224822998047)"/><path fill="#3C2415" d="M556.2,269.5c3.2,7.3,6,17.4,1.4,23.8c0,0-11.1,12.3-23.2-4.3c-1.4-1.9-2.6-4.1-3.5-6.3&#10;&#9;&#9;&#9;&#9;c-2-4.8-5-13.8-3.8-21.8c0.8-5.5,6.5-8.9,11.8-7.4c0.1,0,0.2,0.1,0.3,0.1C546.9,256,553,262,556.2,269.5z" transform="matrix(1, 0, 0, 1, -341.7347412109375, -156.1224822998047)"/><path d="M 545.900012 267 A 6.7 9 0 0 1 539.200012 276 A 6.7 9 0 0 1 532.500012 267 A 6.7 9 0 0 1 539.200012 258 A 6.7 9 0 0 1 545.900012 267 Z" transform="matrix(0.8659999966621399, -0.5, 0.5, 0.8659999966621399, -403.0198402404785, 149.2526092529297)" fill="#FFFFFF"/><path fill="#EBB9D3" d="M522,301.6c-11.4-10.7-31.8-9.1-31.8-9.1s-20.5-1.7-31.8,9.1c-8.8,8.3-5.6,22.7,6.1,26.7&#10;&#9;&#9;&#9;&#9;&#9;c5.7,1.9,13.8,3.4,25.7,3.4c11.9,0,20.1-1.4,25.7-3.4C527.7,324.2,530.8,309.9,522,301.6z" transform="matrix(1, 0, 0, 1, -341.7347412109375, -156.1224822998047)"/><path fill="#3C2415" d="M490.2,333.4c-10.8,0-19.6-1.2-26.3-3.5c-6.1-2.1-10.6-7-11.9-13.2c-1.3-6,0.6-12.2,5.2-16.6&#10;&#9;&#9;&#9;&#9;&#9;c11.4-10.8,31-9.7,33.1-9.6c2.1-0.2,21.7-1.2,33.1,9.6c4.6,4.3,6.5,10.5,5.2,16.6c-1.3,6.1-5.8,11.1-11.9,13.2&#10;&#9;&#9;&#9;&#9;&#9;C509.8,332.2,500.9,333.4,490.2,333.4z M487.2,294.2c-5.9,0-19.4,0.9-27.6,8.7c-3.6,3.4-5.2,8.4-4.1,13.1&#10;&#9;&#9;&#9;&#9;&#9;c1.1,4.9,4.6,8.8,9.6,10.5c6.3,2.2,14.8,3.3,25.2,3.3s18.8-1.1,25.2-3.3c4.9-1.7,8.5-5.6,9.6-10.5c1-4.8-0.5-9.7-4.1-13.1&#10;&#9;&#9;&#9;&#9;&#9;c-10.6-10.1-30.2-8.6-30.4-8.6c-0.1,0-0.2,0-0.3,0C490,294.3,488.9,294.2,487.2,294.2z" transform="matrix(1, 0, 0, 1, -341.7347412109375, -156.1224822998047)"/><path fill="#CC81A9" d="M490.6,305.5c-0.1,0-0.3,0-0.4,0c-0.1,0-0.3,0-0.4,0c-14.1,0-25.5,3.6-25.5,8c0,4.4,11.4,8,25.5,8&#10;&#9;&#9;&#9;&#9;&#9;c0.1,0,0.3,0,0.4,0c0.1,0,0.3,0,0.4,0c14.1,0,25.5-3.6,25.5-8C516.1,309.1,504.7,305.5,490.6,305.5z" transform="matrix(1, 0, 0, 1, -341.7347412109375, -156.1224822998047)"/><path fill="#3C2415" d="M490.6,323.4l-0.4,0l-0.4,0c-13.6,0-27.3-3.4-27.3-9.9c0-6.5,13.8-9.9,27.3-9.9l0.4,0l0.4,0&#10;&#9;&#9;&#9;&#9;&#9;c13.6,0,27.3,3.4,27.3,9.9C517.9,320.1,504.2,323.4,490.6,323.4z M490.2,319.8l0.4,0c15.3,0,23.7-4.1,23.7-6.2&#10;&#9;&#9;&#9;&#9;&#9;c0-2.1-8.4-6.2-23.7-6.2v-1.8l-0.2,1.8l-0.4,0c0,0,0,0,0,0c-15.5,0-23.8,4.1-23.8,6.2c0,2.1,8.4,6.2,23.7,6.2L490.2,319.8z" transform="matrix(1, 0, 0, 1, -341.7347412109375, -156.1224822998047)"/><path fill="#7692C3" d="M584.7,272.5c0,0,4.1-20.8,7.9-29.8c0,0,10-34.7,39.4-36.5c14.3-0.9,27.8,7.3,34.4,20.1&#10;&#9;&#9;&#9;&#9;&#9;c9.7,19.1,9.9,52.7-70.9,87.4C595.5,313.6,591.5,286,584.7,272.5z" transform="matrix(1, 0, 0, 1, -341.7347412109375, -156.1224822998047)"/><path fill="#3C2415" d="M595.5,315.4c-0.3,0-0.6-0.1-0.9-0.2c-0.5-0.3-0.8-0.8-0.9-1.3c0-0.3-4-27.4-10.6-40.6&#10;&#9;&#9;&#9;&#9;&#9;c-0.2-0.4-0.2-0.8-0.2-1.2c0.2-0.9,4.2-21,8-30.2c0-0.2,10.7-35.8,41-37.6c15-0.9,29.1,7.4,36.1,21.1c5.3,10.4,6,21,2.2,31.6&#10;&#9;&#9;&#9;&#9;&#9;c-7.5,20.8-32.4,40.4-74,58.2C596,315.4,595.7,315.4,595.5,315.4z M586.6,272.2c5.6,11.6,9.2,31.8,10.3,38.7&#10;&#9;&#9;&#9;&#9;&#9;c39.3-17.2,62.8-35.7,69.8-55.2c3.5-9.6,2.8-19.3-2-28.7c-6.3-12.4-19.2-19.9-32.6-19.1c-27.7,1.7-37.7,34.8-37.8,35.2&#10;&#9;&#9;&#9;&#9;&#9;C591,251.3,587.3,268.7,586.6,272.2z" transform="matrix(1, 0, 0, 1, -341.7347412109375, -156.1224822998047)"/><path fill="#3C2415" d="M591,293c-0.7,0-1.3-0.4-1.6-1c-0.5-0.9-0.1-2,0.8-2.5c0.4-0.2,37.4-19.5,41.4-59.6c0.1-1,1-1.8,2-1.6&#10;&#9;&#9;&#9;&#9;c1,0.1,1.7,1,1.6,2c-4.2,42.1-43,62.2-43.4,62.4C591.6,292.9,591.3,293,591,293z" transform="matrix(1, 0, 0, 1, -341.7347412109375, -156.1224822998047)"/><path fill="#A7A9AC" d="M481.1,420.5c-0.2,0-0.4,0-0.6-0.1c-29.2-7.2-39.1-27.5-38.7-42.6c0.3-12.4,7.2-23.9,19-31.7&#10;&#9;&#9;&#9;&#9;c15.3-10.1,35.3-12.1,52.3-5.3c18,7.2,28.4,24,24.8,39.9c-3,13.1-14.4,23.5-29.8,27.2c-16.1,3.8-32.1-0.9-41.6-12.4&#10;&#9;&#9;&#9;&#9;c-6.7-8.2-8.5-18.8-4.5-27.7c3.5-7.9,11.1-13.7,20.9-15.9c10.7-2.4,21.6,0,29.2,6.4c4.8,4.1,7.3,10,6.9,16.1&#10;&#9;&#9;&#9;&#9;c-0.6,8.1-5.1,14.5-12.3,17.5c-7.7,3.2-17.1,1.9-23.2-3.3c-3.3-2.8-5.2-6.9-5.2-11.2c0-4.1,1.8-7.9,4.9-10.5&#10;&#9;&#9;&#9;&#9;c5.6-4.7,15.1-4.9,20.4-0.5c1.1,0.9,2,2.1,2.6,3.5c1.6,3.6,1.1,7.6-1.5,10.7c-2.7,3.3-7.2,4.8-11.4,3.8c-3.3-0.8-5.7-3-6.4-5.8&#10;&#9;&#9;&#9;&#9;c-0.6-2.6,0.3-5.1,2.4-6.9c2.8-2.3,7-2.3,9.8,0c1,0.9,1.1,2.4,0.3,3.4c-0.9,1-2.4,1.2-3.4,0.3c-0.9-0.8-2.6-0.8-3.5,0&#10;&#9;&#9;&#9;&#9;c-0.7,0.6-1,1.3-0.8,2.1c0.2,1,1.3,1.8,2.8,2.1c2.4,0.6,4.9-0.3,6.5-2.2c0.7-0.8,2-2.9,0.8-5.6c-0.3-0.7-0.8-1.4-1.3-1.8&#10;&#9;&#9;&#9;&#9;c-3.4-2.9-10.3-2.6-14.1,0.5c-2,1.7-3.2,4.1-3.2,6.8c0,2.9,1.3,5.6,3.5,7.5c4.8,4.1,12.1,5.1,18.2,2.5c3.2-1.3,8.7-4.9,9.3-13.3&#10;&#9;&#9;&#9;&#9;c0.3-4.6-1.6-9-5.2-12c-6.4-5.5-15.8-7.5-24.9-5.4c-8.2,1.9-14.7,6.8-17.6,13.2c-3.2,7.2-1.7,15.8,3.8,22.6&#10;&#9;&#9;&#9;&#9;c9.9,12,25.5,13.5,36.7,10.8c13.6-3.2,23.6-12.2,26.2-23.5c3.1-13.5-6.1-27.9-21.8-34.2c-15.5-6.2-33.8-4.4-47.8,4.8&#10;&#9;&#9;&#9;&#9;c-10.5,6.9-16.6,17-16.8,27.8c-0.3,13.3,8.7,31.2,35,37.8c1.3,0.3,2.1,1.6,1.8,3C483.2,419.7,482.2,420.5,481.1,420.5z" transform="matrix(1, 0, 0, 1, -341.7347412109375, -156.1224822998047)"/>
</svg>