<svg xmlns="http://www.w3.org/2000/svg" width="496" height="496" viewBox="0 0 496 496">
  <path id="arrow-circle-right-light" d="M8,256C8,393,119,504,256,504S504,393,504,256,393,8,256,8,8,119,8,256ZM256,40c118.7,0,216,96.1,216,216,0,118.7-96.1,216-216,216C137.3,472,40,375.9,40,256,40,137.3,136.1,40,256,40Zm12.5,92.5,115.1,115a12.011,12.011,0,0,1,0,17l-115.1,115a12.011,12.011,0,0,1-17,0l-6.9-6.9a11.954,11.954,0,0,1,.2-17.1L330.4,273H140a12.035,12.035,0,0,1-12-12V251a12.035,12.035,0,0,1,12-12H330.3l-85.6-82.5a12.043,12.043,0,0,1-.2-17.1l6.9-6.9a12.132,12.132,0,0,1,17.1,0Z" transform="translate(-8 -8)" fill="#ffdc00"/>
</svg>
