<svg xmlns="http://www.w3.org/2000/svg" width="496" height="496" viewBox="0 0 496 496">
  <path id="arrow-circle-left-light" d="M504,256C504,119,393,8,256,8S8,119,8,256,119,504,256,504,504,393,504,256ZM256,472C137.3,472,40,375.9,40,256,40,137.3,136.1,40,256,40c118.7,0,216,96.1,216,216C472,374.7,375.9,472,256,472Zm-12.5-92.5-115.1-115a12.011,12.011,0,0,1,0-17l115.1-115a12.011,12.011,0,0,1,17,0l6.9,6.9a11.954,11.954,0,0,1-.2,17.1L181.7,239H372a12.035,12.035,0,0,1,12,12v10a12.035,12.035,0,0,1-12,12H181.7l85.6,82.5a12.043,12.043,0,0,1,.2,17.1l-6.9,6.9A12.131,12.131,0,0,1,243.5,379.5Z" transform="translate(-8 -8)" fill="#ffdc00"/>
</svg>
