<?xml version="1.0" encoding="utf-8"?>
<svg id="master-artboard" viewBox="0 0 1792 1112" version="1.1" xmlns="http://www.w3.org/2000/svg" x="0px" y="0px" style="enable-background:new 0 0 1792 1112;" width="1792px" height="1112px">

<pattern y="1112" width="243.4" height="245.7" patternUnits="userSpaceOnUse" id="New_Pattern" viewBox="123.3 -307.6 243.4 245.7" style="overflow:visible;">
	<g>
		<path d="M 123.30000305175781 -307.6000061035156 L 366.79998779296875 -307.6000061035156 L 366.79998779296875 -61.900001525878906 L 123.30000305175781 -61.900001525878906 Z" class="st0" style="fill-rule: evenodd; clip-rule: evenodd; fill: none;"/>
		<g>
			<path d="M 366.29998779296875 0 L 490.1000061035156 0 L 490.1000061035156 -123.80000305175781 L 366.29998779296875 -123.80000305175781 Z" class="st1" style="fill-rule: evenodd; clip-rule: evenodd; fill: rgb(172, 178, 218);"/>
		</g>
		<g>
			<path d="M 122.80000305175781 0 L 246.6999969482422 0 L 246.6999969482422 -123.80000305175781 L 122.80000305175781 -123.80000305175781 Z" class="st1" style="fill-rule: evenodd; clip-rule: evenodd; fill: rgb(172, 178, 218);"/>
			<g>
				<g>
					<path class="st2" d="M144.3-61.9c0,22.3,18.1,40.4,40.4,40.4c22.3,0,40.4-18.1,40.4-40.4c0-22.3-18.1-40.4-40.4-40.4&#10;&#9;&#9;&#9;&#9;&#9;&#9;C162.4-102.3,144.3-84.2,144.3-61.9z" style="fill: rgb(201, 47, 47);"/>
					<path class="st3" d="M143-61.9c0.2,23.4,19.7,42.3,43.2,41.7c23.4-0.6,41.6-21.5,40.2-44.6c-1.4-22.3-21-39.4-43.1-38.8&#10;&#9;&#9;&#9;&#9;&#9;&#9;C161-103,143.2-83.9,143-61.9c0,1.7,2.6,1.7,2.6,0c0.1-12.1,5.6-23.2,15-30.8c9.5-7.7,22.6-10,34.3-7&#10;&#9;&#9;&#9;&#9;&#9;&#9;c11.5,3,20.8,11.4,25.7,22.1c5.1,11.2,4.1,24.5-1.8,35.1c-8.7,15.5-27.2,22.8-44.2,18.4c-17-4.4-28.8-20.4-29-37.8&#10;&#9;&#9;&#9;&#9;&#9;&#9;C145.6-63.6,143-63.6,143-61.9z" style="fill: rgb(73, 48, 28);"/>
				</g>
				<g>
					<path class="st4" d="M225.2-63.5c-0.9-21.6-18.6-38.8-40.4-38.8c-21.8,0-39.5,17.2-40.4,38.8H225.2z" style="fill: rgb(255, 255, 255);"/>
					<path class="st3" d="M226.4-63.5c-1.1-22.2-19.4-39.9-41.7-40.1c-22.3-0.2-40.6,18.2-41.7,40.1c0,0.7,0.6,1.3,1.3,1.3&#10;&#9;&#9;&#9;&#9;&#9;&#9;c25.3,0,50.6,0,75.9,0c1.6,0,3.2,0,4.8,0c1.7,0,1.7-2.6,0-2.6c-25.3,0-50.6,0-75.9,0c-1.6,0-3.2,0-4.8,0&#10;&#9;&#9;&#9;&#9;&#9;&#9;c0.4,0.4,0.9,0.9,1.3,1.3c1-20.8,18.3-37.3,39.1-37.5c20.8-0.2,38.1,17,39.1,37.5C223.9-61.9,226.5-61.9,226.4-63.5z" style="fill: rgb(73, 48, 28);"/>
				</g>
				<path d="M 144.3000030517578 -61.900001525878906 L 225.1999969482422 -61.900001525878906 L 225.1999969482422 -63.5 L 144.3000030517578 -63.5 Z" class="st3" style="fill: rgb(73, 48, 28);"/>
				<g>
					<path class="st4" d="M174-64.1c0,5.9,4.8,10.7,10.7,10.7c5.9,0,10.7-4.8,10.7-10.7c0-5.9-4.8-10.7-10.7-10.7&#10;&#9;&#9;&#9;&#9;&#9;&#9;C178.8-74.8,174-70,174-64.1z" style="fill: rgb(255, 255, 255);"/>
					<path class="st3" d="M172.7-64.1c0.2,6.7,5.3,11.8,12,12c6.7,0.2,11.8-5.7,12-12c0.2-6.7-5.7-11.8-12-12&#10;&#9;&#9;&#9;&#9;&#9;&#9;C178.1-76.3,172.9-70.5,172.7-64.1c-0.1,1.7,2.5,1.7,2.6,0c0.2-5.3,4.2-9.3,9.5-9.5c5.3-0.2,9.3,4.4,9.5,9.5&#10;&#9;&#9;&#9;&#9;&#9;&#9;c0.2,5.3-4.4,9.3-9.5,9.5c-5.3,0.2-9.3-4.4-9.5-9.5C175.3-65.7,172.7-65.7,172.7-64.1z" style="fill: rgb(73, 48, 28);"/>
				</g>
				<path class="st3" d="M178.5-64.1c0,3.4,2.8,6.2,6.2,6.2c3.4,0,6.2-2.8,6.2-6.2c0-3.4-2.8-6.2-6.2-6.2&#10;&#9;&#9;&#9;&#9;&#9;C181.3-70.3,178.5-67.5,178.5-64.1z" style="fill: rgb(73, 48, 28);"/>
			</g>
			<path d="M 367.29998779296875 -123.80000305175781 L 243.39999389648438 -123.80000305175781 L 243.39999389648438 0 L 367.29998779296875 0 Z" class="st1" style="fill-rule: evenodd; clip-rule: evenodd; fill: rgb(172, 178, 218);"/>
			<g>
				<g>
					<path class="st2" d="M345.8-61.9c0-22.3-18.1-40.4-40.4-40.4c-22.3,0-40.4,18.1-40.4,40.4c0,22.3,18.1,40.4,40.4,40.4&#10;&#9;&#9;&#9;&#9;&#9;&#9;C327.7-21.5,345.8-39.6,345.8-61.9z" style="fill: rgb(201, 47, 47);"/>
					<path class="st3" d="M347.1-61.9c-0.2-23.4-19.7-42.3-43.2-41.7c-23.4,0.6-41.6,21.5-40.2,44.6c1.4,22.3,21,39.4,43.1,38.8&#10;&#9;&#9;&#9;&#9;&#9;&#9;C329.1-20.8,346.9-39.9,347.1-61.9c0-1.7-2.6-1.7-2.6,0c-0.1,12.1-5.6,23.2-15,30.8c-9.5,7.7-22.6,10-34.3,7&#10;&#9;&#9;&#9;&#9;&#9;&#9;c-11.5-3-20.8-11.4-25.7-22.1c-5.1-11.2-4.1-24.5,1.8-35.1c8.7-15.5,27.2-22.8,44.2-18.4c17,4.4,28.8,20.4,29,37.8&#10;&#9;&#9;&#9;&#9;&#9;&#9;C344.5-60.3,347.1-60.3,347.1-61.9z" style="fill: rgb(73, 48, 28);"/>
				</g>
				<path d="M 345.79998779296875 -61.900001525878906 L 265 -61.900001525878906 L 265 -60.29999923706055 L 345.79998779296875 -60.29999923706055 Z" class="st3" style="fill: rgb(73, 48, 28);"/>
				<g>
					<path class="st4" d="M316.1-59.8c0-5.9-4.8-10.7-10.7-10.7c-5.9,0-10.7,4.8-10.7,10.7c0,5.9,4.8,10.7,10.7,10.7&#10;&#9;&#9;&#9;&#9;&#9;&#9;C311.3-49,316.1-53.8,316.1-59.8z" style="fill: rgb(255, 255, 255);"/>
					<path class="st3" d="M317.4-59.8c-0.2-6.7-5.3-11.8-12-12c-6.7-0.2-11.8,5.7-12,12c-0.2,6.7,5.7,11.8,12,12&#10;&#9;&#9;&#9;&#9;&#9;&#9;C312.1-47.5,317.2-53.4,317.4-59.8c0.1-1.7-2.5-1.7-2.6,0c-0.2,5.3-4.2,9.3-9.5,9.5c-5.3,0.2-9.3-4.4-9.5-9.5&#10;&#9;&#9;&#9;&#9;&#9;&#9;c-0.2-5.3,4.4-9.3,9.5-9.5c5.3-0.2,9.3,4.4,9.5,9.5C314.9-58.1,317.4-58.1,317.4-59.8z" style="fill: rgb(73, 48, 28);"/>
				</g>
				<path class="st3" d="M311.6-59.8c0-3.4-2.8-6.2-6.2-6.2c-3.4,0-6.2,2.8-6.2,6.2c0,3.4,2.8,6.2,6.2,6.2&#10;&#9;&#9;&#9;&#9;&#9;C308.8-53.5,311.6-56.3,311.6-59.8z" style="fill: rgb(73, 48, 28);"/>
			</g>
		</g>
		<g>
			<path d="M 123.80000305175781 -123.80000305175781 L 0 -123.80000305175781 L 0 0 L 123.80000305175781 0 Z" class="st1" style="fill-rule: evenodd; clip-rule: evenodd; fill: rgb(172, 178, 218);"/>
		</g>
		<g>
			<path d="M 366.29998779296875 -122.80000305175781 L 490.1000061035156 -122.80000305175781 L 490.1000061035156 -246.6999969482422 L 366.29998779296875 -246.6999969482422 Z" class="st1" style="fill-rule: evenodd; clip-rule: evenodd; fill: rgb(172, 178, 218);"/>
		</g>
		<g>
			<path d="M 122.80000305175781 -122.80000305175781 L 246.6999969482422 -122.80000305175781 L 246.6999969482422 -246.6999969482422 L 122.80000305175781 -246.6999969482422 Z" class="st1" style="fill-rule: evenodd; clip-rule: evenodd; fill: rgb(172, 178, 218);"/>
			<g>
				<g>
					<path class="st2" d="M144.3-184.7c0,22.3,18.1,40.4,40.4,40.4c22.3,0,40.4-18.1,40.4-40.4s-18.1-40.4-40.4-40.4&#10;&#9;&#9;&#9;&#9;&#9;&#9;C162.4-225.2,144.3-207.1,144.3-184.7z" style="fill: rgb(201, 47, 47);"/>
					<path class="st3" d="M143-184.7c0.2,23.4,19.7,42.3,43.2,41.7c23.4-0.6,41.6-21.5,40.2-44.6c-1.4-22.3-21-39.4-43.1-38.8&#10;&#9;&#9;&#9;&#9;&#9;&#9;C161-225.8,143.2-206.8,143-184.7c0,1.7,2.6,1.7,2.6,0c0.1-12.1,5.6-23.2,15-30.8c9.5-7.7,22.6-10,34.3-7&#10;&#9;&#9;&#9;&#9;&#9;&#9;c11.5,3,20.8,11.4,25.7,22.1c5.1,11.2,4.1,24.5-1.8,35.1c-8.7,15.5-27.2,22.8-44.2,18.4c-17-4.4-28.8-20.4-29-37.8&#10;&#9;&#9;&#9;&#9;&#9;&#9;C145.6-186.4,143-186.4,143-184.7z" style="fill: rgb(73, 48, 28);"/>
				</g>
				<g>
					<path class="st4" d="M225.2-186.4c-0.9-21.6-18.6-38.8-40.4-38.8c-21.8,0-39.5,17.2-40.4,38.8H225.2z" style="fill: rgb(255, 255, 255);"/>
					<path class="st3" d="M226.4-186.4c-1.1-22.2-19.4-39.9-41.7-40.1c-22.3-0.2-40.6,18.2-41.7,40.1c0,0.7,0.6,1.3,1.3,1.3&#10;&#9;&#9;&#9;&#9;&#9;&#9;c25.3,0,50.6,0,75.9,0c1.6,0,3.2,0,4.8,0c1.7,0,1.7-2.6,0-2.6c-25.3,0-50.6,0-75.9,0c-1.6,0-3.2,0-4.8,0&#10;&#9;&#9;&#9;&#9;&#9;&#9;c0.4,0.4,0.9,0.9,1.3,1.3c1-20.8,18.3-37.3,39.1-37.5c20.8-0.2,38.1,17,39.1,37.5C223.9-184.7,226.5-184.7,226.4-186.4z" style="fill: rgb(73, 48, 28);"/>
				</g>
				<path d="M 144.3000030517578 -184.6999969482422 L 225.1999969482422 -184.6999969482422 L 225.1999969482422 -186.39999389648438 L 144.3000030517578 -186.39999389648438 Z" class="st3" style="fill: rgb(73, 48, 28);"/>
				<g>
					<path class="st4" d="M174-186.9c0,5.9,4.8,10.7,10.7,10.7c5.9,0,10.7-4.8,10.7-10.7c0-5.9-4.8-10.7-10.7-10.7&#10;&#9;&#9;&#9;&#9;&#9;&#9;C178.8-197.7,174-192.8,174-186.9z" style="fill: rgb(255, 255, 255);"/>
					<path class="st3" d="M172.7-186.9c0.2,6.7,5.3,11.8,12,12c6.7,0.2,11.8-5.7,12-12c0.2-6.7-5.7-11.8-12-12&#10;&#9;&#9;&#9;&#9;&#9;&#9;C178.1-199.2,172.9-193.3,172.7-186.9c-0.1,1.7,2.5,1.7,2.6,0c0.2-5.3,4.2-9.3,9.5-9.5c5.3-0.2,9.3,4.4,9.5,9.5&#10;&#9;&#9;&#9;&#9;&#9;&#9;c0.2,5.3-4.4,9.3-9.5,9.5c-5.3,0.2-9.3-4.4-9.5-9.5C175.3-188.6,172.7-188.6,172.7-186.9z" style="fill: rgb(73, 48, 28);"/>
				</g>
				<path class="st3" d="M178.5-186.9c0,3.4,2.8,6.2,6.2,6.2c3.4,0,6.2-2.8,6.2-6.2c0-3.4-2.8-6.2-6.2-6.2&#10;&#9;&#9;&#9;&#9;&#9;C181.3-193.1,178.5-190.4,178.5-186.9z" style="fill: rgb(73, 48, 28);"/>
			</g>
			<path d="M 367.29998779296875 -246.6999969482422 L 243.39999389648438 -246.6999969482422 L 243.39999389648438 -122.80000305175781 L 367.29998779296875 -122.80000305175781 Z" class="st1" style="fill-rule: evenodd; clip-rule: evenodd; fill: rgb(172, 178, 218);"/>
			<g>
				<g>
					<path class="st2" d="M345.8-184.8c0-22.3-18.1-40.4-40.4-40.4c-22.3,0-40.4,18.1-40.4,40.4c0,22.3,18.1,40.4,40.4,40.4&#10;&#9;&#9;&#9;&#9;&#9;&#9;C327.7-144.3,345.8-162.4,345.8-184.8z" style="fill: rgb(201, 47, 47);"/>
					<path class="st3" d="M347.1-184.8c-0.2-23.4-19.7-42.3-43.2-41.7c-23.4,0.6-41.6,21.5-40.2,44.6c1.4,22.3,21,39.4,43.1,38.8&#10;&#9;&#9;&#9;&#9;&#9;&#9;C329.1-143.7,346.9-162.7,347.1-184.8c0-1.7-2.6-1.7-2.6,0c-0.1,12.1-5.6,23.2-15,30.8c-9.5,7.7-22.6,10-34.3,7&#10;&#9;&#9;&#9;&#9;&#9;&#9;c-11.5-3-20.8-11.4-25.7-22.1c-5.1-11.2-4.1-24.5,1.8-35.1c8.7-15.5,27.2-22.8,44.2-18.4c17,4.4,28.8,20.4,29,37.8&#10;&#9;&#9;&#9;&#9;&#9;&#9;C344.5-183.1,347.1-183.1,347.1-184.8z" style="fill: rgb(73, 48, 28);"/>
				</g>
				<g>
					<path class="st4" d="M265-183.1c0.8,21.6,18.6,38.8,40.4,38.8c21.8,0,39.5-17.2,40.4-38.8H265z" style="fill: rgb(255, 255, 255);"/>
					<path class="st3" d="M263.7-183.1c1.1,22.2,19.4,39.9,41.7,40.1c22.3,0.2,40.6-18.2,41.7-40.1c0-0.7-0.6-1.3-1.3-1.3&#10;&#9;&#9;&#9;&#9;&#9;&#9;c-25.3,0-50.6,0-75.9,0c-1.6,0-3.2,0-4.8,0c-1.7,0-1.7,2.6,0,2.6c25.3,0,50.6,0,75.9,0c1.6,0,3.2,0,4.8,0&#10;&#9;&#9;&#9;&#9;&#9;&#9;c-0.4-0.4-0.9-0.9-1.3-1.3c-1,20.8-18.3,37.3-39.1,37.5c-20.8,0.2-38.1-17-39.1-37.5C266.2-184.8,263.6-184.8,263.7-183.1z" style="fill: rgb(73, 48, 28);"/>
				</g>
				<path d="M 345.79998779296875 -184.8000030517578 L 265 -184.8000030517578 L 265 -183.10000610351562 L 345.79998779296875 -183.10000610351562 Z" class="st3" style="fill: rgb(73, 48, 28);"/>
				<g>
					<path class="st4" d="M316.1-182.6c0-5.9-4.8-10.7-10.7-10.7c-5.9,0-10.7,4.8-10.7,10.7c0,5.9,4.8,10.7,10.7,10.7&#10;&#9;&#9;&#9;&#9;&#9;&#9;C311.3-171.8,316.1-176.7,316.1-182.6z" style="fill: rgb(255, 255, 255);"/>
					<path class="st3" d="M317.4-182.6c-0.2-6.7-5.3-11.8-12-12c-6.7-0.2-11.8,5.7-12,12c-0.2,6.7,5.7,11.8,12,12&#10;&#9;&#9;&#9;&#9;&#9;&#9;C312.1-170.3,317.2-176.2,317.4-182.6c0.1-1.7-2.5-1.7-2.6,0c-0.2,5.3-4.2,9.3-9.5,9.5c-5.3,0.2-9.3-4.4-9.5-9.5&#10;&#9;&#9;&#9;&#9;&#9;&#9;c-0.2-5.3,4.4-9.3,9.5-9.5c5.3-0.2,9.3,4.4,9.5,9.5C314.9-180.9,317.4-180.9,317.4-182.6z" style="fill: rgb(73, 48, 28);"/>
				</g>
				<path class="st3" d="M311.6-182.6c0-3.4-2.8-6.2-6.2-6.2c-3.4,0-6.2,2.8-6.2,6.2c0,3.4,2.8,6.2,6.2,6.2&#10;&#9;&#9;&#9;&#9;&#9;C308.8-176.3,311.6-179.1,311.6-182.6z" style="fill: rgb(73, 48, 28);"/>
			</g>
		</g>
		<g>
			<path d="M 123.80000305175781 -246.6999969482422 L 0 -246.6999969482422 L 0 -122.80000305175781 L 123.80000305175781 -122.80000305175781 Z" class="st1" style="fill-rule: evenodd; clip-rule: evenodd; fill: rgb(172, 178, 218);"/>
		</g>
		<g>
			<path d="M 366.29998779296875 -245.6999969482422 L 490.1000061035156 -245.6999969482422 L 490.1000061035156 -369.5 L 366.29998779296875 -369.5 Z" class="st1" style="fill-rule: evenodd; clip-rule: evenodd; fill: rgb(172, 178, 218);"/>
		</g>
		<g>
			<path d="M 122.80000305175781 -245.6999969482422 L 246.6999969482422 -245.6999969482422 L 246.6999969482422 -369.5 L 122.80000305175781 -369.5 Z" class="st1" style="fill-rule: evenodd; clip-rule: evenodd; fill: rgb(172, 178, 218);"/>
			<g>
				<g>
					<path class="st2" d="M144.3-307.6c0,22.3,18.1,40.4,40.4,40.4c22.3,0,40.4-18.1,40.4-40.4S207.1-348,184.8-348&#10;&#9;&#9;&#9;&#9;&#9;&#9;C162.4-348,144.3-329.9,144.3-307.6z" style="fill: rgb(201, 47, 47);"/>
					<path class="st3" d="M143-307.6c0.2,23.4,19.7,42.3,43.2,41.7c23.4-0.6,41.6-21.5,40.2-44.6c-1.4-22.3-21-39.4-43.1-38.8&#10;&#9;&#9;&#9;&#9;&#9;&#9;C161-348.7,143.2-329.6,143-307.6c0,1.7,2.6,1.7,2.6,0c0.1-12.1,5.6-23.2,15-30.8c9.5-7.7,22.6-10,34.3-7&#10;&#9;&#9;&#9;&#9;&#9;&#9;c11.5,3,20.8,11.4,25.7,22.1c5.1,11.2,4.1,24.5-1.8,35.1c-8.7,15.5-27.2,22.8-44.2,18.4c-17-4.4-28.8-20.4-29-37.8&#10;&#9;&#9;&#9;&#9;&#9;&#9;C145.6-309.2,143-309.2,143-307.6z" style="fill: rgb(73, 48, 28);"/>
				</g>
				<path d="M 144.3000030517578 -307.6000061035156 L 225.1999969482422 -307.6000061035156 L 225.1999969482422 -309.20001220703125 L 144.3000030517578 -309.20001220703125 Z" class="st3" style="fill: rgb(73, 48, 28);"/>
				<g>
					<path class="st4" d="M174-309.7c0,5.9,4.8,10.7,10.7,10.7c5.9,0,10.7-4.8,10.7-10.7c0-5.9-4.8-10.7-10.7-10.7&#10;&#9;&#9;&#9;&#9;&#9;&#9;C178.8-320.5,174-315.7,174-309.7z" style="fill: rgb(255, 255, 255);"/>
					<path class="st3" d="M172.7-309.7c0.2,6.7,5.3,11.8,12,12c6.7,0.2,11.8-5.7,12-12c0.2-6.7-5.7-11.8-12-12&#10;&#9;&#9;&#9;&#9;&#9;&#9;C178.1-322,172.9-316.1,172.7-309.7c-0.1,1.7,2.5,1.7,2.6,0c0.2-5.3,4.2-9.3,9.5-9.5c5.3-0.2,9.3,4.4,9.5,9.5&#10;&#9;&#9;&#9;&#9;&#9;&#9;c0.2,5.3-4.4,9.3-9.5,9.5c-5.3,0.2-9.3-4.4-9.5-9.5C175.3-311.4,172.7-311.4,172.7-309.7z" style="fill: rgb(73, 48, 28);"/>
				</g>
				<path class="st3" d="M178.5-309.7c0,3.4,2.8,6.2,6.2,6.2c3.4,0,6.2-2.8,6.2-6.2c0-3.4-2.8-6.2-6.2-6.2&#10;&#9;&#9;&#9;&#9;&#9;C181.3-316,178.5-313.2,178.5-309.7z" style="fill: rgb(73, 48, 28);"/>
			</g>
			<path d="M 367.29998779296875 -369.5 L 243.39999389648438 -369.5 L 243.39999389648438 -245.6999969482422 L 367.29998779296875 -245.6999969482422 Z" class="st1" style="fill-rule: evenodd; clip-rule: evenodd; fill: rgb(172, 178, 218);"/>
			<g>
				<g>
					<path class="st2" d="M345.8-307.6c0-22.3-18.1-40.4-40.4-40.4c-22.3,0-40.4,18.1-40.4,40.4c0,22.3,18.1,40.4,40.4,40.4&#10;&#9;&#9;&#9;&#9;&#9;&#9;C327.7-267.2,345.8-285.3,345.8-307.6z" style="fill: rgb(201, 47, 47);"/>
					<path class="st3" d="M347.1-307.6c-0.2-23.4-19.7-42.3-43.2-41.7c-23.4,0.6-41.6,21.5-40.2,44.6c1.4,22.3,21,39.4,43.1,38.8&#10;&#9;&#9;&#9;&#9;&#9;&#9;C329.1-266.5,346.9-285.5,347.1-307.6c0-1.7-2.6-1.7-2.6,0c-0.1,12.1-5.6,23.2-15,30.8c-9.5,7.7-22.6,10-34.3,7&#10;&#9;&#9;&#9;&#9;&#9;&#9;c-11.5-3-20.8-11.4-25.7-22.1c-5.1-11.2-4.1-24.5,1.8-35.1c8.7-15.5,27.2-22.8,44.2-18.4c17,4.4,28.8,20.4,29,37.8&#10;&#9;&#9;&#9;&#9;&#9;&#9;C344.5-305.9,347.1-305.9,347.1-307.6z" style="fill: rgb(73, 48, 28);"/>
				</g>
				<g>
					<path class="st4" d="M265-306c0.8,21.6,18.6,38.8,40.4,38.8c21.8,0,39.5-17.2,40.4-38.8H265z" style="fill: rgb(255, 255, 255);"/>
					<path class="st3" d="M263.7-306c1.1,22.2,19.4,39.9,41.7,40.1C327.6-265.7,346-284,347-306c0-0.7-0.6-1.3-1.3-1.3&#10;&#9;&#9;&#9;&#9;&#9;&#9;c-25.3,0-50.6,0-75.9,0c-1.6,0-3.2,0-4.8,0c-1.7,0-1.7,2.6,0,2.6c25.3,0,50.6,0,75.9,0c1.6,0,3.2,0,4.8,0&#10;&#9;&#9;&#9;&#9;&#9;&#9;c-0.4-0.4-0.9-0.9-1.3-1.3c-1,20.8-18.3,37.3-39.1,37.5c-20.8,0.2-38.1-17-39.1-37.5C266.2-307.6,263.6-307.6,263.7-306z" style="fill: rgb(73, 48, 28);"/>
				</g>
				<path d="M 345.79998779296875 -307.6000061035156 L 265 -307.6000061035156 L 265 -306 L 345.79998779296875 -306 Z" class="st3" style="fill: rgb(73, 48, 28);"/>
				<g>
					<path class="st4" d="M316.1-305.4c0-5.9-4.8-10.7-10.7-10.7c-5.9,0-10.7,4.8-10.7,10.7c0,5.9,4.8,10.7,10.7,10.7&#10;&#9;&#9;&#9;&#9;&#9;&#9;C311.3-294.7,316.1-299.5,316.1-305.4z" style="fill: rgb(255, 255, 255);"/>
					<path class="st3" d="M317.4-305.4c-0.2-6.7-5.3-11.8-12-12c-6.7-0.2-11.8,5.7-12,12c-0.2,6.7,5.7,11.8,12,12&#10;&#9;&#9;&#9;&#9;&#9;&#9;C312.1-293.2,317.2-299,317.4-305.4c0.1-1.7-2.5-1.7-2.6,0c-0.2,5.3-4.2,9.3-9.5,9.5c-5.3,0.2-9.3-4.4-9.5-9.5&#10;&#9;&#9;&#9;&#9;&#9;&#9;c-0.2-5.3,4.4-9.3,9.5-9.5c5.3-0.2,9.3,4.4,9.5,9.5C314.9-303.8,317.4-303.8,317.4-305.4z" style="fill: rgb(73, 48, 28);"/>
				</g>
				<path class="st3" d="M311.6-305.4c0-3.4-2.8-6.2-6.2-6.2c-3.4,0-6.2,2.8-6.2,6.2c0,3.4,2.8,6.2,6.2,6.2&#10;&#9;&#9;&#9;&#9;&#9;C308.8-299.2,311.6-302,311.6-305.4z" style="fill: rgb(73, 48, 28);"/>
			</g>
		</g>
		<g>
			<path d="M 123.80000305175781 -369.5 L 0 -369.5 L 0 -245.6999969482422 L 123.80000305175781 -245.6999969482422 Z" class="st1" style="fill-rule: evenodd; clip-rule: evenodd; fill: rgb(172, 178, 218);"/>
		</g>
	</g>
</pattern>
<pattern y="1112" width="156.7" height="184.4" patternUnits="userSpaceOnUse" id="New_Pattern_2" viewBox="157.2 -369.2 156.7 184.4" style="overflow:visible;">
	<g>
		<path d="M 157.1999969482422 -369.20001220703125 L 314 -369.20001220703125 L 314 -184.89999389648438 L 157.1999969482422 -184.89999389648438 Z" class="st0" style="fill-rule: evenodd; clip-rule: evenodd; fill: none;"/>
		<g>
			<path d="M 313.5 0 L 471.20001220703125 0 L 471.20001220703125 -185.39999389648438 L 313.5 -185.39999389648438 Z" class="st5" style="fill-rule: evenodd; clip-rule: evenodd; fill: rgb(227, 225, 203);"/>
		</g>
		<g>
			<path d="M 156.6999969482422 0 L 314.5 0 L 314.5 -185.39999389648438 L 156.6999969482422 -185.39999389648438 Z" class="st5" style="fill-rule: evenodd; clip-rule: evenodd; fill: rgb(227, 225, 203);"/>
		</g>
		<g>
			<path d="M 0 0 L 157.6999969482422 0 L 157.6999969482422 -185.39999389648438 L 0 -185.39999389648438 Z" class="st5" style="fill-rule: evenodd; clip-rule: evenodd; fill: rgb(227, 225, 203);"/>
		</g>
		<g>
			<path d="M 313.5 -184.39999389648438 L 471.20001220703125 -184.39999389648438 L 471.20001220703125 -369.70001220703125 L 313.5 -369.70001220703125 Z" class="st5" style="fill-rule: evenodd; clip-rule: evenodd; fill: rgb(227, 225, 203);"/>
		</g>
		<g>
			<path d="M 156.6999969482422 -184.39999389648438 L 314.5 -184.39999389648438 L 314.5 -369.70001220703125 L 156.6999969482422 -369.70001220703125 Z" class="st5" style="fill-rule: evenodd; clip-rule: evenodd; fill: rgb(227, 225, 203);"/>
			<g>
				<g>
					<path class="st6" d="M289.6-353.1c0-3.2-2.6-5.8-5.8-5.8h-96.4c-3.2,0-5.8,2.6-5.8,5.8v147.9c0,3.2,2.6,5.8,5.8,5.8h96.4&#10;&#9;&#9;&#9;&#9;&#9;&#9;c3.2,0,5.8-2.6,5.8-5.8V-353.1z" style="fill: rgb(210, 57, 52);"/>
					<path class="st3" d="M290.9-353.1c-0.2-3.9-3.1-7.1-7.2-7.1c-1,0-2,0-3,0c-5.3,0-10.6,0-15.9,0c-16.3,0-32.7,0-49,0&#10;&#9;&#9;&#9;&#9;&#9;&#9;c-9.5,0-18.9,0-28.4,0c-3.9,0-7.1,3.3-7.1,7.1c0,0.6,0,1.3,0,1.9c0,3.7,0,7.4,0,11.2c0,30.9,0,61.7,0,92.6&#10;&#9;&#9;&#9;&#9;&#9;&#9;c0,12.1,0,24.2,0,36.3c0,2,0,4,0,5.9c0,3.9,3.3,7.1,7.1,7.1c0.9,0,1.8,0,2.6,0c28.2,0,56.5,0,84.7,0c3,0,6,0,9,0&#10;&#9;&#9;&#9;&#9;&#9;&#9;c5.1,0,7.1-4.4,7.1-8.8c0-9.8,0-19.5,0-29.3c0-31.8,0-63.5,0-95.3C290.9-338.7,290.9-345.9,290.9-353.1c0-1.7-2.6-1.7-2.6,0&#10;&#9;&#9;&#9;&#9;&#9;&#9;c0,22,0,44,0,66c0,26.6,0,53.2,0,79.7c0,3.3-0.7,6.7-4.9,6.7c-3.7,0-7.5,0-11.2,0c-15.7,0-31.3,0-47,0c-12.1,0-24.2,0-36.3,0&#10;&#9;&#9;&#9;&#9;&#9;&#9;c-2,0-3.8-0.2-5.2-2.1c-0.8-1.1-0.7-2.3-0.7-3.6c0-3.3,0-6.6,0-9.9c0-30.5,0-60.9,0-91.4c0-12.7,0-25.3,0-38c0-2.5,0-4.9,0-7.4&#10;&#9;&#9;&#9;&#9;&#9;&#9;c0-5,4.7-4.7,8.2-4.7c28.4,0,56.8,0,85.2,0c4,0,11.7-1.4,12,4.5C288.4-351.5,291-351.4,290.9-353.1z" style="fill: rgb(73, 48, 28);"/>
				</g>
				<g>
					<path class="st2" d="M294.4-353.7c0-3.5-2.8-6.3-6.3-6.3h-105c-3.5,0-6.3,2.8-6.3,6.3v19.9H216l19.5-7.7h58.8V-353.7z" style="fill: rgb(201, 47, 47);"/>
					<path class="st3" d="M295.7-353.7c-0.2-4.2-3.3-7.6-7.7-7.6c-0.9,0-1.7,0-2.6,0c-4.9,0-9.8,0-14.7,0c-16.1,0-32.2,0-48.4,0&#10;&#9;&#9;&#9;&#9;&#9;&#9;c-12.3,0-24.6,0-36.9,0c-0.8,0-1.5,0-2.3,0c-4.2,0-7.6,3.5-7.6,7.7c0,6.4,0,12.8,0,19.2c0,0.2,0,0.4,0,0.6&#10;&#9;&#9;&#9;&#9;&#9;&#9;c0,0.7,0.6,1.3,1.3,1.3c12.5,0,25,0,37.4,0c1.3,0,2.1,0,3.3-0.5c3.4-1.3,6.7-2.6,10.1-4c2.7-1.1,5.5-2.2,8.2-3.2&#10;&#9;&#9;&#9;&#9;&#9;&#9;c-0.1,0-0.3,0,0.4,0c0.8,0,1.5,0,2.3,0c18.7,0,37.3,0,55.9,0c0.7,0,1.3-0.6,1.3-1.3C295.7-345.5,295.7-349.6,295.7-353.7&#10;&#9;&#9;&#9;&#9;&#9;&#9;c0-1.7-2.6-1.7-2.6,0c0,4.1,0,8.1,0,12.2c0.4-0.4,0.9-0.9,1.3-1.3c-12.2,0-24.4,0-36.5,0c-6.6,0-13.1,0-19.7,0&#10;&#9;&#9;&#9;&#9;&#9;&#9;c-0.9,0-2.2-0.3-3,0.1c-2.6,1-5.2,2.1-7.8,3.1c-2.7,1.1-5.4,2.1-8.1,3.2c-0.9,0.4-1.8,0.7-2.7,1.1c-0.4,0.2-1.1,0.3-0.6,0.3&#10;&#9;&#9;&#9;&#9;&#9;&#9;c-3.6,0-7.2,0-10.9,0c-9.4,0-18.9,0-28.3,0c0.4,0.4,0.9,0.9,1.3,1.3c0-6.3,0-12.6,0-18.8c0-3.2,1.6-6.1,5.2-6.1&#10;&#9;&#9;&#9;&#9;&#9;&#9;c1.1,0,2.1,0,3.2,0c13,0,25.9,0,38.9,0c14.7,0,29.4,0,44.2,0c4.8,0,9.6,0,14.3,0c3.9,0,9-0.5,9.3,5&#10;&#9;&#9;&#9;&#9;&#9;&#9;C293.2-352,295.8-352,295.7-353.7z" style="fill: rgb(73, 48, 28);"/>
				</g>
				<g>
					<path class="st2" d="M237.7-334.2l-21.3,8.3h-38.5v125.4c0,3.4,2.8,6.2,6.2,6.2H287c3.4,0,6.2-2.8,6.2-6.2v-133.7H237.7z" style="fill: rgb(201, 47, 47);"/>
					<path class="st3" d="M237.4-335.5c-5.2,2-10.3,4-15.5,6c-1.9,0.8-3.9,1.5-5.8,2.2c0.6-0.2-0.4,0-0.7,0c-1.1,0-2.1,0-3.2,0&#10;&#9;&#9;&#9;&#9;&#9;&#9;c-11.4,0-22.9,0-34.3,0c-0.7,0-1.3,0.6-1.3,1.3c0,23.9,0,47.8,0,71.7c0,14.4,0,28.8,0,43.2c0,3.3,0,6.6,0,9.9&#10;&#9;&#9;&#9;&#9;&#9;&#9;c0,4.8,3.4,8.1,8.1,8.1c27.2,0,54.5,0,81.7,0c5.5,0,11,0,16.4,0c4.1,0,7.9,0.3,10.6-3.7c1.5-2.2,1-5.7,1-8.3&#10;&#9;&#9;&#9;&#9;&#9;&#9;c0-4.9,0-9.8,0-14.7c0-31.3,0-62.7,0-94c0-6.8,0-13.6,0-20.4c0-0.7-0.6-1.3-1.3-1.3c-18.5,0-37,0-55.5,0c-1.7,0-1.7,2.6,0,2.6&#10;&#9;&#9;&#9;&#9;&#9;&#9;c18.5,0,37,0,55.5,0c-0.4-0.4-0.9-0.9-1.3-1.3c0,23.2,0,46.5,0,69.7c0,15.4,0,30.8,0,46.2c0,4.7,0,9.4,0,14&#10;&#9;&#9;&#9;&#9;&#9;&#9;c0,3.6,0.3,8.7-4.9,8.7c-25.7,0-51.4,0-77.1,0c-6.2,0-12.5,0-18.7,0c-2.7,0-6,0.5-8.7-0.3c-4.1-1.1-3.3-6.3-3.3-9.5&#10;&#9;&#9;&#9;&#9;&#9;&#9;c0-5.2,0-10.3,0-15.5c0-30.8,0-61.6,0-92.4c0-4.2,0-8.5,0-12.7c-0.4,0.4-0.9,0.9-1.3,1.3c11.5,0,23.1,0,34.6,0&#10;&#9;&#9;&#9;&#9;&#9;&#9;c1.3,0,2.6,0,3.9,0c1.8,0,4.1-1.5,5.7-2.1c5.3-2.1,10.6-4.1,15.9-6.2C239.6-333.6,238.9-336.1,237.4-335.5z" style="fill: rgb(73, 48, 28);"/>
				</g>
				<g>
					<path class="st7" d="M209.9-346.9c0-4.8-3.9-8.8-8.8-8.8c-4.8,0-8.8,3.9-8.8,8.8c0,4.8,3.9,8.8,8.8,8.8&#10;&#9;&#9;&#9;&#9;&#9;&#9;C205.9-338.1,209.9-342,209.9-346.9z" style="fill: rgb(97, 177, 183);"/>
					<path class="st3" d="M211.2-346.9c-0.2-5.6-4.4-9.8-10.1-10.1c-5.6-0.2-9.8,4.8-10.1,10.1c-0.2,5.6,4.8,9.9,10.1,10.1&#10;&#9;&#9;&#9;&#9;&#9;&#9;C206.7-336.6,210.9-341.6,211.2-346.9c0.1-1.7-2.5-1.7-2.6,0c-0.2,4.2-3.3,7.3-7.5,7.5c-4.2,0.2-7.3-3.5-7.5-7.5&#10;&#9;&#9;&#9;&#9;&#9;&#9;c-0.2-4.2,3.5-7.3,7.5-7.5c4.2-0.2,7.3,3.5,7.5,7.5C208.6-345.2,211.2-345.2,211.2-346.9z" style="fill: rgb(73, 48, 28);"/>
				</g>
				<g>
					<path class="st2" d="M224.8-351.9c0-2.1-1.7-3.8-3.8-3.8c-2.1,0-3.8,1.7-3.8,3.8c0,2.1,1.7,3.8,3.8,3.8&#10;&#9;&#9;&#9;&#9;&#9;&#9;C223.1-348.1,224.8-349.8,224.8-351.9z" style="fill: rgb(201, 47, 47);"/>
					<path class="st3" d="M226.1-351.9c-0.2-2.9-2.2-4.9-5.1-5.1c-2.9-0.2-4.9,2.4-5.1,5.1c-0.2,2.9,2.4,4.9,5.1,5.1&#10;&#9;&#9;&#9;&#9;&#9;&#9;C223.9-346.6,226-349.2,226.1-351.9c0.1-1.7-2.5-1.7-2.6,0c-0.2,3.2-4.8,3.2-5,0c-0.2-3.2,4.8-3.2,5,0&#10;&#9;&#9;&#9;&#9;&#9;&#9;C223.6-350.2,226.2-350.2,226.1-351.9z" style="fill: rgb(73, 48, 28);"/>
				</g>
				<g>
					<path class="st8" d="M237.4-351.9c0-2.1-1.7-3.8-3.8-3.8c-2.1,0-3.8,1.7-3.8,3.8c0,2.1,1.7,3.8,3.8,3.8&#10;&#9;&#9;&#9;&#9;&#9;&#9;C235.7-348.1,237.4-349.8,237.4-351.9z" style="fill: rgb(255, 207, 110);"/>
					<path class="st3" d="M238.7-351.9c-0.2-2.9-2.2-4.9-5.1-5.1c-2.9-0.2-4.9,2.4-5.1,5.1c-0.2,2.9,2.4,4.9,5.1,5.1&#10;&#9;&#9;&#9;&#9;&#9;&#9;C236.5-346.6,238.5-349.2,238.7-351.9c0.1-1.7-2.5-1.7-2.6,0c-0.2,3.2-4.8,3.2-5,0c-0.2-3.2,4.8-3.2,5,0&#10;&#9;&#9;&#9;&#9;&#9;&#9;C236.2-350.2,238.8-350.2,238.7-351.9z" style="fill: rgb(73, 48, 28);"/>
				</g>
				<g>
					<path d="M 282.100006 -333.799988 L 282.100006 -194.100006" class="st7" style="fill: rgb(97, 177, 183);"/>
					<path class="st3" d="M280.8-333.8c0,22.7,0,45.4,0,68c0,23.8,0,47.7,0,71.5c0,0,0,0.1,0,0.1c0,1.7,2.6,1.7,2.6,0&#10;&#9;&#9;&#9;&#9;&#9;&#9;c0-22.7,0-45.4,0-68c0-23.8,0-47.7,0-71.5c0,0,0-0.1,0-0.1C283.4-335.5,280.8-335.5,280.8-333.8L280.8-333.8z" style="fill: rgb(73, 48, 28);"/>
				</g>
				<g>
					<path d="M 282.100006 -318.299988 L 293.200012 -318.299988" class="st7" style="fill: rgb(97, 177, 183);"/>
					<path class="st3" d="M282.1-317c3.7,0,7.4,0,11.1,0c1.7,0,1.7-2.6,0-2.6c-3.7,0-7.4,0-11.1,0C280.4-319.6,280.4-317,282.1-317&#10;&#9;&#9;&#9;&#9;&#9;&#9;L282.1-317z" style="fill: rgb(73, 48, 28);"/>
				</g>
				<g>
					<path d="M 282.100006 -207.699997 L 293.200012 -207.699997" class="st7" style="fill: rgb(97, 177, 183);"/>
					<path class="st3" d="M282.1-206.4c3.7,0,7.4,0,11.1,0c1.7,0,1.7-2.6,0-2.6c-3.7,0-7.4,0-11.1,0&#10;&#9;&#9;&#9;&#9;&#9;&#9;C280.4-209,280.4-206.4,282.1-206.4L282.1-206.4z" style="fill: rgb(73, 48, 28);"/>
				</g>
				<g>
					<path class="st2" d="M259.4-211.6c0-2.2-1.8-3.9-3.9-3.9h-51.4c-2.2,0-3.9,1.8-3.9,3.9l0,0c0,2.2,1.8,3.9,3.9,3.9h51.4&#10;&#9;&#9;&#9;&#9;&#9;&#9;C257.6-207.7,259.4-209.4,259.4-211.6L259.4-211.6z" style="fill: rgb(201, 47, 47);"/>
					<path class="st3" d="M260.7-211.6c-0.6-6.5-7.7-5.2-12.3-5.2c-7.9,0-15.8,0-23.7,0c-6.4,0-12.8,0-19.1,0&#10;&#9;&#9;&#9;&#9;&#9;&#9;c-2.4,0-4.4,0.4-5.9,2.6c-2.4,3.4,1,7.8,4.7,7.8c10.2,0,20.4,0,30.6,0c5.6,0,11.2,0,16.8,0&#10;&#9;&#9;&#9;&#9;&#9;&#9;C255.7-206.4,260.2-206.3,260.7-211.6c0.1-1.7-2.4-1.6-2.6,0c-0.3,3.1-3.4,2.6-5.6,2.6c-3,0-6,0-9,0c-8.2,0-16.5,0-24.7,0&#10;&#9;&#9;&#9;&#9;&#9;&#9;c-4.9,0-9.8,0-14.7,0c-3.5,0-3.5-5.3,0-5.3c0.5,0,1,0,1.6,0c2.6,0,5.2,0,7.8,0c9.1,0,18.2,0,27.3,0c3.6,0,7.3,0,10.9,0&#10;&#9;&#9;&#9;&#9;&#9;&#9;c2.3,0,6.1-0.7,6.4,2.6C258.3-210,260.8-209.9,260.7-211.6z" style="fill: rgb(73, 48, 28);"/>
				</g>
				<g>
					<path d="M 199.1999969482422 -262.79998779296875 L 193.60000610351562 -258.1000061035156 L 188.10000610351562 -253.39999389648438 L 188.10000610351562 -262.79998779296875 L 188.10000610351562 -272.1000061035156 L 193.60000610351562 -267.5 Z" class="st8" style="fill: rgb(255, 207, 110);"/>
					<path class="st3" d="M198.2-263.7c-3.7,3.1-7.4,6.2-11.1,9.3c0.7,0.3,1.5,0.6,2.2,0.9c0-6.2,0-12.5,0-18.7&#10;&#9;&#9;&#9;&#9;&#9;&#9;c-0.7,0.3-1.5,0.6-2.2,0.9c3.7,3.1,7.4,6.2,11.1,9.3c1.3,1.1,3.1-0.7,1.8-1.8c-3.7-3.1-7.4-6.2-11.1-9.3&#10;&#9;&#9;&#9;&#9;&#9;&#9;c-0.8-0.7-2.2-0.3-2.2,0.9c0,6.2,0,12.5,0,18.7c0,1.2,1.4,1.6,2.2,0.9c3.7-3.1,7.4-6.2,11.1-9.3&#10;&#9;&#9;&#9;&#9;&#9;&#9;C201.3-262.9,199.5-264.8,198.2-263.7z" style="fill: rgb(73, 48, 28);"/>
				</g>
			</g>
		</g>
		<g>
			<path d="M 0 -184.39999389648438 L 157.6999969482422 -184.39999389648438 L 157.6999969482422 -369.70001220703125 L 0 -369.70001220703125 Z" class="st5" style="fill-rule: evenodd; clip-rule: evenodd; fill: rgb(227, 225, 203);"/>
		</g>
		<g>
			<path d="M 313.5 -368.70001220703125 L 471.20001220703125 -368.70001220703125 L 471.20001220703125 -554.0999755859375 L 313.5 -554.0999755859375 Z" class="st5" style="fill-rule: evenodd; clip-rule: evenodd; fill: rgb(227, 225, 203);"/>
		</g>
		<g>
			<path d="M 156.6999969482422 -368.70001220703125 L 314.5 -368.70001220703125 L 314.5 -554.0999755859375 L 156.6999969482422 -554.0999755859375 Z" class="st5" style="fill-rule: evenodd; clip-rule: evenodd; fill: rgb(227, 225, 203);"/>
		</g>
		<g>
			<path d="M 0 -368.70001220703125 L 157.6999969482422 -368.70001220703125 L 157.6999969482422 -554.0999755859375 L 0 -554.0999755859375 Z" class="st5" style="fill-rule: evenodd; clip-rule: evenodd; fill: rgb(227, 225, 203);"/>
		</g>
	</g>
</pattern>
<pattern y="1112" width="313.5" height="184.4" patternUnits="userSpaceOnUse" id="New_Pattern_3" viewBox="78.9 -369.2 313.5 184.4" style="overflow:visible;">
	<g>
		<path d="M 78.9000015258789 -369.20001220703125 L 392.29998779296875 -369.20001220703125 L 392.29998779296875 -184.89999389648438 L 78.9000015258789 -184.89999389648438 Z" class="st0" style="fill-rule: evenodd; clip-rule: evenodd; fill: none;"/>
		<g>
			<path d="M 313.5 -92.19999694824219 L 471.20001220703125 -92.19999694824219 L 471.20001220703125 -277.6000061035156 L 313.5 -277.6000061035156 Z" class="st1" style="fill-rule: evenodd; clip-rule: evenodd; fill: rgb(172, 178, 218);"/>
			<g>
				<g>
					<path d="M 445.5 -125 L 445.5 -269.79998779296875 L 339.1000061035156 -269.79998779296875 L 339.1000061035156 -100 L 421.3999938964844 -100 Z" class="st8" style="fill: rgb(255, 207, 110);"/>
					<path class="st3" d="M446.8-125c0-22.3,0-44.7,0-67c0-25.6,0-51.2,0-76.8c0-0.3,0-0.7,0-1c0-0.7-0.6-1.3-1.3-1.3&#10;&#9;&#9;&#9;&#9;&#9;&#9;c-25.3,0-50.5,0-75.8,0c-10.2,0-20.5,0-30.7,0c-0.7,0-1.3,0.6-1.3,1.3c0,20.3,0,40.6,0,61c0,30.9,0,61.8,0,92.7&#10;&#9;&#9;&#9;&#9;&#9;&#9;c0,5.4,0,10.7,0,16.1c0,0.7,0.6,1.3,1.3,1.3c25.4,0,50.8,0,76.2,0c2,0,4,0,6,0c0.8,0,1.3-0.7,1.8-1.2c1.3-1.4,2.6-2.7,4-4.1&#10;&#9;&#9;&#9;&#9;&#9;&#9;c6.5-6.7,13-13.4,19.4-20.1c1.2-1.2-0.7-3-1.8-1.8c-8.1,8.3-16.1,16.6-24.2,25c0.5-0.5,1.3-0.3,0.4-0.3c-0.6,0-1.2,0-1.8,0&#10;&#9;&#9;&#9;&#9;&#9;&#9;c-2.2,0-4.4,0-6.6,0c-7.2,0-14.4,0-21.6,0c-17.3,0-34.5,0-51.8,0c0.4,0.4,0.9,0.9,1.3,1.3c0-20.3,0-40.6,0-61&#10;&#9;&#9;&#9;&#9;&#9;&#9;c0-30.9,0-61.8,0-92.7c0-5.4,0-10.7,0-16.1c-0.4,0.4-0.9,0.9-1.3,1.3c25.3,0,50.5,0,75.8,0c10.2,0,20.5,0,30.7,0&#10;&#9;&#9;&#9;&#9;&#9;&#9;c-0.4-0.4-0.9-0.9-1.3-1.3c0,22.3,0,44.7,0,67c0,25.6,0,51.2,0,76.8c0,0.3,0,0.7,0,1C444.3-123.3,446.8-123.3,446.8-125z" style="fill: rgb(73, 48, 28);"/>
				</g>
				<g>
					<path d="M 437.8999938964844 -196.6999969482422 L 437.8999938964844 -251.1999969482422 L 348.3999938964844 -251.1999969482422 L 348.3999938964844 -185.10000610351562 L 426 -185.10000610351562 Z" class="st9" style="fill: rgb(122, 131, 132);"/>
					<path class="st3" d="M439.2-196.7c0-18.2,0-36.3,0-54.5c0-0.7-0.6-1.3-1.3-1.3c-25.7,0-51.4,0-77.1,0c-4.1,0-8.3,0-12.4,0&#10;&#9;&#9;&#9;&#9;&#9;&#9;c-0.7,0-1.3,0.6-1.3,1.3c0,22,0,44,0,66.1c0,0.7,0.6,1.3,1.3,1.3c24.9,0,49.9,0,74.8,0c0.9,0,1.8,0,2.6,0&#10;&#9;&#9;&#9;&#9;&#9;&#9;c1.1,0,1.7-0.9,2.4-1.6c3.5-3.4,7.1-6.9,10.6-10.3c1.2-1.2-0.6-3-1.8-1.8c-2,2-4.1,4-6.1,6c-1.3,1.3-2.7,2.6-4,3.9&#10;&#9;&#9;&#9;&#9;&#9;&#9;c-0.4,0.4-0.9,0.8-1.3,1.3c-0.7,0.7-0.4,0.1,0.4,0.1c-3.5,0-6.9,0-10.4,0c-15.9,0-31.8,0-47.7,0c-6.5,0-13,0-19.5,0&#10;&#9;&#9;&#9;&#9;&#9;&#9;c0.4,0.4,0.9,0.9,1.3,1.3c0-22,0-44,0-66.1c-0.4,0.4-0.9,0.9-1.3,1.3c25.7,0,51.4,0,77.1,0c4.1,0,8.3,0,12.4,0&#10;&#9;&#9;&#9;&#9;&#9;&#9;c-0.4-0.4-0.9-0.9-1.3-1.3c0,18.2,0,36.3,0,54.5C436.6-195.1,439.2-195.1,439.2-196.7z" style="fill: rgb(73, 48, 28);"/>
				</g>
				<g>
					<path d="M 421.5 -189.5 L 363.70001220703125 -189.5 L 363.70001220703125 -247.39999389648438 L 421.5 -247.39999389648438 Z" class="st10" style="fill: rgb(101, 112, 114);"/>
					<path class="st3" d="M421.5-190.8c-19.3,0-38.6,0-57.9,0c0.4,0.4,0.9,0.9,1.3,1.3c0-19.3,0-38.6,0-57.9&#10;&#9;&#9;&#9;&#9;&#9;&#9;c-0.4,0.4-0.9,0.9-1.3,1.3c19.3,0,38.6,0,57.9,0c-0.4-0.4-0.9-0.9-1.3-1.3c0,19.3,0,38.6,0,57.9c0,1.7,2.6,1.7,2.6,0&#10;&#9;&#9;&#9;&#9;&#9;&#9;c0-19.3,0-38.6,0-57.9c0-0.7-0.6-1.3-1.3-1.3c-19.3,0-38.6,0-57.9,0c-0.7,0-1.3,0.6-1.3,1.3c0,19.3,0,38.6,0,57.9&#10;&#9;&#9;&#9;&#9;&#9;&#9;c0,0.7,0.6,1.3,1.3,1.3c19.3,0,38.6,0,57.9,0C423.2-188.2,423.2-190.8,421.5-190.8z" style="fill: rgb(73, 48, 28);"/>
				</g>
			</g>
		</g>
		<g>
			<path d="M 156.6999969482422 0 L 314.5 0 L 314.5 -185.39999389648438 L 156.6999969482422 -185.39999389648438 Z" class="st1" style="fill-rule: evenodd; clip-rule: evenodd; fill: rgb(172, 178, 218);"/>
		</g>
		<g>
			<path d="M 0 -92.19999694824219 L 157.6999969482422 -92.19999694824219 L 157.6999969482422 -277.6000061035156 L 0 -277.6000061035156 Z" class="st1" style="fill-rule: evenodd; clip-rule: evenodd; fill: rgb(172, 178, 218);"/>
			<g>
				<g>
					<path d="M 132.10000610351562 -125 L 132.10000610351562 -269.79998779296875 L 25.600000381469727 -269.79998779296875 L 25.600000381469727 -100 L 107.9000015258789 -100 Z" class="st8" style="fill: rgb(255, 207, 110);"/>
					<path class="st3" d="M133.4-125c0-22.3,0-44.7,0-67c0-25.6,0-51.2,0-76.8c0-0.3,0-0.7,0-1c0-0.7-0.6-1.3-1.3-1.3&#10;&#9;&#9;&#9;&#9;&#9;&#9;c-25.3,0-50.5,0-75.8,0c-10.2,0-20.5,0-30.7,0c-0.7,0-1.3,0.6-1.3,1.3c0,20.3,0,40.6,0,61c0,30.9,0,61.8,0,92.7&#10;&#9;&#9;&#9;&#9;&#9;&#9;c0,5.4,0,10.7,0,16.1c0,0.7,0.6,1.3,1.3,1.3c25.4,0,50.8,0,76.2,0c2,0,4,0,6,0c0.8,0,1.3-0.7,1.8-1.2c1.3-1.4,2.6-2.7,4-4.1&#10;&#9;&#9;&#9;&#9;&#9;&#9;c6.5-6.7,13-13.4,19.4-20.1c1.2-1.2-0.7-3-1.8-1.8c-8.1,8.3-16.1,16.6-24.2,25c0.5-0.5,1.3-0.3,0.4-0.3c-0.6,0-1.2,0-1.8,0&#10;&#9;&#9;&#9;&#9;&#9;&#9;c-2.2,0-4.4,0-6.6,0c-7.2,0-14.4,0-21.6,0c-17.3,0-34.5,0-51.8,0c0.4,0.4,0.9,0.9,1.3,1.3c0-20.3,0-40.6,0-61&#10;&#9;&#9;&#9;&#9;&#9;&#9;c0-30.9,0-61.8,0-92.7c0-5.4,0-10.7,0-16.1c-0.4,0.4-0.9,0.9-1.3,1.3c25.3,0,50.5,0,75.8,0c10.2,0,20.5,0,30.7,0&#10;&#9;&#9;&#9;&#9;&#9;&#9;c-0.4-0.4-0.9-0.9-1.3-1.3c0,22.3,0,44.7,0,67c0,25.6,0,51.2,0,76.8c0,0.3,0,0.7,0,1C130.8-123.3,133.4-123.3,133.4-125z" style="fill: rgb(73, 48, 28);"/>
				</g>
				<g>
					<path d="M 124.4000015258789 -196.6999969482422 L 124.4000015258789 -251.1999969482422 L 34.900001525878906 -251.1999969482422 L 34.900001525878906 -185.10000610351562 L 112.5 -185.10000610351562 Z" class="st9" style="fill: rgb(122, 131, 132);"/>
					<path class="st3" d="M125.7-196.7c0-18.2,0-36.3,0-54.5c0-0.7-0.6-1.3-1.3-1.3c-25.7,0-51.4,0-77.1,0c-4.1,0-8.3,0-12.4,0&#10;&#9;&#9;&#9;&#9;&#9;&#9;c-0.7,0-1.3,0.6-1.3,1.3c0,22,0,44,0,66.1c0,0.7,0.6,1.3,1.3,1.3c24.9,0,49.9,0,74.8,0c0.9,0,1.8,0,2.6,0&#10;&#9;&#9;&#9;&#9;&#9;&#9;c1.1,0,1.7-0.9,2.4-1.6c3.5-3.4,7.1-6.9,10.6-10.3c1.2-1.2-0.6-3-1.8-1.8c-2,2-4.1,4-6.1,6c-1.3,1.3-2.7,2.6-4,3.9&#10;&#9;&#9;&#9;&#9;&#9;&#9;c-0.4,0.4-0.9,0.8-1.3,1.3c-0.7,0.7-0.4,0.1,0.4,0.1c-3.5,0-6.9,0-10.4,0c-15.9,0-31.8,0-47.7,0c-6.5,0-13,0-19.5,0&#10;&#9;&#9;&#9;&#9;&#9;&#9;c0.4,0.4,0.9,0.9,1.3,1.3c0-22,0-44,0-66.1c-0.4,0.4-0.9,0.9-1.3,1.3c25.7,0,51.4,0,77.1,0c4.1,0,8.3,0,12.4,0&#10;&#9;&#9;&#9;&#9;&#9;&#9;c-0.4-0.4-0.9-0.9-1.3-1.3c0,18.2,0,36.3,0,54.5C123.2-195.1,125.7-195.1,125.7-196.7z" style="fill: rgb(73, 48, 28);"/>
				</g>
				<g>
					<path d="M 108.0999984741211 -189.5 L 50.20000076293945 -189.5 L 50.20000076293945 -247.39999389648438 L 108.0999984741211 -247.39999389648438 Z" class="st10" style="fill: rgb(101, 112, 114);"/>
					<path class="st3" d="M108.1-190.8c-19.3,0-38.6,0-57.9,0c0.4,0.4,0.9,0.9,1.3,1.3c0-19.3,0-38.6,0-57.9&#10;&#9;&#9;&#9;&#9;&#9;&#9;c-0.4,0.4-0.9,0.9-1.3,1.3c19.3,0,38.6,0,57.9,0c-0.4-0.4-0.9-0.9-1.3-1.3c0,19.3,0,38.6,0,57.9c0,1.7,2.6,1.7,2.6,0&#10;&#9;&#9;&#9;&#9;&#9;&#9;c0-19.3,0-38.6,0-57.9c0-0.7-0.6-1.3-1.3-1.3c-19.3,0-38.6,0-57.9,0c-0.7,0-1.3,0.6-1.3,1.3c0,19.3,0,38.6,0,57.9&#10;&#9;&#9;&#9;&#9;&#9;&#9;c0,0.7,0.6,1.3,1.3,1.3c19.3,0,38.6,0,57.9,0C109.7-188.2,109.7-190.8,108.1-190.8z" style="fill: rgb(73, 48, 28);"/>
				</g>
			</g>
		</g>
		<g>
			<path d="M 313.5 -276.6000061035156 L 471.20001220703125 -276.6000061035156 L 471.20001220703125 -461.8999938964844 L 313.5 -461.8999938964844 Z" class="st1" style="fill-rule: evenodd; clip-rule: evenodd; fill: rgb(172, 178, 218);"/>
			<g>
				<g>
					<path d="M 445.5 -309.3999938964844 L 445.5 -454.1000061035156 L 339.1000061035156 -454.1000061035156 L 339.1000061035156 -284.3999938964844 L 421.3999938964844 -284.3999938964844 Z" class="st8" style="fill: rgb(255, 207, 110);"/>
					<path class="st3" d="M446.8-309.4c0-22.3,0-44.7,0-67c0-25.6,0-51.2,0-76.8c0-0.3,0-0.7,0-1c0-0.7-0.6-1.3-1.3-1.3&#10;&#9;&#9;&#9;&#9;&#9;&#9;c-25.3,0-50.5,0-75.8,0c-10.2,0-20.5,0-30.7,0c-0.7,0-1.3,0.6-1.3,1.3c0,20.3,0,40.6,0,61c0,30.9,0,61.8,0,92.7&#10;&#9;&#9;&#9;&#9;&#9;&#9;c0,5.4,0,10.7,0,16.1c0,0.7,0.6,1.3,1.3,1.3c25.4,0,50.8,0,76.2,0c2,0,4,0,6,0c0.8,0,1.3-0.7,1.8-1.2c1.3-1.4,2.6-2.7,4-4.1&#10;&#9;&#9;&#9;&#9;&#9;&#9;c6.5-6.7,13-13.4,19.4-20.1c1.2-1.2-0.7-3-1.8-1.8c-8.1,8.3-16.1,16.6-24.2,25c0.5-0.5,1.3-0.3,0.4-0.3c-0.6,0-1.2,0-1.8,0&#10;&#9;&#9;&#9;&#9;&#9;&#9;c-2.2,0-4.4,0-6.6,0c-7.2,0-14.4,0-21.6,0c-17.3,0-34.5,0-51.8,0c0.4,0.4,0.9,0.9,1.3,1.3c0-20.3,0-40.6,0-61&#10;&#9;&#9;&#9;&#9;&#9;&#9;c0-30.9,0-61.8,0-92.7c0-5.4,0-10.7,0-16.1c-0.4,0.4-0.9,0.9-1.3,1.3c25.3,0,50.5,0,75.8,0c10.2,0,20.5,0,30.7,0&#10;&#9;&#9;&#9;&#9;&#9;&#9;c-0.4-0.4-0.9-0.9-1.3-1.3c0,22.3,0,44.7,0,67c0,25.6,0,51.2,0,76.8c0,0.3,0,0.7,0,1C444.3-307.7,446.8-307.7,446.8-309.4z" style="fill: rgb(73, 48, 28);"/>
				</g>
				<g>
					<path class="st3" d="M439.2-381.1c0-18.2,0-36.3,0-54.5c0-0.7-0.6-1.3-1.3-1.3c-25.7,0-51.4,0-77.1,0c-4.1,0-8.3,0-12.4,0&#10;&#9;&#9;&#9;&#9;&#9;&#9;c-0.7,0-1.3,0.6-1.3,1.3c0,22,0,44,0,66.1c0,0.7,0.6,1.3,1.3,1.3c24.9,0,49.9,0,74.8,0c0.9,0,1.8,0,2.6,0&#10;&#9;&#9;&#9;&#9;&#9;&#9;c1.1,0,1.7-0.9,2.4-1.6c3.5-3.4,7.1-6.9,10.6-10.3c1.2-1.2-0.6-3-1.8-1.8c-2,2-4.1,4-6.1,6c-1.3,1.3-2.7,2.6-4,3.9&#10;&#9;&#9;&#9;&#9;&#9;&#9;c-0.4,0.4-0.9,0.8-1.3,1.3c-0.7,0.7-0.4,0.1,0.4,0.1c-3.5,0-6.9,0-10.4,0c-15.9,0-31.8,0-47.7,0c-6.5,0-13,0-19.5,0&#10;&#9;&#9;&#9;&#9;&#9;&#9;c0.4,0.4,0.9,0.9,1.3,1.3c0-22,0-44,0-66.1c-0.4,0.4-0.9,0.9-1.3,1.3c25.7,0,51.4,0,77.1,0c4.1,0,8.3,0,12.4,0&#10;&#9;&#9;&#9;&#9;&#9;&#9;c-0.4-0.4-0.9-0.9-1.3-1.3c0,18.2,0,36.3,0,54.5C436.6-379.5,439.2-379.5,439.2-381.1z" style="fill: rgb(73, 48, 28);"/>
				</g>
				<g>
					<path d="M 378.8999938964844 -346.6000061035156 L 369.70001220703125 -346.6000061035156 L 369.70001220703125 -355.8999938964844 L 358.20001220703125 -355.8999938964844 L 358.20001220703125 -346.6000061035156 L 348.8999938964844 -346.6000061035156 L 348.8999938964844 -335.1000061035156 L 358.20001220703125 -335.1000061035156 L 358.20001220703125 -325.79998779296875 L 369.70001220703125 -325.79998779296875 L 369.70001220703125 -335.1000061035156 L 378.8999938964844 -335.1000061035156 Z" class="st11" style="fill: rgb(105, 118, 119);"/>
					<path class="st3" d="M378.9-347.9c-3.1,0-6.2,0-9.3,0c0.4,0.4,0.9,0.9,1.3,1.3c0-3.1,0-6.2,0-9.3c0-0.7-0.6-1.3-1.3-1.3&#10;&#9;&#9;&#9;&#9;&#9;&#9;c-3.8,0-7.6,0-11.5,0c-0.7,0-1.3,0.6-1.3,1.3c0,3.1,0,6.2,0,9.3c0.4-0.4,0.9-0.9,1.3-1.3c-3.1,0-6.2,0-9.3,0&#10;&#9;&#9;&#9;&#9;&#9;&#9;c-0.7,0-1.3,0.6-1.3,1.3c0,3.8,0,7.6,0,11.5c0,0.7,0.6,1.3,1.3,1.3c3.1,0,6.2,0,9.3,0c-0.4-0.4-0.9-0.9-1.3-1.3&#10;&#9;&#9;&#9;&#9;&#9;&#9;c0,3.1,0,6.2,0,9.3c0,0.7,0.6,1.3,1.3,1.3c3.8,0,7.6,0,11.5,0c0.7,0,1.3-0.6,1.3-1.3c0-3.1,0-6.2,0-9.3&#10;&#9;&#9;&#9;&#9;&#9;&#9;c-0.4,0.4-0.9,0.9-1.3,1.3c3.1,0,6.2,0,9.3,0c0.7,0,1.3-0.6,1.3-1.3c0-3.8,0-7.6,0-11.5c0-1.7-2.6-1.7-2.6,0&#10;&#9;&#9;&#9;&#9;&#9;&#9;c0,3.8,0,7.6,0,11.5c0.4-0.4,0.9-0.9,1.3-1.3c-3.1,0-6.2,0-9.3,0c-0.7,0-1.3,0.6-1.3,1.3c0,3.1,0,6.2,0,9.3&#10;&#9;&#9;&#9;&#9;&#9;&#9;c0.4-0.4,0.9-0.9,1.3-1.3c-3.8,0-7.6,0-11.5,0c0.4,0.4,0.9,0.9,1.3,1.3c0-3.1,0-6.2,0-9.3c0-0.7-0.6-1.3-1.3-1.3&#10;&#9;&#9;&#9;&#9;&#9;&#9;c-3.1,0-6.2,0-9.3,0c0.4,0.4,0.9,0.9,1.3,1.3c0-3.8,0-7.6,0-11.5c-0.4,0.4-0.9,0.9-1.3,1.3c3.1,0,6.2,0,9.3,0&#10;&#9;&#9;&#9;&#9;&#9;&#9;c0.7,0,1.3-0.6,1.3-1.3c0-3.1,0-6.2,0-9.3c-0.4,0.4-0.9,0.9-1.3,1.3c3.8,0,7.6,0,11.5,0c-0.4-0.4-0.9-0.9-1.3-1.3&#10;&#9;&#9;&#9;&#9;&#9;&#9;c0,3.1,0,6.2,0,9.3c0,0.7,0.6,1.3,1.3,1.3c3.1,0,6.2,0,9.3,0C380.6-345.3,380.6-347.9,378.9-347.9z" style="fill: rgb(73, 48, 28);"/>
				</g>
				<g>
					<g>
						<path class="st7" d="M390.5-316.5c-0.3-0.6-1-0.9-1.6-0.6l-9.3,4.3c-0.6,0.3-0.9,1-0.6,1.6l0,0.1c0.3,0.6,1,0.9,1.6,0.6&#10;&#9;&#9;&#9;&#9;&#9;&#9;&#9;l9.3-4.3C390.6-315.1,390.8-315.9,390.5-316.5L390.5-316.5z" style="fill: rgb(97, 177, 183);"/>
						<path class="st3" d="M391.6-317.2c-2-2.8-5.7,0-8,1.1c-2.1,1-7.3,2.3-5.7,5.6c1.5,3.1,6.2-0.2,8-1.1&#10;&#9;&#9;&#9;&#9;&#9;&#9;&#9;C388.1-312.6,393.2-313.8,391.6-317.2c-0.7-1.5-2.9-0.2-2.2,1.3c-0.2-0.4-9,4.5-9.2,4.1c0.2,0.3,4-1.7,4.3-1.9&#10;&#9;&#9;&#9;&#9;&#9;&#9;&#9;c1.1-0.5,2.3-1.1,3.4-1.6c0.4-0.2,0.7-0.3,1.1-0.5c0.4-0.2,0.4-0.2,0.4-0.1C390.4-314.6,392.6-315.9,391.6-317.2z" style="fill: rgb(73, 48, 28);"/>
					</g>
				</g>
			</g>
		</g>
		<g>
			<path d="M 156.6999969482422 -184.39999389648438 L 314.5 -184.39999389648438 L 314.5 -369.70001220703125 L 156.6999969482422 -369.70001220703125 Z" class="st1" style="fill-rule: evenodd; clip-rule: evenodd; fill: rgb(172, 178, 218);"/>
			<g>
				<g>
					<path d="M 288.79998779296875 -217.1999969482422 L 288.79998779296875 -362 L 182.39999389648438 -362 L 182.39999389648438 -192.1999969482422 L 264.6000061035156 -192.1999969482422 Z" class="st8" style="fill: rgb(255, 207, 110);"/>
					<path class="st3" d="M290.1-217.2c0-22.3,0-44.7,0-67c0-25.6,0-51.2,0-76.8c0-0.3,0-0.7,0-1c0-0.7-0.6-1.3-1.3-1.3&#10;&#9;&#9;&#9;&#9;&#9;&#9;c-25.3,0-50.5,0-75.8,0c-10.2,0-20.5,0-30.7,0c-0.7,0-1.3,0.6-1.3,1.3c0,20.3,0,40.6,0,61c0,30.9,0,61.8,0,92.7&#10;&#9;&#9;&#9;&#9;&#9;&#9;c0,5.4,0,10.7,0,16.1c0,0.7,0.6,1.3,1.3,1.3c25.4,0,50.8,0,76.2,0c2,0,4,0,6,0c0.8,0,1.3-0.7,1.8-1.2c1.3-1.4,2.6-2.7,4-4.1&#10;&#9;&#9;&#9;&#9;&#9;&#9;c6.5-6.7,13-13.4,19.4-20.1c1.2-1.2-0.7-3-1.8-1.8c-8.1,8.3-16.1,16.6-24.2,25c0.5-0.5,1.3-0.3,0.4-0.3c-0.6,0-1.2,0-1.8,0&#10;&#9;&#9;&#9;&#9;&#9;&#9;c-2.2,0-4.4,0-6.6,0c-7.2,0-14.4,0-21.6,0c-17.3,0-34.5,0-51.8,0c0.4,0.4,0.9,0.9,1.3,1.3c0-20.3,0-40.6,0-61&#10;&#9;&#9;&#9;&#9;&#9;&#9;c0-30.9,0-61.8,0-92.7c0-5.4,0-10.7,0-16.1c-0.4,0.4-0.9,0.9-1.3,1.3c25.3,0,50.5,0,75.8,0c10.2,0,20.5,0,30.7,0&#10;&#9;&#9;&#9;&#9;&#9;&#9;c-0.4-0.4-0.9-0.9-1.3-1.3c0,22.3,0,44.7,0,67c0,25.6,0,51.2,0,76.8c0,0.3,0,0.7,0,1C287.5-215.5,290.1-215.5,290.1-217.2z" style="fill: rgb(73, 48, 28);"/>
				</g>
				<g>
					<path d="M 281.20001220703125 -288.8999938964844 L 281.20001220703125 -343.3999938964844 L 191.60000610351562 -343.3999938964844 L 191.60000610351562 -277.29998779296875 L 269.29998779296875 -277.29998779296875 Z" class="st9" style="fill: rgb(122, 131, 132);"/>
					<path class="st3" d="M282.5-288.9c0-18.2,0-36.3,0-54.5c0-0.7-0.6-1.3-1.3-1.3c-25.7,0-51.4,0-77.1,0c-4.1,0-8.3,0-12.4,0&#10;&#9;&#9;&#9;&#9;&#9;&#9;c-0.7,0-1.3,0.6-1.3,1.3c0,22,0,44,0,66.1c0,0.7,0.6,1.3,1.3,1.3c24.9,0,49.9,0,74.8,0c0.9,0,1.8,0,2.6,0&#10;&#9;&#9;&#9;&#9;&#9;&#9;c1.1,0,1.7-0.9,2.4-1.6c3.5-3.4,7.1-6.9,10.6-10.3c1.2-1.2-0.6-3-1.8-1.8c-2,2-4.1,4-6.1,6c-1.3,1.3-2.7,2.6-4,3.9&#10;&#9;&#9;&#9;&#9;&#9;&#9;c-0.4,0.4-0.9,0.8-1.3,1.3c-0.7,0.7-0.4,0.1,0.4,0.1c-3.5,0-6.9,0-10.4,0c-15.9,0-31.8,0-47.7,0c-6.5,0-13,0-19.5,0&#10;&#9;&#9;&#9;&#9;&#9;&#9;c0.4,0.4,0.9,0.9,1.3,1.3c0-22,0-44,0-66.1c-0.4,0.4-0.9,0.9-1.3,1.3c25.7,0,51.4,0,77.1,0c4.1,0,8.3,0,12.4,0&#10;&#9;&#9;&#9;&#9;&#9;&#9;c-0.4-0.4-0.9-0.9-1.3-1.3c0,18.2,0,36.3,0,54.5C279.9-287.3,282.5-287.3,282.5-288.9z" style="fill: rgb(73, 48, 28);"/>
				</g>
				<g>
					<path d="M 264.79998779296875 -281.70001220703125 L 206.89999389648438 -281.70001220703125 L 206.89999389648438 -339.6000061035156 L 264.79998779296875 -339.6000061035156 Z" class="st10" style="fill: rgb(101, 112, 114);"/>
					<path class="st3" d="M264.8-283c-19.3,0-38.6,0-57.9,0c0.4,0.4,0.9,0.9,1.3,1.3c0-19.3,0-38.6,0-57.9c-0.4,0.4-0.9,0.9-1.3,1.3&#10;&#9;&#9;&#9;&#9;&#9;&#9;c19.3,0,38.6,0,57.9,0c-0.4-0.4-0.9-0.9-1.3-1.3c0,19.3,0,38.6,0,57.9c0,1.7,2.6,1.7,2.6,0c0-19.3,0-38.6,0-57.9&#10;&#9;&#9;&#9;&#9;&#9;&#9;c0-0.7-0.6-1.3-1.3-1.3c-19.3,0-38.6,0-57.9,0c-0.7,0-1.3,0.6-1.3,1.3c0,19.3,0,38.6,0,57.9c0,0.7,0.6,1.3,1.3,1.3&#10;&#9;&#9;&#9;&#9;&#9;&#9;c19.3,0,38.6,0,57.9,0C266.5-280.4,266.5-283,264.8-283z" style="fill: rgb(73, 48, 28);"/>
				</g>
				<g>
					<path d="M 222.1999969482422 -254.39999389648438 L 212.89999389648438 -254.39999389648438 L 212.89999389648438 -263.70001220703125 L 201.5 -263.70001220703125 L 201.5 -254.39999389648438 L 192.1999969482422 -254.39999389648438 L 192.1999969482422 -242.89999389648438 L 201.5 -242.89999389648438 L 201.5 -233.6999969482422 L 212.89999389648438 -233.6999969482422 L 212.89999389648438 -242.89999389648438 L 222.1999969482422 -242.89999389648438 Z" class="st11" style="fill: rgb(105, 118, 119);"/>
					<path class="st3" d="M222.2-255.7c-3.1,0-6.2,0-9.3,0c0.4,0.4,0.9,0.9,1.3,1.3c0-3.1,0-6.2,0-9.3c0-0.7-0.6-1.3-1.3-1.3&#10;&#9;&#9;&#9;&#9;&#9;&#9;c-3.8,0-7.6,0-11.5,0c-0.7,0-1.3,0.6-1.3,1.3c0,3.1,0,6.2,0,9.3c0.4-0.4,0.9-0.9,1.3-1.3c-3.1,0-6.2,0-9.3,0&#10;&#9;&#9;&#9;&#9;&#9;&#9;c-0.7,0-1.3,0.6-1.3,1.3c0,3.8,0,7.6,0,11.5c0,0.7,0.6,1.3,1.3,1.3c3.1,0,6.2,0,9.3,0c-0.4-0.4-0.9-0.9-1.3-1.3&#10;&#9;&#9;&#9;&#9;&#9;&#9;c0,3.1,0,6.2,0,9.3c0,0.7,0.6,1.3,1.3,1.3c3.8,0,7.6,0,11.5,0c0.7,0,1.3-0.6,1.3-1.3c0-3.1,0-6.2,0-9.3&#10;&#9;&#9;&#9;&#9;&#9;&#9;c-0.4,0.4-0.9,0.9-1.3,1.3c3.1,0,6.2,0,9.3,0c0.7,0,1.3-0.6,1.3-1.3c0-3.8,0-7.6,0-11.5c0-1.7-2.6-1.7-2.6,0&#10;&#9;&#9;&#9;&#9;&#9;&#9;c0,3.8,0,7.6,0,11.5c0.4-0.4,0.9-0.9,1.3-1.3c-3.1,0-6.2,0-9.3,0c-0.7,0-1.3,0.6-1.3,1.3c0,3.1,0,6.2,0,9.3&#10;&#9;&#9;&#9;&#9;&#9;&#9;c0.4-0.4,0.9-0.9,1.3-1.3c-3.8,0-7.6,0-11.5,0c0.4,0.4,0.9,0.9,1.3,1.3c0-3.1,0-6.2,0-9.3c0-0.7-0.6-1.3-1.3-1.3&#10;&#9;&#9;&#9;&#9;&#9;&#9;c-3.1,0-6.2,0-9.3,0c0.4,0.4,0.9,0.9,1.3,1.3c0-3.8,0-7.6,0-11.5c-0.4,0.4-0.9,0.9-1.3,1.3c3.1,0,6.2,0,9.3,0&#10;&#9;&#9;&#9;&#9;&#9;&#9;c0.7,0,1.3-0.6,1.3-1.3c0-3.1,0-6.2,0-9.3c-0.4,0.4-0.9,0.9-1.3,1.3c3.8,0,7.6,0,11.5,0c-0.4-0.4-0.9-0.9-1.3-1.3&#10;&#9;&#9;&#9;&#9;&#9;&#9;c0,3.1,0,6.2,0,9.3c0,0.7,0.6,1.3,1.3,1.3c3.1,0,6.2,0,9.3,0C223.9-253.1,223.9-255.7,222.2-255.7z" style="fill: rgb(73, 48, 28);"/>
				</g>
				<g>
					<g>
						<path class="st2" d="M264.6-240.8c0,3.5-2.8,6.4-6.4,6.4c-3.5,0-6.4-2.8-6.4-6.4c0-3.5,2.8-6.4,6.4-6.4&#10;&#9;&#9;&#9;&#9;&#9;&#9;&#9;C261.8-247.2,264.6-244.3,264.6-240.8z" style="fill: rgb(201, 47, 47);"/>
						<path class="st3" d="M263.3-240.8c-0.4,6.5-9.8,6.5-10.1,0C252.8-247.3,263-247.3,263.3-240.8c0.1,1.7,2.7,1.7,2.6,0&#10;&#9;&#9;&#9;&#9;&#9;&#9;&#9;c-0.2-4.3-3.3-7.4-7.6-7.6c-4.3-0.2-7.4,3.7-7.6,7.6c-0.2,4.3,3.7,7.4,7.6,7.6c4.3,0.2,7.4-3.7,7.6-7.6&#10;&#9;&#9;&#9;&#9;&#9;&#9;&#9;C266-242.5,263.4-242.5,263.3-240.8z" style="fill: rgb(73, 48, 28);"/>
					</g>
					<g>
						<path class="st2" d="M278.2-254.4c0,3.5-2.8,6.4-6.4,6.4c-3.5,0-6.4-2.8-6.4-6.4c0-3.5,2.8-6.4,6.4-6.4&#10;&#9;&#9;&#9;&#9;&#9;&#9;&#9;C275.4-260.8,278.2-257.9,278.2-254.4z" style="fill: rgb(201, 47, 47);"/>
						<path class="st3" d="M276.9-254.4c-0.4,6.5-9.8,6.5-10.1,0C266.4-261,276.6-260.9,276.9-254.4c0.1,1.7,2.7,1.7,2.6,0&#10;&#9;&#9;&#9;&#9;&#9;&#9;&#9;c-0.2-4.3-3.3-7.4-7.6-7.6c-4.3-0.2-7.4,3.7-7.6,7.6c-0.2,4.3,3.7,7.4,7.6,7.6c4.3,0.2,7.4-3.7,7.6-7.6&#10;&#9;&#9;&#9;&#9;&#9;&#9;&#9;C279.6-256.1,277-256.1,276.9-254.4z" style="fill: rgb(73, 48, 28);"/>
					</g>
				</g>
				<g>
					<path d="M 265.6000061035156 -198.8000030517578 L 264.1000061035156 -197.39999389648438 L 252.8000030517578 -208.6999969482422 L 254.3000030517578 -210.10000610351562 Z" class="st3" style="fill: rgb(73, 48, 28);"/>
					<path d="M 269.29998779296875 -202.60000610351562 L 267.8999938964844 -201.10000610351562 L 256.6000061035156 -212.39999389648438 L 258 -213.89999389648438 Z" class="st3" style="fill: rgb(73, 48, 28);"/>
					<path d="M 273.1000061035156 -206.3000030517578 L 271.70001220703125 -204.89999389648438 L 260.3999938964844 -216.1999969482422 L 261.79998779296875 -217.6999969482422 Z" class="st3" style="fill: rgb(73, 48, 28);"/>
					<path d="M 276.8999938964844 -210.10000610351562 L 275.3999938964844 -208.6999969482422 L 264.1000061035156 -220 L 265.6000061035156 -221.39999389648438 Z" class="st3" style="fill: rgb(73, 48, 28);"/>
					<path d="M 280.6000061035156 -213.89999389648438 L 279.20001220703125 -212.39999389648438 L 267.8999938964844 -223.6999969482422 L 269.29998779296875 -225.1999969482422 Z" class="st3" style="fill: rgb(73, 48, 28);"/>
					<path d="M 284.3999938964844 -217.6999969482422 L 283 -216.1999969482422 L 271.70001220703125 -227.5 L 273.1000061035156 -229 Z" class="st3" style="fill: rgb(73, 48, 28);"/>
				</g>
				<g>
					<g>
						<path class="st7" d="M233.8-224.4c-0.3-0.6-1-0.9-1.6-0.6l-9.3,4.3c-0.6,0.3-0.9,1-0.6,1.6l0,0.1c0.3,0.6,1,0.9,1.6,0.6&#10;&#9;&#9;&#9;&#9;&#9;&#9;&#9;l9.3-4.3C233.8-222.9,234.1-223.7,233.8-224.4L233.8-224.4z" style="fill: rgb(97, 177, 183);"/>
						<path class="st3" d="M234.9-225c-2-2.8-5.7,0-8,1.1c-2.1,1-7.3,2.3-5.7,5.6c1.5,3.1,6.2-0.2,8-1.1&#10;&#9;&#9;&#9;&#9;&#9;&#9;&#9;C231.4-220.4,236.5-221.7,234.9-225c-0.7-1.5-2.9-0.2-2.2,1.3c-0.2-0.4-9,4.5-9.2,4.1c0.2,0.3,4-1.7,4.3-1.9&#10;&#9;&#9;&#9;&#9;&#9;&#9;&#9;c1.1-0.5,2.3-1.1,3.4-1.6c0.4-0.2,0.7-0.3,1.1-0.5c0.4-0.2,0.4-0.2,0.4-0.1C233.6-222.4,235.9-223.7,234.9-225z" style="fill: rgb(73, 48, 28);"/>
					</g>
					<g>
						<path class="st7" d="M250.1-224.4c-0.3-0.6-1-0.9-1.6-0.6l-9.3,4.3c-0.6,0.3-0.9,1-0.6,1.6l0,0.1c0.3,0.6,1,0.9,1.6,0.6&#10;&#9;&#9;&#9;&#9;&#9;&#9;&#9;l9.3-4.3C250.2-222.9,250.4-223.7,250.1-224.4L250.1-224.4z" style="fill: rgb(97, 177, 183);"/>
						<path class="st3" d="M251.2-225c-2-2.8-5.7,0-8,1.1c-2.1,1-7.3,2.3-5.7,5.6c1.5,3,6.2-0.2,8-1.1&#10;&#9;&#9;&#9;&#9;&#9;&#9;&#9;C247.7-220.4,252.8-221.6,251.2-225c-0.7-1.5-2.9-0.2-2.2,1.3c-0.2-0.4-9,4.4-9.2,4.1c0.2,0.3,4-1.7,4.3-1.9&#10;&#9;&#9;&#9;&#9;&#9;&#9;&#9;c1.1-0.5,2.3-1.1,3.4-1.6c0.4-0.2,0.7-0.3,1.1-0.5c0.4-0.2,0.4-0.2,0.4-0.1C250-222.4,252.2-223.7,251.2-225z" style="fill: rgb(73, 48, 28);"/>
					</g>
				</g>
			</g>
		</g>
		<g>
			<path d="M 0 -276.6000061035156 L 157.6999969482422 -276.6000061035156 L 157.6999969482422 -461.8999938964844 L 0 -461.8999938964844 Z" class="st1" style="fill-rule: evenodd; clip-rule: evenodd; fill: rgb(172, 178, 218);"/>
			<g>
				<g>
					<path d="M 132.10000610351562 -309.3999938964844 L 132.10000610351562 -454.1000061035156 L 25.600000381469727 -454.1000061035156 L 25.600000381469727 -284.3999938964844 L 107.9000015258789 -284.3999938964844 Z" class="st8" style="fill: rgb(255, 207, 110);"/>
					<path class="st3" d="M133.4-309.4c0-22.3,0-44.7,0-67c0-25.6,0-51.2,0-76.8c0-0.3,0-0.7,0-1c0-0.7-0.6-1.3-1.3-1.3&#10;&#9;&#9;&#9;&#9;&#9;&#9;c-25.3,0-50.5,0-75.8,0c-10.2,0-20.5,0-30.7,0c-0.7,0-1.3,0.6-1.3,1.3c0,20.3,0,40.6,0,61c0,30.9,0,61.8,0,92.7&#10;&#9;&#9;&#9;&#9;&#9;&#9;c0,5.4,0,10.7,0,16.1c0,0.7,0.6,1.3,1.3,1.3c25.4,0,50.8,0,76.2,0c2,0,4,0,6,0c0.8,0,1.3-0.7,1.8-1.2c1.3-1.4,2.6-2.7,4-4.1&#10;&#9;&#9;&#9;&#9;&#9;&#9;c6.5-6.7,13-13.4,19.4-20.1c1.2-1.2-0.7-3-1.8-1.8c-8.1,8.3-16.1,16.6-24.2,25c0.5-0.5,1.3-0.3,0.4-0.3c-0.6,0-1.2,0-1.8,0&#10;&#9;&#9;&#9;&#9;&#9;&#9;c-2.2,0-4.4,0-6.6,0c-7.2,0-14.4,0-21.6,0c-17.3,0-34.5,0-51.8,0c0.4,0.4,0.9,0.9,1.3,1.3c0-20.3,0-40.6,0-61&#10;&#9;&#9;&#9;&#9;&#9;&#9;c0-30.9,0-61.8,0-92.7c0-5.4,0-10.7,0-16.1c-0.4,0.4-0.9,0.9-1.3,1.3c25.3,0,50.5,0,75.8,0c10.2,0,20.5,0,30.7,0&#10;&#9;&#9;&#9;&#9;&#9;&#9;c-0.4-0.4-0.9-0.9-1.3-1.3c0,22.3,0,44.7,0,67c0,25.6,0,51.2,0,76.8c0,0.3,0,0.7,0,1C130.8-307.7,133.4-307.7,133.4-309.4z" style="fill: rgb(73, 48, 28);"/>
				</g>
				<g>
					<path class="st3" d="M125.7-381.1c0-18.2,0-36.3,0-54.5c0-0.7-0.6-1.3-1.3-1.3c-25.7,0-51.4,0-77.1,0c-4.1,0-8.3,0-12.4,0&#10;&#9;&#9;&#9;&#9;&#9;&#9;c-0.7,0-1.3,0.6-1.3,1.3c0,22,0,44,0,66.1c0,0.7,0.6,1.3,1.3,1.3c24.9,0,49.9,0,74.8,0c0.9,0,1.8,0,2.6,0&#10;&#9;&#9;&#9;&#9;&#9;&#9;c1.1,0,1.7-0.9,2.4-1.6c3.5-3.4,7.1-6.9,10.6-10.3c1.2-1.2-0.6-3-1.8-1.8c-2,2-4.1,4-6.1,6c-1.3,1.3-2.7,2.6-4,3.9&#10;&#9;&#9;&#9;&#9;&#9;&#9;c-0.4,0.4-0.9,0.8-1.3,1.3c-0.7,0.7-0.4,0.1,0.4,0.1c-3.5,0-6.9,0-10.4,0c-15.9,0-31.8,0-47.7,0c-6.5,0-13,0-19.5,0&#10;&#9;&#9;&#9;&#9;&#9;&#9;c0.4,0.4,0.9,0.9,1.3,1.3c0-22,0-44,0-66.1c-0.4,0.4-0.9,0.9-1.3,1.3c25.7,0,51.4,0,77.1,0c4.1,0,8.3,0,12.4,0&#10;&#9;&#9;&#9;&#9;&#9;&#9;c-0.4-0.4-0.9-0.9-1.3-1.3c0,18.2,0,36.3,0,54.5C123.2-379.5,125.7-379.5,125.7-381.1z" style="fill: rgb(73, 48, 28);"/>
				</g>
				<g>
					<g>
						<path class="st2" d="M107.9-333c0,3.5-2.8,6.4-6.4,6.4c-3.5,0-6.4-2.8-6.4-6.4c0-3.5,2.8-6.4,6.4-6.4&#10;&#9;&#9;&#9;&#9;&#9;&#9;&#9;C105-339.3,107.9-336.5,107.9-333z" style="fill: rgb(201, 47, 47);"/>
						<path class="st3" d="M106.6-333c-0.4,6.5-9.8,6.5-10.1,0C96.1-339.5,106.2-339.5,106.6-333c0.1,1.7,2.7,1.7,2.6,0&#10;&#9;&#9;&#9;&#9;&#9;&#9;&#9;c-0.2-4.3-3.3-7.4-7.6-7.6c-4.3-0.2-7.4,3.7-7.6,7.6c-0.2,4.3,3.7,7.4,7.6,7.6c4.3,0.2,7.4-3.7,7.6-7.6&#10;&#9;&#9;&#9;&#9;&#9;&#9;&#9;C109.3-334.7,106.7-334.6,106.6-333z" style="fill: rgb(73, 48, 28);"/>
					</g>
					<g>
						<path class="st2" d="M121.5-346.6c0,3.5-2.8,6.4-6.4,6.4c-3.5,0-6.4-2.8-6.4-6.4c0-3.5,2.8-6.4,6.4-6.4&#10;&#9;&#9;&#9;&#9;&#9;&#9;&#9;C118.6-353,121.5-350.1,121.5-346.6z" style="fill: rgb(201, 47, 47);"/>
						<path class="st3" d="M120.2-346.6c-0.4,6.5-9.8,6.5-10.1,0C109.7-353.1,119.9-353.1,120.2-346.6c0.1,1.7,2.7,1.7,2.6,0&#10;&#9;&#9;&#9;&#9;&#9;&#9;&#9;c-0.2-4.3-3.3-7.4-7.6-7.6c-4.3-0.2-7.4,3.7-7.6,7.6c-0.2,4.3,3.7,7.4,7.6,7.6c4.3,0.2,7.4-3.7,7.6-7.6&#10;&#9;&#9;&#9;&#9;&#9;&#9;&#9;C122.9-348.3,120.3-348.3,120.2-346.6z" style="fill: rgb(73, 48, 28);"/>
					</g>
				</g>
				<g>
					<path d="M 108.80000305175781 -291 L 107.4000015258789 -289.5 L 96.0999984741211 -300.8999938964844 L 97.5 -302.29998779296875 Z" class="st3" style="fill: rgb(73, 48, 28);"/>
					<path d="M 112.5999984741211 -294.79998779296875 L 111.19999694824219 -293.29998779296875 L 99.9000015258789 -304.6000061035156 L 101.30000305175781 -306.1000061035156 Z" class="st3" style="fill: rgb(73, 48, 28);"/>
					<path d="M 116.4000015258789 -298.5 L 114.9000015258789 -297.1000061035156 L 103.5999984741211 -308.3999938964844 L 105.0999984741211 -309.79998779296875 Z" class="st3" style="fill: rgb(73, 48, 28);"/>
					<path d="M 120.0999984741211 -302.29998779296875 L 118.69999694824219 -300.8999938964844 L 107.4000015258789 -312.20001220703125 L 108.80000305175781 -313.6000061035156 Z" class="st3" style="fill: rgb(73, 48, 28);"/>
					<path d="M 123.9000015258789 -306.1000061035156 L 122.5 -304.6000061035156 L 111.19999694824219 -315.8999938964844 L 112.5999984741211 -317.3999938964844 Z" class="st3" style="fill: rgb(73, 48, 28);"/>
					<path d="M 127.69999694824219 -309.79998779296875 L 126.19999694824219 -308.3999938964844 L 114.9000015258789 -319.70001220703125 L 116.4000015258789 -321.1000061035156 Z" class="st3" style="fill: rgb(73, 48, 28);"/>
				</g>
				<g>
					<g>
						<path class="st7" d="M93.4-316.5c-0.3-0.6-1-0.9-1.6-0.6l-9.3,4.3c-0.6,0.3-0.9,1-0.6,1.6l0,0.1c0.3,0.6,1,0.9,1.6,0.6&#10;&#9;&#9;&#9;&#9;&#9;&#9;&#9;l9.3-4.3C93.4-315.1,93.7-315.9,93.4-316.5L93.4-316.5z" style="fill: rgb(97, 177, 183);"/>
						<path class="st3" d="M94.5-317.2c-2-2.8-5.7,0-8,1.1c-2.1,1-7.3,2.3-5.7,5.6c1.5,3,6.2-0.2,8-1.1&#10;&#9;&#9;&#9;&#9;&#9;&#9;&#9;C91-312.6,96.1-313.8,94.5-317.2c-0.7-1.5-2.9-0.2-2.2,1.3c-0.2-0.4-9,4.4-9.2,4.1c0.2,0.3,4-1.7,4.3-1.9&#10;&#9;&#9;&#9;&#9;&#9;&#9;&#9;c1.1-0.5,2.3-1.1,3.4-1.6c0.4-0.2,0.7-0.3,1.1-0.5c0.4-0.2,0.4-0.2,0.4-0.1C93.3-314.6,95.5-315.9,94.5-317.2z" style="fill: rgb(73, 48, 28);"/>
					</g>
				</g>
			</g>
		</g>
		<g>
			<path d="M 156.6999969482422 -368.70001220703125 L 314.5 -368.70001220703125 L 314.5 -554.0999755859375 L 156.6999969482422 -554.0999755859375 Z" class="st1" style="fill-rule: evenodd; clip-rule: evenodd; fill: rgb(172, 178, 218);"/>
		</g>
	</g>
</pattern>
<pattern y="1112" width="245.7" height="245.7" patternUnits="userSpaceOnUse" id="New_Pattern_5" viewBox="123.3 -307.6 245.7 245.7" style="overflow:visible;">
	<g>
		<path d="M 123.30000305175781 -307.6000061035156 L 369 -307.6000061035156 L 369 -61.900001525878906 L 123.30000305175781 -61.900001525878906 Z" class="st12" style="fill: none;"/>
		<g>
			<path d="M 492.29998779296875 -123.80000305175781 L 368.5 -123.80000305175781 L 368.5 0 L 492.29998779296875 0 Z" class="st13" style="fill-rule: evenodd; clip-rule: evenodd; fill: rgb(249, 229, 188);"/>
		</g>
		<g>
			<path d="M 369.5 -123.80000305175781 L 245.6999969482422 -123.80000305175781 L 245.6999969482422 0 L 369.5 0 Z" class="st13" style="fill-rule: evenodd; clip-rule: evenodd; fill: rgb(249, 229, 188);"/>
			<g>
				<g>
					<path class="st2" d="M348-61.9c0-22.3-18.1-40.4-40.4-40.4s-40.4,18.1-40.4,40.4c0,22.3,18.1,40.4,40.4,40.4S348-39.6,348-61.9&#10;&#9;&#9;&#9;&#9;&#9;&#9;z" style="fill: rgb(201, 47, 47);"/>
					<path class="st3" d="M349.3-61.9c-0.2-23.4-19.7-42.3-43.2-41.7C282.7-103,264.5-82.1,266-59c1.4,22.3,21,39.4,43.1,38.8&#10;&#9;&#9;&#9;&#9;&#9;&#9;C331.3-20.8,349.1-39.9,349.3-61.9c0-1.7-2.6-1.7-2.6,0c-0.1,12.1-5.6,23.2-15,30.8c-9.5,7.7-22.6,10-34.3,7&#10;&#9;&#9;&#9;&#9;&#9;&#9;c-11.5-3-20.8-11.4-25.7-22.1c-5.1-11.2-4.1-24.5,1.8-35.1c8.7-15.5,27.2-22.8,44.2-18.4c17,4.4,28.8,20.4,29,37.8&#10;&#9;&#9;&#9;&#9;&#9;&#9;C346.7-60.3,349.3-60.3,349.3-61.9z" style="fill: rgb(73, 48, 28);"/>
				</g>
				<path d="M 348 -61.900001525878906 L 267.20001220703125 -61.900001525878906 L 267.20001220703125 -60.29999923706055 L 348 -60.29999923706055 Z" class="st3" style="fill: rgb(73, 48, 28);"/>
				<g>
					<path class="st4" d="M318.3-59.8c0-5.9-4.8-10.7-10.7-10.7c-5.9,0-10.7,4.8-10.7,10.7S301.6-49,307.6-49&#10;&#9;&#9;&#9;&#9;&#9;&#9;C313.5-49,318.3-53.8,318.3-59.8z" style="fill: rgb(255, 255, 255);"/>
					<path class="st3" d="M319.6-59.8c-0.2-6.7-5.3-11.8-12-12c-6.7-0.2-11.8,5.7-12,12c-0.2,6.7,5.7,11.8,12,12&#10;&#9;&#9;&#9;&#9;&#9;&#9;C314.3-47.5,319.4-53.4,319.6-59.8c0.1-1.7-2.5-1.7-2.6,0c-0.2,5.3-4.2,9.3-9.5,9.5c-5.3,0.2-9.3-4.4-9.5-9.5&#10;&#9;&#9;&#9;&#9;&#9;&#9;c-0.2-5.3,4.4-9.3,9.5-9.5c5.3-0.2,9.3,4.4,9.5,9.5C317.1-58.1,319.7-58.1,319.6-59.8z" style="fill: rgb(73, 48, 28);"/>
				</g>
				<path class="st3" d="M313.8-59.8c0-3.4-2.8-6.2-6.2-6.2c-3.4,0-6.2,2.8-6.2,6.2s2.8,6.2,6.2,6.2C311-53.5,313.8-56.3,313.8-59.8&#10;&#9;&#9;&#9;&#9;&#9;z" style="fill: rgb(73, 48, 28);"/>
			</g>
		</g>
		<g>
			<path d="M 246.6999969482422 -123.80000305175781 L 122.80000305175781 -123.80000305175781 L 122.80000305175781 0 L 246.6999969482422 0 Z" class="st13" style="fill-rule: evenodd; clip-rule: evenodd; fill: rgb(249, 229, 188);"/>
			<g>
				<g>
					<path class="st2" d="M225.2-61.9c0-22.3-18.1-40.4-40.4-40.4c-22.3,0-40.4,18.1-40.4,40.4c0,22.3,18.1,40.4,40.4,40.4&#10;&#9;&#9;&#9;&#9;&#9;&#9;C207.1-21.5,225.2-39.6,225.2-61.9z" style="fill: rgb(201, 47, 47);"/>
					<path class="st3" d="M226.5-61.9c-0.2-23.4-19.7-42.3-43.2-41.7c-23.4,0.6-41.6,21.5-40.2,44.6c1.4,22.3,21,39.4,43.1,38.8&#10;&#9;&#9;&#9;&#9;&#9;&#9;C208.5-20.8,226.3-39.9,226.5-61.9c0-1.7-2.6-1.7-2.6,0c-0.1,12.1-5.6,23.2-15,30.8c-9.5,7.7-22.6,10-34.3,7&#10;&#9;&#9;&#9;&#9;&#9;&#9;c-11.5-3-20.8-11.4-25.7-22.1c-5.1-11.2-4.1-24.5,1.8-35.1c8.7-15.5,27.2-22.8,44.2-18.4c17,4.4,28.8,20.4,29,37.8&#10;&#9;&#9;&#9;&#9;&#9;&#9;C223.9-60.3,226.5-60.3,226.5-61.9z" style="fill: rgb(73, 48, 28);"/>
				</g>
				<path d="M 225.1999969482422 -61.900001525878906 L 144.3000030517578 -61.900001525878906 L 144.3000030517578 -60.29999923706055 L 225.1999969482422 -60.29999923706055 Z" class="st3" style="fill: rgb(73, 48, 28);"/>
				<g>
					<path class="st4" d="M195.5-59.8c0-5.9-4.8-10.7-10.7-10.7c-5.9,0-10.7,4.8-10.7,10.7S178.8-49,184.7-49&#10;&#9;&#9;&#9;&#9;&#9;&#9;C190.7-49,195.5-53.8,195.5-59.8z" style="fill: rgb(255, 255, 255);"/>
					<path class="st3" d="M196.8-59.8c-0.2-6.7-5.3-11.8-12-12c-6.7-0.2-11.8,5.7-12,12c-0.2,6.7,5.7,11.8,12,12&#10;&#9;&#9;&#9;&#9;&#9;&#9;C191.4-47.5,196.6-53.4,196.8-59.8c0.1-1.7-2.5-1.7-2.6,0c-0.2,5.3-4.2,9.3-9.5,9.5c-5.3,0.2-9.3-4.4-9.5-9.5&#10;&#9;&#9;&#9;&#9;&#9;&#9;c-0.2-5.3,4.4-9.3,9.5-9.5c5.3-0.2,9.3,4.4,9.5,9.5C194.2-58.1,196.8-58.1,196.8-59.8z" style="fill: rgb(73, 48, 28);"/>
				</g>
				<path class="st3" d="M191-59.8c0-3.4-2.8-6.2-6.2-6.2c-3.4,0-6.2,2.8-6.2,6.2s2.8,6.2,6.2,6.2C188.2-53.5,191-56.3,191-59.8z" style="fill: rgb(73, 48, 28);"/>
			</g>
		</g>
		<g>
			<path d="M 123.80000305175781 -123.80000305175781 L 0 -123.80000305175781 L 0 0 L 123.80000305175781 0 Z" class="st13" style="fill-rule: evenodd; clip-rule: evenodd; fill: rgb(249, 229, 188);"/>
		</g>
		<g>
			<path d="M 430.8999938964844 -246.6999969482422 L 307.1000061035156 -246.6999969482422 L 307.1000061035156 -122.80000305175781 L 430.8999938964844 -122.80000305175781 Z" class="st13" style="fill-rule: evenodd; clip-rule: evenodd; fill: rgb(249, 229, 188);"/>
			<g>
				<g>
					<path class="st2" d="M409.4-184.8c0-22.3-18.1-40.4-40.4-40.4s-40.4,18.1-40.4,40.4c0,22.3,18.1,40.4,40.4,40.4&#10;&#9;&#9;&#9;&#9;&#9;&#9;S409.4-162.4,409.4-184.8z" style="fill: rgb(201, 47, 47);"/>
					<path class="st3" d="M410.7-184.8c-0.2-23.4-19.7-42.3-43.2-41.7c-23.4,0.6-41.6,21.5-40.2,44.6c1.4,22.3,21,39.4,43.1,38.8&#10;&#9;&#9;&#9;&#9;&#9;&#9;C392.7-143.7,410.5-162.7,410.7-184.8c0-1.7-2.6-1.7-2.6,0c-0.1,12.1-5.6,23.2-15,30.8c-9.5,7.7-22.6,10-34.3,7&#10;&#9;&#9;&#9;&#9;&#9;&#9;c-11.5-3-20.8-11.4-25.7-22.1c-5.1-11.2-4.1-24.5,1.8-35.1c8.7-15.5,27.2-22.8,44.2-18.4c17,4.4,28.8,20.4,29,37.8&#10;&#9;&#9;&#9;&#9;&#9;&#9;C408.1-183.1,410.7-183.1,410.7-184.8z" style="fill: rgb(73, 48, 28);"/>
				</g>
				<g>
					<path class="st4" d="M328.6-183.1c0.9,21.6,18.6,38.8,40.4,38.8c21.8,0,39.5-17.2,40.4-38.8H328.6z" style="fill: rgb(255, 255, 255);"/>
					<path class="st3" d="M327.3-183.1c1.1,22.2,19.4,39.9,41.7,40.1c22.3,0.2,40.6-18.2,41.7-40.1c0-0.7-0.6-1.3-1.3-1.3&#10;&#9;&#9;&#9;&#9;&#9;&#9;c-25.3,0-50.6,0-75.9,0c-1.6,0-3.2,0-4.8,0c-1.7,0-1.7,2.6,0,2.6c25.3,0,50.6,0,75.9,0c1.6,0,3.2,0,4.8,0&#10;&#9;&#9;&#9;&#9;&#9;&#9;c-0.4-0.4-0.9-0.9-1.3-1.3c-1,20.8-18.3,37.3-39.1,37.5c-20.8,0.2-38.1-17-39.1-37.5C329.8-184.8,327.2-184.8,327.3-183.1z" style="fill: rgb(73, 48, 28);"/>
				</g>
				<path d="M 409.3999938964844 -184.8000030517578 L 328.6000061035156 -184.8000030517578 L 328.6000061035156 -183.10000610351562 L 409.3999938964844 -183.10000610351562 Z" class="st3" style="fill: rgb(73, 48, 28);"/>
				<g>
					<path class="st4" d="M379.7-182.6c0-5.9-4.8-10.7-10.7-10.7s-10.7,4.8-10.7,10.7c0,5.9,4.8,10.7,10.7,10.7&#10;&#9;&#9;&#9;&#9;&#9;&#9;S379.7-176.7,379.7-182.6z" style="fill: rgb(255, 255, 255);"/>
					<path class="st3" d="M381-182.6c-0.2-6.7-5.3-11.8-12-12c-6.7-0.2-11.8,5.7-12,12c-0.2,6.7,5.7,11.8,12,12&#10;&#9;&#9;&#9;&#9;&#9;&#9;C375.7-170.3,380.8-176.2,381-182.6c0.1-1.7-2.5-1.7-2.6,0c-0.2,5.3-4.2,9.3-9.5,9.5c-5.3,0.2-9.3-4.4-9.5-9.5&#10;&#9;&#9;&#9;&#9;&#9;&#9;c-0.2-5.3,4.4-9.3,9.5-9.5c5.3-0.2,9.3,4.4,9.5,9.5C378.5-180.9,381.1-180.9,381-182.6z" style="fill: rgb(73, 48, 28);"/>
				</g>
				<path class="st3" d="M375.2-182.6c0-3.4-2.8-6.2-6.2-6.2s-6.2,2.8-6.2,6.2c0,3.4,2.8,6.2,6.2,6.2S375.2-179.1,375.2-182.6z" style="fill: rgb(73, 48, 28);"/>
			</g>
		</g>
		<g>
			<path d="M 308.1000061035156 -246.6999969482422 L 184.1999969482422 -246.6999969482422 L 184.1999969482422 -122.80000305175781 L 308.1000061035156 -122.80000305175781 Z" class="st13" style="fill-rule: evenodd; clip-rule: evenodd; fill: rgb(249, 229, 188);"/>
			<g>
				<g>
					<path class="st2" d="M286.6-184.8c0-22.3-18.1-40.4-40.4-40.4c-22.3,0-40.4,18.1-40.4,40.4c0,22.3,18.1,40.4,40.4,40.4&#10;&#9;&#9;&#9;&#9;&#9;&#9;C268.5-144.3,286.6-162.4,286.6-184.8z" style="fill: rgb(201, 47, 47);"/>
					<path class="st3" d="M287.9-184.8c-0.2-23.4-19.7-42.3-43.2-41.7c-23.4,0.6-41.6,21.5-40.2,44.6c1.4,22.3,21,39.4,43.1,38.8&#10;&#9;&#9;&#9;&#9;&#9;&#9;C269.9-143.7,287.7-162.7,287.9-184.8c0-1.7-2.6-1.7-2.6,0c-0.1,12.1-5.6,23.2-15,30.8c-9.5,7.7-22.6,10-34.3,7&#10;&#9;&#9;&#9;&#9;&#9;&#9;c-11.5-3-20.8-11.4-25.7-22.1c-5.1-11.2-4.1-24.5,1.8-35.1c8.7-15.5,27.2-22.8,44.2-18.4c17,4.4,28.8,20.4,29,37.8&#10;&#9;&#9;&#9;&#9;&#9;&#9;C285.3-183.1,287.9-183.1,287.9-184.8z" style="fill: rgb(73, 48, 28);"/>
				</g>
				<g>
					<path class="st4" d="M205.8-183.1c0.9,21.6,18.6,38.8,40.4,38.8c21.8,0,39.5-17.2,40.4-38.8H205.8z" style="fill: rgb(255, 255, 255);"/>
					<path class="st3" d="M204.5-183.1c1.1,22.2,19.4,39.9,41.7,40.1c22.3,0.2,40.6-18.2,41.7-40.1c0-0.7-0.6-1.3-1.3-1.3&#10;&#9;&#9;&#9;&#9;&#9;&#9;c-25.3,0-50.6,0-75.9,0c-1.6,0-3.2,0-4.8,0c-1.7,0-1.7,2.6,0,2.6c25.3,0,50.6,0,75.9,0c1.6,0,3.2,0,4.8,0&#10;&#9;&#9;&#9;&#9;&#9;&#9;c-0.4-0.4-0.9-0.9-1.3-1.3c-1,20.8-18.3,37.3-39.1,37.5c-20.8,0.2-38.1-17-39.1-37.5C207-184.8,204.4-184.8,204.5-183.1z" style="fill: rgb(73, 48, 28);"/>
				</g>
				<path d="M 286.6000061035156 -184.8000030517578 L 205.8000030517578 -184.8000030517578 L 205.8000030517578 -183.10000610351562 L 286.6000061035156 -183.10000610351562 Z" class="st3" style="fill: rgb(73, 48, 28);"/>
				<g>
					<path class="st4" d="M256.9-182.6c0-5.9-4.8-10.7-10.7-10.7s-10.7,4.8-10.7,10.7c0,5.9,4.8,10.7,10.7,10.7&#10;&#9;&#9;&#9;&#9;&#9;&#9;S256.9-176.7,256.9-182.6z" style="fill: rgb(255, 255, 255);"/>
					<path class="st3" d="M258.2-182.6c-0.2-6.7-5.3-11.8-12-12c-6.7-0.2-11.8,5.7-12,12c-0.2,6.7,5.7,11.8,12,12&#10;&#9;&#9;&#9;&#9;&#9;&#9;C252.9-170.3,258-176.2,258.2-182.6c0.1-1.7-2.5-1.7-2.6,0c-0.2,5.3-4.2,9.3-9.5,9.5c-5.3,0.2-9.3-4.4-9.5-9.5&#10;&#9;&#9;&#9;&#9;&#9;&#9;c-0.2-5.3,4.4-9.3,9.5-9.5c5.3-0.2,9.3,4.4,9.5,9.5C255.7-180.9,258.2-180.9,258.2-182.6z" style="fill: rgb(73, 48, 28);"/>
				</g>
				<path class="st3" d="M252.4-182.6c0-3.4-2.8-6.2-6.2-6.2c-3.4,0-6.2,2.8-6.2,6.2c0,3.4,2.8,6.2,6.2,6.2&#10;&#9;&#9;&#9;&#9;&#9;C249.6-176.3,252.4-179.1,252.4-182.6z" style="fill: rgb(73, 48, 28);"/>
			</g>
		</g>
		<g>
			<path d="M 185.1999969482422 -246.6999969482422 L 61.400001525878906 -246.6999969482422 L 61.400001525878906 -122.80000305175781 L 185.1999969482422 -122.80000305175781 Z" class="st13" style="fill-rule: evenodd; clip-rule: evenodd; fill: rgb(249, 229, 188);"/>
			<g>
				<g>
					<path class="st2" d="M163.7-184.8c0-22.3-18.1-40.4-40.4-40.4c-22.3,0-40.4,18.1-40.4,40.4c0,22.3,18.1,40.4,40.4,40.4&#10;&#9;&#9;&#9;&#9;&#9;&#9;C145.6-144.3,163.7-162.4,163.7-184.8z" style="fill: rgb(201, 47, 47);"/>
					<path class="st3" d="M165-184.8c-0.2-23.4-19.7-42.3-43.2-41.7c-23.4,0.6-41.6,21.5-40.2,44.6c1.4,22.3,21,39.4,43.1,38.8&#10;&#9;&#9;&#9;&#9;&#9;&#9;C147.1-143.7,164.8-162.7,165-184.8c0-1.7-2.6-1.7-2.6,0c-0.1,12.1-5.6,23.2-15,30.8c-9.5,7.7-22.6,10-34.3,7&#10;&#9;&#9;&#9;&#9;&#9;&#9;c-11.5-3-20.8-11.4-25.7-22.1c-5.1-11.2-4.1-24.5,1.8-35.1c8.7-15.5,27.2-22.8,44.2-18.4c17,4.4,28.8,20.4,29,37.8&#10;&#9;&#9;&#9;&#9;&#9;&#9;C162.5-183.1,165.1-183.1,165-184.8z" style="fill: rgb(73, 48, 28);"/>
				</g>
				<g>
					<path class="st4" d="M82.9-183.1c0.9,21.6,18.6,38.8,40.4,38.8c21.8,0,39.5-17.2,40.4-38.8H82.9z" style="fill: rgb(255, 255, 255);"/>
					<path class="st3" d="M81.6-183.1c1.1,22.2,19.4,39.9,41.7,40.1c22.3,0.2,40.6-18.2,41.7-40.1c0-0.7-0.6-1.3-1.3-1.3&#10;&#9;&#9;&#9;&#9;&#9;&#9;c-25.3,0-50.6,0-75.9,0c-1.6,0-3.2,0-4.8,0c-1.7,0-1.7,2.6,0,2.6c25.3,0,50.6,0,75.9,0c1.6,0,3.2,0,4.8,0&#10;&#9;&#9;&#9;&#9;&#9;&#9;c-0.4-0.4-0.9-0.9-1.3-1.3c-1,20.8-18.3,37.3-39.1,37.5c-20.8,0.2-38.1-17-39.1-37.5C84.1-184.8,81.6-184.8,81.6-183.1z" style="fill: rgb(73, 48, 28);"/>
				</g>
				<path d="M 163.6999969482422 -184.8000030517578 L 82.9000015258789 -184.8000030517578 L 82.9000015258789 -183.10000610351562 L 163.6999969482422 -183.10000610351562 Z" class="st3" style="fill: rgb(73, 48, 28);"/>
				<g>
					<path class="st4" d="M134.1-182.6c0-5.9-4.8-10.7-10.7-10.7c-5.9,0-10.7,4.8-10.7,10.7c0,5.9,4.8,10.7,10.7,10.7&#10;&#9;&#9;&#9;&#9;&#9;&#9;C129.3-171.8,134.1-176.7,134.1-182.6z" style="fill: rgb(255, 255, 255);"/>
					<path class="st3" d="M135.4-182.6c-0.2-6.7-5.3-11.8-12-12c-6.7-0.2-11.8,5.7-12,12c-0.2,6.7,5.7,11.8,12,12&#10;&#9;&#9;&#9;&#9;&#9;&#9;C130-170.3,135.1-176.2,135.4-182.6c0.1-1.7-2.5-1.7-2.6,0c-0.2,5.3-4.2,9.3-9.5,9.5c-5.3,0.2-9.3-4.4-9.5-9.5&#10;&#9;&#9;&#9;&#9;&#9;&#9;c-0.2-5.3,4.4-9.3,9.5-9.5c5.3-0.2,9.3,4.4,9.5,9.5C132.8-180.9,135.4-180.9,135.4-182.6z" style="fill: rgb(73, 48, 28);"/>
				</g>
				<path class="st3" d="M129.6-182.6c0-3.4-2.8-6.2-6.2-6.2c-3.4,0-6.2,2.8-6.2,6.2c0,3.4,2.8,6.2,6.2,6.2&#10;&#9;&#9;&#9;&#9;&#9;C126.8-176.3,129.6-179.1,129.6-182.6z" style="fill: rgb(73, 48, 28);"/>
			</g>
		</g>
		<g>
			<path d="M 492.29998779296875 -369.5 L 368.5 -369.5 L 368.5 -245.6999969482422 L 492.29998779296875 -245.6999969482422 Z" class="st13" style="fill-rule: evenodd; clip-rule: evenodd; fill: rgb(249, 229, 188);"/>
		</g>
		<g>
			<path d="M 369.5 -369.5 L 245.6999969482422 -369.5 L 245.6999969482422 -245.6999969482422 L 369.5 -245.6999969482422 Z" class="st13" style="fill-rule: evenodd; clip-rule: evenodd; fill: rgb(249, 229, 188);"/>
			<g>
				<g>
					<path class="st2" d="M348-307.6c0-22.3-18.1-40.4-40.4-40.4s-40.4,18.1-40.4,40.4c0,22.3,18.1,40.4,40.4,40.4&#10;&#9;&#9;&#9;&#9;&#9;&#9;S348-285.3,348-307.6z" style="fill: rgb(201, 47, 47);"/>
					<path class="st3" d="M349.3-307.6c-0.2-23.4-19.7-42.3-43.2-41.7c-23.4,0.6-41.6,21.5-40.2,44.6c1.4,22.3,21,39.4,43.1,38.8&#10;&#9;&#9;&#9;&#9;&#9;&#9;C331.3-266.5,349.1-285.5,349.3-307.6c0-1.7-2.6-1.7-2.6,0c-0.1,12.1-5.6,23.2-15,30.8c-9.5,7.7-22.6,10-34.3,7&#10;&#9;&#9;&#9;&#9;&#9;&#9;c-11.5-3-20.8-11.4-25.7-22.1c-5.1-11.2-4.1-24.5,1.8-35.1c8.7-15.5,27.2-22.8,44.2-18.4c17,4.4,28.8,20.4,29,37.8&#10;&#9;&#9;&#9;&#9;&#9;&#9;C346.7-305.9,349.3-305.9,349.3-307.6z" style="fill: rgb(73, 48, 28);"/>
				</g>
				<g>
					<path class="st4" d="M267.2-306c0.9,21.6,18.6,38.8,40.4,38.8c21.8,0,39.5-17.2,40.4-38.8H267.2z" style="fill: rgb(255, 255, 255);"/>
					<path class="st3" d="M265.9-306c1.1,22.2,19.4,39.9,41.7,40.1c22.3,0.2,40.6-18.2,41.7-40.1c0-0.7-0.6-1.3-1.3-1.3&#10;&#9;&#9;&#9;&#9;&#9;&#9;c-25.3,0-50.6,0-75.9,0c-1.6,0-3.2,0-4.8,0c-1.7,0-1.7,2.6,0,2.6c25.3,0,50.6,0,75.9,0c1.6,0,3.2,0,4.8,0&#10;&#9;&#9;&#9;&#9;&#9;&#9;c-0.4-0.4-0.9-0.9-1.3-1.3c-1,20.8-18.3,37.3-39.1,37.5c-20.8,0.2-38.1-17-39.1-37.5C268.4-307.6,265.8-307.6,265.9-306z" style="fill: rgb(73, 48, 28);"/>
				</g>
				<path d="M 348 -307.6000061035156 L 267.20001220703125 -307.6000061035156 L 267.20001220703125 -306 L 348 -306 Z" class="st3" style="fill: rgb(73, 48, 28);"/>
				<g>
					<path class="st4" d="M318.3-305.4c0-5.9-4.8-10.7-10.7-10.7c-5.9,0-10.7,4.8-10.7,10.7c0,5.9,4.8,10.7,10.7,10.7&#10;&#9;&#9;&#9;&#9;&#9;&#9;C313.5-294.7,318.3-299.5,318.3-305.4z" style="fill: rgb(255, 255, 255);"/>
					<path class="st3" d="M319.6-305.4c-0.2-6.7-5.3-11.8-12-12c-6.7-0.2-11.8,5.7-12,12c-0.2,6.7,5.7,11.8,12,12&#10;&#9;&#9;&#9;&#9;&#9;&#9;C314.3-293.2,319.4-299,319.6-305.4c0.1-1.7-2.5-1.7-2.6,0c-0.2,5.3-4.2,9.3-9.5,9.5c-5.3,0.2-9.3-4.4-9.5-9.5&#10;&#9;&#9;&#9;&#9;&#9;&#9;c-0.2-5.3,4.4-9.3,9.5-9.5c5.3-0.2,9.3,4.4,9.5,9.5C317.1-303.8,319.7-303.8,319.6-305.4z" style="fill: rgb(73, 48, 28);"/>
				</g>
				<path class="st3" d="M313.8-305.4c0-3.4-2.8-6.2-6.2-6.2c-3.4,0-6.2,2.8-6.2,6.2c0,3.4,2.8,6.2,6.2,6.2&#10;&#9;&#9;&#9;&#9;&#9;C311-299.2,313.8-302,313.8-305.4z" style="fill: rgb(73, 48, 28);"/>
			</g>
		</g>
		<g>
			<path d="M 246.6999969482422 -369.5 L 122.80000305175781 -369.5 L 122.80000305175781 -245.6999969482422 L 246.6999969482422 -245.6999969482422 Z" class="st13" style="fill-rule: evenodd; clip-rule: evenodd; fill: rgb(249, 229, 188);"/>
			<g>
				<g>
					<path class="st2" d="M225.2-307.6c0-22.3-18.1-40.4-40.4-40.4c-22.3,0-40.4,18.1-40.4,40.4c0,22.3,18.1,40.4,40.4,40.4&#10;&#9;&#9;&#9;&#9;&#9;&#9;C207.1-267.2,225.2-285.3,225.2-307.6z" style="fill: rgb(201, 47, 47);"/>
					<path class="st3" d="M226.5-307.6c-0.2-23.4-19.7-42.3-43.2-41.7c-23.4,0.6-41.6,21.5-40.2,44.6c1.4,22.3,21,39.4,43.1,38.8&#10;&#9;&#9;&#9;&#9;&#9;&#9;C208.5-266.5,226.3-285.5,226.5-307.6c0-1.7-2.6-1.7-2.6,0c-0.1,12.1-5.6,23.2-15,30.8c-9.5,7.7-22.6,10-34.3,7&#10;&#9;&#9;&#9;&#9;&#9;&#9;c-11.5-3-20.8-11.4-25.7-22.1c-5.1-11.2-4.1-24.5,1.8-35.1c8.7-15.5,27.2-22.8,44.2-18.4c17,4.4,28.8,20.4,29,37.8&#10;&#9;&#9;&#9;&#9;&#9;&#9;C223.9-305.9,226.5-305.9,226.5-307.6z" style="fill: rgb(73, 48, 28);"/>
				</g>
				<g>
					<path class="st4" d="M144.3-306c0.9,21.6,18.6,38.8,40.4,38.8c21.8,0,39.5-17.2,40.4-38.8H144.3z" style="fill: rgb(255, 255, 255);"/>
					<path class="st3" d="M143.1-306c1.1,22.2,19.4,39.9,41.7,40.1c22.3,0.2,40.6-18.2,41.7-40.1c0-0.7-0.6-1.3-1.3-1.3&#10;&#9;&#9;&#9;&#9;&#9;&#9;c-25.3,0-50.6,0-75.9,0c-1.6,0-3.2,0-4.8,0c-1.7,0-1.7,2.6,0,2.6c25.3,0,50.6,0,75.9,0c1.6,0,3.2,0,4.8,0&#10;&#9;&#9;&#9;&#9;&#9;&#9;c-0.4-0.4-0.9-0.9-1.3-1.3c-1,20.8-18.3,37.3-39.1,37.5c-20.8,0.2-38.1-17-39.1-37.5C145.6-307.6,143-307.6,143.1-306z" style="fill: rgb(73, 48, 28);"/>
				</g>
				<path d="M 225.1999969482422 -307.6000061035156 L 144.3000030517578 -307.6000061035156 L 144.3000030517578 -306 L 225.1999969482422 -306 Z" class="st3" style="fill: rgb(73, 48, 28);"/>
				<g>
					<path class="st4" d="M195.5-305.4c0-5.9-4.8-10.7-10.7-10.7c-5.9,0-10.7,4.8-10.7,10.7c0,5.9,4.8,10.7,10.7,10.7&#10;&#9;&#9;&#9;&#9;&#9;&#9;C190.7-294.7,195.5-299.5,195.5-305.4z" style="fill: rgb(255, 255, 255);"/>
					<path class="st3" d="M196.8-305.4c-0.2-6.7-5.3-11.8-12-12c-6.7-0.2-11.8,5.7-12,12c-0.2,6.7,5.7,11.8,12,12&#10;&#9;&#9;&#9;&#9;&#9;&#9;C191.4-293.2,196.6-299,196.8-305.4c0.1-1.7-2.5-1.7-2.6,0c-0.2,5.3-4.2,9.3-9.5,9.5c-5.3,0.2-9.3-4.4-9.5-9.5&#10;&#9;&#9;&#9;&#9;&#9;&#9;c-0.2-5.3,4.4-9.3,9.5-9.5c5.3-0.2,9.3,4.4,9.5,9.5C194.2-303.8,196.8-303.8,196.8-305.4z" style="fill: rgb(73, 48, 28);"/>
				</g>
				<path class="st3" d="M191-305.4c0-3.4-2.8-6.2-6.2-6.2c-3.4,0-6.2,2.8-6.2,6.2c0,3.4,2.8,6.2,6.2,6.2&#10;&#9;&#9;&#9;&#9;&#9;C188.2-299.2,191-302,191-305.4z" style="fill: rgb(73, 48, 28);"/>
			</g>
		</g>
		<g>
			<path d="M 123.80000305175781 -369.5 L 0 -369.5 L 0 -245.6999969482422 L 123.80000305175781 -245.6999969482422 Z" class="st13" style="fill-rule: evenodd; clip-rule: evenodd; fill: rgb(249, 229, 188);"/>
		</g>
	</g>
</pattern>
<g>
	<path d="M 0 0 H 1792 V 1112 H 0 V 0 Z" class="st14" style="fill-rule: evenodd; clip-rule: evenodd; fill: rgb(72, 71, 71);"/>
</g>
<g>
	<path d="M 0 0 H 447.600006 V 1112 H 0 V 0 Z" class="st15" style="fill-rule: evenodd; clip-rule: evenodd; fill: url('#New_Pattern_5');"/>
</g>
<g>
	<path d="M 447.600006 0 H 895.200012 V 1112 H 447.600006 V 0 Z" class="st16" style="fill-rule: evenodd; clip-rule: evenodd; fill: url('#New_Pattern_3');"/>
</g>
<g>
	<path d="M 1344.400024 0 H 1792.000031 V 1112 H 1344.400024 V 0 Z" class="st17" style="fill-rule: evenodd; clip-rule: evenodd; fill: url('#New_Pattern');"/>
</g>
<path d="M 376 0 H 447.599998 V 1112 H 376 V 0 Z" class="st18" style="opacity: 0.2; fill-rule: evenodd; clip-rule: evenodd; fill: rgb(77, 76, 77);"/>
<path d="M 823.599976 0 H 895.199974 V 1112 H 823.599976 V 0 Z" class="st18" style="opacity: 0.2; fill-rule: evenodd; clip-rule: evenodd; fill: rgb(77, 76, 77);"/>
<path d="M 823.599976 0 H 895.199974 V 1112 H 823.599976 V 0 Z" class="st18" style="opacity: 0.2; fill-rule: evenodd; clip-rule: evenodd; fill: rgb(77, 76, 77);"/>
<g>
	<g>
		<path d="M 896.799988 0 H 1344.399994 V 1112 H 896.799988 V 0 Z" class="st19" style="fill-rule: evenodd; clip-rule: evenodd; fill: url('#New_Pattern_2');"/>
	</g>
	<path d="M 1272.800049 0 H 1344.400047 V 1112 H 1272.800049 V 0 Z" class="st18" style="opacity: 0.2; fill-rule: evenodd; clip-rule: evenodd; fill: rgb(77, 76, 77);"/>
</g>
<radialGradient id="SVGID_1_" cx="699.9999" cy="489.9562" r="604.1926" gradientTransform="matrix(1.28 0 0 1.1347 1.000000e-04 4.670000e-02)" gradientUnits="userSpaceOnUse">
	<stop offset="7.905180e-02" style="stop-color:#FDFBE5"/>
	<stop offset="0.4446" style="stop-color:#013765"/>
	<stop offset="0.6438" style="stop-color:#083764"/>
	<stop offset="0.8036" style="stop-color:#1A3560"/>
	<stop offset="0.9495" style="stop-color:#2B3159"/>
	<stop offset="0.9881" style="stop-color:#302F57"/>
</radialGradient>
<path d="M 0 0 H 1792 V 1112 H 0 V 0 Z" class="st20" style="opacity: 0.2; fill-rule: evenodd; clip-rule: evenodd; fill: url('#SVGID_1_');"/>
</svg>