<?xml version="1.0" encoding="utf-8"?>
<svg id="master-artboard" viewBox="0 0 658.5 491.9" version="1.1" xmlns="http://www.w3.org/2000/svg" x="0px" y="0px" style="enable-background:new 0 0 658.5 491.9;" width="658.5px" height="491.8999938964844px">

<radialGradient id="SVGID_1_" cx="320.9486" cy="242.7437" r="362.2837" gradientTransform="matrix(0.9873 0 0 0.9865 4.2888 3.3011)" gradientUnits="userSpaceOnUse">
		<stop offset="0.4101" style="stop-color:#FAFAFA"/>
		<stop offset="1" style="stop-color:#BFBFBF"/>
	</radialGradient><radialGradient id="SVGID_2_" cx="321.1637" cy="242.7682" r="357.5872" gradientUnits="userSpaceOnUse" style="opacity: 0.1;">
			<stop offset="0.4101" style="stop-color:#F0F0F0"/>
			<stop offset="1" style="stop-color:#BBBDBF"/>
		</radialGradient><radialGradient id="SVGID_3_" cx="321.1636" cy="242.7691" r="357.5836" gradientUnits="userSpaceOnUse" style="opacity: 0.1;">
			<stop offset="0.4101" style="stop-color:#F0F0F0"/>
			<stop offset="1" style="stop-color:#BBBDBF"/>
		</radialGradient><path class="st3" d="M4.3,493.5c-1.4-1.8-2.8-3.7-4.3-5.5v5.5H4.3z" style="fill: url('#SVGID_3_'); opacity: 0.1;" transform="matrix(1, 0, 0, 1, -5.684341886080802e-14, 0)"/><radialGradient id="SVGID_4_" cx="321.1626" cy="242.7678" r="357.5854" gradientUnits="userSpaceOnUse" style="opacity: 0.1;">
			<stop offset="0.4101" style="stop-color:#F0F0F0"/>
			<stop offset="1" style="stop-color:#BBBDBF"/>
		</radialGradient><radialGradient id="SVGID_5_" cx="321.1624" cy="242.7683" r="357.584" gradientUnits="userSpaceOnUse" style="opacity: 0.1;">
			<stop offset="0.4101" style="stop-color:#F0F0F0"/>
			<stop offset="1" style="stop-color:#BBBDBF"/>
		</radialGradient><radialGradient id="SVGID_6_" cx="321.1627" cy="242.7675" r="357.5834" gradientUnits="userSpaceOnUse" style="opacity: 0.1;">
			<stop offset="0.4101" style="stop-color:#F0F0F0"/>
			<stop offset="1" style="stop-color:#BBBDBF"/>
		</radialGradient><radialGradient id="SVGID_7_" cx="321.1627" cy="242.7681" r="357.5848" gradientUnits="userSpaceOnUse" style="opacity: 0.1;">
			<stop offset="0.4101" style="stop-color:#F0F0F0"/>
			<stop offset="1" style="stop-color:#BBBDBF"/>
		</radialGradient><path class="st7" d="M36.4,493.5C22.9,478,10.8,461.5,0,444.1v30.5c4.6,6.4,9.3,12.7,14.3,18.8H36.4z" style="fill: url('#SVGID_7_'); opacity: 0.1;" transform="matrix(1, 0, 0, 1, -5.684341886080802e-14, 0)"/><radialGradient id="SVGID_8_" cx="321.1631" cy="242.7683" r="357.5855" gradientUnits="userSpaceOnUse" style="opacity: 0.1;">
			<stop offset="0.4101" style="stop-color:#F0F0F0"/>
			<stop offset="1" style="stop-color:#BBBDBF"/>
		</radialGradient><radialGradient id="SVGID_9_" cx="321.1629" cy="242.7679" r="357.5843" gradientUnits="userSpaceOnUse" style="opacity: 0.1;">
			<stop offset="0.4101" style="stop-color:#F0F0F0"/>
			<stop offset="1" style="stop-color:#BBBDBF"/>
		</radialGradient><path class="st9" d="M322.3,221.2c-13.1,0-23.7,10.6-23.7,23.7c0,13.1,10.6,23.7,23.7,23.7c13.1,0,23.7-10.6,23.7-23.7&#10;&#9;&#9;&#9;C346,231.9,335.4,221.2,322.3,221.2z M322.3,251.7c-3.7,0-6.8-3-6.8-6.8c0-3.7,3-6.8,6.8-6.8c3.7,0,6.8,3,6.8,6.8&#10;&#9;&#9;&#9;C329.1,248.7,326,251.7,322.3,251.7z" style="fill: url('#SVGID_9_'); opacity: 0.1;" transform="matrix(1, 0, 0, 1, -5.684341886080802e-14, 0)"/><radialGradient id="SVGID_10_" cx="321.1625" cy="242.7683" r="357.5841" gradientUnits="userSpaceOnUse" style="opacity: 0.1;">
			<stop offset="0.4101" style="stop-color:#F0F0F0"/>
			<stop offset="1" style="stop-color:#BBBDBF"/>
		</radialGradient><radialGradient id="SVGID_11_" cx="321.1623" cy="242.7682" r="357.5848" gradientUnits="userSpaceOnUse" style="opacity: 0.1;">
			<stop offset="0.4101" style="stop-color:#F0F0F0"/>
			<stop offset="1" style="stop-color:#BBBDBF"/>
		</radialGradient><radialGradient id="SVGID_12_" cx="321.1627" cy="242.7681" r="357.585" gradientUnits="userSpaceOnUse" style="opacity: 0.1;">
			<stop offset="0.4101" style="stop-color:#F0F0F0"/>
			<stop offset="1" style="stop-color:#BBBDBF"/>
		</radialGradient><radialGradient id="SVGID_13_" cx="321.162" cy="242.768" r="357.5859" gradientUnits="userSpaceOnUse" style="opacity: 0.1;">
			<stop offset="0.4101" style="stop-color:#F0F0F0"/>
			<stop offset="1" style="stop-color:#BBBDBF"/>
		</radialGradient><radialGradient id="SVGID_14_" cx="321.1624" cy="242.768" r="357.5831" gradientUnits="userSpaceOnUse" style="opacity: 0.1;">
			<stop offset="0.4101" style="stop-color:#F0F0F0"/>
			<stop offset="1" style="stop-color:#BBBDBF"/>
		</radialGradient><radialGradient id="SVGID_15_" cx="321.1627" cy="242.7685" r="357.5848" gradientUnits="userSpaceOnUse" style="opacity: 0.1;">
			<stop offset="0.4101" style="stop-color:#F0F0F0"/>
			<stop offset="1" style="stop-color:#BBBDBF"/>
		</radialGradient><radialGradient id="SVGID_16_" cx="321.162" cy="242.7679" r="357.5848" gradientUnits="userSpaceOnUse" style="opacity: 0.1;">
			<stop offset="0.4101" style="stop-color:#F0F0F0"/>
			<stop offset="1" style="stop-color:#BBBDBF"/>
		</radialGradient><radialGradient id="SVGID_17_" cx="321.1626" cy="242.7683" r="357.5843" gradientUnits="userSpaceOnUse" style="opacity: 0.1;">
			<stop offset="0.4101" style="stop-color:#F0F0F0"/>
			<stop offset="1" style="stop-color:#BBBDBF"/>
		</radialGradient><radialGradient id="SVGID_18_" cx="321.1627" cy="242.7685" r="357.583" gradientUnits="userSpaceOnUse" style="opacity: 0.1;">
			<stop offset="0.4101" style="stop-color:#F0F0F0"/>
			<stop offset="1" style="stop-color:#BBBDBF"/>
		</radialGradient><radialGradient id="SVGID_19_" cx="321.1631" cy="242.7688" r="357.5837" gradientUnits="userSpaceOnUse" style="opacity: 0.1;">
			<stop offset="0.4101" style="stop-color:#F0F0F0"/>
			<stop offset="1" style="stop-color:#BBBDBF"/>
		</radialGradient><radialGradient id="SVGID_20_" cx="321.1648" cy="242.7686" r="357.5826" gradientUnits="userSpaceOnUse" style="opacity: 0.1;">
			<stop offset="0.4101" style="stop-color:#F0F0F0"/>
			<stop offset="1" style="stop-color:#BBBDBF"/>
		</radialGradient><path class="st20" d="M658.5,493.5v-25c-5.7,8.6-11.7,16.9-18.1,25H658.5z" style="fill: url('#SVGID_20_'); opacity: 0.1;" transform="matrix(1, 0, 0, 1, -5.684341886080802e-14, 0)"/><radialGradient id="SVGID_21_" cx="321.1624" cy="242.7678" r="357.5833" gradientUnits="userSpaceOnUse" style="opacity: 0.1;">
			<stop offset="0.4101" style="stop-color:#F0F0F0"/>
			<stop offset="1" style="stop-color:#BBBDBF"/>
		</radialGradient><radialGradient id="SVGID_22_" cx="321.1618" cy="242.769" r="357.5857" gradientUnits="userSpaceOnUse" style="opacity: 0.1;">
			<stop offset="0.4101" style="stop-color:#F0F0F0"/>
			<stop offset="1" style="stop-color:#BBBDBF"/>
		</radialGradient><path class="st22" d="M658.5,0h-15.3c5.3,7,10.4,14.1,15.3,21.4V0z" style="fill: url('#SVGID_22_'); opacity: 0.1;" transform="matrix(1, 0, 0, 1, -5.684341886080802e-14, 0)"/><radialGradient id="SVGID_23_" cx="321.1629" cy="242.7685" r="357.5838" gradientUnits="userSpaceOnUse" style="opacity: 0.1;">
			<stop offset="0.4101" style="stop-color:#F0F0F0"/>
			<stop offset="1" style="stop-color:#BBBDBF"/>
		</radialGradient><radialGradient id="SVGID_24_" cx="321.1622" cy="242.7685" r="357.5853" gradientUnits="userSpaceOnUse" style="opacity: 0.1;">
			<stop offset="0.4101" style="stop-color:#F0F0F0"/>
			<stop offset="1" style="stop-color:#BBBDBF"/>
		</radialGradient><radialGradient id="SVGID_25_" cx="321.1627" cy="242.7684" r="357.5844" gradientUnits="userSpaceOnUse" style="opacity: 0.1;">
			<stop offset="0.4101" style="stop-color:#F0F0F0"/>
			<stop offset="1" style="stop-color:#BBBDBF"/>
		</radialGradient><radialGradient id="SVGID_26_" cx="321.1624" cy="242.7684" r="357.5848" gradientUnits="userSpaceOnUse" style="opacity: 0.1;">
			<stop offset="0.4101" style="stop-color:#F0F0F0"/>
			<stop offset="1" style="stop-color:#BBBDBF"/>
		</radialGradient><radialGradient id="SVGID_27_" cx="321.1624" cy="242.7683" r="357.5839" gradientUnits="userSpaceOnUse" style="opacity: 0.1;">
			<stop offset="0.4101" style="stop-color:#F0F0F0"/>
			<stop offset="1" style="stop-color:#BBBDBF"/>
		</radialGradient><radialGradient id="SVGID_28_" cx="321.1628" cy="242.7678" r="357.5848" gradientUnits="userSpaceOnUse" style="opacity: 0.1;">
			<stop offset="0.4101" style="stop-color:#F0F0F0"/>
			<stop offset="1" style="stop-color:#BBBDBF"/>
		</radialGradient><radialGradient id="SVGID_29_" cx="321.163" cy="242.7683" r="357.5828" gradientUnits="userSpaceOnUse" style="opacity: 0.1;">
			<stop offset="0.4101" style="stop-color:#F0F0F0"/>
			<stop offset="1" style="stop-color:#BBBDBF"/>
		</radialGradient><radialGradient id="SVGID_30_" cx="321.1628" cy="242.7679" r="357.5854" gradientUnits="userSpaceOnUse" style="opacity: 0.1;">
			<stop offset="0.4101" style="stop-color:#F0F0F0"/>
			<stop offset="1" style="stop-color:#BBBDBF"/>
		</radialGradient><radialGradient id="SVGID_31_" cx="321.1626" cy="242.7683" r="357.5855" gradientUnits="userSpaceOnUse" style="opacity: 0.1;">
			<stop offset="0.4101" style="stop-color:#F0F0F0"/>
			<stop offset="1" style="stop-color:#BBBDBF"/>
		</radialGradient>

<g transform="matrix(1, 0, 0, 1, 11.39783587799883, 1.5197158960951143)">
		<path class="st33" d="M256.3,207.9l-160.2-0.2l2.2-10.3l2-8l2.2-7.7l2.3-7.2l2-5.6l2-5.3l2.2-5.3l2.5-5.7l1.8-4l1.4-2.8l1.6-3.4&#10;&#9;&#9;&#9;l1.8-3.5l1.5-2.9l1.7-3.1l1.7-3l1.7-2.9l2.1-3.5l1.9-3l2-3l2-3l2.8-4l2.6-3.6l2.4-3.2l2.7-3.5l2.7-3.3l2.6-3.1l2.9-3.3l2.6-2.9&#10;&#9;&#9;&#9;l3.2-3.4l3.6-3.6l4.1-4l3.8-3.6l3.6-3.2l3.1-2.7l3.8-3.2l4.2-3.4l4-3.1l4.8-3.5l4.5-3.1l4.1-2.7l5.1-3.2l5-3l6.5-3.6l5.5-2.9&#10;&#9;&#9;&#9;l5.2-2.5l4.7-2.2l5.1-2.2l5.8-2.3l7.3-2.6l6.1-2l6.2-1.9l6.3-1.7l6.1-1.4l4.8-1l5.9-1.1l7-1.1l7.9-1l7.1-0.7l6.7-0.4l5.6-0.2&#10;&#9;&#9;&#9;l5.3-0.1l5.6,0.1l5.9,0.2l6.2,0.4l6,0.5l4.9,0.5l5.1,0.7l4.7,0.7l4.6,0.8l4.2,0.8l5.6,1.2l5.1,1.2l4.4,1.2l5.1,1.5l4.9,1.5l5.9,2&#10;&#9;&#9;&#9;l5.7,2.1l5,2l4,1.7l4,1.8l3.6,1.7l3.5,1.7l3,1.5l2.8,1.5l2.7,1.5l3.3,1.8l4.3,2.5l3.8,2.3l4.3,2.7l4.5,3l4.6,3.3l4.4,3.3l4.7,3.7&#10;&#9;&#9;&#9;l4.9,4.1l5.3,4.6l4.3,3.9l4.8,4.7l5.3,5.4l4,4.3l3.9,4.4l3.9,4.7l3.9,4.9l3.3,4.4l2.9,4l2.7,4l2.5,3.8l3.2,5.1l3,5l2.9,5.2&#10;&#9;&#9;&#9;l2.9,5.5l2.6,5.2l2.5,5.5l2.2,5l1.9,4.6l1.4,3.6l2.3,6.4l1.8,5.1l1.4,4.3l1.2,3.9l1.1,3.8l1,3.7l1,4.4l0.9,3.9&#10;&#9;&#9;&#9;c0,0,1.3,6.1,1.3,6.4H398.8L397,204l-1.6-2.2l-1.6-2.1l-1.8-2.2l-2.1-2.4l-1.9-2l-2.2-2.2l-2.3-2.2l-2.2-1.8l-2.1-1.7l-2.2-1.6&#10;&#9;&#9;&#9;l-2.5-1.7l-2.3-1.5l-2.7-1.6l-2.6-1.5l-2.9-1.5l-3.3-1.5c0,0-4.7-1.9-5-2c0,0-3.9-1.3-4.4-1.4l-4.3-1.1l-3.8-0.8l-3.6-0.6l-3-0.4&#10;&#9;&#9;&#9;c0,0-4-0.4-4.9-0.4l-4.3-0.1l-3.7,0.1l-4.2,0.3l-3.3,0.4l-3.3,0.5l-3.5,0.7l-3.8,0.9l-3.4,1.1c0,0-3.5,1.2-4.1,1.4&#10;&#9;&#9;&#9;c0,0-3,1.2-3.8,1.6c0,0-3.8,1.8-4.6,2.2l-3.1,1.7l-3.5,2.1l-3.5,2.3c0,0-3.6,2.7-3.7,2.8c0,0-3.1,2.6-4.2,3.5l-2.2,2.1l-2.5,2.5&#10;&#9;&#9;&#9;c0,0-2.2,2.5-2.6,2.9l-2.4,2.8l-2.4,3.1C259.8,202.7,256.5,207.3,256.3,207.9z" style="fill: rgb(236, 28, 36);"/>
		<path class="st32" d="M399.4,288.9l156.7-0.2l-2.1,10l-1.9,7.7l-2.1,7.5l-2.2,7l-1.9,5.4l-1.9,5.1l-2.1,5.2l-2.4,5.5l-1.8,3.9&#10;&#9;&#9;&#9;l-1.3,2.7l-1.6,3.3l-1.7,3.4l-1.5,2.8l-1.7,3l-1.7,2.9l-1.7,2.8l-2.1,3.4l-1.9,2.9l-1.9,3l-2,2.9l-2.7,3.9l-2.6,3.5l-2.3,3.1&#10;&#9;&#9;&#9;l-2.6,3.4l-2.6,3.2l-2.5,3l-2.8,3.2l-2.5,2.8l-3.1,3.3l-3.5,3.5l-4,3.9l-3.7,3.5l-3.5,3.2l-3,2.6l-3.8,3.1l-4.1,3.3l-3.9,3&#10;&#9;&#9;&#9;l-4.7,3.4l-4.4,3l-4,2.6l-5,3.1l-4.9,2.9l-6.4,3.5l-5.4,2.8l-5.1,2.4l-4.6,2.1l-5,2.1l-5.7,2.3l-7.1,2.6l-6,2l-6,1.8l-6.1,1.7&#10;&#9;&#9;&#9;l-5.9,1.4l-4.7,1l-5.8,1.1l-6.9,1.1l-7.7,1l-6.9,0.7l-6.6,0.4l-5.5,0.2l-5.2,0.1l-5.5,0l-5.8-0.2l-6-0.4l-5.9-0.5l-4.7-0.5l-5-0.6&#10;&#9;&#9;&#9;l-4.6-0.7l-4.5-0.8l-4.1-0.8l-5.5-1.2l-5-1.2l-4.3-1.1l-4.9-1.4l-4.8-1.5l-5.7-1.9l-5.6-2.1l-4.9-1.9l-4-1.6L235,460l-3.5-1.6&#10;&#9;&#9;&#9;l-3.4-1.7l-2.9-1.5l-2.7-1.4l-2.7-1.4l-3.3-1.8l-4.2-2.4l-3.7-2.3l-4.2-2.7l-4.4-2.9l-4.5-3.2l-4.3-3.2l-4.6-3.6l-4.8-3.9&#10;&#9;&#9;&#9;l-5.1-4.5l-4.2-3.8l-4.7-4.5l-5.1-5.3l-3.9-4.2l-3.8-4.3l-3.8-4.6l-3.8-4.8l-3.2-4.3l-2.8-3.9l-2.7-3.9l-2.5-3.7l-3.2-5l-2.9-4.9&#10;&#9;&#9;&#9;l-2.9-5.1l-2.9-5.4l-2.6-5.1l-2.5-5.3l-2.2-4.9l-1.9-4.4l-1.4-3.4l-2.3-6.2l-1.7-5l-1.3-4.2l-1.2-3.8l-1.1-3.7l-1-3.6l-1-4.2&#10;&#9;&#9;&#9;l-0.9-3.8c0,0-1.3-6-1.3-6.2l158.3-0.3l1.7,2.5l1.6,2.2l1.6,2l1.8,2.1l2.1,2.4l1.9,1.9l2.2,2.1l2.3,2.1l2.1,1.8l2.1,1.7l2.1,1.6&#10;&#9;&#9;&#9;l2.4,1.7l2.3,1.5l2.6,1.5l2.6,1.4l2.8,1.4l3.2,1.4c0,0,4.6,1.8,4.9,1.9c0,0,3.9,1.2,4.4,1.4l4.2,1.1l3.7,0.7l3.5,0.6l2.9,0.3&#10;&#9;&#9;&#9;c0,0,3.9,0.3,4.8,0.4l4.2,0.1l3.6-0.1l4.2-0.3l3.2-0.4l3.2-0.5l3.5-0.7l3.7-0.9l3.3-1c0,0,3.4-1.1,4-1.4c0,0,2.9-1.2,3.7-1.5&#10;&#9;&#9;&#9;c0,0,3.7-1.7,4.5-2.2l3-1.7l3.4-2l3.4-2.3c0,0,3.5-2.6,3.6-2.7c0,0,3.1-2.6,4.1-3.4l2.2-2l2.4-2.4c0,0,2.2-2.4,2.6-2.8l2.3-2.7&#10;&#9;&#9;&#9;l2.3-3.1C396,294.1,399.2,289.6,399.4,288.9z" style="fill: rgb(255, 255, 255);"/>
		<g id="XMLID_1_">
			<g>
			</g>
			<g>
				<path d="M 562.900009 245.399994 A 233.699997 233.699997 0 0 1 329.200012 479.099991 A 233.699997 233.699997 0 0 1 95.500015 245.399994 A 233.699997 233.699997 0 0 1 329.200012 11.699997 A 233.699997 233.699997 0 0 1 562.900009 245.399994 Z" class="st34" style="fill: none; stroke: rgb(35, 31, 32); stroke-width: 6;"/>
			</g>
		</g>
		<path d="M 396.500015 244.199997 A 67.300003 67.300003 0 0 1 329.200012 311.5 A 67.300003 67.300003 0 0 1 261.900009 244.199997 A 67.300003 67.300003 0 0 1 329.200012 176.899994 A 67.300003 67.300003 0 0 1 396.500015 244.199997 Z" class="st35" style="fill: rgb(255, 255, 255); stroke: rgb(35, 31, 32); stroke-width: 6;"/>
		<path d="M 372.600014 244.800003 A 43.900002 43.900002 0 0 1 328.700012 288.700005 A 43.900002 43.900002 0 0 1 284.800011 244.800003 A 43.900002 43.900002 0 0 1 328.700012 200.900002 A 43.900002 43.900002 0 0 1 372.600014 244.800003 Z" class="st35" style="fill: rgb(255, 255, 255); stroke: rgb(35, 31, 32); stroke-width: 6;"/>
		<path d="M 273.899994 204.899994 L 99 204.899994" class="st34" style="fill: none; stroke: rgb(35, 31, 32); stroke-width: 6;"/>
		<path d="M 277.399994 289.799988 L 102.400002 289.799988" class="st34" style="fill: none; stroke: rgb(35, 31, 32); stroke-width: 6;"/>
		<path d="M 558.900024 203.800003 L 384 203.800003" class="st34" style="fill: none; stroke: rgb(35, 31, 32); stroke-width: 6;"/>
		<path d="M 556.099976 288.700012 L 381.100006 288.700012" class="st34" style="fill: none; stroke: rgb(35, 31, 32); stroke-width: 6;"/>
		<path class="st36" d="M268.5,208.2" style="fill: rgb(35, 31, 32);"/>
		<path class="st36" d="M271,207c0,0-25,36.5,4.1,80.9l-175.2-0.3c0,0-8.2-39-0.9-81L271,207z" style="fill: rgb(35, 31, 32);"/>
		<path class="st36" d="M386.2,288.3c0,0,24.9-37.3-4.1-82.6l175.2,0.3c0,0,8.2,39.9,0.9,82.7L386.2,288.3z" style="fill: rgb(35, 31, 32);"/>
		<path d="M 401.100014 246 A 72.400002 72.400002 0 0 1 328.700012 318.400002 A 72.400002 72.400002 0 0 1 256.300011 246 A 72.400002 72.400002 0 0 1 328.700012 173.599998 A 72.400002 72.400002 0 0 1 401.100014 246 Z" class="st37" style="fill: none; stroke: rgb(35, 31, 32); stroke-width: 18;"/>
	</g>
</svg>