<?xml version="1.0" encoding="utf-8"?>
<svg id="master-artboard" viewBox="0 0 350 350" version="1.1" xmlns="http://www.w3.org/2000/svg" x="0px" y="0px" style="enable-background:new 0 0 1400 980;" width="350px" height="350px"><rect id="ee-background" x="0" y="0" width="350" height="350" style="fill: white; fill-opacity: 0; pointer-events: none;"/>

<path class="st1" d="M1064.1,167.5c-1.5,1-4.7,6.5-8,12.5l-2.9-12.1c-10.7,18.1-16.9,39.6-16.9,62.6c0,12.3,1.8,23.4,5,33.3&#10;&#9;&#9;&#9;c0,0.1,0.1,0.2,0.1,0.2c5.4,16.2,14.7,29.4,26.9,39.5c-0.1,0-0.1,0-0.2-0.1c1.6,1.3,3.3,2.5,5,3.7c1.1,0.8,2.3,1.6,3.4,2.3&#10;&#9;&#9;&#9;c0,0,0,0,0,0c1.3,0.9,2.6,1.7,4,2.5c0,0,0,0,0,0c1.4,0.8,2.7,1.5,4.1,2.3c0,0,0,0,0.1,0c1.4,0.7,2.8,1.4,4.2,2.1c0,0,0.1,0,0.1,0&#10;&#9;&#9;&#9;c1.4,0.7,2.9,1.3,4.3,1.9c0,0,0.1,0,0.1,0.1c1.5,0.6,2.9,1.2,4.4,1.7c0.1,0,0.1,0,0.2,0.1c1.5,0.5,3,1,4.5,1.5&#10;&#9;&#9;&#9;c0.1,0,0.1,0,0.2,0.1c1.5,0.5,3,0.9,4.6,1.3c0.1,0,0.2,0,0.2,0.1c1.5,0.4,3.1,0.8,4.7,1.1c0.1,0,0.2,0,0.3,0.1&#10;&#9;&#9;&#9;c1.6,0.3,3.2,0.7,4.8,1c0.1,0,0.2,0,0.3,0c1.6,0.3,3.2,0.6,4.9,0.8c0.1,0,0.2,0,0.3,0c1.6,0.2,3.3,0.4,5,0.6c0.1,0,0.2,0,0.2,0&#10;&#9;&#9;&#9;c1.7,0.2,3.4,0.3,5.1,0.4c0.1,0,0.1,0,0.2,0c1.7,0.1,3.5,0.2,5.2,0.3c0,0,0.1,0,0.1,0c1.8,0.1,3.6,0.1,5.4,0.1&#10;&#9;&#9;&#9;c12.1,0,23.7-1.4,34.6-4.1c1.7-0.4,3.3-0.9,5-1.3c13.9-4.1,26.3-10.4,36.7-19.1c1.2-1,2.4-2.1,3.6-3.1c0.6-0.5,1.2-1.1,1.7-1.6&#10;&#9;&#9;&#9;c1.7-1.7,3.3-3.4,4.9-5.2c1-1.2,2-2.4,3-3.7c4.8-6.3,8.8-13.4,11.9-21.3c0.2-0.4,0.3-0.9,0.5-1.3l0,0c0,0,0,0,0,0&#10;&#9;&#9;&#9;c0.1-0.4,0.3-0.7,0.4-1.1c3-8.5,4.8-17.9,5.4-28.1v0l0,0c0.1-2.4,0.2-4.7,0.2-7.2l0,0l0,0c0-1.3,0-2.6-0.1-3.9&#10;&#9;&#9;&#9;c0-1.3-0.1-2.6-0.2-3.9c-0.2-2.6-0.4-5.1-0.7-7.6c-0.8-6.3-2-12.4-3.7-18.4c-1.3-4.8-2.9-9.4-4.8-13.9c-1.4-3.4-2.9-6.6-4.6-9.8&#10;&#9;&#9;&#9;l-0.4,0.4c-0.2-0.3-0.3-0.7-0.5-1c0,0-0.1,0.7-0.3,1.9l-5.8,6.6c-2.5-4.6-5-9-6.8-11.6c-0.7-0.9-1.3-1.6-1.7-1.9l14.9-26.4&#10;&#9;&#9;&#9;l17.9-31.7h0h0h0l-7.1-0.3c-12.8-0.5-25.6,0.7-38,3.8l0.6-32.4l-30.4,24.4c-8.5-13.3-22.3-32.2-36.9-41.6v0l0,0l0,0v0&#10;&#9;&#9;&#9;c-14.7,9.4-28.5,28.4-37,41.8l-30.5-24.5l0.6,32.3c-12.4-3-25.1-4.2-37.8-3.7l-7.1,0.3l17.9,31.7L1064.1,167.5z" style="opacity: 0; fill: rgb(255, 255, 255);" transform="matrix(1, 0, 0, 1, -952.3470458984375, -5.2040863037109375)"/><path class="st2" d="M1063.5,166.8c-1.5,1-4.7,6.5-8,12.5l-2.9-12.1c-10.7,18.1-16.9,39.6-16.9,62.6c0,12.3,1.8,23.4,5,33.3&#10;&#9;&#9;&#9;c0,0.1,0.1,0.2,0.1,0.2c5.4,16.2,14.7,29.4,26.9,39.5c-0.1,0-0.1,0-0.2-0.1c1.6,1.3,3.3,2.5,5,3.7c1.1,0.8,2.3,1.6,3.4,2.3&#10;&#9;&#9;&#9;c0,0,0,0,0,0c1.3,0.8,2.6,1.7,4,2.5c0,0,0,0,0,0c1.4,0.8,2.7,1.5,4.1,2.3c0,0,0,0,0.1,0c1.4,0.7,2.8,1.4,4.2,2.1c0,0,0.1,0,0.1,0&#10;&#9;&#9;&#9;c1.4,0.7,2.9,1.3,4.3,1.9c0,0,0.1,0,0.1,0.1c1.5,0.6,2.9,1.2,4.4,1.7c0.1,0,0.1,0,0.2,0.1c1.5,0.5,3,1,4.5,1.5&#10;&#9;&#9;&#9;c0.1,0,0.1,0,0.2,0.1c1.5,0.5,3,0.9,4.6,1.3c0.1,0,0.2,0,0.2,0.1c1.5,0.4,3.1,0.8,4.7,1.1c0.1,0,0.2,0,0.3,0.1&#10;&#9;&#9;&#9;c1.6,0.3,3.2,0.7,4.8,1c0.1,0,0.2,0,0.3,0c1.6,0.3,3.2,0.6,4.9,0.8c0.1,0,0.2,0,0.3,0c1.6,0.2,3.3,0.4,5,0.6c0.1,0,0.2,0,0.2,0&#10;&#9;&#9;&#9;c1.7,0.2,3.4,0.3,5.1,0.4c0.1,0,0.1,0,0.2,0c1.7,0.1,3.5,0.2,5.2,0.3c0,0,0.1,0,0.1,0c1.8,0.1,3.6,0.1,5.4,0.1&#10;&#9;&#9;&#9;c12.1,0,23.7-1.4,34.6-4.1c1.7-0.4,3.3-0.9,5-1.3c13.9-4.1,26.3-10.4,36.7-19.1c1.2-1,2.4-2.1,3.6-3.1c0.6-0.5,1.2-1.1,1.7-1.6&#10;&#9;&#9;&#9;c1.7-1.7,3.3-3.4,4.9-5.2c1-1.2,2-2.4,3-3.7c4.8-6.3,8.8-13.4,11.9-21.3c0.2-0.4,0.3-0.9,0.5-1.3l0,0c0,0,0,0,0,0&#10;&#9;&#9;&#9;c0.1-0.4,0.3-0.7,0.4-1.1c3-8.5,4.8-17.9,5.4-28.1c0,0,0,0,0,0v0c0.1-2.4,0.2-4.7,0.2-7.2l0,0l0,0c0-1.3,0-2.6-0.1-3.9&#10;&#9;&#9;&#9;c0-1.3-0.1-2.6-0.2-3.9c-0.2-2.6-0.4-5.1-0.7-7.6c-0.8-6.3-2-12.4-3.7-18.4c-1.3-4.8-2.9-9.4-4.8-13.9c-1.4-3.4-2.9-6.6-4.6-9.8&#10;&#9;&#9;&#9;l-0.4,0.4c-0.2-0.3-0.3-0.7-0.5-1c0,0-0.1,0.7-0.3,1.9l-5.8,6.6c-2.5-4.6-5-9-6.8-11.6c-0.7-0.9-1.3-1.6-1.7-1.9l14.9-26.4&#10;&#9;&#9;&#9;l17.9-31.7h0h0h0l-7.1-0.3c-12.8-0.5-25.6,0.7-38,3.8l0.6-32.4l-30.4,24.4c-8.5-13.3-22.3-32.2-36.9-41.6v0l0,0l0,0v0&#10;&#9;&#9;&#9;c-14.7,9.4-28.5,28.4-37,41.8l-30.5-24.5l0.6,32.3c-12.4-3-25.1-4.2-37.8-3.7l-7.1,0.3l17.9,31.7L1063.5,166.8z" style="opacity: 0.032258; fill: rgb(247, 247, 247);" transform="matrix(1, 0, 0, 1, -952.3470458984375, -5.2040863037109375)"/><path class="st3" d="M1062.9,166.1c-1.5,1-4.7,6.5-8,12.5l-2.9-12.1c-10.7,18.1-16.9,39.6-16.9,62.6c0,12.3,1.8,23.4,5,33.3&#10;&#9;&#9;&#9;c0,0.1,0.1,0.2,0.1,0.2c5.4,16.2,14.7,29.4,26.9,39.5c-0.1,0-0.1,0-0.2-0.1c1.6,1.3,3.3,2.5,5,3.7c1.1,0.8,2.3,1.6,3.4,2.3&#10;&#9;&#9;&#9;c0,0,0,0,0,0c1.3,0.8,2.6,1.7,4,2.5c0,0,0,0,0,0c1.4,0.8,2.7,1.5,4.1,2.3c0,0,0,0,0.1,0c1.4,0.7,2.8,1.4,4.2,2.1c0,0,0.1,0,0.1,0&#10;&#9;&#9;&#9;c1.4,0.7,2.9,1.3,4.3,1.9c0,0,0.1,0,0.1,0.1c1.5,0.6,2.9,1.2,4.4,1.7c0.1,0,0.1,0,0.2,0.1c1.5,0.5,3,1,4.5,1.5&#10;&#9;&#9;&#9;c0.1,0,0.1,0,0.2,0.1c1.5,0.5,3,0.9,4.6,1.3c0.1,0,0.2,0,0.2,0.1c1.5,0.4,3.1,0.8,4.7,1.1c0.1,0,0.2,0,0.3,0.1&#10;&#9;&#9;&#9;c1.6,0.3,3.2,0.7,4.8,1c0.1,0,0.2,0,0.3,0c1.6,0.3,3.2,0.6,4.9,0.8c0.1,0,0.2,0,0.3,0c1.6,0.2,3.3,0.4,5,0.6c0.1,0,0.2,0,0.2,0&#10;&#9;&#9;&#9;c1.7,0.2,3.4,0.3,5.1,0.4c0.1,0,0.1,0,0.2,0c1.7,0.1,3.5,0.2,5.2,0.3c0,0,0.1,0,0.1,0c1.8,0.1,3.6,0.1,5.4,0.1&#10;&#9;&#9;&#9;c12.1,0,23.7-1.4,34.6-4.1c1.7-0.4,3.3-0.9,5-1.3c13.9-4.1,26.3-10.4,36.7-19.1c1.2-1,2.4-2.1,3.6-3.1c0.6-0.5,1.2-1.1,1.7-1.6&#10;&#9;&#9;&#9;c1.7-1.7,3.3-3.4,4.9-5.2c1-1.2,2-2.4,3-3.7c4.8-6.3,8.8-13.4,11.9-21.3c0.2-0.4,0.3-0.9,0.5-1.3l0,0l0,0c0.1-0.4,0.3-0.7,0.4-1.1&#10;&#9;&#9;&#9;c3-8.5,4.8-17.9,5.4-28.1c0,0,0,0,0,0l0,0c0.1-2.4,0.2-4.7,0.2-7.2l0,0l0,0c0-1.3,0-2.6-0.1-3.9c0-1.3-0.1-2.6-0.2-3.9&#10;&#9;&#9;&#9;c-0.2-2.6-0.4-5.1-0.7-7.6c-0.8-6.3-2-12.4-3.7-18.4c-1.3-4.8-2.9-9.4-4.8-13.9c-1.4-3.4-2.9-6.6-4.6-9.8l-0.4,0.4&#10;&#9;&#9;&#9;c-0.2-0.3-0.3-0.7-0.5-1c0,0-0.1,0.7-0.3,1.9l-5.8,6.6c-2.5-4.6-5-9-6.8-11.6c-0.7-0.9-1.3-1.6-1.7-1.9l14.9-26.4l17.9-31.7h0h0h0&#10;&#9;&#9;&#9;l-7.1-0.3c-12.8-0.5-25.6,0.7-38,3.8l0.6-32.4l-30.4,24.4c-8.5-13.3-22.3-32.2-36.9-41.6v0l0,0l0,0v0c-14.7,9.4-28.5,28.4-37,41.8&#10;&#9;&#9;&#9;l-30.5-24.5l0.6,32.3c-12.4-3-25.1-4.2-37.8-3.7l-7.1,0.3l17.9,31.7L1062.9,166.1z" style="opacity: 0.064516; fill: rgb(239, 239, 239);" transform="matrix(1, 0, 0, 1, -952.3470458984375, -5.2040863037109375)"/><path class="st4" d="M1062.2,165.5c-1.5,1-4.7,6.5-8,12.5l-2.9-12.1c-10.7,18.1-16.9,39.6-16.9,62.6c0,12.3,1.8,23.4,5,33.3&#10;&#9;&#9;&#9;c0,0.1,0.1,0.2,0.1,0.2c5.4,16.2,14.7,29.4,26.9,39.5c-0.1,0-0.1,0-0.2-0.1c1.6,1.3,3.3,2.5,5,3.7c1.1,0.8,2.3,1.6,3.4,2.3&#10;&#9;&#9;&#9;c0,0,0,0,0,0c1.3,0.8,2.6,1.7,4,2.5c0,0,0,0,0,0c1.4,0.8,2.7,1.5,4.1,2.3c0,0,0,0,0.1,0c1.4,0.7,2.8,1.4,4.2,2.1c0,0,0.1,0,0.1,0&#10;&#9;&#9;&#9;c1.4,0.7,2.9,1.3,4.3,1.9c0,0,0.1,0,0.1,0.1c1.5,0.6,2.9,1.2,4.4,1.7c0.1,0,0.1,0,0.2,0.1c1.5,0.5,3,1,4.5,1.5&#10;&#9;&#9;&#9;c0.1,0,0.1,0,0.2,0.1c1.5,0.5,3,0.9,4.6,1.3c0.1,0,0.2,0,0.2,0.1c1.5,0.4,3.1,0.8,4.7,1.1c0.1,0,0.2,0,0.3,0.1&#10;&#9;&#9;&#9;c1.6,0.3,3.2,0.7,4.8,1c0.1,0,0.2,0,0.3,0c1.6,0.3,3.2,0.6,4.9,0.8c0.1,0,0.2,0,0.3,0c1.6,0.2,3.3,0.4,5,0.6c0.1,0,0.2,0,0.2,0&#10;&#9;&#9;&#9;c1.7,0.2,3.4,0.3,5.1,0.4c0.1,0,0.1,0,0.2,0c1.7,0.1,3.5,0.2,5.2,0.3c0,0,0.1,0,0.1,0c1.8,0.1,3.6,0.1,5.4,0.1&#10;&#9;&#9;&#9;c12.1,0,23.7-1.4,34.6-4.1c1.7-0.4,3.3-0.9,5-1.3c13.9-4.1,26.3-10.4,36.7-19.1c1.2-1,2.4-2.1,3.6-3.1c0.6-0.5,1.2-1.1,1.7-1.6&#10;&#9;&#9;&#9;c1.7-1.7,3.3-3.4,4.9-5.2c1-1.2,2-2.4,3-3.7c4.8-6.3,8.8-13.4,11.9-21.3c0.2-0.4,0.3-0.9,0.5-1.3l0,0c0,0,0,0,0,0&#10;&#9;&#9;&#9;c0.1-0.4,0.3-0.7,0.4-1.1c3-8.5,4.8-17.9,5.4-28.1v0l0,0c0.1-2.4,0.2-4.7,0.2-7.2l0,0l0,0c0-1.3,0-2.6-0.1-3.9&#10;&#9;&#9;&#9;c0-1.3-0.1-2.6-0.2-3.9c-0.2-2.6-0.4-5.1-0.7-7.6c-0.8-6.3-2-12.4-3.7-18.4c-1.3-4.8-2.9-9.4-4.8-13.9c-1.4-3.4-2.9-6.6-4.6-9.8&#10;&#9;&#9;&#9;l-0.4,0.4c-0.2-0.3-0.3-0.7-0.5-1c0,0-0.1,0.7-0.3,1.9l-5.8,6.6c-2.5-4.6-5-9-6.8-11.6c-0.7-0.9-1.3-1.6-1.7-1.9l14.9-26.4&#10;&#9;&#9;&#9;l17.9-31.7h0h0h0l-7.1-0.3c-12.8-0.5-25.6,0.7-38,3.8l0.6-32.4l-30.4,24.4c-8.5-13.3-22.3-32.2-36.9-41.6v0l0,0l0,0v0&#10;&#9;&#9;&#9;c-14.7,9.4-28.5,28.4-37,41.8l-30.5-24.5l0.6,32.3c-12.4-3-25.1-4.2-37.8-3.7l-7.1,0.3l17.9,31.7L1062.2,165.5z" style="opacity: 0.096774; fill: rgb(231, 231, 231);" transform="matrix(1, 0, 0, 1, -952.3470458984375, -5.2040863037109375)"/><path class="st5" d="M1061.6,164.8c-1.5,1-4.7,6.5-8,12.5l-2.9-12.1c-10.7,18.1-16.9,39.6-16.9,62.6c0,12.3,1.8,23.4,5,33.3&#10;&#9;&#9;&#9;c0,0.1,0.1,0.2,0.1,0.2c5.4,16.2,14.7,29.4,26.9,39.5c-0.1,0-0.1,0-0.2-0.1c1.6,1.3,3.3,2.5,5,3.7c1.1,0.8,2.3,1.6,3.4,2.3&#10;&#9;&#9;&#9;c0,0,0,0,0,0c1.3,0.8,2.6,1.7,4,2.5c0,0,0,0,0,0c1.4,0.8,2.7,1.5,4.1,2.3c0,0,0,0,0.1,0c1.4,0.7,2.8,1.4,4.2,2.1c0,0,0.1,0,0.1,0&#10;&#9;&#9;&#9;c1.4,0.7,2.9,1.3,4.3,1.9c0,0,0.1,0,0.1,0.1c1.5,0.6,2.9,1.2,4.4,1.7c0.1,0,0.1,0,0.2,0.1c1.5,0.5,3,1,4.5,1.5&#10;&#9;&#9;&#9;c0.1,0,0.1,0,0.2,0.1c1.5,0.5,3,0.9,4.6,1.3c0.1,0,0.2,0,0.2,0.1c1.5,0.4,3.1,0.8,4.7,1.1c0.1,0,0.2,0,0.3,0.1&#10;&#9;&#9;&#9;c1.6,0.3,3.2,0.7,4.8,1c0.1,0,0.2,0,0.3,0c1.6,0.3,3.2,0.6,4.9,0.8c0.1,0,0.2,0,0.3,0c1.6,0.2,3.3,0.4,5,0.6c0.1,0,0.2,0,0.2,0&#10;&#9;&#9;&#9;c1.7,0.2,3.4,0.3,5.1,0.4c0.1,0,0.1,0,0.2,0c1.7,0.1,3.5,0.2,5.2,0.3c0,0,0.1,0,0.1,0c1.8,0.1,3.6,0.1,5.4,0.1&#10;&#9;&#9;&#9;c12.1,0,23.7-1.4,34.6-4.1c1.7-0.4,3.3-0.9,5-1.3c13.9-4.1,26.3-10.4,36.7-19.1c1.2-1,2.4-2.1,3.6-3.1c0.6-0.5,1.2-1.1,1.7-1.6&#10;&#9;&#9;&#9;c1.7-1.7,3.3-3.4,4.9-5.2c1-1.2,2-2.4,3-3.7c4.8-6.3,8.8-13.4,11.9-21.3c0.2-0.4,0.3-0.9,0.5-1.3l0,0l0,0c0.1-0.4,0.3-0.7,0.4-1.1&#10;&#9;&#9;&#9;c3-8.5,4.8-17.9,5.4-28.1v0l0,0c0.1-2.4,0.2-4.7,0.2-7.2l0,0l0,0c0-1.3,0-2.6-0.1-3.9s-0.1-2.6-0.2-3.9c-0.2-2.6-0.4-5.1-0.7-7.6&#10;&#9;&#9;&#9;c-0.8-6.3-2-12.4-3.7-18.4c-1.3-4.8-2.9-9.4-4.8-13.9c-1.4-3.4-2.9-6.6-4.6-9.8l-0.4,0.4c-0.2-0.3-0.3-0.7-0.5-1&#10;&#9;&#9;&#9;c0,0-0.1,0.7-0.3,1.9l-5.8,6.6c-2.5-4.6-5-9-6.8-11.6c-0.7-0.9-1.3-1.6-1.7-1.9l14.9-26.4l17.9-31.7h0h0h0l-7.1-0.3&#10;&#9;&#9;&#9;c-12.8-0.5-25.6,0.7-38,3.8l0.6-32.4l-30.4,24.4c-8.5-13.3-22.3-32.2-36.9-41.6v0l0,0l0,0v0c-14.7,9.4-28.5,28.4-37,41.8&#10;&#9;&#9;&#9;l-30.5-24.5l0.6,32.3c-12.4-3-25.1-4.2-37.8-3.7l-7.1,0.3l17.9,31.7L1061.6,164.8z" style="opacity: 0.129; fill: rgb(223, 223, 223);" transform="matrix(1, 0, 0, 1, -952.3470458984375, -5.2040863037109375)"/><path class="st6" d="M1061,164.1c-1.5,1-4.7,6.5-8,12.5l-2.9-12.1c-10.7,18.1-16.9,39.6-16.9,62.6c0,12.3,1.8,23.4,5,33.3&#10;&#9;&#9;&#9;c0,0.1,0.1,0.2,0.1,0.2c5.4,16.2,14.7,29.4,26.9,39.5c-0.1,0-0.1,0-0.2-0.1c1.6,1.3,3.3,2.5,5,3.7c1.1,0.8,2.3,1.6,3.4,2.3&#10;&#9;&#9;&#9;c0,0,0,0,0,0c1.3,0.8,2.6,1.7,4,2.5c0,0,0,0,0,0c1.4,0.8,2.7,1.5,4.1,2.3c0,0,0,0,0.1,0c1.4,0.7,2.8,1.4,4.2,2.1c0,0,0.1,0,0.1,0&#10;&#9;&#9;&#9;c1.4,0.7,2.9,1.3,4.3,1.9c0,0,0.1,0,0.1,0.1c1.5,0.6,2.9,1.2,4.4,1.7c0.1,0,0.1,0,0.2,0.1c1.5,0.5,3,1,4.5,1.5&#10;&#9;&#9;&#9;c0.1,0,0.1,0,0.2,0.1c1.5,0.5,3,0.9,4.6,1.3c0.1,0,0.2,0,0.2,0.1c1.5,0.4,3.1,0.8,4.7,1.1c0.1,0,0.2,0,0.3,0.1&#10;&#9;&#9;&#9;c1.6,0.3,3.2,0.7,4.8,1c0.1,0,0.2,0,0.3,0c1.6,0.3,3.2,0.6,4.9,0.8c0.1,0,0.2,0,0.3,0c1.6,0.2,3.3,0.4,5,0.6c0.1,0,0.2,0,0.2,0&#10;&#9;&#9;&#9;c1.7,0.2,3.4,0.3,5.1,0.4c0.1,0,0.1,0,0.2,0c1.7,0.1,3.5,0.2,5.2,0.3c0,0,0.1,0,0.1,0c1.8,0.1,3.6,0.1,5.4,0.1&#10;&#9;&#9;&#9;c12.1,0,23.7-1.4,34.6-4.1c1.7-0.4,3.3-0.9,5-1.3c13.9-4.1,26.3-10.4,36.7-19.1c1.2-1,2.4-2.1,3.6-3.1c0.6-0.5,1.2-1.1,1.7-1.6&#10;&#9;&#9;&#9;c1.7-1.7,3.3-3.4,4.9-5.2c1-1.2,2-2.4,3-3.7c4.8-6.3,8.8-13.4,11.9-21.3c0.2-0.4,0.3-0.9,0.5-1.3l0,0l0,0c0.1-0.4,0.3-0.7,0.4-1.1&#10;&#9;&#9;&#9;c3-8.5,4.8-17.9,5.4-28.1v0l0,0c0.1-2.4,0.2-4.7,0.2-7.2l0,0l0,0c0-1.3,0-2.6-0.1-3.9c0-1.3-0.1-2.6-0.2-3.9&#10;&#9;&#9;&#9;c-0.2-2.6-0.4-5.1-0.7-7.6c-0.8-6.3-2-12.4-3.7-18.4c-1.3-4.8-2.9-9.4-4.8-13.9c-1.4-3.4-2.9-6.6-4.6-9.8l-0.4,0.4&#10;&#9;&#9;&#9;c-0.2-0.3-0.3-0.7-0.5-1c0,0-0.1,0.7-0.3,1.9l-5.8,6.6c-2.5-4.6-5-9-6.8-11.6c-0.7-0.9-1.3-1.6-1.7-1.9l14.9-26.4L1252,106h0h0h0&#10;&#9;&#9;&#9;l-7.1-0.3c-12.8-0.5-25.6,0.7-38,3.8l0.6-32.4l-30.4,24.4c-8.5-13.3-22.3-32.2-36.9-41.6v0l0,0l0,0v0c-14.7,9.4-28.5,28.4-37,41.8&#10;&#9;&#9;&#9;l-30.5-24.5l0.6,32.3c-12.4-3-25.1-4.2-37.8-3.7l-7.1,0.3l17.9,31.7L1061,164.1z" style="opacity: 0.1613; fill: rgb(215, 215, 215);" transform="matrix(1, 0, 0, 1, -952.3470458984375, -5.2040863037109375)"/><path class="st7" d="M1060.4,163.4c-1.5,1-4.7,6.5-8,12.5l-2.9-12.1c-10.7,18.1-16.9,39.6-16.9,62.6c0,12.3,1.8,23.4,5,33.3&#10;&#9;&#9;&#9;c0,0.1,0.1,0.2,0.1,0.2c5.4,16.2,14.7,29.4,26.9,39.5c-0.1,0-0.1,0-0.2-0.1c1.6,1.3,3.3,2.5,5,3.7c1.1,0.8,2.3,1.6,3.4,2.3&#10;&#9;&#9;&#9;c0,0,0,0,0,0c1.3,0.8,2.6,1.7,4,2.5c0,0,0,0,0,0c1.4,0.8,2.7,1.5,4.1,2.3c0,0,0,0,0.1,0c1.4,0.7,2.8,1.4,4.2,2.1c0,0,0.1,0,0.1,0&#10;&#9;&#9;&#9;c1.4,0.7,2.9,1.3,4.3,1.9c0,0,0.1,0,0.1,0.1c1.5,0.6,2.9,1.2,4.4,1.7c0.1,0,0.1,0,0.2,0.1c1.5,0.5,3,1,4.5,1.5&#10;&#9;&#9;&#9;c0.1,0,0.1,0,0.2,0.1c1.5,0.5,3,0.9,4.6,1.3c0.1,0,0.2,0,0.2,0.1c1.5,0.4,3.1,0.8,4.7,1.1c0.1,0,0.2,0,0.3,0.1&#10;&#9;&#9;&#9;c1.6,0.3,3.2,0.7,4.8,1c0.1,0,0.2,0,0.3,0c1.6,0.3,3.2,0.6,4.9,0.8c0.1,0,0.2,0,0.3,0c1.6,0.2,3.3,0.4,5,0.6c0.1,0,0.2,0,0.2,0&#10;&#9;&#9;&#9;c1.7,0.2,3.4,0.3,5.1,0.4c0.1,0,0.1,0,0.2,0c1.7,0.1,3.5,0.2,5.2,0.3c0,0,0.1,0,0.1,0c1.8,0.1,3.6,0.1,5.4,0.1&#10;&#9;&#9;&#9;c12.1,0,23.7-1.4,34.6-4.1c1.7-0.4,3.3-0.9,5-1.3c13.9-4.1,26.3-10.4,36.7-19.1c1.2-1,2.4-2.1,3.6-3.1c0.6-0.5,1.2-1.1,1.7-1.6&#10;&#9;&#9;&#9;c1.7-1.7,3.3-3.4,4.9-5.2c1-1.2,2-2.4,3-3.7c4.8-6.3,8.8-13.4,11.9-21.3c0.2-0.4,0.3-0.9,0.5-1.3l0,0l0,0c0.1-0.4,0.3-0.7,0.4-1.1&#10;&#9;&#9;&#9;c3-8.5,4.8-17.9,5.4-28.1c0,0,0,0,0,0v0c0.1-2.4,0.2-4.7,0.2-7.2l0,0l0,0c0-1.3,0-2.6-0.1-3.9c0-1.3-0.1-2.6-0.2-3.9&#10;&#9;&#9;&#9;c-0.2-2.6-0.4-5.1-0.7-7.6c-0.8-6.3-2-12.4-3.7-18.4c-1.3-4.8-2.9-9.4-4.8-13.9c-1.4-3.4-2.9-6.6-4.6-9.8l-0.4,0.4&#10;&#9;&#9;&#9;c-0.2-0.3-0.3-0.7-0.5-1c0,0-0.1,0.7-0.3,1.9l-5.8,6.6c-2.5-4.6-5-9-6.8-11.6c-0.7-0.9-1.3-1.6-1.7-1.9l14.9-26.4l17.9-31.7h0h0h0&#10;&#9;&#9;&#9;l-7.1-0.3c-12.8-0.5-25.6,0.7-38,3.8l0.6-32.4l-30.4,24.4c-8.5-13.3-22.3-32.2-36.9-41.6v0c0,0,0,0,0,0c0,0,0,0,0,0v0&#10;&#9;&#9;&#9;c-14.7,9.4-28.5,28.4-37,41.8l-30.5-24.5l0.6,32.3c-12.4-3-25.1-4.2-37.8-3.7l-7.1,0.3l17.9,31.7L1060.4,163.4z" style="opacity: 0.1935; fill: rgb(207, 207, 207);" transform="matrix(1, 0, 0, 1, -952.3470458984375, -5.2040863037109375)"/><path class="st8" d="M1059.7,162.8c-1.5,1-4.7,6.5-8,12.5l-2.9-12.1c-10.7,18.1-16.9,39.6-16.9,62.6c0,12.3,1.8,23.4,5,33.3&#10;&#9;&#9;&#9;c0,0.1,0.1,0.2,0.1,0.2c5.4,16.2,14.7,29.4,26.9,39.5c-0.1,0-0.1,0-0.2-0.1c1.6,1.3,3.3,2.5,5,3.7c1.1,0.8,2.3,1.6,3.4,2.3&#10;&#9;&#9;&#9;c0,0,0,0,0,0c1.3,0.8,2.6,1.7,4,2.5c0,0,0,0,0,0c1.4,0.8,2.7,1.5,4.1,2.3c0,0,0,0,0.1,0c1.4,0.7,2.8,1.4,4.2,2.1c0,0,0.1,0,0.1,0&#10;&#9;&#9;&#9;c1.4,0.7,2.9,1.3,4.3,1.9c0,0,0.1,0,0.1,0.1c1.5,0.6,2.9,1.2,4.4,1.7c0.1,0,0.1,0,0.2,0.1c1.5,0.5,3,1,4.5,1.5&#10;&#9;&#9;&#9;c0.1,0,0.1,0,0.2,0.1c1.5,0.5,3,0.9,4.6,1.3c0.1,0,0.2,0,0.2,0.1c1.5,0.4,3.1,0.8,4.7,1.1c0.1,0,0.2,0,0.3,0.1&#10;&#9;&#9;&#9;c1.6,0.3,3.2,0.7,4.8,1c0.1,0,0.2,0,0.3,0c1.6,0.3,3.2,0.6,4.9,0.8c0.1,0,0.2,0,0.3,0c1.6,0.2,3.3,0.4,5,0.6c0.1,0,0.2,0,0.2,0&#10;&#9;&#9;&#9;c1.7,0.2,3.4,0.3,5.1,0.4c0.1,0,0.1,0,0.2,0c1.7,0.1,3.5,0.2,5.2,0.3c0,0,0.1,0,0.1,0c1.8,0.1,3.6,0.1,5.4,0.1&#10;&#9;&#9;&#9;c12.1,0,23.7-1.4,34.6-4.1c1.7-0.4,3.3-0.9,5-1.3c13.9-4.1,26.3-10.4,36.7-19.1c1.2-1,2.4-2.1,3.6-3.1c0.6-0.5,1.2-1.1,1.7-1.6&#10;&#9;&#9;&#9;c1.7-1.7,3.3-3.4,4.9-5.2c1-1.2,2-2.4,3-3.7c4.8-6.3,8.8-13.4,11.9-21.3c0.2-0.4,0.3-0.9,0.5-1.3l0,0l0,0c0.1-0.4,0.3-0.7,0.4-1.1&#10;&#9;&#9;&#9;c3-8.5,4.8-17.9,5.4-28.1c0,0,0,0,0,0l0,0c0.1-2.4,0.2-4.7,0.2-7.2l0,0l0,0c0-1.3,0-2.6-0.1-3.9c0-1.3-0.1-2.6-0.2-3.9&#10;&#9;&#9;&#9;c-0.2-2.6-0.4-5.1-0.7-7.6c-0.8-6.3-2-12.4-3.7-18.4c-1.3-4.8-2.9-9.4-4.8-13.9c-1.4-3.4-2.9-6.6-4.6-9.8l-0.4,0.4&#10;&#9;&#9;&#9;c-0.2-0.3-0.3-0.7-0.5-1c0,0-0.1,0.7-0.3,1.9l-5.8,6.6c-2.5-4.6-5-9-6.8-11.6c-0.7-0.9-1.3-1.6-1.7-1.9l14.9-26.4l17.9-31.7h0h0h0&#10;&#9;&#9;&#9;l-7.1-0.3c-12.8-0.5-25.6,0.7-38,3.8l0.6-32.4l-30.4,24.4c-8.5-13.3-22.3-32.2-36.9-41.6v0l0,0l0,0v0c-14.7,9.4-28.5,28.4-37,41.8&#10;&#9;&#9;&#9;l-30.5-24.5l0.6,32.3c-12.4-3-25.1-4.2-37.8-3.7l-7.1,0.3l17.9,31.7L1059.7,162.8z" style="opacity: 0.2258; fill: rgb(199, 199, 199);" transform="matrix(1, 0, 0, 1, -952.3470458984375, -5.2040863037109375)"/><path class="st9" d="M1059.1,162.1c-1.5,1-4.7,6.5-8,12.5l-2.9-12.1c-10.7,18.1-16.9,39.6-16.9,62.6c0,12.3,1.8,23.4,5,33.3&#10;&#9;&#9;&#9;c0,0.1,0.1,0.2,0.1,0.2c5.4,16.2,14.7,29.4,26.9,39.5c-0.1,0-0.1,0-0.2-0.1c1.6,1.3,3.3,2.5,5,3.7c1.1,0.8,2.3,1.6,3.4,2.3&#10;&#9;&#9;&#9;c0,0,0,0,0,0c1.3,0.8,2.6,1.7,4,2.5c0,0,0,0,0,0c1.4,0.8,2.7,1.5,4.1,2.3c0,0,0,0,0.1,0c1.4,0.7,2.8,1.4,4.2,2.1c0,0,0.1,0,0.1,0&#10;&#9;&#9;&#9;c1.4,0.7,2.9,1.3,4.3,1.9c0,0,0.1,0,0.1,0.1c1.5,0.6,2.9,1.2,4.4,1.7c0.1,0,0.1,0,0.2,0.1c1.5,0.5,3,1,4.5,1.5&#10;&#9;&#9;&#9;c0.1,0,0.1,0,0.2,0.1c1.5,0.5,3,0.9,4.6,1.3c0.1,0,0.2,0,0.2,0.1c1.5,0.4,3.1,0.8,4.7,1.1c0.1,0,0.2,0,0.3,0.1&#10;&#9;&#9;&#9;c1.6,0.3,3.2,0.7,4.8,1c0.1,0,0.2,0,0.3,0c1.6,0.3,3.2,0.6,4.9,0.8c0.1,0,0.2,0,0.3,0c1.6,0.2,3.3,0.4,5,0.6c0.1,0,0.2,0,0.2,0&#10;&#9;&#9;&#9;c1.7,0.2,3.4,0.3,5.1,0.4c0.1,0,0.1,0,0.2,0c1.7,0.1,3.5,0.2,5.2,0.3c0,0,0.1,0,0.1,0c1.8,0.1,3.6,0.1,5.4,0.1&#10;&#9;&#9;&#9;c12.1,0,23.7-1.4,34.6-4.1c1.7-0.4,3.3-0.9,5-1.3c13.9-4.1,26.3-10.4,36.7-19.1c1.2-1,2.4-2.1,3.6-3.1c0.6-0.5,1.2-1.1,1.7-1.6&#10;&#9;&#9;&#9;c1.7-1.7,3.3-3.4,4.9-5.2c1-1.2,2-2.4,3-3.7c4.8-6.3,8.8-13.4,11.9-21.3c0.2-0.4,0.3-0.9,0.5-1.3l0,0c0,0,0,0,0,0&#10;&#9;&#9;&#9;c0.1-0.4,0.3-0.7,0.4-1.1c3-8.5,4.8-17.9,5.4-28.1v0l0,0c0.1-2.4,0.2-4.7,0.2-7.2l0,0l0,0c0-1.3,0-2.6-0.1-3.9&#10;&#9;&#9;&#9;c0-1.3-0.1-2.6-0.2-3.9c-0.2-2.6-0.4-5.1-0.7-7.6c-0.8-6.3-2-12.4-3.7-18.4c-1.3-4.8-2.9-9.4-4.8-13.9c-1.4-3.4-2.9-6.6-4.6-9.8&#10;&#9;&#9;&#9;l-0.4,0.4c-0.2-0.3-0.3-0.7-0.5-1c0,0-0.1,0.7-0.3,1.9l-5.8,6.6c-2.5-4.6-5-9-6.8-11.6c-0.7-0.9-1.3-1.6-1.7-1.9l14.9-26.4&#10;&#9;&#9;&#9;l17.9-31.7h0h0h0l-7.1-0.3c-12.8-0.5-25.6,0.7-38,3.8l0.6-32.4l-30.4,24.4c-8.5-13.3-22.3-32.2-36.9-41.6v0l0,0l0,0v0&#10;&#9;&#9;&#9;c-14.7,9.4-28.5,28.4-37,41.8l-30.5-24.5l0.6,32.3c-12.4-3-25.1-4.2-37.8-3.7l-7.1,0.3l17.9,31.7L1059.1,162.1z" style="opacity: 0.2581; fill: rgb(191, 191, 191);" transform="matrix(1, 0, 0, 1, -952.3470458984375, -5.2040863037109375)"/><path class="st10" d="M1058.5,161.4c-1.5,1-4.7,6.5-8,12.5l-2.9-12.1c-10.7,18.1-16.9,39.6-16.9,62.6c0,12.3,1.8,23.4,5,33.3&#10;&#9;&#9;&#9;c0,0.1,0.1,0.2,0.1,0.2c5.4,16.2,14.7,29.4,26.9,39.5c-0.1,0-0.1,0-0.2-0.1c1.6,1.3,3.3,2.5,5,3.7c1.1,0.8,2.3,1.6,3.4,2.3&#10;&#9;&#9;&#9;c0,0,0,0,0,0c1.3,0.8,2.6,1.7,4,2.5c0,0,0,0,0,0c1.4,0.8,2.7,1.5,4.1,2.3c0,0,0,0,0.1,0c1.4,0.7,2.8,1.4,4.2,2.1c0,0,0.1,0,0.1,0&#10;&#9;&#9;&#9;c1.4,0.7,2.9,1.3,4.3,1.9c0,0,0.1,0,0.1,0.1c1.5,0.6,2.9,1.2,4.4,1.7c0.1,0,0.1,0,0.2,0.1c1.5,0.5,3,1,4.5,1.5&#10;&#9;&#9;&#9;c0.1,0,0.1,0,0.2,0.1c1.5,0.5,3,0.9,4.6,1.3c0.1,0,0.2,0,0.2,0.1c1.5,0.4,3.1,0.8,4.7,1.1c0.1,0,0.2,0,0.3,0.1&#10;&#9;&#9;&#9;c1.6,0.3,3.2,0.7,4.8,1c0.1,0,0.2,0,0.3,0c1.6,0.3,3.2,0.6,4.9,0.8c0.1,0,0.2,0,0.3,0c1.6,0.2,3.3,0.4,5,0.6c0.1,0,0.2,0,0.2,0&#10;&#9;&#9;&#9;c1.7,0.2,3.4,0.3,5.1,0.4c0.1,0,0.1,0,0.2,0c1.7,0.1,3.5,0.2,5.2,0.3c0,0,0.1,0,0.1,0c1.8,0.1,3.6,0.1,5.4,0.1&#10;&#9;&#9;&#9;c12.1,0,23.7-1.4,34.6-4.1c1.7-0.4,3.3-0.9,5-1.3c13.9-4.1,26.3-10.4,36.7-19.1c1.2-1,2.4-2.1,3.6-3.1c0.6-0.5,1.2-1.1,1.7-1.6&#10;&#9;&#9;&#9;c1.7-1.7,3.3-3.4,4.9-5.2c1-1.2,2-2.4,3-3.7c4.8-6.3,8.8-13.4,11.9-21.3c0.2-0.4,0.3-0.9,0.5-1.3l0,0l0,0c0.1-0.4,0.3-0.7,0.4-1.1&#10;&#9;&#9;&#9;c3-8.5,4.8-17.9,5.4-28.1v0l0,0c0.1-2.4,0.2-4.7,0.2-7.2l0,0l0,0c0-1.3,0-2.6-0.1-3.9c0-1.3-0.1-2.6-0.2-3.9&#10;&#9;&#9;&#9;c-0.2-2.6-0.4-5.1-0.7-7.6c-0.8-6.3-2-12.4-3.7-18.4c-1.3-4.8-2.9-9.4-4.8-13.9c-1.4-3.4-2.9-6.6-4.6-9.8l-0.4,0.4&#10;&#9;&#9;&#9;c-0.2-0.3-0.3-0.7-0.5-1c0,0-0.1,0.7-0.3,1.9l-5.8,6.6c-2.5-4.6-5-9-6.8-11.6c-0.7-0.9-1.3-1.6-1.7-1.9l14.9-26.4l17.9-31.7h0h0h0&#10;&#9;&#9;&#9;l-7.1-0.3c-12.8-0.5-25.6,0.7-38,3.8l0.6-32.4l-30.4,24.4c-8.5-13.3-22.3-32.2-36.9-41.6v0l0,0l0,0v0c-14.7,9.4-28.5,28.4-37,41.8&#10;&#9;&#9;&#9;l-30.5-24.5l0.6,32.3c-12.4-3-25.1-4.2-37.8-3.7l-7.1,0.3l17.9,31.7L1058.5,161.4z" style="opacity: 0.2903; fill: rgb(183, 183, 183);" transform="matrix(1, 0, 0, 1, -952.3470458984375, -5.2040863037109375)"/><path class="st11" d="M1057.8,160.7c-1.5,1-4.7,6.5-8,12.5l-2.9-12.1c-10.7,18.1-16.9,39.6-16.9,62.6c0,12.3,1.8,23.4,5,33.3&#10;&#9;&#9;&#9;c0,0.1,0.1,0.2,0.1,0.2c5.4,16.2,14.7,29.4,26.9,39.5c-0.1,0-0.1,0-0.2-0.1c1.6,1.3,3.3,2.5,5,3.7c1.1,0.8,2.3,1.6,3.4,2.3&#10;&#9;&#9;&#9;c0,0,0,0,0,0c1.3,0.8,2.6,1.7,4,2.5c0,0,0,0,0,0c1.4,0.8,2.7,1.5,4.1,2.3c0,0,0,0,0.1,0c1.4,0.7,2.8,1.4,4.2,2.1c0,0,0.1,0,0.1,0&#10;&#9;&#9;&#9;c1.4,0.7,2.9,1.3,4.3,1.9c0,0,0.1,0,0.1,0.1c1.5,0.6,2.9,1.2,4.4,1.7c0.1,0,0.1,0,0.2,0.1c1.5,0.5,3,1,4.5,1.5&#10;&#9;&#9;&#9;c0.1,0,0.1,0,0.2,0.1c1.5,0.5,3,0.9,4.6,1.3c0.1,0,0.2,0,0.2,0.1c1.5,0.4,3.1,0.8,4.7,1.1c0.1,0,0.2,0,0.3,0.1&#10;&#9;&#9;&#9;c1.6,0.3,3.2,0.7,4.8,1c0.1,0,0.2,0,0.3,0c1.6,0.3,3.2,0.6,4.9,0.8c0.1,0,0.2,0,0.3,0c1.6,0.2,3.3,0.4,5,0.6c0.1,0,0.2,0,0.2,0&#10;&#9;&#9;&#9;c1.7,0.2,3.4,0.3,5.1,0.4c0.1,0,0.1,0,0.2,0c1.7,0.1,3.5,0.2,5.2,0.3c0,0,0.1,0,0.1,0c1.8,0.1,3.6,0.1,5.4,0.1&#10;&#9;&#9;&#9;c12.1,0,23.7-1.4,34.6-4.1c1.7-0.4,3.3-0.9,5-1.3c13.9-4.1,26.3-10.4,36.7-19.1c1.2-1,2.4-2.1,3.6-3.1c0.6-0.5,1.2-1.1,1.7-1.6&#10;&#9;&#9;&#9;c1.7-1.7,3.3-3.4,4.9-5.2c1-1.2,2-2.4,3-3.7c4.8-6.3,8.8-13.4,11.9-21.3c0.2-0.4,0.3-0.9,0.5-1.3l0,0l0,0c0.1-0.4,0.3-0.7,0.4-1.1&#10;&#9;&#9;&#9;c3-8.5,4.8-17.9,5.4-28.1v0l0,0c0.1-2.4,0.2-4.7,0.2-7.2l0,0l0,0c0-1.3,0-2.6-0.1-3.9c0-1.3-0.1-2.6-0.2-3.9&#10;&#9;&#9;&#9;c-0.2-2.6-0.4-5.1-0.7-7.6c-0.8-6.3-2-12.4-3.7-18.4c-1.3-4.8-2.9-9.4-4.8-13.9c-1.4-3.4-2.9-6.6-4.6-9.8l-0.4,0.4&#10;&#9;&#9;&#9;c-0.2-0.3-0.3-0.7-0.5-1c0,0-0.1,0.7-0.3,1.9l-5.8,6.6c-2.5-4.6-5-9-6.8-11.6c-0.7-0.9-1.3-1.6-1.7-1.9l14.9-26.4l17.9-31.7h0h0h0&#10;&#9;&#9;&#9;l-7.1-0.3c-12.8-0.5-25.6,0.7-38,3.8l0.6-32.4l-30.4,24.4c-8.5-13.3-22.3-32.2-36.9-41.6v0l0,0l0,0v0c-14.7,9.4-28.5,28.4-37,41.8&#10;&#9;&#9;&#9;l-30.5-24.5l0.6,32.3c-12.4-3-25.1-4.2-37.8-3.7l-7.1,0.3l17.9,31.7L1057.8,160.7z" style="opacity: 0.3226; fill: rgb(175, 175, 175);" transform="matrix(1, 0, 0, 1, -952.3470458984375, -5.2040863037109375)"/><path class="st12" d="M1057.2,160c-1.5,1-4.7,6.5-8,12.5l-2.9-12.1c-10.7,18.1-16.9,39.6-16.9,62.6c0,12.3,1.8,23.4,5,33.3&#10;&#9;&#9;&#9;c0,0.1,0.1,0.2,0.1,0.2c5.4,16.2,14.7,29.4,26.9,39.5c-0.1,0-0.1,0-0.2-0.1c1.6,1.3,3.3,2.5,5,3.7c1.1,0.8,2.3,1.6,3.4,2.3&#10;&#9;&#9;&#9;c0,0,0,0,0,0c1.3,0.8,2.6,1.7,4,2.5c0,0,0,0,0,0c1.4,0.8,2.7,1.5,4.1,2.3c0,0,0,0,0.1,0c1.4,0.7,2.8,1.4,4.2,2.1c0,0,0.1,0,0.1,0&#10;&#9;&#9;&#9;c1.4,0.7,2.9,1.3,4.3,1.9c0,0,0.1,0,0.1,0.1c1.5,0.6,2.9,1.2,4.4,1.7c0.1,0,0.1,0,0.2,0.1c1.5,0.5,3,1,4.5,1.5&#10;&#9;&#9;&#9;c0.1,0,0.1,0,0.2,0.1c1.5,0.5,3,0.9,4.6,1.3c0.1,0,0.2,0,0.2,0.1c1.5,0.4,3.1,0.8,4.7,1.1c0.1,0,0.2,0,0.3,0.1&#10;&#9;&#9;&#9;c1.6,0.3,3.2,0.7,4.8,1c0.1,0,0.2,0,0.3,0c1.6,0.3,3.2,0.6,4.9,0.8c0.1,0,0.2,0,0.3,0c1.6,0.2,3.3,0.4,5,0.6c0.1,0,0.2,0,0.2,0&#10;&#9;&#9;&#9;c1.7,0.2,3.4,0.3,5.1,0.4c0.1,0,0.1,0,0.2,0c1.7,0.1,3.5,0.2,5.2,0.3c0,0,0.1,0,0.1,0c1.8,0.1,3.6,0.1,5.4,0.1&#10;&#9;&#9;&#9;c12.1,0,23.7-1.4,34.6-4.1c1.7-0.4,3.3-0.9,5-1.3c13.9-4.1,26.3-10.4,36.7-19.1c1.2-1,2.4-2.1,3.6-3.1c0.6-0.5,1.2-1.1,1.7-1.6&#10;&#9;&#9;&#9;c1.7-1.7,3.3-3.4,4.9-5.2c1-1.2,2-2.4,3-3.7c4.8-6.3,8.8-13.4,11.9-21.3c0.2-0.4,0.3-0.9,0.5-1.3l0,0l0,0c0.1-0.4,0.3-0.7,0.4-1.1&#10;&#9;&#9;&#9;c3-8.5,4.8-17.9,5.4-28.1c0,0,0,0,0,0v0c0.1-2.4,0.2-4.7,0.2-7.2l0,0l0,0c0-1.3,0-2.6-0.1-3.9s-0.1-2.6-0.2-3.9&#10;&#9;&#9;&#9;c-0.2-2.6-0.4-5.1-0.7-7.6c-0.8-6.3-2-12.4-3.7-18.4c-1.3-4.8-2.9-9.4-4.8-13.9c-1.4-3.4-2.9-6.6-4.6-9.8l-0.4,0.4&#10;&#9;&#9;&#9;c-0.2-0.3-0.3-0.7-0.5-1c0,0-0.1,0.7-0.3,1.9l-5.8,6.6c-2.5-4.6-5-9-6.8-11.6c-0.7-0.9-1.3-1.6-1.7-1.9l14.9-26.4l17.9-31.7h0h0h0&#10;&#9;&#9;&#9;l-7.1-0.3c-12.8-0.5-25.6,0.7-38,3.8l0.6-32.4l-30.4,24.4c-8.5-13.3-22.3-32.2-36.9-41.6v0c0,0,0,0,0,0c0,0,0,0,0,0v0&#10;&#9;&#9;&#9;c-14.7,9.4-28.5,28.4-37,41.8l-30.5-24.5l0.6,32.3c-12.4-3-25.1-4.2-37.8-3.7l-7.1,0.3l17.9,31.7L1057.2,160z" style="opacity: 0.3548; fill: rgb(167, 167, 167);" transform="matrix(1, 0, 0, 1, -952.3470458984375, -5.2040863037109375)"/><path class="st13" d="M1056.6,159.4c-1.5,1-4.7,6.5-8,12.5l-2.9-12.1c-10.7,18.1-16.9,39.6-16.9,62.6c0,12.3,1.8,23.4,5,33.3&#10;&#9;&#9;&#9;c0,0.1,0.1,0.2,0.1,0.2c5.4,16.2,14.7,29.4,26.9,39.5c-0.1,0-0.1,0-0.2-0.1c1.6,1.3,3.3,2.5,5,3.7c1.1,0.8,2.3,1.6,3.4,2.3&#10;&#9;&#9;&#9;c0,0,0,0,0,0c1.3,0.8,2.6,1.7,4,2.5c0,0,0,0,0,0c1.4,0.8,2.7,1.5,4.1,2.3c0,0,0,0,0.1,0c1.4,0.7,2.8,1.4,4.2,2.1c0,0,0.1,0,0.1,0&#10;&#9;&#9;&#9;c1.4,0.7,2.9,1.3,4.3,1.9c0,0,0.1,0,0.1,0.1c1.5,0.6,2.9,1.2,4.4,1.7c0.1,0,0.1,0,0.2,0.1c1.5,0.5,3,1,4.5,1.5&#10;&#9;&#9;&#9;c0.1,0,0.1,0,0.2,0.1c1.5,0.5,3,0.9,4.6,1.3c0.1,0,0.2,0,0.2,0.1c1.5,0.4,3.1,0.8,4.7,1.1c0.1,0,0.2,0,0.3,0.1&#10;&#9;&#9;&#9;c1.6,0.3,3.2,0.7,4.8,1c0.1,0,0.2,0,0.3,0c1.6,0.3,3.2,0.6,4.9,0.8c0.1,0,0.2,0,0.3,0c1.6,0.2,3.3,0.4,5,0.6c0.1,0,0.2,0,0.2,0&#10;&#9;&#9;&#9;c1.7,0.2,3.4,0.3,5.1,0.4c0.1,0,0.1,0,0.2,0c1.7,0.1,3.5,0.2,5.2,0.3c0,0,0.1,0,0.1,0c1.8,0.1,3.6,0.1,5.4,0.1&#10;&#9;&#9;&#9;c12.1,0,23.7-1.4,34.6-4.1c1.7-0.4,3.3-0.9,5-1.3c13.9-4.1,26.3-10.4,36.7-19.1c1.2-1,2.4-2.1,3.6-3.1c0.6-0.5,1.2-1.1,1.7-1.6&#10;&#9;&#9;&#9;c1.7-1.7,3.3-3.4,4.9-5.2c1-1.2,2-2.4,3-3.7c4.8-6.3,8.8-13.4,11.9-21.3c0.2-0.4,0.3-0.9,0.5-1.3l0,0v0c0.1-0.4,0.3-0.7,0.4-1.1&#10;&#9;&#9;&#9;c3-8.5,4.8-17.9,5.4-28.1c0,0,0,0,0,0l0,0c0.1-2.4,0.2-4.7,0.2-7.2l0,0l0,0c0-1.3,0-2.6-0.1-3.9c0-1.3-0.1-2.6-0.2-3.9&#10;&#9;&#9;&#9;c-0.2-2.6-0.4-5.1-0.7-7.6c-0.8-6.3-2-12.4-3.7-18.4c-1.3-4.8-2.9-9.4-4.8-13.9c-1.4-3.4-2.9-6.6-4.6-9.8l-0.4,0.4&#10;&#9;&#9;&#9;c-0.2-0.3-0.3-0.7-0.5-1c0,0-0.1,0.7-0.3,1.9l-5.8,6.6c-2.5-4.6-5-9-6.8-11.6c-0.7-0.9-1.3-1.6-1.7-1.9l14.9-26.4l17.9-31.7h0h0h0&#10;&#9;&#9;&#9;l-7.1-0.3c-12.8-0.5-25.6,0.7-38,3.8l0.6-32.4l-30.4,24.4c-8.5-13.3-22.3-32.2-36.9-41.6v0l0,0l0,0v0c-14.7,9.4-28.5,28.4-37,41.8&#10;&#9;&#9;&#9;l-30.5-24.5l0.6,32.3c-12.4-3-25.1-4.2-37.8-3.7l-7.1,0.3l17.9,31.7L1056.6,159.4z" style="opacity: 0.3871; fill: rgb(159, 159, 159);" transform="matrix(1, 0, 0, 1, -952.3470458984375, -5.2040863037109375)"/><path class="st14" d="M1056,158.7c-1.5,1-4.7,6.5-8,12.5l-2.9-12.1c-10.7,18.1-16.9,39.6-16.9,62.6c0,12.3,1.8,23.4,5,33.3&#10;&#9;&#9;&#9;c0,0.1,0.1,0.2,0.1,0.2c5.4,16.2,14.7,29.4,26.9,39.5c-0.1,0-0.1,0-0.2-0.1c1.6,1.3,3.3,2.5,5,3.7c1.1,0.8,2.3,1.6,3.4,2.3&#10;&#9;&#9;&#9;c0,0,0,0,0,0c1.3,0.8,2.6,1.7,4,2.5c0,0,0,0,0,0c1.4,0.8,2.7,1.5,4.1,2.3c0,0,0,0,0.1,0c1.4,0.7,2.8,1.4,4.2,2.1c0,0,0.1,0,0.1,0&#10;&#9;&#9;&#9;c1.4,0.7,2.9,1.3,4.3,1.9c0,0,0.1,0,0.1,0.1c1.5,0.6,2.9,1.2,4.4,1.7c0.1,0,0.1,0,0.2,0.1c1.5,0.5,3,1,4.5,1.5&#10;&#9;&#9;&#9;c0.1,0,0.1,0,0.2,0.1c1.5,0.5,3,0.9,4.6,1.3c0.1,0,0.2,0,0.2,0.1c1.5,0.4,3.1,0.8,4.7,1.1c0.1,0,0.2,0,0.3,0.1&#10;&#9;&#9;&#9;c1.6,0.3,3.2,0.7,4.8,1c0.1,0,0.2,0,0.3,0c1.6,0.3,3.2,0.6,4.9,0.8c0.1,0,0.2,0,0.3,0c1.6,0.2,3.3,0.4,5,0.6c0.1,0,0.2,0,0.2,0&#10;&#9;&#9;&#9;c1.7,0.2,3.4,0.3,5.1,0.4c0.1,0,0.1,0,0.2,0c1.7,0.1,3.5,0.2,5.2,0.3c0,0,0.1,0,0.1,0c1.8,0.1,3.6,0.1,5.4,0.1&#10;&#9;&#9;&#9;c12.1,0,23.7-1.4,34.6-4.1c1.7-0.4,3.3-0.9,5-1.3c13.9-4.1,26.3-10.4,36.7-19.1c1.2-1,2.4-2.1,3.6-3.1c0.6-0.5,1.2-1.1,1.7-1.6&#10;&#9;&#9;&#9;c1.7-1.7,3.3-3.4,4.9-5.2c1-1.2,2-2.4,3-3.7c4.8-6.3,8.8-13.4,11.9-21.3c0.2-0.4,0.3-0.9,0.5-1.3l0,0c0,0,0,0,0,0&#10;&#9;&#9;&#9;c0.1-0.4,0.3-0.7,0.4-1.1c3-8.5,4.8-17.9,5.4-28.1v0l0,0c0.1-2.4,0.2-4.7,0.2-7.2l0,0l0,0c0-1.3,0-2.6-0.1-3.9&#10;&#9;&#9;&#9;c0-1.3-0.1-2.6-0.2-3.9c-0.2-2.6-0.4-5.1-0.7-7.6c-0.8-6.3-2-12.4-3.7-18.4c-1.3-4.8-2.9-9.4-4.8-13.9c-1.4-3.4-2.9-6.6-4.6-9.8&#10;&#9;&#9;&#9;l-0.4,0.4c-0.2-0.3-0.3-0.7-0.5-1c0,0-0.1,0.7-0.3,1.9l-5.8,6.6c-2.5-4.6-5-9-6.8-11.6c-0.7-0.9-1.3-1.6-1.7-1.9l14.9-26.4&#10;&#9;&#9;&#9;l17.9-31.7h0h0h0l-7.1-0.3c-12.8-0.5-25.6,0.7-38,3.8l0.6-32.4L1172,96.1c-8.5-13.3-22.3-32.2-36.9-41.6v0l0,0l0,0v0&#10;&#9;&#9;&#9;c-14.7,9.4-28.5,28.4-37,41.8l-30.5-24.5l0.6,32.3c-12.4-3-25.1-4.2-37.8-3.7l-7.1,0.3l17.9,31.7L1056,158.7z" style="opacity: 0.4194; fill: rgb(151, 151, 151);" transform="matrix(1, 0, 0, 1, -952.3470458984375, -5.2040863037109375)"/><path class="st15" d="M1055.3,158c-1.5,1-4.7,6.5-8,12.5l-2.9-12.1c-10.7,18.1-16.9,39.6-16.9,62.6c0,12.3,1.8,23.4,5,33.3&#10;&#9;&#9;&#9;c0,0.1,0.1,0.2,0.1,0.2c5.4,16.2,14.7,29.4,26.9,39.5c-0.1,0-0.1,0-0.2-0.1c1.6,1.3,3.3,2.5,5,3.7c1.1,0.8,2.3,1.6,3.4,2.3&#10;&#9;&#9;&#9;c0,0,0,0,0,0c1.3,0.8,2.6,1.7,4,2.5c0,0,0,0,0,0c1.4,0.8,2.7,1.5,4.1,2.3c0,0,0,0,0.1,0c1.4,0.7,2.8,1.4,4.2,2.1c0,0,0.1,0,0.1,0&#10;&#9;&#9;&#9;c1.4,0.7,2.9,1.3,4.3,1.9c0,0,0.1,0,0.1,0.1c1.5,0.6,2.9,1.2,4.4,1.7c0.1,0,0.1,0,0.2,0.1c1.5,0.5,3,1,4.5,1.5&#10;&#9;&#9;&#9;c0.1,0,0.1,0,0.2,0.1c1.5,0.5,3,0.9,4.6,1.3c0.1,0,0.2,0,0.2,0.1c1.5,0.4,3.1,0.8,4.7,1.1c0.1,0,0.2,0,0.3,0.1&#10;&#9;&#9;&#9;c1.6,0.3,3.2,0.7,4.8,1c0.1,0,0.2,0,0.3,0c1.6,0.3,3.2,0.6,4.9,0.8c0.1,0,0.2,0,0.3,0c1.6,0.2,3.3,0.4,5,0.6c0.1,0,0.2,0,0.2,0&#10;&#9;&#9;&#9;c1.7,0.2,3.4,0.3,5.1,0.4c0.1,0,0.1,0,0.2,0c1.7,0.1,3.5,0.2,5.2,0.3c0,0,0.1,0,0.1,0c1.8,0.1,3.6,0.1,5.4,0.1&#10;&#9;&#9;&#9;c12.1,0,23.7-1.4,34.6-4.1c1.7-0.4,3.3-0.9,5-1.3c13.9-4.1,26.3-10.4,36.7-19.1c1.2-1,2.4-2.1,3.6-3.1c0.6-0.5,1.2-1.1,1.7-1.6&#10;&#9;&#9;&#9;c1.7-1.7,3.3-3.4,4.9-5.2c1-1.2,2-2.4,3-3.7c4.8-6.3,8.8-13.4,11.9-21.3c0.2-0.4,0.3-0.9,0.5-1.3l0,0c0,0,0,0,0,0&#10;&#9;&#9;&#9;c0.1-0.4,0.3-0.7,0.4-1.1c3-8.5,4.8-17.9,5.4-28.1c0,0,0,0,0,0v0c0.1-2.4,0.2-4.7,0.2-7.2l0,0l0,0c0-1.3,0-2.6-0.1-3.9&#10;&#9;&#9;&#9;c0-1.3-0.1-2.6-0.2-3.9c-0.2-2.6-0.4-5.1-0.7-7.6c-0.8-6.3-2-12.4-3.7-18.4c-1.3-4.8-2.9-9.4-4.8-13.9c-1.4-3.4-2.9-6.6-4.6-9.8&#10;&#9;&#9;&#9;l-0.4,0.4c-0.2-0.3-0.3-0.7-0.5-1c0,0-0.1,0.7-0.3,1.9l-5.8,6.6c-2.5-4.6-5-9-6.8-11.6c-0.7-0.9-1.3-1.6-1.7-1.9l14.9-26.4&#10;&#9;&#9;&#9;l17.9-31.7h0h0h0l-7.1-0.3c-12.8-0.5-25.6,0.7-38,3.8l0.6-32.4l-30.4,24.4c-8.5-13.3-22.3-32.2-36.9-41.6v0l0,0l0,0v0&#10;&#9;&#9;&#9;c-14.7,9.4-28.5,28.4-37,41.8L1066.9,71l0.6,32.3c-12.4-3-25.1-4.2-37.8-3.7l-7.1,0.3l17.9,31.7L1055.3,158z" style="opacity: 0.4516; fill: rgb(143, 143, 143);" transform="matrix(1, 0, 0, 1, -952.3470458984375, -5.2040863037109375)"/><path class="st16" d="M1054.7,157.3c-1.5,1-4.7,6.5-8,12.5l-2.9-12.1c-10.7,18.1-16.9,39.6-16.9,62.6c0,12.3,1.8,23.4,5,33.3&#10;&#9;&#9;&#9;c0,0.1,0.1,0.2,0.1,0.2c5.4,16.2,14.7,29.4,26.9,39.5c-0.1,0-0.1,0-0.2-0.1c1.6,1.3,3.3,2.5,5,3.7c1.1,0.8,2.3,1.6,3.4,2.3&#10;&#9;&#9;&#9;c0,0,0,0,0,0c1.3,0.8,2.6,1.7,4,2.5c0,0,0,0,0,0c1.4,0.8,2.7,1.5,4.1,2.3c0,0,0,0,0.1,0c1.4,0.7,2.8,1.4,4.2,2.1c0,0,0.1,0,0.1,0&#10;&#9;&#9;&#9;c1.4,0.7,2.9,1.3,4.3,1.9c0,0,0.1,0,0.1,0.1c1.5,0.6,2.9,1.2,4.4,1.7c0.1,0,0.1,0,0.2,0.1c1.5,0.5,3,1,4.5,1.5&#10;&#9;&#9;&#9;c0.1,0,0.1,0,0.2,0.1c1.5,0.5,3,0.9,4.6,1.3c0.1,0,0.2,0,0.2,0.1c1.5,0.4,3.1,0.8,4.7,1.1c0.1,0,0.2,0,0.3,0.1&#10;&#9;&#9;&#9;c1.6,0.3,3.2,0.7,4.8,1c0.1,0,0.2,0,0.3,0c1.6,0.3,3.2,0.6,4.9,0.8c0.1,0,0.2,0,0.3,0c1.6,0.2,3.3,0.4,5,0.6c0.1,0,0.2,0,0.2,0&#10;&#9;&#9;&#9;c1.7,0.2,3.4,0.3,5.1,0.4c0.1,0,0.1,0,0.2,0c1.7,0.1,3.5,0.2,5.2,0.3c0,0,0.1,0,0.1,0c1.8,0.1,3.6,0.1,5.4,0.1&#10;&#9;&#9;&#9;c12.1,0,23.7-1.4,34.6-4.1c1.7-0.4,3.3-0.9,5-1.3c13.9-4.1,26.3-10.4,36.7-19.1c1.2-1,2.4-2.1,3.6-3.1c0.6-0.5,1.2-1.1,1.7-1.6&#10;&#9;&#9;&#9;c1.7-1.7,3.3-3.4,4.9-5.2c1-1.2,2-2.4,3-3.7c4.8-6.3,8.8-13.4,11.9-21.3c0.2-0.4,0.3-0.9,0.5-1.3l0,0l0,0c0.1-0.4,0.3-0.7,0.4-1.1&#10;&#9;&#9;&#9;c3-8.5,4.8-17.9,5.4-28.1c0,0,0,0,0,0l0,0c0.1-2.4,0.2-4.7,0.2-7.2l0,0l0,0c0-1.3,0-2.6-0.1-3.9c0-1.3-0.1-2.6-0.2-3.9&#10;&#9;&#9;&#9;c-0.2-2.6-0.4-5.1-0.7-7.6c-0.8-6.3-2-12.4-3.7-18.4c-1.3-4.8-2.9-9.4-4.8-13.9c-1.4-3.4-2.9-6.6-4.6-9.8l-0.4,0.4&#10;&#9;&#9;&#9;c-0.2-0.3-0.3-0.7-0.5-1c0,0-0.1,0.7-0.3,1.9l-5.8,6.6c-2.5-4.6-5-9-6.8-11.6c-0.7-0.9-1.3-1.6-1.7-1.9l14.9-26.4l17.9-31.7h0h0h0&#10;&#9;&#9;&#9;l-7.1-0.3c-12.8-0.5-25.6,0.7-38,3.8l0.6-32.4l-30.4,24.4c-8.5-13.3-22.3-32.2-36.9-41.6v0l0,0l0,0v0c-14.7,9.4-28.5,28.4-37,41.8&#10;&#9;&#9;&#9;l-30.5-24.5l0.6,32.3c-12.4-3-25.1-4.2-37.8-3.7l-7.1,0.3l17.9,31.7L1054.7,157.3z" style="opacity: 0.4839; fill: rgb(135, 135, 135);" transform="matrix(1, 0, 0, 1, -952.3470458984375, -5.2040863037109375)"/><path class="st17" d="M1054.1,156.7c-1.5,1-4.7,6.5-8,12.5l-2.9-12.1c-10.7,18.1-16.9,39.6-16.9,62.6c0,12.3,1.8,23.4,5,33.3&#10;&#9;&#9;&#9;c0,0.1,0.1,0.2,0.1,0.2c5.4,16.2,14.7,29.4,26.9,39.5c-0.1,0-0.1,0-0.2-0.1c1.6,1.3,3.3,2.5,5,3.7c1.1,0.8,2.3,1.6,3.4,2.3&#10;&#9;&#9;&#9;c0,0,0,0,0,0c1.3,0.8,2.6,1.7,4,2.5c0,0,0,0,0,0c1.4,0.8,2.7,1.5,4.1,2.3c0,0,0,0,0.1,0c1.4,0.7,2.8,1.4,4.2,2.1c0,0,0.1,0,0.1,0&#10;&#9;&#9;&#9;c1.4,0.7,2.9,1.3,4.3,1.9c0,0,0.1,0,0.1,0.1c1.5,0.6,2.9,1.2,4.4,1.7c0.1,0,0.1,0,0.2,0.1c1.5,0.5,3,1,4.5,1.5&#10;&#9;&#9;&#9;c0.1,0,0.1,0,0.2,0.1c1.5,0.5,3,0.9,4.6,1.3c0.1,0,0.2,0,0.2,0.1c1.5,0.4,3.1,0.8,4.7,1.1c0.1,0,0.2,0,0.3,0.1&#10;&#9;&#9;&#9;c1.6,0.3,3.2,0.7,4.8,1c0.1,0,0.2,0,0.3,0c1.6,0.3,3.2,0.6,4.9,0.8c0.1,0,0.2,0,0.3,0c1.6,0.2,3.3,0.4,5,0.6c0.1,0,0.2,0,0.2,0&#10;&#9;&#9;&#9;c1.7,0.2,3.4,0.3,5.1,0.4c0.1,0,0.1,0,0.2,0c1.7,0.1,3.5,0.2,5.2,0.3c0,0,0.1,0,0.1,0c1.8,0.1,3.6,0.1,5.4,0.1&#10;&#9;&#9;&#9;c12.1,0,23.7-1.4,34.6-4.1c1.7-0.4,3.3-0.9,5-1.3c13.9-4.1,26.3-10.4,36.7-19.1c1.2-1,2.4-2.1,3.6-3.1c0.6-0.5,1.2-1.1,1.7-1.6&#10;&#9;&#9;&#9;c1.7-1.7,3.3-3.4,4.9-5.2c1-1.2,2-2.4,3-3.7c4.8-6.3,8.8-13.4,11.9-21.3c0.2-0.4,0.3-0.9,0.5-1.3l0,0c0,0,0,0,0,0&#10;&#9;&#9;&#9;c0.1-0.4,0.3-0.7,0.4-1.1c3-8.5,4.8-17.9,5.4-28.1c0,0,0,0,0,0v0c0.1-2.4,0.2-4.7,0.2-7.2l0,0l0,0c0-1.3,0-2.6-0.1-3.9&#10;&#9;&#9;&#9;c0-1.3-0.1-2.6-0.2-3.9c-0.2-2.6-0.4-5.1-0.7-7.6c-0.8-6.3-2-12.4-3.7-18.4c-1.3-4.8-2.9-9.4-4.8-13.9c-1.4-3.4-2.9-6.6-4.6-9.8&#10;&#9;&#9;&#9;l-0.4,0.4c-0.2-0.3-0.3-0.7-0.5-1c0,0-0.1,0.7-0.3,1.9l-5.8,6.6c-2.5-4.6-5-9-6.8-11.6c-0.7-0.9-1.3-1.6-1.7-1.9l14.9-26.4&#10;&#9;&#9;&#9;l17.9-31.7h0h0h0l-7.1-0.3c-12.8-0.5-25.6,0.7-38,3.8l0.6-32.4l-30.4,24.4c-8.5-13.3-22.3-32.2-36.9-41.6v0l0,0l0,0v0&#10;&#9;&#9;&#9;c-14.7,9.4-28.5,28.4-37,41.8l-30.5-24.5l0.6,32.3c-12.4-3-25.1-4.2-37.8-3.7l-7.1,0.3l17.9,31.7L1054.1,156.7z" style="opacity: 0.5161; fill: rgb(127, 127, 127);" transform="matrix(1, 0, 0, 1, -952.3470458984375, -5.2040863037109375)"/><path class="st18" d="M1053.4,156c-1.5,1-4.7,6.5-8,12.5l-2.9-12.1c-10.7,18.1-16.9,39.6-16.9,62.6c0,12.3,1.8,23.4,5,33.3&#10;&#9;&#9;&#9;c0,0.1,0.1,0.2,0.1,0.2c5.4,16.2,14.7,29.4,26.9,39.5c-0.1,0-0.1,0-0.2-0.1c1.6,1.3,3.3,2.5,5,3.7c1.1,0.8,2.3,1.6,3.4,2.3&#10;&#9;&#9;&#9;c0,0,0,0,0,0c1.3,0.8,2.6,1.7,4,2.5c0,0,0,0,0,0c1.4,0.8,2.7,1.5,4.1,2.3c0,0,0,0,0.1,0c1.4,0.7,2.8,1.4,4.2,2.1c0,0,0.1,0,0.1,0&#10;&#9;&#9;&#9;c1.4,0.7,2.9,1.3,4.3,1.9c0,0,0.1,0,0.1,0.1c1.5,0.6,2.9,1.2,4.4,1.7c0.1,0,0.1,0,0.2,0.1c1.5,0.5,3,1,4.5,1.5&#10;&#9;&#9;&#9;c0.1,0,0.1,0,0.2,0.1c1.5,0.5,3,0.9,4.6,1.3c0.1,0,0.2,0,0.2,0.1c1.5,0.4,3.1,0.8,4.7,1.1c0.1,0,0.2,0,0.3,0.1&#10;&#9;&#9;&#9;c1.6,0.3,3.2,0.7,4.8,1c0.1,0,0.2,0,0.3,0c1.6,0.3,3.2,0.6,4.9,0.8c0.1,0,0.2,0,0.3,0c1.6,0.2,3.3,0.4,5,0.6c0.1,0,0.2,0,0.2,0&#10;&#9;&#9;&#9;c1.7,0.2,3.4,0.3,5.1,0.4c0.1,0,0.1,0,0.2,0c1.7,0.1,3.5,0.2,5.2,0.3c0,0,0.1,0,0.1,0c1.8,0.1,3.6,0.1,5.4,0.1&#10;&#9;&#9;&#9;c12.1,0,23.7-1.4,34.6-4.1c1.7-0.4,3.3-0.9,5-1.3c13.9-4.1,26.3-10.4,36.7-19.1c1.2-1,2.4-2.1,3.6-3.1c0.6-0.5,1.2-1.1,1.7-1.6&#10;&#9;&#9;&#9;c1.7-1.7,3.3-3.4,4.9-5.2c1-1.2,2-2.4,3-3.7c4.8-6.3,8.8-13.4,11.9-21.3c0.2-0.4,0.3-0.9,0.5-1.3l0,0l0,0c0.1-0.4,0.3-0.7,0.4-1.1&#10;&#9;&#9;&#9;c3-8.5,4.8-17.9,5.4-28.1v0l0,0c0.1-2.4,0.2-4.7,0.2-7.2l0,0l0,0c0-1.3,0-2.6-0.1-3.9c0-1.3-0.1-2.6-0.2-3.9&#10;&#9;&#9;&#9;c-0.2-2.6-0.4-5.1-0.7-7.6c-0.8-6.3-2-12.4-3.7-18.4c-1.3-4.8-2.9-9.4-4.8-13.9c-1.4-3.4-2.9-6.6-4.6-9.8l-0.4,0.4&#10;&#9;&#9;&#9;c-0.2-0.3-0.3-0.7-0.5-1c0,0-0.1,0.7-0.3,1.9l-5.8,6.6c-2.5-4.6-5-9-6.8-11.6c-0.7-0.9-1.3-1.6-1.7-1.9l14.9-26.4l17.9-31.7h0h0h0&#10;&#9;&#9;&#9;l-7.1-0.3c-12.8-0.5-25.6,0.7-38,3.8l0.6-32.4l-30.4,24.4c-8.5-13.3-22.3-32.2-36.9-41.6v0l0,0l0,0v0c-14.7,9.4-28.5,28.4-37,41.8&#10;&#9;&#9;&#9;L1065,69l0.6,32.3c-12.4-3-25.1-4.2-37.8-3.7l-7.1,0.3l17.9,31.7L1053.4,156z" style="opacity: 0.5484; fill: rgb(119, 119, 119);" transform="matrix(1, 0, 0, 1, -952.3470458984375, -5.2040863037109375)"/><path class="st19" d="M1052.8,155.3c-1.5,1-4.7,6.5-8,12.5l-2.9-12.1c-10.7,18.1-16.9,39.6-16.9,62.6c0,12.3,1.8,23.4,5,33.3&#10;&#9;&#9;&#9;c0,0.1,0.1,0.2,0.1,0.2c5.4,16.2,14.7,29.4,26.9,39.5c-0.1,0-0.1,0-0.2-0.1c1.6,1.3,3.3,2.5,5,3.7c1.1,0.8,2.3,1.6,3.4,2.3&#10;&#9;&#9;&#9;c0,0,0,0,0,0c1.3,0.8,2.6,1.7,4,2.5c0,0,0,0,0,0c1.4,0.8,2.7,1.5,4.1,2.3c0,0,0,0,0.1,0c1.4,0.7,2.8,1.4,4.2,2.1c0,0,0.1,0,0.1,0&#10;&#9;&#9;&#9;c1.4,0.7,2.9,1.3,4.3,1.9c0,0,0.1,0,0.1,0.1c1.5,0.6,2.9,1.2,4.4,1.7c0.1,0,0.1,0,0.2,0.1c1.5,0.5,3,1,4.5,1.5&#10;&#9;&#9;&#9;c0.1,0,0.1,0,0.2,0.1c1.5,0.5,3,0.9,4.6,1.3c0.1,0,0.2,0,0.2,0.1c1.5,0.4,3.1,0.8,4.7,1.1c0.1,0,0.2,0,0.3,0.1&#10;&#9;&#9;&#9;c1.6,0.3,3.2,0.7,4.8,1c0.1,0,0.2,0,0.3,0c1.6,0.3,3.2,0.6,4.9,0.8c0.1,0,0.2,0,0.3,0c1.6,0.2,3.3,0.4,5,0.6c0.1,0,0.2,0,0.2,0&#10;&#9;&#9;&#9;c1.7,0.2,3.4,0.3,5.1,0.4c0.1,0,0.1,0,0.2,0c1.7,0.1,3.5,0.2,5.2,0.3c0,0,0.1,0,0.1,0c1.8,0.1,3.6,0.1,5.4,0.1&#10;&#9;&#9;&#9;c12.1,0,23.7-1.4,34.6-4.1c1.7-0.4,3.3-0.9,5-1.3c13.9-4.1,26.3-10.4,36.7-19.1c1.2-1,2.4-2.1,3.6-3.1c0.6-0.5,1.2-1.1,1.7-1.6&#10;&#9;&#9;&#9;c1.7-1.7,3.3-3.4,4.9-5.2c1-1.2,2-2.4,3-3.7c4.8-6.3,8.8-13.4,11.9-21.3c0.2-0.4,0.3-0.9,0.5-1.3l0,0l0,0c0.1-0.4,0.3-0.7,0.4-1.1&#10;&#9;&#9;&#9;c3-8.5,4.8-17.9,5.4-28.1v0l0,0c0.1-2.4,0.2-4.7,0.2-7.2l0,0l0,0c0-1.3,0-2.6-0.1-3.9c0-1.3-0.1-2.6-0.2-3.9&#10;&#9;&#9;&#9;c-0.2-2.6-0.4-5.1-0.7-7.6c-0.8-6.3-2-12.4-3.7-18.4c-1.3-4.8-2.9-9.4-4.8-13.9c-1.4-3.4-2.9-6.6-4.6-9.8l-0.4,0.4&#10;&#9;&#9;&#9;c-0.2-0.3-0.3-0.7-0.5-1c0,0-0.1,0.7-0.3,1.9l-5.8,6.6c-2.5-4.6-5-9-6.8-11.6c-0.7-0.9-1.3-1.6-1.7-1.9l14.9-26.4l17.9-31.7h0h0h0&#10;&#9;&#9;&#9;l-7.1-0.3c-12.8-0.5-25.6,0.7-38,3.8l0.6-32.4l-30.4,24.4c-8.5-13.3-22.3-32.2-36.9-41.6v0l0,0l0,0v0c-14.7,9.4-28.5,28.4-37,41.8&#10;&#9;&#9;&#9;l-30.5-24.5l0.6,32.3c-12.4-3-25.1-4.2-37.8-3.7l-7.1,0.3l17.9,31.7L1052.8,155.3z" style="opacity: 0.5806; fill: rgb(111, 111, 111);" transform="matrix(1, 0, 0, 1, -952.3470458984375, -5.2040863037109375)"/><path class="st20" d="M1052.2,154.6c-1.5,1-4.7,6.5-8,12.5l-2.9-12.1c-10.7,18.1-16.9,39.6-16.9,62.6c0,12.3,1.8,23.4,5,33.3&#10;&#9;&#9;&#9;c0,0.1,0.1,0.2,0.1,0.2c5.4,16.2,14.7,29.4,26.9,39.5c-0.1,0-0.1,0-0.2-0.1c1.6,1.3,3.3,2.5,5,3.7c1.1,0.8,2.3,1.6,3.4,2.3&#10;&#9;&#9;&#9;c0,0,0,0,0,0c1.3,0.8,2.6,1.7,4,2.5c0,0,0,0,0,0c1.4,0.8,2.7,1.5,4.1,2.3c0,0,0,0,0.1,0c1.4,0.7,2.8,1.4,4.2,2.1c0,0,0.1,0,0.1,0&#10;&#9;&#9;&#9;c1.4,0.7,2.9,1.3,4.3,1.9c0,0,0.1,0,0.1,0.1c1.5,0.6,2.9,1.2,4.4,1.7c0.1,0,0.1,0,0.2,0.1c1.5,0.5,3,1,4.5,1.5&#10;&#9;&#9;&#9;c0.1,0,0.1,0,0.2,0.1c1.5,0.5,3,0.9,4.6,1.3c0.1,0,0.2,0,0.2,0.1c1.5,0.4,3.1,0.8,4.7,1.1c0.1,0,0.2,0,0.3,0.1&#10;&#9;&#9;&#9;c1.6,0.3,3.2,0.7,4.8,1c0.1,0,0.2,0,0.3,0c1.6,0.3,3.2,0.6,4.9,0.8c0.1,0,0.2,0,0.3,0c1.6,0.2,3.3,0.4,5,0.6c0.1,0,0.2,0,0.2,0&#10;&#9;&#9;&#9;c1.7,0.2,3.4,0.3,5.1,0.4c0.1,0,0.1,0,0.2,0c1.7,0.1,3.5,0.2,5.2,0.3c0,0,0.1,0,0.1,0c1.8,0.1,3.6,0.1,5.4,0.1&#10;&#9;&#9;&#9;c12.1,0,23.7-1.4,34.6-4.1c1.7-0.4,3.3-0.9,5-1.3c13.9-4.1,26.3-10.4,36.7-19.1c1.2-1,2.4-2.1,3.6-3.1c0.6-0.5,1.2-1.1,1.7-1.6&#10;&#9;&#9;&#9;c1.7-1.7,3.3-3.4,4.9-5.2c1-1.2,2-2.4,3-3.7c4.8-6.3,8.8-13.4,11.9-21.3c0.2-0.4,0.3-0.9,0.5-1.3l0,0l0,0c0.1-0.4,0.3-0.7,0.4-1.1&#10;&#9;&#9;&#9;c3-8.5,4.8-17.9,5.4-28.1c0,0,0,0,0,0v0c0.1-2.4,0.2-4.7,0.2-7.2l0,0l0,0c0-1.3,0-2.6-0.1-3.9c0-1.3-0.1-2.6-0.2-3.9&#10;&#9;&#9;&#9;c-0.2-2.6-0.4-5.1-0.7-7.6c-0.8-6.3-2-12.4-3.7-18.4c-1.3-4.8-2.9-9.4-4.8-13.9c-1.4-3.4-2.9-6.6-4.6-9.8l-0.4,0.4&#10;&#9;&#9;&#9;c-0.2-0.3-0.3-0.7-0.5-1c0,0-0.1,0.7-0.3,1.9l-5.8,6.6c-2.5-4.6-5-9-6.8-11.6c-0.7-0.9-1.3-1.6-1.7-1.9l14.9-26.4l17.9-31.7h0h0h0&#10;&#9;&#9;&#9;l-7.1-0.3c-12.8-0.5-25.6,0.7-38,3.8l0.6-32.4L1168.2,92c-8.5-13.3-22.3-32.2-36.9-41.6v0c0,0,0,0,0,0c0,0,0,0,0,0v0&#10;&#9;&#9;&#9;c-14.7,9.4-28.5,28.4-37,41.8l-30.5-24.5l0.6,32.3c-12.4-3-25.1-4.2-37.8-3.7l-7.1,0.3l17.9,31.7L1052.2,154.6z" style="opacity: 0.6129; fill: rgb(103, 103, 103);" transform="matrix(1, 0, 0, 1, -952.3470458984375, -5.2040863037109375)"/><path class="st21" d="M1051.5,153.9c-1.5,1-4.7,6.5-8,12.5l-2.9-12.1c-10.7,18.1-16.9,39.6-16.9,62.6c0,12.3,1.8,23.4,5,33.3&#10;&#9;&#9;&#9;c0,0.1,0.1,0.2,0.1,0.2c5.4,16.2,14.7,29.4,26.9,39.5c-0.1,0-0.1,0-0.2-0.1c1.6,1.3,3.3,2.5,5,3.7c1.1,0.8,2.3,1.6,3.4,2.3&#10;&#9;&#9;&#9;c0,0,0,0,0,0c1.3,0.8,2.6,1.7,4,2.5c0,0,0,0,0,0c1.4,0.8,2.7,1.5,4.1,2.3c0,0,0,0,0.1,0c1.4,0.7,2.8,1.4,4.2,2.1c0,0,0.1,0,0.1,0&#10;&#9;&#9;&#9;c1.4,0.7,2.9,1.3,4.3,1.9c0,0,0.1,0,0.1,0.1c1.5,0.6,2.9,1.2,4.4,1.7c0.1,0,0.1,0,0.2,0.1c1.5,0.5,3,1,4.5,1.5&#10;&#9;&#9;&#9;c0.1,0,0.1,0,0.2,0.1c1.5,0.5,3,0.9,4.6,1.3c0.1,0,0.2,0,0.2,0.1c1.5,0.4,3.1,0.8,4.7,1.1c0.1,0,0.2,0,0.3,0.1&#10;&#9;&#9;&#9;c1.6,0.3,3.2,0.7,4.8,1c0.1,0,0.2,0,0.3,0c1.6,0.3,3.2,0.6,4.9,0.8c0.1,0,0.2,0,0.3,0c1.6,0.2,3.3,0.4,5,0.6c0.1,0,0.2,0,0.2,0&#10;&#9;&#9;&#9;c1.7,0.2,3.4,0.3,5.1,0.4c0.1,0,0.1,0,0.2,0c1.7,0.1,3.5,0.2,5.2,0.3c0,0,0.1,0,0.1,0c1.8,0.1,3.6,0.1,5.4,0.1&#10;&#9;&#9;&#9;c12.1,0,23.7-1.4,34.6-4.1c1.7-0.4,3.3-0.9,5-1.3c13.9-4.1,26.3-10.4,36.7-19.1c1.2-1,2.4-2.1,3.6-3.1c0.6-0.5,1.2-1.1,1.7-1.6&#10;&#9;&#9;&#9;c1.7-1.7,3.3-3.4,4.9-5.2c1-1.2,2-2.4,3-3.7c4.8-6.3,8.8-13.4,11.9-21.3c0.2-0.4,0.3-0.9,0.5-1.3l0,0l0,0c0.1-0.4,0.3-0.7,0.4-1.1&#10;&#9;&#9;&#9;c3-8.5,4.8-17.9,5.4-28.1c0,0,0,0,0,0l0,0c0.1-2.4,0.2-4.7,0.2-7.2l0,0l0,0c0-1.3,0-2.6-0.1-3.9c0-1.3-0.1-2.6-0.2-3.9&#10;&#9;&#9;&#9;c-0.2-2.6-0.4-5.1-0.7-7.6c-0.8-6.3-2-12.4-3.7-18.4c-1.3-4.8-2.9-9.4-4.8-13.9c-1.4-3.4-2.9-6.6-4.6-9.8l-0.4,0.4&#10;&#9;&#9;&#9;c-0.2-0.3-0.3-0.7-0.5-1c0,0-0.1,0.7-0.3,1.9l-5.8,6.6c-2.5-4.6-5-9-6.8-11.6c-0.7-0.9-1.3-1.6-1.7-1.9l14.9-26.4l17.9-31.7h0h0h0&#10;&#9;&#9;&#9;l-7.1-0.3c-12.8-0.5-25.6,0.7-38,3.8L1198,67l-30.4,24.4c-8.5-13.3-22.3-32.2-36.9-41.6v0l0,0l0,0v0c-14.7,9.4-28.5,28.4-37,41.8&#10;&#9;&#9;&#9;L1063.1,67l0.6,32.3c-12.4-3-25.1-4.2-37.8-3.7l-7.1,0.3l17.9,31.7L1051.5,153.9z" style="opacity: 0.6452; fill: rgb(95, 95, 95);" transform="matrix(1, 0, 0, 1, -952.3470458984375, -5.2040863037109375)"/><path class="st22" d="M1050.9,153.3c-1.5,1-4.7,6.5-8,12.5l-2.9-12.1c-10.7,18.1-16.9,39.6-16.9,62.6c0,12.3,1.8,23.4,5,33.3&#10;&#9;&#9;&#9;c0,0.1,0.1,0.2,0.1,0.2c5.4,16.2,14.7,29.4,26.9,39.5c-0.1,0-0.1,0-0.2-0.1c1.6,1.3,3.3,2.5,5,3.7c1.1,0.8,2.3,1.6,3.4,2.3&#10;&#9;&#9;&#9;c0,0,0,0,0,0c1.3,0.8,2.6,1.7,4,2.5c0,0,0,0,0,0c1.4,0.8,2.7,1.5,4.1,2.3c0,0,0,0,0.1,0c1.4,0.7,2.8,1.4,4.2,2.1c0,0,0.1,0,0.1,0&#10;&#9;&#9;&#9;c1.4,0.7,2.9,1.3,4.3,1.9c0,0,0.1,0,0.1,0.1c1.5,0.6,2.9,1.2,4.4,1.7c0.1,0,0.1,0,0.2,0.1c1.5,0.5,3,1,4.5,1.5&#10;&#9;&#9;&#9;c0.1,0,0.1,0,0.2,0.1c1.5,0.5,3,0.9,4.6,1.3c0.1,0,0.2,0,0.2,0.1c1.5,0.4,3.1,0.8,4.7,1.1c0.1,0,0.2,0,0.3,0.1&#10;&#9;&#9;&#9;c1.6,0.3,3.2,0.7,4.8,1c0.1,0,0.2,0,0.3,0c1.6,0.3,3.2,0.6,4.9,0.8c0.1,0,0.2,0,0.3,0c1.6,0.2,3.3,0.4,5,0.6c0.1,0,0.2,0,0.2,0&#10;&#9;&#9;&#9;c1.7,0.2,3.4,0.3,5.1,0.4c0.1,0,0.1,0,0.2,0c1.7,0.1,3.5,0.2,5.2,0.3c0,0,0.1,0,0.1,0c1.8,0.1,3.6,0.1,5.4,0.1&#10;&#9;&#9;&#9;c12.1,0,23.7-1.4,34.6-4.1c1.7-0.4,3.3-0.9,5-1.3c13.9-4.1,26.3-10.4,36.7-19.1c1.2-1,2.4-2.1,3.6-3.1c0.6-0.5,1.2-1.1,1.7-1.6&#10;&#9;&#9;&#9;c1.7-1.7,3.3-3.4,4.9-5.2c1-1.2,2-2.4,3-3.7c4.8-6.3,8.8-13.4,11.9-21.3c0.2-0.4,0.3-0.9,0.5-1.3l0,0c0,0,0,0,0,0&#10;&#9;&#9;&#9;c0.1-0.4,0.3-0.7,0.4-1.1c3-8.5,4.8-17.9,5.4-28.1v0l0,0c0.1-2.4,0.2-4.7,0.2-7.2l0,0l0,0c0-1.3,0-2.6-0.1-3.9&#10;&#9;&#9;&#9;c0-1.3-0.1-2.6-0.2-3.9c-0.2-2.6-0.4-5.1-0.7-7.6c-0.8-6.3-2-12.4-3.7-18.4c-1.3-4.8-2.9-9.4-4.8-13.9c-1.4-3.4-2.9-6.6-4.6-9.8&#10;&#9;&#9;&#9;l-0.4,0.4c-0.2-0.3-0.3-0.7-0.5-1c0,0-0.1,0.7-0.3,1.9l-5.8,6.6c-2.5-4.6-5-9-6.8-11.6c-0.7-0.9-1.3-1.6-1.7-1.9l14.9-26.4&#10;&#9;&#9;&#9;l17.9-31.7h0h0h0l-7.1-0.3c-12.8-0.5-25.6,0.7-38,3.8l0.6-32.4L1167,90.7c-8.5-13.3-22.3-32.2-36.9-41.6v0l0,0l0,0v0&#10;&#9;&#9;&#9;c-14.7,9.4-28.5,28.4-37,41.8l-30.5-24.5l0.6,32.3c-12.4-3-25.1-4.2-37.8-3.7l-7.1,0.3l17.9,31.7L1050.9,153.3z" style="opacity: 0.6774; fill: rgb(87, 87, 87);" transform="matrix(1, 0, 0, 1, -952.3470458984375, -5.2040863037109375)"/><path class="st23" d="M1050.3,152.6c-1.5,1-4.7,6.5-8,12.5l-2.9-12.1c-10.7,18.1-16.9,39.6-16.9,62.6c0,12.3,1.8,23.4,5,33.3&#10;&#9;&#9;&#9;c0,0.1,0.1,0.2,0.1,0.2c5.4,16.2,14.7,29.4,26.9,39.5c-0.1,0-0.1,0-0.2-0.1c1.6,1.3,3.3,2.5,5,3.7c1.1,0.8,2.3,1.6,3.4,2.3&#10;&#9;&#9;&#9;c0,0,0,0,0,0c1.3,0.8,2.6,1.7,4,2.5c0,0,0,0,0,0c1.4,0.8,2.7,1.5,4.1,2.3c0,0,0,0,0.1,0c1.4,0.7,2.8,1.4,4.2,2.1c0,0,0.1,0,0.1,0&#10;&#9;&#9;&#9;c1.4,0.7,2.9,1.3,4.3,1.9c0,0,0.1,0,0.1,0.1c1.5,0.6,2.9,1.2,4.4,1.7c0.1,0,0.1,0,0.2,0.1c1.5,0.5,3,1,4.5,1.5&#10;&#9;&#9;&#9;c0.1,0,0.1,0,0.2,0.1c1.5,0.5,3,0.9,4.6,1.3c0.1,0,0.2,0,0.2,0.1c1.5,0.4,3.1,0.8,4.7,1.1c0.1,0,0.2,0,0.3,0.1&#10;&#9;&#9;&#9;c1.6,0.3,3.2,0.7,4.8,1c0.1,0,0.2,0,0.3,0c1.6,0.3,3.2,0.6,4.9,0.8c0.1,0,0.2,0,0.3,0c1.6,0.2,3.3,0.4,5,0.6c0.1,0,0.2,0,0.2,0&#10;&#9;&#9;&#9;c1.7,0.2,3.4,0.3,5.1,0.4c0.1,0,0.1,0,0.2,0c1.7,0.1,3.5,0.2,5.2,0.3c0,0,0.1,0,0.1,0c1.8,0.1,3.6,0.1,5.4,0.1&#10;&#9;&#9;&#9;c12.1,0,23.7-1.4,34.6-4.1c1.7-0.4,3.3-0.9,5-1.3c13.9-4.1,26.3-10.4,36.7-19.1c1.2-1,2.4-2.1,3.6-3.1c0.6-0.5,1.2-1.1,1.7-1.6&#10;&#9;&#9;&#9;c1.7-1.7,3.3-3.4,4.9-5.2c1-1.2,2-2.4,3-3.7c4.8-6.3,8.8-13.4,11.9-21.3c0.2-0.4,0.3-0.9,0.5-1.3l0,0l0,0c0.1-0.4,0.3-0.7,0.4-1.1&#10;&#9;&#9;&#9;c3-8.5,4.8-17.9,5.4-28.1v0l0,0c0.1-2.4,0.2-4.7,0.2-7.2l0,0l0,0c0-1.3,0-2.6-0.1-3.9c0-1.3-0.1-2.6-0.2-3.9&#10;&#9;&#9;&#9;c-0.2-2.6-0.4-5.1-0.7-7.6c-0.8-6.3-2-12.4-3.7-18.4c-1.3-4.8-2.9-9.4-4.8-13.9c-1.4-3.4-2.9-6.6-4.6-9.8l-0.4,0.4&#10;&#9;&#9;&#9;c-0.2-0.3-0.3-0.7-0.5-1c0,0-0.1,0.7-0.3,1.9l-5.8,6.6c-2.5-4.6-5-9-6.8-11.6c-0.7-0.9-1.3-1.6-1.7-1.9l14.9-26.4l17.9-31.7h0h0h0&#10;&#9;&#9;&#9;l-7.1-0.3c-12.8-0.5-25.6,0.7-38,3.8l0.6-32.4L1166.3,90c-8.5-13.3-22.3-32.2-36.9-41.6v0l0,0l0,0v0c-14.7,9.4-28.5,28.4-37,41.8&#10;&#9;&#9;&#9;l-30.5-24.5l0.6,32.3c-12.4-3-25.1-4.2-37.8-3.7l-7.1,0.3l17.9,31.7L1050.3,152.6z" style="opacity: 0.7097; fill: rgb(79, 79, 79);" transform="matrix(1, 0, 0, 1, -952.3470458984375, -5.2040863037109375)"/><path class="st24" d="M1049.7,151.9c-1.5,1-4.7,6.5-8,12.5l-2.9-12.1c-10.7,18.1-16.9,39.6-16.9,62.6c0,12.3,1.8,23.4,5,33.3&#10;&#9;&#9;&#9;c0,0.1,0.1,0.2,0.1,0.2c5.4,16.2,14.7,29.4,26.9,39.5c-0.1,0-0.1,0-0.2-0.1c1.6,1.3,3.3,2.5,5,3.7c1.1,0.8,2.3,1.6,3.4,2.3&#10;&#9;&#9;&#9;c0,0,0,0,0,0c1.3,0.8,2.6,1.7,4,2.5c0,0,0,0,0,0c1.4,0.8,2.7,1.5,4.1,2.3c0,0,0,0,0.1,0c1.4,0.7,2.8,1.4,4.2,2.1c0,0,0.1,0,0.1,0&#10;&#9;&#9;&#9;c1.4,0.7,2.9,1.3,4.3,1.9c0,0,0.1,0,0.1,0.1c1.5,0.6,2.9,1.2,4.4,1.7c0.1,0,0.1,0,0.2,0.1c1.5,0.5,3,1,4.5,1.5&#10;&#9;&#9;&#9;c0.1,0,0.1,0,0.2,0.1c1.5,0.5,3,0.9,4.6,1.3c0.1,0,0.2,0,0.2,0.1c1.5,0.4,3.1,0.8,4.7,1.1c0.1,0,0.2,0,0.3,0.1&#10;&#9;&#9;&#9;c1.6,0.3,3.2,0.7,4.8,1c0.1,0,0.2,0,0.3,0c1.6,0.3,3.2,0.6,4.9,0.8c0.1,0,0.2,0,0.3,0c1.6,0.2,3.3,0.4,5,0.6c0.1,0,0.2,0,0.2,0&#10;&#9;&#9;&#9;c1.7,0.2,3.4,0.3,5.1,0.4c0.1,0,0.1,0,0.2,0c1.7,0.1,3.5,0.2,5.2,0.3c0,0,0.1,0,0.1,0c1.8,0.1,3.6,0.1,5.4,0.1&#10;&#9;&#9;&#9;c12.1,0,23.7-1.4,34.6-4.1c1.7-0.4,3.3-0.9,5-1.3c13.9-4.1,26.3-10.4,36.7-19.1c1.2-1,2.4-2.1,3.6-3.1c0.6-0.5,1.2-1.1,1.7-1.6&#10;&#9;&#9;&#9;c1.7-1.7,3.3-3.4,4.9-5.2c1-1.2,2-2.4,3-3.7c4.8-6.3,8.8-13.4,11.9-21.3c0.2-0.4,0.3-0.9,0.5-1.3l0,0l0,0c0.1-0.4,0.3-0.7,0.4-1.1&#10;&#9;&#9;&#9;c3-8.5,4.8-17.9,5.4-28.1v0l0,0c0.1-2.4,0.2-4.7,0.2-7.2l0,0l0,0c0-1.3,0-2.6-0.1-3.9c0-1.3-0.1-2.6-0.2-3.9&#10;&#9;&#9;&#9;c-0.2-2.6-0.4-5.1-0.7-7.6c-0.8-6.3-2-12.4-3.7-18.4c-1.3-4.8-2.9-9.4-4.8-13.9c-1.4-3.4-2.9-6.6-4.6-9.8l-0.4,0.4&#10;&#9;&#9;&#9;c-0.2-0.3-0.3-0.7-0.5-1c0,0-0.1,0.7-0.3,1.9l-5.8,6.6c-2.5-4.6-5-9-6.8-11.6c-0.7-0.9-1.3-1.6-1.7-1.9l14.9-26.4l17.9-31.7h0l0,0&#10;&#9;&#9;&#9;l0,0l-7.1-0.3c-12.8-0.5-25.6,0.7-38,3.8l0.6-32.4l-30.4,24.4c-8.5-13.3-22.3-32.2-36.9-41.6v0l0,0l0,0v0&#10;&#9;&#9;&#9;c-14.7,9.4-28.5,28.4-37,41.8l-30.5-24.5l0.6,32.3c-12.4-3-25.1-4.2-37.8-3.7l-7.1,0.3l17.9,31.7L1049.7,151.9z" style="opacity: 0.7419; fill: rgb(71, 71, 71);" transform="matrix(1, 0, 0, 1, -952.3470458984375, -5.2040863037109375)"/><path class="st25" d="M1049,151.2c-1.5,1-4.7,6.5-8,12.5l-2.9-12.1c-10.7,18.1-16.9,39.6-16.9,62.6c0,12.3,1.8,23.4,5,33.3&#10;&#9;&#9;&#9;c0,0.1,0.1,0.2,0.1,0.2c5.4,16.2,14.7,29.4,26.9,39.5c-0.1,0-0.1,0-0.2-0.1c1.6,1.3,3.3,2.5,5,3.7c1.1,0.8,2.3,1.6,3.4,2.3&#10;&#9;&#9;&#9;c0,0,0,0,0,0c1.3,0.8,2.6,1.7,4,2.5c0,0,0,0,0,0c1.4,0.8,2.7,1.5,4.1,2.3c0,0,0,0,0.1,0c1.4,0.7,2.8,1.4,4.2,2.1c0,0,0.1,0,0.1,0&#10;&#9;&#9;&#9;c1.4,0.7,2.9,1.3,4.3,1.9c0,0,0.1,0,0.1,0.1c1.5,0.6,2.9,1.2,4.4,1.7c0.1,0,0.1,0,0.2,0.1c1.5,0.5,3,1,4.5,1.5&#10;&#9;&#9;&#9;c0.1,0,0.1,0,0.2,0.1c1.5,0.5,3,0.9,4.6,1.3c0.1,0,0.2,0,0.2,0.1c1.5,0.4,3.1,0.8,4.7,1.1c0.1,0,0.2,0,0.3,0.1&#10;&#9;&#9;&#9;c1.6,0.3,3.2,0.7,4.8,1c0.1,0,0.2,0,0.3,0c1.6,0.3,3.2,0.6,4.9,0.8c0.1,0,0.2,0,0.3,0c1.6,0.2,3.3,0.4,5,0.6c0.1,0,0.2,0,0.2,0&#10;&#9;&#9;&#9;c1.7,0.2,3.4,0.3,5.1,0.4c0.1,0,0.1,0,0.2,0c1.7,0.1,3.5,0.2,5.2,0.3c0,0,0.1,0,0.1,0c1.8,0.1,3.6,0.1,5.4,0.1&#10;&#9;&#9;&#9;c12.1,0,23.7-1.4,34.6-4.1c1.7-0.4,3.3-0.9,5-1.3c13.9-4.1,26.3-10.4,36.7-19.1c1.2-1,2.4-2.1,3.6-3.1c0.6-0.5,1.2-1.1,1.7-1.6&#10;&#9;&#9;&#9;c1.7-1.7,3.3-3.4,4.9-5.2c1-1.2,2-2.4,3-3.7c4.8-6.3,8.8-13.4,11.9-21.3c0.2-0.4,0.3-0.9,0.5-1.3l0,0l0,0c0.1-0.4,0.3-0.7,0.4-1.1&#10;&#9;&#9;&#9;c3-8.5,4.8-17.9,5.4-28.1c0,0,0,0,0,0v0c0.1-2.4,0.2-4.7,0.2-7.2l0,0l0,0c0-1.3,0-2.6-0.1-3.9c0-1.3-0.1-2.6-0.2-3.9&#10;&#9;&#9;&#9;c-0.2-2.6-0.4-5.1-0.7-7.6c-0.8-6.3-2-12.4-3.7-18.4c-1.3-4.8-2.9-9.4-4.8-13.9c-1.4-3.4-2.9-6.6-4.6-9.8l-0.4,0.4&#10;&#9;&#9;&#9;c-0.2-0.3-0.3-0.7-0.5-1c0,0-0.1,0.7-0.3,1.9l-5.8,6.6c-2.5-4.6-5-9-6.8-11.6c-0.7-0.9-1.3-1.6-1.7-1.9l14.9-26.4l17.9-31.7h0h0h0&#10;&#9;&#9;&#9;l-7.1-0.3c-12.8-0.5-25.6,0.7-38,3.8l0.6-32.4l-30.4,24.4c-8.5-13.3-22.3-32.2-36.9-41.6v0c0,0,0,0,0,0c0,0,0,0,0,0v0&#10;&#9;&#9;&#9;c-14.7,9.4-28.5,28.4-37,41.8l-30.5-24.5l0.6,32.3c-12.4-3-25.1-4.2-37.8-3.7l-7.1,0.3l17.9,31.7L1049,151.2z" style="opacity: 0.7742; fill: rgb(63, 63, 63);" transform="matrix(1, 0, 0, 1, -952.3470458984375, -5.2040863037109375)"/><path class="st26" d="M1048.4,150.6c-1.5,1-4.7,6.5-8,12.5l-2.9-12.1c-10.7,18.1-16.9,39.6-16.9,62.6c0,12.3,1.8,23.4,5,33.3&#10;&#9;&#9;&#9;c0,0.1,0.1,0.2,0.1,0.2c5.4,16.2,14.7,29.4,26.9,39.5c-0.1,0-0.1,0-0.2-0.1c1.6,1.3,3.3,2.5,5,3.7c1.1,0.8,2.3,1.6,3.4,2.3&#10;&#9;&#9;&#9;c0,0,0,0,0,0c1.3,0.8,2.6,1.7,4,2.5c0,0,0,0,0,0c1.4,0.8,2.7,1.5,4.1,2.3c0,0,0,0,0.1,0c1.4,0.7,2.8,1.4,4.2,2.1c0,0,0.1,0,0.1,0&#10;&#9;&#9;&#9;c1.4,0.7,2.9,1.3,4.3,1.9c0,0,0.1,0,0.1,0.1c1.5,0.6,2.9,1.2,4.4,1.7c0.1,0,0.1,0,0.2,0.1c1.5,0.5,3,1,4.5,1.5&#10;&#9;&#9;&#9;c0.1,0,0.1,0,0.2,0.1c1.5,0.5,3,0.9,4.6,1.3c0.1,0,0.2,0,0.2,0.1c1.5,0.4,3.1,0.8,4.7,1.1c0.1,0,0.2,0,0.3,0.1&#10;&#9;&#9;&#9;c1.6,0.3,3.2,0.7,4.8,1c0.1,0,0.2,0,0.3,0c1.6,0.3,3.2,0.6,4.9,0.8c0.1,0,0.2,0,0.3,0c1.6,0.2,3.3,0.4,5,0.6c0.1,0,0.2,0,0.2,0&#10;&#9;&#9;&#9;c1.7,0.2,3.4,0.3,5.1,0.4c0.1,0,0.1,0,0.2,0c1.7,0.1,3.5,0.2,5.2,0.3c0,0,0.1,0,0.1,0c1.8,0.1,3.6,0.1,5.4,0.1&#10;&#9;&#9;&#9;c12.1,0,23.7-1.4,34.6-4.1c1.7-0.4,3.3-0.9,5-1.3c13.9-4.1,26.3-10.4,36.7-19.1c1.2-1,2.4-2.1,3.6-3.1c0.6-0.5,1.2-1.1,1.7-1.6&#10;&#9;&#9;&#9;c1.7-1.7,3.3-3.4,4.9-5.2c1-1.2,2-2.4,3-3.7c4.8-6.3,8.8-13.4,11.9-21.3c0.2-0.4,0.3-0.9,0.5-1.3l0,0v0c0.1-0.4,0.3-0.7,0.4-1.1&#10;&#9;&#9;&#9;c3-8.5,4.8-17.9,5.4-28.1c0,0,0,0,0,0l0,0c0.1-2.4,0.2-4.7,0.2-7.2l0,0l0,0c0-1.3,0-2.6-0.1-3.9c0-1.3-0.1-2.6-0.2-3.9&#10;&#9;&#9;&#9;c-0.2-2.6-0.4-5.1-0.7-7.6c-0.8-6.3-2-12.4-3.7-18.4c-1.3-4.8-2.9-9.4-4.8-13.9c-1.4-3.4-2.9-6.6-4.6-9.8l-0.4,0.4&#10;&#9;&#9;&#9;c-0.2-0.3-0.3-0.7-0.5-1c0,0-0.1,0.7-0.3,1.9l-5.8,6.6c-2.5-4.6-5-9-6.8-11.6c-0.7-0.9-1.3-1.6-1.7-1.9l14.9-26.4l17.9-31.7h0h0h0&#10;&#9;&#9;&#9;l-7.1-0.3c-12.8-0.5-25.6,0.7-38,3.8l0.6-32.4L1164.4,88c-8.5-13.3-22.3-32.2-36.9-41.6v0l0,0l0,0v0c-14.7,9.4-28.5,28.4-37,41.8&#10;&#9;&#9;&#9;L1060,63.6l0.6,32.3c-12.4-3-25.1-4.2-37.8-3.7l-7.1,0.3l17.9,31.7L1048.4,150.6z" style="opacity: 0.8065; fill: rgb(55, 55, 55);" transform="matrix(1, 0, 0, 1, -952.3470458984375, -5.2040863037109375)"/><path class="st27" d="M1047.8,149.9c-1.5,1-4.7,6.5-8,12.5l-2.9-12.1c-10.7,18.1-16.9,39.6-16.9,62.6c0,12.3,1.8,23.4,5,33.3&#10;&#9;&#9;&#9;c0,0.1,0.1,0.2,0.1,0.2c5.4,16.2,14.7,29.4,26.9,39.5c-0.1,0-0.1,0-0.2-0.1c1.6,1.3,3.3,2.5,5,3.7c1.1,0.8,2.3,1.6,3.4,2.3&#10;&#9;&#9;&#9;c0,0,0,0,0,0c1.3,0.8,2.6,1.7,4,2.5c0,0,0,0,0,0c1.4,0.8,2.7,1.5,4.1,2.3c0,0,0,0,0.1,0c1.4,0.7,2.8,1.4,4.2,2.1c0,0,0.1,0,0.1,0&#10;&#9;&#9;&#9;c1.4,0.7,2.9,1.3,4.3,1.9c0,0,0.1,0,0.1,0.1c1.5,0.6,2.9,1.2,4.4,1.7c0.1,0,0.1,0,0.2,0.1c1.5,0.5,3,1,4.5,1.5&#10;&#9;&#9;&#9;c0.1,0,0.1,0,0.2,0.1c1.5,0.5,3,0.9,4.6,1.3c0.1,0,0.2,0,0.2,0.1c1.5,0.4,3.1,0.8,4.7,1.1c0.1,0,0.2,0,0.3,0.1&#10;&#9;&#9;&#9;c1.6,0.3,3.2,0.7,4.8,1c0.1,0,0.2,0,0.3,0c1.6,0.3,3.2,0.6,4.9,0.8c0.1,0,0.2,0,0.3,0c1.6,0.2,3.3,0.4,5,0.6c0.1,0,0.2,0,0.2,0&#10;&#9;&#9;&#9;c1.7,0.2,3.4,0.3,5.1,0.4c0.1,0,0.1,0,0.2,0c1.7,0.1,3.5,0.2,5.2,0.3c0,0,0.1,0,0.1,0c1.8,0.1,3.6,0.1,5.4,0.1&#10;&#9;&#9;&#9;c12.1,0,23.7-1.4,34.6-4.1c1.7-0.4,3.3-0.9,5-1.3c13.9-4.1,26.3-10.4,36.7-19.1c1.2-1,2.4-2.1,3.6-3.1c0.6-0.5,1.2-1.1,1.7-1.6&#10;&#9;&#9;&#9;c1.7-1.7,3.3-3.4,4.9-5.2c1-1.2,2-2.4,3-3.7c4.8-6.3,8.8-13.4,11.9-21.3c0.2-0.4,0.3-0.9,0.5-1.3l0,0c0,0,0,0,0,0&#10;&#9;&#9;&#9;c0.1-0.4,0.3-0.7,0.4-1.1c3-8.5,4.8-17.9,5.4-28.1v0l0,0c0.1-2.4,0.2-4.7,0.2-7.2l0,0l0,0c0-1.3,0-2.6-0.1-3.9&#10;&#9;&#9;&#9;c0-1.3-0.1-2.6-0.2-3.9c-0.2-2.6-0.4-5.1-0.7-7.6c-0.8-6.3-2-12.4-3.7-18.4c-1.3-4.8-2.9-9.4-4.8-13.9c-1.4-3.4-2.9-6.6-4.6-9.8&#10;&#9;&#9;&#9;l-0.4,0.4c-0.2-0.3-0.3-0.7-0.5-1c0,0-0.1,0.7-0.3,1.9l-5.8,6.6c-2.5-4.6-5-9-6.8-11.6c-0.7-0.9-1.3-1.6-1.7-1.9l14.9-26.4&#10;&#9;&#9;&#9;l17.9-31.7h0h0h0l-7.1-0.3c-12.8-0.5-25.6,0.7-38,3.8l0.6-32.4l-30.4,24.4c-8.5-13.3-22.3-32.2-36.9-41.6v0l0,0l0,0v0&#10;&#9;&#9;&#9;c-14.7,9.4-28.5,28.4-37,41.8l-30.5-24.5l0.6,32.3c-12.4-3-25.1-4.2-37.8-3.7l-7.1,0.3l17.9,31.7L1047.8,149.9z" style="opacity: 0.8387; fill: rgb(47, 47, 47);" transform="matrix(1, 0, 0, 1, -952.3470458984375, -5.2040863037109375)"/><path class="st28" d="M1047.1,149.2c-1.5,1-4.7,6.5-8,12.5l-2.9-12.1c-10.7,18.1-16.9,39.6-16.9,62.6c0,12.3,1.8,23.4,5,33.3&#10;&#9;&#9;&#9;c0,0.1,0.1,0.2,0.1,0.2c5.4,16.2,14.7,29.4,26.9,39.5c-0.1,0-0.1,0-0.2-0.1c1.6,1.3,3.3,2.5,5,3.7c1.1,0.8,2.3,1.6,3.4,2.3&#10;&#9;&#9;&#9;c0,0,0,0,0,0c1.3,0.8,2.6,1.7,4,2.5c0,0,0,0,0,0c1.4,0.8,2.7,1.5,4.1,2.3c0,0,0,0,0.1,0c1.4,0.7,2.8,1.4,4.2,2.1c0,0,0.1,0,0.1,0&#10;&#9;&#9;&#9;c1.4,0.7,2.9,1.3,4.3,1.9c0,0,0.1,0,0.1,0.1c1.5,0.6,2.9,1.2,4.4,1.7c0.1,0,0.1,0,0.2,0.1c1.5,0.5,3,1,4.5,1.5&#10;&#9;&#9;&#9;c0.1,0,0.1,0,0.2,0.1c1.5,0.5,3,0.9,4.6,1.3c0.1,0,0.2,0,0.2,0.1c1.5,0.4,3.1,0.8,4.7,1.1c0.1,0,0.2,0,0.3,0.1&#10;&#9;&#9;&#9;c1.6,0.3,3.2,0.7,4.8,1c0.1,0,0.2,0,0.3,0c1.6,0.3,3.2,0.6,4.9,0.8c0.1,0,0.2,0,0.3,0c1.6,0.2,3.3,0.4,5,0.6c0.1,0,0.2,0,0.2,0&#10;&#9;&#9;&#9;c1.7,0.2,3.4,0.3,5.1,0.4c0.1,0,0.1,0,0.2,0c1.7,0.1,3.5,0.2,5.2,0.3c0,0,0.1,0,0.1,0c1.8,0.1,3.6,0.1,5.4,0.1&#10;&#9;&#9;&#9;c12.1,0,23.7-1.4,34.6-4.1c1.7-0.4,3.3-0.9,5-1.3c13.9-4.1,26.3-10.4,36.7-19.1c1.2-1,2.4-2.1,3.6-3.1c0.6-0.5,1.2-1.1,1.7-1.6&#10;&#9;&#9;&#9;c1.7-1.7,3.3-3.4,4.9-5.2c1-1.2,2-2.4,3-3.7c4.8-6.3,8.8-13.4,11.9-21.3c0.2-0.4,0.3-0.9,0.5-1.3l0,0c0,0,0,0,0,0&#10;&#9;&#9;&#9;c0.1-0.4,0.3-0.7,0.4-1.1c3-8.5,4.8-17.9,5.4-28.1c0,0,0,0,0,0v0c0.1-2.4,0.2-4.7,0.2-7.2l0,0l0,0c0-1.3,0-2.6-0.1-3.9&#10;&#9;&#9;&#9;c0-1.3-0.1-2.6-0.2-3.9c-0.2-2.6-0.4-5.1-0.7-7.6c-0.8-6.3-2-12.4-3.7-18.4c-1.3-4.8-2.9-9.4-4.8-13.9c-1.4-3.4-2.9-6.6-4.6-9.8&#10;&#9;&#9;&#9;l-0.4,0.4c-0.2-0.3-0.3-0.7-0.5-1c0,0-0.1,0.7-0.3,1.9l-5.8,6.6c-2.5-4.6-5-9-6.8-11.6c-0.7-0.9-1.3-1.6-1.7-1.9l14.9-26.4&#10;&#9;&#9;&#9;l17.9-31.7h0l0,0l0,0l-7.1-0.3c-12.8-0.5-25.6,0.7-38,3.8l0.6-32.4l-30.4,24.4c-8.5-13.3-22.3-32.2-36.9-41.6v0l0,0l0,0v0&#10;&#9;&#9;&#9;c-14.7,9.4-28.5,28.4-37,41.8l-30.5-24.5l0.6,32.3c-12.4-3-25.1-4.2-37.8-3.7l-7.1,0.3l17.9,31.7L1047.1,149.2z" style="opacity: 0.871; fill: rgb(39, 39, 39);" transform="matrix(1, 0, 0, 1, -952.3470458984375, -5.2040863037109375)"/><path class="st29" d="M1046.5,148.5c-1.5,1-4.7,6.5-8,12.5l-2.9-12.1c-10.7,18.1-16.9,39.6-16.9,62.6c0,12.3,1.8,23.4,5,33.3&#10;&#9;&#9;&#9;c0,0.1,0.1,0.2,0.1,0.2c5.4,16.2,14.7,29.4,26.9,39.5c-0.1,0-0.1,0-0.2-0.1c1.6,1.3,3.3,2.5,5,3.7c1.1,0.8,2.3,1.6,3.4,2.3&#10;&#9;&#9;&#9;c0,0,0,0,0,0c1.3,0.8,2.6,1.7,4,2.5c0,0,0,0,0,0c1.4,0.8,2.7,1.5,4.1,2.3c0,0,0,0,0.1,0c1.4,0.7,2.8,1.4,4.2,2.1c0,0,0.1,0,0.1,0&#10;&#9;&#9;&#9;c1.4,0.7,2.9,1.3,4.3,1.9c0,0,0.1,0,0.1,0.1c1.5,0.6,2.9,1.2,4.4,1.7c0.1,0,0.1,0,0.2,0.1c1.5,0.5,3,1,4.5,1.5&#10;&#9;&#9;&#9;c0.1,0,0.1,0,0.2,0.1c1.5,0.5,3,0.9,4.6,1.3c0.1,0,0.2,0,0.2,0.1c1.5,0.4,3.1,0.8,4.7,1.1c0.1,0,0.2,0,0.3,0.1&#10;&#9;&#9;&#9;c1.6,0.3,3.2,0.7,4.8,1c0.1,0,0.2,0,0.3,0c1.6,0.3,3.2,0.6,4.9,0.8c0.1,0,0.2,0,0.3,0c1.6,0.2,3.3,0.4,5,0.6c0.1,0,0.2,0,0.2,0&#10;&#9;&#9;&#9;c1.7,0.2,3.4,0.3,5.1,0.4c0.1,0,0.1,0,0.2,0c1.7,0.1,3.5,0.2,5.2,0.3c0,0,0.1,0,0.1,0c1.8,0.1,3.6,0.1,5.4,0.1&#10;&#9;&#9;&#9;c12.1,0,23.7-1.4,34.6-4.1c1.7-0.4,3.3-0.9,5-1.3c13.9-4.1,26.3-10.4,36.7-19.1c1.2-1,2.4-2.1,3.6-3.1c0.6-0.5,1.2-1.1,1.7-1.6&#10;&#9;&#9;&#9;c1.7-1.7,3.3-3.4,4.9-5.2c1-1.2,2-2.4,3-3.7c4.8-6.3,8.8-13.4,11.9-21.3c0.2-0.4,0.3-0.9,0.5-1.3l0,0l0,0c0.1-0.4,0.3-0.7,0.4-1.1&#10;&#9;&#9;&#9;c3-8.5,4.8-17.9,5.4-28.1c0,0,0,0,0,0l0,0c0.1-2.4,0.2-4.7,0.2-7.2l0,0l0,0c0-1.3,0-2.6-0.1-3.9c0-1.3-0.1-2.6-0.2-3.9&#10;&#9;&#9;&#9;c-0.2-2.6-0.4-5.1-0.7-7.6c-0.8-6.3-2-12.4-3.7-18.4c-1.3-4.8-2.9-9.4-4.8-13.9c-1.4-3.4-2.9-6.6-4.6-9.8l-0.4,0.4&#10;&#9;&#9;&#9;c-0.2-0.3-0.3-0.7-0.5-1c0,0-0.1,0.7-0.3,1.9l-5.8,6.6c-2.5-4.6-5-9-6.8-11.6c-0.7-0.9-1.3-1.6-1.7-1.9l14.9-26.4l17.9-31.7h0h0h0&#10;&#9;&#9;&#9;l-7.1-0.3c-12.8-0.5-25.6,0.7-38,3.8l0.6-32.4l-30.4,24.4c-8.5-13.3-22.3-32.2-36.9-41.6v0l0,0l0,0v0c-14.7,9.4-28.5,28.4-37,41.8&#10;&#9;&#9;&#9;l-30.5-24.5l0.6,32.3c-12.4-3-25.1-4.2-37.8-3.7l-7.1,0.3l17.9,31.7L1046.5,148.5z" style="opacity: 0.9032; fill: rgb(31, 31, 31);" transform="matrix(1, 0, 0, 1, -952.3470458984375, -5.2040863037109375)"/><path class="st30" d="M1045.9,147.9c-1.5,1-4.7,6.5-8,12.5l-2.9-12.1c-10.7,18.1-16.9,39.6-16.9,62.6c0,12.3,1.8,23.4,5,33.3&#10;&#9;&#9;&#9;c0,0.1,0.1,0.2,0.1,0.2c5.4,16.2,14.7,29.4,26.9,39.5c-0.1,0-0.1,0-0.2-0.1c1.6,1.3,3.3,2.5,5,3.7c1.1,0.8,2.3,1.6,3.4,2.3&#10;&#9;&#9;&#9;c0,0,0,0,0,0c1.3,0.8,2.6,1.7,4,2.5c0,0,0,0,0,0c1.4,0.8,2.7,1.5,4.1,2.3c0,0,0,0,0.1,0c1.4,0.7,2.8,1.4,4.2,2.1c0,0,0.1,0,0.1,0&#10;&#9;&#9;&#9;c1.4,0.7,2.9,1.3,4.3,1.9c0,0,0.1,0,0.1,0.1c1.5,0.6,2.9,1.2,4.4,1.7c0.1,0,0.1,0,0.2,0.1c1.5,0.5,3,1,4.5,1.5&#10;&#9;&#9;&#9;c0.1,0,0.1,0,0.2,0.1c1.5,0.5,3,0.9,4.6,1.3c0.1,0,0.2,0,0.2,0.1c1.5,0.4,3.1,0.8,4.7,1.1c0.1,0,0.2,0,0.3,0.1&#10;&#9;&#9;&#9;c1.6,0.3,3.2,0.7,4.8,1c0.1,0,0.2,0,0.3,0c1.6,0.3,3.2,0.6,4.9,0.8c0.1,0,0.2,0,0.3,0c1.6,0.2,3.3,0.4,5,0.6c0.1,0,0.2,0,0.2,0&#10;&#9;&#9;&#9;c1.7,0.2,3.4,0.3,5.1,0.4c0.1,0,0.1,0,0.2,0c1.7,0.1,3.5,0.2,5.2,0.3c0,0,0.1,0,0.1,0c1.8,0.1,3.6,0.1,5.4,0.1&#10;&#9;&#9;&#9;c12.1,0,23.7-1.4,34.6-4.1c1.7-0.4,3.3-0.9,5-1.3c13.9-4.1,26.3-10.4,36.7-19.1c1.2-1,2.4-2.1,3.6-3.1c0.6-0.5,1.2-1.1,1.7-1.6&#10;&#9;&#9;&#9;c1.7-1.7,3.3-3.4,4.9-5.2c1-1.2,2-2.4,3-3.7c4.8-6.3,8.8-13.4,11.9-21.3c0.2-0.4,0.3-0.9,0.5-1.3l0,0c0,0,0,0,0,0&#10;&#9;&#9;&#9;c0.1-0.4,0.3-0.7,0.4-1.1c3-8.5,4.8-17.9,5.4-28.1c0,0,0,0,0,0v0c0.1-2.4,0.2-4.7,0.2-7.2l0,0l0,0c0-1.3,0-2.6-0.1-3.9&#10;&#9;&#9;&#9;c0-1.3-0.1-2.6-0.2-3.9c-0.2-2.6-0.4-5.1-0.7-7.6c-0.8-6.3-2-12.4-3.7-18.4c-1.3-4.8-2.9-9.4-4.8-13.9c-1.4-3.4-2.9-6.6-4.6-9.8&#10;&#9;&#9;&#9;l-0.4,0.4c-0.2-0.3-0.3-0.7-0.5-1c0,0-0.1,0.7-0.3,1.9l-5.8,6.6c-2.5-4.6-5-9-6.8-11.6c-0.7-0.9-1.3-1.6-1.7-1.9l14.9-26.4&#10;&#9;&#9;&#9;l17.9-31.7h0h0h0l-7.1-0.3c-12.8-0.5-25.6,0.7-38,3.8l0.6-32.4l-30.4,24.4c-8.5-13.3-22.3-32.2-36.9-41.6v0l0,0l0,0v0&#10;&#9;&#9;&#9;c-14.7,9.4-28.5,28.4-37,41.8l-30.5-24.5l0.6,32.3c-12.4-3-25.1-4.2-37.8-3.7l-7.1,0.3l17.9,31.7L1045.9,147.9z" style="opacity: 0.9355; fill: rgb(23, 23, 23);" transform="matrix(1, 0, 0, 1, -952.3470458984375, -5.2040863037109375)"/><path class="st31" d="M1045.3,147.2c-1.5,1-4.7,6.5-8,12.5l-2.9-12.1c-10.7,18.1-16.9,39.6-16.9,62.6c0,12.3,1.8,23.4,5,33.3&#10;&#9;&#9;&#9;c0,0.1,0.1,0.2,0.1,0.2c5.4,16.2,14.7,29.4,26.9,39.5c-0.1,0-0.1,0-0.2-0.1c1.6,1.3,3.3,2.5,5,3.7c1.1,0.8,2.3,1.6,3.4,2.3&#10;&#9;&#9;&#9;c0,0,0,0,0,0c1.3,0.8,2.6,1.7,4,2.5c0,0,0,0,0,0c1.4,0.8,2.7,1.5,4.1,2.3c0,0,0,0,0.1,0c1.4,0.7,2.8,1.4,4.2,2.1c0,0,0.1,0,0.1,0&#10;&#9;&#9;&#9;c1.4,0.7,2.9,1.3,4.3,1.9c0,0,0.1,0,0.1,0.1c1.5,0.6,2.9,1.2,4.4,1.7c0.1,0,0.1,0,0.2,0.1c1.5,0.5,3,1,4.5,1.5&#10;&#9;&#9;&#9;c0.1,0,0.1,0,0.2,0.1c1.5,0.5,3,0.9,4.6,1.3c0.1,0,0.2,0,0.2,0.1c1.5,0.4,3.1,0.8,4.7,1.1c0.1,0,0.2,0,0.3,0.1&#10;&#9;&#9;&#9;c1.6,0.3,3.2,0.7,4.8,1c0.1,0,0.2,0,0.3,0c1.6,0.3,3.2,0.6,4.9,0.8c0.1,0,0.2,0,0.3,0c1.6,0.2,3.3,0.4,5,0.6c0.1,0,0.2,0,0.2,0&#10;&#9;&#9;&#9;c1.7,0.2,3.4,0.3,5.1,0.4c0.1,0,0.1,0,0.2,0c1.7,0.1,3.5,0.2,5.2,0.3c0,0,0.1,0,0.1,0c1.8,0.1,3.6,0.1,5.4,0.1&#10;&#9;&#9;&#9;c12.1,0,23.7-1.4,34.6-4.1c1.7-0.4,3.3-0.9,5-1.3c13.9-4.1,26.3-10.4,36.7-19.1c1.2-1,2.4-2.1,3.6-3.1c0.6-0.5,1.2-1.1,1.7-1.6&#10;&#9;&#9;&#9;c1.7-1.7,3.3-3.4,4.9-5.2c1-1.2,2-2.4,3-3.7c4.8-6.3,8.8-13.4,11.9-21.3c0.2-0.4,0.3-0.9,0.5-1.3l0,0l0,0c0.1-0.4,0.3-0.7,0.4-1.1&#10;&#9;&#9;&#9;c3-8.5,4.8-17.9,5.4-28.1c0,0,0,0,0,0l0,0c0.1-2.4,0.2-4.7,0.2-7.2l0,0l0,0c0-1.3,0-2.6-0.1-3.9c0-1.3-0.1-2.6-0.2-3.9&#10;&#9;&#9;&#9;c-0.2-2.6-0.4-5.1-0.7-7.6c-0.8-6.3-2-12.4-3.7-18.4c-1.3-4.8-2.9-9.4-4.8-13.9c-1.4-3.4-2.9-6.6-4.6-9.8l-0.4,0.4&#10;&#9;&#9;&#9;c-0.2-0.3-0.3-0.7-0.5-1c0,0-0.1,0.7-0.3,1.9l-5.8,6.6c-2.5-4.6-5-9-6.8-11.6c-0.7-0.9-1.3-1.6-1.7-1.9l14.9-26.4l17.9-31.7h0h0h0&#10;&#9;&#9;&#9;l-7.1-0.3c-12.8-0.5-25.6,0.7-38,3.8l0.6-32.4l-30.4,24.4c-8.5-13.3-22.3-32.2-36.9-41.6v0l0,0l0,0v0c-14.7,9.4-28.5,28.4-37,41.8&#10;&#9;&#9;&#9;l-30.5-24.5l0.6,32.3c-12.4-3-25.1-4.2-37.8-3.7l-7.1,0.3l17.9,31.7L1045.3,147.2z" style="opacity: 0.9677; fill: rgb(15, 15, 15);" transform="matrix(1, 0, 0, 1, -952.3470458984375, -5.2040863037109375)"/><path class="st32" d="M1044.6,146.5c-1.5,1-4.7,6.5-8,12.5l-2.9-12.1c-10.7,18.1-16.9,39.6-16.9,62.6c0,12.3,1.8,23.4,5,33.3&#10;&#9;&#9;&#9;c0,0.1,0.1,0.2,0.1,0.2c5.4,16.2,14.7,29.4,26.9,39.5c-0.1,0-0.1,0-0.2-0.1c1.6,1.3,3.3,2.5,5,3.7c1.1,0.8,2.3,1.6,3.4,2.3&#10;&#9;&#9;&#9;c0,0,0,0,0,0c1.3,0.9,2.6,1.7,4,2.5c0,0,0,0,0,0c1.4,0.8,2.7,1.5,4.1,2.3c0,0,0,0,0.1,0c1.4,0.7,2.8,1.4,4.2,2.1c0,0,0.1,0,0.1,0&#10;&#9;&#9;&#9;c1.4,0.7,2.9,1.3,4.3,1.9c0,0,0.1,0,0.1,0.1c1.5,0.6,2.9,1.2,4.4,1.7c0.1,0,0.1,0,0.2,0.1c1.5,0.5,3,1,4.5,1.5&#10;&#9;&#9;&#9;c0.1,0,0.1,0,0.2,0.1c1.5,0.5,3,0.9,4.6,1.3c0.1,0,0.2,0,0.2,0.1c1.5,0.4,3.1,0.8,4.7,1.1c0.1,0,0.2,0,0.3,0.1&#10;&#9;&#9;&#9;c1.6,0.3,3.2,0.7,4.8,1c0.1,0,0.2,0,0.3,0c1.6,0.3,3.2,0.6,4.9,0.8c0.1,0,0.2,0,0.3,0c1.6,0.2,3.3,0.4,5,0.6c0.1,0,0.2,0,0.2,0&#10;&#9;&#9;&#9;c1.7,0.2,3.4,0.3,5.1,0.4c0.1,0,0.1,0,0.2,0c1.7,0.1,3.5,0.2,5.2,0.3c0,0,0.1,0,0.1,0c1.8,0.1,3.6,0.1,5.4,0.1&#10;&#9;&#9;&#9;c12.1,0,23.7-1.4,34.6-4.1c1.7-0.4,3.3-0.9,5-1.3c13.9-4.1,26.3-10.4,36.7-19.1c1.2-1,2.4-2.1,3.6-3.1c0.6-0.5,1.2-1.1,1.7-1.6&#10;&#9;&#9;&#9;c1.7-1.7,3.3-3.4,4.9-5.2c1-1.2,2-2.4,3-3.7c4.8-6.3,8.8-13.4,11.9-21.3c0.2-0.4,0.3-0.9,0.5-1.3l0,0l0,0c0.1-0.4,0.3-0.7,0.4-1.1&#10;&#9;&#9;&#9;c3-8.5,4.8-17.9,5.4-28.1v0l0,0c0.1-2.4,0.2-4.7,0.2-7.2l0,0l0,0c0-1.3,0-2.6-0.1-3.9c0-1.3-0.1-2.6-0.2-3.9&#10;&#9;&#9;&#9;c-0.2-2.6-0.4-5.1-0.7-7.6c-0.8-6.3-2-12.4-3.7-18.4c-1.3-4.8-2.9-9.4-4.8-13.9c-1.4-3.4-2.9-6.6-4.6-9.8l-0.4,0.4&#10;&#9;&#9;&#9;c-0.2-0.3-0.3-0.7-0.5-1c0,0-0.1,0.7-0.3,1.9l-5.8,6.6c-2.5-4.6-5-9-6.8-11.6c-0.7-0.9-1.3-1.6-1.7-1.9l14.9-26.4l17.9-31.7h0h0h0&#10;&#9;&#9;&#9;l-7.1-0.3c-12.8-0.5-25.6,0.7-38,3.8l0.6-32.4l-30.4,24.4c-8.5-13.3-22.3-32.2-36.9-41.6v0l0,0l0,0v0c-14.7,9.4-28.5,28.4-37,41.8&#10;&#9;&#9;&#9;l-30.5-24.5l0.6,32.3c-12.4-3-25.1-4.2-37.8-3.7l-7.1,0.3l17.9,31.7L1044.6,146.5z" style="fill: rgb(7, 7, 7); opacity: 0.45;" transform="matrix(1, 0, 0, 1, -952.3470458984375, -5.2040863037109375)"/><path d="M 1057.0999755859375 112.4000015258789 L 1056.199951171875 59.5 L 1101.5999755859375 95.9000015258789 L 1074.4000244140625 123.69999694824219 Z" class="st58" style="opacity: 0.63; fill: rgb(211, 199, 108);" transform="matrix(1, 0, 0, 1, -952.3470458984375, -5.2040863037109375)"/><path d="M 1190.0999755859375 112.4000015258789 L 1191 59.5 L 1145.699951171875 95.9000015258789 L 1172.800048828125 123.69999694824219 Z" class="st58" style="opacity: 0.63; fill: rgb(211, 199, 108);" transform="matrix(1, 0, 0, 1, -952.3470458984375, -5.2040863037109375)"/><path class="st59" d="M1202.9,146.5l14.9-26.4l17.9-31.7l-7.1-0.3c-20.1-0.9-40.1,2.8-59,10.6l0,0c0,0-21.7-41.1-45.7-56.5v0l0,0&#10;&#9;&#9;&#9;l0,0v0c-24,15.4-45.7,56.5-45.7,56.5h0c-18.9-7.9-39-11.5-59-10.6l-7.1,0.3l17.9,31.7l14.9,26.4c-3.4,2.4-16.4,28.6-16.4,28.6&#10;&#9;&#9;&#9;l95.5,55.2v0l0,0l0,0v0l95.5-55.2C1219.2,175.1,1206.3,148.9,1202.9,146.5z" style="fill: rgb(244, 233, 130);" transform="matrix(1, 0, 0, 1, -952.3470458984375, -5.2040863037109375)"/><path class="st58" d="M1235.6,88.4c0,0-43.7,39.7-49.5,54.9c-2.5,6.6,5.9,24,16.3,41.5l16.8-9.7c0,0-13-26.3-16.4-28.6l14.9-26.4&#10;&#9;&#9;&#9;L1235.6,88.4z" style="opacity: 0.63; fill: rgb(211, 199, 108);" transform="matrix(1, 0, 0, 1, -952.3470458984375, -5.2040863037109375)"/><path d="M 1102.4 133.399994 A 13.4 13.4 0 0 1 1089 146.799994 A 13.4 13.4 0 0 1 1075.6 133.399994 A 13.4 13.4 0 0 1 1089 119.999994 A 13.4 13.4 0 0 1 1102.4 133.399994 Z" class="st36" style="fill: rgb(22, 13, 16);" transform="matrix(1, 0, 0, 1, -952.3470458984376, -5.2040863037109375)"/><path d="M 1096.299951 132.199997 A 5.1 5.1 0 0 1 1091.199951 137.299997 A 5.1 5.1 0 0 1 1086.099951 132.199997 A 5.1 5.1 0 0 1 1091.199951 127.099997 A 5.1 5.1 0 0 1 1096.299951 132.199997 Z" class="st33" style="fill: rgb(255, 255, 255);" transform="matrix(1, 0, 0, 1, -952.3470458984376, -5.2040863037109375)"/><path d="M 1171.9 133.399994 A 13.4 13.4 0 0 1 1158.5 146.799994 A 13.4 13.4 0 0 1 1145.1 133.399994 A 13.4 13.4 0 0 1 1158.5 119.999994 A 13.4 13.4 0 0 1 1171.9 133.399994 Z" class="st36" style="fill: rgb(22, 13, 16);" transform="matrix(1, 0, 0, 1, -952.3470458984376, -5.2040863037109375)"/><path d="M 1161.400049 132.199997 A 5.1 5.1 0 0 1 1156.300049 137.299997 A 5.1 5.1 0 0 1 1151.200049 132.199997 A 5.1 5.1 0 0 1 1156.300049 127.099997 A 5.1 5.1 0 0 1 1161.400049 132.199997 Z" class="st33" style="fill: rgb(255, 255, 255);" transform="matrix(1, 0, 0, 1, -952.3470458984376, -5.2040863037109375)"/><path class="st60" d="M1124.6,306.7c59.5,0,107.8-32.9,107.8-97.2c0-20.9-5.1-40.5-14-57.5l-20.8,23.5l-21.2-23.8l-26.9,35.4&#10;&#9;&#9;&#9;l-19.4-15.9l-12.1,16.3l-11.4-12.3l-15.5,19l-25.6-40.2l-25.8,17.4l-5.9-24.7c-10.7,18.1-16.9,39.6-16.9,62.6&#10;&#9;&#9;&#9;C1016.9,273.8,1065.1,306.7,1124.6,306.7z" style="fill: rgb(244, 242, 242);" transform="matrix(1, 0, 0, 1, -952.3470458984375, -5.2040863037109375)"/><path class="st50" d="M1218.4,152.1c0,0-20.4,166.7-168.9,131c19.4,15.7,45.9,23.6,75.1,23.6c59.5,0,107.8-32.9,107.8-97.2&#10;&#9;&#9;&#9;C1232.4,188.6,1227.3,169,1218.4,152.1z" style="fill: rgb(232, 218, 218);" transform="matrix(1, 0, 0, 1, -952.3470458984375, -5.2040863037109375)"/><path class="st50" d="M1217.5,151.5c0,0-20.4,166.7-168.9,131c19.4,15.7,45.9,23.6,75.1,23.6c59.5,0,107.8-32.9,107.8-97.2&#10;&#9;&#9;&#9;C1231.5,188.1,1226.4,168.5,1217.5,151.5z" style="fill: rgb(232, 218, 218);" transform="matrix(1, 0, 0, 1, -952.3470458984375, -5.2040863037109375)"/><path class="st35" d="M1109.9,148.8c0.3,9.9,6,17.8,13,17.8s12.7-7.9,13-17.8H1109.9z" style="fill: rgb(242, 53, 26);" transform="matrix(1, 0, 0, 1, -952.3470458984375, -5.2040863037109375)"/><path class="st61" d="M1168.2,230.6l-26.3,54l50.4-13.6L1168.2,230.6z M1168.9,247.9l10.7,17.9l-22.3,6L1168.9,247.9z" style="fill: rgb(111, 140, 244);" transform="matrix(1, 0, 0, 1, -952.3470458984375, -5.2040863037109375)"/><path class="st35" d="M1084.6,205.8l32.1,47.9l16.9-25.7L1084.6,205.8z M1116.6,244.6l-18.2-27.2l27.9,12.6L1116.6,244.6z" style="fill: rgb(242, 53, 26);" transform="matrix(1, 0, 0, 1, -952.3470458984375, -5.2040863037109375)"/><path d="M 1056.5 179.5 L 1036.0999755859375 192.3000030517578 L 1054.199951171875 195.1999969482422 Z" class="st35" style="fill: rgb(242, 53, 26);" transform="matrix(1, 0, 0, 1, -952.3470458984375, -5.2040863037109375)"/><path class="st61" d="M1054.6,209.3l-33.6,30.6c0.6,2.1,1.3,4.1,2,6l45.6,4.5L1054.6,209.3z M1051.6,221l7.4,21.9l-28.4-2.8&#10;&#9;&#9;&#9;L1051.6,221z" style="fill: rgb(111, 140, 244);" transform="matrix(1, 0, 0, 1, -952.3470458984375, -5.2040863037109375)"/><path d="M 1182.699951171875 158.89999389648438 L 1171.4000244140625 195 L 1161.4000244140625 171.60000610351562 L 1157.699951171875 176.5 L 1172.0999755859375 208.6999969482422 L 1186.9000244140625 163.6999969482422 Z" class="st61" style="fill: rgb(111, 140, 244);" transform="matrix(1, 0, 0, 1, -952.3470458984375, -5.2040863037109375)"/><path class="st35" d="M1207.1,207.1l19.2,38.8c3.2-8.8,5.2-18.5,5.8-29.2L1207.1,207.1z" style="fill: rgb(242, 53, 26);" transform="matrix(1, 0, 0, 1, -952.3470458984375, -5.2040863037109375)"/>
</svg>