<svg id="Untitled_3_" data-name="Untitled (3)" xmlns="http://www.w3.org/2000/svg" width="350" height="350" viewBox="0 0 350 350">
  <rect id="ee-background" width="350" height="350" fill="none"/>
  <path id="Path_1" data-name="Path 1" d="M639.2,210c-30.3,1.8-41,37.4-41,37.6-2.6,6.3-5.4,17.9-6.9,24.8-13.8-28.6-40.9-57.1-94-60.4-77.2,4.9-99.2,63.1-105.5,97.4-4,22-2.8,44.1,3.7,63.9,9.9,30.6,28.1,47.8,46.4,57.4-9.4,2.5-29.1,10-32.7,30-.1.4-1.7,8.9,3.7,15.1,3.4,3.8,8.7,5.8,15.8,5.8,1.1,0,2.1,0,3.3-.1.4,0,38.2-3.2,47.8-39.5a92.678,92.678,0,0,0,17.9.4,60.282,60.282,0,0,0,6.1.2,90.075,90.075,0,0,0,11.7-.7c9.5,36.3,47.4,39.4,47.7,39.5,1.1.1,2.2.1,3.3.1,7.1,0,12.4-1.9,15.8-5.8,5.4-6.1,3.7-14.7,3.7-15-3.6-20-23.3-27.5-32.7-30,18.3-9.6,36.5-26.8,46.4-57.4a127.937,127.937,0,0,0,5.2-52.9c40.8-17.7,65.3-37.1,72.8-57.7,3.8-10.6,3.1-21.2-2.2-31.6C668.3,217.4,654.2,209.1,639.2,210Z" transform="translate(-341.735 -156.122)"/>
  <g id="Group_1" data-name="Group 1" transform="translate(-341.735 -156.122)">
    <path id="Path_2" data-name="Path 2" d="M594.1,304c-6.6-36-29-91.2-103.9-95.9-74.9,4.7-97.3,59.9-103.9,95.9-3.9,21-3,42.7,3.6,63,24.7,76.2,100.2,67.8,100.2,67.8s75.6,8.4,100.2-67.8C597,346.8,597.9,325,594.1,304Z"/>
    <path id="Path_3" data-name="Path 3" d="M496.3,436.9c-3.3,0-5.5-.2-6.1-.2-4.4.4-77.8,5.8-102-69a132.017,132.017,0,0,1-3.7-63.9c6.3-34.3,28.4-92.5,105.5-97.4,77.4,4.9,99.5,63.1,105.8,97.4h0c4,22,2.8,44.1-3.7,63.9C571.5,431.3,515.3,436.9,496.3,436.9ZM490.1,210c-74.4,4.7-95.8,61.2-101.9,94.4-3.9,21.4-2.7,42.9,3.6,62.2,23.9,73.8,97.6,66.6,98.3,66.5h.4c.7.1,74.4,7.3,98.3-66.5,6.3-19.3,7.5-40.8,3.6-62.2h0C586.1,271.1,564.8,214.7,490.1,210Z"/>
  </g>
  <path id="Path_4" data-name="Path 4" d="M439.9,425.8s-31.7,4.3-36.2,29.6c0,0-4.2,20.4,20.8,18.5,0,0,37.8-2.7,46.5-39.5C471,434.3,450,431.2,439.9,425.8Z" transform="translate(-341.735 -156.122)"/>
  <path id="Path_5" data-name="Path 5" d="M421.3,475.8c-7.1,0-12.4-1.9-15.8-5.8-5.4-6.1-3.7-14.7-3.7-15.1,4.7-26.3,37.4-31,37.7-31a1.389,1.389,0,0,1,1.1.2c9.7,5.2,30.3,8.4,30.5,8.4a1.909,1.909,0,0,1,1.5,2.2c-8.9,37.7-47.8,40.9-48.1,40.9A16.677,16.677,0,0,1,421.3,475.8Zm18.2-48.1c-4.2.7-30.2,6.1-34.1,28,0,.1-1.4,7.2,2.8,12,3.1,3.5,8.5,5,16,4.4,1.5-.1,35.3-3,44.4-36.2C463.3,434.9,448.2,432.1,439.5,427.7Z" transform="translate(-341.735 -156.122)"/>
  <path id="Path_6" data-name="Path 6" d="M443.7,246.8s-32.6,10.6-32.5,45.3c0,0,.4,12.8,11,17,0,0,17,9.4,30.8-22.5a55.571,55.571,0,0,0,2.9-9C458.1,266.8,461.8,241.4,443.7,246.8Z" transform="translate(-341.735 -156.122)"/>
  <path id="Path_7" data-name="Path 7" d="M428.2,312.2a15.277,15.277,0,0,1-6.9-1.5c-11.4-4.4-11.9-18-11.9-18.6-.1-35.7,33.4-47,33.8-47.1h0c5.1-1.5,9.1-.9,11.9,1.7,6.3,5.9,4.8,20.2,2.5,31.3a50.45,50.45,0,0,1-3,9.3C449,300.4,442,308.5,434,311.2A16.091,16.091,0,0,1,428.2,312.2Zm16.1-63.7c-1.6.5-31.3,10.8-31.2,43.6,0,.1.5,11.6,9.8,15.3a12.857,12.857,0,0,0,10.1.3c6.9-2.4,13.2-10,18.3-21.9a53.935,53.935,0,0,0,2.8-8.6c3-13.9,2.5-24.3-1.4-27.8Q449.85,246.85,444.3,248.5Z" transform="translate(-341.735 -156.122)"/>
  <path id="Path_8" data-name="Path 8" d="M424.1,269.5c-3.2,7.3-6,17.4-1.4,23.8,0,0,11.1,12.3,23.2-4.3a29.818,29.818,0,0,0,3.5-6.3c2-4.8,5-13.8,3.8-21.8a9.331,9.331,0,0,0-11.8-7.4c-.1,0-.2.1-.3.1C433.4,256,427.4,262,424.1,269.5Z" transform="translate(-341.735 -156.122)"/>
  <path id="Path_9" data-name="Path 9" d="M450.2,267c0,3.7-4.029,6.7-9,6.7s-9-3-9-6.7,4.029-6.7,9-6.7S450.2,263.3,450.2,267Z" transform="matrix(0.5, -0.866, 0.866, 0.5, -352.41, 359.482)"/>
  <path id="Path_10" data-name="Path 10" d="M563.1,370c0,32.916-32.638,59.6-72.9,59.6s-72.9-26.684-72.9-59.6,32.638-59.6,72.9-59.6,72.9,26.684,72.9,59.6Z" transform="translate(-341.735 -156.122)"/>
  <path id="Path_11" data-name="Path 11" d="M490.2,431.4c-41.2,0-74.7-27.5-74.7-61.4s33.5-61.4,74.7-61.4,74.7,27.5,74.7,61.4C564.9,403.8,531.4,431.4,490.2,431.4Zm0-119.2c-39.2,0-71.1,25.9-71.1,57.7s31.9,57.7,71.1,57.7,71.1-25.9,71.1-57.7S529.4,312.2,490.2,312.2Z" transform="translate(-341.735 -156.122)"/>
  <path id="Path_12" data-name="Path 12" d="M540.5,425.8s31.7,4.3,36.2,29.6c0,0,4.2,20.4-20.8,18.5,0,0-37.8-2.7-46.5-39.5C509.4,434.3,530.4,431.2,540.5,425.8Z" transform="translate(-341.735 -156.122)"/>
  <path id="Path_13" data-name="Path 13" d="M559.1,475.8c-1.1,0-2.1,0-3.3-.1-.4,0-39.3-3.3-48.1-40.9a1.735,1.735,0,0,1,.3-1.4,1.99,1.99,0,0,1,1.2-.8c.2,0,20.8-3.2,30.5-8.4a1.389,1.389,0,0,1,1.1-.2c.3,0,33,4.8,37.7,31.1.1.3,1.7,8.9-3.7,15C571.5,473.9,566.2,475.8,559.1,475.8Zm-47.4-40c9,33.2,42.9,36.1,44.4,36.2,7.6.6,12.9-.9,16-4.4,4.2-4.8,2.8-11.8,2.8-11.9-3.9-22-29.9-27.3-34.1-28.1C532.2,432.1,517.1,434.9,511.7,435.8Z" transform="translate(-341.735 -156.122)"/>
  <path id="Path_14" data-name="Path 14" d="M536.7,246.8s32.6,10.6,32.5,45.3c0,0-.4,12.8-11,17,0,0-17,9.4-30.8-22.5a55.575,55.575,0,0,1-2.9-9C522.3,266.8,518.6,241.4,536.7,246.8Z" transform="translate(-341.735 -156.122)"/>
  <path id="Path_15" data-name="Path 15" d="M552.2,312.3a19.678,19.678,0,0,1-5.9-1c-8-2.7-14.9-10.8-20.6-23.9a50.451,50.451,0,0,1-3-9.3c-2.4-11-3.9-25.4,2.5-31.3,2.9-2.6,6.9-3.2,11.9-1.7h0c.3.1,33.8,11.4,33.8,47.1,0,.6-.5,14.2-12.1,18.7A14.028,14.028,0,0,1,552.2,312.3Zm-20.1-64.4a6.126,6.126,0,0,0-4.4,1.6c-3.8,3.6-4.4,14-1.4,27.8a41.221,41.221,0,0,0,2.8,8.6c5.1,11.9,11.5,19.5,18.3,21.9a12.933,12.933,0,0,0,9.9-.2c9.6-3.8,10-15.3,10-15.4.1-32.7-30.3-43.2-31.2-43.5A10.515,10.515,0,0,0,532.1,247.9Z" transform="translate(-341.735 -156.122)"/>
  <path id="Path_16" data-name="Path 16" d="M556.2,269.5c3.2,7.3,6,17.4,1.4,23.8,0,0-11.1,12.3-23.2-4.3a29.818,29.818,0,0,1-3.5-6.3c-2-4.8-5-13.8-3.8-21.8a9.331,9.331,0,0,1,11.8-7.4c.1,0,.2.1.3.1A27.838,27.838,0,0,1,556.2,269.5Z" transform="translate(-341.735 -156.122)"/>
  <path id="Path_17" data-name="Path 17" d="M545.9,267c0,4.971-3,9-6.7,9s-6.7-4.029-6.7-9,3-9,6.7-9S545.9,262.029,545.9,267Z" transform="matrix(0.866, -0.5, 0.5, 0.866, -403.02, 149.253)"/>
  <path id="Path_18" data-name="Path 18" d="M522,301.6c-11.4-10.7-31.8-9.1-31.8-9.1s-20.5-1.7-31.8,9.1a15.865,15.865,0,0,0,6.1,26.7c5.7,1.9,13.8,3.4,25.7,3.4s20.1-1.4,25.7-3.4C527.7,324.2,530.8,309.9,522,301.6Z" transform="translate(-341.735 -156.122)"/>
  <path id="Path_19" data-name="Path 19" d="M490.2,333.4c-10.8,0-19.6-1.2-26.3-3.5A17.866,17.866,0,0,1,452,316.7a17.656,17.656,0,0,1,5.2-16.6c11.4-10.8,31-9.7,33.1-9.6,2.1-.2,21.7-1.2,33.1,9.6a17.509,17.509,0,0,1,5.2,16.6,18.032,18.032,0,0,1-11.9,13.2C509.8,332.2,500.9,333.4,490.2,333.4Zm-3-39.2c-5.9,0-19.4.9-27.6,8.7a13.8,13.8,0,0,0-4.1,13.1,14.336,14.336,0,0,0,9.6,10.5c6.3,2.2,14.8,3.3,25.2,3.3s18.8-1.1,25.2-3.3a14.522,14.522,0,0,0,9.6-10.5,13.964,13.964,0,0,0-4.1-13.1c-10.6-10.1-30.2-8.6-30.4-8.6h-.3C490,294.3,488.9,294.2,487.2,294.2Z" transform="translate(-341.735 -156.122)"/>
  <path id="Path_20" data-name="Path 20" d="M490.6,305.5h-.8c-14.1,0-25.5,3.6-25.5,8s11.4,8,25.5,8h.8c14.1,0,25.5-3.6,25.5-8S504.7,305.5,490.6,305.5Z" transform="translate(-341.735 -156.122)"/>
  <path id="Path_21" data-name="Path 21" d="M490.6,323.4h-.8c-13.6,0-27.3-3.4-27.3-9.9s13.8-9.9,27.3-9.9h.8c13.6,0,27.3,3.4,27.3,9.9C517.9,320.1,504.2,323.4,490.6,323.4Zm-.4-3.6h.4c15.3,0,23.7-4.1,23.7-6.2s-8.4-6.2-23.7-6.2v-1.8l-.2,1.8H490c-15.5,0-23.8,4.1-23.8,6.2s8.4,6.2,23.7,6.2Z" transform="translate(-341.735 -156.122)"/>
  <path id="Path_22" data-name="Path 22" d="M584.7,272.5s4.1-20.8,7.9-29.8c0,0,10-34.7,39.4-36.5,14.3-.9,27.8,7.3,34.4,20.1,9.7,19.1,9.9,52.7-70.9,87.4C595.5,313.6,591.5,286,584.7,272.5Z" transform="translate(-341.735 -156.122)"/>
  <path id="Path_23" data-name="Path 23" d="M595.5,315.4a2.92,2.92,0,0,1-.9-.2,1.964,1.964,0,0,1-.9-1.3c0-.3-4-27.4-10.6-40.6a2.537,2.537,0,0,1-.2-1.2c.2-.9,4.2-21,8-30.2,0-.2,10.7-35.8,41-37.6A38.139,38.139,0,0,1,668,225.4c5.3,10.4,6,21,2.2,31.6-7.5,20.8-32.4,40.4-74,58.2A.952.952,0,0,1,595.5,315.4Zm-8.9-43.2c5.6,11.6,9.2,31.8,10.3,38.7,39.3-17.2,62.8-35.7,69.8-55.2,3.5-9.6,2.8-19.3-2-28.7a34.575,34.575,0,0,0-32.6-19.1c-27.7,1.7-37.7,34.8-37.8,35.2C591,251.3,587.3,268.7,586.6,272.2Z" transform="translate(-341.735 -156.122)"/>
  <path id="Path_24" data-name="Path 24" d="M591,293a1.781,1.781,0,0,1-1.6-1,1.851,1.851,0,0,1,.8-2.5c.4-.2,37.4-19.5,41.4-59.6a1.739,1.739,0,0,1,2-1.6,1.805,1.805,0,0,1,1.6,2c-4.2,42.1-43,62.2-43.4,62.4A1.135,1.135,0,0,1,591,293Z" transform="translate(-341.735 -156.122)"/>
  <path id="Path_25" data-name="Path 25" d="M481.1,420.5a1.268,1.268,0,0,1-.6-.1c-29.2-7.2-39.1-27.5-38.7-42.6.3-12.4,7.2-23.9,19-31.7a57.416,57.416,0,0,1,52.3-5.3c18,7.2,28.4,24,24.8,39.9-3,13.1-14.4,23.5-29.8,27.2-16.1,3.8-32.1-.9-41.6-12.4-6.7-8.2-8.5-18.8-4.5-27.7,3.5-7.9,11.1-13.7,20.9-15.9,10.7-2.4,21.6,0,29.2,6.4a19.413,19.413,0,0,1,6.9,16.1c-.6,8.1-5.1,14.5-12.3,17.5-7.7,3.2-17.1,1.9-23.2-3.3a14.7,14.7,0,0,1-5.2-11.2,13.642,13.642,0,0,1,4.9-10.5c5.6-4.7,15.1-4.9,20.4-.5a9.187,9.187,0,0,1,2.6,3.5,9.995,9.995,0,0,1-1.5,10.7,11.424,11.424,0,0,1-11.4,3.8,8.292,8.292,0,0,1-6.4-5.8,6.851,6.851,0,0,1,2.4-6.9,7.822,7.822,0,0,1,9.8,0,2.493,2.493,0,0,1,.3,3.4,2.4,2.4,0,0,1-3.4.3,2.852,2.852,0,0,0-3.5,0,2.013,2.013,0,0,0-.8,2.1c.2,1,1.3,1.8,2.8,2.1a6.473,6.473,0,0,0,6.5-2.2,5.174,5.174,0,0,0,.8-5.6,4.919,4.919,0,0,0-1.3-1.8c-3.4-2.9-10.3-2.6-14.1.5a8.841,8.841,0,0,0-3.2,6.8,9.9,9.9,0,0,0,3.5,7.5,17.783,17.783,0,0,0,18.2,2.5,14.846,14.846,0,0,0,9.3-13.3,14.317,14.317,0,0,0-5.2-12c-6.4-5.5-15.8-7.5-24.9-5.4-8.2,1.9-14.7,6.8-17.6,13.2-3.2,7.2-1.7,15.8,3.8,22.6,9.9,12,25.5,13.5,36.7,10.8,13.6-3.2,23.6-12.2,26.2-23.5,3.1-13.5-6.1-27.9-21.8-34.2a52.62,52.62,0,0,0-47.8,4.8c-10.5,6.9-16.6,17-16.8,27.8-.3,13.3,8.7,31.2,35,37.8a2.468,2.468,0,0,1,1.8,3A2.987,2.987,0,0,1,481.1,420.5Z" transform="translate(-341.735 -156.122)"/>
</svg>
