<svg id="Untitled_5_" data-name="Untitled (5)" xmlns="http://www.w3.org/2000/svg" width="350" height="350" viewBox="0 0 350 350">
  <rect id="ee-background" width="350" height="350" fill="none"/>
  <path id="Path_55" data-name="Path 55" d="M968.3,329.4c-4.7-3.6-7.1-5.4-8.5-6.2a167.76,167.76,0,0,0-10-28.3,251.969,251.969,0,0,0,19.1-31.2,197.041,197.041,0,0,0,14.2-34.5,9.5,9.5,0,0,0-1.6-8.6,9.668,9.668,0,0,0-7.9-3.7,207.575,207.575,0,0,0-34.4,4.4c-17.6,3.8-32.2,9.7-43.6,17.6a97.985,97.985,0,0,0-19.2-5.8,1.991,1.991,0,0,0-1.2-.8c-.8-.1-20.3-2.8-38,0h-.1a96.694,96.694,0,0,0-23.4,6.5c-11.3-7.9-25.9-13.8-43.6-17.6a218.943,218.943,0,0,0-34.4-4.4,9.527,9.527,0,0,0-9.5,12.2,201.027,201.027,0,0,0,14.2,34.6,239.409,239.409,0,0,0,19.1,31.2,167.762,167.762,0,0,0-10,28.3,83.72,83.72,0,0,0-8.5,6.2A190.073,190.073,0,0,0,723.4,345c-14.8,15.2-19.8,27.3-14.9,35.9a12.16,12.16,0,0,0,7,6.1,18.324,18.324,0,0,0,6.8,1.1c6.3,0,14.1-2.4,23.2-7.1a85.193,85.193,0,0,0,9.7,28.8c1.8,5.2,26.4,73,54.4,71.6h.8c3.9,0,17.3-2.2,26.9-30.2a111.95,111.95,0,0,0,17.2-.4c1.1.1,5.2.5,11.4.5,1.8,0,3.7,0,5.8-.1,9.6,28,23,30.2,26.9,30.2h1.7c27.7,0,51.7-66.6,53.5-71.6a81.677,81.677,0,0,0,9.7-28.8c9.2,4.7,16.9,7.1,23.2,7.1a20.627,20.627,0,0,0,6.8-1.1,12.2,12.2,0,0,0,7-6.1c5-8.6,0-20.7-14.9-35.9A139.073,139.073,0,0,0,968.3,329.4Z" transform="translate(-674.796 -163.061)"/>
  <g id="Group_14" data-name="Group 14" transform="translate(-674.796 -163.061)">
    <g id="Group_13" data-name="Group 13">
      <path id="Path_56" data-name="Path 56" d="M808.4,236.9s-33.8,6.1-54.2,51.8a235.639,235.639,0,0,1-19.3-31.5A205.215,205.215,0,0,1,720.8,223a7.73,7.73,0,0,1,7.7-9.9,211.151,211.151,0,0,1,34.1,4.3C778.2,220.8,795.2,226.7,808.4,236.9Z"/>
      <path id="Path_57" data-name="Path 57" d="M754.2,290.5a2.127,2.127,0,0,1-1.5-.7,238.408,238.408,0,0,1-19.5-31.7A197.835,197.835,0,0,1,719,223.5a9.247,9.247,0,0,1,1.6-8.5,9.959,9.959,0,0,1,7.9-3.7,207.575,207.575,0,0,1,34.4,4.4c19.2,4.1,34.9,10.8,46.6,19.8a1.842,1.842,0,0,1-.8,3.3c-.3.1-33.1,6.5-52.9,50.7a1.923,1.923,0,0,1-1.5,1.1C754.3,290.5,754.3,290.5,754.2,290.5Zm-26-75.6a5.8,5.8,0,0,0-5.6,7.5,197.536,197.536,0,0,0,13.9,33.9A256.643,256.643,0,0,0,753.8,285c16.7-35.2,41-46,50.4-48.9-10.9-7.6-25-13.2-42-16.9a209.459,209.459,0,0,0-33.8-4.3Z"/>
    </g>
  </g>
  <g id="Group_15" data-name="Group 15" transform="translate(-674.796 -163.061)">
    <path id="Path_58" data-name="Path 58" d="M886.5,236.9s33.8,6.1,54.2,51.8A235.639,235.639,0,0,0,960,257.2,205.215,205.215,0,0,0,974.1,223a7.73,7.73,0,0,0-7.7-9.9,211.151,211.151,0,0,0-34.1,4.3C916.7,220.8,899.7,226.7,886.5,236.9Z"/>
    <path id="Path_59" data-name="Path 59" d="M940.7,290.5h-.2a2.094,2.094,0,0,1-1.5-1.1c-10.3-23.1-24.1-35.7-33.9-42.1-10.6-7-18.9-8.6-18.9-8.6a1.945,1.945,0,0,1-1.5-1.4,1.819,1.819,0,0,1,.7-1.9c11.7-9,27.4-15.7,46.6-19.8a218.943,218.943,0,0,1,34.4-4.4,9.4,9.4,0,0,1,7.9,3.7,9.5,9.5,0,0,1,1.6,8.6A197.041,197.041,0,0,1,961.7,258a238.408,238.408,0,0,1-19.5,31.7A2.057,2.057,0,0,1,940.7,290.5Zm-50.1-54.4c9.4,3,33.7,13.8,50.4,48.9a256.643,256.643,0,0,0,17.3-28.7,189.814,189.814,0,0,0,13.9-33.9,5.657,5.657,0,0,0-1-5.3,5.77,5.77,0,0,0-4.8-2.2,209.456,209.456,0,0,0-33.8,4.3C915.6,222.9,901.5,228.6,890.6,236.1Z"/>
  </g>
  <path id="Path_60" data-name="Path 60" d="M954.7,338.7s-9.8-111.4-107.2-111.4c-97.5,0-107.2,111.4-107.2,111.4C725.5,456.8,847.5,443.4,847.5,443.4S969.4,456.8,954.7,338.7Z" transform="translate(-674.796 -163.061)"/>
  <path id="Path_61" data-name="Path 61" d="M858.8,445.7c-6.1,0-10.3-.4-11.4-.5-4.3.4-57,5.1-88.3-26.6-18.1-18.4-25.1-45.4-20.8-80.2.1-1.1,11-113,109.1-113,97.4,0,108.8,110.4,109.1,113,4.3,34.8-2.7,61.8-20.8,80.2C912.3,442.4,877,445.7,858.8,445.7Zm-11.4-4.1h.2c.5.1,54.9,5.6,85.5-25.5,17.3-17.6,24-43.5,19.8-77.2v-.1c-.1-1.1-10.8-109.7-105.4-109.7-94.7,0-105.3,108.6-105.4,109.7-4.2,33.7,2.4,59.7,19.7,77.2,30.6,31.1,84.9,25.6,85.5,25.5A.1.1,0,0,0,847.4,441.6Z" transform="translate(-674.796 -163.061)"/>
  <path id="Path_62" data-name="Path 62" d="M743.8,318.9c.2-.8-52.2,36.1-40.7,55.6,0,0,5.6,15.1,36.8-1.9C739.9,372.6,735.9,350.5,743.8,318.9Z" transform="translate(-674.796 -163.061)"/>
  <path id="Path_63" data-name="Path 63" d="M715.2,382.5a20.627,20.627,0,0,1-6.8-1.1,12.2,12.2,0,0,1-7-6.1c-5-8.6,0-20.7,14.9-35.9a190.073,190.073,0,0,1,17.6-15.7c9.3-7.3,9.7-7,10.8-6.4a1.889,1.889,0,0,1,.9,2.1h0c-7.6,30.8-3.9,52.7-3.9,52.9a1.815,1.815,0,0,1-.9,1.9C730.6,379.7,722,382.5,715.2,382.5ZM740.9,323c-9.1,6.6-32.6,25.5-37,40.7-1.1,3.9-.9,7.1.7,9.8a.367.367,0,0,1,.1.3c0,.1,1.1,2.8,5,4.1,4.4,1.6,12.8,1.7,28.1-6.5C737.2,366.6,735.4,348.3,740.9,323Z" transform="translate(-674.796 -163.061)"/>
  <path id="Path_64" data-name="Path 64" d="M749.8,403.3s25.3,72.3,52.8,70.6c0,0,15.7,2.4,26.4-30.3C829,443.7,772.5,444.1,749.8,403.3Z" transform="translate(-674.796 -163.061)"/>
  <path id="Path_65" data-name="Path 65" d="M803.4,475.8h-.8c-28.4,1.4-53.4-68.8-54.5-71.8a1.857,1.857,0,0,1,1-2.3,1.681,1.681,0,0,1,2.3.8c21.7,39,75.8,39.4,77.5,39.4h.1a1.9,1.9,0,0,1,1.5.8,2.318,2.318,0,0,1,.3,1.6C821.1,473.6,807.3,475.8,803.4,475.8Zm-.8-3.7h.3c.1,0,13.6,1.5,23.6-26.7-10-.5-46.9-3.9-69.5-29a237.734,237.734,0,0,0,10.6,22c12.4,22.7,24.5,34.3,35,33.7Z" transform="translate(-674.796 -163.061)"/>
  <path id="Path_66" data-name="Path 66" d="M762.6,217.4c-4.9,18.4-17.5,31.7-27.7,39.8A205.215,205.215,0,0,1,720.8,223a7.73,7.73,0,0,1,7.7-9.9A211.155,211.155,0,0,1,762.6,217.4Z" transform="translate(-674.796 -163.061)"/>
  <path id="Path_67" data-name="Path 67" d="M811.1,337.2c0,2.761-5.373,5-12,5s-12-2.239-12-5,5.373-5,12-5S811.1,334.439,811.1,337.2Z" transform="translate(-674.796 -163.061)"/>
  <path id="Path_68" data-name="Path 68" d="M825.7,318c0,5.633-2.865,10.2-6.4,10.2s-6.4-4.567-6.4-10.2,2.865-10.2,6.4-10.2,6.4,4.567,6.4,10.2Z" transform="translate(-674.796 -163.061)"/>
  <path id="Path_69" data-name="Path 69" d="M835.9,341a8.117,8.117,0,0,1-7.2-4.7,1.812,1.812,0,0,1,3.3-1.5,4.417,4.417,0,0,0,6.2,2.1,80.584,80.584,0,0,1,8.7-4.2,1.838,1.838,0,1,1,1.4,3.4,59.772,59.772,0,0,0-8.3,4.1A11.359,11.359,0,0,1,835.9,341Z" transform="translate(-674.796 -163.061)"/>
  <path id="Path_70" data-name="Path 70" d="M951.1,318.9c-.2-.8,52.2,36.1,40.7,55.6,0,0-5.6,15.1-36.8-1.9C955,372.6,958.9,350.5,951.1,318.9Z" transform="translate(-674.796 -163.061)"/>
  <path id="Path_71" data-name="Path 71" d="M979.7,382.5c-6.8,0-15.4-2.8-25.6-8.4a1.739,1.739,0,0,1-.9-1.9c0-.2,3.8-22.1-3.9-52.9h0a2.017,2.017,0,0,1,.9-2.1c1-.6,1.5-.8,10.8,6.4a190.073,190.073,0,0,1,17.6,15.7c14.8,15.2,19.8,27.3,14.9,35.9a12.16,12.16,0,0,1-7,6.1A18.308,18.308,0,0,1,979.7,382.5ZM957,371.6c15.3,8.1,23.7,8,28.1,6.5,3.9-1.4,5-4.1,5-4.2s.1-.2.1-.3c1.6-2.7,1.8-5.9.7-9.8-4.4-15.2-27.9-34.1-37-40.7C959.5,348.3,957.7,366.6,957,371.6Z" transform="translate(-674.796 -163.061)"/>
  <path id="Path_72" data-name="Path 72" d="M945.1,403.3s-25.3,72.3-52.8,70.6c0,0-15.7,2.4-26.4-30.3C865.9,443.7,922.3,444.1,945.1,403.3Z" transform="translate(-674.796 -163.061)"/>
  <path id="Path_73" data-name="Path 73" d="M891.5,475.8c-3.9,0-17.7-2.2-27.4-31.6a1.525,1.525,0,0,1,.3-1.6,1.645,1.645,0,0,1,1.5-.8h0c1.6,0,55.8-.4,77.5-39.4a1.834,1.834,0,0,1,2.3-.8,1.857,1.857,0,0,1,1,2.3c-1,3-25.5,71.9-53.6,71.9h-1.6Zm-23.1-30.4c10.1,28.5,23.4,26.7,23.6,26.7h.4c10.5.7,22.6-11,35-33.7,4.2-7.8,7.8-15.6,10.5-21.9C915.3,441.5,878.4,445,868.4,445.4Z" transform="translate(-674.796 -163.061)"/>
  <path id="Path_74" data-name="Path 74" d="M932.3,217.4c4.9,18.4,17.5,31.7,27.7,39.8A205.215,205.215,0,0,0,974.1,223a7.73,7.73,0,0,0-7.7-9.9A211.155,211.155,0,0,0,932.3,217.4Z" transform="translate(-674.796 -163.061)"/>
  <path id="Path_75" data-name="Path 75" d="M907.7,337.2c0,2.761-5.372,5-12,5s-12-2.239-12-5,5.373-5,12-5,12,2.239,12,5Z" transform="translate(-674.796 -163.061)"/>
  <path id="Path_76" data-name="Path 76" d="M882,318c0,5.633-2.865,10.2-6.4,10.2s-6.4-4.567-6.4-10.2,2.865-10.2,6.4-10.2,6.4,4.567,6.4,10.2Z" transform="translate(-674.796 -163.061)"/>
  <path id="Path_77" data-name="Path 77" d="M859,341.1a9.084,9.084,0,0,1-3.7-.9,88.853,88.853,0,0,0-8.5-4.1,1.838,1.838,0,1,1,1.4-3.4A78.909,78.909,0,0,1,857,337a4.358,4.358,0,0,0,6-2.2,1.812,1.812,0,0,1,3.3,1.5A8.486,8.486,0,0,1,859,341.1Z" transform="translate(-674.796 -163.061)"/>
  <path id="Path_78" data-name="Path 78" d="M830.3,228.5s-33.9,12.5-21.9,51.8c0,0,9.1,21.1,31.6,22.9,11.3.9,22.6-3.2,29.6-12.1,4.3-5.4,7.7-13.2,6.9-24.3a22.708,22.708,0,0,0-6.6-14.7,17.547,17.547,0,0,0-15.3-4.8,16.6,16.6,0,0,0-11.1,6.7s-.7-18.3,24.2-25.6C867.7,228.5,847.9,225.7,830.3,228.5Z" transform="translate(-674.796 -163.061)"/>
  <path id="Path_79" data-name="Path 79" d="M843.1,305.2c-1.1,0-2.2,0-3.3-.1-23.3-1.9-32.8-23.1-33.1-24-12.4-40.6,22.6-54.1,22.9-54.2.1,0,.2-.1.3-.1,17.7-2.8,37.1-.1,38,0a1.849,1.849,0,0,1,.3,3.6c-15.1,4.4-20.2,13-22,18.5a17.8,17.8,0,0,1,8.2-3.2,19.428,19.428,0,0,1,16.7,5.3,24.179,24.179,0,0,1,7.1,15.8c.7,9.9-1.7,18.5-7.2,25.5C864.6,300.5,854.3,305.2,843.1,305.2Zm-12.3-74.9c-2.7,1.1-31.6,13.4-20.6,49.5,0,0,8.9,19.9,30,21.6,11.2.9,21.6-3.4,28-11.4,5-6.3,7.1-14,6.5-23a20.626,20.626,0,0,0-6-13.5,15.66,15.66,0,0,0-13.7-4.3,14.632,14.632,0,0,0-9.8,5.9,1.63,1.63,0,0,1-2,.7,1.714,1.714,0,0,1-1.3-1.7c0-.2-.3-15.9,18-24.6C852.5,229,841.2,228.7,830.8,230.3Z" transform="translate(-674.796 -163.061)"/>
</svg>
