<?xml version="1.0" encoding="utf-8"?>
<svg id="master-artboard" viewBox="0 0 350 350" version="1.1" xmlns="http://www.w3.org/2000/svg" x="0px" y="0px" width="350px" height="350px" enable-background="new 0 0 1400 980"><rect id="ee-background" x="0" y="0" width="350" height="350" style="fill: white; fill-opacity: 0; pointer-events: none;"/>
<path fill="#E1E0D1" d="M1071.9,367.5c-0.9,0.7-1.8,1.8-2.2,3.2c-0.7,2.2,0,4.6,1.9,7.2c1.8,2.3,4.4,4.2,7.5,5.3&#10;&#9;&#9;&#9;c8.9,3.2,30.8,12.5,44,30.6c3,8,7.1,16,12.8,23.1c1.9,2.4,3.9,4.7,6.1,6.8c-3.8,2.4-11.2,8.3-11.9,18.1&#10;&#9;&#9;&#9;c-0.4,5.9,2.3,11.5,6.9,15.1c0.1,0.1,0.1,0.1,0.2,0.2c1.8,1.3,3.8,2.4,6,3c3.3,0.9,6.9,1.4,10.9,1.5c0.1,0,0.1,0,0.1,0&#10;&#9;&#9;&#9;c0,0,0.1,0,0.1,0c0.3,0,0.7,0,1,0c0.9,0,1.9,0,2.9-0.1c0.8,0,19.9-1.4,26.4-16.8c5.4,1,11,1.6,17,1.9c0.1,0,0.2,0,0.4,0&#10;&#9;&#9;&#9;c0,0,0,0,0.1,0l0.1-1.8l0.2,1.8c0.2,0,0.3,0,0.4,0c6-0.3,11.6-0.9,17-1.9c6.5,15.4,25.6,16.8,26.5,16.8c1,0,1.9,0.1,2.9,0.1&#10;&#9;&#9;&#9;c0.3,0,0.7,0,1,0c0,0,0.1,0,0.1,0c0,0,0.1,0,0.1,0c4-0.1,7.7-0.6,10.9-1.5c2.2-0.6,4.2-1.7,6-3c0.1-0.1,0.2-0.1,0.2-0.2&#10;&#9;&#9;&#9;c4.6-3.6,7.3-9.2,6.9-15.1c-0.7-9.8-8.1-15.7-11.9-18.1c2.2-2.1,4.2-4.4,6.1-6.8c5.7-7.1,9.8-15,12.8-23.1&#10;&#9;&#9;&#9;c13.2-18.1,35.2-27.4,44-30.6c3.1-1.1,5.7-2.9,7.5-5.3c1.9-2.5,2.6-5,1.9-7.2c-0.4-1.4-1.3-2.4-2.2-3.2c4-3.3,6.3-6.9,6.8-10.7&#10;&#9;&#9;&#9;c0.7-5-1.9-8.7-2.5-9.6c-14.6-28.2-58.5-52.4-63.8-55.2c-9.3-19.9-21.3-32.4-32.8-40.2l25.3-59.1c0,0,8.4-19.6,4.3-35.7&#10;&#9;&#9;&#9;c-4.5-17.6-27-23.1-38.3-8.8c-3.6,4.5-6.8,11.2-8.7,21c-0.7,3.7-1.2,7.5-1.4,11.3l-3.1,61.1c-9-2.6-15.4-2.7-16.3-2.7&#10;&#9;&#9;&#9;c-1.1,0-7.5,0-16.3,2.5l-3.1-61c-0.2-3.8-0.6-7.6-1.4-11.3c-1.9-9.7-5.1-16.4-8.7-21c-11.3-14.3-33.8-8.8-38.3,8.8&#10;&#9;&#9;&#9;c-4.1,16.2,4.3,35.7,4.3,35.7l25.2,59c-0.2,0.1-0.4,0.2-0.5,0.4c-13.6,9.4-24.4,22.8-32.3,40.1c-6,3.3-49.2,27.2-63.6,55.1&#10;&#9;&#9;&#9;c-0.7,0.9-3.2,4.6-2.5,9.6C1065.6,360.6,1067.9,364.2,1071.9,367.5z" transform="matrix(1, 0, 0, 1, -1020.0000762939453, -130.10205078125)"/><g transform="matrix(1, 0, 0, 1, -1020.0000762939453, -130.10205078125)">
				<path fill="#CB9783" d="M1277.9,336.1C1263.8,235.8,1199.1,235,1195,235c-4.2-0.1-68.8,0.7-82.9,101.1&#10;&#9;&#9;&#9;&#9;&#9;c0,0-22.6,118.7,82.7,122.9v0c0.1,0,0.1,0,0.2,0c0.1,0,0.1,0,0.2,0v0C1300.5,454.8,1277.9,336.1,1277.9,336.1z"/>
				<path fill="#3C2415" d="M1194.8,460.9c-0.1,0-0.2,0-0.4,0c-29-1.2-51.2-11.2-65.9-29.7c-15.2-19.2-19.4-44.1-20.2-61.6&#10;&#9;&#9;&#9;&#9;&#9;c-0.9-18.9,1.8-33.1,1.9-33.7c6-42.3,21.4-72.4,46-89.4c19-13.1,36.8-13.3,38.8-13.2c2.8,0,70.3,0.2,84.7,102.6&#10;&#9;&#9;&#9;&#9;&#9;c0.2,1.1,2.7,15.1,1.9,33.7c-0.8,17.5-5,42.5-20.2,61.6c-14.7,18.5-36.8,28.5-65.9,29.7c-0.1,0-0.3,0-0.4,0l-0.2-1.8&#10;&#9;&#9;&#9;&#9;&#9;L1194.8,460.9C1194.8,460.9,1194.8,460.9,1194.8,460.9z M1195.2,459L1195.2,459L1195.2,459z M1194.8,236.8&#10;&#9;&#9;&#9;&#9;&#9;c-4.6,0-67.2,1.8-81,99.5c-0.1,0.7-10.5,57.2,17.6,92.5c14,17.7,35.4,27.2,63.4,28.3c0,0,0.1,0,0.1,0c0,0,0.1,0,0.1,0&#10;&#9;&#9;&#9;&#9;&#9;c28.1-1.1,49.4-10.7,63.4-28.3c28-35.3,17.7-91.8,17.6-92.4c0,0,0-0.1,0-0.1c-5.8-41.4-20.8-70.6-44.4-86.9&#10;&#9;&#9;&#9;&#9;&#9;c-18-12.4-34.8-12.6-36.7-12.6C1195,236.8,1194.9,236.8,1194.8,236.8z"/>
			</g><path fill="#CB9783" d="M1125.4,287.7c0,0-48.6,25.6-63.5,54.8c0,0-8.2,9.7,6,19.5c0,0-7.2,2.5-2.1,9.1c1.7,2.2,4,3.7,6.6,4.7&#10;&#9;&#9;&#9;&#9;&#9;c8.2,2.9,31.3,12.5,45,31.3C1117.3,407.1,1096.2,360.9,1125.4,287.7z" transform="matrix(1, 0, 0, 1, -1020.0000762939453, -130.10205078125)"/><path fill="#3C2415" d="M1117.3,408.9c-0.6,0-1.1-0.3-1.5-0.8c-13.2-18.1-35.2-27.5-44.1-30.7c-3.1-1.1-5.7-2.9-7.5-5.3&#10;&#9;&#9;&#9;&#9;&#9;c-1.9-2.5-2.6-5-1.9-7.2c0.4-1.4,1.3-2.4,2.2-3.2c-4-3.3-6.3-6.9-6.8-10.7c-0.7-5,1.9-8.7,2.5-9.6&#10;&#9;&#9;&#9;&#9;&#9;c15.2-29.3,62.2-54.4,64.2-55.4c0.7-0.4,1.5-0.3,2.1,0.3c0.6,0.5,0.8,1.3,0.5,2c-14.9,37.4-16.3,67.4-14.9,86.1&#10;&#9;&#9;&#9;&#9;&#9;c1.6,20.2,6.7,31.7,6.8,31.8c0.4,0.9,0.1,1.9-0.7,2.3C1117.9,408.8,1117.6,408.9,1117.3,408.9z M1121.8,291.8&#10;&#9;&#9;&#9;&#9;&#9;c-12.2,7-46.4,28.3-58.4,51.5c-0.1,0.1-0.1,0.2-0.2,0.3c0,0-2.4,3-1.9,7c0.5,3.5,3,6.8,7.5,9.8c0.6,0.4,0.9,1.1,0.8,1.8&#10;&#9;&#9;&#9;&#9;&#9;c-0.1,0.7-0.6,1.3-1.2,1.5c-0.6,0.2-2.2,1.1-2.6,2.4c-0.4,1.3,0.5,2.8,1.3,3.9c1.4,1.8,3.4,3.2,5.8,4&#10;&#9;&#9;&#9;&#9;&#9;c7.9,2.8,25.9,10.4,39.6,24.5c-1.5-5.5-3.1-13.5-3.9-23.6C1107.1,356.7,1108.4,327.7,1121.8,291.8z" transform="matrix(1, 0, 0, 1, -1020.0000762939453, -130.10205078125)"/><path fill="#3C2415" d="M1157.5,247.7l-26-60.7c0,0-8.4-19.6-4.3-35.7c4.5-17.6,27-23.1,38.3-8.8c3.6,4.5,6.8,11.2,8.7,21&#10;&#9;&#9;&#9;&#9;c0.7,3.7,1.2,7.5,1.4,11.3l3.2,62.8C1178.8,237.6,1165.4,241.6,1157.5,247.7z" transform="matrix(1, 0, 0, 1, -1020.0000762939453, -130.10205078125)"/><path fill="#E5B7BD" d="M1162.7,244.3l-19.4-50c0,0-10.7-24.7,4.2-32.6c0,0,17.4-7.6,21.4,25.6l5.5,51.7&#10;&#9;&#9;&#9;&#9;&#9;C1174.4,239.1,1168,240.9,1162.7,244.3z" transform="matrix(1, 0, 0, 1, -1020.0000762939453, -130.10205078125)"/><path fill="#3C2415" d="M1162.7,246.2c-0.2,0-0.4,0-0.6-0.1c-0.5-0.2-0.9-0.6-1.1-1.1l-19.4-50c-0.4-1-11.1-26.3,5.1-34.9&#10;&#9;&#9;&#9;&#9;&#9;c0.4-0.2,6-2.5,11.9,0.9c6.4,3.7,10.5,12.5,12.1,26.1l5.5,51.8c0.1,0.9-0.5,1.7-1.3,2c-0.1,0-6.2,1.8-11.2,5&#10;&#9;&#9;&#9;&#9;&#9;C1163.4,246.1,1163.1,246.2,1162.7,246.2z M1151.7,162.9c-2,0-3.4,0.6-3.4,0.6c-13.1,6.9-3.4,30-3.3,30.2l18.7,48&#10;&#9;&#9;&#9;&#9;&#9;c3.4-1.9,6.9-3.2,8.8-3.8l-5.4-50.2c-1.5-12.2-5-20.3-10.3-23.3C1154.9,163.2,1153.2,162.9,1151.7,162.9z" transform="matrix(1, 0, 0, 1, -1020.0000762939453, -130.10205078125)"/><path d="M 1179.899976 261.5 A 6.3 6.3 0 0 1 1173.599976 267.8 A 6.3 6.3 0 0 1 1167.299975 261.5 A 6.3 6.3 0 0 1 1173.599976 255.2 A 6.3 6.3 0 0 1 1179.899976 261.5 Z" fill="#3C2415" transform="matrix(1, 0, 0, 1, -1020.0000762939453, -130.10205078125)"/><path fill="#3C2415" d="M1072.3,364.4c-2.8,0-4.9-0.6-5.1-0.7c-1-0.3-1.5-1.3-1.2-2.3c0.3-1,1.3-1.5,2.3-1.2&#10;&#9;&#9;&#9;&#9;c0.1,0,5.9,1.7,9.9-1.2c2.5-1.9,3.9-5.3,3.9-10.2c0-1,0.8-1.8,1.8-1.8c0,0,0,0,0,0c1,0,1.8,0.8,1.8,1.9&#10;&#9;&#9;&#9;&#9;c-0.1,6.1-1.9,10.6-5.5,13.1C1077.8,363.9,1074.8,364.4,1072.3,364.4z" transform="matrix(1, 0, 0, 1, -1020.0000762939453, -130.10205078125)"/><path fill="#3C2415" d="M1072.8,377.6c-0.4,0-0.6,0-0.7,0c-1-0.1-1.7-1-1.6-2c0.1-1,1-1.7,2-1.6c0,0,3,0.2,5-1.7&#10;&#9;&#9;&#9;&#9;c1.6-1.5,2.3-4,2.2-7.5c0-1,0.7-1.9,1.7-1.9c1,0,1.9,0.7,1.9,1.7c0.2,4.6-0.9,8-3.3,10.3C1077.4,377.3,1074.2,377.6,1072.8,377.6&#10;&#9;&#9;&#9;&#9;z" transform="matrix(1, 0, 0, 1, -1020.0000762939453, -130.10205078125)"/><path fill="#CB9783" d="M1137.7,438.3c0,0-12.3,5.8-13.1,17.9c-0.5,7.5,4.6,14.3,11.8,16.3c3.6,1,8.4,1.7,14.5,1.4&#10;&#9;&#9;&#9;&#9;&#9;c0,0,19.8-1.2,25.4-17C1176.3,456.9,1153.1,452.6,1137.7,438.3z" transform="matrix(1, 0, 0, 1, -1020.0000762939453, -130.10205078125)"/><path fill="#3C2415" d="M1148.1,475.8c-4.5,0-8.6-0.5-12.2-1.5c-8.2-2.3-13.7-10-13.2-18.2c0.9-13,13.6-19.2,14.2-19.4&#10;&#9;&#9;&#9;&#9;&#9;c0.7-0.3,1.5-0.2,2,0.3c14.9,13.8,37.4,18.1,37.7,18.2c0.5,0.1,1,0.4,1.3,0.9c0.3,0.5,0.3,1,0.1,1.5&#10;&#9;&#9;&#9;&#9;&#9;c-5.9,16.8-26.1,18.2-27,18.3C1150,475.8,1149.1,475.8,1148.1,475.8z M1137.4,440.5c-2.8,1.7-10.4,6.9-11,15.8&#10;&#9;&#9;&#9;&#9;&#9;c-0.5,6.5,4,12.6,10.5,14.5c4,1.1,8.7,1.6,13.9,1.3c0.2,0,17-1.2,22.9-13.9C1167.7,456.8,1150.4,452,1137.4,440.5z" transform="matrix(1, 0, 0, 1, -1020.0000762939453, -130.10205078125)"/><path fill="#3C2415" d="M1130.9,471.6c-0.8,0-1.6-0.5-1.8-1.4c-0.1-0.5-3.3-13.1,8.7-22.9c0.8-0.6,1.9-0.5,2.6,0.3&#10;&#9;&#9;&#9;&#9;c0.6,0.8,0.5,1.9-0.3,2.6c-10.2,8.3-7.5,19-7.5,19.1c0.3,1-0.3,2-1.3,2.2C1131.2,471.6,1131,471.6,1130.9,471.6z" transform="matrix(1, 0, 0, 1, -1020.0000762939453, -130.10205078125)"/><path fill="#3C2415" d="M1147,475.8c-0.8,0-1.6-0.6-1.8-1.4c-0.1-0.5-2.8-12.5,5.1-20.4c0.7-0.7,1.9-0.7,2.6,0s0.7,1.9,0,2.6&#10;&#9;&#9;&#9;&#9;c-6.5,6.5-4.2,16.9-4.1,17c0.2,1-0.4,2-1.4,2.2C1147.2,475.8,1147.1,475.8,1147,475.8z" transform="matrix(1, 0, 0, 1, -1020.0000762939453, -130.10205078125)"/><path fill="#3C2415" d="M1182.4,286.9c-0.1,0-0.2,0-0.3,0c-1-0.2-1.7-1.1-1.5-2.1c0.1-0.4,1.6-9,14.5-10.2c1-0.1,1.9,0.6,2,1.6&#10;&#9;&#9;&#9;&#9;c0.1,1-0.6,1.9-1.6,2c-9.9,1-11.2,6.9-11.2,7.2C1184,286.3,1183.2,286.9,1182.4,286.9z" transform="matrix(1, 0, 0, 1, -1020.0000762939453, -130.10205078125)"/><path fill="#CB9783" d="M1264.6,287.7c0,0,48.6,25.6,63.5,54.8c0,0,8.2,9.7-6,19.5c0,0,7.2,2.5,2.1,9.1c-1.7,2.2-4,3.7-6.6,4.7&#10;&#9;&#9;&#9;&#9;&#9;c-8.2,2.9-31.3,12.5-45,31.3C1272.7,407.1,1293.8,360.9,1264.6,287.7z" transform="matrix(1, 0, 0, 1, -1020.0000762939453, -130.10205078125)"/><path fill="#3C2415" d="M1272.7,408.9c-0.3,0-0.6-0.1-0.9-0.3c-0.8-0.5-1.1-1.5-0.7-2.3c0.2-0.5,20.4-46.4-8.1-117.9&#10;&#9;&#9;&#9;&#9;&#9;c-0.3-0.7-0.1-1.5,0.5-2c0.6-0.5,1.4-0.6,2.1-0.3c2,1.1,49.1,26.1,64.2,55.4c0.7,0.9,3.2,4.6,2.5,9.6c-0.5,3.9-2.8,7.5-6.8,10.7&#10;&#9;&#9;&#9;&#9;&#9;c0.9,0.7,1.8,1.8,2.2,3.2c0.7,2.2,0,4.6-1.9,7.2c-1.8,2.3-4.4,4.2-7.5,5.3c-8.9,3.2-30.9,12.5-44.1,30.7&#10;&#9;&#9;&#9;&#9;&#9;C1273.8,408.6,1273.2,408.9,1272.7,408.9z M1268.1,291.8c13.5,35.9,14.7,64.9,13.3,83.2c-0.8,10.1-2.4,18-3.9,23.6&#10;&#9;&#9;&#9;&#9;&#9;c13.7-14.1,31.7-21.7,39.6-24.5c2.4-0.9,4.4-2.3,5.8-4c0.8-1.1,1.7-2.6,1.3-3.9c-0.4-1.3-2-2.1-2.6-2.4&#10;&#9;&#9;&#9;&#9;&#9;c-0.6-0.2-1.1-0.8-1.2-1.5c-0.1-0.7,0.2-1.4,0.8-1.7c4.5-3.1,7-6.4,7.5-9.8c0.6-4-1.8-6.9-1.9-7c-0.1-0.1-0.2-0.2-0.2-0.3&#10;&#9;&#9;&#9;&#9;&#9;C1314.6,320.1,1280.3,298.9,1268.1,291.8z" transform="matrix(1, 0, 0, 1, -1020.0000762939453, -130.10205078125)"/><path fill="#3C2415" d="M1232.5,247.7l26-60.7c0,0,8.4-19.6,4.3-35.7c-4.5-17.6-27-23.1-38.3-8.8c-3.6,4.5-6.8,11.2-8.7,21&#10;&#9;&#9;&#9;&#9;c-0.7,3.7-1.2,7.5-1.4,11.3l-3.2,62.8C1211.2,237.6,1224.6,241.6,1232.5,247.7z" transform="matrix(1, 0, 0, 1, -1020.0000762939453, -130.10205078125)"/><path fill="#E5B7BD" d="M1227.2,244.3l19.4-50c0,0,10.7-24.7-4.2-32.6c0,0-17.4-7.6-21.4,25.6l-5.5,51.7&#10;&#9;&#9;&#9;&#9;&#9;C1215.5,239.1,1222,240.9,1227.2,244.3z" transform="matrix(1, 0, 0, 1, -1020.0000762939453, -130.10205078125)"/><path fill="#3C2415" d="M1227.2,246.2c-0.4,0-0.7-0.1-1-0.3c-5-3.2-11.1-5-11.2-5c-0.9-0.2-1.4-1.1-1.3-2l5.5-51.7&#10;&#9;&#9;&#9;&#9;&#9;c1.6-13.7,5.7-22.4,12.1-26.1c5.9-3.4,11.6-1,11.8-0.9c16.3,8.6,5.6,33.9,5.2,35l-19.4,49.9c-0.2,0.5-0.6,0.9-1.1,1.1&#10;&#9;&#9;&#9;&#9;&#9;C1227.6,246.1,1227.4,246.2,1227.2,246.2z M1217.5,237.8c1.9,0.6,5.4,1.9,8.8,3.8l18.6-47.9c0.1-0.3,9.9-23.3-3.4-30.3&#10;&#9;&#9;&#9;&#9;&#9;c0,0-4.1-1.7-8.4,0.8c-5.3,3.1-8.8,11.1-10.2,23.3L1217.5,237.8z" transform="matrix(1, 0, 0, 1, -1020.0000762939453, -130.10205078125)"/><path d="M 1222.700025 261.5 A 6.3 6.3 0 0 1 1216.400024 267.8 A 6.3 6.3 0 0 1 1210.100024 261.5 A 6.3 6.3 0 0 1 1216.400024 255.2 A 6.3 6.3 0 0 1 1222.700025 261.5 Z" fill="#3C2415" transform="matrix(1, 0, 0, 1, -1020.0000762939453, -130.10205078125)"/><path fill="#3C2415" d="M1317.6,364.4c-2.5,0-5.5-0.5-8.1-2.4c-3.5-2.6-5.4-7-5.5-13.1c0-1,0.8-1.8,1.8-1.9c1,0,1.8,0.8,1.9,1.8&#10;&#9;&#9;&#9;&#9;c0.1,4.9,1.4,8.4,4,10.2c4,2.9,9.8,1.2,9.9,1.2c1-0.3,2,0.3,2.3,1.2c0.3,1-0.2,2-1.2,2.3C1322.5,363.8,1320.4,364.4,1317.6,364.4&#10;&#9;&#9;&#9;&#9;z" transform="matrix(1, 0, 0, 1, -1020.0000762939453, -130.10205078125)"/><path fill="#3C2415" d="M1317.1,377.6c-1.4,0-4.6-0.3-7.2-2.7c-2.4-2.3-3.5-5.8-3.3-10.3c0-1,0.9-1.8,1.9-1.7&#10;&#9;&#9;&#9;&#9;c1,0,1.8,0.9,1.7,1.9c-0.2,3.4,0.6,6,2.2,7.5c2,2,5,1.7,5,1.7c1-0.1,1.9,0.7,2,1.7c0.1,1-0.6,1.9-1.6,2&#10;&#9;&#9;&#9;&#9;C1317.8,377.6,1317.5,377.6,1317.1,377.6z" transform="matrix(1, 0, 0, 1, -1020.0000762939453, -130.10205078125)"/><path fill="#CB9783" d="M1252.3,438.3c0,0,12.3,5.8,13.1,17.9c0.5,7.5-4.6,14.3-11.8,16.3c-3.6,1-8.4,1.7-14.5,1.4&#10;&#9;&#9;&#9;&#9;&#9;c0,0-19.8-1.2-25.4-17C1213.7,456.9,1236.8,452.6,1252.3,438.3z" transform="matrix(1, 0, 0, 1, -1020.0000762939453, -130.10205078125)"/><path fill="#3C2415" d="M1241.8,475.8c-0.9,0-1.9,0-2.9-0.1c-0.9-0.1-21.2-1.5-27-18.3c-0.2-0.5-0.1-1.1,0.1-1.5&#10;&#9;&#9;&#9;&#9;&#9;c0.3-0.5,0.7-0.8,1.3-0.9c0.2,0,22.8-4.3,37.7-18.2c0.5-0.5,1.4-0.6,2-0.3c0.5,0.3,13.3,6.4,14.2,19.4c0.6,8.2-5,15.9-13.2,18.2&#10;&#9;&#9;&#9;&#9;&#9;C1250.4,475.3,1246.3,475.8,1241.8,475.8z M1216.2,458.2c5.9,12.7,22.8,13.9,23,13.9c5.2,0.2,9.9-0.2,13.9-1.3&#10;&#9;&#9;&#9;&#9;&#9;c6.5-1.9,11-7.9,10.5-14.5c-0.6-8.9-8.2-14.1-11-15.8C1239.6,452,1222.3,456.8,1216.2,458.2z" transform="matrix(1, 0, 0, 1, -1020.0000762939453, -130.10205078125)"/><path fill="#3C2415" d="M1259.1,471.6c-0.2,0-0.3,0-0.5-0.1c-1-0.3-1.6-1.3-1.3-2.2c0.1-0.5,2.6-10.9-7.5-19.1&#10;&#9;&#9;&#9;&#9;c-0.8-0.6-0.9-1.8-0.3-2.6c0.6-0.8,1.8-0.9,2.6-0.3c12,9.8,8.8,22.3,8.7,22.9C1260.6,471.1,1259.9,471.6,1259.1,471.6z" transform="matrix(1, 0, 0, 1, -1020.0000762939453, -130.10205078125)"/><path fill="#3C2415" d="M1243,475.8c-0.1,0-0.3,0-0.4,0c-1-0.2-1.6-1.2-1.4-2.2c0-0.1,2.3-10.6-4.1-17c-0.7-0.7-0.7-1.9,0-2.6&#10;&#9;&#9;&#9;&#9;s1.9-0.7,2.6,0c7.9,7.9,5.2,19.9,5.1,20.4C1244.6,475.2,1243.8,475.8,1243,475.8z" transform="matrix(1, 0, 0, 1, -1020.0000762939453, -130.10205078125)"/><path fill="#3C2415" d="M1207.6,287c-0.9,0-1.6-0.6-1.8-1.5c-0.1-0.3-1.3-6.2-11.2-7.2c-1-0.1-1.7-1-1.6-2c0.1-1,1-1.8,2-1.6&#10;&#9;&#9;&#9;&#9;c12.9,1.2,14.4,9.9,14.5,10.2c0.2,1-0.5,1.9-1.5,2.1C1207.8,286.9,1207.7,287,1207.6,287z" transform="matrix(1, 0, 0, 1, -1020.0000762939453, -130.10205078125)"/><path d="M 1259.100052 381.899994 A 64.300003 69.300003 0 0 1 1194.800049 451.199997 A 64.300003 69.300003 0 0 1 1130.500046 381.899994 A 64.300003 69.300003 0 0 1 1194.800049 312.599991 A 64.300003 69.300003 0 0 1 1259.100052 381.899994 Z" fill="#FFEBA8" transform="matrix(1, 0, 0, 1, -1020.0000762939453, -130.10205078125)"/><path fill="#3C2415" d="M1194.8,453c-36.5,0-66.1-31.9-66.1-71.1s29.7-71.1,66.1-71.1s66.1,31.9,66.1,71.1&#10;&#9;&#9;&#9;&#9;&#9;S1231.2,453,1194.8,453z M1194.8,314.4c-34.4,0-62.5,30.3-62.5,67.5s28,67.5,62.5,67.5s62.5-30.3,62.5-67.5&#10;&#9;&#9;&#9;&#9;&#9;S1229.2,314.4,1194.8,314.4z" transform="matrix(1, 0, 0, 1, -1020.0000762939453, -130.10205078125)"/><path d="M 1228.900047 390.700012 A 34.099998 45.700001 0 0 1 1194.800049 436.400013 A 34.099998 45.700001 0 0 1 1160.70005 390.700012 A 34.099998 45.700001 0 0 1 1194.800049 345.000011 A 34.099998 45.700001 0 0 1 1228.900047 390.700012 Z" fill="#CB9783" transform="matrix(1, 0, 0, 1, -1020.0000762939453, -130.10205078125)"/><path fill="#3C2415" d="M1194.8,438.2c-19.8,0-36-21.3-36-47.5c0-26.2,16.1-47.5,36-47.5c19.8,0,36,21.3,36,47.5&#10;&#9;&#9;&#9;&#9;&#9;C1230.7,416.9,1214.6,438.2,1194.8,438.2z M1194.8,346.9c-17.8,0-32.3,19.7-32.3,43.8s14.5,43.8,32.3,43.8&#10;&#9;&#9;&#9;&#9;&#9;c17.8,0,32.3-19.7,32.3-43.8S1212.6,346.9,1194.8,346.9z" transform="matrix(1, 0, 0, 1, -1020.0000762939453, -130.10205078125)"/>
</svg>