<?xml version="1.0" encoding="utf-8"?>
<svg id="master-artboard" viewBox="0 0 350 350" version="1.1" xmlns="http://www.w3.org/2000/svg" x="0px" y="0px" width="350px" height="350px" enable-background="new 0 0 1400 980"><rect id="ee-background" x="0" y="0" width="350" height="350" style="fill: white; fill-opacity: 0; pointer-events: none;"/>
<path fill="#E1E0D1" d="M968.3,329.4c-4.7-3.6-7.1-5.4-8.5-6.2c-2.1-8.2-5.3-18.1-10-28.3c1.9-2.5,10.5-14.7,19.1-31.2&#10;&#9;&#9;&#9;c6.2-12,11-23.6,14.2-34.5c0.9-3,0.3-6.1-1.6-8.6c-1.9-2.4-4.8-3.8-7.9-3.7c-8.2,0.4-20.9,1.4-34.4,4.4&#10;&#9;&#9;&#9;c-17.6,3.8-32.2,9.7-43.6,17.6c-5.9-2.5-12.2-4.4-19.2-5.8c-0.3-0.4-0.7-0.7-1.2-0.8c-0.8-0.1-20.3-2.8-38,0c0,0-0.1,0-0.1,0&#10;&#9;&#9;&#9;c-8.6,1.3-16.3,3.5-23.4,6.5c-11.3-7.9-25.9-13.8-43.6-17.6c-13.5-2.9-26.2-4-34.4-4.4c-3.1-0.1-6,1.2-7.9,3.7&#10;&#9;&#9;&#9;c-1.9,2.5-2.5,5.6-1.6,8.5c3.2,10.9,8,22.5,14.2,34.6c8.5,16.5,17.2,28.7,19.1,31.2c-4.7,10.2-7.9,20.1-10,28.3&#10;&#9;&#9;&#9;c-1.4,0.8-3.8,2.5-8.5,6.2c-4.5,3.6-11.3,9.2-17.6,15.7c-14.8,15.2-19.8,27.3-14.9,35.9c0.4,0.8,2.1,4.3,7,6.1&#10;&#9;&#9;&#9;c2,0.8,4.3,1.1,6.8,1.1c6.3,0,14.1-2.4,23.2-7.1c1.7,10.7,4.9,20.3,9.7,28.8c1.8,5.2,26.4,73,54.4,71.6c0.2,0,0.5,0,0.8,0&#10;&#9;&#9;&#9;c3.9,0,17.3-2.2,26.9-30.2c9.2,0.4,15.8-0.2,17.2-0.4c1.1,0.1,5.2,0.5,11.4,0.5c1.8,0,3.7,0,5.8-0.1c9.6,28,23,30.2,26.9,30.2&#10;&#9;&#9;&#9;c0.4,0,0.6,0,0.8,0c0.3,0,0.6,0,0.9,0c27.7,0,51.7-66.6,53.5-71.6c4.8-8.4,8.1-18,9.7-28.8c9.2,4.7,16.9,7.1,23.2,7.1&#10;&#9;&#9;&#9;c2.5,0,4.8-0.4,6.8-1.1c4.8-1.8,6.6-5.2,7-6.1c5-8.6,0-20.7-14.9-35.9C979.6,338.5,972.9,332.9,968.3,329.4z" transform="matrix(1, 0, 0, 1, -674.7960968017578, -163.0612335205078)"/><g transform="matrix(1, 0, 0, 1, -674.7960968017578, -163.0612335205078)">
				<g>
					<path fill="#F8AFB6" d="M808.4,236.9c0,0-33.8,6.1-54.2,51.8c0,0-9.7-12.8-19.3-31.5c-5.2-10.1-10.4-21.9-14.1-34.2&#10;&#9;&#9;&#9;&#9;&#9;&#9;c-1.5-5,2.4-10.1,7.7-9.9c8.3,0.4,20.7,1.4,34.1,4.3C778.2,220.8,795.2,226.7,808.4,236.9z"/>
					<path fill="#3C2415" d="M754.2,290.5c-0.6,0-1.1-0.3-1.5-0.7c-0.1-0.1-9.9-13.1-19.5-31.7c-6.2-12-11-23.7-14.2-34.6&#10;&#9;&#9;&#9;&#9;&#9;&#9;c-0.9-3-0.3-6.1,1.6-8.5c1.9-2.4,4.8-3.7,7.9-3.7c8.2,0.4,20.9,1.4,34.4,4.4c19.2,4.1,34.9,10.8,46.6,19.8&#10;&#9;&#9;&#9;&#9;&#9;&#9;c0.6,0.4,0.8,1.2,0.7,1.9c-0.2,0.7-0.7,1.2-1.5,1.4c-0.3,0.1-33.1,6.5-52.9,50.7c-0.3,0.6-0.8,1-1.5,1.1&#10;&#9;&#9;&#9;&#9;&#9;&#9;C754.3,290.5,754.3,290.5,754.2,290.5z M728.2,214.9c-1.8,0-3.5,0.8-4.6,2.2c-1.2,1.5-1.5,3.4-1,5.3&#10;&#9;&#9;&#9;&#9;&#9;&#9;c3.2,10.7,7.8,22.1,13.9,33.9c7,13.6,14.1,24.1,17.3,28.7c16.7-35.2,41-46,50.4-48.9c-10.9-7.6-25-13.2-42-16.9&#10;&#9;&#9;&#9;&#9;&#9;&#9;c-13.3-2.9-25.7-3.9-33.8-4.3C728.3,214.9,728.2,214.9,728.2,214.9z"/>
				</g>
			</g><g transform="matrix(1, 0, 0, 1, -674.7960968017578, -163.0612335205078)">
					<path fill="#F8AFB6" d="M886.5,236.9c0,0,33.8,6.1,54.2,51.8c0,0,9.7-12.8,19.3-31.5c5.2-10.1,10.4-21.9,14.1-34.2&#10;&#9;&#9;&#9;&#9;&#9;&#9;c1.5-5-2.4-10.1-7.7-9.9c-8.3,0.4-20.7,1.4-34.1,4.3C916.7,220.8,899.7,226.7,886.5,236.9z"/>
					<path fill="#3C2415" d="M940.7,290.5c-0.1,0-0.1,0-0.2,0c-0.6-0.1-1.2-0.5-1.5-1.1c-10.3-23.1-24.1-35.7-33.9-42.1&#10;&#9;&#9;&#9;&#9;&#9;&#9;c-10.6-7-18.9-8.6-18.9-8.6c-0.7-0.1-1.3-0.7-1.5-1.4c-0.2-0.7,0.1-1.4,0.7-1.9c11.7-9,27.4-15.7,46.6-19.8&#10;&#9;&#9;&#9;&#9;&#9;&#9;c13.5-2.9,26.2-4,34.4-4.4c3.1-0.1,6,1.2,7.9,3.7c1.9,2.5,2.5,5.6,1.6,8.6c-3.2,10.9-8,22.5-14.2,34.5&#10;&#9;&#9;&#9;&#9;&#9;&#9;c-9.6,18.6-19.4,31.6-19.5,31.7C941.8,290.2,941.2,290.5,940.7,290.5z M890.6,236.1c9.4,3,33.7,13.8,50.4,48.9&#10;&#9;&#9;&#9;&#9;&#9;&#9;c3.2-4.6,10.3-15.1,17.3-28.7c6.1-11.8,10.8-23.2,13.9-33.9c0.6-1.8,0.2-3.8-1-5.3c-1.2-1.5-3-2.3-4.8-2.2&#10;&#9;&#9;&#9;&#9;&#9;&#9;c-8.1,0.4-20.5,1.4-33.8,4.3C915.6,222.9,901.5,228.6,890.6,236.1z"/>
				</g><path fill="#F8AFB6" d="M954.7,338.7c0,0-9.8-111.4-107.2-111.4c-97.5,0-107.2,111.4-107.2,111.4&#10;&#9;&#9;&#9;&#9;&#9;c-14.8,118.1,107.2,104.7,107.2,104.7S969.4,456.8,954.7,338.7z" transform="matrix(1, 0, 0, 1, -674.7960968017578, -163.0612335205078)"/><path fill="#3C2415" d="M858.8,445.7c-6.1,0-10.3-0.4-11.4-0.5c-4.3,0.4-57,5.1-88.3-26.6c-18.1-18.4-25.1-45.4-20.8-80.2&#10;&#9;&#9;&#9;&#9;&#9;c0.1-1.1,11-113,109.1-113c97.4,0,108.8,110.4,109.1,113c4.3,34.8-2.7,61.8-20.8,80.2C912.3,442.4,877,445.7,858.8,445.7z&#10;&#9;&#9;&#9;&#9;&#9; M847.4,441.6c0.1,0,0.1,0,0.2,0c0.5,0.1,54.9,5.6,85.5-25.5c17.3-17.6,24-43.5,19.8-77.2c0,0,0,0,0-0.1&#10;&#9;&#9;&#9;&#9;&#9;c-0.1-1.1-10.8-109.7-105.4-109.7c-94.7,0-105.3,108.6-105.4,109.7c-4.2,33.7,2.4,59.7,19.7,77.2c30.6,31.1,84.9,25.6,85.5,25.5&#10;&#9;&#9;&#9;&#9;&#9;C847.3,441.6,847.4,441.6,847.4,441.6z" transform="matrix(1, 0, 0, 1, -674.7960968017578, -163.0612335205078)"/><path fill="#F8AFB6" d="M743.8,318.9c0.2-0.8-52.2,36.1-40.7,55.6c0,0,5.6,15.1,36.8-1.9C739.9,372.6,735.9,350.5,743.8,318.9z" transform="matrix(1, 0, 0, 1, -674.7960968017578, -163.0612335205078)"/><path fill="#3C2415" d="M715.2,382.5c-2.5,0-4.8-0.4-6.8-1.1c-4.8-1.8-6.6-5.2-7-6.1c-5-8.6,0-20.7,14.9-35.9&#10;&#9;&#9;&#9;&#9;&#9;c6.3-6.5,13.1-12.1,17.6-15.7c9.3-7.3,9.7-7,10.8-6.4c0.7,0.4,1.1,1.2,0.9,2.1l0,0c-7.6,30.8-3.9,52.7-3.9,52.9&#10;&#9;&#9;&#9;&#9;&#9;c0.1,0.8-0.2,1.5-0.9,1.9C730.6,379.7,722,382.5,715.2,382.5z M740.9,323c-9.1,6.6-32.6,25.5-37,40.7c-1.1,3.9-0.9,7.1,0.7,9.8&#10;&#9;&#9;&#9;&#9;&#9;c0.1,0.1,0.1,0.2,0.1,0.3c0,0.1,1.1,2.8,5,4.1c4.4,1.6,12.8,1.7,28.1-6.5C737.2,366.6,735.4,348.3,740.9,323z" transform="matrix(1, 0, 0, 1, -674.7960968017578, -163.0612335205078)"/><path fill="#F8AFB6" d="M749.8,403.3c0,0,25.3,72.3,52.8,70.6c0,0,15.7,2.4,26.4-30.3C829,443.7,772.5,444.1,749.8,403.3z" transform="matrix(1, 0, 0, 1, -674.7960968017578, -163.0612335205078)"/><path fill="#3C2415" d="M803.4,475.8c-0.4,0-0.6,0-0.8,0c-28.4,1.4-53.4-68.8-54.5-71.8c-0.3-0.9,0.1-1.9,1-2.3&#10;&#9;&#9;&#9;&#9;&#9;c0.9-0.4,1.9-0.1,2.3,0.8c21.7,39,75.8,39.4,77.5,39.4c0,0,0,0,0.1,0c0.6,0,1.1,0.3,1.5,0.8c0.3,0.5,0.4,1.1,0.3,1.6&#10;&#9;&#9;&#9;&#9;&#9;C821.1,473.6,807.3,475.8,803.4,475.8z M802.6,472.1c0.1,0,0.2,0,0.3,0c0.1,0,13.6,1.5,23.6-26.7c-10-0.5-46.9-3.9-69.5-29&#10;&#9;&#9;&#9;&#9;&#9;c2.7,6.4,6.3,14.2,10.6,22c12.4,22.7,24.5,34.3,35,33.7C802.5,472.1,802.6,472.1,802.6,472.1z" transform="matrix(1, 0, 0, 1, -674.7960968017578, -163.0612335205078)"/><path fill="#3C2415" d="M762.6,217.4c-4.9,18.4-17.5,31.7-27.7,39.8c-5.2-10.1-10.4-21.9-14.1-34.2c-1.5-5,2.4-10.1,7.7-9.9&#10;&#9;&#9;&#9;&#9;C736.8,213.5,749.2,214.5,762.6,217.4z" transform="matrix(1, 0, 0, 1, -674.7960968017578, -163.0612335205078)"/><path d="M 811.099976 337.200012 A 12 5 0 0 1 799.099976 342.200012 A 12 5 0 0 1 787.099976 337.200012 A 12 5 0 0 1 799.099976 332.200012 A 12 5 0 0 1 811.099976 337.200012 Z" fill="#EF4136" transform="matrix(1, 0, 0, 1, -674.7960968017578, -163.0612335205078)"/><path d="M 825.699988 318 A 6.4 10.2 0 0 1 819.299988 328.2 A 6.4 10.2 0 0 1 812.899988 318 A 6.4 10.2 0 0 1 819.299988 307.8 A 6.4 10.2 0 0 1 825.699988 318 Z" fill="#3C2415" transform="matrix(1, 0, 0, 1, -674.7960968017578, -163.0612335205078)"/><path fill="#3C2415" d="M835.9,341c-3.6,0-6.2-2.5-7.2-4.7c-0.4-0.9,0-2,0.9-2.4c0.9-0.4,2,0,2.4,0.9c0.3,0.7,2.2,3.9,6.2,2.1&#10;&#9;&#9;&#9;&#9;c0,0,4.6-2.6,8.7-4.2c0.9-0.4,2,0.1,2.4,1c0.4,0.9-0.1,2-1,2.4c-3.8,1.5-8.3,4-8.3,4.1C838.4,340.8,837.1,341,835.9,341z" transform="matrix(1, 0, 0, 1, -674.7960968017578, -163.0612335205078)"/><path fill="#F8AFB6" d="M951.1,318.9c-0.2-0.8,52.2,36.1,40.7,55.6c0,0-5.6,15.1-36.8-1.9C955,372.6,958.9,350.5,951.1,318.9z" transform="matrix(1, 0, 0, 1, -674.7960968017578, -163.0612335205078)"/><path fill="#3C2415" d="M979.7,382.5c-6.8,0-15.4-2.8-25.6-8.4c-0.7-0.4-1.1-1.2-0.9-1.9c0-0.2,3.8-22.1-3.9-52.9l0,0&#10;&#9;&#9;&#9;&#9;&#9;c-0.2-0.8,0.2-1.6,0.9-2.1c1-0.6,1.5-0.8,10.8,6.4c4.5,3.6,11.3,9.2,17.6,15.7c14.8,15.2,19.8,27.3,14.9,35.9&#10;&#9;&#9;&#9;&#9;&#9;c-0.4,0.8-2.1,4.3-7,6.1C984.5,382.1,982.2,382.5,979.7,382.5z M957,371.6c15.3,8.1,23.7,8,28.1,6.5c3.9-1.4,5-4.1,5-4.2&#10;&#9;&#9;&#9;&#9;&#9;c0-0.1,0.1-0.2,0.1-0.3c1.6-2.7,1.8-5.9,0.7-9.8c-4.4-15.2-27.9-34.1-37-40.7C959.5,348.3,957.7,366.6,957,371.6z" transform="matrix(1, 0, 0, 1, -674.7960968017578, -163.0612335205078)"/><path fill="#F8AFB6" d="M945.1,403.3c0,0-25.3,72.3-52.8,70.6c0,0-15.7,2.4-26.4-30.3C865.9,443.7,922.3,444.1,945.1,403.3z" transform="matrix(1, 0, 0, 1, -674.7960968017578, -163.0612335205078)"/><path fill="#3C2415" d="M891.5,475.8c-3.9,0-17.7-2.2-27.4-31.6c-0.2-0.6-0.1-1.2,0.3-1.6c0.3-0.5,0.8-0.8,1.5-0.8c0,0,0,0,0,0&#10;&#9;&#9;&#9;&#9;&#9;c1.6,0,55.8-0.4,77.5-39.4c0.5-0.8,1.5-1.2,2.3-0.8c0.9,0.4,1.3,1.4,1,2.3c-1,3-25.5,71.9-53.6,71.9c-0.3,0-0.6,0-0.9,0&#10;&#9;&#9;&#9;&#9;&#9;C892.1,475.8,891.9,475.8,891.5,475.8z M868.4,445.4c10.1,28.5,23.4,26.7,23.6,26.7c0.1,0,0.3,0,0.4,0c10.5,0.7,22.6-11,35-33.7&#10;&#9;&#9;&#9;&#9;&#9;c4.2-7.8,7.8-15.6,10.5-21.9C915.3,441.5,878.4,445,868.4,445.4z" transform="matrix(1, 0, 0, 1, -674.7960968017578, -163.0612335205078)"/><path fill="#3C2415" d="M932.3,217.4c4.9,18.4,17.5,31.7,27.7,39.8c5.2-10.1,10.4-21.9,14.1-34.2c1.5-5-2.4-10.1-7.7-9.9&#10;&#9;&#9;&#9;&#9;C958.1,213.5,945.7,214.5,932.3,217.4z" transform="matrix(1, 0, 0, 1, -674.7960968017578, -163.0612335205078)"/><path d="M 907.700012 337.200012 A 12 5 0 0 1 895.700012 342.200012 A 12 5 0 0 1 883.700012 337.200012 A 12 5 0 0 1 895.700012 332.200012 A 12 5 0 0 1 907.700012 337.200012 Z" fill="#EF4136" transform="matrix(1, 0, 0, 1, -674.7960968017578, -163.0612335205078)"/><path d="M 881.999976 318 A 6.4 10.2 0 0 1 875.599976 328.2 A 6.4 10.2 0 0 1 869.199975 318 A 6.4 10.2 0 0 1 875.599976 307.8 A 6.4 10.2 0 0 1 881.999976 318 Z" fill="#3C2415" transform="matrix(1, 0, 0, 1, -674.7960968017578, -163.0612335205078)"/><path fill="#3C2415" d="M859,341.1c-1.1,0-2.4-0.3-3.7-0.9c-0.2-0.1-4.7-2.6-8.5-4.1c-0.9-0.4-1.4-1.4-1-2.4&#10;&#9;&#9;&#9;&#9;c0.4-0.9,1.4-1.4,2.4-1c4.1,1.6,8.6,4.2,8.8,4.3c4,1.8,5.8-1.8,6-2.2c0.4-0.9,1.5-1.3,2.4-0.9c0.9,0.4,1.3,1.5,0.9,2.4&#10;&#9;&#9;&#9;&#9;C865.2,338.5,862.6,341.1,859,341.1z" transform="matrix(1, 0, 0, 1, -674.7960968017578, -163.0612335205078)"/><path fill="#F8AFB6" d="M830.3,228.5c0,0-33.9,12.5-21.9,51.8c0,0,9.1,21.1,31.6,22.9c11.3,0.9,22.6-3.2,29.6-12.1&#10;&#9;&#9;&#9;&#9;&#9;c4.3-5.4,7.7-13.2,6.9-24.3c-0.4-5.5-2.6-10.8-6.6-14.7c-3.3-3.2-8.3-5.8-15.3-4.8c0,0-7,0.7-11.1,6.7c0,0-0.7-18.3,24.2-25.6&#10;&#9;&#9;&#9;&#9;&#9;C867.7,228.5,847.9,225.7,830.3,228.5z" transform="matrix(1, 0, 0, 1, -674.7960968017578, -163.0612335205078)"/><path fill="#3C2415" d="M843.1,305.2c-1.1,0-2.2,0-3.3-0.1c-23.3-1.9-32.8-23.1-33.1-24c-12.4-40.6,22.6-54.1,22.9-54.2&#10;&#9;&#9;&#9;&#9;&#9;c0.1,0,0.2-0.1,0.3-0.1c17.7-2.8,37.1-0.1,38,0c0.9,0.1,1.5,0.8,1.6,1.7c0.1,0.9-0.5,1.6-1.3,1.9c-15.1,4.4-20.2,13-22,18.5&#10;&#9;&#9;&#9;&#9;&#9;c3.9-2.8,8-3.2,8.2-3.2c6.3-0.9,12.1,0.9,16.7,5.3c4.1,4,6.7,9.6,7.1,15.8c0.7,9.9-1.7,18.5-7.2,25.5&#10;&#9;&#9;&#9;&#9;&#9;C864.6,300.5,854.3,305.2,843.1,305.2z M830.8,230.3c-2.7,1.1-31.6,13.4-20.6,49.5c0,0,8.9,19.9,30,21.6&#10;&#9;&#9;&#9;&#9;&#9;c11.2,0.9,21.6-3.4,28-11.4c5-6.3,7.1-14,6.5-23c-0.4-5.4-2.5-10.1-6-13.5c-3.8-3.6-8.4-5.1-13.7-4.3c-0.1,0-6.3,0.7-9.8,5.9&#10;&#9;&#9;&#9;&#9;&#9;c-0.4,0.7-1.3,1-2,0.7c-0.8-0.2-1.3-0.9-1.3-1.7c0-0.2-0.3-15.9,18-24.6C852.5,229,841.2,228.7,830.8,230.3z" transform="matrix(1, 0, 0, 1, -674.7960968017578, -163.0612335205078)"/>
</svg>