<?xml version="1.0" encoding="utf-8"?>
<svg id="master-artboard" viewBox="0 0 1400 980" version="1.1" xmlns="http://www.w3.org/2000/svg" x="0px" y="0px" style="enable-background:new 0 0 1400 980;" width="1400px" height="980px">

<g transform="matrix(0.9999999999999999, 0, 0, 0.9999999999999999, 8.67347080153479, -1.7346941603069865)">
		<path d="M 1021.5 39.900002 H 1343 V 340.000008 H 1021.5 V 39.900002 Z" class="st0" style="fill-rule: evenodd; clip-rule: evenodd; fill: rgb(255, 255, 255);"/>
		<path d="M 700.099976 39.900002 H 1021.599976 V 340.000008 H 700.099976 V 39.900002 Z" class="st1" style="fill-rule: evenodd; clip-rule: evenodd; fill: rgb(0, 77, 149);"/>
		<path d="M 378.5 39.900002 H 700.100006 V 340.000008 H 378.5 V 39.900002 Z" class="st0" style="fill-rule: evenodd; clip-rule: evenodd; fill: rgb(255, 255, 255);"/>
		<path d="M 57 340 H 378.5 V 640.100006 H 57 V 340 Z" class="st0" style="fill-rule: evenodd; clip-rule: evenodd; fill: rgb(255, 255, 255);"/>
		<path d="M 378.5 340 H 700.100006 V 640.100006 H 378.5 V 340 Z" class="st1" style="fill-rule: evenodd; clip-rule: evenodd; fill: rgb(0, 77, 149);"/>
		<path d="M 700.099976 340 H 1021.599976 V 640.100006 H 700.099976 V 340 Z" class="st0" style="fill-rule: evenodd; clip-rule: evenodd; fill: rgb(255, 255, 255);"/>
		<path d="M 57 640.099976 H 378.5 V 940.099976 H 57 V 640.099976 Z" class="st1" style="fill-rule: evenodd; clip-rule: evenodd; fill: rgb(0, 77, 149);"/>
		<path d="M 378.5 640.099976 H 700.100006 V 940.099976 H 378.5 V 640.099976 Z" class="st0" style="fill-rule: evenodd; clip-rule: evenodd; fill: rgb(255, 255, 255);"/>
		<path d="M 700.099976 640.099976 H 1021.599976 V 940.099976 H 700.099976 V 640.099976 Z" class="st1" style="fill-rule: evenodd; clip-rule: evenodd; fill: rgb(0, 77, 149);"/>
		<path d="M 1021.5 340 H 1343 V 640.100006 H 1021.5 V 340 Z" class="st1" style="fill-rule: evenodd; clip-rule: evenodd; fill: rgb(0, 77, 149);"/>
		<path d="M 1021.5 640.099976 H 1343 V 940.099976 H 1021.5 V 640.099976 Z" class="st0" style="fill-rule: evenodd; clip-rule: evenodd; fill: rgb(255, 255, 255);"/>
		<path d="M 57 39.900002 H 378.5 V 340.000008 H 57 V 39.900002 Z" class="st1" style="fill-rule: evenodd; clip-rule: evenodd; fill: rgb(0, 77, 149);"/>
	<path d="M 326.9388427734375 712.0409545898438 L 326.9388427734375 712.0409545898438" style="fill: rgb(252, 211, 10); fill-opacity: 1; stroke: rgb(0, 0, 0); stroke-opacity: 1; stroke-width: 0; paint-order: fill;"/><path d="M 462.2449645996094 604.4898681640625 L 434.4898681640625 594.0817260742188" style="fill: rgb(0, 77, 149); fill-opacity: 1; stroke: rgb(0, 0, 0); stroke-opacity: 1; stroke-width: 0; paint-order: fill;"/><path d="M 1072.8572998046875 602.7551879882812 L 1055.5103759765625 521.2245483398438" style="fill: rgb(0, 77, 149); fill-opacity: 1; stroke: rgb(0, 0, 0); stroke-opacity: 1; stroke-width: 0; paint-order: fill;"/><path d="M 753.673583984375 715.5103149414062" style="fill: rgb(0, 77, 149); fill-opacity: 1; stroke: rgb(0, 0, 0); stroke-opacity: 1; stroke-width: 0; paint-order: fill;"/></g><path class="st2" d="M217.8,285.9c48.2,0,87.6-7.3,87.6-16.1c0-8.9-39.4-16.2-87.6-16.2c-48.3,0-87.6,7.3-87.6,16.2&#10;&#9;&#9;&#9;C130.2,278.6,169.5,285.9,217.8,285.9L217.8,285.9z" style="fill-rule: evenodd; clip-rule: evenodd; fill: rgb(0, 61, 112);" transform="matrix(1, 0, 0, 1, -5.684341886080802e-14, 0)"/><path class="st3" d="M217.8,275.1c48.9,0,88.9-39.9,88.9-88.9c0-49-39.9-89-88.9-89c-49,0-89,39.9-89,89&#10;&#9;&#9;&#9;C128.8,235.2,168.8,275.1,217.8,275.1L217.8,275.1z" style="fill-rule: evenodd; clip-rule: evenodd; fill: rgb(223, 31, 38);" transform="matrix(1, 0, 0, 1, -5.684341886080802e-14, 0)"/><path class="st0" d="M306.3,194.6c-4.2,45.1-42.2,80.5-88.5,80.5s-84.4-35.4-88.5-80.5c10,6.4,22.7,13.2,34.8,16.3&#10;&#9;&#9;&#9;c26.1,6.6,29.3,6.2,29.3,6.2c3.6-32.1,45.2-32.1,48.8,0c0,0,3.1,0.4,29.2-6.2C283.5,207.9,296.2,201,306.3,194.6L306.3,194.6z" style="fill-rule: evenodd; clip-rule: evenodd; fill: rgb(255, 255, 255);" transform="matrix(1, 0, 0, 1, -5.684341886080802e-14, 0)"/><path class="st4" d="M217.8,102.7c40.1,0,72.7,37.4,72.7,83.5c0,6.5-0.7,12.8-1.8,18.9c-32.5,19.6-109.3,19.6-141.7,0&#10;&#9;&#9;&#9;c-1.3-6.1-2-12.4-2-18.9C145,140.2,177.6,102.7,217.8,102.7L217.8,102.7z" style="fill-rule: evenodd; clip-rule: evenodd; fill: rgb(192, 32, 38);" transform="matrix(1, 0, 0, 1, -5.684341886080802e-14, 0)"/><path class="st5" d="M288.7,204.4c-7.2,37.4-36.2,65.4-71,65.4s-63.8-28-71.1-65.4c5.8,2.7,11.6,5.1,17.4,6.5&#10;&#9;&#9;&#9;c26.1,6.6,29.3,6.2,29.3,6.2c3.6-32.1,45.2-32.1,48.8,0c0,0,3.1,0.4,29.2-6.2C277.1,209.5,283.1,207.1,288.7,204.4L288.7,204.4z" style="fill-rule: evenodd; clip-rule: evenodd; fill: rgb(229, 230, 231);" transform="matrix(1, 0, 0, 1, -5.684341886080802e-14, 0)"/><path class="st6" d="M217.8,94c50.9,0,92.1,41.3,92.1,92.2s-41.2,92.1-92.1,92.1s-92.2-41.2-92.2-92.1S166.9,94,217.8,94L217.8,94&#10;&#9;&#9;&#9;z M300,200.5c-4.2,3-8.8,5.5-13.1,7.6c-12.7,6-27.2,9.7-41.8,11.6c-1.2,14.1-12.9,25.2-27.3,25.2s-26.3-11.1-27.3-25.2&#10;&#9;&#9;&#9;c-14.5-2-29.1-5.6-41.8-11.6c-4.4-2.1-9-4.6-13.2-7.6c6.8,39.4,41,69.3,82.3,69.3C259,269.8,293.3,239.9,300,200.5L300,200.5z&#10;&#9;&#9;&#9; M134.5,192.5c11.7,10.2,31.9,18,56.1,21.4c1.8-13.3,13.3-23.8,27.2-23.8s25.4,10.4,27.1,23.8c24.3-3.4,44.5-11.2,56.1-21.4&#10;&#9;&#9;&#9;c0.2-2.1,0.3-4.1,0.3-6.2c0-46.1-37.4-83.5-83.5-83.5s-83.5,37.4-83.5,83.5C134.2,188.3,134.4,190.4,134.5,192.5L134.5,192.5z&#10;&#9;&#9;&#9; M217.8,208.8c6.8,0,12.4,5.5,12.4,12.3c0,6.8-5.5,12.4-12.4,12.4s-12.4-5.5-12.4-12.4C205.4,214.4,211,208.8,217.8,208.8&#10;&#9;&#9;&#9;L217.8,208.8z M217.8,214.6c3.6,0,6.6,2.9,6.6,6.5c0,3.7-3,6.6-6.6,6.6c-3.7,0-6.6-2.9-6.6-6.6&#10;&#9;&#9;&#9;C211.2,217.5,214.1,214.6,217.8,214.6L217.8,214.6z M217.8,195.8c11.9,0,21.6,9.8,21.6,21.7c0,11.9-9.7,21.6-21.6,21.6&#10;&#9;&#9;&#9;s-21.7-9.7-21.7-21.6C196.1,205.6,205.9,195.8,217.8,195.8L217.8,195.8z" style="fill-rule: evenodd; clip-rule: evenodd; fill: rgb(1, 1, 1);" transform="matrix(1, 0, 0, 1, -5.684341886080802e-14, 0)"/><path class="st3" d="M217.8,102.7c15.1,0,27.3,6,27.3,13.3c0,7.4-12.3,13.3-27.3,13.3c-15.2,0-27.3-6-27.3-13.3&#10;&#9;&#9;&#9;C190.4,108.7,202.6,102.7,217.8,102.7L217.8,102.7z" style="fill-rule: evenodd; clip-rule: evenodd; fill: rgb(223, 31, 38);" transform="matrix(1, 0, 0, 1, -5.684341886080802e-14, 0)"/><path class="st3" d="M217.8,139.1c4.8,0,8.8,1.8,8.8,4.2s-4,4.3-8.8,4.3c-4.9,0-8.8-2-8.8-4.3S212.9,139.1,217.8,139.1&#10;&#9;&#9;&#9;L217.8,139.1z" style="fill-rule: evenodd; clip-rule: evenodd; fill: rgb(223, 31, 38);" transform="matrix(1, 0, 0, 1, -5.684341886080802e-14, 0)"/><path class="st5" d="M539.3,285.9c48.2,0,87.6-7.3,87.6-16.1c0-8.9-39.4-16.2-87.6-16.2c-48.2,0-87.6,7.3-87.6,16.2&#10;&#9;&#9;&#9;C451.7,278.6,491.1,285.9,539.3,285.9L539.3,285.9z" style="fill-rule: evenodd; clip-rule: evenodd; fill: rgb(229, 230, 231);" transform="matrix(1, 0, 0, 1, -5.684341886080802e-14, 0)"/><path class="st7" d="M539.3,275.1c49,0,89-39.9,89-88.9c0-49-39.9-89-89-89c-48.9,0-89,39.9-89,89&#10;&#9;&#9;&#9;C450.3,235.2,490.3,275.1,539.3,275.1L539.3,275.1z" style="fill-rule: evenodd; clip-rule: evenodd; fill: rgb(88, 89, 91);" transform="matrix(1, 0, 0, 1, -5.684341886080802e-14, 0)"/><path class="st6" d="M539.3,102.7c40.1,0,72.8,37.4,72.8,83.5s-32.7,83.5-72.8,83.5c-40.1,0-72.7-37.4-72.7-83.5&#10;&#9;&#9;&#9;S499.1,102.7,539.3,102.7L539.3,102.7z" style="fill-rule: evenodd; clip-rule: evenodd; fill: rgb(1, 1, 1);" transform="matrix(1, 0, 0, 1, -5.684341886080802e-14, 0)"/><path class="st1" d="M601.5,139v94.8H477V139C477,90.7,601.5,90.7,601.5,139L601.5,139z M580.1,153.8v73.7h-81.6v-73.7&#10;&#9;&#9;&#9;C498.5,122.7,580.1,122.7,580.1,153.8L580.1,153.8z" style="fill-rule: evenodd; clip-rule: evenodd; fill: rgb(252, 211, 10);" transform="matrix(1, 0, 0, 1, -5.684341886080802e-14, 0)"/><path class="st2" d="M601.5,143.1v86.4c-0.8,1.5-1.6,2.9-2.5,4.3H479.5c-0.9-1.4-1.7-2.8-2.5-4.3v-86.4&#10;&#9;&#9;&#9;c12.8-24.2,35.9-40.4,62.3-40.4l0,0l0,0C565.7,102.7,588.8,118.9,601.5,143.1L601.5,143.1z M580.1,153.8v73.7h-81.6v-73.7&#10;&#9;&#9;&#9;C498.5,122.7,580.1,122.7,580.1,153.8L580.1,153.8z" style="fill-rule: evenodd; clip-rule: evenodd; fill: rgb(251, 186, 20);" transform="matrix(1, 0, 0, 1, -5.684341886080802e-14, 0)"/><path class="st0" d="M627.8,194.6c-4.2,45.1-42.2,80.5-88.5,80.5s-84.3-35.4-88.5-80.5c10.1,6.4,22.7,13.2,34.9,16.3&#10;&#9;&#9;&#9;c26,6.6,29.2,6.2,29.2,6.2c3.6-32.1,45.2-32.1,48.8,0c0,0,3.1,0.4,29.2-6.2C605.1,207.9,617.8,201,627.8,194.6L627.8,194.6z" style="fill-rule: evenodd; clip-rule: evenodd; fill: rgb(255, 255, 255);" transform="matrix(1, 0, 0, 1, -5.684341886080802e-14, 0)"/><path class="st5" d="M610.3,204.4c-7.3,37.4-36.3,65.4-71.1,65.4c-34.7,0-63.8-28-71-65.4c5.6,2.7,11.5,5.1,17.4,6.5&#10;&#9;&#9;&#9;c26,6.6,29.2,6.2,29.2,6.2c3.6-32.1,45.2-32.1,48.8,0c0,0,3.1,0.4,29.2-6.2C598.7,209.5,604.6,207.1,610.3,204.4L610.3,204.4z" style="fill-rule: evenodd; clip-rule: evenodd; fill: rgb(229, 230, 231);" transform="matrix(1, 0, 0, 1, -5.684341886080802e-14, 0)"/><path class="st6" d="M539.3,94c50.9,0,92.2,41.3,92.2,92.2s-41.3,92.1-92.2,92.1c-50.9,0-92.1-41.2-92.1-92.1S488.4,94,539.3,94&#10;&#9;&#9;&#9;L539.3,94z M621.6,200.5c-4.2,3-8.9,5.5-13.2,7.6c-12.7,6-27.2,9.7-41.8,11.6c-1.1,14.1-12.9,25.2-27.3,25.2&#10;&#9;&#9;&#9;c-14.4,0-26.1-11.1-27.3-25.2c-14.5-2-29.1-5.6-41.8-11.6c-4.3-2.1-8.9-4.6-13.1-7.6c6.7,39.4,41,69.3,82.2,69.3&#10;&#9;&#9;&#9;C580.5,269.8,614.8,239.9,621.6,200.5L621.6,200.5z M455.9,192.5c11.7,10.2,31.9,18,56.2,21.4c1.7-13.3,13.2-23.8,27.1-23.8&#10;&#9;&#9;&#9;c13.9,0,25.4,10.4,27.1,23.8c24.3-3.4,44.5-11.2,56.2-21.4c0.1-2.1,0.2-4.1,0.2-6.2c0-46.1-37.4-83.5-83.5-83.5&#10;&#9;&#9;&#9;c-46.1,0-83.5,37.4-83.5,83.5C455.7,188.3,455.8,190.4,455.9,192.5L455.9,192.5z M539.3,208.8c6.8,0,12.4,5.5,12.4,12.3&#10;&#9;&#9;&#9;c0,6.8-5.5,12.4-12.4,12.4c-6.8,0-12.4-5.5-12.4-12.4C526.9,214.4,532.4,208.8,539.3,208.8L539.3,208.8z M539.3,214.6&#10;&#9;&#9;&#9;c3.7,0,6.6,2.9,6.6,6.5c0,3.7-2.9,6.6-6.6,6.6c-3.6,0-6.6-2.9-6.6-6.6C532.6,217.5,535.7,214.6,539.3,214.6L539.3,214.6z&#10;&#9;&#9;&#9; M539.3,195.8c11.9,0,21.6,9.8,21.6,21.7c0,11.9-9.7,21.6-21.6,21.6c-11.9,0-21.6-9.7-21.6-21.6&#10;&#9;&#9;&#9;C517.7,205.6,527.3,195.8,539.3,195.8L539.3,195.8z" style="fill-rule: evenodd; clip-rule: evenodd; fill: rgb(1, 1, 1);" transform="matrix(1, 0, 0, 1, -5.684341886080802e-14, 0)"/><path class="st1" d="M539.3,102.7c15.1,0,27.3,6,27.3,13.3c0,7.4-12.3,13.3-27.3,13.3c-15.1,0-27.3-6-27.3-13.3&#10;&#9;&#9;&#9;C511.9,108.7,524.2,102.7,539.3,102.7L539.3,102.7z" style="fill-rule: evenodd; clip-rule: evenodd; fill: rgb(252, 211, 10);" transform="matrix(1, 0, 0, 1, -5.684341886080802e-14, 0)"/><path class="st7" d="M539.3,139.1c4.9,0,8.8,1.8,8.8,4.2s-3.9,4.3-8.8,4.3c-4.9,0-8.8-2-8.8-4.3S534.4,139.1,539.3,139.1&#10;&#9;&#9;&#9;L539.3,139.1z" style="fill-rule: evenodd; clip-rule: evenodd; fill: rgb(88, 89, 91);" transform="matrix(1, 0, 0, 1, -5.684341886080802e-14, 0)"/><path class="st2" d="M860.7,285.9c48.3,0,87.6-7.3,87.6-16.1c0-8.9-39.3-16.2-87.6-16.2c-48.2,0-87.4,7.3-87.4,16.2&#10;&#9;&#9;&#9;C773.3,278.6,812.6,285.9,860.7,285.9L860.7,285.9z" style="fill-rule: evenodd; clip-rule: evenodd; fill: rgb(0, 61, 112);" transform="matrix(1, 0, 0, 1, -5.684341886080802e-14, 0)"/><path class="st8" d="M860.7,275.1c49,0,89-39.9,89-88.9c0-49-39.9-89-89-89c-48.9,0-88.9,39.9-88.9,89&#10;&#9;&#9;&#9;C771.9,235.2,811.8,275.1,860.7,275.1L860.7,275.1z" style="fill-rule: evenodd; clip-rule: evenodd; fill: rgb(203, 65, 151);" transform="matrix(1, 0, 0, 1, -5.684341886080802e-14, 0)"/><path class="st9" d="M860.7,102.7c40.3,0,72.8,37.4,72.8,83.5s-32.5,83.5-72.8,83.5c-40.1,0-72.7-37.4-72.7-83.5&#10;&#9;&#9;&#9;S820.6,102.7,860.7,102.7L860.7,102.7z" style="fill-rule: evenodd; clip-rule: evenodd; fill: rgb(185, 41, 144);" transform="matrix(1, 0, 0, 1, -5.684341886080802e-14, 0)"/><path class="st8" d="M860.7,102.7c15.2,0,27.4,6,27.4,13.3c0,7.4-12.3,13.3-27.4,13.3c-15.1,0-27.3-6-27.3-13.3&#10;&#9;&#9;&#9;C833.4,108.7,845.7,102.7,860.7,102.7L860.7,102.7z" style="fill-rule: evenodd; clip-rule: evenodd; fill: rgb(203, 65, 151);" transform="matrix(1, 0, 0, 1, -5.684341886080802e-14, 0)"/><path class="st10" d="M860.7,232.1c-18.9-15.2-38.5-27.3-51.9-42.6c-47.6-54.6,21.4-106.7,51.9-57.6c30.6-49,99.6,3,52,57.6&#10;&#9;&#9;&#9;C899.4,204.7,879.6,216.9,860.7,232.1L860.7,232.1z" style="fill: rgb(255, 255, 255);" transform="matrix(1, 0, 0, 1, -5.684341886080802e-14, 0)"/><path class="st11" d="M894.7,112.4c-2.5-0.2-5-0.1-7.5,0.2c0.7,1.1,1,2.3,1,3.5c0,7.1-11.4,12.9-25.7,13.3&#10;&#9;&#9;&#9;&#9;c-0.7,0.8-1.2,1.6-1.7,2.4c-0.4-0.8-1.1-1.6-1.6-2.4c-14.3-0.4-25.7-6.3-25.7-13.3c0-1.2,0.3-2.4,1-3.5c-2.5-0.3-5-0.4-7.5-0.2&#10;&#9;&#9;&#9;&#9;c-15.5,9.3-27.7,25-34.1,43.9c1.2,10.3,6.1,21.6,16.1,33.1c13.3,15.3,33,27.4,51.9,42.6c18.9-15.2,38.6-27.3,52-42.6&#10;&#9;&#9;&#9;&#9;c10-11.5,14.9-22.8,16.1-33.1C922.4,137.3,910.2,121.7,894.7,112.4z" style="fill: rgb(229, 230, 231);" transform="matrix(1, 0, 0, 1, -8.526512829121202e-14, 0)"/><path class="st11" d="M870.7,120.3l0.8-0.7C871.2,119.9,870.9,120.1,870.7,120.3z" style="fill: rgb(229, 230, 231);" transform="matrix(1, 0, 0, 1, -8.526512829121202e-14, 0)"/><path class="st12" d="M860.7,224.8c-16.6-13.3-34-24-45.7-37.4c-41.9-48.1,18.8-93.8,45.7-50.7c26.9-43.2,87.7,2.6,45.8,50.7&#10;&#9;&#9;&#9;C894.7,200.8,877.3,211.4,860.7,224.8L860.7,224.8z" style="fill: rgb(222, 34, 68);" transform="matrix(1, 0, 0, 1, -5.684341886080802e-14, 0)"/><path class="st0" d="M860.7,151.5L860.7,151.5c3,0,5.4,2.4,5.4,5.3v21.7c0,2.9-2.4,5.4-5.4,5.4l0,0c-2.9,0-5.3-2.5-5.3-5.4v-21.7&#10;&#9;&#9;&#9;C855.4,153.9,857.8,151.5,860.7,151.5L860.7,151.5z" style="fill-rule: evenodd; clip-rule: evenodd; fill: rgb(255, 255, 255);" transform="matrix(1, 0, 0, 1, -5.684341886080802e-14, 0)"/><path class="st0" d="M949.4,194.6c-4.2,45.1-42.3,80.5-88.6,80.5c-46.2,0-84.3-35.4-88.5-80.5c10.1,6.4,22.8,13.2,34.9,16.3&#10;&#9;&#9;&#9;c26,6.6,29.2,6.2,29.2,6.2c3.6-32.1,45.2-32.1,48.8,0c0,0,3.1,0.4,29.3-6.2C926.6,207.9,939.3,201,949.4,194.6L949.4,194.6z" style="fill-rule: evenodd; clip-rule: evenodd; fill: rgb(255, 255, 255);" transform="matrix(1, 0, 0, 1, -5.684341886080802e-14, 0)"/><path class="st5" d="M931.8,204.4c-7.3,37.4-36.2,65.4-71.1,65.4c-34.7,0-63.7-28-71-65.4c5.6,2.7,11.6,5.1,17.4,6.5&#10;&#9;&#9;&#9;c26,6.6,29.2,6.2,29.2,6.2c3.6-32.1,45.2-32.1,48.8,0c0,0,3.1,0.4,29.3-6.2C920.2,209.5,926.2,207.1,931.8,204.4L931.8,204.4z" style="fill-rule: evenodd; clip-rule: evenodd; fill: rgb(229, 230, 231);" transform="matrix(1, 0, 0, 1, -5.684341886080802e-14, 0)"/><path class="st13" d="M860.7,139.1c4.9,0,8.8,1.8,8.8,4.2s-3.9,4.3-8.8,4.3c-4.8,0-8.8-2-8.8-4.3S856,139.1,860.7,139.1&#10;&#9;&#9;&#9;L860.7,139.1z M834.4,119.4c7.1,0.3,14.2,3.4,20.5,9.7C844.9,128,837,124.3,834.4,119.4L834.4,119.4z M866.7,129.1&#10;&#9;&#9;&#9;c6.3-6.3,13.5-9.3,20.5-9.7C884.6,124.3,876.7,128,866.7,129.1L866.7,129.1z" style="fill-rule: evenodd; clip-rule: evenodd; fill: rgb(238, 41, 74);" transform="matrix(1, 0, 0, 1, -5.684341886080802e-14, 0)"/><path class="st6" d="M860.7,94c51,0,92.2,41.3,92.2,92.2s-41.2,92.1-92.2,92.1c-50.9,0-92.1-41.2-92.1-92.1S809.9,94,860.7,94&#10;&#9;&#9;&#9;L860.7,94z M943.1,200.5c-4.2,3-8.8,5.5-13.1,7.6c-12.8,6-27.3,9.7-41.9,11.6c-1.1,14.1-12.9,25.2-27.3,25.2&#10;&#9;&#9;&#9;c-14.3,0-26.1-11.1-27.2-25.2c-14.6-2-29.1-5.6-41.9-11.6c-4.3-2.1-8.9-4.6-13.1-7.6c6.7,39.4,41,69.3,82.2,69.3&#10;&#9;&#9;&#9;C902.1,269.8,936.4,239.9,943.1,200.5L943.1,200.5z M777.5,192.5c11.7,10.2,31.8,18,56.1,21.4c1.8-13.3,13.2-23.8,27.1-23.8&#10;&#9;&#9;&#9;c13.9,0,25.4,10.4,27.2,23.8c24.2-3.4,44.4-11.2,56.1-21.4c0.2-2.1,0.2-4.1,0.2-6.2c0-46.1-37.3-83.5-83.5-83.5&#10;&#9;&#9;&#9;c-46.1,0-83.4,37.4-83.4,83.5C777.3,188.3,777.3,190.4,777.5,192.5L777.5,192.5z M860.7,208.8c6.8,0,12.4,5.5,12.4,12.3&#10;&#9;&#9;&#9;c0,6.8-5.5,12.4-12.4,12.4c-6.7,0-12.4-5.5-12.4-12.4C848.4,214.4,854,208.8,860.7,208.8L860.7,208.8z M860.7,214.6&#10;&#9;&#9;&#9;c3.7,0,6.6,2.9,6.6,6.5c0,3.7-2.9,6.6-6.6,6.6c-3.6,0-6.5-2.9-6.5-6.6C854.2,217.5,857.2,214.6,860.7,214.6L860.7,214.6z&#10;&#9;&#9;&#9; M860.7,195.8c12,0,21.7,9.8,21.7,21.7c0,11.9-9.7,21.6-21.7,21.6c-11.9,0-21.6-9.7-21.6-21.6&#10;&#9;&#9;&#9;C839.1,205.6,848.8,195.8,860.7,195.8L860.7,195.8z" style="fill-rule: evenodd; clip-rule: evenodd; fill: rgb(1, 1, 1);" transform="matrix(1, 0, 0, 1, -5.684341886080802e-14, 0)"/><path class="st5" d="M1182.3,285.9c48.2,0,87.6-7.3,87.6-16.1c0-8.9-39.4-16.2-87.6-16.2c-48.3,0-87.6,7.3-87.6,16.2&#10;&#9;&#9;&#9;C1094.8,278.6,1134,285.9,1182.3,285.9L1182.3,285.9z" style="fill-rule: evenodd; clip-rule: evenodd; fill: rgb(229, 230, 231);" transform="matrix(1, 0, 0, 1, -5.684341886080802e-14, 0)"/><path class="st1" d="M1182.3,275.1c48.9,0,88.9-39.9,88.9-88.9c0-49-39.9-89-88.9-89c-49,0-89,39.9-89,89&#10;&#9;&#9;&#9;C1093.4,235.2,1133.3,275.1,1182.3,275.1L1182.3,275.1z" style="fill-rule: evenodd; clip-rule: evenodd; fill: rgb(252, 211, 10);" transform="matrix(1, 0, 0, 1, -5.684341886080802e-14, 0)"/><path class="st14" d="M1182.3,102.7c40.1,0,72.7,37.4,72.7,83.5s-32.5,83.5-72.7,83.5c-40.1,0-72.8-37.4-72.8-83.5&#10;&#9;&#9;&#9;S1142.2,102.7,1182.3,102.7L1182.3,102.7z" style="fill-rule: evenodd; clip-rule: evenodd; fill: rgb(251, 179, 23);" transform="matrix(1, 0, 0, 1, -5.684341886080802e-14, 0)"/><path class="st0" d="M1270.9,194.6c-4.2,45.1-42.2,80.5-88.5,80.5c-46.3,0-84.4-35.4-88.5-80.5c10,6.4,22.7,13.2,34.8,16.3&#10;&#9;&#9;&#9;c26.1,6.6,29.3,6.2,29.3,6.2c3.6-32.1,45.2-32.1,48.8,0c0,0,3.1,0.4,29.2-6.2C1248.1,207.9,1260.8,201,1270.9,194.6L1270.9,194.6z&#10;&#9;&#9;&#9;" style="fill-rule: evenodd; clip-rule: evenodd; fill: rgb(255, 255, 255);" transform="matrix(1, 0, 0, 1, -5.684341886080802e-14, 0)"/><path class="st5" d="M1253.3,204.4c-7.2,37.4-36.2,65.4-71,65.4c-34.7,0-63.8-28-71.1-65.4c5.8,2.7,11.6,5.1,17.4,6.5&#10;&#9;&#9;&#9;c26.1,6.6,29.3,6.2,29.3,6.2c3.6-32.1,45.2-32.1,48.8,0c0,0,3.1,0.4,29.2-6.2C1241.7,209.5,1247.6,207.1,1253.3,204.4&#10;&#9;&#9;&#9;L1253.3,204.4z" style="fill-rule: evenodd; clip-rule: evenodd; fill: rgb(229, 230, 231);" transform="matrix(1, 0, 0, 1, -5.684341886080802e-14, 0)"/><path class="st6" d="M1182.3,94c50.9,0,92.1,41.3,92.1,92.2s-41.2,92.1-92.1,92.1c-50.9,0-92.2-41.2-92.2-92.1&#10;&#9;&#9;&#9;S1131.4,94,1182.3,94L1182.3,94z M1264.6,200.5c-4.2,3-8.8,5.5-13.1,7.6c-12.7,6-27.2,9.7-41.8,11.6&#10;&#9;&#9;&#9;c-1.2,14.1-12.9,25.2-27.3,25.2s-26.3-11.1-27.3-25.2c-14.5-2-29.1-5.6-41.8-11.6c-4.4-2.1-9-4.6-13.2-7.6&#10;&#9;&#9;&#9;c6.8,39.4,41,69.3,82.3,69.3C1223.5,269.8,1257.8,239.9,1264.6,200.5L1264.6,200.5z M1099,192.5c11.7,10.2,31.9,18,56.1,21.4&#10;&#9;&#9;&#9;c1.8-13.3,13.3-23.8,27.2-23.8c13.9,0,25.4,10.4,27.1,23.8c24.3-3.4,44.5-11.2,56.1-21.4c0.2-2.1,0.3-4.1,0.3-6.2&#10;&#9;&#9;&#9;c0-46.1-37.4-83.5-83.5-83.5c-46.1,0-83.5,37.4-83.5,83.5C1098.8,188.3,1098.9,190.4,1099,192.5L1099,192.5z M1182.3,208.8&#10;&#9;&#9;&#9;c6.8,0,12.4,5.5,12.4,12.3c0,6.8-5.5,12.4-12.4,12.4s-12.4-5.5-12.4-12.4C1169.9,214.4,1175.5,208.8,1182.3,208.8L1182.3,208.8z&#10;&#9;&#9;&#9; M1182.3,214.6c3.6,0,6.6,2.9,6.6,6.5c0,3.7-3,6.6-6.6,6.6c-3.7,0-6.6-2.9-6.6-6.6C1175.7,217.5,1178.6,214.6,1182.3,214.6&#10;&#9;&#9;&#9;L1182.3,214.6z M1182.3,195.8c11.9,0,21.6,9.8,21.6,21.7c0,11.9-9.7,21.6-21.6,21.6c-11.9,0-21.7-9.7-21.7-21.6&#10;&#9;&#9;&#9;C1160.6,205.6,1170.4,195.8,1182.3,195.8L1182.3,195.8z" style="fill-rule: evenodd; clip-rule: evenodd; fill: rgb(1, 1, 1);" transform="matrix(1, 0, 0, 1, -5.684341886080802e-14, 0)"/><path class="st1" d="M1182.3,102.7c15.1,0,27.3,6,27.3,13.3c0,7.4-12.3,13.3-27.3,13.3c-15.2,0-27.3-6-27.3-13.3&#10;&#9;&#9;&#9;C1155,108.7,1167.1,102.7,1182.3,102.7L1182.3,102.7z" style="fill-rule: evenodd; clip-rule: evenodd; fill: rgb(252, 211, 10);" transform="matrix(1, 0, 0, 1, -5.684341886080802e-14, 0)"/><path class="st1" d="M1182.3,139.1c4.8,0,8.8,1.8,8.8,4.2s-4,4.3-8.8,4.3c-4.9,0-8.8-2-8.8-4.3S1177.4,139.1,1182.3,139.1&#10;&#9;&#9;&#9;L1182.3,139.1z" style="fill-rule: evenodd; clip-rule: evenodd; fill: rgb(252, 211, 10);" transform="matrix(1, 0, 0, 1, -5.684341886080802e-14, 0)"/><path class="st1" d="M1168.1,159.5c2.6-0.5,4.7-2.3,3.4-4.1c-1.2-1.7-9.4-0.4-14.5,4.3c-5,4.8-10.4,15.8-5.1,22.1&#10;&#9;&#9;&#9;c2,2.4,5.6,3.1,11.5,2.3c2.8-0.4,3.5-4.3-1-4.9c-1.6-0.1-3.4,0-4.6-0.4C1151.9,176.6,1157.7,161.5,1168.1,159.5L1168.1,159.5z" style="fill-rule: evenodd; clip-rule: evenodd; fill: rgb(252, 211, 10);" transform="matrix(1, 0, 0, 1, -5.684341886080802e-14, 0)"/><path class="st1" d="M1169.3,168.3c-5.9,0.4-4.7,4.6-1.8,4.6c3,0.1,5,0.2,5.4,4.1c0.3,3.9,0.3,7.9,3.3,7.5&#10;&#9;&#9;&#9;c1.8-0.2,2.4-3.5,2.1-7.4C1177.8,169.9,1176.4,167.8,1169.3,168.3L1169.3,168.3z" style="fill-rule: evenodd; clip-rule: evenodd; fill: rgb(252, 211, 10);" transform="matrix(1, 0, 0, 1, -5.684341886080802e-14, 0)"/><path class="st1" d="M1199,179.9c1.4,0.7,3.9,1.4,6.8,1c4.4-0.7,4.4-4.8,1.8-6.3c-3.8-2.1-2.4-8.1,2.8-4c2.3,1.8,4.4,5.1,3.6,8.9&#10;&#9;&#9;&#9;c-1.6,7.2-10.8,8.6-15.9,6.7C1192.3,184.1,1194.7,178,1199,179.9L1199,179.9z" style="fill-rule: evenodd; clip-rule: evenodd; fill: rgb(252, 211, 10);" transform="matrix(1, 0, 0, 1, -5.684341886080802e-14, 0)"/><path class="st1" d="M1192.8,163c-0.3,1.8-0.4,3.6-0.2,5c0.5,4.2,5.3,5.9,5.6,0.8c0.1-1,0.1-2.4,0.3-4.1c0.4-3.5,4.3-5.9,11-4.4&#10;&#9;&#9;&#9;c2.9,0.5,3.9,0.9,4.7,0.2c1.1-0.8,1.3-2.6-1.7-4C1204.5,152.8,1194.4,152.7,1192.8,163L1192.8,163z" style="fill-rule: evenodd; clip-rule: evenodd; fill: rgb(252, 211, 10);" transform="matrix(1, 0, 0, 1, -5.684341886080802e-14, 0)"/><path class="st2" d="M539.3,586c48.2,0,87.6-7.3,87.6-16.2c0-8.8-39.4-16.1-87.6-16.1c-48.2,0-87.6,7.3-87.6,16.1&#10;&#9;&#9;&#9;C451.7,578.7,491.1,586,539.3,586L539.3,586z" style="fill-rule: evenodd; clip-rule: evenodd; fill: rgb(0, 61, 112);" transform="matrix(1, 0, 0, 1, -5.684341886080802e-14, 0)"/><path class="st3" d="M539.3,575.2c49,0,89-39.9,89-88.9c0-49-39.9-89-89-89c-48.9,0-89,39.9-89,89&#10;&#9;&#9;&#9;C450.3,535.3,490.3,575.2,539.3,575.2L539.3,575.2z" style="fill-rule: evenodd; clip-rule: evenodd; fill: rgb(223, 31, 38);" transform="matrix(1, 0, 0, 1, -5.684341886080802e-14, 0)"/><path class="st0" d="M627.8,494.6c-4.2,45.2-42.2,80.6-88.5,80.6s-84.3-35.4-88.5-80.6c10.1,6.4,22.7,13.2,34.9,16.4&#10;&#9;&#9;&#9;c26,6.6,29.2,6.2,29.2,6.2c3.6-32.1,45.2-32.1,48.8,0c0,0,3.1,0.4,29.2-6.2C605.1,507.8,617.8,501,627.8,494.6L627.8,494.6z" style="fill-rule: evenodd; clip-rule: evenodd; fill: rgb(255, 255, 255);" transform="matrix(1, 0, 0, 1, -5.684341886080802e-14, 0)"/><path class="st4" d="M539.3,402.8c40.1,0,72.8,37.3,72.8,83.5c0,6.4-0.7,12.8-2,18.9c-32.4,19.5-109.3,19.5-141.7,0&#10;&#9;&#9;&#9;c-1.2-6.1-1.8-12.5-1.8-18.9C466.6,440.1,499.1,402.8,539.3,402.8L539.3,402.8z" style="fill-rule: evenodd; clip-rule: evenodd; fill: rgb(192, 32, 38);" transform="matrix(1, 0, 0, 1, -5.684341886080802e-14, 0)"/><path class="st3" d="M539.3,402.8c15.1,0,27.3,6,27.3,13.3c0,7.4-12.3,13.3-27.3,13.3c-15.1,0-27.3-6-27.3-13.3&#10;&#9;&#9;&#9;C511.9,408.8,524.2,402.8,539.3,402.8L539.3,402.8z" style="fill-rule: evenodd; clip-rule: evenodd; fill: rgb(223, 31, 38);" transform="matrix(1, 0, 0, 1, -5.684341886080802e-14, 0)"/><path class="st2" d="M539.3,408.2c18.2,0,33.4,12.9,37,30.1h-13.8c-3.3-9.7-12.5-16.7-23.2-16.7c-10.7,0-20,7.1-23.1,16.7h-13.9&#10;&#9;&#9;&#9;C505.8,421.2,521,408.2,539.3,408.2L539.3,408.2z M539.3,435.3c6,0,10.7,4.9,10.7,10.8c0,5.9-4.8,10.7-10.7,10.7&#10;&#9;&#9;&#9;c-6,0-10.7-4.9-10.7-10.7C528.5,440.1,533.3,435.3,539.3,435.3L539.3,435.3z M576.3,453.8c-3.6,17.1-18.8,30.1-37,30.1&#10;&#9;&#9;&#9;s-33.4-12.9-37-30.1h13.9c3.1,9.7,12.4,16.7,23.1,16.7c10.7,0,20-7.1,23.2-16.7H576.3z" style="fill-rule: evenodd; clip-rule: evenodd; fill: rgb(251, 186, 20);" transform="matrix(1, 0, 0, 1, -5.684341886080802e-14, 0)"/><path class="st1" d="M539.3,408.2c10.4,0,19.7,4.2,26.6,11c-1.5,3.3-5.6,6.1-11.2,7.9c-4.1-3.5-9.5-5.5-15.4-5.5&#10;&#9;&#9;&#9;c-5.9,0-11.2,2.1-15.4,5.5c-5.5-1.8-9.5-4.7-11.2-7.9C519.5,412.5,528.8,408.2,539.3,408.2L539.3,408.2z" style="fill-rule: evenodd; clip-rule: evenodd; fill: rgb(252, 211, 10);" transform="matrix(1, 0, 0, 1, -5.684341886080802e-14, 0)"/><path class="st5" d="M610.3,504.5c-7.3,37.4-36.3,65.3-71.1,65.3c-34.7,0-63.8-27.9-71-65.3c5.6,2.7,11.5,5,17.4,6.5&#10;&#9;&#9;&#9;c26,6.6,29.2,6.2,29.2,6.2c3.6-32.1,45.2-32.1,48.8,0c0,0,3.1,0.4,29.2-6.2C598.7,509.5,604.6,507.2,610.3,504.5L610.3,504.5z" style="fill-rule: evenodd; clip-rule: evenodd; fill: rgb(229, 230, 231);" transform="matrix(1, 0, 0, 1, -5.684341886080802e-14, 0)"/><path class="st6" d="M539.3,394.1c50.9,0,92.2,41.2,92.2,92.2c0,50.9-41.3,92.1-92.2,92.1c-50.9,0-92.1-41.2-92.1-92.1&#10;&#9;&#9;&#9;C447.2,435.4,488.4,394.1,539.3,394.1L539.3,394.1z M621.6,500.6c-4.2,3-8.9,5.5-13.2,7.6c-12.7,5.9-27.2,9.5-41.8,11.5&#10;&#9;&#9;&#9;c-1.1,14.2-12.9,25.3-27.3,25.3c-14.4,0-26.1-11.1-27.3-25.3c-14.5-2-29.1-5.6-41.8-11.5c-4.3-2.1-8.9-4.6-13.1-7.6&#10;&#9;&#9;&#9;c6.7,39.4,41,69.2,82.2,69.2C580.5,569.8,614.8,540,621.6,500.6L621.6,500.6z M455.9,492.5c11.7,10.2,31.9,18,56.2,21.4&#10;&#9;&#9;&#9;c1.7-13.5,13.2-23.8,27.1-23.8c13.9,0,25.4,10.3,27.1,23.8c24.3-3.4,44.5-11.2,56.2-21.4c0.1-2.1,0.2-4.1,0.2-6.2&#10;&#9;&#9;&#9;c0-46.2-37.4-83.5-83.5-83.5c-46.1,0-83.5,37.3-83.5,83.5C455.7,488.4,455.8,490.5,455.9,492.5L455.9,492.5z M539.3,508.8&#10;&#9;&#9;&#9;c6.8,0,12.4,5.5,12.4,12.4s-5.5,12.4-12.4,12.4c-6.8,0-12.4-5.5-12.4-12.4S532.4,508.8,539.3,508.8L539.3,508.8z M539.3,514.6&#10;&#9;&#9;&#9;c3.7,0,6.6,3,6.6,6.6c0,3.7-2.9,6.6-6.6,6.6c-3.6,0-6.6-2.9-6.6-6.6C532.6,517.6,535.7,514.6,539.3,514.6L539.3,514.6z&#10;&#9;&#9;&#9; M539.3,495.9c11.9,0,21.6,9.7,21.6,21.7c0,11.9-9.7,21.6-21.6,21.6c-11.9,0-21.6-9.7-21.6-21.6&#10;&#9;&#9;&#9;C517.7,505.6,527.3,495.9,539.3,495.9L539.3,495.9z" style="fill-rule: evenodd; clip-rule: evenodd; fill: rgb(1, 1, 1);" transform="matrix(1, 0, 0, 1, -5.684341886080802e-14, 0)"/><path class="st1" d="M539.3,439.1c4.9,0,8.8,2,8.8,4.3s-3.9,4.2-8.8,4.2c-4.9,0-8.8-1.8-8.8-4.2S534.4,439.1,539.3,439.1&#10;&#9;&#9;&#9;L539.3,439.1z" style="fill-rule: evenodd; clip-rule: evenodd; fill: rgb(252, 211, 10);" transform="matrix(1, 0, 0, 1, -5.684341886080802e-14, 0)"/><path class="st5" d="M860.7,586c48.3,0,87.6-7.3,87.6-16.2c0-8.8-39.3-16.1-87.6-16.1c-48.2,0-87.4,7.3-87.4,16.1&#10;&#9;&#9;&#9;C773.3,578.7,812.6,586,860.7,586L860.7,586z" style="fill-rule: evenodd; clip-rule: evenodd; fill: rgb(229, 230, 231);" transform="matrix(1, 0, 0, 1, -5.684341886080802e-14, 0)"/><path class="st9" d="M860.7,575.2c49,0,89-39.9,89-88.9c0-49-39.9-89-89-89c-48.9,0-88.9,39.9-88.9,89&#10;&#9;&#9;&#9;C771.9,535.3,811.8,575.2,860.7,575.2L860.7,575.2z" style="fill-rule: evenodd; clip-rule: evenodd; fill: rgb(185, 41, 144);" transform="matrix(1, 0, 0, 1, -5.684341886080802e-14, 0)"/><path class="st15" d="M888.2,401.7c32.2,10.4,56.4,38.7,60.8,73.2c-4.7,1.4-9.7,2.2-14.9,2.2c-28.5,0-51.6-23.1-51.6-51.8&#10;&#9;&#9;&#9;C882.4,416.9,884.5,408.8,888.2,401.7L888.2,401.7z M772.5,475c4.4-34.5,28.6-62.8,60.9-73.2c3.7,7.1,5.8,15.2,5.8,23.7&#10;&#9;&#9;&#9;c0,28.6-23.1,51.8-51.6,51.8C782.3,477.1,777.3,476.4,772.5,475L772.5,475z" style="fill-rule: evenodd; clip-rule: evenodd; fill: rgb(144, 25, 71);" transform="matrix(1, 0, 0, 1, -5.684341886080802e-14, 0)"/><path class="st0" d="M949.4,494.6c-4.2,45.2-42.3,80.6-88.6,80.6c-46.2,0-84.3-35.4-88.5-80.6c10.1,6.4,22.8,13.2,34.9,16.4&#10;&#9;&#9;&#9;c26,6.6,29.2,6.2,29.2,6.2c3.6-32.1,45.2-32.1,48.8,0c0,0,3.1,0.4,29.3-6.2C926.6,507.8,939.3,501,949.4,494.6L949.4,494.6z" style="fill-rule: evenodd; clip-rule: evenodd; fill: rgb(255, 255, 255);" transform="matrix(1, 0, 0, 1, -5.684341886080802e-14, 0)"/><path class="st16" d="M860.7,402.8c40.3,0,72.8,37.3,72.8,83.5c0,6.4-0.7,12.8-1.8,18.9c-32.5,19.5-109.3,19.5-141.8,0&#10;&#9;&#9;&#9;c-1.2-6.1-1.8-12.5-1.8-18.9C788,440.1,820.6,402.8,860.7,402.8L860.7,402.8z" style="fill-rule: evenodd; clip-rule: evenodd; fill: rgb(161, 34, 126);" transform="matrix(1, 0, 0, 1, -5.684341886080802e-14, 0)"/><path class="st17" d="M885.5,407.7c25.6,10.6,44.5,37.3,47.6,69.4c-28.1-0.5-50.7-23.5-50.7-51.8&#10;&#9;&#9;&#9;C882.4,419.2,883.5,413.2,885.5,407.7L885.5,407.7z M788.5,477.1c3-32.1,22-58.8,47.5-69.4c2.1,5.5,3.1,11.5,3.1,17.7&#10;&#9;&#9;&#9;C839.1,453.6,816.6,476.6,788.5,477.1L788.5,477.1z" style="fill-rule: evenodd; clip-rule: evenodd; fill: rgb(116, 24, 59);" transform="matrix(1, 0, 0, 1, -5.684341886080802e-14, 0)"/><path class="st18" d="M860.7,402.8c15.2,0,27.4,6,27.4,13.3c0,7.4-12.3,13.3-27.4,13.3c-15.1,0-27.3-6-27.3-13.3&#10;&#9;&#9;&#9;C833.4,408.8,845.7,402.8,860.7,402.8L860.7,402.8z" style="fill-rule: evenodd; clip-rule: evenodd; fill: rgb(179, 30, 140);" transform="matrix(1, 0, 0, 1, -5.684341886080802e-14, 0)"/><path class="st15" d="M884.8,409.8c2.2,1.8,3.4,4,3.4,6.4c0,3-2.2,5.9-5.8,8.1C882.5,419.2,883.4,414.3,884.8,409.8L884.8,409.8z&#10;&#9;&#9;&#9; M839.1,424.3c-3.6-2.3-5.8-5.1-5.8-8.1c0-2.4,1.2-4.6,3.4-6.4C838.2,414.3,839,419.2,839.1,424.3L839.1,424.3z" style="fill-rule: evenodd; clip-rule: evenodd; fill: rgb(144, 25, 71);" transform="matrix(1, 0, 0, 1, -5.684341886080802e-14, 0)"/><path class="st5" d="M931.8,504.5c-7.3,37.4-36.2,65.3-71.1,65.3c-34.7,0-63.7-27.9-71-65.3c5.6,2.7,11.6,5,17.4,6.5&#10;&#9;&#9;&#9;c26,6.6,29.2,6.2,29.2,6.2c3.6-32.1,45.2-32.1,48.8,0c0,0,3.1,0.4,29.3-6.2C920.2,509.5,926.2,507.2,931.8,504.5L931.8,504.5z" style="fill-rule: evenodd; clip-rule: evenodd; fill: rgb(229, 230, 231);" transform="matrix(1, 0, 0, 1, -5.684341886080802e-14, 0)"/><path class="st6" d="M860.7,394.1c51,0,92.2,41.2,92.2,92.2c0,50.9-41.2,92.1-92.2,92.1c-50.9,0-92.1-41.2-92.1-92.1&#10;&#9;&#9;&#9;C768.6,435.4,809.9,394.1,860.7,394.1L860.7,394.1z M943.1,500.6c-4.2,3-8.8,5.5-13.1,7.6c-12.8,5.9-27.3,9.5-41.9,11.5&#10;&#9;&#9;&#9;c-1.1,14.2-12.9,25.3-27.3,25.3c-14.3,0-26.1-11.1-27.2-25.3c-14.6-2-29.1-5.6-41.9-11.5c-4.3-2.1-8.9-4.6-13.1-7.6&#10;&#9;&#9;&#9;c6.7,39.4,41,69.2,82.2,69.2C902.1,569.8,936.4,540,943.1,500.6L943.1,500.6z M777.5,492.5c11.7,10.2,31.8,18,56.1,21.4&#10;&#9;&#9;&#9;c1.8-13.5,13.2-23.8,27.1-23.8c13.9,0,25.4,10.3,27.2,23.8c24.2-3.4,44.4-11.2,56.1-21.4c0.2-2.1,0.2-4.1,0.2-6.2&#10;&#9;&#9;&#9;c0-46.2-37.3-83.5-83.5-83.5c-46.1,0-83.4,37.3-83.4,83.5C777.3,488.4,777.3,490.5,777.5,492.5L777.5,492.5z M860.7,508.8&#10;&#9;&#9;&#9;c6.8,0,12.4,5.5,12.4,12.4s-5.5,12.4-12.4,12.4c-6.7,0-12.3-5.5-12.3-12.4S854,508.8,860.7,508.8L860.7,508.8z M860.7,514.6&#10;&#9;&#9;&#9;c3.7,0,6.6,3,6.6,6.6c0,3.7-2.9,6.6-6.6,6.6c-3.6,0-6.5-2.9-6.5-6.6C854.2,517.6,857.2,514.6,860.7,514.6L860.7,514.6z&#10;&#9;&#9;&#9; M860.7,495.9c12,0,21.7,9.7,21.7,21.7c0,11.9-9.7,21.6-21.7,21.6c-11.9,0-21.6-9.7-21.6-21.6&#10;&#9;&#9;&#9;C839.1,505.6,848.8,495.9,860.7,495.9L860.7,495.9z" style="fill-rule: evenodd; clip-rule: evenodd; fill: rgb(1, 1, 1);" transform="matrix(1, 0, 0, 1, -5.684341886080802e-14, 0)"/><path class="st18" d="M860.7,439.1c4.9,0,8.8,2,8.8,4.3s-3.9,4.2-8.8,4.2c-4.8,0-8.8-1.8-8.8-4.2S856,439.1,860.7,439.1&#10;&#9;&#9;&#9;L860.7,439.1z" style="fill-rule: evenodd; clip-rule: evenodd; fill: rgb(179, 30, 140);" transform="matrix(1, 0, 0, 1, -5.684341886080802e-14, 0)"/><path d="M 833.2999877929688 481.29998779296875 L 840.2000122070312 481.29998779296875 L 850.5 462.5 L 860.7000122070312 481.29998779296875 L 871 462.5 L 881.4000244140625 481.29998779296875 L 888.2999877929688 481.29998779296875 L 871 449.8999938964844 L 860.7000122070312 468.70001220703125 L 850.5 449.8999938964844 Z" class="st0" style="fill-rule: evenodd; clip-rule: evenodd; fill: rgb(255, 255, 255);" transform="matrix(1, 0, 0, 1, -5.684341886080802e-14, 0)"/><path class="st2" d="M1182.3,586c48.2,0,87.6-7.3,87.6-16.2c0-8.8-39.4-16.1-87.6-16.1c-48.3,0-87.6,7.3-87.6,16.1&#10;&#9;&#9;&#9;C1094.8,578.7,1134,586,1182.3,586L1182.3,586z" style="fill-rule: evenodd; clip-rule: evenodd; fill: rgb(0, 61, 112);" transform="matrix(1, 0, 0, 1, -5.684341886080802e-14, 0)"/><path class="st19" d="M1182.3,575.2c48.9,0,88.9-39.9,88.9-88.9c0-49-39.9-89-88.9-89c-49,0-89,39.9-89,89&#10;&#9;&#9;&#9;C1093.4,535.3,1133.3,575.2,1182.3,575.2L1182.3,575.2z" style="fill-rule: evenodd; clip-rule: evenodd; fill: rgb(40, 146, 69);" transform="matrix(1, 0, 0, 1, -5.684341886080802e-14, 0)"/><path class="st0" d="M1270.9,494.6c-4.2,45.2-42.2,80.6-88.5,80.6c-46.3,0-84.4-35.4-88.5-80.6c10,6.4,22.7,13.2,34.8,16.4&#10;&#9;&#9;&#9;c26.1,6.6,29.3,6.2,29.3,6.2c3.6-32.1,45.2-32.1,48.8,0c0,0,3.1,0.4,29.2-6.2C1248.1,507.8,1260.8,501,1270.9,494.6L1270.9,494.6z&#10;&#9;&#9;&#9;" style="fill-rule: evenodd; clip-rule: evenodd; fill: rgb(255, 255, 255);" transform="matrix(1, 0, 0, 1, -5.684341886080802e-14, 0)"/><path class="st20" d="M1182.3,402.8c40.1,0,72.7,37.3,72.7,83.5c0,6.4-0.7,12.8-1.8,18.9c-32.5,19.5-109.3,19.5-141.7,0&#10;&#9;&#9;&#9;c-1.3-6.1-2-12.5-2-18.9C1109.5,440.1,1142.2,402.8,1182.3,402.8L1182.3,402.8z" style="fill-rule: evenodd; clip-rule: evenodd; fill: rgb(40, 116, 59);" transform="matrix(1, 0, 0, 1, -5.684341886080802e-14, 0)"/><path class="st19" d="M1182.3,402.8c15.1,0,27.3,6,27.3,13.3c0,7.4-12.3,13.3-27.3,13.3c-15.2,0-27.3-6-27.3-13.3&#10;&#9;&#9;&#9;C1155,408.8,1167.1,402.8,1182.3,402.8L1182.3,402.8z" style="fill-rule: evenodd; clip-rule: evenodd; fill: rgb(40, 146, 69);" transform="matrix(1, 0, 0, 1, -5.684341886080802e-14, 0)"/><path class="st5" d="M1253.3,504.5c-7.2,37.4-36.2,65.3-71,65.3c-34.7,0-63.8-27.9-71.1-65.3c5.8,2.7,11.6,5,17.4,6.5&#10;&#9;&#9;&#9;c26.1,6.6,29.3,6.2,29.3,6.2c3.6-32.1,45.2-32.1,48.8,0c0,0,3.1,0.4,29.2-6.2C1241.7,509.5,1247.6,507.2,1253.3,504.5&#10;&#9;&#9;&#9;L1253.3,504.5z" style="fill-rule: evenodd; clip-rule: evenodd; fill: rgb(229, 230, 231);" transform="matrix(1, 0, 0, 1, -5.684341886080802e-14, 0)"/><path class="st19" d="M1182.3,439.1c4.8,0,8.8,2,8.8,4.3s-4,4.2-8.8,4.2c-4.9,0-8.8-1.8-8.8-4.2S1177.4,439.1,1182.3,439.1&#10;&#9;&#9;&#9;L1182.3,439.1z" style="fill-rule: evenodd; clip-rule: evenodd; fill: rgb(40, 146, 69);" transform="matrix(1, 0, 0, 1, -5.684341886080802e-14, 0)"/><path class="st21" d="M1117.8,425.2c5.2,21.4,19.9,50.7,60.2,68.2c-13.2,3.3-17.6,11.8-20.2,23.8h0.2c0,11.9,7.2,17.6,15.9,24.2&#10;&#9;&#9;&#9;c-14,8.4-27.4,10.3-33.7,8.5c-12.2-3.8-22-27.8-16.8-38.9l21.5,3.9c-13.6-4.6-34.9-16.1-50.9-39.2&#10;&#9;&#9;&#9;C1096.3,456.2,1105,438.6,1117.8,425.2L1117.8,425.2z M1241.1,510.9c5.3,11.2-4.6,35.2-16.8,38.9c-6.2,1.8-19.6-0.1-33.6-8.5&#10;&#9;&#9;&#9;c8.8-6.6,15.8-12.3,15.9-24.2h0.2c-2.6-11.9-6.9-20.5-20.3-23.8c40.5-17.6,55.1-46.9,60.3-68.2c12.8,13.5,21.4,31,23.8,50.5&#10;&#9;&#9;&#9;c-16.1,23.1-37.3,34.6-50.9,39.2L1241.1,510.9z" style="fill-rule: evenodd; clip-rule: evenodd; fill: rgb(164, 205, 57);" transform="matrix(1, 0, 0, 1, -5.684341886080802e-14, 0)"/><path class="st22" d="M1242.3,439.2c8,13.3,12.7,29.6,12.7,47.2c0,2.5-0.1,5-0.2,7.4c-12.6,11.4-25.7,17.9-35,21l21.4-3.9l0,0&#10;&#9;&#9;&#9;c-9.9,3.7-21.8,6.3-34.5,7.7c0-0.4,0-0.9,0-1.4h0.2c-2.7-11.9-6.9-20.5-20.3-23.8C1218.7,479.5,1234.5,458,1242.3,439.2&#10;&#9;&#9;&#9;L1242.3,439.2z M1158,518.6c-12.7-1.4-24.6-4-34.6-7.7l0,0l21.5,3.9c-9.4-3.1-22.6-9.7-35-21c-0.2-2.4-0.3-4.9-0.3-7.4&#10;&#9;&#9;&#9;c0-17.6,4.8-33.9,12.8-47.2c7.7,18.9,23.5,40.4,55.7,54.2c-13.2,3.3-17.6,11.8-20.2,23.8h0.1C1158,517.7,1158,518.2,1158,518.6&#10;&#9;&#9;&#9;L1158,518.6z" style="fill-rule: evenodd; clip-rule: evenodd; fill: rgb(148, 198, 61);" transform="matrix(1, 0, 0, 1, -5.684341886080802e-14, 0)"/><path class="st6" d="M1182.3,394.1c50.9,0,92.1,41.2,92.1,92.2c0,50.9-41.2,92.1-92.1,92.1c-50.9,0-92.2-41.2-92.2-92.1&#10;&#9;&#9;&#9;C1090.1,435.4,1131.4,394.1,1182.3,394.1L1182.3,394.1z M1264.6,500.6c-4.2,3-8.8,5.5-13.1,7.6c-12.7,5.9-27.2,9.5-41.8,11.5&#10;&#9;&#9;&#9;c-1.2,14.2-12.9,25.3-27.3,25.3s-26.3-11.1-27.3-25.3c-14.5-2-29.1-5.6-41.8-11.5c-4.4-2.1-9-4.6-13.2-7.6&#10;&#9;&#9;&#9;c6.8,39.4,41,69.2,82.3,69.2C1223.5,569.8,1257.8,540,1264.6,500.6L1264.6,500.6z M1099,492.5c11.7,10.2,31.9,18,56.1,21.4&#10;&#9;&#9;&#9;c1.8-13.5,13.3-23.8,27.2-23.8c13.9,0,25.4,10.3,27.1,23.8c24.3-3.4,44.5-11.2,56.1-21.4c0.2-2.1,0.3-4.1,0.3-6.2&#10;&#9;&#9;&#9;c0-46.2-37.4-83.5-83.5-83.5c-46.1,0-83.5,37.3-83.5,83.5C1098.8,488.4,1098.9,490.5,1099,492.5L1099,492.5z M1182.3,508.8&#10;&#9;&#9;&#9;c6.8,0,12.4,5.5,12.4,12.4s-5.5,12.4-12.4,12.4s-12.4-5.5-12.4-12.4S1175.5,508.8,1182.3,508.8L1182.3,508.8z M1182.3,514.6&#10;&#9;&#9;&#9;c3.6,0,6.6,3,6.6,6.6c0,3.7-3,6.6-6.6,6.6c-3.7,0-6.6-2.9-6.6-6.6C1175.7,517.6,1178.6,514.6,1182.3,514.6L1182.3,514.6z&#10;&#9;&#9;&#9; M1182.3,495.9c11.9,0,21.6,9.7,21.6,21.7c0,11.9-9.7,21.6-21.6,21.6c-11.9,0-21.7-9.7-21.7-21.6&#10;&#9;&#9;&#9;C1160.6,505.6,1170.4,495.9,1182.3,495.9L1182.3,495.9z" style="fill-rule: evenodd; clip-rule: evenodd; fill: rgb(1, 1, 1);" transform="matrix(1, 0, 0, 1, -5.684341886080802e-14, 0)"/><path class="st4" d="M1158.2,456.6c4.1,0,7.4,3.4,7.4,7.4c0,4.1-3.3,7.4-7.4,7.4c-4,0-7.4-3.3-7.4-7.4&#10;&#9;&#9;&#9;C1150.9,460,1154.2,456.6,1158.2,456.6L1158.2,456.6z M1206.3,456.6c4.1,0,7.4,3.4,7.4,7.4c0,4.1-3.3,7.4-7.4,7.4&#10;&#9;&#9;&#9;c-4,0-7.4-3.3-7.4-7.4C1198.9,460,1202.3,456.6,1206.3,456.6L1206.3,456.6z" style="fill-rule: evenodd; clip-rule: evenodd; fill: rgb(192, 32, 38);" transform="matrix(1, 0, 0, 1, -5.684341886080802e-14, 0)"/><path class="st23" d="M217.8,875.3c48.9,0,88.9-39.9,88.9-89c0-48.9-39.9-88.9-88.9-88.9c-49,0-89,39.9-89,88.9&#10;&#9;&#9;&#9;C128.8,835.4,168.8,875.3,217.8,875.3L217.8,875.3z" style="fill-rule: evenodd; clip-rule: evenodd; fill: rgb(85, 161, 216);" transform="matrix(1, 0, 0, 1, -5.684341886080802e-14, 0)"/><path class="st15" d="M275.2,718.5c7.4,6.2,13.7,13.6,18.8,21.9c-7.8,11.7-18.8,24.3-31.2,27.6c-7.7,2.1-11.3-5.2-6.7-11.3&#10;&#9;&#9;&#9;C261.8,748.7,271.5,734.5,275.2,718.5L275.2,718.5z M141.6,740.5c5-8.4,11.4-15.7,18.7-21.9c3.7,15.9,13.5,30.2,19.3,38.2&#10;&#9;&#9;&#9;c4.4,6.1,1,13.3-6.7,11.3C160.3,764.8,149.3,752.2,141.6,740.5L141.6,740.5z" style="fill-rule: evenodd; clip-rule: evenodd; fill: rgb(144, 25, 71);" transform="matrix(1, 0, 0, 1, -5.684341886080802e-14, 0)"/><path class="st0" d="M306.3,794.7c-4.2,45.2-42.2,80.6-88.5,80.6s-84.4-35.4-88.5-80.6c10,6.4,22.7,13.2,34.8,16.4&#10;&#9;&#9;&#9;c26.1,6.5,29.3,6.2,29.3,6.2c3.6-32.1,45.2-32.1,48.8,0c0,0,3.1,0.3,29.2-6.2C283.5,807.9,296.2,801.1,306.3,794.7L306.3,794.7z" style="fill-rule: evenodd; clip-rule: evenodd; fill: rgb(255, 255, 255);" transform="matrix(1, 0, 0, 1, -5.684341886080802e-14, 0)"/><path class="st24" d="M217.8,702.9c40.1,0,72.7,37.3,72.7,83.4c0,6.5-0.7,12.9-1.8,19c-32.5,19.5-109.3,19.5-141.7,0&#10;&#9;&#9;&#9;c-1.3-6.1-2-12.5-2-19C145,740.2,177.6,702.9,217.8,702.9L217.8,702.9z" style="fill-rule: evenodd; clip-rule: evenodd; fill: rgb(59, 129, 196);" transform="matrix(1, 0, 0, 1, -5.684341886080802e-14, 0)"/><path class="st17" d="M271.5,730c5.3,6.7,9.7,14.4,12.9,22.9c-6.3,7.1-13.7,13-21.7,15.1c-7.7,2.1-11.3-5.2-6.7-11.3&#10;&#9;&#9;&#9;C260.3,750.8,266.9,741.2,271.5,730L271.5,730z M151.2,752.9c3.1-8.5,7.6-16.2,12.9-22.9c4.6,11.2,11.1,20.7,15.5,26.7&#10;&#9;&#9;&#9;c4.4,6.1,1,13.3-6.7,11.3C164.8,766,157.5,760,151.2,752.9L151.2,752.9z" style="fill-rule: evenodd; clip-rule: evenodd; fill: rgb(116, 24, 59);" transform="matrix(1, 0, 0, 1, -5.684341886080802e-14, 0)"/><path class="st5" d="M288.7,804.6c-7.2,37.3-36.2,65.3-71,65.3s-63.8-28-71.1-65.3c5.8,2.7,11.6,5,17.4,6.5&#10;&#9;&#9;&#9;c26.1,6.5,29.3,6.2,29.3,6.2c3.6-32.1,45.2-32.1,48.8,0c0,0,3.1,0.3,29.2-6.2C277.1,809.6,283.1,807.3,288.7,804.6L288.7,804.6z" style="fill-rule: evenodd; clip-rule: evenodd; fill: rgb(229, 230, 231);" transform="matrix(1, 0, 0, 1, -5.684341886080802e-14, 0)"/><path class="st6" d="M217.8,694.2c50.9,0,92.1,41.2,92.1,92.1c0,51-41.2,92.2-92.1,92.2s-92.2-41.2-92.2-92.2&#10;&#9;&#9;&#9;C125.6,735.5,166.9,694.2,217.8,694.2L217.8,694.2z M300,800.7c-4.2,3-8.8,5.5-13.1,7.6c-12.7,5.9-27.2,9.5-41.8,11.5&#10;&#9;&#9;&#9;c-1.2,14.1-12.9,25.3-27.3,25.3s-26.3-11.2-27.3-25.3c-14.5-2-29.1-5.6-41.8-11.5c-4.4-2.1-9-4.6-13.2-7.6&#10;&#9;&#9;&#9;c6.8,39.3,41,69.2,82.3,69.2C259,869.9,293.3,840,300,800.7L300,800.7z M134.5,792.5c11.7,10.3,31.9,18,56.1,21.5&#10;&#9;&#9;&#9;c1.8-13.5,13.3-23.8,27.2-23.8s25.4,10.3,27.1,23.8c24.3-3.5,44.5-11.2,56.1-21.5c0.2-2,0.3-4,0.3-6.2c0-46.1-37.4-83.4-83.5-83.4&#10;&#9;&#9;&#9;s-83.5,37.3-83.5,83.4C134.2,788.5,134.4,790.6,134.5,792.5L134.5,792.5z M217.8,808.9c6.8,0,12.4,5.5,12.4,12.4&#10;&#9;&#9;&#9;c0,6.8-5.5,12.4-12.4,12.4s-12.4-5.5-12.4-12.4C205.4,814.5,211,808.9,217.8,808.9L217.8,808.9z M217.8,814.7&#10;&#9;&#9;&#9;c3.6,0,6.6,2.9,6.6,6.6s-3,6.6-6.6,6.6c-3.7,0-6.6-2.9-6.6-6.6S214.1,814.7,217.8,814.7L217.8,814.7z M217.8,796&#10;&#9;&#9;&#9;c11.9,0,21.6,9.7,21.6,21.6c0,11.9-9.7,21.7-21.6,21.7s-21.7-9.8-21.7-21.7C196.1,805.7,205.9,796,217.8,796L217.8,796z" style="fill-rule: evenodd; clip-rule: evenodd; fill: rgb(1, 1, 1);" transform="matrix(1, 0, 0, 1, -5.684341886080802e-14, 0)"/><path class="st23" d="M217.8,702.8c15.1,0,27.3,6.1,27.3,13.3c0,7.4-12.3,13.3-27.3,13.3c-15.2,0-27.3-6-27.3-13.3&#10;&#9;&#9;&#9;C190.4,708.9,202.6,702.8,217.8,702.8L217.8,702.8z" style="fill-rule: evenodd; clip-rule: evenodd; fill: rgb(85, 161, 216);" transform="matrix(1, 0, 0, 1, -5.684341886080802e-14, 0)"/><path class="st23" d="M217.8,739.2c4.8,0,8.8,2,8.8,4.3c0,2.3-4,4.2-8.8,4.2c-4.9,0-8.8-2-8.8-4.2&#10;&#9;&#9;&#9;C209,741.1,212.9,739.2,217.8,739.2L217.8,739.2z" style="fill-rule: evenodd; clip-rule: evenodd; fill: rgb(85, 161, 216);" transform="matrix(1, 0, 0, 1, -5.684341886080802e-14, 0)"/><path class="st5" d="M539.3,886c48.2,0,87.6-7.2,87.6-16.1c0-8.8-39.4-16.1-87.6-16.1c-48.2,0-87.6,7.3-87.6,16.1&#10;&#9;&#9;&#9;C451.7,878.8,491.1,886,539.3,886L539.3,886z" style="fill-rule: evenodd; clip-rule: evenodd; fill: rgb(229, 230, 231);" transform="matrix(1, 0, 0, 1, -5.684341886080802e-14, 0)"/><path class="st1" d="M539.3,875.3c49,0,89-39.9,89-89c0-48.9-39.9-88.9-89-88.9c-48.9,0-89,39.9-89,88.9&#10;&#9;&#9;&#9;C450.3,835.4,490.3,875.3,539.3,875.3L539.3,875.3z" style="fill-rule: evenodd; clip-rule: evenodd; fill: rgb(252, 211, 10);" transform="matrix(1, 0, 0, 1, -5.684341886080802e-14, 0)"/><path class="st7" d="M539.3,697.5c36.8,0,68.2,22.2,81.8,54c-18.1,12.8-48,21.3-81.8,21.3c-33.9,0-63.7-8.5-81.8-21.3&#10;&#9;&#9;&#9;C471,719.7,502.6,697.5,539.3,697.5L539.3,697.5z" style="fill-rule: evenodd; clip-rule: evenodd; fill: rgb(88, 89, 91);" transform="matrix(1, 0, 0, 1, -5.684341886080802e-14, 0)"/><path class="st0" d="M627.8,794.7c-4.2,45.2-42.2,80.6-88.5,80.6S455,840,450.7,794.7c10.1,6.4,22.7,13.2,34.9,16.4&#10;&#9;&#9;&#9;c26,6.5,29.2,6.2,29.2,6.2c3.6-32.1,45.2-32.1,48.8,0c0,0,3.1,0.3,29.2-6.2C605.1,807.9,617.8,801.1,627.8,794.7L627.8,794.7z" style="fill-rule: evenodd; clip-rule: evenodd; fill: rgb(255, 255, 255);" transform="matrix(1, 0, 0, 1, -5.684341886080802e-14, 0)"/><path class="st2" d="M539.3,702.9c40.1,0,72.8,37.3,72.8,83.4c0,6.5-0.7,12.9-2,19c-32.4,19.5-109.3,19.5-141.7,0&#10;&#9;&#9;&#9;c-1.2-6.1-1.8-12.5-1.8-19C466.6,740.2,499.1,702.9,539.3,702.9L539.3,702.9z" style="fill-rule: evenodd; clip-rule: evenodd; fill: rgb(251, 186, 20);" transform="matrix(1, 0, 0, 1, -5.684341886080802e-14, 0)"/><path class="st6" d="M539.3,702.9c31.9,0,58.9,23.4,68.8,56.2c-17.9,8.5-42.1,13.7-68.8,13.7c-26.6,0-50.8-5.2-68.8-13.7&#10;&#9;&#9;&#9;C480.4,726.4,507.5,702.9,539.3,702.9L539.3,702.9z" style="fill-rule: evenodd; clip-rule: evenodd; fill: rgb(1, 1, 1);" transform="matrix(1, 0, 0, 1, -5.684341886080802e-14, 0)"/><path class="st5" d="M610.3,804.6c-7.3,37.3-36.3,65.3-71.1,65.3c-34.7,0-63.8-28-71-65.3c5.6,2.7,11.5,5,17.4,6.5&#10;&#9;&#9;&#9;c26,6.5,29.2,6.2,29.2,6.2c3.6-32.1,45.2-32.1,48.8,0c0,0,3.1,0.3,29.2-6.2C598.7,809.6,604.6,807.3,610.3,804.6L610.3,804.6z" style="fill-rule: evenodd; clip-rule: evenodd; fill: rgb(229, 230, 231);" transform="matrix(1, 0, 0, 1, -5.684341886080802e-14, 0)"/><path class="st6" d="M539.3,694.2c50.9,0,92.2,41.2,92.2,92.1c0,51-41.3,92.2-92.2,92.2c-50.9,0-92.1-41.2-92.1-92.2&#10;&#9;&#9;&#9;C447.2,735.5,488.4,694.2,539.3,694.2L539.3,694.2z M621.6,800.7c-4.2,3-8.9,5.5-13.2,7.6c-12.7,5.9-27.2,9.5-41.8,11.5&#10;&#9;&#9;&#9;c-1.1,14.1-12.9,25.3-27.3,25.3c-14.4,0-26.1-11.2-27.3-25.3c-14.5-2-29.1-5.6-41.8-11.5c-4.3-2.1-8.9-4.6-13.1-7.6&#10;&#9;&#9;&#9;c6.7,39.3,41,69.2,82.2,69.2C580.5,869.9,614.8,840,621.6,800.7L621.6,800.7z M455.9,792.5c11.7,10.3,31.9,18,56.2,21.5&#10;&#9;&#9;&#9;c1.7-13.5,13.2-23.8,27.1-23.8c13.9,0,25.4,10.3,27.1,23.8c24.3-3.5,44.5-11.2,56.2-21.5c0.1-2,0.2-4,0.2-6.2&#10;&#9;&#9;&#9;c0-46.1-37.4-83.4-83.5-83.4c-46.1,0-83.5,37.3-83.5,83.4C455.7,788.5,455.8,790.6,455.9,792.5L455.9,792.5z M539.3,808.9&#10;&#9;&#9;&#9;c6.8,0,12.4,5.5,12.4,12.4c0,6.8-5.5,12.4-12.4,12.4c-6.8,0-12.4-5.5-12.4-12.4C526.9,814.5,532.4,808.9,539.3,808.9L539.3,808.9z&#10;&#9;&#9;&#9; M539.3,814.7c3.7,0,6.6,2.9,6.6,6.6s-2.9,6.6-6.6,6.6c-3.6,0-6.6-2.9-6.6-6.6S535.7,814.7,539.3,814.7L539.3,814.7z M539.3,796&#10;&#9;&#9;&#9;c11.9,0,21.6,9.7,21.6,21.6c0,11.9-9.7,21.7-21.6,21.7c-11.9,0-21.6-9.8-21.6-21.7C517.7,805.7,527.3,796,539.3,796L539.3,796z" style="fill-rule: evenodd; clip-rule: evenodd; fill: rgb(1, 1, 1);" transform="matrix(1, 0, 0, 1, -5.684341886080802e-14, 0)"/><path class="st7" d="M539.3,702.8c15.1,0,27.3,6.1,27.3,13.3c0,7.4-12.3,13.3-27.3,13.3c-15.1,0-27.3-6-27.3-13.3&#10;&#9;&#9;&#9;C511.9,708.9,524.2,702.8,539.3,702.8L539.3,702.8z" style="fill-rule: evenodd; clip-rule: evenodd; fill: rgb(88, 89, 91);" transform="matrix(1, 0, 0, 1, -5.684341886080802e-14, 0)"/><path class="st7" d="M539.3,739.2c4.9,0,8.8,2,8.8,4.3c0,2.3-3.9,4.2-8.8,4.2c-4.9,0-8.8-2-8.8-4.2&#10;&#9;&#9;&#9;C530.5,741.1,534.4,739.2,539.3,739.2L539.3,739.2z" style="fill-rule: evenodd; clip-rule: evenodd; fill: rgb(88, 89, 91);" transform="matrix(1, 0, 0, 1, -5.684341886080802e-14, 0)"/><path d="M 509.1000061035156 747.0999755859375 L 523.0999755859375 737.0999755859375 L 539.2999877929688 760.0999755859375 L 555.5 737.0999755859375 L 569.4000244140625 747.0999755859375 L 539.2999877929688 788.9000244140625 Z" class="st4" style="fill-rule: evenodd; clip-rule: evenodd; fill: rgb(192, 32, 38);" transform="matrix(1, 0, 0, 1, -5.684341886080802e-14, 0)"/><path class="st5" d="M217.8,586c48.2,0,87.6-7.3,87.6-16.2c0-8.8-39.4-16.1-87.6-16.1c-48.3,0-87.6,7.3-87.6,16.1&#10;&#9;&#9;&#9;C130.2,578.7,169.5,586,217.8,586L217.8,586z" style="fill-rule: evenodd; clip-rule: evenodd; fill: rgb(229, 230, 231);" transform="matrix(1, 0, 0, 1, -5.684341886080802e-14, 0)"/><path class="st0" d="M306.3,494.6c-4.2,45.2-42.2,80.6-88.5,80.6s-84.4-35.4-88.5-80.6c10,6.4,22.7,13.2,34.8,16.4&#10;&#9;&#9;&#9;c26.1,6.6,29.3,6.2,29.3,6.2c3.6-32.1,45.2-32.1,48.8,0c0,0,3.1,0.4,29.2-6.2C283.5,507.8,296.2,501,306.3,494.6L306.3,494.6z" style="fill-rule: evenodd; clip-rule: evenodd; fill: rgb(255, 255, 255);" transform="matrix(1, 0, 0, 1, -5.684341886080802e-14, 0)"/><path class="st0" d="M217.8,575.2c48.9,0,88.9-39.9,88.9-88.9c0-49-39.9-89-88.9-89c-49,0-89,39.9-89,89&#10;&#9;&#9;&#9;C128.8,535.3,168.8,575.2,217.8,575.2L217.8,575.2z" style="fill-rule: evenodd; clip-rule: evenodd; fill: rgb(255, 255, 255);" transform="matrix(1, 0, 0, 1, -5.684341886080802e-14, 0)"/><path class="st3" d="M217.8,399.1c48.2,0,87.2,39.1,87.2,87.2c0,48.1-39.1,87.1-87.2,87.1s-87.2-39.1-87.2-87.1&#10;&#9;&#9;&#9;C130.6,438.2,169.6,399.1,217.8,399.1L217.8,399.1z M217.8,409.7c42.3,0,76.6,34.4,76.6,76.7c0,42.3-34.3,76.6-76.6,76.6&#10;&#9;&#9;&#9;s-76.6-34.3-76.6-76.6C141.2,444.1,175.5,409.7,217.8,409.7L217.8,409.7z" style="fill-rule: evenodd; clip-rule: evenodd; fill: rgb(223, 31, 38);" transform="matrix(1, 0, 0, 1, -5.684341886080802e-14, 0)"/><path class="st4" d="M217.8,402.8c24.2,0,45.7,13.6,58.9,34.5c-14.1-16.9-35.3-27.7-58.9-27.7s-44.8,10.7-58.9,27.7&#10;&#9;&#9;&#9;C172.1,416.4,193.6,402.8,217.8,402.8L217.8,402.8z M276.7,535.3c-13.2,20.9-34.7,34.5-58.9,34.5s-45.7-13.6-58.9-34.5&#10;&#9;&#9;&#9;c14.1,16.9,35.3,27.7,58.9,27.7S262.6,552.2,276.7,535.3L276.7,535.3z" style="fill-rule: evenodd; clip-rule: evenodd; fill: rgb(192, 32, 38);" transform="matrix(1, 0, 0, 1, -5.684341886080802e-14, 0)"/><path class="st6" d="M272.5,416.2c0,0.3,0.1,0.8,0.1,1.1c0,11.8-24.5,21.5-54.8,21.5s-54.8-9.7-54.8-21.5c0-0.3,0-0.8,0.1-1.1&#10;&#9;&#9;&#9;c15.1-11.7,34.1-18.8,54.7-18.8S257.4,404.5,272.5,416.2L272.5,416.2z" style="fill-rule: evenodd; clip-rule: evenodd; fill: rgb(1, 1, 1);" transform="matrix(1, 0, 0, 1, -5.684341886080802e-14, 0)"/><path class="st7" d="M272.5,416.2c0,0.3,0.1,0.8,0.1,1.1c0,3-1.7,6-4.7,8.6c-13-14.2-30.7-23-50.1-23c-19.5,0-37.1,8.8-50.2,23&#10;&#9;&#9;&#9;c-2.9-2.6-4.6-5.5-4.6-8.6c0-0.3,0-0.8,0.1-1.1c15.1-11.7,34.1-18.8,54.7-18.8S257.4,404.5,272.5,416.2L272.5,416.2z" style="fill-rule: evenodd; clip-rule: evenodd; fill: rgb(88, 89, 91);" transform="matrix(1, 0, 0, 1, -5.684341886080802e-14, 0)"/><path class="st7" d="M217.8,402.8c15.1,0,27.3,6,27.3,13.3c0,7.4-12.3,13.3-27.3,13.3c-15.2,0-27.3-6-27.3-13.3&#10;&#9;&#9;&#9;C190.4,408.8,202.6,402.8,217.8,402.8L217.8,402.8z" style="fill-rule: evenodd; clip-rule: evenodd; fill: rgb(88, 89, 91);" transform="matrix(1, 0, 0, 1, -5.684341886080802e-14, 0)"/><path class="st4" d="M230.1,398.3c1.8,8,3,18.2,3,29.2c0,26.7-6.8,48.4-15.3,48.4s-15.4-21.7-15.4-48.4c0-11,1.2-21.2,3.1-29.2&#10;&#9;&#9;&#9;c4-0.5,8.1-0.9,12.3-0.9S226,397.7,230.1,398.3L230.1,398.3z" style="fill-rule: evenodd; clip-rule: evenodd; fill: rgb(192, 32, 38);" transform="matrix(1, 0, 0, 1, -5.684341886080802e-14, 0)"/><path class="st3" d="M231.2,404.6c1.2,6.7,1.8,14.4,1.8,22.6c-4.3,1.5-9.7,2.4-15.3,2.4c-5.8,0-11-0.9-15.4-2.4&#10;&#9;&#9;&#9;c0.1-8.1,0.8-15.8,1.8-22.6c4-1.1,8.6-1.7,13.6-1.7C222.7,402.8,227.3,403.5,231.2,404.6L231.2,404.6z" style="fill-rule: evenodd; clip-rule: evenodd; fill: rgb(223, 31, 38);" transform="matrix(1, 0, 0, 1, -5.684341886080802e-14, 0)"/><path class="st3" d="M217.8,439.1c4.8,0,8.8,2,8.8,4.3s-4,4.2-8.8,4.2c-4.9,0-8.8-1.8-8.8-4.2S212.9,439.1,217.8,439.1&#10;&#9;&#9;&#9;L217.8,439.1z" style="fill-rule: evenodd; clip-rule: evenodd; fill: rgb(223, 31, 38);" transform="matrix(1, 0, 0, 1, -5.684341886080802e-14, 0)"/><path class="st6" d="M217.8,394.1c50.9,0,92.1,41.2,92.1,92.2c0,50.9-41.2,92.1-92.1,92.1s-92.2-41.2-92.2-92.1&#10;&#9;&#9;&#9;C125.6,435.4,166.9,394.1,217.8,394.1L217.8,394.1z M300,500.6c-4.2,3-8.8,5.5-13.1,7.6c-12.7,5.9-27.2,9.5-41.8,11.5&#10;&#9;&#9;&#9;c-1.2,14.2-12.9,25.3-27.3,25.3s-26.3-11.1-27.3-25.3c-14.5-2-29.1-5.6-41.8-11.5c-4.4-2.1-9-4.6-13.2-7.6&#10;&#9;&#9;&#9;c6.8,39.4,41,69.2,82.3,69.2C259,569.8,293.3,540,300,500.6L300,500.6z M134.5,492.5c11.7,10.2,31.9,18,56.1,21.4&#10;&#9;&#9;&#9;c1.8-13.5,13.3-23.8,27.2-23.8s25.4,10.3,27.1,23.8c24.3-3.4,44.5-11.2,56.1-21.4c0.2-2.1,0.3-4.1,0.3-6.2&#10;&#9;&#9;&#9;c0-46.2-37.4-83.5-83.5-83.5s-83.5,37.3-83.5,83.5C134.2,488.4,134.4,490.5,134.5,492.5L134.5,492.5z M217.8,508.8&#10;&#9;&#9;&#9;c6.8,0,12.4,5.5,12.4,12.4s-5.5,12.4-12.4,12.4s-12.4-5.5-12.4-12.4S211,508.8,217.8,508.8L217.8,508.8z M217.8,514.6&#10;&#9;&#9;&#9;c3.6,0,6.6,3,6.6,6.6c0,3.7-3,6.6-6.6,6.6c-3.7,0-6.6-2.9-6.6-6.6C211.2,517.6,214.1,514.6,217.8,514.6L217.8,514.6z M217.8,495.9&#10;&#9;&#9;&#9;c11.9,0,21.6,9.7,21.6,21.7c0,11.9-9.7,21.6-21.6,21.6s-21.7-9.7-21.7-21.6C196.1,505.6,205.9,495.9,217.8,495.9L217.8,495.9z" style="fill-rule: evenodd; clip-rule: evenodd; fill: rgb(1, 1, 1);" transform="matrix(1, 0, 0, 1, -5.684341886080802e-14, 0)"/><path class="st2" d="M860.7,886c48.3,0,87.6-7.2,87.6-16.1c0-8.8-39.3-16.1-87.6-16.1c-48.2,0-87.4,7.3-87.4,16.1&#10;&#9;&#9;&#9;C773.3,878.8,812.6,886,860.7,886L860.7,886z" style="fill-rule: evenodd; clip-rule: evenodd; fill: rgb(0, 61, 112);" transform="matrix(1, 0, 0, 1, -5.684341886080802e-14, 0)"/><path class="st23" d="M860.7,875.3c49,0,89-39.9,89-89c0-48.9-39.9-88.9-89-88.9c-48.9,0-88.9,39.9-88.9,88.9&#10;&#9;&#9;&#9;C771.9,835.4,811.8,875.3,860.7,875.3L860.7,875.3z" style="fill-rule: evenodd; clip-rule: evenodd; fill: rgb(85, 161, 216);" transform="matrix(1, 0, 0, 1, -5.684341886080802e-14, 0)"/><path class="st0" d="M949.4,794.7c-4.2,45.2-42.3,80.6-88.6,80.6c-46.2,0-84.3-35.4-88.5-80.6c10.1,6.4,22.8,13.2,34.9,16.4&#10;&#9;&#9;&#9;c26,6.5,29.2,6.2,29.2,6.2c3.6-32.1,45.2-32.1,48.8,0c0,0,3.1,0.3,29.3-6.2C926.6,807.9,939.3,801.1,949.4,794.7L949.4,794.7z" style="fill-rule: evenodd; clip-rule: evenodd; fill: rgb(255, 255, 255);" transform="matrix(1, 0, 0, 1, -5.684341886080802e-14, 0)"/><path class="st24" d="M860.7,702.9c40.3,0,72.8,37.3,72.8,83.4c0,6.5-0.7,12.9-1.8,19c-32.5,19.5-109.3,19.5-141.8,0&#10;&#9;&#9;&#9;c-1.2-6.1-1.8-12.5-1.8-19C788,740.2,820.6,702.9,860.7,702.9L860.7,702.9z" style="fill-rule: evenodd; clip-rule: evenodd; fill: rgb(59, 129, 196);" transform="matrix(1, 0, 0, 1, -5.684341886080802e-14, 0)"/><path class="st3" d="M885.6,750l38.5,38.5l-63.4,63.4l-63.3-63.4L836,750l-30.3-30.3c15.3-11.5,34.4-18.2,55-18.2&#10;&#9;&#9;&#9;c20.7,0,39.7,6.7,55.1,18.2L885.6,750z" style="fill-rule: evenodd; clip-rule: evenodd; fill: rgb(223, 31, 38);" transform="matrix(1, 0, 0, 1, -5.684341886080802e-14, 0)"/><path class="st4" d="M860.7,702.9c19.2,0,36.6,8.5,49.6,22.4L885.6,750l38.5,38.5l-28.6,28.8c-21.9,3.7-47.4,3.7-69.3,0&#10;&#9;&#9;&#9;l-28.6-28.8L836,750l-24.7-24.7C824.2,711.4,841.6,702.9,860.7,702.9L860.7,702.9z" style="fill-rule: evenodd; clip-rule: evenodd; fill: rgb(192, 32, 38);" transform="matrix(1, 0, 0, 1, -5.684341886080802e-14, 0)"/><path class="st2" d="M846.4,739.3L846.4,739.3c2,0,3.6,1.6,3.6,3.6v37.4c0,2-1.6,3.6-3.6,3.6l0,0c-2,0-3.6-1.6-3.6-3.6v-37.4&#10;&#9;&#9;&#9;C842.8,740.9,844.5,739.3,846.4,739.3L846.4,739.3z M875.2,739.3L875.2,739.3c2,0,3.6,1.6,3.6,3.6v37.4c0,2-1.6,3.6-3.6,3.6l0,0&#10;&#9;&#9;&#9;c-2.1,0-3.6-1.6-3.6-3.6v-37.4C871.6,740.9,873.1,739.3,875.2,739.3L875.2,739.3z M860.7,739.3L860.7,739.3c2.1,0,3.6,1.6,3.6,3.6&#10;&#9;&#9;&#9;v37.4c0,2-1.5,3.6-3.6,3.6l0,0c-2,0-3.6-1.6-3.6-3.6v-37.4C857.2,740.9,858.8,739.3,860.7,739.3L860.7,739.3z" style="fill-rule: evenodd; clip-rule: evenodd; fill: rgb(251, 186, 20);" transform="matrix(1, 0, 0, 1, -5.684341886080802e-14, 0)"/><path class="st5" d="M931.8,804.6c-7.3,37.3-36.2,65.3-71.1,65.3c-34.7,0-63.7-28-71-65.3c5.6,2.7,11.6,5,17.4,6.5&#10;&#9;&#9;&#9;c26,6.5,29.2,6.2,29.2,6.2c3.6-32.1,45.2-32.1,48.8,0c0,0,3.1,0.3,29.3-6.2C920.2,809.6,926.2,807.3,931.8,804.6L931.8,804.6z" style="fill-rule: evenodd; clip-rule: evenodd; fill: rgb(229, 230, 231);" transform="matrix(1, 0, 0, 1, -5.684341886080802e-14, 0)"/><path class="st6" d="M860.7,694.2c51,0,92.2,41.2,92.2,92.1c0,51-41.2,92.2-92.2,92.2c-50.9,0-92.1-41.2-92.1-92.2&#10;&#9;&#9;&#9;C768.6,735.5,809.9,694.2,860.7,694.2L860.7,694.2z M943.1,800.7c-4.2,3-8.8,5.5-13.1,7.6c-12.8,5.9-27.3,9.5-41.9,11.5&#10;&#9;&#9;&#9;c-1.1,14.1-12.9,25.3-27.3,25.3c-14.3,0-26.1-11.2-27.2-25.3c-14.6-2-29.1-5.6-41.9-11.5c-4.3-2.1-8.9-4.6-13.1-7.6&#10;&#9;&#9;&#9;c6.7,39.3,41,69.2,82.2,69.2C902.1,869.9,936.4,840,943.1,800.7L943.1,800.7z M777.5,792.5c11.7,10.3,31.8,18,56.1,21.5&#10;&#9;&#9;&#9;c1.8-13.5,13.2-23.8,27.1-23.8c13.9,0,25.4,10.3,27.2,23.8c24.2-3.5,44.4-11.2,56.1-21.5c0.2-2,0.2-4,0.2-6.2&#10;&#9;&#9;&#9;c0-46.1-37.3-83.4-83.5-83.4c-46.1,0-83.4,37.3-83.4,83.4C777.3,788.5,777.3,790.6,777.5,792.5L777.5,792.5z M860.7,808.9&#10;&#9;&#9;&#9;c6.8,0,12.4,5.5,12.4,12.4c0,6.8-5.5,12.4-12.4,12.4c-6.7,0-12.3-5.5-12.3-12.4C848.5,814.5,854,808.9,860.7,808.9L860.7,808.9z&#10;&#9;&#9;&#9; M860.7,814.7c3.7,0,6.6,2.9,6.6,6.6s-2.9,6.6-6.6,6.6c-3.6,0-6.5-2.9-6.5-6.6S857.2,814.7,860.7,814.7L860.7,814.7z M860.7,796&#10;&#9;&#9;&#9;c12,0,21.7,9.7,21.7,21.6c0,11.9-9.7,21.7-21.7,21.7c-11.9,0-21.6-9.8-21.6-21.7C839.1,805.7,848.8,796,860.7,796L860.7,796z" style="fill-rule: evenodd; clip-rule: evenodd; fill: rgb(1, 1, 1);" transform="matrix(1, 0, 0, 1, -5.684341886080802e-14, 0)"/><path class="st3" d="M860.7,702.8c15.2,0,27.4,6.1,27.4,13.3c0,7.4-12.3,13.3-27.4,13.3c-15.1,0-27.3-6-27.3-13.3&#10;&#9;&#9;&#9;C833.4,708.9,845.7,702.8,860.7,702.8L860.7,702.8z" style="fill-rule: evenodd; clip-rule: evenodd; fill: rgb(223, 31, 38);" transform="matrix(1, 0, 0, 1, -5.684341886080802e-14, 0)"/><path class="st3" d="M860.7,739.2c4.9,0,8.8,2,8.8,4.3c0,2.3-3.9,4.2-8.8,4.2c-4.8,0-8.8-2-8.8-4.2&#10;&#9;&#9;&#9;C851.9,741.1,856,739.2,860.7,739.2L860.7,739.2z" style="fill-rule: evenodd; clip-rule: evenodd; fill: rgb(223, 31, 38);" transform="matrix(1, 0, 0, 1, -5.684341886080802e-14, 0)"/><path class="st1" d="M864.3,747.4c-1.1,0.2-2.3,0.3-3.6,0.3c-1.2,0-2.5-0.1-3.6-0.3v-4.6c0-2,1.6-3.6,3.6-3.6l0,0&#10;&#9;&#9;&#9;c2.1,0,3.6,1.6,3.6,3.6V747.4z" style="fill-rule: evenodd; clip-rule: evenodd; fill: rgb(252, 211, 10);" transform="matrix(1, 0, 0, 1, -5.684341886080802e-14, 0)"/><path class="st5" d="M1182.3,886c48.2,0,87.6-7.2,87.6-16.1c0-8.8-39.4-16.1-87.6-16.1c-48.3,0-87.6,7.3-87.6,16.1&#10;&#9;&#9;&#9;C1094.8,878.8,1134,886,1182.3,886L1182.3,886z" style="fill-rule: evenodd; clip-rule: evenodd; fill: rgb(229, 230, 231);" transform="matrix(1, 0, 0, 1, -5.684341886080802e-14, 0)"/><path class="st23" d="M1182.3,875.3c48.9,0,88.9-39.9,88.9-89c0-48.9-39.9-88.9-88.9-88.9c-49,0-89,39.9-89,88.9&#10;&#9;&#9;&#9;C1093.4,835.4,1133.3,875.3,1182.3,875.3L1182.3,875.3z" style="fill-rule: evenodd; clip-rule: evenodd; fill: rgb(85, 161, 216);" transform="matrix(1, 0, 0, 1, -5.684341886080802e-14, 0)"/><path class="st23" d="M1234.5,726.9c0.2,1.1,0.3,2.2,0.3,3.4c0,16.6-23.5,30.1-52.5,30.1c-29.1,0-52.6-13.5-52.6-30.1&#10;&#9;&#9;&#9;c0-16.1,22.2-29.3,50.1-29.9c-11.5,3.7-19.2,10.7-19.2,18.9c0,12,17.1,21.8,38.2,21.8C1215.2,741,1229.1,735.1,1234.5,726.9&#10;&#9;&#9;&#9;L1234.5,726.9z" style="fill-rule: evenodd; clip-rule: evenodd; fill: rgb(85, 161, 216);" transform="matrix(1, 0, 0, 1, -5.684341886080802e-14, 0)"/><path class="st7" d="M1182.3,697.5c49,0,88.9,39.8,88.9,88.9c0,14.3-3.4,27.8-9.3,39.8l-57.6,19.3l-44.5-44.5l22.2-22.2&#10;&#9;&#9;&#9;l-22.2-22.1l-6.8-54.2C1162.1,699.2,1172,697.5,1182.3,697.5L1182.3,697.5z" style="fill-rule: evenodd; clip-rule: evenodd; fill: rgb(88, 89, 91);" transform="matrix(1, 0, 0, 1, -5.684341886080802e-14, 0)"/><path class="st0" d="M1270.9,794.7c-4.2,45.2-42.2,80.6-88.5,80.6c-46.3,0-84.4-35.4-88.5-80.6c10,6.4,22.7,13.2,34.8,16.4&#10;&#9;&#9;&#9;c26.1,6.5,29.3,6.2,29.3,6.2c3.6-32.1,45.2-32.1,48.8,0c0,0,3.1,0.3,29.2-6.2C1248.1,807.9,1260.8,801.1,1270.9,794.7&#10;&#9;&#9;&#9;L1270.9,794.7z" style="fill-rule: evenodd; clip-rule: evenodd; fill: rgb(255, 255, 255);" transform="matrix(1, 0, 0, 1, -5.684341886080802e-14, 0)"/><path class="st24" d="M1182.3,702.9c40.1,0,72.7,37.3,72.7,83.4c0,6.5-0.7,12.9-1.8,19c-32.5,19.5-109.3,19.5-141.7,0&#10;&#9;&#9;&#9;c-1.3-6.1-2-12.5-2-19C1109.5,740.2,1142.2,702.9,1182.3,702.9L1182.3,702.9z" style="fill-rule: evenodd; clip-rule: evenodd; fill: rgb(59, 129, 196);" transform="matrix(1, 0, 0, 1, -5.684341886080802e-14, 0)"/><path class="st6" d="M1182.3,702.9c40.1,0,72.7,37.3,72.7,83.4c0,6.5-0.7,12.9-1.8,19c-16.9,10.2-46,15.1-74.4,14.6l-15.4-22.1&#10;&#9;&#9;&#9;l18.7-19.1l-22.2-22.1l-5.9-47.1C1162.6,705.2,1172.2,702.9,1182.3,702.9L1182.3,702.9z" style="fill-rule: evenodd; clip-rule: evenodd; fill: rgb(1, 1, 1);" transform="matrix(1, 0, 0, 1, -5.684341886080802e-14, 0)"/><path class="st1" d="M1234.5,726.9c0.2,1.1,0.3,2.2,0.3,3.4c0,16.6-23.5,30.1-52.5,30.1c-29.1,0-52.6-13.5-52.6-30.1&#10;&#9;&#9;&#9;c0-16.1,22.2-29.3,50.1-29.9c-11.5,3.7-19.2,10.7-19.2,18.9c0,12,17.1,21.8,38.2,21.8C1215.2,741,1229.1,735.1,1234.5,726.9&#10;&#9;&#9;&#9;L1234.5,726.9z" style="fill-rule: evenodd; clip-rule: evenodd; fill: rgb(252, 211, 10);" transform="matrix(1, 0, 0, 1, -5.684341886080802e-14, 0)"/><path class="st2" d="M1234,727.7c0.3,0.3,0.5,0.7,0.9,0.9c0,0.7,0,1.2,0,1.7c0,16.6-23.5,30.1-52.5,30.1&#10;&#9;&#9;&#9;c-29.1,0-52.6-13.5-52.6-30.1c0-0.5,0-1.1,0.1-1.7c11-13,25.6-22.1,42.1-24.8c-6.9,4-11.3,9.4-11.3,15.5c0,12,17.1,21.8,38.2,21.8&#10;&#9;&#9;&#9;C1214.6,741,1228.2,735.5,1234,727.7L1234,727.7z" style="fill-rule: evenodd; clip-rule: evenodd; fill: rgb(251, 186, 20);" transform="matrix(1, 0, 0, 1, -5.684341886080802e-14, 0)"/><path class="st5" d="M1253.3,804.6c-7.2,37.3-36.2,65.3-71,65.3c-34.7,0-63.8-28-71.1-65.3c5.8,2.7,11.6,5,17.4,6.5&#10;&#9;&#9;&#9;c26.1,6.5,29.3,6.2,29.3,6.2c3.6-32.1,45.2-32.1,48.8,0c0,0,3.1,0.3,29.2-6.2C1241.7,809.6,1247.6,807.3,1253.3,804.6&#10;&#9;&#9;&#9;L1253.3,804.6z" style="fill-rule: evenodd; clip-rule: evenodd; fill: rgb(229, 230, 231);" transform="matrix(1, 0, 0, 1, -5.684341886080802e-14, 0)"/><path class="st6" d="M1182.3,694.2c50.9,0,92.1,41.2,92.1,92.1c0,51-41.2,92.2-92.1,92.2c-50.9,0-92.2-41.2-92.2-92.2&#10;&#9;&#9;&#9;C1090.1,735.5,1131.4,694.2,1182.3,694.2L1182.3,694.2z M1264.6,800.7c-4.2,3-8.8,5.5-13.1,7.6c-12.7,5.9-27.2,9.5-41.8,11.5&#10;&#9;&#9;&#9;c-1.2,14.1-12.9,25.3-27.3,25.3s-26.3-11.2-27.3-25.3c-14.5-2-29.1-5.6-41.8-11.5c-4.4-2.1-9-4.6-13.2-7.6&#10;&#9;&#9;&#9;c6.8,39.3,41,69.2,82.3,69.2C1223.5,869.9,1257.8,840,1264.6,800.7L1264.6,800.7z M1099,792.5c11.7,10.3,31.9,18,56.1,21.5&#10;&#9;&#9;&#9;c1.8-13.5,13.3-23.8,27.2-23.8c13.9,0,25.4,10.3,27.1,23.8c24.3-3.5,44.5-11.2,56.1-21.5c0.2-2,0.3-4,0.3-6.2&#10;&#9;&#9;&#9;c0-46.1-37.4-83.4-83.5-83.4c-46.1,0-83.5,37.3-83.5,83.4C1098.8,788.5,1098.9,790.6,1099,792.5L1099,792.5z M1182.3,808.9&#10;&#9;&#9;&#9;c6.8,0,12.4,5.5,12.4,12.4c0,6.8-5.5,12.4-12.4,12.4s-12.4-5.5-12.4-12.4C1169.9,814.5,1175.5,808.9,1182.3,808.9L1182.3,808.9z&#10;&#9;&#9;&#9; M1182.3,814.7c3.6,0,6.6,2.9,6.6,6.6s-3,6.6-6.6,6.6c-3.7,0-6.6-2.9-6.6-6.6S1178.6,814.7,1182.3,814.7L1182.3,814.7z&#10;&#9;&#9;&#9; M1182.3,796c11.9,0,21.6,9.7,21.6,21.6c0,11.9-9.7,21.7-21.6,21.7c-11.9,0-21.7-9.8-21.7-21.7&#10;&#9;&#9;&#9;C1160.6,805.7,1170.4,796,1182.3,796L1182.3,796z" style="fill-rule: evenodd; clip-rule: evenodd; fill: rgb(1, 1, 1);" transform="matrix(1, 0, 0, 1, -5.684341886080802e-14, 0)"/><path class="st7" d="M1182.3,702.8c15.1,0,27.3,6.1,27.3,13.3c0,7.4-12.3,13.3-27.3,13.3c-15.2,0-27.3-6-27.3-13.3&#10;&#9;&#9;&#9;C1155,708.9,1167.1,702.8,1182.3,702.8L1182.3,702.8z" style="fill-rule: evenodd; clip-rule: evenodd; fill: rgb(88, 89, 91);" transform="matrix(1, 0, 0, 1, -5.684341886080802e-14, 0)"/><path class="st1" d="M1182.3,739.7c4.8,0,8.8,2,8.8,4.3c0,2.3-4,4.2-8.8,4.2c-4.9,0-8.8-2-8.8-4.2&#10;&#9;&#9;&#9;C1173.5,741.7,1177.4,739.7,1182.3,739.7L1182.3,739.7z" style="fill-rule: evenodd; clip-rule: evenodd; fill: rgb(252, 211, 10);" transform="matrix(1, 0, 0, 1, -5.684341886080802e-14, 0)"/>
<path d="M 35.51021194458008 363.3674011230469 L -9.591837882995605 427.55108642578125" style="fill: rgb(0, 61, 112); fill-opacity: 1; stroke: rgb(0, 0, 0); stroke-opacity: 1; stroke-width: 0; paint-order: fill;"/><path d="M 193.3673858642578 873.3674926757812 C 193.3673858642578 873.3674926757812 184.6939239501953 843.877685546875 193.3673858642578 873.3674926757812" style="fill: rgb(0, 61, 112); fill-opacity: 1; stroke: rgb(0, 0, 0); stroke-opacity: 1; stroke-width: 0; paint-order: fill;"/><path d="M 37.244903564453125 576.7348022460938 L -9.591837882995605 465.71435546875" style="fill: rgb(0, 61, 112); fill-opacity: 1; stroke: rgb(0, 0, 0); stroke-opacity: 1; stroke-width: 0; paint-order: fill;"/></svg>