<?xml version="1.0" encoding="utf-8"?>
<svg id="master-artboard" viewBox="0 0 300 300" version="1.1" xmlns="http://www.w3.org/2000/svg" x="0px" y="0px" style="enable-background:new 0 0 1400 980;" width="300px" height="300px"><rect id="ee-background" x="0" y="0" width="300" height="300" style="fill: white; fill-opacity: 0; pointer-events: none;"/>

<linearGradient id="SVGID_11_" gradientUnits="userSpaceOnUse" x1="100.7199" y1="250.1707" x2="348.5762" y2="250.1707">
				<stop offset="5.102040e-03" style="stop-color:#58595B"/>
				<stop offset="0.9965" style="stop-color:#414042"/>
			</linearGradient><path d="M 348.500008 250.199997 A 123.900002 123.900002 0 0 1 224.600006 374.099998 A 123.900002 123.900002 0 0 1 100.700005 250.199997 A 123.900002 123.900002 0 0 1 224.600006 126.299995 A 123.900002 123.900002 0 0 1 348.500008 250.199997 Z" class="st13" style="fill: url('#SVGID_11_');" transform="matrix(1, 0, 0, 1, -74.59184265136727, -100.61226654052734)"/><linearGradient id="SVGID_12_" gradientUnits="userSpaceOnUse" x1="92.7834" y1="320.8875" x2="356.5136" y2="320.8875">
				<stop offset="0" style="stop-color:#F1F2F2"/>
				<stop offset="1" style="stop-color:#A7A9AC"/>
			</linearGradient><path class="st14" d="M224.6,289.4c-18.4,0-33.8-12.6-38-29.7H93.1C98,328.1,155,382,224.6,382s126.6-53.9,131.5-122.3h-93.5&#10;&#9;&#9;&#9;&#9;C258.4,276.8,243,289.4,224.6,289.4z" style="fill: url('#SVGID_12_');" transform="matrix(1, 0, 0, 1, -74.59184265136727, -100.61226654052734)"/><linearGradient id="SVGID_13_" gradientUnits="userSpaceOnUse" x1="92.7834" y1="179.4538" x2="356.5136" y2="179.4538">
				<stop offset="0" style="stop-color:#DA2428"/>
				<stop offset="1" style="stop-color:#9E1416"/>
			</linearGradient><path class="st15" d="M224.6,210.9c18.4,0,33.8,12.6,38,29.7h93.5c-4.9-68.4-61.9-122.3-131.5-122.3S98,172.2,93.1,240.6h93.5&#10;&#9;&#9;&#9;&#9;C190.9,223.6,206.3,210.9,224.6,210.9z" style="fill: url('#SVGID_13_');" transform="matrix(1, 0, 0, 1, -74.59184265136727, -100.61226654052734)"/><radialGradient id="SVGID_14_" cx="128.5991" cy="632.2117" r="61.1531" gradientTransform="matrix(0.6284 0.7779 -1.4625 1.1814 1015.2573 -681.8378)" gradientUnits="userSpaceOnUse">
				<stop offset="0" style="stop-color:#FFFFFF;stop-opacity:0.95"/>
				<stop offset="0.2023" style="stop-color:#FFFFFF;stop-opacity:0.6512"/>
				<stop offset="0.4256" style="stop-color:#FFFFFF;stop-opacity:0"/>
			</radialGradient><path class="st16" d="M196.8,196.4c-32.9,26.6-70.9,34-84.8,16.7c-14-17.3,1.3-52.9,34.2-79.4C179,107.2,217,99.7,231,117&#10;&#9;&#9;&#9;&#9;C245,134.3,229.7,169.9,196.8,196.4z" style="opacity: 0.65; fill: url('#SVGID_14_');" transform="matrix(1, 0, 0, 1, -74.59184265136727, -100.61226654052734)"/><linearGradient id="SVGID_15_" gradientUnits="userSpaceOnUse" x1="91.6045" y1="265.1061" x2="250.1402" y2="364.1702" gradientTransform="matrix(0.9999 1.730000e-02 -1.730000e-02 0.9999 8.4761 -11.1017)" style="opacity: 0.12;">
					<stop offset="0" style="stop-color:#FFFFFF;stop-opacity:0"/>
					<stop offset="1" style="stop-color:#FFFFFF"/>
				</linearGradient><path class="st17" d="M186.6,259.7l-93.5,0c1.7,23.4,9.4,45.1,21.7,63.5c6,0.9,12.1,1.4,18.3,1.5c36.9,0.6,70.7-12.9,96.3-35.6&#10;&#9;&#9;&#9;&#9;&#9;c-1.6,0.2-3.2,0.3-4.9,0.3C206.3,289.3,190.9,276.7,186.6,259.7z" style="fill: url('#SVGID_15_'); opacity: 0.12;" transform="matrix(1, 0, 0, 1, -74.59184265136727, -100.61226654052734)"/><linearGradient id="SVGID_16_" gradientUnits="userSpaceOnUse" x1="125.4045" y1="160.4507" x2="320.5599" y2="282.3973" gradientTransform="matrix(0.9999 1.730000e-02 -1.730000e-02 0.9999 8.4761 -11.1017)" style="opacity: 0.12;">
					<stop offset="0" style="stop-color:#FFFFFF;stop-opacity:0"/>
					<stop offset="1" style="stop-color:#FFFFFF"/>
				</linearGradient><path class="st18" d="M264.3,124.3c-12.5-3.9-25.8-6.1-39.6-6.1c-69.6,0-126.6,53.9-131.6,122.2l93.5,0&#10;&#9;&#9;&#9;&#9;&#9;c4.3-17,19.7-29.6,38.1-29.6s33.8,12.6,38,29.7l2.3,0c7.5-16.8,11.8-35.4,12.1-54.9C277.5,163.8,272.8,143,264.3,124.3z" style="fill: url('#SVGID_16_'); opacity: 0.12;" transform="matrix(1, 0, 0, 1, -74.59184265136727, -100.61226654052734)"/><linearGradient id="SVGID_17_" gradientUnits="userSpaceOnUse" x1="193.5134" y1="250.1707" x2="255.7827" y2="250.1707">
				<stop offset="0" style="stop-color:#E6E7E8"/>
				<stop offset="1" style="stop-color:#939598"/>
			</linearGradient><path d="M 255.700006 250.199997 A 31.1 31.1 0 0 1 224.600006 281.299997 A 31.1 31.1 0 0 1 193.500006 250.199997 A 31.1 31.1 0 0 1 224.600006 219.099997 A 31.1 31.1 0 0 1 255.700006 250.199997 Z" class="st19" style="fill: url('#SVGID_17_');" transform="matrix(1, 0, 0, 1, -74.59184265136727, -100.61226654052734)"/><linearGradient id="SVGID_18_" gradientUnits="userSpaceOnUse" x1="206.3335" y1="250.1707" x2="242.9625" y2="250.1707">
				<stop offset="0" style="stop-color:#000000;stop-opacity:0"/>
				<stop offset="0.9949" style="stop-color:#000000"/>
			</linearGradient><path d="M 242.900005 250.199997 A 18.299999 18.299999 0 0 1 224.600006 268.499996 A 18.299999 18.299999 0 0 1 206.300007 250.199997 A 18.299999 18.299999 0 0 1 224.600006 231.899998 A 18.299999 18.299999 0 0 1 242.900005 250.199997 Z" class="st20" style="opacity: 0.28; fill: url('#SVGID_18_');" transform="matrix(1, 0, 0, 1, -74.59184265136727, -100.61226654052734)"/><linearGradient id="SVGID_19_" gradientUnits="userSpaceOnUse" x1="208.6228" y1="250.1707" x2="240.6732" y2="250.1707">
				<stop offset="0" style="stop-color:#F1F2F2"/>
				<stop offset="1" style="stop-color:#A7A9AC"/>
			</linearGradient><path d="M 240.600006 250.199997 A 16 16 0 0 1 224.600006 266.199997 A 16 16 0 0 1 208.600006 250.199997 A 16 16 0 0 1 224.600006 234.199997 A 16 16 0 0 1 240.600006 250.199997 Z" class="st21" style="fill: url('#SVGID_19_');" transform="matrix(1, 0, 0, 1, -74.59184265136727, -100.61226654052734)"/><linearGradient id="SVGID_20_" gradientUnits="userSpaceOnUse" x1="1051.4238" y1="250.1707" x2="1299.2802" y2="250.1707">
				<stop offset="0" style="stop-color:#DA2428"/>
				<stop offset="1" style="stop-color:#9E1416"/>
			</linearGradient><linearGradient id="SVGID_21_" gradientUnits="userSpaceOnUse" x1="1043.4874" y1="320.8875" x2="1307.2177" y2="320.8875">
				<stop offset="0" style="stop-color:#F1F2F2"/>
				<stop offset="1" style="stop-color:#A7A9AC"/>
			</linearGradient><linearGradient id="SVGID_22_" gradientUnits="userSpaceOnUse" x1="1043.4874" y1="179.4538" x2="1307.2177" y2="179.4538">
				<stop offset="0" style="stop-color:#F1F2F2"/>
				<stop offset="1" style="stop-color:#A7A9AC"/>
			</linearGradient><radialGradient id="SVGID_23_" cx="726.0126" cy="-107.3299" r="61.1531" gradientTransform="matrix(0.6284 0.7779 -1.4625 1.1814 509.0026 -272.8773)" gradientUnits="userSpaceOnUse">
				<stop offset="0" style="stop-color:#FFFFFF;stop-opacity:0.95"/>
				<stop offset="0.2023" style="stop-color:#FFFFFF;stop-opacity:0.6512"/>
				<stop offset="0.4256" style="stop-color:#FFFFFF;stop-opacity:0"/>
			</radialGradient><linearGradient id="SVGID_24_" gradientUnits="userSpaceOnUse" x1="1042.119" y1="248.6606" x2="1200.6548" y2="347.7247" gradientTransform="matrix(0.9999 1.730000e-02 -1.730000e-02 0.9999 8.4761 -11.1017)" style="opacity: 0.27;">
					<stop offset="0" style="stop-color:#FFFFFF;stop-opacity:0"/>
					<stop offset="1" style="stop-color:#FFFFFF"/>
				</linearGradient><linearGradient id="SVGID_25_" gradientUnits="userSpaceOnUse" x1="1075.9191" y1="144.0052" x2="1271.0743" y2="265.9518" gradientTransform="matrix(0.9999 1.730000e-02 -1.730000e-02 0.9999 8.4761 -11.1017)" style="opacity: 0.27;">
					<stop offset="0" style="stop-color:#FFFFFF;stop-opacity:0"/>
					<stop offset="1" style="stop-color:#FFFFFF"/>
				</linearGradient><linearGradient id="SVGID_26_" gradientUnits="userSpaceOnUse" x1="1144.2173" y1="250.1707" x2="1206.4866" y2="250.1707">
				<stop offset="0" style="stop-color:#E6E7E8"/>
				<stop offset="1" style="stop-color:#939598"/>
			</linearGradient><linearGradient id="SVGID_27_" gradientUnits="userSpaceOnUse" x1="1157.0375" y1="250.1707" x2="1193.6665" y2="250.1707">
				<stop offset="0" style="stop-color:#000000;stop-opacity:0"/>
				<stop offset="0.9949" style="stop-color:#000000"/>
			</linearGradient><linearGradient id="SVGID_28_" gradientUnits="userSpaceOnUse" x1="1159.3268" y1="250.1707" x2="1191.3772" y2="250.1707">
				<stop offset="0" style="stop-color:#F1F2F2"/>
				<stop offset="1" style="stop-color:#A7A9AC"/>
			</linearGradient><linearGradient id="SVGID_29_" gradientUnits="userSpaceOnUse" x1="424.2389" y1="250.1707" x2="672.0952" y2="250.1707">
				<stop offset="5.102040e-03" style="stop-color:#27AAE1"/>
				<stop offset="0.9965" style="stop-color:#155D97"/>
			</linearGradient><linearGradient id="SVGID_30_" gradientUnits="userSpaceOnUse" x1="416.3025" y1="320.8875" x2="680.0327" y2="320.8875">
				<stop offset="0" style="stop-color:#F1F2F2"/>
				<stop offset="1" style="stop-color:#A7A9AC"/>
			</linearGradient><linearGradient id="SVGID_31_" gradientUnits="userSpaceOnUse" x1="416.3025" y1="179.4538" x2="680.0327" y2="179.4538">
				<stop offset="0" style="stop-color:#FFDE17"/>
				<stop offset="1" style="stop-color:#FBB040"/>
			</linearGradient><radialGradient id="SVGID_32_" cx="331.8955" cy="380.55" r="61.1531" gradientTransform="matrix(0.6284 0.7779 -1.4625 1.1814 842.9818 -542.6709)" gradientUnits="userSpaceOnUse">
				<stop offset="0" style="stop-color:#FFFFFF;stop-opacity:0.95"/>
				<stop offset="0.2023" style="stop-color:#FFFFFF;stop-opacity:0.6512"/>
				<stop offset="0.4256" style="stop-color:#FFFFFF;stop-opacity:0"/>
			</radialGradient><linearGradient id="SVGID_33_" gradientUnits="userSpaceOnUse" x1="415.0591" y1="259.5098" x2="573.5948" y2="358.5739" gradientTransform="matrix(0.9999 1.730000e-02 -1.730000e-02 0.9999 8.4761 -11.1017)" style="opacity: 0.12;">
					<stop offset="0" style="stop-color:#FFFFFF;stop-opacity:0"/>
					<stop offset="1" style="stop-color:#FFFFFF"/>
				</linearGradient><linearGradient id="SVGID_34_" gradientUnits="userSpaceOnUse" x1="448.8591" y1="154.8544" x2="644.0145" y2="276.801" gradientTransform="matrix(0.9999 1.730000e-02 -1.730000e-02 0.9999 8.4761 -11.1017)" style="opacity: 0.12;">
					<stop offset="0" style="stop-color:#FFFFFF;stop-opacity:0"/>
					<stop offset="1" style="stop-color:#FFFFFF"/>
				</linearGradient><linearGradient id="SVGID_35_" gradientUnits="userSpaceOnUse" x1="517.0324" y1="250.1707" x2="579.3017" y2="250.1707">
				<stop offset="0" style="stop-color:#FBB040"/>
				<stop offset="1" style="stop-color:#FFDE17"/>
			</linearGradient><linearGradient id="SVGID_36_" gradientUnits="userSpaceOnUse" x1="529.8526" y1="250.1707" x2="566.4816" y2="250.1707">
				<stop offset="0" style="stop-color:#3C2415;stop-opacity:0"/>
				<stop offset="1" style="stop-color:#603913"/>
			</linearGradient><linearGradient id="SVGID_37_" gradientUnits="userSpaceOnUse" x1="532.1419" y1="250.1707" x2="564.1923" y2="250.1707">
				<stop offset="0" style="stop-color:#FFDE17"/>
				<stop offset="1" style="stop-color:#FBB040"/>
			</linearGradient><linearGradient id="SVGID_38_" gradientUnits="userSpaceOnUse" x1="424.2389" y1="665.8555" x2="672.0952" y2="665.8555">
				<stop offset="5.102040e-03" style="stop-color:#58595B"/>
				<stop offset="0.9965" style="stop-color:#414042"/>
			</linearGradient><linearGradient id="SVGID_39_" gradientUnits="userSpaceOnUse" x1="416.3025" y1="736.5723" x2="680.0327" y2="736.5723">
				<stop offset="0" style="stop-color:#F1F2F2"/>
				<stop offset="1" style="stop-color:#A7A9AC"/>
			</linearGradient><linearGradient id="SVGID_40_" gradientUnits="userSpaceOnUse" x1="416.3025" y1="595.1387" x2="680.0327" y2="595.1387">
				<stop offset="0" style="stop-color:#FBB040"/>
				<stop offset="1" style="stop-color:#F15A29"/>
			</linearGradient><radialGradient id="SVGID_41_" cx="655.2519" cy="641.7625" r="61.1531" gradientTransform="matrix(0.6284 0.7779 -1.4625 1.1814 1021.7953 -687.1193)" gradientUnits="userSpaceOnUse">
				<stop offset="0" style="stop-color:#FFFFFF;stop-opacity:0.95"/>
				<stop offset="0.2023" style="stop-color:#FFFFFF;stop-opacity:0.6512"/>
				<stop offset="0.4256" style="stop-color:#FFFFFF;stop-opacity:0"/>
			</radialGradient><linearGradient id="SVGID_42_" gradientUnits="userSpaceOnUse" x1="517.0324" y1="665.8555" x2="579.3017" y2="665.8555">
				<stop offset="0" style="stop-color:#E6E7E8"/>
				<stop offset="1" style="stop-color:#939598"/>
			</linearGradient><linearGradient id="SVGID_43_" gradientUnits="userSpaceOnUse" x1="529.8526" y1="665.8555" x2="566.4816" y2="665.8555">
				<stop offset="0" style="stop-color:#000000;stop-opacity:0"/>
				<stop offset="0.9949" style="stop-color:#000000"/>
			</linearGradient><linearGradient id="SVGID_44_" gradientUnits="userSpaceOnUse" x1="532.1419" y1="665.8555" x2="564.1923" y2="665.8555">
				<stop offset="0" style="stop-color:#F1F2F2"/>
				<stop offset="1" style="stop-color:#A7A9AC"/>
			</linearGradient><linearGradient id="SVGID_45_" gradientUnits="userSpaceOnUse" x1="535.2518" y1="575.4373" x2="572.1494" y2="599.3911">
				<stop offset="0" style="stop-color:#F9C713"/>
				<stop offset="1" style="stop-color:#FBB040"/>
			</linearGradient><linearGradient id="SVGID_46_" gradientUnits="userSpaceOnUse" x1="527.2278" y1="607.287" x2="569.1063" y2="607.287">
					<stop offset="0" style="stop-color:#F9C713"/>
					<stop offset="1" style="stop-color:#FBB040"/>
				</linearGradient><linearGradient id="SVGID_47_" gradientUnits="userSpaceOnUse" x1="527.2279" y1="560.3562" x2="569.1062" y2="560.3562">
					<stop offset="0" style="stop-color:#F9C713"/>
					<stop offset="1" style="stop-color:#FBB040"/>
				</linearGradient><linearGradient id="SVGID_48_" gradientUnits="userSpaceOnUse" x1="422.2498" y1="675.1118" x2="580.7855" y2="774.176" gradientTransform="matrix(0.9999 1.730000e-02 -1.730000e-02 0.9999 8.4761 -11.1017)" style="opacity: 0.22;">
					<stop offset="0" style="stop-color:#FFFFFF;stop-opacity:0"/>
					<stop offset="1" style="stop-color:#FFFFFF"/>
				</linearGradient><linearGradient id="SVGID_49_" gradientUnits="userSpaceOnUse" x1="456.0497" y1="570.4564" x2="651.2051" y2="692.4031" gradientTransform="matrix(0.9999 1.730000e-02 -1.730000e-02 0.9999 8.4761 -11.1017)" style="opacity: 0.22;">
					<stop offset="0" style="stop-color:#FFFFFF;stop-opacity:0"/>
					<stop offset="1" style="stop-color:#FFFFFF"/>
				</linearGradient><linearGradient id="SVGID_50_" gradientUnits="userSpaceOnUse" x1="100.7199" y1="665.8555" x2="348.5762" y2="665.8555">
				<stop offset="5.102040e-03" style="stop-color:#58595B"/>
				<stop offset="0.9965" style="stop-color:#414042"/>
			</linearGradient><linearGradient id="SVGID_51_" gradientUnits="userSpaceOnUse" x1="92.7834" y1="736.5723" x2="356.5136" y2="736.5723">
				<stop offset="0" style="stop-color:#F1F2F2"/>
				<stop offset="1" style="stop-color:#A7A9AC"/>
			</linearGradient><linearGradient id="SVGID_52_" gradientUnits="userSpaceOnUse" x1="92.7834" y1="595.1387" x2="356.5136" y2="595.1387">
				<stop offset="5.102040e-03" style="stop-color:#808285"/>
				<stop offset="0.9965" style="stop-color:#58595B"/>
			</linearGradient><linearGradient id="SVGID_53_" gradientUnits="userSpaceOnUse" x1="98.7951" y1="680.7081" x2="257.3309" y2="779.7723" gradientTransform="matrix(0.9999 1.730000e-02 -1.730000e-02 0.9999 8.4761 -11.1017)" style="opacity: 0.12;">
					<stop offset="0" style="stop-color:#FFFFFF;stop-opacity:0"/>
					<stop offset="1" style="stop-color:#FFFFFF"/>
				</linearGradient><linearGradient id="SVGID_54_" gradientUnits="userSpaceOnUse" x1="132.5951" y1="576.0527" x2="327.7505" y2="697.9994" gradientTransform="matrix(0.9999 1.730000e-02 -1.730000e-02 0.9999 8.4761 -11.1017)" style="opacity: 0.12;">
					<stop offset="0" style="stop-color:#FFFFFF;stop-opacity:0"/>
					<stop offset="1" style="stop-color:#FFFFFF"/>
				</linearGradient><linearGradient id="SVGID_55_" gradientUnits="userSpaceOnUse" x1="193.5134" y1="665.8555" x2="255.7827" y2="665.8555">
				<stop offset="0" style="stop-color:#E6E7E8"/>
				<stop offset="1" style="stop-color:#939598"/>
			</linearGradient><linearGradient id="SVGID_56_" gradientUnits="userSpaceOnUse" x1="206.3335" y1="665.8555" x2="242.9625" y2="665.8555">
				<stop offset="0" style="stop-color:#000000;stop-opacity:0"/>
				<stop offset="0.9949" style="stop-color:#000000"/>
			</linearGradient><linearGradient id="SVGID_57_" gradientUnits="userSpaceOnUse" x1="208.6228" y1="665.8555" x2="240.6732" y2="665.8555">
				<stop offset="0" style="stop-color:#F1F2F2"/>
				<stop offset="1" style="stop-color:#A7A9AC"/>
			</linearGradient><linearGradient id="SVGID_58_" gradientUnits="userSpaceOnUse" x1="277.5598" y1="532.9875" x2="370.1174" y2="593.0756" gradientTransform="matrix(0.687 0.7266 -0.7266 0.687 340.6367 -32.7394)">
				<stop offset="5.102040e-03" style="stop-color:#0698C4"/>
				<stop offset="0.9965" style="stop-color:#004874"/>
			</linearGradient><linearGradient id="SVGID_59_" gradientUnits="userSpaceOnUse" x1="354.8149" y1="451.2792" x2="447.3726" y2="511.3673" gradientTransform="matrix(-0.687 0.7266 0.7266 0.687 221.1029 -32.7394)">
				<stop offset="5.102040e-03" style="stop-color:#0698C4"/>
				<stop offset="0.9965" style="stop-color:#004874"/>
			</linearGradient><radialGradient id="SVGID_60_" cx="413.721" cy="902.4587" r="36.5844" gradientTransform="matrix(0.6353 0.7863 -1.4615 1.1808 1198.037 -833.4336)" gradientUnits="userSpaceOnUse">
				<stop offset="0" style="stop-color:#FFFFFF;stop-opacity:0.95"/>
				<stop offset="0.2023" style="stop-color:#FFFFFF;stop-opacity:0.6512"/>
				<stop offset="0.4256" style="stop-color:#FFFFFF;stop-opacity:0"/>
			</radialGradient><radialGradient id="SVGID_61_" cx="492.3842" cy="896.097" r="36.5862" gradientTransform="matrix(0.6353 0.7863 -0.7308 0.5903 619.1136 -366.1847)" gradientUnits="userSpaceOnUse">
				<stop offset="0" style="stop-color:#FFFFFF;stop-opacity:0.95"/>
				<stop offset="0.2023" style="stop-color:#FFFFFF;stop-opacity:0.6512"/>
				<stop offset="0.4256" style="stop-color:#FFFFFF;stop-opacity:0"/>
			</radialGradient><radialGradient id="SVGID_62_" cx="176.8117" cy="609.8604" r="14.3605" gradientUnits="userSpaceOnUse">
				<stop offset="5.102040e-03" style="stop-color:#0698C4"/>
				<stop offset="0.9965" style="stop-color:#005F94"/>
			</radialGradient><radialGradient id="SVGID_63_" cx="186.0605" cy="609.8604" r="14.3605" gradientTransform="matrix(1 0 0 1 79.8338 0)" gradientUnits="userSpaceOnUse">
				<stop offset="5.102040e-03" style="stop-color:#0698C4"/>
				<stop offset="0.9965" style="stop-color:#005F94"/>
			</radialGradient><linearGradient id="SVGID_64_" gradientUnits="userSpaceOnUse" x1="742.7315" y1="665.8555" x2="990.5878" y2="665.8555">
				<stop offset="5.102040e-03" style="stop-color:#58595B"/>
				<stop offset="0.9965" style="stop-color:#414042"/>
			</linearGradient><linearGradient id="SVGID_65_" gradientUnits="userSpaceOnUse" x1="734.795" y1="736.5723" x2="998.5253" y2="736.5723">
				<stop offset="0" style="stop-color:#F1F2F2"/>
				<stop offset="1" style="stop-color:#A7A9AC"/>
			</linearGradient><linearGradient id="SVGID_66_" gradientUnits="userSpaceOnUse" x1="734.795" y1="595.1387" x2="998.5253" y2="595.1387">
				<stop offset="0" style="stop-color:#DA2428"/>
				<stop offset="1" style="stop-color:#9E1416"/>
			</linearGradient><linearGradient id="SVGID_67_" gradientUnits="userSpaceOnUse" x1="835.525" y1="665.8555" x2="897.7943" y2="665.8555">
				<stop offset="0" style="stop-color:#E6E7E8"/>
				<stop offset="1" style="stop-color:#939598"/>
			</linearGradient><linearGradient id="SVGID_68_" gradientUnits="userSpaceOnUse" x1="848.3451" y1="665.8555" x2="884.9741" y2="665.8555">
				<stop offset="0" style="stop-color:#000000;stop-opacity:0"/>
				<stop offset="0.9949" style="stop-color:#000000"/>
			</linearGradient><linearGradient id="SVGID_69_" gradientUnits="userSpaceOnUse" x1="850.6344" y1="665.8555" x2="882.6848" y2="665.8555">
				<stop offset="0" style="stop-color:#F1F2F2"/>
				<stop offset="1" style="stop-color:#A7A9AC"/>
			</linearGradient><linearGradient id="SVGID_70_" gradientUnits="userSpaceOnUse" x1="786.6326" y1="551.0355" x2="1009.8448" y2="695.9442">
				<stop offset="0" style="stop-color:#F9C713"/>
				<stop offset="1" style="stop-color:#FBB040"/>
			</linearGradient><linearGradient id="SVGID_71_" gradientUnits="userSpaceOnUse" x1="843.2209" y1="572.6964" x2="910.183" y2="616.168">
				<stop offset="5.102040e-03" style="stop-color:#58595B"/>
				<stop offset="0.9965" style="stop-color:#414042"/>
			</linearGradient><radialGradient id="SVGID_72_" cx="855.3896" cy="394.0108" r="61.1531" gradientTransform="matrix(0.6284 0.7779 -1.4625 1.1814 852.1964 -550.1146)" gradientUnits="userSpaceOnUse">
				<stop offset="0" style="stop-color:#FFFFFF;stop-opacity:0.95"/>
				<stop offset="0.2023" style="stop-color:#FFFFFF;stop-opacity:0.6512"/>
				<stop offset="0.4256" style="stop-color:#FFFFFF;stop-opacity:0"/>
			</radialGradient><linearGradient id="SVGID_73_" gradientUnits="userSpaceOnUse" x1="740.6788" y1="669.6024" x2="899.2145" y2="768.6666" gradientTransform="matrix(0.9999 1.730000e-02 -1.730000e-02 0.9999 8.4761 -11.1017)" style="opacity: 0.22;">
					<stop offset="0" style="stop-color:#FFFFFF;stop-opacity:0"/>
					<stop offset="1" style="stop-color:#FFFFFF"/>
				</linearGradient><linearGradient id="SVGID_74_" gradientUnits="userSpaceOnUse" x1="774.4788" y1="564.9471" x2="969.6342" y2="686.8937" gradientTransform="matrix(0.9999 1.730000e-02 -1.730000e-02 0.9999 8.4761 -11.1017)" style="opacity: 0.22;">
					<stop offset="0" style="stop-color:#FFFFFF;stop-opacity:0"/>
					<stop offset="1" style="stop-color:#FFFFFF"/>
				</linearGradient><linearGradient id="SVGID_75_" gradientUnits="userSpaceOnUse" x1="1051.4238" y1="665.8555" x2="1299.2802" y2="665.8555">
				<stop offset="5.102040e-03" style="stop-color:#58595B"/>
				<stop offset="0.9965" style="stop-color:#414042"/>
			</linearGradient><linearGradient id="SVGID_76_" gradientUnits="userSpaceOnUse" x1="1043.4874" y1="736.5723" x2="1307.2177" y2="736.5723">
				<stop offset="0" style="stop-color:#F1F2F2"/>
				<stop offset="1" style="stop-color:#A7A9AC"/>
			</linearGradient><radialGradient id="SVGID_77_" cx="1049.369" cy="153.8826" r="61.1531" gradientTransform="matrix(0.6284 0.7779 -1.4625 1.1814 687.8162 -417.3257)" gradientUnits="userSpaceOnUse">
				<stop offset="0" style="stop-color:#FFFFFF;stop-opacity:0.95"/>
				<stop offset="0.2023" style="stop-color:#FFFFFF;stop-opacity:0.6512"/>
				<stop offset="0.4256" style="stop-color:#FFFFFF;stop-opacity:0"/>
			</radialGradient><linearGradient id="SVGID_78_" gradientUnits="userSpaceOnUse" x1="1049.3097" y1="664.2626" x2="1207.8455" y2="763.3267" gradientTransform="matrix(0.9999 1.730000e-02 -1.730000e-02 0.9999 8.4761 -11.1017)" style="opacity: 0.27;">
					<stop offset="0" style="stop-color:#FFFFFF;stop-opacity:0"/>
					<stop offset="1" style="stop-color:#FFFFFF"/>
				</linearGradient><linearGradient id="SVGID_79_" gradientUnits="userSpaceOnUse" x1="1083.1096" y1="559.6072" x2="1278.265" y2="681.5538" gradientTransform="matrix(0.9999 1.730000e-02 -1.730000e-02 0.9999 8.4761 -11.1017)" style="opacity: 0.27;">
					<stop offset="0" style="stop-color:#FFFFFF;stop-opacity:0"/>
					<stop offset="1" style="stop-color:#FFFFFF"/>
				</linearGradient><linearGradient id="SVGID_80_" gradientUnits="userSpaceOnUse" x1="1144.2173" y1="665.8555" x2="1206.4866" y2="665.8555">
				<stop offset="0" style="stop-color:#E6E7E8"/>
				<stop offset="1" style="stop-color:#939598"/>
			</linearGradient><linearGradient id="SVGID_81_" gradientUnits="userSpaceOnUse" x1="1157.0375" y1="665.8555" x2="1193.6665" y2="665.8555">
				<stop offset="0" style="stop-color:#000000;stop-opacity:0"/>
				<stop offset="0.9949" style="stop-color:#000000"/>
			</linearGradient><linearGradient id="SVGID_82_" gradientUnits="userSpaceOnUse" x1="1159.3268" y1="665.8555" x2="1191.3772" y2="665.8555">
				<stop offset="0" style="stop-color:#F1F2F2"/>
				<stop offset="1" style="stop-color:#A7A9AC"/>
			</linearGradient><linearGradient id="SVGID_83_" gradientUnits="userSpaceOnUse" x1="1043.8354" y1="611.5248" x2="1306.8684" y2="611.5248">
				<stop offset="0" style="stop-color:#FFDE17"/>
				<stop offset="1" style="stop-color:#FBB040"/>
			</linearGradient><linearGradient id="SVGID_84_" gradientUnits="userSpaceOnUse" x1="1088.3651" y1="560.952" x2="1265.8073" y2="560.952">
				<stop offset="5.102040e-03" style="stop-color:#58595B"/>
				<stop offset="0.9965" style="stop-color:#414042"/>
			</linearGradient><linearGradient id="SVGID_85_" gradientUnits="userSpaceOnUse" x1="1128.4174" y1="579.3551" x2="1225.7549" y2="579.3551">
				<stop offset="0" style="stop-color:#DA2428"/>
				<stop offset="1" style="stop-color:#9E1416"/>
			</linearGradient>
</svg>