<svg xmlns="http://www.w3.org/2000/svg" width="511.951" height="462" viewBox="0 0 511.951 462">
  <g id="medal-duotone" transform="translate(-0.024 -50)">
    <path id="Path_1" data-name="Path 1" d="M127.18,0H16A16,16,0,0,0,2.92,25.18l111.27,159a207,207,0,0,1,109.56-53.39L154.62,15.54A32,32,0,0,0,127.18,0ZM496,0H384.82a32,32,0,0,0-27.439,15.538L288.25,130.75a207,207,0,0,1,109.56,53.38L509.08,25.18A16,16,0,0,0,496,0Z" transform="translate(0 50)" fill="#ed3b3b"/>
    <ellipse id="Ellipse_1" data-name="Ellipse 1" cx="136" cy="137" rx="136" ry="137" transform="translate(120.024 201)" fill="#c3bfbf"/>
    <path id="Path_2" data-name="Path 2" d="M256,160A176,176,0,1,0,432,336,176,176,0,0,0,256,160Zm92.52,157.26-37.93,37,9,52.22a11.48,11.48,0,0,1-16.65,12.09L256,393.88l-46.9,24.65a11.48,11.48,0,0,1-16.65-12.09l9-52.22-37.93-37a11.49,11.49,0,0,1,6.35-19.59l52.4-7.63,23.43-47.52a11.5,11.5,0,0,1,20.61,0L289.74,290l52.43,7.64a11.49,11.49,0,0,1,6.35,19.62Z" fill="#e2e2e2"/>
  </g>
</svg>
